<?xml version="1.0" encoding="UTF-8"?>
<svg width="32px" height="32px" viewBox="0 0 32 32" version="1.1" xmlns="http://www.w3.org/2000/svg" xmlns:xlink="http://www.w3.org/1999/xlink">
    <title>B09AD41E-9046-48FF-BF58-85B7B43F0422</title>
    <g id="STDS_Icon" stroke="none" stroke-width="1" fill="none" fill-rule="evenodd">
        <g id="community" transform="translate(-784.000000, -485.000000)" fill="#000000">
            <g id="ic_community_thumbs_up_fill" transform="translate(720.000000, 445.000000)">
                <g id="ic/community/thumbs_up/fill" transform="translate(64.000000, 40.000000)">
                    <g id="ic_community_thumbs_up_fill" transform="translate(2.000000, 2.000000)">
                        <path d="M12.9992675,1.13686838e-13 C16.3792355,1.13686838e-13 17.7657348,2.4402849 17.2649172,6.75518555 L17.2295805,7.03924408 L17.192,7.304 L23.196351,7.30434783 C23.3532992,7.30434783 23.5099746,7.31358499 23.6655702,7.33196398 L23.8980527,7.36637692 L24.1283103,7.41443111 C26.2095163,7.91305339 27.5173997,9.95464424 27.1291647,12.0349198 L27.0862678,12.236307 L24.7075306,22.164949 C24.1860829,24.3414263 22.2860112,25.8969859 20.0679604,25.9950798 L19.8451347,26 L8,26 L7.99969085,9.121 L12.0974268,0.567931306 C12.2452341,0.259418641 12.5387564,0.0506370894 12.8724539,0.00804998725 L12.9992675,1.13686838e-13 Z M6,9 L6,26 L3,26 C1.34314575,26 0,24.6568542 0,23 L0,12 C0,10.3431458 1.34314575,9 3,9 L6,9 Z" id="Shape"></path>
                    </g>
                </g>
            </g>
        </g>
    </g>
</svg>