<?xml version="1.0" encoding="UTF-8"?>
<svg width="32px" height="32px" viewBox="0 0 32 32" version="1.1" xmlns="http://www.w3.org/2000/svg" xmlns:xlink="http://www.w3.org/1999/xlink">
    <title>CEEC4317-0122-46A5-AC61-D307A360933D</title>
    <g id="STDS_Icon" stroke="none" stroke-width="1" fill="none" fill-rule="evenodd">
        <g id="community" transform="translate(-784.000000, -1925.000000)" fill="#000000">
            <g id="ic_community_friend_acceptance_fill" transform="translate(720.000000, 1885.000000)">
                <g id="ic/community/friend_acceptance/fill" transform="translate(64.000000, 40.000000)">
                    <g id="ic_community_friend_acceptance_fill" transform="translate(3.000000, 4.000000)">
                        <path d="M10,14 C15.4292399,14 19.8479317,18.3266708 19.9961582,23.7200952 L20,24 L4.54747351e-13,24 C4.54747351e-13,18.4771525 4.4771525,14 10,14 Z M22.7071068,7.29289322 C23.0675907,7.65337718 23.0953203,8.22060824 22.7902954,8.61289944 L22.7071068,8.70710678 L20.414,11 L26,11 C26.5522847,11 27,11.4477153 27,12 C27,12.5128358 26.6139598,12.9355072 26.1166211,12.9932723 L26,13 L20.414,13 L22.7071068,15.2928932 C23.0675907,15.6533772 23.0953203,16.2206082 22.7902954,16.6128994 L22.7071068,16.7071068 C22.3466228,17.0675907 21.7793918,17.0953203 21.3871006,16.7902954 L21.2928932,16.7071068 L17.2928932,12.7071068 C17.2574992,12.6717127 17.225313,12.6343256 17.1963346,12.5953066 L17.1246712,12.4840621 L17.1246712,12.4840621 L17.0712255,12.371336 L17.0712255,12.371336 L17.0358451,12.265993 L17.0358451,12.265993 L17.0068342,12.1174742 L17.0068342,12.1174742 L17,12 L17,12 L17.0027879,11.9247615 L17.0027879,11.9247615 L17.0202401,11.7992742 L17.0202401,11.7992742 L17.0437273,11.706813 L17.0437273,11.706813 L17.0936734,11.5767785 L17.0936734,11.5767785 L17.1459955,11.4792912 L17.1459955,11.4792912 L17.2097046,11.3871006 L17.2097046,11.3871006 L17.2928932,11.2928932 L17.2928932,11.2928932 L21.2928932,7.29289322 C21.6834175,6.90236893 22.3165825,6.90236893 22.7071068,7.29289322 Z M10,0 C13.3137085,0 16,2.6862915 16,6 C16,9.3137085 13.3137085,12 10,12 C6.6862915,12 4,9.3137085 4,6 C4,2.6862915 6.6862915,0 10,0 Z" id="Shape"></path>
                    </g>
                </g>
            </g>
        </g>
    </g>
</svg>