<?xml version="1.0" encoding="UTF-8"?>
<svg width="32px" height="32px" viewBox="0 0 32 32" version="1.1" xmlns="http://www.w3.org/2000/svg" xmlns:xlink="http://www.w3.org/1999/xlink">
    <title>D5883355-6D2C-4EA7-8C74-200F8D10A70F</title>
    <g id="STDS_Icon" stroke="none" stroke-width="1" fill="none" fill-rule="evenodd">
        <g id="community" transform="translate(-784.000000, -3185.000000)" fill="#000000">
            <g id="ic_community_pencil_fill" transform="translate(720.000000, 3145.000000)">
                <g id="ic/community/pencil/fill" transform="translate(64.000000, 40.000000)">
                    <g id="ic_community_pencil_fill" transform="translate(4.000000, 4.000000)">
                        <path d="M11.3054746,4.69664599 L19.3066025,12.6977787 L8.19498788,23.7143148 C8.0381282,23.8698286 7.83512019,23.9680751 7.61841854,23.9957887 L7.48701395,24.0038468 L1.02462354,23.9734257 C0.515767092,23.9710312 0.0969258477,23.5883655 0.0376229249,23.0949521 L0.0304426499,22.9792442 L1.06530832e-05,16.51685 C-0.00100863609,16.2959689 0.0711472092,16.0822906 0.203223378,15.9082696 L0.289553392,15.8088756 L11.3054746,4.69664599 Z M22.1384752,1.47609178 L22.3378028,1.66605229 C24.4944145,3.82266522 24.5526997,7.28300929 22.5112599,9.51149586 L22.3362794,9.69429721 L20.7250297,11.2913374 L12.7119151,3.27821797 L14.2937886,1.68334489 C16.4411245,-0.482503738 19.9011858,-0.555699512 22.1384752,1.47609178 Z" id="Shape"></path>
                    </g>
                </g>
            </g>
        </g>
    </g>
</svg>