<?xml version="1.0" encoding="UTF-8"?>
<svg width="32px" height="32px" viewBox="0 0 32 32" version="1.1" xmlns="http://www.w3.org/2000/svg" xmlns:xlink="http://www.w3.org/1999/xlink">
    <title>D1EB4097-1756-42AC-9BBE-D8C984E661DA</title>
    <g id="STDS_Icon" stroke="none" stroke-width="1" fill="none" fill-rule="evenodd">
        <g id="community" transform="translate(-784.000000, -6785.000000)" fill="#000000">
            <g id="ic_community_attach_music_fill" transform="translate(720.000000, 6745.000000)">
                <g id="ic/community/attach_music/fill" transform="translate(64.000000, 40.000000)">
                    <g id="ic_community_attach_music_fill" transform="translate(4.000000, 4.000000)">
                        <path d="M23.9936591,0.886002123 L24,1 L24,17 C24,17.05389 23.9957372,17.1067844 23.9875305,17.1583644 C23.995673,17.2706592 24,17.3848243 24,17.5 C24,19.9852814 21.9852814,22 19.5,22 C17.0147186,22 15,19.9852814 15,17.5 C15,15.0147186 17.0147186,13 19.5,13 C20.4252961,13 21.2853652,13.2792703 22.0005166,13.7581204 L22,2.301 L9,5.768 L9,19 C9,19.05389 8.99573722,19.1067844 8.98753047,19.1583644 C8.99567302,19.2706592 9,19.3848243 9,19.5 C9,21.9852814 6.98528137,24 4.5,24 C2.01471863,24 0,21.9852814 0,19.5 C0,17.0147186 2.01471863,15 4.5,15 C5.42529612,15 6.28536516,15.2792703 7.00051661,15.7581204 L7,5 C7,4.58813573 7.25172226,4.2230489 7.62638056,4.07236914 L7.74233735,4.03376506 L22.7423373,0.0337650604 C23.33984,-0.125568982 23.9266859,0.28891655 23.9936591,0.886002123 Z" id="Path"></path>
                    </g>
                </g>
            </g>
        </g>
    </g>
</svg>