<?xml version="1.0" encoding="UTF-8"?>
<svg width="32px" height="32px" viewBox="0 0 32 32" version="1.1" xmlns="http://www.w3.org/2000/svg" xmlns:xlink="http://www.w3.org/1999/xlink">
    <title>92569750-3F36-4142-8C4F-4AE147392F4C</title>
    <g id="STDS_Icon" stroke="none" stroke-width="1" fill="none" fill-rule="evenodd">
        <g id="community" transform="translate(-784.000000, -3005.000000)" fill="#000000">
            <g id="ic_community_write_fill" transform="translate(720.000000, 2965.000000)">
                <g id="ic/community/write/fill" transform="translate(64.000000, 40.000000)">
                    <g id="ic_community_write_fill" transform="translate(4.000000, 4.000000)">
                        <path d="M11.303656,4.69664599 L19.3035045,12.6977787 L8.19366675,23.7143148 C8.03683215,23.8698286 7.83385661,23.9680751 7.61718961,23.9957887 L7.48580603,24.0038468 L1.02444904,23.9734257 C0.515673963,23.9710312 0.0968996967,23.5883655 0.0376062572,23.0949521 L0.0304271304,22.9792442 L0,16.51685 C-0.00101912618,16.2959689 0.0711251805,16.0822906 0.203180228,15.9082696 L0.289496438,15.8088756 L11.303656,4.69664599 Z M23.0012674,21.9756496 C23.5528522,21.9756496 24,22.4228692 24,22.9745426 C24,23.4868107 23.6144491,23.9090141 23.1177407,23.9667152 L23.0012674,23.9734355 L15.0114062,23.9734355 C14.4598214,23.9734355 14.0126736,23.5262159 14.0126736,22.9745426 C14.0126736,22.4622744 14.3982245,22.040071 14.8949329,21.9823699 L15.0114062,21.9756496 L23.0012674,21.9756496 Z M22.1349244,1.47609178 L22.3342201,1.66605229 C24.4904869,3.82266522 24.5487628,7.28300929 22.5076494,9.51149586 L22.3326969,9.69429721 L20.7217049,11.2913374 L12.7098716,3.27821797 L14.2914922,1.68334489 C16.4384847,-0.482503738 19.8979927,-0.555699512 22.1349244,1.47609178 Z" id="Shape"></path>
                    </g>
                </g>
            </g>
        </g>
    </g>
</svg>