<?xml version="1.0" encoding="UTF-8"?>
<svg width="32px" height="32px" viewBox="0 0 32 32" version="1.1" xmlns="http://www.w3.org/2000/svg" xmlns:xlink="http://www.w3.org/1999/xlink">
    <title>EF94C586-1F1C-447D-A32E-B3DF5B9DE8BE</title>
    <g id="STDS_Icon" stroke="none" stroke-width="1" fill="none" fill-rule="evenodd">
        <g id="community" transform="translate(-784.000000, -845.000000)" fill="#000000">
            <g id="ic_community_group_fill" transform="translate(720.000000, 805.000000)">
                <g id="ic/community/group/fill" transform="translate(64.000000, 40.000000)">
                    <g id="ic_community_group_fill" transform="translate(3.000000, 4.000000)">
                        <path d="M16.8959562,14.1794932 C21.4216595,15.0480421 24.8627887,18.9673992 24.9959949,23.7142158 L25,24 L22,24 C22,20.0235498 20.0658701,16.4988398 17.0870441,14.3153039 L16.8959562,14.1794932 Z M10,14 C15.4292399,14 19.8479317,18.3266708 19.9961582,23.7200952 L20,24 L0,24 C0,18.4771525 4.4771525,14 10,14 Z M10,0 C13.3137085,0 16,2.6862915 16,6 C16,9.3137085 13.3137085,12 10,12 C6.6862915,12 4,9.3137085 4,6 C4,2.6862915 6.6862915,0 10,0 Z M15.2994605,0.00734296085 C18.4740473,0.163381686 21,2.78670691 21,6 C21,9.21295385 18.4745806,11.8360644 15.300466,11.9926075 C16.9562657,10.5263733 18,8.38507526 18,6 C18,3.6658154 17.0003311,1.56511599 15.4057695,0.102678084 L15.2994605,0.00734296085 Z" id="Shape"></path>
                    </g>
                </g>
            </g>
        </g>
    </g>
</svg>