<?xml version="1.0" encoding="UTF-8"?>
<svg width="32px" height="32px" viewBox="0 0 32 32" version="1.1" xmlns="http://www.w3.org/2000/svg" xmlns:xlink="http://www.w3.org/1999/xlink">
    <title>331DAA26-86AA-4456-868D-6DB26B8FE4A4</title>
    <g id="STDS_Icon" stroke="none" stroke-width="1" fill="none" fill-rule="evenodd">
        <g id="community" transform="translate(-784.000000, -6425.000000)" fill="#000000">
            <g id="ic_community_attach_emoji_fill" transform="translate(720.000000, 6385.000000)">
                <g id="ic/community/attach_emoji/fill" transform="translate(64.000000, 40.000000)">
                    <g id="ic_community_attach_emoji_fill" transform="translate(4.000000, 4.000000)">
                        <path d="M21,0 C22.6568542,0 24,1.34314575 24,3 L24,21 C24,22.6568542 22.6568542,24 21,24 L3,24 C1.34314575,24 0,22.6568542 0,21 L0,3 C0,1.34314575 1.34314575,0 3,0 L21,0 Z M16.6,14.2 C16.192159,13.8941192 15.6267073,13.946887 15.2814959,14.3043246 L15.0712448,14.5543881 C14.9132469,14.7290977 14.6687929,14.958926 14.3493283,15.1912639 C13.6493575,15.7003336 12.8627331,16 12,16 C11.1372669,16 10.3506425,15.7003336 9.6506717,15.1912639 C9.22471887,14.88148 8.93211821,14.5761576 8.8,14.4 C8.46862915,13.9581722 7.8418278,13.8686292 7.4,14.2 C6.9581722,14.5313708 6.86862915,15.1581722 7.2,15.6 C7.44288179,15.9238424 7.86903113,16.36852 8.4743283,16.8087361 C9.49310753,17.5496664 10.6752331,18 12,18 C13.3247669,18 14.5068925,17.5496664 15.5256717,16.8087361 C16.1309689,16.36852 16.5571182,15.9238424 16.8,15.6 C17.1313708,15.1581722 17.0418278,14.5313708 16.6,14.2 Z M8.5,8 C7.67157288,8 7,8.67157288 7,9.5 C7,10.3284271 7.67157288,11 8.5,11 C9.32842712,11 10,10.3284271 10,9.5 C10,8.67157288 9.32842712,8 8.5,8 Z M15.5,8 C14.6715729,8 14,8.67157288 14,9.5 C14,10.3284271 14.6715729,11 15.5,11 C16.3284271,11 17,10.3284271 17,9.5 C17,8.67157288 16.3284271,8 15.5,8 Z" id="Shape"></path>
                    </g>
                </g>
            </g>
        </g>
    </g>
</svg>