<?xml version="1.0" encoding="UTF-8"?>
<svg width="32px" height="32px" viewBox="0 0 32 32" version="1.1" xmlns="http://www.w3.org/2000/svg" xmlns:xlink="http://www.w3.org/1999/xlink">
    <title>56D15C7E-CF91-469D-B6D2-3252249B3819</title>
    <g id="STDS_Icon" stroke="none" stroke-width="1" fill="none" fill-rule="evenodd">
        <g id="community" transform="translate(-784.000000, -3365.000000)" fill="#000000">
            <g id="ic_community_pencil_square_fill" transform="translate(720.000000, 3325.000000)">
                <g id="ic/community/pencil_square/fill" transform="translate(64.000000, 40.000000)">
                    <g id="ic_community_pencil_square_fill" transform="translate(4.000000, 2.000000)">
                        <path d="M7,2 C7.55228475,2 8,2.44771525 8,3 C8,3.51283584 7.61395981,3.93550716 7.11662113,3.99327227 L7,4 L3,4 C2.48716416,4 2.06449284,4.38604019 2.00672773,4.88337887 L2,5 L2,23 C2,23.5128358 2.38604019,23.9355072 2.88337887,23.9932723 L3,24 L21,24 C21.5128358,24 21.9355072,23.6139598 21.9932723,23.1166211 L22,23 L22,19 C22,18.4477153 22.4477153,18 23,18 C23.5128358,18 23.9355072,18.3860402 23.9932723,18.8833789 L24,19 L24,23 C24,24.5976809 22.75108,25.9036609 21.1762728,25.9949073 L21,26 L3,26 C1.40231912,26 0.0963391206,24.75108 0.00509269341,23.1762728 L0,23 L0,5 C0,3.40231912 1.24891996,2.09633912 2.82372721,2.00509269 L3,2 L7,2 Z M15.5539909,3.776 L22.2219909,10.445 L12.8291448,19.7587233 C12.6984282,19.8883181 12.5292547,19.9701902 12.3486699,19.9932849 L12.2391659,20 L6.85383577,19.9746491 C6.43229751,19.9726654 6.08488688,19.6575283 6.03224321,19.249877 L6.02535095,19.1461645 L6,13.760836 C5.99914152,13.5767684 6.05927145,13.3987031 6.16933502,13.2536857 L6.24127677,13.1708573 L15.5539909,3.776 Z M24.429861,1.20982784 L24.6016914,1.37202818 L24.6148345,1.38517123 C26.4059613,3.17629757 26.4602366,6.04656273 24.7765065,7.90424773 L24.613565,8.07537532 L23.4499909,9.228 L16.7709909,2.549 L17.9114832,1.39958173 C19.6949064,-0.399215116 22.5649141,-0.465858089 24.429861,1.20982784 Z" id="Combined-Shape"></path>
                    </g>
                </g>
            </g>
        </g>
    </g>
</svg>