<?xml version="1.0" encoding="UTF-8"?>
<svg width="32px" height="32px" viewBox="0 0 32 32" version="1.1" xmlns="http://www.w3.org/2000/svg" xmlns:xlink="http://www.w3.org/1999/xlink">
    <title>BB7682F2-B46A-4378-AE34-94B6F3805772</title>
    <g id="STDS_Icon" stroke="none" stroke-width="1" fill="none" fill-rule="evenodd">
        <g id="community" transform="translate(-784.000000, -665.000000)" fill="#000000">
            <g id="ic_community_thumbs_down_fill" transform="translate(720.000000, 625.000000)">
                <g id="ic/community/thumbs_down/fill" transform="translate(64.000000, 40.000000)">
                    <g id="ic_community_thumbs_down_fill" transform="translate(2.000000, 4.000000)">
                        <path d="M19.9872661,1.13686838e-13 L19.9875753,16.879 L15.8898393,25.4320687 C15.742032,25.7405814 15.4485097,25.9493629 15.1148123,25.99195 L14.9879986,26 C11.6080306,26 10.2215313,23.5597151 10.7223489,19.2448144 L10.7576856,18.9607559 L10.7952661,18.696 L4.7909151,18.6956522 C4.63396694,18.6956522 4.47729154,18.686415 4.32169598,18.668036 L4.08921341,18.6336231 L3.85895588,18.5855689 C1.77774988,18.0869466 0.469866397,16.0453558 0.858101422,13.9650802 L0.900998384,13.763693 L3.27973552,3.83505098 C3.80118321,1.65857368 5.70125494,0.103014065 7.91930569,0.00492018562 L8.14213141,1.13686838e-13 L19.9872661,1.13686838e-13 Z M25,0 C26.6568542,0 28,1.34314575 28,3 L28,14 C28,15.6568542 26.6568542,17 25,17 L22,17 L22,0 L25,0 Z" id="Shape"></path>
                    </g>
                </g>
            </g>
        </g>
    </g>
</svg>