<?xml version="1.0" encoding="UTF-8"?>
<svg width="32px" height="32px" viewBox="0 0 32 32" version="1.1" xmlns="http://www.w3.org/2000/svg" xmlns:xlink="http://www.w3.org/1999/xlink">
    <title>C5F63B44-84E6-461D-95B8-E9AF6D0FCFCA</title>
    <g id="STDS_Icon" stroke="none" stroke-width="1" fill="none" fill-rule="evenodd">
        <g id="community" transform="translate(-784.000000, -305.000000)" fill="#000000">
            <g id="ic_community_share_fill" transform="translate(720.000000, 265.000000)">
                <g id="ic/community/share/fill" transform="translate(64.000000, 40.000000)">
                    <g id="ic_community_share_fill" transform="translate(3.000000, 2.000000)">
                        <path d="M19,0 C21.7614237,0 24,2.23857625 24,5 C24,7.76142375 21.7614237,10 19,10 C17.5968901,10 16.3287674,9.4220515 15.4207053,8.49122808 L9.66285012,12.1913341 C9.88056905,12.7522328 10,13.3621691 10,14 C10,14.6378309 9.88056905,15.2477672 9.66285012,15.8086659 L15.4207053,19.5087719 C16.3287674,18.5779485 17.5968901,18 19,18 C21.7614237,18 24,20.2385763 24,23 C24,25.7614237 21.7614237,28 19,28 C16.2385763,28 14,25.7614237 14,23 C14,22.3621691 14.119431,21.7522328 14.3371499,21.1913341 L8.58026095,17.4902374 C7.67213231,18.4216414 6.4036076,19 5,19 C2.23857625,19 0,16.7614237 0,14 C0,11.2385763 2.23857625,9 5,9 C6.4036076,9 7.67213231,9.57835861 8.58026095,10.5097626 L14.3371499,6.80866595 C14.119431,6.24776721 14,5.6378309 14,5 C14,2.23857625 16.2385763,0 19,0 Z" id="Path"></path>
                    </g>
                </g>
            </g>
        </g>
    </g>
</svg>