<?xml version="1.0" encoding="UTF-8"?>
<svg width="32px" height="32px" viewBox="0 0 32 32" version="1.1" xmlns="http://www.w3.org/2000/svg" xmlns:xlink="http://www.w3.org/1999/xlink">
    <title>DEBDB64B-E8F8-4937-9D9C-83E63D19B2B8</title>
    <g id="STDS_Icon" stroke="none" stroke-width="1" fill="none" fill-rule="evenodd">
        <g id="community" transform="translate(-784.000000, -6065.000000)" fill="#000000">
            <g id="ic_community_attach_video_fill" transform="translate(720.000000, 6025.000000)">
                <g id="ic/community/attach_video/fill" transform="translate(64.000000, 40.000000)">
                    <g id="ic_community_attach_video_fill" transform="translate(4.000000, 4.000000)">
                        <path d="M21,0 C22.6568542,0 24,1.34314575 24,3 L24,21 C24,22.6568542 22.6568542,24 21,24 L3,24 C1.34314575,24 0,22.6568542 0,21 L0,3 C0,1.34314575 1.34314575,0 3,0 L21,0 Z M7.5,6.5 L7.5,17.5 C7.5,18.3051794 8.4030272,18.7801993 9.06652882,18.3240419 L17.0665288,12.8240419 C17.6444904,12.4266933 17.6444904,11.5733067 17.0665288,11.1759581 L9.06652882,5.67595808 C8.4030272,5.21980071 7.5,5.69482055 7.5,6.5 Z M9.5,8.401 L14.734,12 L9.5,15.598 L9.5,8.401 Z" id="Shape"></path>
                    </g>
                </g>
            </g>
        </g>
    </g>
</svg>