<svg xmlns="http://www.w3.org/2000/svg" xmlns:xlink="http://www.w3.org/1999/xlink" width="88" height="20" viewBox="0 0 88 20">
    <defs>
        <path id="a" d="M85.22 14.801c1.42-.148 2.618.441 2.766 1.869.113 1.08-.472 2.003-1.44 2.516-1.118.592-4.365.654-5.465.654-2.265 0-3.47-.145-4.54-.34-1.161-.215-1.939-.713-2.455-1.359-.814-1.018-.981-2.406-.981-3.638V5.337c0-1.231.167-2.618.981-3.637C74.602 1.053 75.38.555 76.54.34 77.612.145 78.816 0 81.081 0c1.1 0 4.347.062 5.465.654.968.513 1.553 1.436 1.44 2.516-.148 1.428-1.346 2.018-2.766 1.869-.035-.004-1.885-.21-4.212-.21 0 0-1.233-.01-2.824.181a.424.424 0 0 0-.372.422v2.265h6.263c1.226 0 2.296.993 2.308 2.223-.012 1.23-1.082 2.223-2.308 2.223h-6.263v2.265c0 .215.16.396.372.422 1.59.19 2.824.182 2.824.182 2.327 0 4.177-.207 4.212-.21zM5.91 6.498c1.78 1.516 9.679.938 9.679 7.265 0 4.204-3.589 6.181-8.045 6.181-3.1 0-7.544-1.225-7.544-3.898 0-1.225.785-2.282 2.059-2.282 1.217 0 2.94 1.482 5.981 1.482 1.673 0 2.464-.364 2.464-1.122 0-.361-.138-.568-.36-.79-1.8-1.727-9.729-1.457-9.729-7.618 0-3.537 3.087-5.71 7.489-5.71 1.522 0 4.623.325 5.841 1.55.47.474.702 1.059.702 1.81 0 1.17-.792 2.042-2.065 2.042-.886 0-2.486-.803-4.617-.803-1.329 0-2.328.202-2.328 1.045 0 .172.046.338.179.537.07.105.165.208.288.307l.005.004zM30.446.573c1.594.27 2.543 1.38 2.4 2.762-.144 1.38-1.313 2.131-2.686 1.987-.022-.003-1.516-.108-3.335-.178v12.39c0 1.665-1.332 2.27-2.595 2.27-1.235 0-2.456-.605-2.456-2.27V5.143c-1.616.07-3.26.175-3.282.178-1.374.143-2.5-.606-2.643-1.987-.144-1.381.879-2.516 2.41-2.762.144-.023 2.658-.375 6.093-.375 3.56 0 5.95.35 6.094.375zm37.826-.32c.93 0 2.527.82 2.527 2.712 0 4.123-2.892 12.46-6.204 15.793-.687.69-1.564 1.059-2.453 1.048-.889.011-1.765-.358-2.452-1.048-3.313-3.332-6.205-11.67-6.205-15.793A2.624 2.624 0 0 1 56.013.254c1.797 0 2.33 1.186 2.555 2.682.59 3.87 1.825 7.507 3.537 11.178h.076c1.713-3.671 2.948-7.309 3.538-11.178.224-1.496.758-2.682 2.554-2.682zM42.29.093c5.466 0 9.897 4.456 9.897 9.954 0 5.497-4.431 9.954-9.897 9.954-5.465 0-9.895-4.457-9.895-9.954 0-5.498 4.43-9.954 9.895-9.954zm-.01 14.988c2.76 0 4.995-2.25 4.995-5.024 0-2.775-2.236-5.024-4.995-5.024-2.758 0-4.994 2.25-4.994 5.024 0 2.775 2.236 5.024 4.994 5.024z"/>
    </defs>
    <g fill="none" fill-rule="evenodd">
        <mask id="b" fill="#fff">
            <use xlink:href="#a"/>
        </mask>
        <use fill="#FF5000" xlink:href="#a"/>
        <g fill="#FF5000" mask="url(#b)">
            <path d="M0 0h88v20H0z"/>
        </g>
    </g>
</svg>
