<?xml version="1.0" encoding="UTF-8"?>
<svg width="32px" height="32px" viewBox="0 0 32 32" version="1.1" xmlns="http://www.w3.org/2000/svg" xmlns:xlink="http://www.w3.org/1999/xlink">
    <title>84AA9569-F328-42C8-AA64-F75B4ABC4283</title>
    <g id="STDS_Icon" stroke="none" stroke-width="1" fill="none" fill-rule="evenodd">
        <g id="control" transform="translate(-784.000000, -6065.000000)" fill="#000000">
            <g id="ic_control_long_arrow_right_circle_fill" transform="translate(720.000000, 6025.000000)">
                <g id="ic/control/long_arrow_right_circle/fill" transform="translate(64.000000, 40.000000)">
                    <g id="ic_control_long_arrow_right_circle_fill" transform="translate(2.000000, 2.000000)">
                        <path d="M14,0 C21.7319865,0 28,6.2680135 28,14 C28,21.7319865 21.7319865,28 14,28 C6.2680135,28 0,21.7319865 0,14 C0,6.2680135 6.2680135,0 14,0 Z M14.6128994,7.20970461 C14.2532992,6.93009846 13.7467008,6.93009846 13.3871006,7.20970461 L13.2928932,7.29289322 L13.2097046,7.38710056 C12.9300985,7.74670083 12.9300985,8.25329917 13.2097046,8.61289944 L13.2928932,8.70710678 L17.647,13.062 L8,13.0625 L7.88337887,13.0692277 C7.38604019,13.1269928 7,13.5496642 7,14.0625 C7,14.5753358 7.38604019,14.9980072 7.88337887,15.0557723 L8,15.0625 L17.523,15.062 L13.2928932,19.2928932 L13.2097046,19.3871006 C12.9046797,19.7793918 12.9324093,20.3466228 13.2928932,20.7071068 C13.6533772,21.0675907 14.2206082,21.0953203 14.6128994,20.7902954 L14.7071068,20.7071068 L20.7071068,14.7071068 L20.7902954,14.6128994 C21.0699015,14.2532992 21.0699015,13.7467008 20.7902954,13.3871006 L20.7071068,13.2928932 L14.7071068,7.29289322 L14.6128994,7.20970461 Z" id="Shape"></path>
                    </g>
                </g>
            </g>
        </g>
    </g>
</svg>