<?xml version="1.0" encoding="UTF-8"?>
<svg width="32px" height="32px" viewBox="0 0 32 32" version="1.1" xmlns="http://www.w3.org/2000/svg" xmlns:xlink="http://www.w3.org/1999/xlink">
    <title>58C97D1D-4E39-4533-AF63-849A05BF381E</title>
    <g id="STDS_Icon" stroke="none" stroke-width="1" fill="none" fill-rule="evenodd">
        <g id="control" transform="translate(-784.000000, -5165.000000)" fill="#000000">
            <g id="ic_control_check_circle_fill" transform="translate(720.000000, 5125.000000)">
                <g id="ic/control/check_circle/fill" transform="translate(64.000000, 40.000000)">
                    <g id="ic_control_check_circle_fill" transform="translate(2.000000, 2.000000)">
                        <path d="M14,0 C21.7319865,0 28,6.2680135 28,14 C28,21.7319865 21.7319865,28 14,28 C6.2680135,28 0,21.7319865 0,14 C0,6.2680135 6.2680135,0 14,0 Z M20.7071068,9.29289322 C20.3466228,8.93240926 19.7793918,8.90467972 19.3871006,9.20970461 L19.2928932,9.29289322 L12,16.585 L8.70710678,13.2928932 L8.61289944,13.2097046 C8.22060824,12.9046797 7.65337718,12.9324093 7.29289322,13.2928932 C6.93240926,13.6533772 6.90467972,14.2206082 7.20970461,14.6128994 L7.29289322,14.7071068 L11.2928932,18.7071068 L11.3871006,18.7902954 C11.7467008,19.0699015 12.2532992,19.0699015 12.6128994,18.7902954 L12.7071068,18.7071068 L20.7071068,10.7071068 L20.7902954,10.6128994 C21.0953203,10.2206082 21.0675907,9.65337718 20.7071068,9.29289322 Z" id="Shape"></path>
                    </g>
                </g>
            </g>
        </g>
    </g>
</svg>