<?xml version="1.0" encoding="UTF-8"?>
<svg width="32px" height="32px" viewBox="0 0 32 32" version="1.1" xmlns="http://www.w3.org/2000/svg" xmlns:xlink="http://www.w3.org/1999/xlink">
    <title>E0BC1BE6-8CAD-4F70-87AD-C664F9B7DD51</title>
    <g id="STDS_Icon" stroke="none" stroke-width="1" fill="none" fill-rule="evenodd">
        <g id="control" transform="translate(-784.000000, -6245.000000)" fill="#000000">
            <g id="ic_control_long_arrow_up_circle_fill" transform="translate(720.000000, 6205.000000)">
                <g id="ic/control/long_arrow_up_circle/fill" transform="translate(64.000000, 40.000000)">
                    <g id="ic_control_long_arrow_up_circle_fill" transform="translate(2.000000, 2.000000)">
                        <path d="M14,0 C21.7319865,0 28,6.2680135 28,14 C28,21.7319865 21.7319865,28 14,28 C6.2680135,28 0,21.7319865 0,14 C0,6.2680135 6.2680135,0 14,0 Z M14.6128994,7.20970461 C14.2532992,6.93009846 13.7467008,6.93009846 13.3871006,7.20970461 L13.2928932,7.29289322 L7.29289322,13.2928932 L7.20970461,13.3871006 C6.93009846,13.7467008 6.93009846,14.2532992 7.20970461,14.6128994 L7.29289322,14.7071068 L7.38710056,14.7902954 C7.74670083,15.0699015 8.25329917,15.0699015 8.61289944,14.7902954 L8.70710678,14.7071068 L13,10.415 L13,20 L13.0067277,20.1166211 C13.0644928,20.6139598 13.4871642,21 14,21 C14.5128358,21 14.9355072,20.6139598 14.9932723,20.1166211 L15,20 L15,10.415 L19.2928932,14.7071068 L19.3871006,14.7902954 C19.7793918,15.0953203 20.3466228,15.0675907 20.7071068,14.7071068 C21.0675907,14.3466228 21.0953203,13.7793918 20.7902954,13.3871006 L20.7071068,13.2928932 L14.7071068,7.29289322 L14.6128994,7.20970461 Z" id="Shape"></path>
                    </g>
                </g>
            </g>
        </g>
    </g>
</svg>