<?xml version="1.0" encoding="UTF-8"?>
<svg width="32px" height="32px" viewBox="0 0 32 32" version="1.1" xmlns="http://www.w3.org/2000/svg" xmlns:xlink="http://www.w3.org/1999/xlink">
    <title>33D2E60E-C05C-491C-B5E5-F80CFBEB5080</title>
    <g id="STDS_Icon" stroke="none" stroke-width="1" fill="none" fill-rule="evenodd">
        <g id="control" transform="translate(-784.000000, -5885.000000)" fill="#000000">
            <g id="ic_control_long_arrow_letf_circle_fill" transform="translate(720.000000, 5845.000000)">
                <g id="ic/control/long_arrow_letf_circle/fill" transform="translate(64.000000, 40.000000)">
                    <g id="ic_control_long_arrow_letf_circle_fill" transform="translate(2.000000, 2.000000)">
                        <path d="M14,0 C21.7319865,0 28,6.2680135 28,14 C28,21.7319865 21.7319865,28 14,28 C6.2680135,28 0,21.7319865 0,14 C0,6.2680135 6.2680135,0 14,0 Z M14.7071068,7.29289322 C14.3466228,6.93240926 13.7793918,6.90467972 13.3871006,7.20970461 L13.2928932,7.29289322 L7.29289322,13.2928932 L7.20970461,13.3871006 C6.93009846,13.7467008 6.93009846,14.2532992 7.20970461,14.6128994 L7.29289322,14.7071068 L13.2928932,20.7071068 L13.3871006,20.7902954 C13.7467008,21.0699015 14.2532992,21.0699015 14.6128994,20.7902954 L14.7071068,20.7071068 L14.7902954,20.6128994 C15.0699015,20.2532992 15.0699015,19.7467008 14.7902954,19.3871006 L14.7071068,19.2928932 L10.477,15.062 L20,15.0625 L20.1166211,15.0557723 C20.6139598,14.9980072 21,14.5753358 21,14.0625 C21,13.5496642 20.6139598,13.1269928 20.1166211,13.0692277 L20,13.0625 L10.353,13.062 L14.7071068,8.70710678 L14.7902954,8.61289944 C15.0953203,8.22060824 15.0675907,7.65337718 14.7071068,7.29289322 Z" id="Shape"></path>
                    </g>
                </g>
            </g>
        </g>
    </g>
</svg>