<?xml version="1.0" encoding="UTF-8"?>
<svg width="32px" height="32px" viewBox="0 0 32 32" version="1.1" xmlns="http://www.w3.org/2000/svg" xmlns:xlink="http://www.w3.org/1999/xlink">
    <title>5E281785-E082-49E7-9011-062F129F5EA3</title>
    <g id="STDS_Icon" stroke="none" stroke-width="1" fill="none" fill-rule="evenodd">
        <g id="control" transform="translate(-784.000000, -4625.000000)">
            <g id="ic_control_preview_fill" transform="translate(720.000000, 4585.000000)">
                <g id="ic/control/preview/fill" transform="translate(64.000000, 40.000000)">
                    <g id="ic_control_preview_fill" transform="translate(2.000000, 2.000000)">
                        <path d="M12,1 C15.037375,1 17.7873653,2.23132887 19.7780182,4.22198178 C21.7686711,6.2126347 23,8.962625 23,12 C23,15.037375 21.7686711,17.7873653 19.7780182,19.7780182 C17.7873653,21.7686711 15.037375,23 12,23 C8.962625,23 6.2126347,21.7686711 4.22198178,19.7780182 C2.23132887,17.7873653 1,15.037375 1,12 C1,8.962625 2.23132887,6.2126347 4.22198178,4.22198178 C6.2126347,2.23132887 8.962625,1 12,1 Z" id="Stroke-5" stroke="#000000" stroke-width="2"></path>
                        <path d="M12,0 C18.627,0 24,5.373 24,12 C24,14.9534027 22.9328432,17.6577426 21.163123,19.7484262 L25.7071068,24.2928932 C26.0976311,24.6834175 26.0976311,25.3165825 25.7071068,25.7071068 C25.3466228,26.0675907 24.7793918,26.0953203 24.3871006,25.7902954 L24.2928932,25.7071068 L19.7484262,21.163123 C17.6577426,22.9328432 14.9534027,24 12,24 C5.373,24 0,18.627 0,12 C0,5.373 5.373,0 12,0 Z M16.3871006,8.20970461 L16.2928932,8.29289322 L10.5,14.085 L7.70710678,11.2928932 L7.61289944,11.2097046 C7.22060824,10.9046797 6.65337718,10.9324093 6.29289322,11.2928932 C5.93240926,11.6533772 5.90467972,12.2206082 6.20970461,12.6128994 L6.29289322,12.7071068 L9.79289322,16.2071068 L9.88710056,16.2902954 C10.2467008,16.5699015 10.7532992,16.5699015 11.1128994,16.2902954 L11.2071068,16.2071068 L17.7071068,9.70710678 L17.7902954,9.61289944 C18.0953203,9.22060824 18.0675907,8.65337718 17.7071068,8.29289322 C17.3766631,7.96244959 16.8724945,7.91161211 16.4885971,8.14038077 L16.3871006,8.20970461 Z" id="Shape" fill="#000000"></path>
                    </g>
                </g>
            </g>
        </g>
    </g>
</svg>