<?xml version="1.0" encoding="UTF-8"?>
<svg width="32px" height="32px" viewBox="0 0 32 32" version="1.1" xmlns="http://www.w3.org/2000/svg" xmlns:xlink="http://www.w3.org/1999/xlink">
    <title>D08060F5-6363-47D0-832E-EDA70EABB60A</title>
    <g id="STDS_Icon" stroke="none" stroke-width="1" fill="none" fill-rule="evenodd">
        <g id="control" transform="translate(-784.000000, -6425.000000)" fill="#000000">
            <g id="ic_control_long_arrow_down_circle_fill" transform="translate(720.000000, 6385.000000)">
                <g id="ic/control/long_arrow_down_circle/fill" transform="translate(64.000000, 40.000000)">
                    <g id="ic_control_long_arrow_down_circle_fill" transform="translate(2.000000, 2.000000)">
                        <path d="M14,0 C21.7319865,0 28,6.2680135 28,14 C28,21.7319865 21.7319865,28 14,28 C6.2680135,28 0,21.7319865 0,14 C0,6.2680135 6.2680135,0 14,0 Z M14,7 C13.4871642,7 13.0644928,7.38604019 13.0067277,7.88337887 L13,8 L13,17.585 L8.70710678,13.2928932 L8.61289944,13.2097046 C8.22060824,12.9046797 7.65337718,12.9324093 7.29289322,13.2928932 C6.93240926,13.6533772 6.90467972,14.2206082 7.20970461,14.6128994 L7.29289322,14.7071068 L13.2928932,20.7071068 L13.3871006,20.7902954 C13.7467008,21.0699015 14.2532992,21.0699015 14.6128994,20.7902954 L14.7071068,20.7071068 L20.7071068,14.7071068 L20.7902954,14.6128994 C21.0699015,14.2532992 21.0699015,13.7467008 20.7902954,13.3871006 L20.7071068,13.2928932 L20.6128994,13.2097046 C20.2532992,12.9300985 19.7467008,12.9300985 19.3871006,13.2097046 L19.2928932,13.2928932 L15,17.585 L15,8 L14.9932723,7.88337887 C14.9355072,7.38604019 14.5128358,7 14,7 Z" id="Shape"></path>
                    </g>
                </g>
            </g>
        </g>
    </g>
</svg>