<?xml version="1.0" encoding="UTF-8"?>
<svg width="32px" height="32px" viewBox="0 0 32 32" version="1.1" xmlns="http://www.w3.org/2000/svg" xmlns:xlink="http://www.w3.org/1999/xlink">
    <title>D898F735-8AEF-4DB6-A522-2512421CC244</title>
    <g id="STDS_Icon" stroke="none" stroke-width="1" fill="none" fill-rule="evenodd">
        <g id="control" transform="translate(-784.000000, -4445.000000)" fill="#000000">
            <g id="ic_control_enlarge_fill" transform="translate(720.000000, 4405.000000)">
                <g id="ic/control/enlarge/fill" transform="translate(64.000000, 40.000000)">
                    <g id="ic_control_enlarge_fill" transform="translate(2.000000, 2.000000)">
                        <path d="M12,0 C18.627,0 24,5.373 24,12 C24,14.9534027 22.9328432,17.6577426 21.163123,19.7484262 L25.7071068,24.2928932 C26.0976311,24.6834175 26.0976311,25.3165825 25.7071068,25.7071068 C25.3466228,26.0675907 24.7793918,26.0953203 24.3871006,25.7902954 L24.2928932,25.7071068 L19.7484262,21.163123 C17.6577426,22.9328432 14.9534027,24 12,24 C5.373,24 0,18.627 0,12 C0,5.373 5.373,0 12,0 Z M12,7 C11.4871642,7 11.0644928,7.38604019 11.0067277,7.88337887 L11,8 L11,11 L8,11 L7.88337887,11.0067277 C7.38604019,11.0644928 7,11.4871642 7,12 C7,12.5128358 7.38604019,12.9355072 7.88337887,12.9932723 L8,13 L11,13 L11,16 L11.0067277,16.1166211 C11.0644928,16.6139598 11.4871642,17 12,17 C12.5128358,17 12.9355072,16.6139598 12.9932723,16.1166211 L13,16 L13,13 L16,13 L16.1166211,12.9932723 C16.6139598,12.9355072 17,12.5128358 17,12 C17,11.4871642 16.6139598,11.0644928 16.1166211,11.0067277 L16,11 L13,11 L13,8 L12.9932723,7.88337887 C12.9355072,7.38604019 12.5128358,7 12,7 Z" id="Shape"></path>
                    </g>
                </g>
            </g>
        </g>
    </g>
</svg>