<svg xmlns="http://www.w3.org/2000/svg" width="24" height="24" viewBox="0 0 24 24">
    <g fill="none" fill-rule="evenodd">
        <g fill="#999">
            <g>
                <g>
                    <path d="M2.5 14.488c1.105 0 2 .896 2 2 0 1.105-.895 2-2 2s-2-.895-2-2c0-1.104.895-2 2-2zm0-7c1.105 0 2 .896 2 2 0 1.105-.895 2-2 2s-2-.895-2-2c0-1.104.895-2 2-2zm0-7c1.105 0 2 .896 2 2 0 1.105-.895 2-2 2s-2-.895-2-2c0-1.104.895-2 2-2z" transform="translate(-1155 -257) translate(1155 257) translate(9.5 2.5)"/>
                </g>
            </g>
        </g>
    </g>
</svg>
