<svg xmlns="http://www.w3.org/2000/svg" width="20" height="20" viewBox="0 0 20 20">
    <g fill="none" fill-rule="evenodd">
        <g fill="#FFF" fill-rule="nonzero">
            <g>
                <g>
                    <g>
                        <path d="M8.333.823c4.603 0 8.334 3.73 8.334 8.333 0 4.602-3.731 8.333-8.334 8.333C3.731 17.49 0 13.76 0 9.156 0 4.554 3.731.823 8.333.823zm0 11.278c-.46 0-.833.373-.833.833 0 .46.373.833.833.833.46 0 .834-.373.834-.833 0-.46-.373-.833-.834-.833zm.904-7.64c-1.446-.519-3.03.256-3.536 1.723-.112.326.06.682.387.794.326.113.682-.06.795-.387.28-.812 1.145-1.235 1.932-.953.61.218 1.02.81 1.019 1.478 0 .39-.283.773-.799 1.124-.202.138-.423.258-.644.358-.078.036-.145.064-.196.084l-.082.03c-.253.086-.424.324-.424.592v1.276l.006.085c.042.305.303.54.62.54l.084-.005c.305-.042.54-.303.54-.62v-.855l.136-.064c.208-.103.435-.232.663-.387.824-.56 1.346-1.27 1.346-2.157.001-1.192-.737-2.258-1.847-2.655z" transform="translate(-669 -1050) translate(421 1038) translate(248 12) translate(1.667 .844)"/>
                    </g>
                </g>
            </g>
        </g>
    </g>
</svg>
