<svg xmlns="http://www.w3.org/2000/svg" xmlns:xlink="http://www.w3.org/1999/xlink" width="75" height="39" viewBox="0 0 75 39">
    <defs>
        <path id="prefix__a" d="M8.29 2.161c.125-.125.401-.053.616.162.215.215.288.491.162.617l-2.79 2.789 2.79 2.79c.112.111.067.342-.096.543l-.066.073c-.215.215-.491.288-.616.163L5.5 6.507l-2.79 2.79c-.111.112-.342.067-.542-.095l-.074-.067c-.215-.215-.288-.49-.162-.616l2.79-2.79-2.79-2.79c-.112-.11-.067-.341.096-.542l.066-.074c.215-.215.491-.287.616-.162l2.79 2.79z"/>
        <path id="prefix__b" d="M8.29 1.611c.125-.125.401-.053.616.162.215.215.288.491.162.616l-2.79 2.79 2.79 2.79c.112.111.067.342-.096.542l-.066.074c-.215.215-.491.288-.616.162L5.5 5.957l-2.79 2.79c-.111.112-.342.067-.542-.096l-.074-.066c-.215-.215-.288-.49-.162-.616l2.79-2.79-2.79-2.79c-.112-.111-.067-.341.096-.542l.066-.074c.215-.215.491-.287.616-.162l2.79 2.79z"/>
    </defs>
    <g fill="none" fill-rule="evenodd">
        <circle cx="38" cy="20" r="19" fill="#5E3DF5"/>
        <g transform="translate(64.45 21.45)">
            <use fill="#5E3DF5" fill-rule="nonzero" transform="rotate(-45 5.5 5.5)" xlink:href="#prefix__a"/>
        </g>
        <use fill="#5E3DF5" fill-rule="nonzero" transform="rotate(-45 5.5 4.95)" xlink:href="#prefix__b"/>
        <g fill="#FFF">
            <g>
                <path fill-rule="nonzero" d="M22.316 13.895c0 1.435-.377 2.818-1.08 4.035l-.037.06 1.712 4.52-5.833-1.024-.19.073c-.776.278-1.593.438-2.43.474l-.36.007c-1.63 0-3.182-.472-4.484-1.313.266.02.533.03.804.03 5.799 0 10.5-4.702 10.5-10.5 0-.329-.016-.654-.045-.975.926 1.335 1.443 2.933 1.443 4.613z" transform="translate(25 7) translate(1.644 1.954)"/>
                <path d="M10.047.25c5.282 0 9.564 4.282 9.564 9.564 0 5.281-4.282 9.563-9.564 9.563-1.525 0-2.967-.357-4.247-.993l-5.316.993 1.266-4.805C.945 13.17.484 11.546.484 9.814.484 4.532 4.766.25 10.047.25zm-2.41 8.113c-.74-.196-1.52.199-1.79.93-.288.777.11 1.64.892 1.93l.137.043c.74.196 1.52-.199 1.79-.93.287-.777-.11-1.64-.892-1.93zm5.593 0c-.738-.196-1.519.199-1.79.93-.287.777.11 1.64.892 1.93l.138.043c.739.196 1.52-.199 1.79-.93.287-.777-.11-1.64-.892-1.93z" transform="translate(25 7) translate(1.644 1.954)"/>
            </g>
        </g>
    </g>
</svg>
