<svg xmlns="http://www.w3.org/2000/svg" xmlns:xlink="http://www.w3.org/1999/xlink" width="131" height="130" viewBox="0 0 131 130">
    <defs>
        <filter id="70suqthqic" width="121.2%" height="134.2%" x="-10.6%" y="-15.3%" filterUnits="objectBoundingBox">
            <feOffset dy="1" in="SourceAlpha" result="shadowOffsetOuter1"/>
            <feGaussianBlur in="shadowOffsetOuter1" result="shadowBlurOuter1" stdDeviation="3"/>
            <feColorMatrix in="shadowBlurOuter1" values="0 0 0 0 0.161255414 0 0 0 0 0.240589513 0 0 0 0 0.564028533 0 0 0 0.15 0"/>
        </filter>
        <filter id="kp4ld4nb0f" width="100%" height="100%" x="0%" y="0%" filterUnits="objectBoundingBox">
            <feGaussianBlur in="SourceGraphic"/>
        </filter>
        <filter id="3iy8spowai" width="100%" height="100%" x="0%" y="0%" filterUnits="objectBoundingBox">
            <feGaussianBlur in="SourceGraphic"/>
        </filter>
        <filter id="llbod7euok" width="100%" height="100%" x="0%" y="0%" filterUnits="objectBoundingBox">
            <feGaussianBlur in="SourceGraphic"/>
        </filter>
        <filter id="evujvm4grm" width="100%" height="100%" x="0%" y="0%" filterUnits="objectBoundingBox">
            <feGaussianBlur in="SourceGraphic"/>
        </filter>
        <filter id="16z5ir8skn" width="153.1%" height="161.5%" x="-26.6%" y="-15.4%" filterUnits="objectBoundingBox">
            <feOffset dy="1" in="SourceAlpha" result="shadowOffsetOuter1"/>
            <feGaussianBlur in="shadowOffsetOuter1" result="shadowBlurOuter1" stdDeviation=".5"/>
            <feColorMatrix in="shadowBlurOuter1" values="0 0 0 0 0.125389408 0 0 0 0 0.346726723 0 0 0 0 0.761096014 0 0 0 0.3 0"/>
        </filter>
        <filter id="wv9bhj81aq" width="179.7%" height="197.4%" x="-39.8%" y="-48.7%" filterUnits="objectBoundingBox">
            <feGaussianBlur in="SourceAlpha" result="shadowBlurInner1" stdDeviation="1.5"/>
            <feOffset dy="3" in="shadowBlurInner1" result="shadowOffsetInner1"/>
            <feComposite in="shadowOffsetInner1" in2="SourceAlpha" k2="-1" k3="1" operator="arithmetic" result="shadowInnerInner1"/>
            <feColorMatrix in="shadowInnerInner1" values="0 0 0 0 1 0 0 0 0 1 0 0 0 0 1 0 0 0 0.1 0"/>
        </filter>
        <filter id="k4akmohesr" width="153.1%" height="161.5%" x="-26.6%" y="-15.4%" filterUnits="objectBoundingBox">
            <feOffset dy="1" in="SourceAlpha" result="shadowOffsetOuter1"/>
            <feGaussianBlur in="shadowOffsetOuter1" result="shadowBlurOuter1" stdDeviation=".5"/>
            <feColorMatrix in="shadowBlurOuter1" values="0 0 0 0 0.125389408 0 0 0 0 0.346726723 0 0 0 0 0.761096014 0 0 0 0.3 0"/>
        </filter>
        <filter id="grz1r49onu" width="179.7%" height="197.4%" x="-39.8%" y="-48.7%" filterUnits="objectBoundingBox">
            <feGaussianBlur in="SourceAlpha" result="shadowBlurInner1" stdDeviation="1.5"/>
            <feOffset dy="3" in="shadowBlurInner1" result="shadowOffsetInner1"/>
            <feComposite in="shadowOffsetInner1" in2="SourceAlpha" k2="-1" k3="1" operator="arithmetic" result="shadowInnerInner1"/>
            <feColorMatrix in="shadowInnerInner1" values="0 0 0 0 1 0 0 0 0 1 0 0 0 0 1 0 0 0 0.1 0"/>
        </filter>
        <filter id="65neoof43v" width="153.1%" height="161.5%" x="-26.6%" y="-15.4%" filterUnits="objectBoundingBox">
            <feOffset dy="1" in="SourceAlpha" result="shadowOffsetOuter1"/>
            <feGaussianBlur in="shadowOffsetOuter1" result="shadowBlurOuter1" stdDeviation=".5"/>
            <feColorMatrix in="shadowBlurOuter1" values="0 0 0 0 0.125389408 0 0 0 0 0.346726723 0 0 0 0 0.761096014 0 0 0 0.3 0"/>
        </filter>
        <filter id="cwbbkb9u7y" width="179.7%" height="197.4%" x="-39.8%" y="-48.7%" filterUnits="objectBoundingBox">
            <feGaussianBlur in="SourceAlpha" result="shadowBlurInner1" stdDeviation="1.5"/>
            <feOffset dy="3" in="shadowBlurInner1" result="shadowOffsetInner1"/>
            <feComposite in="shadowOffsetInner1" in2="SourceAlpha" k2="-1" k3="1" operator="arithmetic" result="shadowInnerInner1"/>
            <feColorMatrix in="shadowInnerInner1" values="0 0 0 0 1 0 0 0 0 1 0 0 0 0 1 0 0 0 0.1 0"/>
        </filter>
        <filter id="9zjwdfjhqz" width="153.1%" height="161.5%" x="-26.6%" y="-15.4%" filterUnits="objectBoundingBox">
            <feOffset dy="1" in="SourceAlpha" result="shadowOffsetOuter1"/>
            <feGaussianBlur in="shadowOffsetOuter1" result="shadowBlurOuter1" stdDeviation=".5"/>
            <feColorMatrix in="shadowBlurOuter1" values="0 0 0 0 0.125389408 0 0 0 0 0.346726723 0 0 0 0 0.761096014 0 0 0 0.3 0"/>
        </filter>
        <filter id="92stqj6agC" width="179.7%" height="197.4%" x="-39.8%" y="-48.7%" filterUnits="objectBoundingBox">
            <feGaussianBlur in="SourceAlpha" result="shadowBlurInner1" stdDeviation="1.5"/>
            <feOffset dy="3" in="shadowBlurInner1" result="shadowOffsetInner1"/>
            <feComposite in="shadowOffsetInner1" in2="SourceAlpha" k2="-1" k3="1" operator="arithmetic" result="shadowInnerInner1"/>
            <feColorMatrix in="shadowInnerInner1" values="0 0 0 0 1 0 0 0 0 1 0 0 0 0 1 0 0 0 0.1 0"/>
        </filter>
        <filter id="e5uj03fe3D" width="122.1%" height="124.1%" x="-11.1%" y="-6%" filterUnits="objectBoundingBox">
            <feOffset dy="1" in="SourceAlpha" result="shadowOffsetOuter1"/>
            <feGaussianBlur in="shadowOffsetOuter1" result="shadowBlurOuter1" stdDeviation=".5"/>
            <feColorMatrix in="shadowBlurOuter1" values="0 0 0 0 0.125490196 0 0 0 0 0.345098039 0 0 0 0 0.760784314 0 0 0 0.3 0"/>
        </filter>
        <filter id="cbxkos2nnG" width="111.1%" height="112.1%" x="-5.5%" y="-6%" filterUnits="objectBoundingBox">
            <feGaussianBlur in="SourceAlpha" result="shadowBlurInner1" stdDeviation=".5"/>
            <feOffset dy="1" in="shadowBlurInner1" result="shadowOffsetInner1"/>
            <feComposite in="shadowOffsetInner1" in2="SourceAlpha" k2="-1" k3="1" operator="arithmetic" result="shadowInnerInner1"/>
            <feColorMatrix in="shadowInnerInner1" values="0 0 0 0 1 0 0 0 0 1 0 0 0 0 1 0 0 0 0.1 0"/>
        </filter>
        <filter id="8fe4ld2dyH" width="183.5%" height="225.3%" x="-41.8%" y="-56%" filterUnits="objectBoundingBox">
            <feOffset dy="1" in="SourceAlpha" result="shadowOffsetOuter1"/>
            <feGaussianBlur in="shadowOffsetOuter1" result="shadowBlurOuter1" stdDeviation="3"/>
            <feColorMatrix in="shadowBlurOuter1" values="0 0 0 0 0.161255414 0 0 0 0 0.240589513 0 0 0 0 0.564028533 0 0 0 0.15 0"/>
        </filter>
        <filter id="x8nxbhbz7J" width="251.8%" height="238.5%" x="-75.9%" y="-61.9%" filterUnits="objectBoundingBox">
            <feOffset dy="1" in="SourceAlpha" result="shadowOffsetOuter1"/>
            <feGaussianBlur in="shadowOffsetOuter1" result="shadowBlurOuter1" stdDeviation="3"/>
            <feColorMatrix in="shadowBlurOuter1" values="0 0 0 0 0.161255414 0 0 0 0 0.240589513 0 0 0 0 0.564028533 0 0 0 0.15 0"/>
        </filter>
        <filter id="a8ptot8tkL" width="324.2%" height="282.1%" x="-112.1%" y="-81.4%" filterUnits="objectBoundingBox">
            <feOffset dy="1" in="SourceAlpha" result="shadowOffsetOuter1"/>
            <feGaussianBlur in="shadowOffsetOuter1" result="shadowBlurOuter1" stdDeviation="3"/>
            <feColorMatrix in="shadowBlurOuter1" values="0 0 0 0 0.161255414 0 0 0 0 0.240589513 0 0 0 0 0.564028533 0 0 0 0.15 0"/>
        </filter>
        <filter id="nxj19o5x5N" width="189.7%" height="282.1%" x="-44.8%" y="-81.4%" filterUnits="objectBoundingBox">
            <feOffset dy="1" in="SourceAlpha" result="shadowOffsetOuter1"/>
            <feGaussianBlur in="shadowOffsetOuter1" result="shadowBlurOuter1" stdDeviation="3"/>
            <feColorMatrix in="shadowBlurOuter1" values="0 0 0 0 0.161255414 0 0 0 0 0.240589513 0 0 0 0 0.564028533 0 0 0 0.15 0"/>
        </filter>
        <filter id="wt1fjoxhqP" width="215.4%" height="319.2%" x="-57.7%" y="-98.1%" filterUnits="objectBoundingBox">
            <feOffset dy="1" in="SourceAlpha" result="shadowOffsetOuter1"/>
            <feGaussianBlur in="shadowOffsetOuter1" result="shadowBlurOuter1" stdDeviation="3"/>
            <feColorMatrix in="shadowBlurOuter1" values="0 0 0 0 0.161255414 0 0 0 0 0.240589513 0 0 0 0 0.564028533 0 0 0 0.15 0"/>
        </filter>
        <path id="pvty78muza" d="M7.106 97.11c-2.29 0-4.145-1.856-4.145-4.146s1.856-4.145 4.145-4.145h3.786c-3.855-7.913-6.018-16.803-6.018-26.198 0-33.081 26.818-59.899 59.9-59.899 13.73 0 26.382 4.62 36.484 12.39l8.586.002c2.038 0 3.69 1.652 3.69 3.69 0 2.037-1.652 3.689-3.69 3.689l-.6-.001h-2.726c-2.047 0-3.72 1.608-3.822 3.63l-.005.197c0 2.113 1.714 3.827 3.827 3.827h17.764c2.29 0 4.145 1.856 4.145 4.145 0 2.29-1.856 4.145-4.145 4.145h-4.692c3.268 7.397 5.083 15.58 5.083 24.185 0 33.082-26.818 59.9-59.9 59.9-12.324 0-23.78-3.722-33.302-10.104l-15.996-.001c-2.113 0-3.826-1.713-3.826-3.827 0-2.113 1.713-3.826 3.826-3.826h7.256c2.114 0 3.827-1.713 3.827-3.827 0-2.113-1.713-3.826-3.827-3.826H7.106zm-1.837 7.653c2.113 0 3.825 1.712 3.825 3.825v.003c0 2.112-1.712 3.825-3.825 3.825-2.112 0-3.825-1.713-3.825-3.825v-.003c0-2.113 1.713-3.825 3.825-3.825zm116.223-89.652c2.037 0 3.689 1.652 3.689 3.69 0 2.037-1.652 3.689-3.69 3.689-2.037 0-3.689-1.652-3.689-3.69 0-2.037 1.652-3.69 3.69-3.69z"/>
        <path id="mdpt4na70b" d="M63.064.013c6.942-.318 15.455 5.792 19.974 13.572 4.52 7.78 8.282 16.99 6.186 29.116-1.037 5.995-3.817 9.515-8.58 11.991-5.288 2.75-11.958-1.887-16.524-6.43-4.565-4.541-11.27-7.95-20.08-7.93-8.81.018-13.704 3.387-18.27 7.93-4.565 4.541-10.171 7.95-14.981 6.677C6.465 53.794 1.835 49.797.696 42.702c-1.59-9.9 2.036-22.467 6.185-29.118C11.031 6.934 18.3.282 25.658.282c7.36 0 8.893 3.776 11.92 6.053 3.027 2.277 5.202 3.151 8.193 3.151 2.992 0 3.624-.684 6.56-3.148C55.267 3.875 56.12.33 63.064.013z"/>
        <path id="fp0gpfn37o" d="M7.53 3.936c0 .853-.4 1.691-1.104 2.299-.703.607-1.673.954-2.66.954-.996 0-1.967-.347-2.661-.954C.402 5.627 0 4.789 0 3.936c0-.172.037-.993.068-1.162.127-.67.475-.65 1.037-1.136.702-.607 1.665-.953 2.66-.953.988 0 1.958.346 2.661.953.548.468.902.429 1.036 1.082.039.186.069 1.026.069 1.216z"/>
        <path id="xdmwdgoa0p" d="M7.53 3.08c0 .809-.4 1.603-1.104 2.178-.703.575-1.673.904-2.66.904-.996 0-1.967-.329-2.661-.904C.402 4.683 0 3.888 0 3.08 0 2.273.402 1.48 1.105.903 1.807.33 2.77 0 3.765 0c.988 0 1.958.329 2.661.903.703.57 1.105 1.363 1.105 2.177z"/>
        <path id="u7qfwrp1ls" d="M7.53 3.936c0 .853-.4 1.691-1.104 2.299-.703.607-1.673.954-2.66.954-.996 0-1.967-.347-2.661-.954C.402 5.627 0 4.789 0 3.936c0-.172.037-.993.068-1.162.127-.67.475-.65 1.037-1.136.702-.607 1.665-.953 2.66-.953.988 0 1.958.346 2.661.953.548.468.902.429 1.036 1.082.039.186.069 1.026.069 1.216z"/>
        <path id="64wnlfut5t" d="M7.53 3.08c0 .809-.4 1.603-1.104 2.178-.703.575-1.673.904-2.66.904-.996 0-1.967-.329-2.661-.904C.402 4.683 0 3.888 0 3.08 0 2.273.402 1.48 1.105.903 1.807.33 2.77 0 3.765 0c.988 0 1.958.329 2.661.903.703.57 1.105 1.363 1.105 2.177z"/>
        <path id="9x930y11tw" d="M7.53 3.936c0 .853-.4 1.691-1.104 2.299-.703.607-1.673.954-2.66.954-.996 0-1.967-.347-2.661-.954C.402 5.627 0 4.789 0 3.936c0-.172.037-.993.068-1.162.127-.67.475-.65 1.037-1.136.702-.607 1.665-.953 2.66-.953.988 0 1.958.346 2.661.953.548.468.902.429 1.036 1.082.039.186.069 1.026.069 1.216z"/>
        <path id="r9adwu29xx" d="M7.53 3.08c0 .809-.4 1.603-1.104 2.178-.703.575-1.673.904-2.66.904-.996 0-1.967-.329-2.661-.904C.402 4.683 0 3.888 0 3.08 0 2.273.402 1.48 1.105.903 1.807.33 2.77 0 3.765 0c.988 0 1.958.329 2.661.903.703.57 1.105 1.363 1.105 2.177z"/>
        <path id="w76t7p18gA" d="M7.53 3.936c0 .853-.4 1.691-1.104 2.299-.703.607-1.673.954-2.66.954-.996 0-1.967-.347-2.661-.954C.402 5.627 0 4.789 0 3.936c0-.172.037-.993.068-1.162.127-.67.475-.65 1.037-1.136.702-.607 1.665-.953 2.66-.953.988 0 1.958.346 2.661.953.548.468.902.429 1.036 1.082.039.186.069 1.026.069 1.216z"/>
        <path id="kpkcnh2nfB" d="M7.53 3.08c0 .809-.4 1.603-1.104 2.178-.703.575-1.673.904-2.66.904-.996 0-1.967-.329-2.661-.904C.402 4.683 0 3.888 0 3.08 0 2.273.402 1.48 1.105.903 1.807.33 2.77 0 3.765 0c.988 0 1.958.329 2.661.903.703.57 1.105 1.363 1.105 2.177z"/>
        <path id="aixf6ddwoE" d="M9.037 1.506c1.664 0 3.012 1.349 3.012 3.013v2.258h3.013c1.663 0 3.012 1.35 3.012 3.013 0 1.664-1.349 3.012-3.012 3.012h-3.013v2.26c0 1.663-1.348 3.012-3.012 3.012s-3.012-1.349-3.012-3.012l-.001-2.26H3.012C1.35 12.802 0 11.454 0 9.79s1.349-3.012 3.012-3.012h3.012v-2.26c0-1.663 1.35-3.012 3.013-3.012z"/>
        <path id="yzgo5s71xF" d="M9.037 0c1.664 0 3.012 1.349 3.012 3.012v2.259h3.013c1.663 0 3.012 1.35 3.012 3.013 0 1.664-1.349 3.012-3.012 3.012h-3.013v2.26c0 1.663-1.348 3.012-3.012 3.012s-3.012-1.349-3.012-3.012l-.001-2.26H3.012C1.35 11.296 0 9.948 0 8.284s1.349-3.012 3.012-3.012l3.012-.001V3.012C6.025 1.35 7.375 0 9.038 0z"/>
        <path id="b15lrdiylI" d="M3.115 22.705c-.36.082-3.713 10.521.236 13.625 4.979 3.912 11.652-.895 15.686-.573 2.51.2 5.222 1.57 5.078 1.859.37-.742-.512-4.558-3.411-6.59-7.506-5.264-7.06-.177-17.589-8.321z"/>
        <path id="8eowrum29K" d="M36.547 30.976c-2.285 1.006-10.334-7.777-10.543-9.487-.21-1.71 8.33-4.731 9.127-4.06.634.534-.612 2.95 3.3 9.255.636 1.027-2.524 2.931-1.884 4.292z"/>
        <path id="d8b32g4ueM" d="M14.16 5.115c-.7 1.03-1.886 4.61-1.284 5.194.603.584 5.886 4.735 7.08 4.93 1.195.195 1.328-1.606 1.18-4.07-.147-2.463-3.182-4.694-3.463-4.912-.281-.217-2.811-2.172-3.513-1.142z"/>
        <path id="p7mt63v0nO" d="M.007 9.655C-.23 8.147 5.664.665 11.222.034c3.705-.42 7.026 3.047 9.963 10.402-2.13-2.222-4.719-3.405-7.767-3.548C8.846 6.674.141 10.514.007 9.655z"/>
        <path id="dqxophy5bQ" d="M74.979 13.754c-.254-1.65 3.928-8.147 6.346-8.426 1.61-.185 4.98.34 10.11 1.577-1.921 3.544-3.215 5.282-3.883 5.212-2.255-.235-1.33.286-3.134.2-5.022-.239-9.295 2.377-9.44 1.437z"/>
        <linearGradient id="mdfqkht9md" x1="84.818%" x2="-4.313%" y1="45.544%" y2="66.561%">
            <stop offset="0%" stop-color="#B3C5FF"/>
            <stop offset="100%" stop-color="#89A3F4"/>
        </linearGradient>
        <linearGradient id="zz77w7n0de" x1="20.537%" x2="55.58%" y1="49.054%" y2="51.982%">
            <stop offset="0%" stop-color="#FFF" stop-opacity=".6"/>
            <stop offset="100%" stop-color="#5175DD"/>
        </linearGradient>
        <linearGradient id="jpklqm2ifh" x1="37.71%" x2="54.967%" y1="30.729%" y2="93.653%">
            <stop offset="0%" stop-color="#607BD0"/>
            <stop offset="100%" stop-color="#6A85D8"/>
        </linearGradient>
        <linearGradient id="5f4hyka4aj" x1="26.228%" x2="60.28%" y1="46.124%" y2="58.952%">
            <stop offset="0%" stop-color="#FFF" stop-opacity=".7"/>
            <stop offset="95.689%" stop-color="#5A7EE5"/>
        </linearGradient>
        <linearGradient id="vlw35v3j3l" x1="44.576%" x2="53.521%" y1="30.518%" y2="95.014%">
            <stop offset="0%" stop-color="#FFF"/>
            <stop offset="100%" stop-color="#FFF" stop-opacity=".4"/>
        </linearGradient>
    </defs>
    <g fill="none" fill-rule="evenodd">
        <g>
            <g>
                <g opacity=".7" transform="translate(-412 -909) translate(413 909)">
                    <use fill="#EBEDF4" xlink:href="#pvty78muza"/>
                    <use fill="#DAE3F5" fill-opacity=".1" xlink:href="#pvty78muza"/>
                </g>
                <g>
                    <path fill="#9EB4FA" fill-rule="nonzero" d="M40.246.877C45.546.69 51.272.71 57.372.935c2.417-.005 4.517 2.176 4.93 4.742.457 2.84-1.232 5.222-4.622 5.901l-.264.05c-1.757.332-3.696.446-6.228.421l-1.215-.02-2.582-.076-1.407-.032-.947-.01-.86.003-.78.016-.476.019-.445.025-.413.032-.384.039-.356.047c-.285.042-.544.091-.778.15l-.271.074c-.087.027-.17.054-.25.083l-.23.092-.213.1c-.17.089-.323.186-.463.294l-.082.066-.118.087c-1.725 1.118-1.842 4.07-.414 4.875l.103.051.183.06c1.115.353 2.063.431 3.546.337l.67-.05.69-.063.602-.05c1.912-.139 2.88-.031 4.155.56.712.33 1.384.802 2.055 1.458 1.18 1.218 1.754 2.716 1.805 4.39.046 1.543-.336 3.111-1.021 4.777l-.143.334-.175.39-.119.258.02.07c.087.377-.003.785-.267 1.093l-.094.098-.24.224c-.354.32-.501.393-.886.44-.537.067-1.094-.207-1.33-.764-.123-.289-.124-.522-.08-.764.02-.106.047-.2.085-.301l.071-.175.503-1.08.3-.67.043-.104c.563-1.37.868-2.62.834-3.75-.033-1.079-.378-1.98-1.077-2.702-.448-.438-.887-.746-1.335-.954-.633-.293-1.183-.4-2.14-.375l-.407.017-.222.014-.749.059-.28.025c-2.436.229-3.825.197-5.572-.359l-.295-.098-.094-.036c-3.48-1.52-3.424-6.962-.268-9.209l.11-.075.073-.058c.735-.583 1.535-.964 2.628-1.2l.375-.072.398-.063.424-.053.222-.023.466-.04.495-.03.527-.022.277-.008.578-.01.615-.004.653.003.693.009 1.12.024 3.344.094.342.007c2.467.04 4.32-.044 5.938-.319l.32-.057c2.251-.383 3.11-1.55 2.86-3.093-.222-1.382-1.292-2.54-2.364-2.633l-.14-.006c-6.091-.225-11.757-.245-16.995-.06-.69.024-1.269-.515-1.293-1.205-.025-.69.515-1.269 1.205-1.293z" transform="translate(-412 -909) translate(413 909) translate(22.389 23.463)"/>
                    <g transform="translate(-412 -909) translate(413 909) translate(22.389 23.463) translate(0 18.733)">
                        <mask id="ou6o10cwyg" fill="#fff">
                            <use xlink:href="#mdpt4na70b"/>
                        </mask>
                        <g fill-rule="nonzero">
                            <use fill="#000" filter="url(#70suqthqic)" xlink:href="#mdpt4na70b"/>
                            <use fill="url(#mdfqkht9md)" xlink:href="#mdpt4na70b"/>
                        </g>
                        <path fill="url(#zz77w7n0de)" fill-rule="nonzero" d="M85.106 52.35c-6.245 2.75-12.831-1.813-18.222-6.356-5.392-4.542-11.932-6.785-22.336-6.767-10.404.02-17.56 2.223-22.951 6.766-5.392 4.542-10.868 7.798-16.548 6.524-2.532-.567 1.394 2.182 10.72 4.646 9.482 2.505 50.385.246 54.234.682 7.634.865 20.727-7.971 15.103-5.494z" filter="url(#kp4ld4nb0f)" mask="url(#ou6o10cwyg)" opacity=".34"/>
                        <path fill="url(#jpklqm2ifh)" fill-rule="nonzero" d="M-4.263 53.458c12.502 7.807 25.914 3.903 21.354 2.63-4.099-1.146-9.453-6.29-10.533-13.386-1.506-9.9 1.93-22.467 5.864-29.118C16.355 6.934 25.582.1 32.559.1S16.304-2.974 8.25 1.87C.196 6.715-16.764 45.652-4.262 53.458z" filter="url(#3iy8spowai)" mask="url(#ou6o10cwyg)" opacity=".2"/>
                        <path fill="url(#5f4hyka4aj)" fill-rule="nonzero" d="M21.706-1.447C24.76 2.891 35.539 12.285 44.809 11.39c8.609.549 20.714-9.476 20.279-13.868-.23-2.603-7.722-4.412-22.477-5.426C28.438-6.272 21.47-4.12 21.706-1.447z" filter="url(#llbod7euok)" mask="url(#ou6o10cwyg)" opacity=".3"/>
                        <path fill="url(#vlw35v3j3l)" fill-rule="nonzero" d="M57.48 0c3.954.595 19.049 8.08 23.548 23.298 4.5 15.218 2.254 27.332-5.985 34.72-8.24 7.39 10.826 2.94 15.526-7.9 4.7-10.84 5.686-14.025.714-29.557C86.31 5.028 77.003 1.953 70.92-1.746 64.84-5.446 53.528-.593 57.481 0z" filter="url(#evujvm4grm)" mask="url(#ou6o10cwyg)" opacity=".3"/>
                    </g>
                    <g fill-rule="nonzero">
                        <g transform="translate(-412 -909) translate(413 909) translate(22.389 23.463) translate(60.938 30.751)">
                            <use fill="#000" filter="url(#16z5ir8skn)" xlink:href="#fp0gpfn37o"/>
                            <use fill="#2F67CF" xlink:href="#fp0gpfn37o"/>
                        </g>
                        <g transform="translate(-412 -909) translate(413 909) translate(22.389 23.463) translate(60.938 30.751)">
                            <use fill="#5E94F0" xlink:href="#xdmwdgoa0p"/>
                            <use fill="#000" filter="url(#wv9bhj81aq)" xlink:href="#xdmwdgoa0p"/>
                        </g>
                    </g>
                    <g fill-rule="nonzero">
                        <g transform="translate(-412 -909) translate(413 909) translate(22.389 23.463) translate(60.938 44.307)">
                            <use fill="#000" filter="url(#k4akmohesr)" xlink:href="#u7qfwrp1ls"/>
                            <use fill="#7C9F00" xlink:href="#u7qfwrp1ls"/>
                        </g>
                        <g transform="translate(-412 -909) translate(413 909) translate(22.389 23.463) translate(60.938 44.307)">
                            <use fill="#B9D227" xlink:href="#64wnlfut5t"/>
                            <use fill="#000" filter="url(#grz1r49onu)" xlink:href="#64wnlfut5t"/>
                        </g>
                    </g>
                    <g fill-rule="nonzero">
                        <g transform="translate(-412 -909) translate(413 909) translate(22.389 23.463) translate(52.654 37.53)">
                            <use fill="#000" filter="url(#65neoof43v)" xlink:href="#9x930y11tw"/>
                            <use fill="#C01748" xlink:href="#9x930y11tw"/>
                        </g>
                        <g transform="translate(-412 -909) translate(413 909) translate(22.389 23.463) translate(52.654 37.53)">
                            <use fill="#EA5170" xlink:href="#r9adwu29xx"/>
                            <use fill="#000" filter="url(#cwbbkb9u7y)" xlink:href="#r9adwu29xx"/>
                        </g>
                    </g>
                    <g fill-rule="nonzero">
                        <g transform="translate(-412 -909) translate(413 909) translate(22.389 23.463) translate(68.47 37.53)">
                            <use fill="#000" filter="url(#9zjwdfjhqz)" xlink:href="#w76t7p18gA"/>
                            <use fill="#ED7B08" xlink:href="#w76t7p18gA"/>
                        </g>
                        <g transform="translate(-412 -909) translate(413 909) translate(22.389 23.463) translate(68.47 37.53)">
                            <use fill="#FAA820" xlink:href="#kpkcnh2nfB"/>
                            <use fill="#000" filter="url(#92stqj6agC)" xlink:href="#kpkcnh2nfB"/>
                        </g>
                    </g>
                    <g fill-rule="nonzero">
                        <g transform="translate(-412 -909) translate(413 909) translate(22.389 23.463) translate(15 32.516)">
                            <use fill="#000" filter="url(#e5uj03fe3D)" xlink:href="#aixf6ddwoE"/>
                            <use fill="#4968CF" xlink:href="#aixf6ddwoE"/>
                        </g>
                        <g transform="translate(-412 -909) translate(413 909) translate(22.389 23.463) translate(15 32.516)">
                            <use fill="#718BF5" xlink:href="#yzgo5s71xF"/>
                            <use fill="#000" filter="url(#cbxkos2nnG)" xlink:href="#yzgo5s71xF"/>
                        </g>
                    </g>
                </g>
                <g>
                    <g transform="translate(-412 -909) translate(413 909) translate(7.222 3.444) rotate(8 12.82 30.288)">
                        <use fill="#000" filter="url(#8fe4ld2dyH)" xlink:href="#b15lrdiylI"/>
                        <use fill="#90A9FE" xlink:href="#b15lrdiylI"/>
                    </g>
                    <g transform="translate(-412 -909) translate(413 909) translate(7.222 3.444) rotate(31 32.258 24.194)">
                        <use fill="#000" filter="url(#x8nxbhbz7J)" xlink:href="#8eowrum29K"/>
                        <use fill="#A5C8FF" xlink:href="#8eowrum29K"/>
                    </g>
                    <g>
                        <g transform="translate(-412 -909) translate(413 909) translate(7.222 3.444) rotate(-18 127.704 -243.11)">
                            <use fill="#000" filter="url(#a8ptot8tkL)" xlink:href="#d8b32g4ueM"/>
                            <use fill="#EC9B41" xlink:href="#d8b32g4ueM"/>
                        </g>
                        <g transform="translate(-412 -909) translate(413 909) translate(7.222 3.444) rotate(-18 127.704 -243.11)">
                            <use fill="#000" filter="url(#nxj19o5x5N)" xlink:href="#p7mt63v0nO"/>
                            <use fill="#F4D95C" xlink:href="#p7mt63v0nO"/>
                        </g>
                    </g>
                    <g transform="translate(-412 -909) translate(413 909) translate(7.222 3.444) rotate(113 83.201 9.625)">
                        <use fill="#000" filter="url(#wt1fjoxhqP)" xlink:href="#dqxophy5bQ"/>
                        <use fill="#F4C05C" xlink:href="#dqxophy5bQ"/>
                    </g>
                </g>
            </g>
        </g>
    </g>
</svg>
