<svg xmlns="http://www.w3.org/2000/svg" width="24" height="24" viewBox="0 0 24 24">
    <g fill="none" fill-rule="evenodd" stroke="#ff5000">
        <path d="M10 .5c2.623 0 4.998 1.063 6.717 2.783C18.437 5.002 19.5 7.377 19.5 10c0 2.623-1.064 4.998-2.783 6.717-1.72 1.72-4.094 2.783-6.717 2.783-2.623 0-4.998-1.063-6.717-2.783C1.563 14.998.5 12.623.5 10c0-2.623 1.063-4.998 2.782-6.718C5.002 1.563 7.377.5 10 .5z" transform="translate(2 2)"/>
        <path stroke-linecap="round" stroke-linejoin="round" d="M10 1c2.501 2.464 3.923 5.663 4 9-.077 3.337-1.499 6.536-4 9-2.501-2.464-3.923-5.663-4-9 .077-3.337 1.499-6.536 4-9zM1 10L19 10" transform="translate(2 2)"/>
    </g>
</svg>
