<svg xmlns="http://www.w3.org/2000/svg" width="28" height="28" viewBox="0 0 28 28">
    <g fill="none" fill-rule="evenodd" stroke="#333" stroke-linecap="round" stroke-linejoin="round" stroke-width="1.5">
        <path d="M16.094 0c1.778 0 3.219 1.457 3.219 3.255 0 1.798-1.441 3.255-3.22 3.255-1.777 0-3.218-1.457-3.218-3.255 0-1.798 1.44-3.255 3.219-3.255zM3.219 7.595c1.778 0 3.219 1.457 3.219 3.254 0 1.798-1.441 3.255-3.22 3.255C1.442 14.104 0 12.647 0 10.85c0-1.797 1.44-3.254 3.219-3.254zM16.094 15.19c1.778 0 3.219 1.456 3.219 3.254s-1.441 3.255-3.22 3.255c-1.777 0-3.218-1.457-3.218-3.255 0-1.798 1.44-3.255 3.219-3.255zM5.997 12.487L13.325 16.805M13.315 4.893L5.998 9.211" transform="matrix(1 0 0 -1 4.36 24.855)"/>
    </g>
</svg>
