<svg xmlns="http://www.w3.org/2000/svg" width="24" height="24" viewBox="0 0 24 24">
    <g fill="none" fill-rule="evenodd" transform="translate(1.518 2.803)">
        <path stroke="#FFF" stroke-width="1.5" d="M12.144.086a1 1 0 01.966.742l.366 1.373a7.6 7.6 0 011.566.905l1.374-.37a1 1 0 011.126.466l1.661 2.878a1 1 0 01-.16 1.208l-1.006 1.005a7.687 7.687 0 010 1.808l1.007 1.004a1 1 0 01.16 1.208l-1.662 2.878a1 1 0 01-1.126.466l-1.374-.37a7.6 7.6 0 01-1.566.906l-.366 1.372a1 1 0 01-.966.743H8.82a1 1 0 01-.966-.743l-.367-1.372a7.6 7.6 0 01-1.565-.906l-1.374.37a1 1 0 01-1.126-.466L1.76 12.313a1 1 0 01.16-1.208l1.007-1.004a7.687 7.687 0 010-1.808L1.92 7.288a1 1 0 01-.16-1.208l1.662-2.878a1 1 0 011.126-.465l1.374.37A7.6 7.6 0 017.488 2.2L7.855.828A1 1 0 018.82.086h3.323z"/>
        <circle cx="10.493" cy="9.185" r="3.25" stroke="#FFF" stroke-width="1.5"/>
    </g>
</svg>
