<svg xmlns="http://www.w3.org/2000/svg" width="16" height="16" viewBox="0 0 16 16">
    <g fill="none" fill-rule="evenodd" stroke="#999">
        <path d="M3.57 1.957c.982-.813 2.012-1.23 3.097-1.23 1.058 0 2.065.397 3.026 1.172 1.02.822 1.985 2.06 2.901 3.699-.797 2.108-1.782 3.412-2.82 4.278-.989.825-2.02 1.244-3.107 1.244-1.058 0-2.065-.398-3.026-1.172-1.02-.823-1.985-2.06-2.901-3.7-.1-.182-.19-.305-.136-.404.937-1.725 1.923-3.024 2.966-3.887z" transform="translate(1.33 2.076)"/>
        <path d="M5.392 4.566c.332-.332.79-.537 1.297-.537.507 0 .966.205 1.298.537.332.332.537.791.537 1.298 0 .506-.205.965-.537 1.297a1.83 1.83 0 01-1.298.537c-.506 0-.965-.205-1.297-.537a1.829 1.829 0 01-.537-1.297c0-.507.205-.966.537-1.298z" transform="translate(1.33 2.076)"/>
    </g>
</svg>
