<?xml version="1.0" encoding="UTF-8"?>
<svg width="32px" height="32px" viewBox="0 0 32 32" version="1.1" xmlns="http://www.w3.org/2000/svg" xmlns:xlink="http://www.w3.org/1999/xlink">
    <title>66935AEA-6DC6-40BF-881C-FC518D344B5F</title>
    <g id="STDS_Icon" stroke="none" stroke-width="1" fill="none" fill-rule="evenodd">
        <g id="communication" transform="translate(-784.000000, -485.000000)" fill="#000000">
            <g id="ic_communication_ar_effect_fill" transform="translate(720.000000, 445.000000)">
                <g id="ic/communication/ar_effect/fill" transform="translate(64.000000, 40.000000)">
                    <g id="ic_communication_ar_effect_fill" transform="translate(2.000000, 2.000000)">
                        <path d="M14.7357419,0.173218634 C15.0154734,0.312469011 15.249048,0.527618179 15.4110363,0.792520783 L15.4859473,0.928997161 L18.915,7.937 L26.585033,9.06787192 C27.3923848,9.18688012 27.9754585,9.87068885 27.9993484,10.6591063 L27.997193,10.8080481 L27.9826814,10.950359 C27.9379601,11.2589203 27.8077322,11.54774 27.6080692,11.7844335 L27.5025258,11.8982864 L21.95,17.352 L23.2604457,25.0593732 C23.3971472,25.8631779 22.9331224,26.633118 22.1917609,26.9010997 L22.0495845,26.9453497 L21.9097653,26.975721 C21.6006696,27.0291845 21.2839857,26.9932739 20.9961904,26.8739308 L20.8548691,26.807334 L13.9999996,23.171 L7.14504514,26.807334 C6.4235336,27.1899904 5.54993608,26.9838883 5.06647992,26.3614526 L4.98053624,26.2399091 L4.90453078,26.1088603 C4.76045279,25.832565 4.69730967,25.5222072 4.72059692,25.2134521 L4.73946853,25.0593732 L6.049,17.352 L0.497388367,11.8982864 C-0.0770496717,11.3340347 -0.15527714,10.4524743 0.269760692,9.80194423 L0.361480553,9.67508108 L0.466633364,9.55535356 C0.684118849,9.33016719 0.960047157,9.1719858 1.26192828,9.09785449 L1.41488117,9.06787192 L9.084,7.937 L12.5139669,0.928997161 C12.9176505,0.10423688 13.9133026,-0.236191697 14.7357419,0.173218634 Z M16.2814959,13.3043246 L16.1563402,13.4544327 C16.054902,13.5741979 15.8695647,13.756092 15.6149533,13.9412639 C15.1298263,14.2940836 14.5892956,14.5 14,14.5 C13.4107044,14.5 12.8701737,14.2940836 12.3850467,13.9412639 C12.0880001,13.72523 11.8852432,13.5136576 11.8,13.4 C11.4686292,12.9581722 10.8418278,12.8686292 10.4,13.2 C9.9581722,13.5313708 9.86862915,14.1581722 10.2,14.6 C10.3960068,14.8613424 10.7323124,15.21227 11.2087033,15.5587361 C12.0126388,16.1434164 12.9486706,16.5 14,16.5 C15.0513294,16.5 15.9873612,16.1434164 16.7912967,15.5587361 C17.2676876,15.21227 17.6039932,14.8613424 17.8,14.6 C18.1313708,14.1581722 18.0418278,13.5313708 17.6,13.2 C17.192159,12.8941192 16.6267073,12.946887 16.2814959,13.3043246 Z M4.61289944,2.20970461 L4.70710678,2.29289322 L6.70710678,4.29289322 C7.09763107,4.68341751 7.09763107,5.31658249 6.70710678,5.70710678 C6.34662282,6.06759074 5.77939176,6.09532028 5.38710056,5.79029539 L5.29289322,5.70710678 L3.29289322,3.70710678 C2.90236893,3.31658249 2.90236893,2.68341751 3.29289322,2.29289322 C3.65337718,1.93240926 4.22060824,1.90467972 4.61289944,2.20970461 Z M24.7071068,2.29289322 C25.0675907,2.65337718 25.0953203,3.22060824 24.7902954,3.61289944 L24.7071068,3.70710678 L22.7071068,5.70710678 C22.3165825,6.09763107 21.6834175,6.09763107 21.2928932,5.70710678 C20.9324093,5.34662282 20.9046797,4.77939176 21.2097046,4.38710056 L21.2928932,4.29289322 L23.2928932,2.29289322 C23.6834175,1.90236893 24.3165825,1.90236893 24.7071068,2.29289322 Z" id="Shape"></path>
                    </g>
                </g>
            </g>
        </g>
    </g>
</svg>