<?xml version="1.0" encoding="UTF-8"?>
<svg width="32px" height="32px" viewBox="0 0 32 32" version="1.1" xmlns="http://www.w3.org/2000/svg" xmlns:xlink="http://www.w3.org/1999/xlink">
    <title>62B94EE9-60C2-47CE-9322-16E22FF398C7</title>
    <g id="STDS_Icon" stroke="none" stroke-width="1" fill="none" fill-rule="evenodd">
        <g id="communication" transform="translate(-784.000000, -305.000000)" fill="#000000">
            <g id="ic_communication_emoji_fill" transform="translate(720.000000, 265.000000)">
                <g id="ic/communication/emoji/fill" transform="translate(64.000000, 40.000000)">
                    <g id="ic_communication_emoji_fill" transform="translate(2.000000, 2.000000)">
                        <path d="M14,0 C21.7319865,0 28,6.2680135 28,14 C28,21.7319865 21.7319865,28 14,28 C6.2680135,28 0,21.7319865 0,14 C0,6.2680135 6.2680135,0 14,0 Z M18.6,16.2 C18.192159,15.8941192 17.6267073,15.946887 17.2814959,16.3043246 L17.0712448,16.5543881 C16.9132469,16.7290977 16.6687929,16.958926 16.3493283,17.1912639 C15.6493575,17.7003336 14.8627331,18 14,18 C13.1372669,18 12.3506425,17.7003336 11.6506717,17.1912639 C11.2247189,16.88148 10.9321182,16.5761576 10.8,16.4 C10.4686292,15.9581722 9.8418278,15.8686292 9.4,16.2 C8.9581722,16.5313708 8.86862915,17.1581722 9.2,17.6 C9.44288179,17.9238424 9.86903113,18.36852 10.4743283,18.8087361 C11.4931075,19.5496664 12.6752331,20 14,20 C15.3247669,20 16.5068925,19.5496664 17.5256717,18.8087361 C18.1309689,18.36852 18.5571182,17.9238424 18.8,17.6 C19.1313708,17.1581722 19.0418278,16.5313708 18.6,16.2 Z M10.5,10 C9.67157288,10 9,10.6715729 9,11.5 C9,12.3284271 9.67157288,13 10.5,13 C11.3284271,13 12,12.3284271 12,11.5 C12,10.6715729 11.3284271,10 10.5,10 Z M17.5,10 C16.6715729,10 16,10.6715729 16,11.5 C16,12.3284271 16.6715729,13 17.5,13 C18.3284271,13 19,12.3284271 19,11.5 C19,10.6715729 18.3284271,10 17.5,10 Z" id="Shape"></path>
                    </g>
                </g>
            </g>
        </g>
    </g>
</svg>