<?xml version="1.0" encoding="UTF-8"?>
<svg width="32px" height="32px" viewBox="0 0 32 32" version="1.1" xmlns="http://www.w3.org/2000/svg" xmlns:xlink="http://www.w3.org/1999/xlink">
    <title>A77DEA66-50EF-463C-A368-7DB27CFABF10</title>
    <g id="STDS_Icon" stroke="none" stroke-width="1" fill="none" fill-rule="evenodd">
        <g id="communication" transform="translate(-784.000000, -1025.000000)" fill="#000000">
            <g id="ic_communication_phone_disabled_fill" transform="translate(720.000000, 985.000000)">
                <g id="ic/communication/phone_disabled/fill" transform="translate(64.000000, 40.000000)">
                    <g id="ic_communication_phone_disabled_fill" transform="translate(3.000000, 3.000000)">
                        <path d="M24.7071068,1.29289322 C25.0675907,1.65337718 25.0953203,2.22060824 24.7902954,2.61289944 L24.7071068,2.70710678 L11.3853382,16.0303736 C11.9842859,16.5001015 12.651838,16.90556 13.3878583,17.2614415 L13.4064772,17.2644131 L13.427777,17.255731 L16.6990415,15.0743793 C17.2262352,14.722836 17.8835011,14.6371964 18.4787783,14.8351045 L18.6394454,14.8961228 L24.7564082,17.5176838 C25.5934298,17.8732323 26.0944215,18.7394856 25.9843441,19.6489337 C25.5203527,23.2796649 22.4304763,26 18.7703175,26 C13.9471422,26 9.54885374,24.1808426 6.22415454,21.1912302 L2.70710678,24.7071068 C2.31658249,25.0976311 1.68341751,25.0976311 1.29289322,24.7071068 C0.932409257,24.3466228 0.904679722,23.7793918 1.20970461,23.3871006 L1.29289322,23.2928932 L23.2928932,1.29289322 C23.6834175,0.902368927 24.3165825,0.902368927 24.7071068,1.29289322 Z M8.41435777,1.09940101 L8.48230797,1.24356437 L11.1061628,7.36588106 C11.3535189,7.9430458 11.320961,8.59859239 11.0248735,9.14533595 L10.9376009,9.2916096 L8.903,12.8809587 L3.5573752,18.2270615 C1.38074099,15.2213081 0.0730779681,11.5450991 0.00297037593,7.56701878 L-1.70530257e-12,7.22968276 C-1.70530257e-12,3.56952403 2.72033511,0.479647654 6.35769146,0.0148320945 C7.15074891,-0.0811406272 7.91559306,0.293767983 8.33084356,0.953693609 L8.41435777,1.09940101 Z" id="Shape"></path>
                    </g>
                </g>
            </g>
        </g>
    </g>
</svg>