<?xml version="1.0" encoding="UTF-8"?>
<svg width="32px" height="32px" viewBox="0 0 32 32" version="1.1" xmlns="http://www.w3.org/2000/svg" xmlns:xlink="http://www.w3.org/1999/xlink">
    <title>294890F4-7677-43BA-BD71-AA9866406DD3</title>
    <g id="STDS_Icon" stroke="none" stroke-width="1" fill="none" fill-rule="evenodd">
        <g id="hardware" transform="translate(-784.000000, -1385.000000)" fill="#000000">
            <g id="ic_hardware_mouse_fill" transform="translate(720.000000, 1345.000000)">
                <g id="ic/hardware/mouse/fill" transform="translate(64.000000, 40.000000)">
                    <g id="ic_hardware_mouse_fill" transform="translate(6.000000, 3.000000)">
                        <path d="M13,0 C16.8659932,0 20,3.13400675 20,7 L20,19 C20,22.8659932 16.8659932,26 13,26 L7,26 C3.13400675,26 0,22.8659932 0,19 L0,7 C0,3.13400675 3.13400675,0 7,0 L13,0 Z M10.0000109,5 C9.4871751,5 9.06449435,5.3860383 9.00672789,5.88337847 L9,6 L9,10 L9.00672748,10.116619 C9.0644915,10.6139578 9.48716197,11 10,11 C10.5128338,11 10.9355069,10.6139617 10.9932722,10.1166215 L11,10 L11,6 L10.9932813,5.88338105 C10.9355173,5.38604224 10.5128468,5 10.0000109,5 Z" id="Shape"></path>
                    </g>
                </g>
            </g>
        </g>
    </g>
</svg>