<?xml version="1.0" encoding="UTF-8"?>
<svg width="32px" height="32px" viewBox="0 0 32 32" version="1.1" xmlns="http://www.w3.org/2000/svg" xmlns:xlink="http://www.w3.org/1999/xlink">
    <title>88630D0A-C3CF-4F09-AB9D-25B053B4AA6D</title>
    <g id="STDS_Icon" stroke="none" stroke-width="1" fill="none" fill-rule="evenodd">
        <g id="hardware" transform="translate(-784.000000, -305.000000)" fill="#000000">
            <g id="ic_hardware_desktop_fill" transform="translate(720.000000, 265.000000)">
                <g id="ic/hardware/desktop/fill" transform="translate(64.000000, 40.000000)">
                    <g id="ic_hardware_desktop_fill" transform="translate(3.000000, 4.000000)">
                        <path d="M23,0 C24.6568542,0 26,1.34314575 26,3 L26,17 C26,18.6568542 24.6568542,20 23,20 L14,20 L14,21.999 L17,22 C17.5522847,22 18,22.4477153 18,23 C18,23.5128358 17.6139598,23.9355072 17.1166211,23.9932723 L17,24 L9,24 C8.44771525,24 8,23.5522847 8,23 C8,22.4871642 8.38604019,22.0644928 8.88337887,22.0067277 L9,22 L12,21.999 L12,20 L3,20 C1.34314575,20 0,18.6568542 0,17 L0,3 C0,1.34314575 1.34314575,0 3,0 L23,0 Z" id="Path"></path>
                    </g>
                </g>
            </g>
        </g>
    </g>
</svg>