<svg xmlns="http://www.w3.org/2000/svg" width="32" height="32" viewBox="0 0 32 32">
    <defs>
        <linearGradient id="l2va0486la" x1="50%" x2="50%" y1="0%" y2="100%">
            <stop offset="0%" stop-color="#FF1F00"/>
            <stop offset="100%" stop-color="#FF7330"/>
        </linearGradient>
    </defs>
    <g fill="none" fill-rule="evenodd">
        <g>
            <g>
                <g>
                    <g>
                        <path fill="url(#l2va0486la)" d="M14 0c7.732 0 14 6.268 14 14s-6.268 14-14 14S0 21.732 0 14 6.268 0 14 0z" transform="translate(-964 -1925) translate(900 1885) translate(64 40) translate(2 2)"/>
                        <path fill="#FFF" d="M12.694 11.559l-.004-.003c-.085-.07-.151-.142-.2-.215-.091-.14-.123-.257-.123-.378 0-.592.692-.734 1.613-.734 1.476 0 2.584.564 3.198.564.882 0 1.431-.612 1.431-1.433 0-.528-.16-.939-.486-1.271C17.279 7.229 15.13 7 14.076 7c-3.05 0-5.188 1.526-5.188 4.01 0 4.326 5.493 4.136 6.74 5.348.153.157.25.302.25.556 0 .532-.549.787-1.708.787-2.107 0-3.3-1.04-4.144-1.04-.882 0-1.426.742-1.426 1.602C8.6 20.14 11.678 21 13.826 21c3.088 0 5.574-1.388 5.574-4.34 0-4.443-5.472-4.037-6.706-5.101" transform="translate(-964 -1925) translate(900 1885) translate(64 40) translate(2 2)"/>
                    </g>
                </g>
            </g>
        </g>
    </g>
</svg>
