<svg xmlns="http://www.w3.org/2000/svg" width="32" height="32" viewBox="0 0 32 32">
    <g fill="none" fill-rule="evenodd">
        <g fill="red">
            <g>
                <g>
                    <path d="M15.252 5.004L16.23 5l.521.003 1.106.014 1.167.024 1.2.036.605.022.94.043.734.041.683.047.631.051.296.028.551.06.496.066c.39.058.72.122.988.194 1.573.425 2.806 1.663 3.224 3.235.156.585.279 1.321.374 2.18l.039.376.061.704c.02.242.036.491.052.748.019.31.035.615.048.915l.018.443.024.846.011.772v.305l-.011.77-.024.845c-.016.437-.038.894-.066 1.358-.101 1.665-.268 3.042-.526 4.01-.423 1.575-1.658 2.814-3.227 3.234-.107.029-.224.056-.35.082l-.198.039-.438.072-.241.034-.523.063-.578.057-.31.027-.658.048-.348.023-.735.04-.937.044-.604.022-1.201.036-.59.014-1.14.018-1.066.01-.979-.004-1.105-.014-1.167-.024-1.2-.036-.604-.022-.766-.034-1.063-.06-.806-.058-.73-.066-.527-.059c-.585-.072-1.065-.155-1.429-.253-1.573-.425-2.806-1.663-3.224-3.235-.156-.585-.279-1.321-.374-2.18l-.039-.376-.061-.704c-.02-.242-.036-.491-.052-.748-.019-.31-.035-.615-.048-.915l-.018-.444-.024-.846-.011-.776v-.3l.011-.77.024-.845c.016-.437.038-.894.066-1.358.101-1.665.268-3.042.526-4.01.423-1.575 1.658-2.814 3.227-3.234.303-.081.686-.152 1.143-.216l.284-.037.527-.058.577-.054.627-.048.674-.043 1.097-.056.993-.04 1.2-.035 1.168-.024 1.107-.014zM13.4 11.32c-.193 0-.355.137-.392.32l-.008.08v8.56c0 .075.021.148.06.212.103.164.305.228.48.163l.072-.036 6.846-4.28c.051-.032.094-.075.127-.127.102-.164.071-.373-.063-.502l-.064-.05-6.846-4.279c-.064-.04-.137-.06-.212-.06z" transform="translate(-964 -1565) translate(900 1525) translate(64 40)"/>
                </g>
            </g>
        </g>
    </g>
</svg>
