<svg xmlns="http://www.w3.org/2000/svg" width="24" height="24" viewBox="0 0 24 24">
    <g fill="none" fill-rule="evenodd" transform="translate(2 1.013)">
        <circle cx="10" cy="10.987" r="10" fill="#000" fill-opacity=".4"/>
        <circle cx="10" cy="10.987" r="9.5" fill-rule="nonzero" stroke="#FFF"/>
        <path fill="#FFF" d="M10.036 4.602c1.452 0 2.663.975 2.73 2.238l.004.112-.001 1.369h1.282c.636 0 1.151.516 1.151 1.151v5.756c0 .636-.515 1.151-1.151 1.151H5.993c-.636 0-1.151-.515-1.151-1.151V9.472c0-.635.515-1.15 1.151-1.15l1.309-.001V6.952c0-1.317 1.24-2.35 2.734-2.35zm-.839 7.449c-.153.412.03.867.413 1.066l.1.044.08.025c.425.113.874-.114 1.03-.535.152-.413-.03-.868-.414-1.066l-.1-.045-.079-.025c-.425-.112-.874.115-1.03.536zm.839-6.586c-1.011 0-1.812.637-1.868 1.402l-.003.085v1.369h3.741V6.952c0-.802-.821-1.487-1.87-1.487z"/>
    </g>
</svg>
