<svg xmlns="http://www.w3.org/2000/svg" width="20" height="20" viewBox="0 0 20 20">
    <path fill="#999" fill-rule="evenodd" d="M14.313 10.01c0-.92.746-1.667 1.667-1.667.92 0 1.667.746 1.667 1.667 0 .92-.747 1.667-1.667 1.667s-1.667-.747-1.667-1.667zm-5.833 0c0-.92.746-1.667 1.667-1.667.92 0 1.666.746 1.666 1.667 0 .92-.746 1.667-1.666 1.667-.92 0-1.667-.747-1.667-1.667zm-5.833 0c0-.92.746-1.667 1.666-1.667.92 0 1.667.746 1.667 1.667 0 .92-.746 1.667-1.667 1.667-.92 0-1.666-.747-1.666-1.667z"/>
</svg>
