<svg xmlns="http://www.w3.org/2000/svg" width="20" height="20" viewBox="0 0 20 20">
    <g fill="none" fill-rule="evenodd">
        <g fill="#AAA">
            <g>
                <g>
                    <g>
                        <g>
                            <g>
                                <path d="M2.083 12.073c.92 0 1.667.747 1.667 1.667s-.746 1.667-1.667 1.667c-.92 0-1.666-.746-1.666-1.667 0-.92.746-1.667 1.666-1.667zm0-5.833c.92 0 1.667.746 1.667 1.667 0 .92-.746 1.666-1.667 1.666-.92 0-1.666-.746-1.666-1.666 0-.92.746-1.667 1.666-1.667zm0-5.833c.92 0 1.667.746 1.667 1.666 0 .921-.746 1.667-1.667 1.667-.92 0-1.666-.746-1.666-1.667 0-.92.746-1.666 1.666-1.666z" transform="translate(-1348 -1603) translate(480 390) translate(48 1094) translate(820 119) translate(8 2)"/>
                            </g>
                        </g>
                    </g>
                </g>
            </g>
        </g>
    </g>
</svg>
