<svg xmlns="http://www.w3.org/2000/svg" width="20" height="20" viewBox="0 0 20 20">
    <path fill="#999" d="M10 1.667c4.602 0 8.333 3.73 8.333 8.333 0 4.602-3.73 8.333-8.333 8.333-4.602 0-8.333-3.73-8.333-8.333 0-4.602 3.73-8.333 8.333-8.333zm0 1.25c-3.912 0-7.083 3.171-7.083 7.083 0 3.912 3.171 7.083 7.083 7.083 3.912 0 7.083-3.171 7.083-7.083 0-3.912-3.171-7.083-7.083-7.083zm0 10.028c.46 0 .833.373.833.833 0 .46-.373.833-.833.833-.46 0-.833-.373-.833-.833 0-.46.373-.833.833-.833zm.904-7.64c1.11.398 1.848 1.464 1.846 2.655 0 .888-.522 1.598-1.345 2.158-.228.155-.455.284-.664.387l-.135.064v.855c0 .317-.235.578-.54.62l-.085.005c-.316 0-.578-.235-.62-.54l-.005-.085v-1.276c0-.268.17-.506.424-.592l.081-.03c.052-.02.119-.048.197-.084.22-.1.441-.22.644-.358.516-.351.798-.735.798-1.125.001-.667-.41-1.259-1.018-1.477-.787-.282-1.652.14-1.933.953-.112.326-.468.5-.794.387-.327-.112-.5-.468-.387-.795.506-1.466 2.09-2.24 3.536-1.721z"/>
</svg>
