<svg xmlns="http://www.w3.org/2000/svg" xmlns:xlink="http://www.w3.org/1999/xlink" width="150" height="115" viewBox="0 0 150 115">
    <defs>
        <filter id="prefix__b" width="152.2%" height="144%" x="-26.1%" y="-19.3%" filterUnits="objectBoundingBox">
            <feOffset dy="2" in="SourceAlpha" result="shadowOffsetOuter1"/>
            <feGaussianBlur in="shadowOffsetOuter1" result="shadowBlurOuter1" stdDeviation="5"/>
            <feColorMatrix in="shadowBlurOuter1" values="0 0 0 0 0 0 0 0 0 0 0 0 0 0 0 0 0 0 0.133440778 0"/>
        </filter>
        <rect id="prefix__a" width="61.353" height="72.675" x="0" y="0" rx="2"/>
    </defs>
    <g fill="none" fill-rule="evenodd" transform="translate(1)">
        <ellipse cx="74.084" cy="50.12" fill="#E6E7FB" rx="50.084" ry="50.12"/>
        <ellipse cx="143.366" cy="21.928" fill="#E6E7FB" rx="5.634" ry="5.639"/>
        <ellipse cx="5.008" cy="73.928" stroke="#E6E7FB" stroke-width="2" rx="5.008" ry="5.012"/>
        <g transform="translate(43.571 30.072)">
            <mask id="prefix__c" fill="#fff">
                <use xlink:href="#prefix__a"/>
            </mask>
            <use fill="#000" filter="url(#prefix__b)" xlink:href="#prefix__a"/>
            <use fill="#FFF" xlink:href="#prefix__a"/>
            <g mask="url(#prefix__c)">
                <g fill="#B9B9EB" transform="translate(17.095 27.278)">
                    <path fill-rule="nonzero" d="M13.333.316c7.364 0 13.334 5.97 13.334 13.334s-5.97 13.333-13.334 13.333C5.97 26.983 0 21.013 0 13.65 0 6.286 5.97.316 13.333.316zm0 2C7.074 2.316 2 7.391 2 13.65c0 6.259 5.074 11.333 11.333 11.333 6.26 0 11.334-5.074 11.334-11.333 0-6.26-5.074-11.334-11.334-11.334z"/>
                    <path fill-rule="nonzero" d="M13.357 6.354c.683 0 1.247.514 1.324 1.177l.009.156v7.527c0 .737-.597 1.334-1.333 1.334-.684 0-1.248-.515-1.325-1.178l-.009-.156V7.687c0-.736.597-1.333 1.334-1.333z"/>
                    <circle cx="13.333" cy="19.694" r="1.333"/>
                </g>
            </g>
            <path fill="#B9B9EB" d="M-3.969 -0.237H63.644V12.763H-3.969z" mask="url(#prefix__c)"/>
        </g>
    </g>
</svg>
