<svg xmlns="http://www.w3.org/2000/svg" width="30" height="30" viewBox="0 0 30 30">
    <g fill="none" fill-rule="evenodd">
        <circle cx="15" cy="15" r="15" fill="#5E3DF5"/>
        <path fill="#FFF" fill-rule="nonzero" d="M23.483 17.04a6.357 6.357 0 0 1-.851 3.186l-.03.047 1.351 3.568-4.604-.808-.151.058a6.52 6.52 0 0 1-1.918.373l-.285.006a6.523 6.523 0 0 1-3.54-1.037 8.29 8.29 0 0 0 8.889-9.035 6.372 6.372 0 0 1 1.14 3.642z"/>
        <path fill="#FFF" d="M13.967 6.477a7.55 7.55 0 1 1-3.353 14.316l-4.197.784 1-3.794a7.55 7.55 0 0 1 6.55-11.306zm-2.02 6.782a.79.79 0 0 0-.455 1.51l.088.027a.79.79 0 0 0 .455-1.51zm4.416 0a.79.79 0 0 0-.455 1.51l.088.027a.79.79 0 0 0 .456-1.51z"/>
    </g>
</svg>
