<svg xmlns="http://www.w3.org/2000/svg" width="16" height="16" viewBox="0 0 16 16">
    <path fill="#666" fill-rule="evenodd" d="M8.034 1.025c1.681 0 3.084 1.13 3.163 2.593l.003.13v1.584l1.484.001c.737 0 1.334.597 1.334 1.334v6.666c0 .737-.597 1.334-1.334 1.334H3.351a1.333 1.333 0 01-1.333-1.334V6.667c0-.737.597-1.334 1.333-1.334h1.516V3.747c0-1.526 1.436-2.723 3.167-2.723zm-.972 8.628a1 1 0 00.487 1.24l.107.046.092.03a1 1 0 00.707-1.86l-.108-.047-.092-.029a1 1 0 00-1.193.62zm.972-7.628c-1.171 0-2.099.738-2.163 1.624l-.004.099v1.584H10.2V3.748c0-.93-.951-1.723-2.166-1.723z"/>
</svg>
