<svg xmlns="http://www.w3.org/2000/svg" width="50" height="50" viewBox="0 0 50 50">
    <g fill="none" fill-rule="evenodd">
        <circle cx="25" cy="25" r="25" fill="#9681FF"/>
        <path fill="#FFF" d="M26.2 21.368l.972-3.013c.375-1.159-.46-2.355-1.644-2.355h-.195l-3.827 4.297c-.326.366-.506.84-.506 1.33V33h8.23c.792 0 1.51-.468 1.83-1.193l2.864-6.498.076-.362v-1.79c0-.987-.777-1.789-1.733-1.789H26.2zM18 33h1V21h-1c-1.104 0-2 .827-2 1.846v8.308c0 1.019.896 1.846 2 1.846"/>
    </g>
</svg>
