<svg xmlns="http://www.w3.org/2000/svg" width="52" height="60" viewBox="0 0 52 60">
    <g fill="none" fill-rule="evenodd">
        <path fill="#FFF" d="M.772 50.7H50.59V1.923H.772z"/>
        <path fill="#231F20" d="M48.848 44.854c0 1.713-1.41 3.103-3.152 3.103H6.303c-1.74 0-3.151-1.39-3.151-3.103V6.06c0-1.714 1.41-3.104 3.151-3.104h39.393c1.742 0 3.152 1.39 3.152 3.104v38.793zM48.323 0H3.677C1.646 0 0 1.621 0 3.62v52.76C0 58.377 1.646 60 3.677 60h44.646c2.03 0 3.676-1.622 3.676-3.62V3.62C52 1.622 50.354 0 48.323 0z"/>
        <path fill="#FFF" d="M4.906 51.396c-.14.222-.21.503-.21.842 0 .335.07.613.21.834a.734.734 0 0 0 .656.368.729.729 0 0 0 .648-.368c.145-.221.217-.5.217-.834 0-.34-.072-.62-.217-.842a.729.729 0 0 0-.648-.367c-.282 0-.5.122-.656.367zm.26 4.873h4.1v.763H5.05c-.324 0-.556-.059-.696-.176-.132-.118-.198-.309-.198-.573V54.84h1.01v1.429zm1.603-2.49c-.327.274-.73.41-1.207.41-.601 0-1.072-.202-1.413-.607-.309-.364-.464-.814-.464-1.351 0-.547.155-1.002.464-1.365.341-.4.812-.601 1.413-.601.55 0 .996.174 1.336.523.305.316.483.722.533 1.217h.777V50.3h1.01v5.064h-1.01v-2.56h-.846c-.104.405-.302.73-.593.975zM11.187 51.708c-.132.428-.197.982-.197 1.661 0 .736.065 1.327.197 1.776.145.48.355.72.627.72.269 0 .476-.24.621-.72.137-.449.205-1.04.205-1.776 0-.679-.068-1.233-.205-1.661-.15-.467-.357-.7-.62-.7-.268 0-.478.233-.628.7m1.992 3.988c-.328.608-.78.912-1.358.912-.595 0-1.06-.318-1.391-.954-.304-.585-.458-1.344-.458-2.277 0-.882.154-1.608.458-2.178.337-.623.8-.934 1.391-.934.505 0 .922.236 1.249.707.295.434.48 1.009.553 1.726h.873V50.3h1.01v6.803h-1.01V53.49h-.833c-.018.906-.18 1.641-.484 2.207M17.481 51.418c-.142.235-.211.54-.211.912s.07.676.211.912c.164.269.396.403.696.403.296 0 .525-.134.69-.403.144-.24.217-.544.217-.912s-.073-.672-.217-.912c-.17-.27-.399-.403-.69-.403-.3 0-.532.134-.696.403zm2.135-.517c.319.382.478.859.478 1.429 0 .57-.16 1.046-.478 1.428-.35.429-.832.644-1.446.644-.619 0-1.103-.215-1.453-.644-.314-.382-.47-.858-.47-1.428 0-.576.156-1.052.47-1.429.35-.424.834-.636 1.453-.636.614 0 1.096.212 1.446.636zm1.18-.6H21.8v6.802h-1.003v-.495h-4.693v-.778h4.693V50.3zM25.423 52.698h3.22v-.905h-3.22v.905zm0-2.341v.679h3.22v-.68h1.01v3.105h-4.319c-.322 0-.558-.063-.709-.19-.14-.128-.211-.323-.211-.588v-2.326h1.01zm4.57 4.604h-2.469v2.142h-1.002v-2.142h-2.443v-.771h5.915v.77zM35.995 54.169h-1.01v-1.592H33.9v-.749h1.085V50.3h1.01v3.869zm0 .36v2.567h-1.01v-1.81h-4.168v-.757h5.178zm-1.91-4.087v.75h-1.256c0 .551.171 1.046.512 1.484.287.368.655.66 1.106.878l-.464.586a4.616 4.616 0 0 1-.934-.573c-.32-.245-.56-.495-.724-.749-.159.254-.398.504-.717.75a4.731 4.731 0 0 1-.948.572l-.41-.586c.455-.208.822-.5 1.099-.878.318-.429.478-.924.478-1.485h-1.221v-.75h3.478zM42.282 53.716h-1.01v-1.344h-.961v-.785h.962V50.3h1.009v3.416zm0 .226v1.924H38.23v.382h4.1v.784h-4.189c-.3 0-.53-.068-.689-.204-.154-.132-.232-.321-.232-.566v-1.174h4.053v-.368H37.22v-.778h5.062zm-1.814-3.5v.778h-1.325c0 .4.19.78.567 1.138.291.273.66.512 1.106.714l-.478.573a7.703 7.703 0 0 1-.976-.53c-.34-.222-.582-.436-.723-.644-.154.213-.395.43-.724.651a6.44 6.44 0 0 1-.96.523l-.41-.573a3.472 3.472 0 0 0 1.058-.714c.354-.358.531-.738.531-1.138h-1.24v-.778h3.574zM46.68 52.139v-.785h.88V50.3h1.01v3.897h-1.01V52.14h-.88zm-1.883 3.224c-.264.128-.396.286-.396.474 0 .184.132.34.396.467.295.146.7.22 1.214.22.523 0 .935-.074 1.235-.22.268-.127.402-.283.402-.467 0-.188-.134-.346-.402-.474-.3-.14-.712-.212-1.235-.212-.514 0-.919.071-1.214.212zm3.213-.522c.437.273.655.607.655 1.003-.005.392-.225.722-.662.99-.486.302-1.15.453-1.992.453-.837 0-1.499-.151-1.985-.453-.432-.268-.648-.598-.648-.99 0-.396.216-.73.648-1.003.491-.302 1.154-.453 1.985-.453.847 0 1.512.151 1.999.453zm-2.073-2.42c.276.411.67.736 1.18.977l-.486.573a5.103 5.103 0 0 1-1.07-.715c-.327-.287-.553-.561-.675-.82-.142.259-.376.53-.703.813a5.423 5.423 0 0 1-1.043.708l-.416-.56c.467-.258.836-.584 1.104-.975.368-.547.553-1.235.553-2.065h1.016c0 .844.18 1.532.54 2.065z"/>
        <path fill="#000" d="M38.856 18.156c0 .62-.049 1.117-.146 1.493a3.05 3.05 0 0 1-.505 1.05 3.5 3.5 0 0 1-.91.853c-.337.214-.595.335-.775.364l-.786-1.194c.179 0 .374-.055.584-.166.21-.11.411-.276.606-.498.15-.162.258-.353.326-.575.067-.221.101-.42.101-.597h-1.55v-3.008h3.055v2.278zm-3.954 0c0 .62-.048 1.117-.146 1.493a3.02 3.02 0 0 1-.506 1.05c-.269.355-.572.64-.909.853-.337.214-.595.335-.776.364l-.785-1.194c.18 0 .374-.055.584-.166.21-.11.412-.276.606-.498.15-.162.258-.353.326-.575.068-.221.1-.42.1-.597h-1.55v-3.008h3.056v2.278zm-14.504.752v3.008h-3.054V19.66c0-.62.045-1.113.135-1.482.09-.369.26-.73.516-1.084.255-.339.554-.615.898-.83.345-.213.606-.342.786-.386l.787 1.194c-.195.03-.397.096-.606.2-.21.103-.405.258-.584.464-.166.177-.278.38-.338.608-.06.229-.09.417-.09.564h1.55zm-3.953 0v3.008H13.39V19.66c0-.62.045-1.113.135-1.482.089-.369.262-.73.516-1.084.255-.339.554-.615.9-.83.343-.213.605-.342.785-.386l.787 1.194c-.196.03-.398.096-.608.2-.21.103-.403.258-.584.464-.164.177-.276.38-.336.608-.06.229-.09.417-.09.564h1.55zm22.347-9.88H13.208c-3.402 0-6.161 3.295-6.161 6.723v11.207c0 3.428 2.759 6.724 6.16 6.724h1.718s.35 3.449 1.401 5.948c1.05 2.5 3.94 3.966 3.94 3.966h.525s-1.226-3.793-.7-5.948c.524-2.156 1.05-3.966 1.05-3.966h17.65c3.403 0 6.161-3.296 6.161-6.724V15.75c0-3.428-2.758-6.724-6.16-6.724z"/>
    </g>
</svg>
