<svg xmlns="http://www.w3.org/2000/svg" width="52" height="60" viewBox="0 0 52 60">
    <g fill="none" fill-rule="evenodd">
        <path fill="#FFF" d="M.772 50.7H50.59V1.923H.772z"/>
        <path fill="#231F20" d="M48.848 44.854c0 1.713-1.41 3.103-3.151 3.103H6.303c-1.74 0-3.151-1.39-3.151-3.103V6.06c0-1.714 1.41-3.104 3.151-3.104h39.394c1.74 0 3.151 1.39 3.151 3.104v38.793zM48.323 0H3.677C1.647 0 0 1.621 0 3.62v52.76C0 58.377 1.646 60 3.677 60h44.646C50.353 60 52 58.378 52 56.38V3.62C52 1.622 50.354 0 48.323 0z"/>
        <path fill="#231F20" d="M40.925 27.598c1.215 0 2.2-.97 2.2-2.166s-.985-2.166-2.2-2.166c-1.215 0-2.199.97-2.199 2.166s.984 2.166 2.2 2.166"/>
        <path fill="#231F20" d="M46.6 28a1.061 1.061 0 0 0-1.48-.139l-3.044 2.478-3.133-3.084a1.058 1.058 0 0 0-.743-.303h-4.136c-.27 0-.53.102-.726.286l-4.193 3.95a1.022 1.022 0 0 0-.033 1.463c.206.212.482.32.759.32.261 0 .523-.096.726-.287l3.889-3.663h1.028l-3.338 4.512-2.626 3.31h-5.728c-.726 0-1.313.58-1.313 1.293 0 .715.587 1.294 1.313 1.294h6.368c.405 0 .786-.184 1.035-.498l2.476-3.12 3.064 2.346-1.17 6.275a1.295 1.295 0 0 0 1.294 1.527c.621 0 1.174-.437 1.29-1.06l1.313-7.047a1.282 1.282 0 0 0-.485-1.254l-2.475-1.896 3.074-3.87 1.66 1.635c.383.376.995.406 1.412.065l3.78-3.077c.448-.364.511-1.015.141-1.456M32.569 10.357l4.928 4.749 4.927 4.748.378-6.778.38-6.78L39.8 9.69l-3.042-8.02-1.973.712 3.062 8.071zM11.6 11.258l6.847.81 6.844.81-3.893-5.602-3.892-5.605-.582 4.721L9.55 1.857l-2.294 1.1 8.59 5.213zM7.072 26.532l6.498-2.273 6.495-2.27-6.016-3.314L8.03 15.36l1.611 4.484L.99 19.01l-.217 2.058 8.708.839zM17.269 46.277l1.486-4.44 1.486-4.438-4.37 1.825-4.37 1.826 3.157 1.029-4.11 4.284 1.044.984 4.137-4.312z"/>
        <path fill="#FFF" d="M12.635 51.88h1.995V50.84h-1.995v1.038zm3.793 2.772v2.5h-1.082v-1.666h-4.53v-.834h5.612zm.11-4.629v.818h-.826v1.038h.826v.81h-2.31v.57h2.559v.818h-6.33v-.819h2.697v-.568h-2.441v-.81h.84V50.84h-.84v-.818h5.825zM28.957 54.493v2.66h-1.082v-1.85h-4.466v-.81h5.548zm-2.354-4.485v2.28h-2.426v.819h3.698v-.38h-1.133v-.802h1.133v-.682h-1.133v-.811h1.133v-.56h1.082v4.19h-1.082v-.152H24.08c-.326 0-.572-.068-.738-.204-.165-.142-.248-.347-.248-.614v-1.606h2.434v-.675h-2.434v-.803h3.508zM39.402 51.841v-.84h.943v-1.13h1.081v4.175h-1.081v-2.205h-.943zm-2.017 3.456c-.283.136-.424.305-.424.507 0 .197.141.364.424.5.316.157.75.235 1.3.235.561 0 1.002-.078 1.324-.235.287-.136.431-.303.431-.5 0-.202-.144-.371-.431-.507-.322-.152-.763-.228-1.323-.228-.551 0-.985.076-1.301.228zm3.442-.561c.468.293.702.651.702 1.076-.005.419-.241.773-.71 1.06-.52.324-1.232.485-2.133.485-.897 0-1.606-.161-2.128-.484-.462-.288-.693-.642-.693-1.061 0-.425.23-.783.693-1.076.527-.323 1.236-.485 2.128-.485.906 0 1.62.162 2.141.485zm-2.222-2.591c.298.44.719.787 1.265 1.045l-.52.614a5.398 5.398 0 0 1-1.146-.766c-.351-.307-.593-.6-.724-.878-.152.277-.403.568-.754.871-.345.298-.718.55-1.118.758l-.445-.6a3.405 3.405 0 0 0 1.184-1.044c.395-.586.592-1.324.592-2.213h1.09c0 .904.191 1.642.576 2.213z"/>
    </g>
</svg>
