<?xml version="1.0" encoding="UTF-8"?>
<svg width="32px" height="32px" viewBox="0 0 32 32" version="1.1" xmlns="http://www.w3.org/2000/svg" xmlns:xlink="http://www.w3.org/1999/xlink">
    <title>7359B9F2-32F5-4DFC-9C5C-CFB8CA77A2C9</title>
    <g id="STDS_Icon" stroke="none" stroke-width="1" fill="none" fill-rule="evenodd">
        <g id="object" transform="translate(-784.000000, -1925.000000)" fill="#000000">
            <g id="ic_object_lock_fill" transform="translate(720.000000, 1885.000000)">
                <g id="ic/object/lock/fill" transform="translate(64.000000, 40.000000)">
                    <g id="ic_object_lock_fill" transform="translate(4.000000, 2.000000)">
                        <path d="M12,0 C15.2411331,0 17.8776961,2.59493715 17.9958658,5.83539846 L18,6.0625 L18,8 L21,8 C22.6568542,8 24,9.34314575 24,11 L24,23 C24,24.6568542 22.6568542,26 21,26 L3,26 C1.34314575,26 0,24.6568542 0,23 L0,11 C0,9.34314575 1.34314575,8 3,8 L6,8 L6,6.0625 C6,2.71703533 8.68349168,0 12,0 Z M12,15.5 C11.1715729,15.5 10.5,16.1715729 10.5,17 C10.5,17.8284271 11.1715729,18.5 12,18.5 C12.8284271,18.5 13.5,17.8284271 13.5,17 C13.5,16.1715729 12.8284271,15.5 12,15.5 Z M12,2 C9.86051959,2 8.10908567,3.70768369 8.00490279,5.85950421 L8,6.0625 L8,8 L16,8 L16,6.0625 C16,3.81608158 14.2063392,2 12,2 Z" id="Shape"></path>
                    </g>
                </g>
            </g>
        </g>
    </g>
</svg>