<?xml version="1.0" encoding="UTF-8"?>
<svg width="32px" height="32px" viewBox="0 0 32 32" version="1.1" xmlns="http://www.w3.org/2000/svg" xmlns:xlink="http://www.w3.org/1999/xlink">
    <title>3D2F92AA-F6B5-4E48-AFF9-5D1EC0AC41F3</title>
    <g id="STDS_Icon" stroke="none" stroke-width="1" fill="none" fill-rule="evenodd">
        <g id="object" transform="translate(-784.000000, -2465.000000)" fill="#000000" fill-rule="nonzero">
            <g id="ic_object_cabinet_fill" transform="translate(720.000000, 2425.000000)">
                <g id="ic/object/cabinet/fill" transform="translate(64.000000, 40.000000)">
                    <g id="ic_object_cabinet_fill" transform="translate(4.000000, 4.000000)">
                        <path d="M24,7 L24,21 C24,22.5976809 22.75108,23.9036609 21.1762728,23.9949073 L21,24 L3,24 C1.40231912,24 0.0963391206,22.75108 0.00509269341,21.1762728 L0,21 L0,7 L24,7 Z M17,11 L16.8833789,11.0067277 C16.424297,11.0600494 16.0600494,11.424297 16.0067277,11.8833789 L16,12 L16,15 L8,15 L8,12 L7.99327227,11.8833789 C7.93550716,11.3860402 7.51283584,11 7,11 C6.48716416,11 6.06449284,11.3860402 6.00672773,11.8833789 L6,12 L6,16 L6.00672773,16.1166211 C6.06004937,16.575703 6.42429701,16.9399506 6.88337887,16.9932723 L7,17 L17,17 L17.1166211,16.9932723 C17.575703,16.9399506 17.9399506,16.575703 17.9932723,16.1166211 L18,16 L18,12 L17.9932723,11.8833789 C17.9399506,11.424297 17.575703,11.0600494 17.1166211,11.0067277 L17,11 Z M18.0387503,0 C18.885005,0 19.688654,0.357201467 20.2549701,0.978013631 L20.3813567,1.12591486 L23.48,5 L0.519,5 L3.61864327,1.12591486 C4.14729436,0.465100993 4.9282574,0.0606985354 5.76680511,0.0062982551 L5.96124969,0 L18.0387503,0 Z" id="Shape"></path>
                    </g>
                </g>
            </g>
        </g>
    </g>
</svg>