<?xml version="1.0" encoding="UTF-8"?>
<svg width="32px" height="32px" viewBox="0 0 32 32" version="1.1" xmlns="http://www.w3.org/2000/svg" xmlns:xlink="http://www.w3.org/1999/xlink">
    <title>45951CAE-C19D-47BA-BC50-57271A3DC81E</title>
    <g id="STDS_Icon" stroke="none" stroke-width="1" fill="none" fill-rule="evenodd">
        <g id="object" transform="translate(-784.000000, -2825.000000)" fill="#000000">
            <g id="ic_object_report_fill" transform="translate(720.000000, 2785.000000)">
                <g id="ic/object/report/fill" transform="translate(64.000000, 40.000000)">
                    <g id="ic_object_report_fill" transform="translate(4.000000, 3.000000)">
                        <path d="M21,19 C22.6568542,19 24,20.3431458 24,22 L24,25 L0,25 L0,22 C0,20.3431458 1.34314575,19 3,19 L21,19 Z M12,0 C17.4292399,0 21.8479317,4.33011692 21.9961582,9.72783707 L22,10.0079649 L22,17 L2,17 L2,10.0079649 C2,4.48071849 6.4771525,0 12,0 Z M12,4 C8.69785325,4 6,6.55789668 6,9.74061493 C6,10.2928997 6.44771525,10.7406149 7,10.7406149 C7.55228475,10.7406149 8,10.2928997 8,9.74061493 C8,7.68699452 9.77929925,6 12,6 C12.5522847,6 13,5.55228475 13,5 C13,4.44771525 12.5522847,4 12,4 Z" id="Shape"></path>
                    </g>
                </g>
            </g>
        </g>
    </g>
</svg>