<?xml version="1.0" encoding="UTF-8"?>
<svg width="32px" height="32px" viewBox="0 0 32 32" version="1.1" xmlns="http://www.w3.org/2000/svg" xmlns:xlink="http://www.w3.org/1999/xlink">
    <title>E0E673D9-D4BE-430D-B55D-66FEFFED3EF0</title>
    <g id="STDS_Icon" stroke="none" stroke-width="1" fill="none" fill-rule="evenodd">
        <g id="object" transform="translate(-784.000000, -2285.000000)" fill="#000000">
            <g id="ic_object_unlock_fill" transform="translate(720.000000, 2245.000000)">
                <g id="ic/object/clock/fill" transform="translate(64.000000, 40.000000)">
                    <g id="ic_object_clock_fill" transform="translate(2.000000, 2.000000)">
                        <path d="M14,0 C21.7319865,0 28,6.2680135 28,14 C28,21.7319865 21.7319865,28 14,28 C6.2680135,28 0,21.7319865 0,14 C0,6.2680135 6.2680135,0 14,0 Z M14,5 C13.4871642,5 13.0644928,5.38604019 13.0067277,5.88337887 L13,6 L13,14 L13.0085074,14.1302838 C13.0422737,14.3875068 13.1749695,14.621873 13.3781638,14.7831675 L13.4855042,14.8574929 L18.4855042,17.8574929 L18.5889674,17.911725 C19.0100606,18.1021978 19.5098043,17.9772618 19.7917229,17.6110362 L19.8574929,17.5144958 L19.911725,17.4110326 C20.1021978,16.9899394 19.9772618,16.4901957 19.6110362,16.2082771 L19.5144958,16.1425071 L15,13.434 L15,6 L14.9932723,5.88337887 C14.9355072,5.38604019 14.5128358,5 14,5 Z" id="Shape"></path>
                    </g>
                </g>
            </g>
        </g>
    </g>
</svg>