<?xml version="1.0" encoding="UTF-8"?>
<svg width="32px" height="32px" viewBox="0 0 32 32" version="1.1" xmlns="http://www.w3.org/2000/svg" xmlns:xlink="http://www.w3.org/1999/xlink">
    <title>7D089860-3637-4680-B2D1-3DCF794BDD07</title>
    <g id="STDS_Icon" stroke="none" stroke-width="1" fill="none" fill-rule="evenodd">
        <g id="communication" transform="translate(-784.000000, -845.000000)" fill="#000000">
            <g id="ic_communication_phone_fill" transform="translate(720.000000, 805.000000)">
                <g id="ic/communication/phone/fill" transform="translate(64.000000, 40.000000)">
                    <g id="ic_communication_phone_fill" transform="translate(3.000000, 3.000000)">
                        <path d="M6.35769146,0.0148320945 C2.72033511,0.479647654 0,3.56952403 0,7.22968276 C0,17.5962427 8.40375742,26 18.7703175,26 C22.4304763,26 25.5203527,23.2796649 25.9843441,19.6489337 C26.0944215,18.7394856 25.5934298,17.8732323 24.7564082,17.5176838 L18.6394454,14.8961228 C18.004079,14.6238231 17.2741619,14.6908775 16.6990415,15.0743793 L13.427777,17.255731 C13.4127585,17.2658463 13.3993023,17.2668644 13.3878583,17.2614415 C11.374833,16.2881009 9.74097908,14.6616704 8.7550642,12.6460421 C8.75294802,12.6415611 8.75387595,12.6281022 8.76086892,12.6175415 L10.9376009,9.2916096 C11.312728,8.71843047 11.3760058,7.99551532 11.1061628,7.36588106 L8.48230797,1.24356437 C8.12675064,0.406555924 7.2605024,-0.0944225663 6.35769146,0.0148320945 Z" id="Path"></path>
                    </g>
                </g>
            </g>
        </g>
    </g>
</svg>