<?xml version="1.0" encoding="UTF-8"?>
<svg width="32px" height="32px" viewBox="0 0 32 32" version="1.1" xmlns="http://www.w3.org/2000/svg" xmlns:xlink="http://www.w3.org/1999/xlink">
    <title>507DE917-B50E-443A-A095-86B6E7FD77C1</title>
    <g id="STDS_Icon" stroke="none" stroke-width="1" fill="none" fill-rule="evenodd">
        <g id="communication" transform="translate(-784.000000, -665.000000)" fill="#000000">
            <g id="ic_communication_hand_up_fill" transform="translate(720.000000, 625.000000)">
                <g id="ic/communication/hand_up/fill" transform="translate(64.000000, 40.000000)">
                    <g id="ic_communication_hand_up_fill" transform="translate(4.000000, 2.000000)">
                        <path d="M12,0 C13.1045695,0 14,0.8954305 14,2 L14,11.5 C14,11.7761424 14.2238576,12 14.5,12 C14.7454599,12 14.9496084,11.8231248 14.9919443,11.5898756 L15,11.5 L15,4 C15,2.8954305 15.8954305,2 17,2 C18.1045695,2 19,2.8954305 19,4 L18.9997148,14.8220047 L21.269783,12.2990721 C21.357124,12.2013179 21.4461514,12.1016272 21.5368652,12 C22.3857773,11.1250657 23.4698486,10.8453369 24.156649,11.3384869 C24.9769607,11.9206872 25.3081729,12.9852858 24.7485718,14.4256733 L24.3342798,15.3291112 L24.3342798,15.3291112 L23.9535117,16.1392614 L23.9535117,16.1392614 L23.6672323,16.7320583 L23.6672323,16.7320583 L23.3555798,17.3605212 L23.3555798,17.3605212 L23.0190465,18.019086 L23.0190465,18.019086 L22.6581242,18.7021887 L22.6581242,18.7021887 L22.2733053,19.4042653 C21.5461992,20.7053981 20.7010949,22.0741386 19.7516381,23.3561999 C17.3348389,26.6196289 14.5871582,27.932251 11.2912607,28 C3.36452474,28 0.00433257602,22.3953012 0.00433257602,17.615231 L0.0418096495,17.4087778 C0.0144032414,17.276816 1.36424205e-12,17.14009 1.36424205e-12,17 L1.36424205e-12,8 C1.36424205e-12,6.8954305 0.8954305,6 2,6 C3.1045695,6 4,6.8954305 4,8 L4,12.5 C4,12.7761424 4.22385763,13 4.5,13 C4.74545989,13 4.94960837,12.8231248 4.99194433,12.5898756 L5,12.5 L5,4 C5,2.8954305 5.8954305,2 7,2 C8.1045695,2 9,2.8954305 9,4 L9,11.5 C9,11.7761424 9.22385763,12 9.5,12 C9.74545989,12 9.94960837,11.8231248 9.99194433,11.5898756 L10,11.5 L10,2 C10,0.8954305 10.8954305,0 12,0 Z" id="Path"></path>
                    </g>
                </g>
            </g>
        </g>
    </g>
</svg>