<?xml version="1.0" encoding="UTF-8"?>
<svg width="32px" height="32px" viewBox="0 0 32 32" version="1.1" xmlns="http://www.w3.org/2000/svg" xmlns:xlink="http://www.w3.org/1999/xlink">
    <title>2A38E675-E0EC-489A-8CCC-7025957C141A</title>
    <g id="STDS_Icon" stroke="none" stroke-width="1" fill="none" fill-rule="evenodd">
        <g id="hardware" transform="translate(-784.000000, -1205.000000)" fill="#000000">
            <g id="ic_hardware_print_fill" transform="translate(720.000000, 1165.000000)">
                <g id="ic/hardware/print/fill" transform="translate(64.000000, 40.000000)">
                    <g id="ic_hardware_print_fill" transform="translate(3.000000, 4.000000)">
                        <path d="M18.9992675,17 L18.9992675,23 C18.9992675,23.5522847 18.5515522,24 17.9992675,24 L7.9992675,24 C7.44698275,24 6.9992675,23.5522847 6.9992675,23 L6.9992675,17 L18.9992675,17 Z M23,5 C24.6568542,5 26,6.34314575 26,8 L26,17 C26,18.6568542 24.6568542,20 23,20 L20.999,20 L20.9992675,16 C20.9992675,15.4871642 20.6132273,15.0644928 20.1158886,15.0067277 L19.9992675,15 L5.9992675,15 C5.48643166,15 5.06376034,15.3860402 5.00599523,15.8833789 L4.9992675,16 L4.999,20 L3,20 C1.34314575,20 0,18.6568542 0,17 L0,8 C0,6.34314575 1.34314575,5 3,5 L23,5 Z M20.5,9 C19.6715729,9 19,9.67157288 19,10.5 C19,11.3284271 19.6715729,12 20.5,12 C21.3284271,12 22,11.3284271 22,10.5 C22,9.67157288 21.3284271,9 20.5,9 Z M20,0 C20.5522847,0 21,0.44771525 21,1 L21,3 L5,3 L5,1 C5,0.44771525 5.44771525,0 6,0 L20,0 Z" id="Shape"></path>
                    </g>
                </g>
            </g>
        </g>
    </g>
</svg>