<?xml version="1.0" encoding="UTF-8"?>
<svg width="32px" height="32px" viewBox="0 0 32 32" version="1.1" xmlns="http://www.w3.org/2000/svg" xmlns:xlink="http://www.w3.org/1999/xlink">
    <title>F7D6C4B4-C9C6-455F-B068-C61EB1CFA002</title>
    <g id="STDS_Icon" stroke="none" stroke-width="1" fill="none" fill-rule="evenodd">
        <g id="hardware" transform="translate(-784.000000, -845.000000)" fill="#000000">
            <g id="ic_hardware_Inspection_fill" transform="translate(720.000000, 805.000000)">
                <g id="ic/hardware/Inspection/fill" transform="translate(64.000000, 40.000000)">
                    <g id="ic_hardware_Inspection_fill" transform="translate(3.000000, 3.000000)">
                        <path d="M8.63891671,3.16700811 C6.00217077,5.97166995 5.2317615,9.99609053 6.53614868,13.5249879 L6.60756214,13.7112265 L1.17648766,19.1431489 C-0.392153623,20.7117898 -0.392153623,23.2549723 1.17643408,24.8235595 L1.33646931,24.9751896 C2.91348445,26.3904039 5.34049121,26.3398606 6.85679265,24.8235595 L12.2890712,19.3917299 L12.4760258,19.4642212 C16.1000866,20.8033359 20.2465061,19.9543847 23.0576891,17.1432025 C26.0908075,14.1100849 26.8396385,9.52258217 25.0205259,5.71389331 L24.9625069,5.60858739 C24.6256835,5.07403894 23.8656801,4.97540066 23.4044364,5.43656203 L19.5069375,9.33210767 L16.6661829,6.49235805 L20.5642826,2.59612773 C21.0543523,2.10612097 20.9124832,1.27873609 20.287167,0.97998098 C16.4783039,-0.839765972 11.8902128,-0.0911094208 8.85679265,2.94230992 L8.63891671,3.16700811 Z" id="Path"></path>
                    </g>
                </g>
            </g>
        </g>
    </g>
</svg>