<?xml version="1.0" encoding="UTF-8"?>
<svg width="32px" height="32px" viewBox="0 0 32 32" version="1.1" xmlns="http://www.w3.org/2000/svg" xmlns:xlink="http://www.w3.org/1999/xlink">
    <title>1F6F37C8-9F22-47AB-A634-96104C4CDAF5</title>
    <g id="STDS_Icon" stroke="none" stroke-width="1" fill="none" fill-rule="evenodd">
        <g id="hardware" transform="translate(-784.000000, -665.000000)" fill="#000000">
            <g id="ic_hardware_desktop_smartphone_fill" transform="translate(720.000000, 625.000000)">
                <g id="ic/hardware/desktop_smartphone/fill" transform="translate(64.000000, 40.000000)">
                    <g id="ic_hardware_desktop_smartphone_fill" transform="translate(4.000000, 5.000000)">
                        <path d="M25,7 C25.5522847,7 26,7.44771525 26,8 L26,22 C26,22.5522847 25.5522847,23 25,23 L17,23 C16.4477153,23 16,22.5522847 16,22 L16,8 C16,7.44771525 16.4477153,7 17,7 L25,7 Z M13,20 C13.5522847,20 14,20.4477153 14,21 C14,21.5128358 13.6139598,21.9355072 13.1166211,21.9932723 L13,22 L1,22 C0.44771525,22 0,21.5522847 0,21 C0,20.4871642 0.38604019,20.0644928 0.883378875,20.0067277 L1,20 L13,20 Z M22,19 L20,19 L19.8833789,19.0067277 C19.3860402,19.0644928 19,19.4871642 19,20 C19,20.5128358 19.3860402,20.9355072 19.8833789,20.9932723 L20,21 L22,21 L22.1166211,20.9932723 C22.6139598,20.9355072 23,20.5128358 23,20 C23,19.4477153 22.5522847,19 22,19 Z M21,0 C22.6568542,0 24,1.34314575 24,3 L24,5 L17,5 C15.3431458,5 14,6.34314575 14,8 L14,18 L3,18 C1.34314575,18 0,16.6568542 0,15 L0,3 C0,1.34314575 1.34314575,0 3,0 L21,0 Z" id="Shape"></path>
                    </g>
                </g>
            </g>
        </g>
    </g>
</svg>