<?xml version="1.0" encoding="UTF-8"?>
<svg width="32px" height="32px" viewBox="0 0 32 32" version="1.1" xmlns="http://www.w3.org/2000/svg" xmlns:xlink="http://www.w3.org/1999/xlink">
    <title>9E8F8A41-5E81-4747-8EBE-D222CC4DDF28</title>
    <g id="STDS_Icon" stroke="none" stroke-width="1" fill="none" fill-rule="evenodd">
        <g id="hardware" transform="translate(-784.000000, -485.000000)" fill="#000000">
            <g id="ic_hardware_smartphone_fill" transform="translate(720.000000, 445.000000)">
                <g id="ic/hardware/smartphone/fill" transform="translate(64.000000, 40.000000)">
                    <g id="ic_hardware_smartphone_fill" transform="translate(7.000000, 2.000000)">
                        <path d="M15,0 C16.6568542,-3.04359188e-16 18,1.34314575 18,3 L18,25 C18,26.6568542 16.6568542,28 15,28 L3,28 C1.34314575,28 -6.85272294e-16,26.6568542 0,25 L0,3 C-2.02906125e-16,1.34314575 1.34314575,3.04359188e-16 3,0 L15,0 Z M10,21 L8,21 L7.88337887,21.0067277 C7.38604019,21.0644928 7,21.4871642 7,22 C7,22.5522847 7.44771525,23 8,23 L8,23 L10,23 L10.1166211,22.9932723 C10.6139598,22.9355072 11,22.5128358 11,22 C11,21.4477153 10.5522847,21 10,21 L10,21 Z" id="Combined-Shape"></path>
                    </g>
                </g>
            </g>
        </g>
    </g>
</svg>