<?xml version="1.0" encoding="UTF-8"?>
<svg width="32px" height="32px" viewBox="0 0 32 32" version="1.1" xmlns="http://www.w3.org/2000/svg" xmlns:xlink="http://www.w3.org/1999/xlink">
    <title>5F2D973A-51FD-4789-9CEB-BFFD884DA8D8</title>
    <g id="STDS_Icon" stroke="none" stroke-width="1" fill="none" fill-rule="evenodd">
        <g id="state" transform="translate(-784.000000, -485.000000)" fill="#000000">
            <g id="ic_state_warning_fill" transform="translate(720.000000, 445.000000)">
                <g id="ic/state/warning/fill" transform="translate(64.000000, 40.000000)">
                    <g id="ic_state_warning_fill" transform="translate(2.000000, 3.000000)">
                        <path d="M11.403816,1.4980194 C12.2340505,0.0641865642 14.0694398,-0.425126536 15.5032726,0.405108005 C15.8919928,0.630189296 16.224364,0.939183506 16.47676,1.30846443 L16.596184,1.4980194 L27.5970365,20.4967274 C28.4272711,21.9305602 27.937958,23.7659495 26.5041251,24.596184 C26.1125524,24.822917 25.675641,24.957646 25.2263671,24.9915128 L25.0008525,25 L2.99914748,25 C1.34229323,25 -0.000852519698,23.6568542 -0.000852519698,22 C-0.000852519698,21.5475212 0.101486029,21.1019089 0.297304971,20.6961393 L0.402963465,20.4967274 L11.403816,1.4980194 Z M14,18 C13.1715729,18 12.5,18.6715729 12.5,19.5 C12.5,20.3284271 13.1715729,21 14,21 C14.8284271,21 15.5,20.3284271 15.5,19.5 C15.5,18.6715729 14.8284271,18 14,18 Z M14,8 C13.4871642,8 13.0644928,8.38604019 13.0067277,8.88337887 L13,9 L13,15 L13.0067277,15.1166211 C13.0644928,15.6139598 13.4871642,16 14,16 C14.5128358,16 14.9355072,15.6139598 14.9932723,15.1166211 L15,15 L15,9 L14.9932723,8.88337887 C14.9355072,8.38604019 14.5128358,8 14,8 Z" id="Shape"></path>
                    </g>
                </g>
            </g>
        </g>
    </g>
</svg>