<?xml version="1.0" encoding="UTF-8"?>
<svg width="32px" height="32px" viewBox="0 0 32 32" version="1.1" xmlns="http://www.w3.org/2000/svg" xmlns:xlink="http://www.w3.org/1999/xlink">
    <title>AF3106EE-8BB5-4296-9F25-D7C247E2A93B</title>
    <g id="STDS_Icon" stroke="none" stroke-width="1" fill="none" fill-rule="evenodd">
        <g id="hardware" transform="translate(-364.000000, -845.000000)" fill="#000000">
            <g id="ic_hardware_Inspection_line" transform="translate(300.000000, 805.000000)">
                <g id="ic/hardware/Inspection/line" transform="translate(64.000000, 40.000000)">
                    <g id="ic_hardware_Inspection_line" transform="translate(3.000000, 3.000000)">
                        <path d="M8.64652615,3.16463301 C6.01075211,5.96826184 5.24062671,9.99120064 6.5445326,13.5187973 L6.617,13.707 L1.17530326,19.1500008 C-0.391756002,20.7170601 -0.391756002,23.257708 1.17526801,24.824732 L1.3351437,24.976211 C2.91058674,26.3900149 5.33517405,26.3395219 6.84996392,24.824732 L12.292,19.382 L12.48222,19.4558426 C16.1049439,20.7944636 20.2498357,19.9458249 23.0599824,17.1356782 C26.2426699,13.9529907 26.8974658,9.07212939 24.7540418,5.18933869 L24.6884401,5.08564703 C24.3348934,4.59504604 23.6127143,4.52434735 23.1715311,4.96545592 L19.157,8.978 L17.021,6.842 L21.0353482,2.82907703 C21.5059443,2.35854209 21.3942392,1.5681999 20.8116727,1.24651658 C16.9287549,-0.89756483 12.0473071,-0.2429677 8.86432179,2.94001758 L8.64652615,3.16463301 Z M18.5463438,2.42380458 L18.594,2.441 L14.9000511,6.13533339 C14.5094835,6.52585025 14.5094629,7.15905067 14.9000051,7.54959291 L18.4504071,11.0999949 L18.5446087,11.183179 C18.9368755,11.4881893 19.5040679,11.4604866 19.8645608,11.1000547 L23.559,7.405 L23.5764489,7.45440529 C24.5400323,10.2954309 23.8498989,13.5173346 21.6457689,15.7214646 C19.2177449,18.1494886 15.5451035,18.7489841 12.4968556,17.293075 C12.1144663,17.1104376 11.6584806,17.1886506 11.3588118,17.4882778 L5.43579936,23.4104694 C4.64977494,24.1964939 3.37545699,24.1964939 2.58948157,23.4105184 C1.80350614,22.624543 1.80350614,21.3502251 2.58948157,20.5642496 L8.51209417,14.6422276 C8.81181872,14.342533 8.89005041,13.8864393 8.7073304,13.5039931 C7.25091412,10.4556084 7.85027018,6.78249631 10.2785354,4.35423114 C12.4828713,2.14989515 15.7051546,1.45985288 18.5463438,2.42380458 Z" id="Path"></path>
                    </g>
                </g>
            </g>
        </g>
    </g>
</svg>