<?xml version="1.0" encoding="UTF-8"?>
<svg width="32px" height="32px" viewBox="0 0 32 32" version="1.1" xmlns="http://www.w3.org/2000/svg" xmlns:xlink="http://www.w3.org/1999/xlink">
    <title>390C0F6C-6338-4439-9DFF-3B3982318EF3</title>
    <g id="STDS_Icon" stroke="none" stroke-width="1" fill="none" fill-rule="evenodd">
        <g id="hardware" transform="translate(-364.000000, -1025.000000)" fill="#000000">
            <g id="ic_hardware_qr_code_line" transform="translate(300.000000, 985.000000)">
                <g id="ic/hardware/qr_code/line" transform="translate(64.000000, 40.000000)">
                    <g id="ic_hardware_qr_code_line" transform="translate(5.000000, 5.000000)">
                        <path d="M8.000305,12 C9.0546668,12 9.91847012,12.8158778 9.99481926,13.8507377 L10.000305,14 L10.000305,20 C10.000305,21.0543618 9.18442721,21.9181651 8.14956734,21.9945143 L8.000305,22 L2.000305,22 C0.945943205,22 0.0821398781,21.1841222 0.00579073643,20.1492623 L0.000305,20 L0.000305,14 C0.000305,12.9456382 0.816182791,12.0818349 1.85104266,12.0054857 L2.000305,12 L8.000305,12 Z M21.000305,20 C21.5525897,20 22.000305,20.4477153 22.000305,21 C22.000305,21.5128358 21.6142648,21.9355072 21.1169261,21.9932723 L21.000305,22 L17,22 C16.4477153,22 16,21.5522847 16,21 C16,20.4871642 16.3860402,20.0644928 16.8833789,20.0067277 L17,20 L21.000305,20 Z M17.00025,16 C17.5525347,16 18.00025,16.4477153 18.00025,17 C18.00025,17.5128358 17.6142098,17.9355072 17.1168711,17.9932723 L17.00025,18 L14,17.999 L14.00025,21 C14.00025,21.5128358 13.6142098,21.9355072 13.1168711,21.9932723 L13.00025,22 C12.4874142,22 12.0647428,21.6139598 12.0069777,21.1166211 L12.00025,21 L12.00025,17 C12.00025,16.4871642 12.3862902,16.0644928 12.8836289,16.0067277 L13.00025,16 L17.00025,16 Z M8.000305,14 L2.000305,14 L2.000305,20 L8.000305,20 L8.000305,14 Z M21.000305,12 C21.5131685,12 21.9358524,12.3860803 21.9935855,12.8834485 L22.000305,13.0000762 L22,17.0000762 C21.9999579,17.552361 21.5522085,18 20.9999238,18 C20.4870879,18 20.064446,17.6138885 20.0067188,17.1165454 L20,16.9999238 L20,14 L18,14 C17.4871642,14 17.0644928,13.6139598 17.0067277,13.1166211 L17,13 C17,12.4871642 17.3860402,12.0644928 17.8833789,12.0067277 L18,12 L21.000305,12 Z M14.000305,12 C14.5525897,12 15.000305,12.4477153 15.000305,13 C15.000305,13.5128358 14.6142648,13.9355072 14.1169261,13.9932723 L14.000305,14 L13.000305,14 C12.4480203,14 12.000305,13.5522847 12.000305,13 C12.000305,12.4871642 12.3863452,12.0644928 12.8836839,12.0067277 L13.000305,12 L14.000305,12 Z M8.000305,0 C9.0546668,0 9.91847012,0.815877791 9.99481926,1.85073766 L10.000305,2 L10.000305,8 C10.000305,9.0543618 9.18442721,9.91816512 8.14956734,9.99451426 L8.000305,10 L2.000305,10 C0.945943205,10 0.0821398781,9.18412221 0.00579073643,8.14926234 L0.000305,8 L0.000305,2 C0.000305,0.945638205 0.816182791,0.0818348781 1.85104266,0.00548573643 L2.000305,0 L8.000305,0 Z M20.000305,0 C21.0546668,0 21.9184701,0.815877791 21.9948193,1.85073766 L22.000305,2 L22.000305,8 C22.000305,9.0543618 21.1844272,9.91816512 20.1495673,9.99451426 L20.000305,10 L14.000305,10 C12.9459432,10 12.0821399,9.18412221 12.0057907,8.14926234 L12.000305,8 L12.000305,2 C12.000305,0.945638205 12.8161828,0.0818348781 13.8510427,0.00548573643 L14.000305,0 L20.000305,0 Z M8.000305,2 L2.000305,2 L2.000305,8 L8.000305,8 L8.000305,2 Z M20.000305,2 L14.000305,2 L14.000305,8 L20.000305,8 L20.000305,2 Z" id="Shape"></path>
                    </g>
                </g>
            </g>
        </g>
    </g>
</svg>