<?xml version="1.0" encoding="UTF-8"?>
<svg width="32px" height="32px" viewBox="0 0 32 32" version="1.1" xmlns="http://www.w3.org/2000/svg" xmlns:xlink="http://www.w3.org/1999/xlink">
    <title>AA5102A9-9131-4B05-B334-1058974C6DBE</title>
    <g id="STDS_Icon" stroke="none" stroke-width="1" fill="none" fill-rule="evenodd">
        <g id="hardware" transform="translate(-364.000000, -305.000000)" fill="#000000">
            <g id="ic_hardware_desktop_line" transform="translate(300.000000, 265.000000)">
                <g id="ic/hardware/desktop/line" transform="translate(64.000000, 40.000000)">
                    <g id="ic_hardware_desktop_line" transform="translate(3.000000, 4.000000)">
                        <path d="M23,0 C24.5976809,0 25.9036609,1.24891996 25.9949073,2.82372721 L26,3 L26,17 C26,18.5976809 24.75108,19.9036609 23.1762728,19.9949073 L23,20 L14,20 L14,21.999 L17,22 C17.5522847,22 18,22.4477153 18,23 C18,23.5128358 17.6139598,23.9355072 17.1166211,23.9932723 L17,24 L9,24 C8.44771525,24 8,23.5522847 8,23 C8,22.4871642 8.38604019,22.0644928 8.88337887,22.0067277 L9,22 L12,21.999 L12,20 L3,20 C1.40231912,20 0.0963391206,18.75108 0.00509269341,17.1762728 L0,17 L0,3 C0,1.40231912 1.24891996,0.0963391206 2.82372721,0.00509269341 L3,0 L23,0 Z M23,2 L3,2 C2.48716416,2 2.06449284,2.38604019 2.00672773,2.88337887 L2,3 L2,17 C2,17.5128358 2.38604019,17.9355072 2.88337887,17.9932723 L3,18 L23,18 C23.5128358,18 23.9355072,17.6139598 23.9932723,17.1166211 L24,17 L24,3 C24,2.48716416 23.6139598,2.06449284 23.1166211,2.00672773 L23,2 Z" id="Shape"></path>
                    </g>
                </g>
            </g>
        </g>
    </g>
</svg>