<?xml version="1.0" encoding="UTF-8"?>
<svg width="32px" height="32px" viewBox="0 0 32 32" version="1.1" xmlns="http://www.w3.org/2000/svg" xmlns:xlink="http://www.w3.org/1999/xlink">
    <title>E34E6730-DAA0-46BD-BDF0-E5C52D55F581</title>
    <g id="STDS_Icon" stroke="none" stroke-width="1" fill="none" fill-rule="evenodd">
        <g id="hardware" transform="translate(-364.000000, -1205.000000)" fill="#000000">
            <g id="ic_hardware_print_line" transform="translate(300.000000, 1165.000000)">
                <g id="ic/hardware/print/line" transform="translate(64.000000, 40.000000)">
                    <g id="ic_hardware_print_line" transform="translate(3.000000, 4.000000)">
                        <path d="M19.99925,0 C20.5120858,0 20.9347572,0.38604019 20.9925223,0.883378875 L20.99925,1 L20.999,5 L23,5 C24.5976809,5 25.9036609,6.24891996 25.9949073,7.82372721 L26,8 L26,17 C26,18.5976809 24.75108,19.9036609 23.1762728,19.9949073 L23,20 L20.999,20 L20.9992675,23 C20.9992675,23.5128358 20.6132273,23.9355072 20.1158886,23.9932723 L19.9992675,24 L5.9992675,24 C5.48643166,24 5.06376034,23.6139598 5.00599523,23.1166211 L4.9992675,23 L4.999,20 L3,20 C1.40231912,20 0.0963391206,18.75108 0.00509269341,17.1762728 L0,17 L0,8 C0,6.40231912 1.24891996,5.09633912 2.82372721,5.00509269 L3,5 L4.999,5 L4.99925,1 C4.99925,0.487164161 5.38529019,0.0644928393 5.88262887,0.00672773133 L5.99925,0 L19.99925,0 Z M18.999,17 L6.999,17 L6.999,22 L18.999,22 L18.999,17 Z M23,7 L3,7 C2.48716416,7 2.06449284,7.38604019 2.00672773,7.88337887 L2,8 L2,17 C2,17.5128358 2.38604019,17.9355072 2.88337887,17.9932723 L3,18 L4.999,18 L4.9992675,16 C4.9992675,15.4871642 5.38530769,15.0644928 5.88264637,15.0067277 L5.9992675,15 L19.9992675,15 C20.5121033,15 20.9347747,15.3860402 20.9925398,15.8833789 L20.9992675,16 L20.999,18 L23,18 C23.5128358,18 23.9355072,17.6139598 23.9932723,17.1166211 L24,17 L24,8 C24,7.48716416 23.6139598,7.06449284 23.1166211,7.00672773 L23,7 Z M20.5,9 C21.3284271,9 22,9.67157288 22,10.5 C22,11.3284271 21.3284271,12 20.5,12 C19.6715729,12 19,11.3284271 19,10.5 C19,9.67157288 19.6715729,9 20.5,9 Z M18.999,2 L6.999,2 L6.999,5 L18.999,5 L18.999,2 Z" id="Shape"></path>
                    </g>
                </g>
            </g>
        </g>
    </g>
</svg>