<?xml version="1.0" encoding="UTF-8"?>
<svg width="32px" height="32px" viewBox="0 0 32 32" version="1.1" xmlns="http://www.w3.org/2000/svg" xmlns:xlink="http://www.w3.org/1999/xlink">
    <title>95F5E0F5-C0C3-44A4-82FB-E93703732CBD</title>
    <g id="STDS_Icon" stroke="none" stroke-width="1" fill="none" fill-rule="evenodd">
        <g id="hardware" transform="translate(-364.000000, -1565.000000)" fill="#000000">
            <g id="ic_hardware_power_line" transform="translate(300.000000, 1525.000000)">
                <g id="ic/hardware/power/line" transform="translate(64.000000, 40.000000)">
                    <g id="ic_hardware_power_line" transform="translate(4.000000, 4.000000)">
                        <path d="M18.5457161,1.9409348 C22.9982839,4.83881869 25.0155165,10.3194181 23.5041302,15.4124152 C21.9927446,20.5054103 17.3125062,23.9984756 11.9999758,23.9984756 C6.68745259,23.9984756 2.00722087,20.5053766 0.495854502,15.4123649 C-1.01551037,10.3193582 1.00174963,4.83876655 5.45433138,1.94092995 C5.91721714,1.63967387 6.53667648,1.77070062 6.83793255,2.23358638 C7.13918863,2.69647214 7.00816188,3.31593148 6.54527612,3.61718755 C2.83479133,6.03205139 1.15374133,10.5992111 2.41321206,14.8433834 C3.67268418,19.0875603 7.57287661,21.9984756 11.9999758,21.9984756 C16.427088,21.9984756 20.3272873,19.0875873 21.5867752,14.8434253 C22.8462641,10.5992597 21.1652356,6.03208984 17.4547564,3.6171827 C16.9918733,3.31592252 16.8608521,2.696462 17.1621123,2.23357893 C17.4633725,1.77069585 18.082833,1.63967461 18.5457161,1.9409348 Z M11.9990237,0.00036 C12.5118596,0.00036 12.9345309,0.38640019 12.992296,0.883738875 L12.9990237,1.00036 L12.9990237,10.50036 C12.9990237,11.0526447 12.5513085,11.50036 11.9990237,11.50036 C11.4861879,11.50036 11.0635166,11.1143198 11.0057515,10.6169811 L10.9990237,10.50036 L10.9990237,1.00036 C10.9990237,0.44807525 11.446739,0.00036 11.9990237,0.00036 Z" id="Shape"></path>
                    </g>
                </g>
            </g>
        </g>
    </g>
</svg>