<?xml version="1.0" encoding="UTF-8"?>
<svg width="32px" height="32px" viewBox="0 0 32 32" version="1.1" xmlns="http://www.w3.org/2000/svg" xmlns:xlink="http://www.w3.org/1999/xlink">
    <title>E15B2139-1A52-4549-AC3F-05A04622FD29</title>
    <g id="STDS_Icon" stroke="none" stroke-width="1" fill="none" fill-rule="evenodd">
        <g id="hardware" transform="translate(-364.000000, -1385.000000)" fill="#000000">
            <g id="ic_hardware_mouse_line" transform="translate(300.000000, 1345.000000)">
                <g id="ic/hardware/mouse/line" transform="translate(64.000000, 40.000000)">
                    <g id="ic_hardware_mouse_line" transform="translate(6.000000, 3.000000)">
                        <path d="M13,0 C16.7854517,0 19.8690987,3.00478338 19.995941,6.75935025 L20,7 L20,19 C20,22.7854517 16.9952166,25.8690987 13.2406498,25.995941 L13,26 L7,26 C3.21454828,26 0.130901317,22.9952166 0.0040590183,19.2406498 L0,19 L0,7 C0,3.21454828 3.00478338,0.130901317 6.75935025,0.0040590183 L7,0 L13,0 Z M13,2 L7,2 C4.3112453,2 2.11818189,4.12230671 2.00461951,6.78311038 L2,7 L2,19 C2,21.6887547 4.12230671,23.8818181 6.78311038,23.9953805 L7,24 L13,24 C15.6887547,24 17.8818181,21.8776933 17.9953805,19.2168896 L18,19 L18,7 C18,4.3112453 15.8776933,2.11818189 13.2168896,2.00461951 L13,2 Z M10.0000109,5 C10.5128468,5 10.9355173,5.38604224 10.9932813,5.88338105 L11,6 L11,10 C11,10.5522869 10.5522826,11 10,11 C9.48716197,11 9.0644915,10.6139578 9.00672748,10.116619 L9,10 L9,6 C9,5.44771306 9.44772619,5 10.0000109,5 Z" id="Shape"></path>
                    </g>
                </g>
            </g>
        </g>
    </g>
</svg>