<?xml version="1.0" encoding="UTF-8"?>
<svg width="32px" height="32px" viewBox="0 0 32 32" version="1.1" xmlns="http://www.w3.org/2000/svg" xmlns:xlink="http://www.w3.org/1999/xlink">
    <title>F6123C6B-E1EF-44D2-8EFC-64E3A5A07C8A</title>
    <g id="STDS_Icon" stroke="none" stroke-width="1" fill="none" fill-rule="evenodd">
        <g id="hardware" transform="translate(-364.000000, -665.000000)" fill="#000000">
            <g id="ic_hardware_desktop_smartphone_line" transform="translate(300.000000, 625.000000)">
                <g id="ic/hardware/desktop_smartphone/line" transform="translate(64.000000, 40.000000)">
                    <g id="ic_hardware_desktop_smartphone_line" transform="translate(4.000000, 5.000000)">
                        <path d="M21,0 C22.5976809,0 23.9036609,1.24891996 23.9949073,2.82372721 L24,3 L24.0009007,5.17102423 C25.1073865,5.56251032 25.9157364,6.58476477 25.9938052,7.80564227 L26,8 L26,20 C26,21.5976809 24.75108,22.9036609 23.1762728,22.9949073 L23,23 L17,23 C16.1119261,23 15.3139794,22.6141196 14.7646837,22.0008825 L1,22 C0.44771525,22 0,21.5522847 0,21 C0,20.4871642 0.38604019,20.0644928 0.883378875,20.0067277 L1,20 L14,20 L14,18 L3,18 C1.40231912,18 0.0963391206,16.75108 0.00509269341,15.1762728 L0,15 L0,3 C0,1.40231912 1.24891996,0.0963391206 2.82372721,0.00509269341 L3,0 L21,0 Z M23,7 L17,7 C16.4871642,7 16.0644928,7.38604019 16.0067277,7.88337887 L16,8 L16,20 C16,20.5128358 16.3860402,20.9355072 16.8833789,20.9932723 L17,21 L23,21 C23.5128358,21 23.9355072,20.6139598 23.9932723,20.1166211 L24,20 L24,8 C24,7.48716416 23.6139598,7.06449284 23.1166211,7.00672773 L23,7 Z M21,18 C21.5522847,18 22,18.4477153 22,19 C22,19.5128358 21.6139598,19.9355072 21.1166211,19.9932723 L21,20 L19,20 C18.4477153,20 18,19.5522847 18,19 C18,18.4871642 18.3860402,18.0644928 18.8833789,18.0067277 L19,18 L21,18 Z M21,2 L3,2 C2.48716416,2 2.06449284,2.38604019 2.00672773,2.88337887 L2,3 L2,15 C2,15.5128358 2.38604019,15.9355072 2.88337887,15.9932723 L3,16 L14,16 L14,8 C14,6.40231912 15.24892,5.09633912 16.8237272,5.00509269 L17,5 L22,5 L22,3 C22,2.48716416 21.6139598,2.06449284 21.1166211,2.00672773 L21,2 Z" id="Shape"></path>
                    </g>
                </g>
            </g>
        </g>
    </g>
</svg>