<?xml version="1.0" encoding="UTF-8"?>
<svg width="32px" height="32px" viewBox="0 0 32 32" version="1.1" xmlns="http://www.w3.org/2000/svg" xmlns:xlink="http://www.w3.org/1999/xlink">
    <title>B45FC920-CC32-4468-829D-7290522AD618</title>
    <g id="STDS_Icon" stroke="none" stroke-width="1" fill="none" fill-rule="evenodd">
        <g id="hardware" transform="translate(-364.000000, -485.000000)" fill="#000000">
            <g id="ic_hardware_smartphone_line" transform="translate(300.000000, 445.000000)">
                <g id="ic/hardware/smartphone/line" transform="translate(64.000000, 40.000000)">
                    <g id="ic_hardware_smartphone_line" transform="translate(7.000000, 2.000000)">
                        <path d="M15,0 C16.5976809,0 17.9036609,1.24891996 17.9949073,2.82372721 L18,3 L18,25 C18,26.5976809 16.75108,27.9036609 15.1762728,27.9949073 L15,28 L3,28 C1.40231912,28 0.0963391206,26.75108 0.00509269341,25.1762728 L0,25 L0,3 C0,1.40231912 1.24891996,0.0963391206 2.82372721,0.00509269341 L3,0 L15,0 Z M15,2 L3,2 C2.48716416,2 2.06449284,2.38604019 2.00672773,2.88337887 L2,3 L2,25 C2,25.5128358 2.38604019,25.9355072 2.88337887,25.9932723 L3,26 L15,26 C15.5128358,26 15.9355072,25.6139598 15.9932723,25.1166211 L16,25 L16,3 C16,2.48716416 15.6139598,2.06449284 15.1166211,2.00672773 L15,2 Z M10,21 C10.5522847,21 11,21.4477153 11,22 C11,22.5128358 10.6139598,22.9355072 10.1166211,22.9932723 L10,23 L8,23 C7.44771525,23 7,22.5522847 7,22 C7,21.4871642 7.38604019,21.0644928 7.88337887,21.0067277 L8,21 L10,21 Z" id="Shape"></path>
                    </g>
                </g>
            </g>
        </g>
    </g>
</svg>