<?xml version="1.0" encoding="UTF-8"?>
<svg width="32px" height="32px" viewBox="0 0 32 32" version="1.1" xmlns="http://www.w3.org/2000/svg" xmlns:xlink="http://www.w3.org/1999/xlink">
    <title>8C647046-C462-472E-8DC2-60B3AA99F16D</title>
    <g id="STDS_Icon" stroke="none" stroke-width="1" fill="none" fill-rule="evenodd">
        <g id="logo" transform="translate(-364.000000, -665.000000)" fill="#000000">
            <g id="ic_logo_facebook_line" transform="translate(300.000000, 625.000000)">
                <g id="ic/logo/facebook/line" transform="translate(64.000000, 40.000000)">
                    <g id="ic_logo_facebook_line" transform="translate(8.000000, 3.000000)">
                        <path d="M10.2118214,0.00345265906 C6.30809722,0.111485083 3.71428571,2.74764146 3.71428571,6.91194969 L3.714,9.2 L0,9.2 L0,16.2 L3.714,16.2 L3.71428571,26 L10.6666667,26 L10.666,16.2 L13.5444872,16.2 L15.2778206,9.2 L10.666,9.2 L10.6683938,7.61325109 L10.6759235,7.35199256 C10.7107388,6.63044821 10.8714419,6.45385217 11.5860116,6.41361974 L11.8453021,6.40469896 C11.8921318,6.40386709 11.9408178,6.40331598 11.9914333,6.40297557 L15,6.40251572 L15,0.301169229 L14.1328204,0.184960505 L13.8406744,0.151421954 L13.4725477,0.118457281 L12.8089319,0.0727143908 L12.3129293,0.0464406097 L11.7906064,0.024945664 L11.2561521,0.00943097019 L10.723755,0.00109794459 C10.6359819,0.0003743247 10.5488856,0 10.4627619,0 L10.2118214,0.00345265906 Z M10.4627619,2 L10.707904,2.00103695 C11.0790477,2.00410945 11.4636285,2.01383609 11.8346447,2.02788606 L12.5505904,2.06105987 L13,2.088 L13,4.402 L12.1428571,4.40251572 C9.4113559,4.40251572 8.66666667,5.52603453 8.66666667,7.91823899 L8.66666667,11.2 L12.722,11.2 L11.979,14.2 L8.66666667,14.2 L8.666,24 L5.714,24 L5.71428571,14.2 L2,14.2 L2,11.2 L5.71428571,11.2 L5.71428571,6.91194969 C5.71428571,3.77141388 7.51655832,2 10.4627619,2 Z" id="Path"></path>
                    </g>
                </g>
            </g>
        </g>
    </g>
</svg>