<?xml version="1.0" encoding="UTF-8"?>
<svg width="32px" height="32px" viewBox="0 0 32 32" version="1.1" xmlns="http://www.w3.org/2000/svg" xmlns:xlink="http://www.w3.org/1999/xlink">
    <title>D71EC7B6-73DA-4EB7-9859-4F0EC90D1618</title>
    <g id="STDS_Icon" stroke="none" stroke-width="1" fill="none" fill-rule="evenodd">
        <g id="logo" transform="translate(-364.000000, -1205.000000)" fill="#000000">
            <g id="ic_logo_google_line" transform="translate(300.000000, 1165.000000)">
                <g id="ic/logo/google/line" transform="translate(64.000000, 40.000000)">
                    <g id="ic_logo_google_line" transform="translate(4.000000, 4.000000)">
                        <path d="M5.33315629,2.0223657 C10.0050798,-1.0993144 16.2027528,-0.55522758 20.2580481,3.29334752 L20.4852805,3.51471814 L19.071067,4.92893186 C15.697642,1.55550758 10.4110244,1.03482172 6.44429691,3.68530482 C2.47756942,6.33578792 0.935520369,11.4192439 2.76120496,15.8268354 C4.58688955,20.234427 9.27182943,22.7385792 13.9509038,21.8078531 C18.2629918,20.9501252 21.4633165,17.3953467 21.9388025,13.1090558 L21.949,12.999 L12,13 L12,11 L23,11 C23.5522847,11 24,11.4477153 24,12 C24,17.7248915 19.9559737,22.6525524 14.3410845,23.7694237 C8.72619532,24.8862949 3.10426746,21.8813123 0.91344595,16.5922024 C-1.27737556,11.3030926 0.573083298,5.20294542 5.33315629,2.0223657 Z" id="Path"></path>
                    </g>
                </g>
            </g>
        </g>
    </g>
</svg>