<?xml version="1.0" encoding="UTF-8"?>
<svg width="32px" height="32px" viewBox="0 0 32 32" version="1.1" xmlns="http://www.w3.org/2000/svg" xmlns:xlink="http://www.w3.org/1999/xlink">
    <title>9406D317-5ADF-4EFD-A598-36C9783F9779</title>
    <g id="STDS_Icon" stroke="none" stroke-width="1" fill="none" fill-rule="evenodd">
        <g id="logo" transform="translate(-364.000000, -845.000000)" fill="#000000">
            <g id="ic_logo_twitter_line" transform="translate(300.000000, 805.000000)">
                <g id="ic/logo/twitter/line" transform="translate(64.000000, 40.000000)">
                    <g id="ic_logo_twitter_line" transform="translate(3.000000, 5.000000)">
                        <path d="M23.407448,1.92476258 L23.6546264,1.92755516 L24.023177,1.93902688 L24.2740128,1.94252004 C24.9534249,1.94053884 25.7330939,1.82622029 27,1.07235736 L26.8640819,1.71786055 L26.7366037,2.29288165 C26.4228145,3.65154165 26.1246559,4.45304307 25.3659205,5.47446867 C25.3659205,15.5738186 19.0436213,20.4847299 12.6284461,21.741532 C8.22962261,22.6031882 1.83329179,21.187799 0,19.3085429 L0.361629593,19.2764145 L0.868178075,19.2194593 L1.27316257,19.1651865 L1.72271798,19.0961146 L2.20890932,19.0107376 C3.71450222,18.728643 5.6075577,18.2060988 6.92397428,17.2601272 L6.21893225,16.8035777 L5.82692941,16.5350946 L5.39979076,16.2231698 L5.17597154,16.0502351 L4.94687961,15.8656222 L4.71368537,15.6690583 L4.47755926,15.4602708 C4.4380256,15.4244392 4.39841855,15.3880868 4.3587625,15.3512081 L4.12043308,15.1235741 L3.88209781,14.8830351 L3.64492711,14.6293183 L3.41009139,14.3621511 C3.29345234,14.2251595 3.17812781,14.0830218 3.06477617,13.9355846 L2.84089845,13.6335989 C0.963613341,11.0058869 -0.216665836,6.81708398 2.53457301,0.313782793 C4.81340047,2.92650391 7.12453263,4.70532163 9.46662346,5.64891439 L9.92149931,5.82671766 C10.1311443,5.90584181 10.3154198,5.97095636 10.4802655,6.02501618 L10.7858104,6.11927168 L11.0501019,6.18930098 L11.2836995,6.24035719 L11.4971626,6.27769338 L12.1223391,6.35991285 C12.16903,3.75404276 13.8019593,1.43131592 16.2653023,0.463603648 C18.7286453,-0.504108622 21.542774,0.0716132086 23.407448,1.92476258 Z M21.9976251,3.34335317 C20.6968686,2.05063601 18.723142,1.64684584 16.9965877,2.32511425 C15.350688,2.9716979 14.2453034,4.47682839 14.1310987,6.18164748 L14.1220181,6.39574226 L14.0817612,8.64252665 L11.6733946,8.31868102 L11.4207293,8.28692741 C10.7341638,8.19640428 10.1390101,8.04638523 9.24127856,7.70802784 L8.71923098,7.50401667 C6.94486823,6.78915292 5.21648757,5.67583773 3.52886109,4.1732034 L3.358,4.019 L3.32080765,4.16216568 C2.25878872,8.31117034 3.15244737,11.2666624 5.34866424,13.5228409 L5.52016214,13.6950221 L5.78405196,13.9488835 L6.02932943,14.1721556 C6.06955133,14.2075246 6.10966773,14.2421485 6.15001363,14.2762921 L6.39752314,14.4775087 L6.66662104,14.6799071 L6.97338764,14.8961959 L7.33390322,15.1390834 L8.01063158,15.581087 L10.4714868,17.1737269 L8.09108135,18.8842766 C7.71165257,19.1569325 7.2986054,19.4033543 6.85510265,19.626082 L6.608,19.744 L6.89173947,19.7867888 C8.62446268,20.0296296 10.4660456,20.0794005 11.9802152,19.8266147 L12.243934,19.7788424 C18.8021767,18.4940119 23.2215963,13.6802523 23.3624522,5.8614218 L23.3659205,5.47446867 L23.3659205,4.81292144 L23.7604043,4.28185904 L23.8756487,4.12349577 L24.002,3.937 L23.4977444,3.92489179 L22.5883886,3.93046545 L21.9976251,3.34335317 Z" id="Path"></path>
                    </g>
                </g>
            </g>
        </g>
    </g>
</svg>