<?xml version="1.0" encoding="UTF-8"?>
<svg width="32px" height="32px" viewBox="0 0 32 32" version="1.1" xmlns="http://www.w3.org/2000/svg" xmlns:xlink="http://www.w3.org/1999/xlink">
    <title>6C329F2D-99E2-4C22-BCCA-8788C3B94961</title>
    <g id="STDS_Icon" stroke="none" stroke-width="1" fill="none" fill-rule="evenodd">
        <g id="logo" transform="translate(-364.000000, -1025.000000)" fill="#000000">
            <g id="ic_logo_google_playstore_line" transform="translate(300.000000, 985.000000)">
                <g id="ic/logo/google_playstore/line" transform="translate(64.000000, 40.000000)">
                    <g id="ic_logo_google_playstore_line" transform="translate(3.000000, 2.000000)">
                        <path d="M2.15640031,0.175291065 C2.6903396,-0.065274167 3.30432859,-0.0594853851 3.84121283,0.19480826 L3.9998078,0.27855365 L24.0796441,12.3476065 C24.6359307,12.7087982 24.976675,13.3292753 24.976675,14 C24.976675,14.6707247 24.6359307,15.2912018 24.1136573,15.6330843 L3.98935416,27.7276484 C3.37593771,28.0862707 2.61840653,28.0929333 1.99877717,27.7451559 C1.42681161,27.4241306 1.051442,26.8454899 0.986403559,26.1847707 L0.976675,26.0179825 L0.976675,1.96317388 C0.989201755,1.30739264 1.3215376,0.703001514 1.85994735,0.340362257 L1.99877717,0.254849104 L2.15640031,0.175291065 Z M2.976675,3.39035626 L2.976675,24.6083563 L13.585675,13.9993563 L2.976675,3.39035626 Z M14.999675,15.4133563 L6.573675,23.8393563 L17.098675,17.5133563 L14.999675,15.4133563 Z M18.866675,11.5463563 L16.413675,13.9993563 L18.865675,16.4523563 L22.947,14 L18.866675,11.5463563 Z M6.566675,4.15235626 L14.999675,12.5853563 L17.100675,10.4843563 L6.566675,4.15235626 Z" id="Shape"></path>
                    </g>
                </g>
            </g>
        </g>
    </g>
</svg>