<?xml version="1.0" encoding="UTF-8"?>
<svg width="32px" height="32px" viewBox="0 0 32 32" version="1.1" xmlns="http://www.w3.org/2000/svg" xmlns:xlink="http://www.w3.org/1999/xlink">
    <title>F65D6DD6-D95C-4A54-8C0C-6672835D731F</title>
    <g id="STDS_Icon" stroke="none" stroke-width="1" fill="none" fill-rule="evenodd">
        <g id="logo" transform="translate(-364.000000, -485.000000)" fill="#000000">
            <g id="ic_logo_apple_line" transform="translate(300.000000, 445.000000)">
                <g id="ic/logo/apple/line" transform="translate(64.000000, 40.000000)">
                    <g id="ic_logo_apple_line" transform="translate(5.000000, 2.000000)">
                        <path d="M16.3591548,6.5151771 L16.6635705,6.54074853 C16.7022039,6.54469122 16.7423491,6.54907091 16.7839145,6.55395744 L17.0496177,6.58991762 L17.3450156,6.64139514 L17.6657179,6.71174299 C18.7720207,6.9814119 20.2268846,7.62146943 21.2985477,9.19074754 L21.142066,9.2866755 L20.9047498,9.45053391 C20.873748,9.4731599 20.841356,9.49726516 20.8077277,9.52285579 L20.5923565,9.69427288 C19.7193543,10.4200731 18.3554596,11.9380919 18.37583,14.3225794 C18.4036315,16.918628 19.8359718,18.4152003 20.8914846,19.1665034 L21.1275645,19.3268127 L21.3454009,19.46163 L21.6273072,19.6181747 L21.8939245,19.7467077 L22,19.7906851 L21.9083083,20.0796072 L21.8050352,20.3728032 L21.6610329,20.7486117 L21.5414987,21.0389191 L21.4025045,21.3567521 L21.2435071,21.6984341 C21.2153105,21.7571643 21.1862577,21.816735 21.1563375,21.8770696 L20.9663169,22.2476318 C20.9328818,22.3107158 20.8985567,22.3744106 20.8633302,22.4386394 L20.6410641,22.8298099 C20.5244323,23.0279872 20.3994845,23.2295933 20.2659152,23.4325601 L19.8582381,24.0313179 L19.5834016,24.4212749 C18.6128975,25.7708628 17.5405173,26.9302182 15.9938151,26.9547808 C15.2476625,26.9728416 14.7096397,26.7950672 14.1910016,26.5796714 L13.5200049,26.2944581 C12.9833147,26.0758751 12.3851184,25.8874768 11.5366706,25.8874768 C10.560139,25.8874768 9.90075774,26.1173592 9.29810561,26.3683824 L8.85268414,26.5573522 C8.33594075,26.774831 7.81278439,26.9685414 7.10875327,26.9986426 C5.80589565,27.0413798 4.73715809,26.0691097 3.8112938,24.9034476 L3.52355843,24.5298735 L3.244683,24.1491922 L2.84158542,23.5774214 C0.51802484,20.2146826 -1.25021937,14.1032703 1.13179556,9.96563953 C2.31549623,7.90413443 4.41985298,6.60290072 6.71418638,6.57365951 C7.47500634,6.55446997 8.2190435,6.77594927 8.90469052,7.03118517 L10.0151235,7.46319259 C10.4475016,7.62480095 10.8379584,7.74330779 11.1713309,7.74330779 C11.4719533,7.74330779 11.8405736,7.62873 12.2662849,7.46913951 L13.1905971,7.11055346 C14.1017365,6.7646225 15.1803253,6.42327616 16.3591548,6.5151771 Z M14.1392227,8.89200408 L12.8052743,9.40128664 C12.7662158,9.41566556 12.7324727,9.42786192 12.7057973,9.43717917 C12.137131,9.63580487 11.6751956,9.74330779 11.1713309,9.74330779 C10.6696649,9.74330779 10.196721,9.64078665 9.64727984,9.45528092 L9.36741919,9.3561482 L8.5058148,9.02007049 C7.66608607,8.69105834 7.17650272,8.56263494 6.73967425,8.5734971 C5.1794253,8.59338242 3.71128756,9.48976729 2.86508709,10.9634875 C1.19388973,13.866407 2.09554264,18.9794895 4.48305544,22.4348033 L4.79970688,22.882024 L5.09357738,23.2812198 L5.36577599,23.6340664 L5.61741175,23.9422396 C6.26200912,24.7059598 6.69909919,25.0110376 7.02332021,25.0004682 C7.31968424,24.987797 7.54519217,24.9309637 7.96272515,24.7611257 L8.33213359,24.6053004 C9.50770587,24.1041272 10.3135235,23.8874768 11.5366706,23.8874768 C12.6028844,23.8874768 13.3431505,24.0628127 14.3148965,24.4595987 L14.8195556,24.6740413 C15.3561145,24.9040307 15.5861636,24.9640623 15.9620578,24.955033 C16.3674401,24.9485952 16.7640915,24.7120276 17.330418,24.0532088 L17.5510923,23.7859835 C17.5893131,23.7380221 17.6282838,23.6883174 17.668048,23.6368226 L17.916503,23.3059968 L18.1860917,22.9299565 L18.4789049,22.5064501 C18.8060617,22.0283512 19.0959371,21.5278153 19.3487349,21.0210508 L19.528,20.646 L19.443543,20.5825709 C19.3007477,20.4709058 19.1580534,20.3522105 19.0172662,20.2268233 L18.8077413,20.033766 C17.3193268,18.6145349 16.401242,16.7062083 16.375903,14.3396646 C16.3596369,12.4356131 16.9929649,10.7929187 18.0592173,9.44250342 L18.2518294,9.20723519 L18.35,9.095 L18.2414069,9.03332906 C17.7088092,8.74993317 17.1150036,8.59708044 16.4686404,8.53127413 L16.2037075,8.50912698 C15.6092602,8.46278417 14.9982167,8.5828096 14.1392227,8.89200408 Z M15.9731676,0 C16.1334623,1.51860954 15.5590729,3.05128028 14.6908099,4.14805384 C13.8225469,5.24482739 12.4066103,6.10256056 11.0307474,5.99007096 C10.8437369,4.49958382 11.5383473,2.93879068 12.3398208,1.96856792 C13.2347996,0.871794366 14.7308836,0.0562447978 15.9731676,0 Z" id="Combined-Shape"></path>
                    </g>
                </g>
            </g>
        </g>
    </g>
</svg>