<?xml version="1.0" encoding="UTF-8"?>
<svg width="32px" height="32px" viewBox="0 0 32 32" version="1.1" xmlns="http://www.w3.org/2000/svg" xmlns:xlink="http://www.w3.org/1999/xlink">
    <title>28154777-918F-4C2A-98EB-9EB59DF09C24</title>
    <g id="STDS_Icon" stroke="none" stroke-width="1" fill="none" fill-rule="evenodd">
        <g id="communication" transform="translate(-364.000000, -305.000000)" fill="#000000">
            <g id="ic_communication_emoji_line" transform="translate(300.000000, 265.000000)">
                <g id="ic/communication/emoji/line" transform="translate(64.000000, 40.000000)">
                    <g id="ic_communication_emoji_line" transform="translate(2.000000, 2.000000)">
                        <path d="M14,0 C21.7319865,0 28,6.2680135 28,14 C28,21.7319865 21.7319865,28 14,28 C6.2680135,28 0,21.7319865 0,14 C0,6.2680135 6.2680135,0 14,0 Z M14,2 C7.372583,2 2,7.372583 2,14 C2,20.627417 7.372583,26 14,26 C20.627417,26 26,20.627417 26,14 C26,7.372583 20.627417,2 14,2 Z M18.6,16.2 C19.0418278,16.5313708 19.1313708,17.1581722 18.8,17.6 C18.5571182,17.9238424 18.1309689,18.36852 17.5256717,18.8087361 C16.5068925,19.5496664 15.3247669,20 14,20 C12.6752331,20 11.4931075,19.5496664 10.4743283,18.8087361 C9.86903113,18.36852 9.44288179,17.9238424 9.2,17.6 C8.86862915,17.1581722 8.9581722,16.5313708 9.4,16.2 C9.8418278,15.8686292 10.4686292,15.9581722 10.8,16.4 C10.9321182,16.5761576 11.2247189,16.88148 11.6506717,17.1912639 C12.3506425,17.7003336 13.1372669,18 14,18 C14.8627331,18 15.6493575,17.7003336 16.3493283,17.1912639 C16.6687929,16.958926 16.9132469,16.7290977 17.0712448,16.5543881 L17.2,16.4 C17.5313708,15.9581722 18.1581722,15.8686292 18.6,16.2 Z M10.5,10 C11.3284271,10 12,10.6715729 12,11.5 C12,12.3284271 11.3284271,13 10.5,13 C9.67157288,13 9,12.3284271 9,11.5 C9,10.6715729 9.67157288,10 10.5,10 Z M17.5,10 C18.3284271,10 19,10.6715729 19,11.5 C19,12.3284271 18.3284271,13 17.5,13 C16.6715729,13 16,12.3284271 16,11.5 C16,10.6715729 16.6715729,10 17.5,10 Z" id="Shape"></path>
                    </g>
                </g>
            </g>
        </g>
    </g>
</svg>