<?xml version="1.0" encoding="UTF-8"?>
<svg width="32px" height="32px" viewBox="0 0 32 32" version="1.1" xmlns="http://www.w3.org/2000/svg" xmlns:xlink="http://www.w3.org/1999/xlink">
    <title>4091B564-3AF3-4C9F-9786-2F6A5AEF28B5</title>
    <g id="STDS_Icon" stroke="none" stroke-width="1" fill="none" fill-rule="evenodd">
        <g id="control" transform="translate(-364.000000, -665.000000)" fill="#000000">
            <g id="ic_control_close_line" transform="translate(300.000000, 625.000000)">
                <g id="ic/control/close/line" transform="translate(64.000000, 40.000000)">
                    <g id="ic_control_close_line" transform="translate(4.000000, 4.000000)">
                        <path d="M0.292893219,0.292893219 C0.65337718,-0.0675907428 1.22060824,-0.0953202783 1.61289944,0.209704612 L1.70710678,0.292893219 L12,10.585 L22.2928932,0.292893219 C22.6834175,-0.0976310729 23.3165825,-0.0976310729 23.7071068,0.292893219 C24.0675907,0.65337718 24.0953203,1.22060824 23.7902954,1.61289944 L23.7071068,1.70710678 L13.415,12 L23.7071068,22.2928932 L23.7902954,22.3871006 C24.0953203,22.7793918 24.0675907,23.3466228 23.7071068,23.7071068 C23.3466228,24.0675907 22.7793918,24.0953203 22.3871006,23.7902954 L22.2928932,23.7071068 L12,13.415 L1.70710678,23.7071068 C1.31658249,24.0976311 0.683417511,24.0976311 0.292893219,23.7071068 C-0.0675907428,23.3466228 -0.0953202783,22.7793918 0.209704612,22.3871006 L0.292893219,22.2928932 L10.585,12 L0.292893219,1.70710678 L0.209704612,1.61289944 C-0.0953202783,1.22060824 -0.0675907428,0.65337718 0.292893219,0.292893219 Z" id="Path"></path>
                    </g>
                </g>
            </g>
        </g>
    </g>
</svg>