<?xml version="1.0" encoding="UTF-8"?>
<svg width="32px" height="32px" viewBox="0 0 32 32" version="1.1" xmlns="http://www.w3.org/2000/svg" xmlns:xlink="http://www.w3.org/1999/xlink">
    <title>25B9EBF4-CAB9-4B12-BBD3-21CB45972733</title>
    <g id="STDS_Icon" stroke="none" stroke-width="1" fill="none" fill-rule="evenodd">
        <g id="control" transform="translate(-364.000000, -6605.000000)" fill="#000000">
            <g id="ic_control_undo_line" transform="translate(300.000000, 6565.000000)">
                <g id="ic/control/undo/line" transform="translate(64.000000, 40.000000)">
                    <g id="ic_control_undo_line" transform="translate(4.000000, 3.000000)">
                        <path d="M7.70710678,12.2928932 C8.06759074,12.6533772 8.09532028,13.2206082 7.79029539,13.6128994 L7.70710678,13.7071068 C7.34662282,14.0675907 6.77939176,14.0953203 6.38710056,13.7902954 L6.29289322,13.7071068 L0.292893219,7.70710678 C-0.0675907428,7.34662282 -0.0953202783,6.77939176 0.209704612,6.38710056 L0.292893219,6.29289322 L6.29289322,0.292893219 C6.68341751,-0.0976310729 7.31658249,-0.0976310729 7.70710678,0.292893219 C8.06759074,0.65337718 8.09532028,1.22060824 7.79029539,1.61289944 L7.70710678,1.70710678 L3.415,6 L15.0869721,6 C17.4531626,6 19.7217567,6.95000827 21.3932883,8.63990842 C23.062731,10.3276966 24,12.6153352 24,15 C24,19.8794145 20.1531142,23.8557061 15.3498821,23.9961606 L15.0869565,24 L7,24 C6.44771525,24 6,23.5522847 6,23 C6,22.4871642 6.38604019,22.0644928 6.88337887,22.0067277 L7,22 L15.0869565,22 C18.9024638,22 22,18.8684249 22,15 C22,13.1411811 21.2698892,11.3591636 19.9713681,10.046373 C18.7469627,8.80851266 17.1118953,8.08351877 15.391408,8.00678445 L15.0869721,8 L3.415,8 L7.70710678,12.2928932 Z" id="Combined-Shape"></path>
                    </g>
                </g>
            </g>
        </g>
    </g>
</svg>