<?xml version="1.0" encoding="UTF-8"?>
<svg width="32px" height="32px" viewBox="0 0 32 32" version="1.1" xmlns="http://www.w3.org/2000/svg" xmlns:xlink="http://www.w3.org/1999/xlink">
    <title>8533C297-4514-4216-AE56-714D8BFBA488</title>
    <g id="STDS_Icon" stroke="none" stroke-width="1" fill="none" fill-rule="evenodd">
        <g id="control" transform="translate(-364.000000, -1745.000000)" fill="#000000">
            <g id="ic_control_long_arrow_up_line" transform="translate(300.000000, 1705.000000)">
                <g id="ic/control/long_arrow_up/line" transform="translate(64.000000, 40.000000)">
                    <g id="ic_control_long_arrow_up_line" transform="translate(6.000000, 4.000000)">
                        <path d="M9.85153313,0.0110178009 L9.90996805,0.00399798209 L9.90996805,0.00399798209 L10,0 L10.0752385,0.00278786299 L10.0752385,0.00278786299 L10.2007258,0.020240071 L10.2007258,0.020240071 L10.3121425,0.0497380859 L10.3121425,0.0497380859 L10.4232215,0.0936733617 L10.4232215,0.0936733617 L10.5207088,0.145995454 L10.5207088,0.145995454 L10.625449,0.219688767 L10.625449,0.219688767 L10.7071068,0.292893219 L19.7071068,9.29289322 C20.0976311,9.68341751 20.0976311,10.3165825 19.7071068,10.7071068 C19.3466228,11.0675907 18.7793918,11.0953203 18.3871006,10.7902954 L18.2928932,10.7071068 L11,3.414 L11,23 C11,23.5522847 10.5522847,24 10,24 C9.48716416,24 9.06449284,23.6139598 9.00672773,23.1166211 L9,23 L9,3.414 L1.70710678,10.7071068 C1.34662282,11.0675907 0.779391764,11.0953203 0.387100557,10.7902954 L0.292893219,10.7071068 C-0.0675907428,10.3466228 -0.0953202783,9.77939176 0.209704612,9.38710056 L0.292893219,9.29289322 L9.29289322,0.292893219 C9.32828727,0.257499166 9.36567442,0.225312953 9.40469339,0.196334578 L9.5159379,0.124671174 L9.5159379,0.124671174 L9.62866398,0.0712254916 L9.62866398,0.0712254916 L9.73400703,0.0358451423 L9.73400703,0.0358451423 L9.85153313,0.0110178009 L9.85153313,0.0110178009 Z" id="Path"></path>
                    </g>
                </g>
            </g>
        </g>
    </g>
</svg>