<?xml version="1.0" encoding="UTF-8"?>
<svg width="32px" height="32px" viewBox="0 0 32 32" version="1.1" xmlns="http://www.w3.org/2000/svg" xmlns:xlink="http://www.w3.org/1999/xlink">
    <title>42E01E6C-49E6-40C7-9ADE-34F6FF213ECD</title>
    <g id="STDS_Icon" stroke="none" stroke-width="1" fill="none" fill-rule="evenodd">
        <g id="control" transform="translate(-364.000000, -3185.000000)" fill="#000000">
            <g id="ic_control_arrow_left_line" transform="translate(300.000000, 3145.000000)">
                <g id="ic/control/arrow_left_circle/line" transform="translate(64.000000, 40.000000)">
                    <g id="ic_control_arrow_left_circle_line" transform="translate(2.000000, 2.000000)">
                        <path d="M14,0 C21.7319865,0 28,6.2680135 28,14 C28,21.7319865 21.7319865,28 14,28 C6.2680135,28 0,21.7319865 0,14 C0,6.2680135 6.2680135,0 14,0 Z M14,2 C7.372583,2 2,7.372583 2,14 C2,20.627417 7.372583,26 14,26 C20.627417,26 26,20.627417 26,14 C26,7.372583 20.627417,2 14,2 Z M16.7071068,7.29289322 C17.0675907,7.65337718 17.0953203,8.22060824 16.7902954,8.61289944 L16.7071068,8.70710678 L11.415,14 L16.7071068,19.2928932 C17.0675907,19.6533772 17.0953203,20.2206082 16.7902954,20.6128994 L16.7071068,20.7071068 C16.3466228,21.0675907 15.7793918,21.0953203 15.3871006,20.7902954 L15.2928932,20.7071068 L9.29289322,14.7071068 C8.93240926,14.3466228 8.90467972,13.7793918 9.20970461,13.3871006 L9.29289322,13.2928932 L15.2928932,7.29289322 C15.6834175,6.90236893 16.3165825,6.90236893 16.7071068,7.29289322 Z" id="Shape"></path>
                    </g>
                </g>
            </g>
        </g>
    </g>
</svg>