<?xml version="1.0" encoding="UTF-8"?>
<svg width="32px" height="32px" viewBox="0 0 32 32" version="1.1" xmlns="http://www.w3.org/2000/svg" xmlns:xlink="http://www.w3.org/1999/xlink">
    <title>DA1C6754-B2EC-45AB-88F9-F578830FB59E</title>
    <g id="STDS_Icon" stroke="none" stroke-width="1" fill="none" fill-rule="evenodd">
        <g id="control" transform="translate(-364.000000, -6785.000000)" fill="#000000">
            <g id="ic_control_redo_line" transform="translate(300.000000, 6745.000000)">
                <g id="ic/control/redo/line" transform="translate(64.000000, 40.000000)">
                    <g id="ic_control_redo_line" transform="translate(4.000000, 3.000000)">
                        <path d="M17.6128994,0.209704612 L17.7071068,0.292893219 L23.7071068,6.29289322 C24.0675907,6.65337718 24.0953203,7.22060824 23.7902954,7.61289944 L23.7071068,7.70710678 L17.7071068,13.7071068 C17.3165825,14.0976311 16.6834175,14.0976311 16.2928932,13.7071068 C15.9324093,13.3466228 15.9046797,12.7793918 16.2097046,12.3871006 L16.2928932,12.2928932 L20.585,8 L8.91302793,8 C7.08188656,8 5.32506117,8.73569734 4.02863195,10.046373 C2.73011082,11.3591636 2,13.1411811 2,15 C2,18.7878327 4.96981663,21.8691979 8.67553065,21.9959441 L8.91304348,22 L17,22 C17.5522847,22 18,22.4477153 18,23 C18,23.5128358 17.6139598,23.9355072 17.1166211,23.9932723 L17,24 L8.91304348,24 C3.98804426,24 0,19.9681311 0,15 C0,12.6153352 0.937268992,10.3276966 2.60671167,8.63990842 C4.20556805,7.02348219 6.35069704,6.08400808 8.60498892,6.0053703 L8.91302793,6 L20.585,6 L16.2928932,1.70710678 C15.9324093,1.34662282 15.9046797,0.779391764 16.2097046,0.387100557 L16.2928932,0.292893219 C16.6533772,-0.0675907428 17.2206082,-0.0953202783 17.6128994,0.209704612 Z" id="Path"></path>
                    </g>
                </g>
            </g>
        </g>
    </g>
</svg>