<?xml version="1.0" encoding="UTF-8"?>
<svg width="32px" height="32px" viewBox="0 0 32 32" version="1.1" xmlns="http://www.w3.org/2000/svg" xmlns:xlink="http://www.w3.org/1999/xlink">
    <title>EA55CD58-D128-4434-B743-6E040E4F0AA2</title>
    <g id="STDS_Icon" stroke="none" stroke-width="1" fill="none" fill-rule="evenodd">
        <g id="control" transform="translate(-364.000000, -4445.000000)" fill="#000000">
            <g id="ic_control_enlarge_line" transform="translate(300.000000, 4405.000000)">
                <g id="ic/control/enlarge/line" transform="translate(64.000000, 40.000000)">
                    <g id="ic_control_enlarge_line" transform="translate(2.000000, 2.000000)">
                        <path d="M12,0 C18.627,0 24,5.373 24,12 C24,14.9547994 22.9318336,17.6603003 21.1606119,19.7513918 L21.2071068,19.7928932 L25.7071068,24.2928932 C26.0976311,24.6834175 26.0976311,25.3165825 25.7071068,25.7071068 C25.3466228,26.0675907 24.7793918,26.0953203 24.3871006,25.7902954 L24.2928932,25.7071068 L19.7928932,21.2071068 L19.7513918,21.1606119 C17.6603003,22.9318336 14.9547994,24 12,24 C5.373,24 0,18.627 0,12 C0,5.373 5.373,0 12,0 Z M12,2 C6.4775695,2 2,6.4775695 2,12 C2,17.5224305 6.4775695,22 12,22 C17.5224305,22 22,17.5224305 22,12 C22,6.4775695 17.5224305,2 12,2 Z M12,7 C12.5128358,7 12.9355072,7.38604019 12.9932723,7.88337887 L13,8 L13,11 L16,11 C16.5522847,11 17,11.4477153 17,12 C17,12.5128358 16.6139598,12.9355072 16.1166211,12.9932723 L16,13 L13,13 L13,16 C13,16.5522847 12.5522847,17 12,17 C11.4871642,17 11.0644928,16.6139598 11.0067277,16.1166211 L11,16 L11,13 L8,13 C7.44771525,13 7,12.5522847 7,12 C7,11.4871642 7.38604019,11.0644928 7.88337887,11.0067277 L8,11 L11,11 L11,8 C11,7.44771525 11.4477153,7 12,7 Z" id="Shape"></path>
                    </g>
                </g>
            </g>
        </g>
    </g>
</svg>