<?xml version="1.0" encoding="UTF-8"?>
<svg width="32px" height="32px" viewBox="0 0 32 32" version="1.1" xmlns="http://www.w3.org/2000/svg" xmlns:xlink="http://www.w3.org/1999/xlink">
    <title>3EB78D12-1049-47EE-9FAA-C1E80B035DC2</title>
    <g id="STDS_Icon" stroke="none" stroke-width="1" fill="none" fill-rule="evenodd">
        <g id="control" transform="translate(-364.000000, -3005.000000)" fill="#000000">
            <g id="ic_control_double_arrow_right_line" transform="translate(300.000000, 2965.000000)">
                <g id="ic/control/double_arrow_right/line" transform="translate(64.000000, 40.000000)">
                    <g id="ic_control_double_arrow_right_line" transform="translate(6.000000, 5.000000)">
                        <path d="M11.6128994,0.209704612 L11.7071068,0.292893219 L21.7071068,10.2928932 C22.0675907,10.6533772 22.0953203,11.2206082 21.7902954,11.6128994 L21.7071068,11.7071068 L11.7071068,21.7071068 C11.3165825,22.0976311 10.6834175,22.0976311 10.2928932,21.7071068 C9.93240926,21.3466228 9.90467972,20.7793918 10.2097046,20.3871006 L10.2928932,20.2928932 L19.585,11 L10.2928932,1.70710678 C9.93240926,1.34662282 9.90467972,0.779391764 10.2097046,0.387100557 L10.2928932,0.292893219 C10.6533772,-0.0675907428 11.2206082,-0.0953202783 11.6128994,0.209704612 Z M1.61289944,0.209704612 L1.70710678,0.292893219 L11.7071068,10.2928932 C12.0675907,10.6533772 12.0953203,11.2206082 11.7902954,11.6128994 L11.7071068,11.7071068 L1.70710678,21.7071068 C1.31658249,22.0976311 0.683417511,22.0976311 0.292893219,21.7071068 C-0.0675907428,21.3466228 -0.0953202783,20.7793918 0.209704612,20.3871006 L0.292893219,20.2928932 L9.585,11 L0.292893219,1.70710678 C-0.0675907428,1.34662282 -0.0953202783,0.779391764 0.209704612,0.387100557 L0.292893219,0.292893219 C0.65337718,-0.0675907428 1.22060824,-0.0953202783 1.61289944,0.209704612 Z" id="Shape"></path>
                    </g>
                </g>
            </g>
        </g>
    </g>
</svg>