<?xml version="1.0" encoding="UTF-8"?>
<svg width="32px" height="32px" viewBox="0 0 32 32" version="1.1" xmlns="http://www.w3.org/2000/svg" xmlns:xlink="http://www.w3.org/1999/xlink">
    <title>29A06A9C-EBBB-4A0F-A232-C5B42EBBF5DE</title>
    <g id="STDS_Icon" stroke="none" stroke-width="1" fill="none" fill-rule="evenodd">
        <g id="control" transform="translate(-364.000000, -1025.000000)" fill="#000000">
            <g id="ic_control_add_line" transform="translate(300.000000, 985.000000)">
                <g id="ic/control/add/line" transform="translate(64.000000, 40.000000)">
                    <g id="ic_control_add_line" transform="translate(2.000000, 2.000000)">
                        <path d="M14,0 C14.5128358,0 14.9355072,0.38604019 14.9932723,0.883378875 L15,1 L15,13 L27,13 C27.5522847,13 28,13.4477153 28,14 C28,14.5128358 27.6139598,14.9355072 27.1166211,14.9932723 L27,15 L15,15 L15,27 C15,27.5522847 14.5522847,28 14,28 C13.4871642,28 13.0644928,27.6139598 13.0067277,27.1166211 L13,27 L13,15 L1,15 C0.44771525,15 0,14.5522847 0,14 C0,13.4871642 0.38604019,13.0644928 0.883378875,13.0067277 L1,13 L13,13 L13,1 C13,0.44771525 13.4477153,0 14,0 Z" id="Path"></path>
                    </g>
                </g>
            </g>
        </g>
    </g>
</svg>