<?xml version="1.0" encoding="UTF-8"?>
<svg width="32px" height="32px" viewBox="0 0 32 32" version="1.1" xmlns="http://www.w3.org/2000/svg" xmlns:xlink="http://www.w3.org/1999/xlink">
    <title>EE4273A1-23A5-445F-AFE8-136C31DCC136</title>
    <g id="STDS_Icon" stroke="none" stroke-width="1" fill="none" fill-rule="evenodd">
        <g id="navigation" transform="translate(-784.000000, -1205.000000)" fill="#000000">
            <g id="ic_navigation_option-_vertical_fill" transform="translate(720.000000, 1165.000000)">
                <g id="ic/navigation/option_vertical/fill" transform="translate(64.000000, 40.000000)">
                    <g id="ic_navigation_option-_vertical_fill" transform="translate(13.000000, 4.000000)">
                        <path d="M3,18 C4.65685425,18 6,19.3431458 6,21 C6,22.6568542 4.65685425,24 3,24 C1.34314575,24 0,22.6568542 0,21 C0,19.3431458 1.34314575,18 3,18 Z M3,9 C4.65685425,9 6,10.3431458 6,12 C6,13.6568542 4.65685425,15 3,15 C1.34314575,15 0,13.6568542 0,12 C0,10.3431458 1.34314575,9 3,9 Z M3,0 C4.65685425,0 6,1.34314575 6,3 C6,4.65685425 4.65685425,6 3,6 C1.34314575,6 0,4.65685425 0,3 C0,1.34314575 1.34314575,0 3,0 Z" id="Shape"></path>
                    </g>
                </g>
            </g>
        </g>
    </g>
</svg>