<?xml version="1.0" encoding="UTF-8"?>
<svg width="32px" height="32px" viewBox="0 0 32 32" version="1.1" xmlns="http://www.w3.org/2000/svg" xmlns:xlink="http://www.w3.org/1999/xlink">
    <title>3F15FE41-5C30-4232-BEFA-F708D54CDE56</title>
    <g id="STDS_Icon" stroke="none" stroke-width="1" fill="none" fill-rule="evenodd">
        <g id="navigation" transform="translate(-784.000000, -845.000000)" fill="#000000">
            <g id="ic_navigation_apps_fill" transform="translate(720.000000, 805.000000)">
                <g id="ic/navigation/apps/fill" transform="translate(64.000000, 40.000000)">
                    <g id="ic_navigation_apps_fill" transform="translate(4.000000, 4.000000)">
                        <path d="M4,18 C5.1045695,18 6,18.8954305 6,20 L6,22 C6,23.1045695 5.1045695,24 4,24 L2,24 C0.8954305,24 0,23.1045695 0,22 L0,20 C0,18.8954305 0.8954305,18 2,18 L4,18 Z M13,18 C14.1045695,18 15,18.8954305 15,20 L15,22 C15,23.1045695 14.1045695,24 13,24 L11,24 C9.8954305,24 9,23.1045695 9,22 L9,20 C9,18.8954305 9.8954305,18 11,18 L13,18 Z M22,18 C23.1045695,18 24,18.8954305 24,20 L24,22 C24,23.1045695 23.1045695,24 22,24 L20,24 C18.8954305,24 18,23.1045695 18,22 L18,20 C18,18.8954305 18.8954305,18 20,18 L22,18 Z M4,9 C5.1045695,9 6,9.8954305 6,11 L6,13 C6,14.1045695 5.1045695,15 4,15 L2,15 C0.8954305,15 0,14.1045695 0,13 L0,11 C0,9.8954305 0.8954305,9 2,9 L4,9 Z M13,9 C14.1045695,9 15,9.8954305 15,11 L15,13 C15,14.1045695 14.1045695,15 13,15 L11,15 C9.8954305,15 9,14.1045695 9,13 L9,11 C9,9.8954305 9.8954305,9 11,9 L13,9 Z M22,9 C23.1045695,9 24,9.8954305 24,11 L24,13 C24,14.1045695 23.1045695,15 22,15 L20,15 C18.8954305,15 18,14.1045695 18,13 L18,11 C18,9.8954305 18.8954305,9 20,9 L22,9 Z M4,0 C5.1045695,0 6,0.8954305 6,2 L6,4 C6,5.1045695 5.1045695,6 4,6 L2,6 C0.8954305,6 0,5.1045695 0,4 L0,2 C0,0.8954305 0.8954305,0 2,0 L4,0 Z M13,0 C14.1045695,0 15,0.8954305 15,2 L15,4 C15,5.1045695 14.1045695,6 13,6 L11,6 C9.8954305,6 9,5.1045695 9,4 L9,2 C9,0.8954305 9.8954305,0 11,0 L13,0 Z M22,0 C23.1045695,0 24,0.8954305 24,2 L24,4 C24,5.1045695 23.1045695,6 22,6 L20,6 C18.8954305,6 18,5.1045695 18,4 L18,2 C18,0.8954305 18.8954305,0 20,0 L22,0 Z" id="Shape"></path>
                    </g>
                </g>
            </g>
        </g>
    </g>
</svg>