<?xml version="1.0" encoding="UTF-8"?>
<svg width="32px" height="32px" viewBox="0 0 32 32" version="1.1" xmlns="http://www.w3.org/2000/svg" xmlns:xlink="http://www.w3.org/1999/xlink">
    <title>322F8C89-9DCC-474D-99A2-C358454F405B</title>
    <g id="STDS_Icon" stroke="none" stroke-width="1" fill="none" fill-rule="evenodd">
        <g id="navigation" transform="translate(-784.000000, -1745.000000)" fill="#000000">
            <g id="ic_navigation_home_fill" transform="translate(720.000000, 1705.000000)">
                <g id="ic/navigation/home/fill" transform="translate(64.000000, 40.000000)">
                    <g id="ic_navigation_home_fill" transform="translate(4.000000, 3.000000)">
                        <path d="M9.94950141,0.810147141 C11.055042,-0.225040872 12.7485206,-0.268173706 13.903056,0.680748639 L14.0504986,0.810147141 L23.0504986,9.23741987 C23.6057746,9.75736011 23.9408895,10.4668501 23.9928859,11.2206896 L24,11.4272727 L24,21.9997233 C24,23.5974042 22.75108,24.9033842 21.1762728,24.9946306 L21,24.9997233 L15,24.999 L15,19 C15,17.4023191 13.75108,16.0963391 12.1762728,16.0050927 L12,16 C10.4023191,16 9.09633912,17.24892 9.00509269,18.8237272 L9,19 L9,24.999 L3,24.9997233 C1.40231912,24.9997233 0.0963391206,23.7508033 0.00509269341,22.1759961 L0,21.9997233 L0,11.4272727 C0,10.6665696 0.28884195,9.93701606 0.803568347,9.38381224 L0.949501413,9.23741987 L9.94950141,0.810147141 Z" id="Path"></path>
                    </g>
                </g>
            </g>
        </g>
    </g>
</svg>