<?xml version="1.0" encoding="UTF-8"?>
<svg width="32px" height="32px" viewBox="0 0 32 32" version="1.1" xmlns="http://www.w3.org/2000/svg" xmlns:xlink="http://www.w3.org/1999/xlink">
    <title>1AE6E634-55E8-4E46-8446-64B34FA6B7B6</title>
    <g id="STDS_Icon" stroke="none" stroke-width="1" fill="none" fill-rule="evenodd">
        <g id="navigation" transform="translate(-784.000000, -4625.000000)" fill="#000000">
            <g id="ic_navigation_my_activity_fill" transform="translate(720.000000, 4585.000000)">
                <g id="ic/navigation/my_activity/fill" transform="translate(64.000000, 40.000000)">
                    <g id="ic_navigation_my_activity_fill" transform="translate(4.000000, 3.000000)">
                        <path d="M21,0 C22.6568542,0 24,1.34314575 24,3 L24.0006464,12.2922591 C22.4082996,10.8667953 20.3053753,10 18,10 C13.0294373,10 9,14.0294373 9,19 C9,21.8277083 10.3040748,24.3508336 12.3436224,26.0007741 L3,26 C1.34314575,26 -2.84217094e-13,24.6568542 -2.84217094e-13,23 L-2.84217094e-13,3 C-2.84217094e-13,1.34314575 1.34314575,0 3,0 L21,0 Z M18,12 C21.8659932,12 25,15.1340068 25,19 C25,22.8659932 21.8659932,26 18,26 C14.1340068,26 11,22.8659932 11,19 C11,15.1340068 14.1340068,12 18,12 Z M18,15 C17.4871642,15 17.0644928,15.3860402 17.0067277,15.8833789 L17,16 L17,19.3333333 L17.0068999,19.4507291 C17.0388732,19.7215525 17.1803805,19.967922 17.3982016,20.132 L17.496129,20.1971122 L19.496129,21.3637789 L19.6002538,21.4167296 C20.0236662,21.6019896 20.5218295,21.470894 20.7992056,21.101216 L20.8637789,21.003871 L20.9167296,20.8997462 C21.1019896,20.4763338 20.970894,19.9781705 20.601216,19.7007944 L20.503871,19.6362211 L19,18.759 L19,16 L18.9932723,15.8833789 C18.9355072,15.3860402 18.5128358,15 18,15 Z M17,5 L7,5 L6.88337887,5.00672773 C6.38604019,5.06449284 6,5.48716416 6,6 C6,6.51283584 6.38604019,6.93550716 6.88337887,6.99327227 L7,7 L17,7 L17.1166211,6.99327227 C17.6139598,6.93550716 18,6.51283584 18,6 C18,5.44771525 17.5522847,5 17,5 Z" id="Shape"></path>
                    </g>
                </g>
            </g>
        </g>
    </g>
</svg>