<?xml version="1.0" encoding="UTF-8"?>
<svg width="32px" height="32px" viewBox="0 0 32 32" version="1.1" xmlns="http://www.w3.org/2000/svg" xmlns:xlink="http://www.w3.org/1999/xlink">
    <title>E765C40A-7C92-4402-9973-46B2162EB8E4</title>
    <g id="STDS_Icon" stroke="none" stroke-width="1" fill="none" fill-rule="evenodd">
        <g id="navigation" transform="translate(-784.000000, -2825.000000)" fill="#000000">
            <g id="ic_navigation_coupon_fill" transform="translate(720.000000, 2785.000000)">
                <g id="ic/navigation/coupon/fill" transform="translate(64.000000, 40.000000)">
                    <g id="ic_navigation_coupon_fill" transform="translate(2.000000, 6.000000)">
                        <path d="M25,0 C26.6568542,0 28,1.34314575 28,3 L28,6 C25.790861,6 24,7.790861 24,10 C24,12.209139 25.790861,14 28,14 L28,17 C28,18.6568542 26.6568542,20 25,20 L3,20 C1.34314575,20 0,18.6568542 0,17 L0,3 C0,1.34314575 1.34314575,0 3,0 L25,0 Z M16.5,12 C15.6715729,12 15,12.6715729 15,13.5 C15,14.3284271 15.6715729,15 16.5,15 C17.3284271,15 18,14.3284271 18,13.5 C18,12.6715729 17.3284271,12 16.5,12 Z M17.2071068,5.79289322 C16.8466228,5.43240926 16.2793918,5.40467972 15.8871006,5.70970461 L15.7928932,5.79289322 L8.79289322,12.7928932 L8.70970461,12.8871006 C8.40467972,13.2793918 8.43240926,13.8466228 8.79289322,14.2071068 C9.15337718,14.5675907 9.72060824,14.5953203 10.1128994,14.2902954 L10.2071068,14.2071068 L17.2071068,7.20710678 L17.2902954,7.11289944 C17.5953203,6.72060824 17.5675907,6.15337718 17.2071068,5.79289322 Z M9.5,5 C8.67157288,5 8,5.67157288 8,6.5 C8,7.32842712 8.67157288,8 9.5,8 C10.3284271,8 11,7.32842712 11,6.5 C11,5.67157288 10.3284271,5 9.5,5 Z" id="Shape"></path>
                    </g>
                </g>
            </g>
        </g>
    </g>
</svg>