<?xml version="1.0" encoding="UTF-8"?>
<svg width="32px" height="32px" viewBox="0 0 32 32" version="1.1" xmlns="http://www.w3.org/2000/svg" xmlns:xlink="http://www.w3.org/1999/xlink">
    <title>38158DCA-55EB-4479-9537-9AEB0B6707CC</title>
    <g id="STDS_Icon" stroke="none" stroke-width="1" fill="none" fill-rule="evenodd">
        <g id="navigation" transform="translate(-784.000000, -4445.000000)" fill="#000000">
            <g id="ic_navigation_quizpop_fill" transform="translate(720.000000, 4405.000000)">
                <g id="ic/navigation/quizpop/fill" transform="translate(64.000000, 40.000000)">
                    <g id="ic_navigation_quizpop_fill" transform="translate(2.000000, 2.000000)">
                        <path d="M14,0 C21.7319865,0 28,6.2680135 28,14 C28,21.7319865 21.7319865,28 14,28 C6.2680135,28 0,21.7319865 0,14 C0,6.2680135 6.2680135,0 14,0 Z M19.5,18 C18.6715729,18 18,18.6715729 18,19.5 C18,20.3284271 18.6715729,21 19.5,21 C20.3284271,21 21,20.3284271 21,19.5 C21,18.6715729 20.3284271,18 19.5,18 Z M16.1648439,7.67956254 C13.8969471,5.41166574 10.1649301,5.49192417 7.82842712,7.82842712 C5.49192417,10.1649301 5.41166574,13.8969471 7.67956254,16.1648439 C8.07008683,16.5553682 8.70325181,16.5553682 9.0937761,16.1648439 C9.48430039,15.7743196 9.48430039,15.1411546 9.0937761,14.7506304 C7.62086126,13.2777155 7.67390072,10.8113807 9.24264069,9.24264069 C10.8113807,7.67390072 13.2777155,7.62086126 14.7506304,9.0937761 C16.2235452,10.5666909 16.1705057,13.0330258 14.6017658,14.6017658 C14.2412818,14.9622497 14.2135523,15.5294808 14.5185772,15.921772 L14.6017658,16.0159793 L15.7928932,17.2071068 L15.880114,17.2848131 C16.2399219,17.5697365 16.7504148,17.5717151 17.1123155,17.290749 L17.2071068,17.2071068 L17.2848131,17.119886 C17.5697365,16.7600781 17.5717151,16.2495852 17.290749,15.8876845 L17.2071068,15.7928932 L16.6645707,15.2514418 L16.7249734,15.1695787 C18.3404006,12.8501972 18.1750252,9.68974379 16.1648439,7.67956254 Z" id="Shape"></path>
                    </g>
                </g>
            </g>
        </g>
    </g>
</svg>