<?xml version="1.0" encoding="UTF-8"?>
<svg width="32px" height="32px" viewBox="0 0 32 32" version="1.1" xmlns="http://www.w3.org/2000/svg" xmlns:xlink="http://www.w3.org/1999/xlink">
    <title>152AC6EC-388E-4E5E-98A2-20AA795ED5D5</title>
    <g id="STDS_Icon" stroke="none" stroke-width="1" fill="none" fill-rule="evenodd">
        <g id="navigation" transform="translate(-784.000000, -2285.000000)" fill="#000000">
            <g id="ic_navigation_stove_fill" transform="translate(720.000000, 2245.000000)">
                <g id="ic/navigation/stove/fill" transform="translate(64.000000, 40.000000)">
                    <g id="ic_navigation_stove_fill" transform="translate(2.000000, 2.000000)">
                        <path d="M14,0 C21.7319865,0 28,6.2680135 28,14 C28,21.7319865 21.7319865,28 14,28 C6.2680135,28 0,21.7319865 0,14 C0,6.2680135 6.2680135,0 14,0 Z M14.0700857,7.5 C11.2466318,7.5 9.26641004,8.91718439 9.26641004,11.2229083 C9.26641004,13.3597931 10.7056191,14.3102486 12.2266709,14.9012262 L12.5925998,15.0365822 L12.5925998,15.0365822 L12.9575016,15.1606747 L12.9575016,15.1606747 L14.1663678,15.5429747 L14.1663678,15.5429747 L14.4750462,15.6478185 L14.4750462,15.6478185 L14.7597634,15.7553709 C15.0763346,15.8834167 15.3354717,16.0221792 15.507378,16.1898116 C15.6494288,16.3351078 15.7382105,16.4696045 15.7382105,16.7056031 C15.7382105,17.1997294 15.2309233,17.4369206 14.1578306,17.4369206 C13.1820415,17.4369206 12.4179352,17.19534 11.8001892,16.9537594 L11.0575252,16.6528607 C10.7794412,16.5451602 10.5375695,16.4705983 10.3207095,16.4705983 C9.50385261,16.4705983 9,17.1595129 9,17.9582775 C9,19.7011691 11.8503477,20.5 13.8392532,20.5 C16.698155,20.5 19,19.2110844 19,16.4696045 C19,14.0632731 17.2757989,13.1889157 15.6122227,12.6818343 L15.2573205,12.5783711 L15.2573205,12.5783711 L14.0861225,12.2680215 L14.0861225,12.2680215 L13.7878673,12.1836368 L13.7878673,12.1836368 L13.5129328,12.0964884 C13.2509594,12.0071091 13.029821,11.9097641 12.8670795,11.792993 L12.7873515,11.7301529 L12.7873515,11.7301529 C12.7086144,11.6658861 12.6470504,11.5986377 12.6025948,11.530528 C12.517442,11.4002054 12.4880857,11.2921443 12.4880857,11.1801741 C12.4880857,10.630659 13.1289344,10.4984812 13.981304,10.4984812 C14.6648586,10.4984812 15.2631634,10.6293836 15.7616048,10.760286 L16.3462811,10.9182848 C16.5806584,10.9793472 16.7803823,11.0220908 16.9427261,11.0220908 C17.7595829,11.0220908 18.2679718,10.4536269 18.2679718,9.69110355 C18.2679718,9.20088628 18.1192462,8.81965772 17.8173883,8.51104412 C17.0360441,7.712147 15.0466849,7.5 14.0700857,7.5 Z" id="Shape"></path>
                    </g>
                </g>
            </g>
        </g>
    </g>
</svg>