<?xml version="1.0" encoding="UTF-8"?>
<svg width="32px" height="32px" viewBox="0 0 32 32" version="1.1" xmlns="http://www.w3.org/2000/svg" xmlns:xlink="http://www.w3.org/1999/xlink">
    <title>9F3E80AD-1BDB-48F6-8119-45F94AE3765D</title>
    <g id="STDS_Icon" stroke="none" stroke-width="1" fill="none" fill-rule="evenodd">
        <g id="navigation" transform="translate(-784.000000, -3365.000000)" fill="#000000">
            <g id="ic_navigation_cart_fill" transform="translate(720.000000, 3325.000000)">
                <g id="ic/navigation/cart/fill" transform="translate(64.000000, 40.000000)">
                    <g id="ic_navigation_cart_fill" transform="translate(2.000000, 2.000000)">
                        <path d="M14,-4.54747351e-13 C17.2521063,-4.54747351e-13 19.8808344,2.69883442 19.9960607,6.04905285 L20,6.27846217 L19.9998501,7 L21.4365183,7 C23.3369404,7 24.9646713,8.33488959 25.350975,10.1768898 L25.3875702,10.3761497 L27.4402017,23.3761497 C27.7847447,25.5582554 26.2951059,27.6065089 24.1130002,27.9510519 C23.9754316,27.9727732 23.8368696,27.9872875 23.6978812,27.9945502 L23.4891499,28 L4.51085012,28 C2.30171112,28 0.510850115,26.209139 0.510850115,24 C0.510850115,23.8607272 0.518123944,23.721597 0.532627096,23.5831768 L0.559798254,23.3761497 L2.61242983,10.3761497 C2.90882455,8.49898317 4.48124414,7.0993637 6.36095263,7.00507029 L6.56348169,7 L7.99985012,7 L8,6.27846217 C8,2.82290274 10.6739822,-4.54747351e-13 14,-4.54747351e-13 Z M14,2 C11.8700779,2 10.109665,3.79031697 10.0049291,6.0639345 L10,6.27846217 L9.99985012,7 L17.9998501,7 L18,6.27846217 C18,3.90396014 16.1964822,2 14,2 Z" id="Shape"></path>
                    </g>
                </g>
            </g>
        </g>
    </g>
</svg>