<?xml version="1.0" encoding="UTF-8"?>
<svg width="32px" height="32px" viewBox="0 0 32 32" version="1.1" xmlns="http://www.w3.org/2000/svg" xmlns:xlink="http://www.w3.org/1999/xlink">
    <title>35DE9D32-ED66-433F-8133-02D2DDEE2953</title>
    <g id="STDS_Icon" stroke="none" stroke-width="1" fill="none" fill-rule="evenodd">
        <g id="navigation" transform="translate(-784.000000, -4085.000000)" fill="#000000">
            <g id="ic_navigation_community_fill" transform="translate(720.000000, 4045.000000)">
                <g id="ic/navigation/community/fill" transform="translate(64.000000, 40.000000)">
                    <g id="ic_navigation_community_fill" transform="translate(2.000000, 2.000000)">
                        <path d="M25.9997619,12.0307584 C26.5926164,13.2905931 26.9352704,14.6724173 26.9882624,16.1071133 L26.9955034,16.4996529 L26.9890168,16.8717748 C26.9419068,18.221345 26.6388943,19.5299319 26.1031419,20.7415826 L25.9354571,21.1021137 L25.9215034,21.129 L26.3139997,23.9062966 L26.3317746,24.0983372 C26.3374313,24.226638 26.3307168,24.3551884 26.3117246,24.4822017 L26.2740396,24.6713455 L26.2325278,24.8148241 C25.9237962,25.7510209 24.9735096,26.3231742 24.0022423,26.1588714 L23.8488005,26.1267544 L21.7375034,25.599 L21.4749176,25.7460035 C19.9606074,26.5632295 18.2593444,26.9996529 16.4955034,26.9996529 C14.9179574,26.9996529 13.3955803,26.6496179 12.0185935,26.0001533 L12,26 C19.6275002,26 25.8303269,19.9002476 25.996578,12.312645 L25.9997619,12.0307584 Z M12,24 L11.5702451,23.9924314 L11.2520676,23.9770281 L11.2520676,23.9770281 L10.8712791,23.947532 L10.8712791,23.947532 L10.6616479,23.9261037 L10.6616479,23.9261037 L10.2445162,23.8723704 L10.2445162,23.8723704 L9.89922684,23.8165682 L9.89922684,23.8165682 L9.61252222,23.7623101 L9.61252222,23.7623101 L9.1096095,23.6494062 L9.1096095,23.6494062 L8.74925872,23.5542823 L8.74925872,23.5542823 C8.30908671,23.4306492 7.87779097,23.2822847 7.45611593,23.1096309 L7.06973313,22.9434133 L6.7,22.768 L2.78163504,23.5874161 C1.80118542,23.7923763 0.838405294,23.2413959 0.49894854,22.330691 L0.450618378,22.1839639 L0.414706091,22.0389823 C0.369566243,21.8230508 0.360538273,21.601518 0.387596345,21.3834697 L0.414655627,21.2207287 L1.232,17.302 L1.04462285,16.9036673 C0.470513533,15.62303 0.124603147,14.2464965 0.0279543571,12.824835 L0.00645863076,12.3970335 L0,12 C0,5.372583 5.372583,0 12,0 C17.4125125,0 21.9880827,3.58337587 23.4837394,8.50715631 L23.5467966,8.72198764 L23.6157177,8.97589983 L23.6157177,8.97589983 L23.6983304,9.314391 L23.6983304,9.314391 L23.7541449,9.57154763 L23.7541449,9.57154763 L23.8181211,9.90709868 L23.8181211,9.90709868 L23.8844494,10.328012 L23.8844494,10.328012 L23.938141,10.7740122 L23.938141,10.7740122 L23.9699618,11.1443445 L23.9699618,11.1443445 L23.9936995,11.6074155 L23.9936995,11.6074155 C23.9978856,11.7375437 24,11.8685249 24,12 C24,18.627417 18.627417,24 12,24 Z M16,10.5 C15.1715729,10.5 14.5,11.1715729 14.5,12 C14.5,12.8284271 15.1715729,13.5 16,13.5 C16.8284271,13.5 17.5,12.8284271 17.5,12 C17.5,11.1715729 16.8284271,10.5 16,10.5 Z M8,10.5 C7.17157288,10.5 6.5,11.1715729 6.5,12 C6.5,12.8284271 7.17157288,13.5 8,13.5 C8.82842712,13.5 9.5,12.8284271 9.5,12 C9.5,11.1715729 8.82842712,10.5 8,10.5 Z" id="Shape"></path>
                    </g>
                </g>
            </g>
        </g>
    </g>
</svg>