<?xml version="1.0" encoding="UTF-8"?>
<svg width="32px" height="32px" viewBox="0 0 32 32" version="1.1" xmlns="http://www.w3.org/2000/svg" xmlns:xlink="http://www.w3.org/1999/xlink">
    <title>E4A163FB-9D58-4338-80F9-5D63F53DDD01</title>
    <g id="STDS_Icon" stroke="none" stroke-width="1" fill="none" fill-rule="evenodd">
        <g id="navigation" transform="translate(-784.000000, -3185.000000)" fill="#000000">
            <g id="ic_navigation_security_fill" transform="translate(720.000000, 3145.000000)">
                <g id="ic/navigation/security/fill" transform="translate(64.000000, 40.000000)">
                    <g id="ic_navigation_security_fill" transform="translate(3.000000, 2.000000)">
                        <path d="M12.3391995,0.249311148 C12.7169152,-0.0831037159 13.2827956,-0.0831037159 13.6605113,0.249311148 C16.1913743,2.47663822 21.2748786,3.82097614 24.9097849,3.49171015 C25.4562571,3.44220828 25.9323463,3.84053992 25.9933961,4.37185785 L26,4.48763246 L26,14.2236157 C26,18.7084983 23.5590027,22.2610375 19.5588353,24.9571819 C18.1860724,25.882435 16.7214479,26.6407248 15.2570427,27.2463382 L14.9536376,27.3695681 L14.9536376,27.3695681 L14.6593427,27.48474 L14.1003,27.691192 L13.8366601,27.7826134 L13.5561626,27.8753391 L13.272455,27.9621276 C13.1387845,28 12.9991945,28.0094683 12.8625644,27.9905312 L12.7272498,27.9621259 L12.4435478,27.875337 L11.8994223,27.6911895 L11.340392,27.4847371 C11.1473596,27.410626 10.9478846,27.3311901 10.7427055,27.246335 C9.27833354,26.6407207 7.81374244,25.8824299 6.4410109,24.9571757 C2.54620315,22.3319813 0.129550158,18.8948741 0.0050551308,14.5757492 L0,14.2236157 L0,4.48763246 C0,3.90270177 0.499847507,3.44264854 1.08277106,3.49106387 C4.95409417,3.8126007 9.76098694,2.51830901 12.3391995,0.249311148 Z M18.7071068,9.79289322 C18.3466228,9.43240926 17.7793918,9.40467972 17.3871006,9.70970461 L17.2928932,9.79289322 L11.5,15.585 L8.70710678,12.7928932 L8.61289944,12.7097046 C8.22060824,12.4046797 7.65337718,12.4324093 7.29289322,12.7928932 C6.93240926,13.1533772 6.90467972,13.7206082 7.20970461,14.1128994 L7.29289322,14.2071068 L10.7928932,17.7071068 L10.8871006,17.7902954 C11.2467008,18.0699015 11.7532992,18.0699015 12.1128994,17.7902954 L12.2071068,17.7071068 L18.7071068,11.2071068 L18.7902954,11.1128994 C19.0953203,10.7206082 19.0675907,10.1533772 18.7071068,9.79289322 Z" id="Shape"></path>
                    </g>
                </g>
            </g>
        </g>
    </g>
</svg>