<?xml version="1.0" encoding="UTF-8"?>
<svg width="32px" height="32px" viewBox="0 0 32 32" version="1.1" xmlns="http://www.w3.org/2000/svg" xmlns:xlink="http://www.w3.org/1999/xlink">
    <title>F68727EE-40FE-4CE6-8069-D3E088F62ECD</title>
    <g id="STDS_Icon" stroke="none" stroke-width="1" fill="none" fill-rule="evenodd">
        <g id="navigation" transform="translate(-784.000000, -665.000000)" fill="#000000">
            <g id="ic_navigation_language_fill" transform="translate(720.000000, 625.000000)">
                <g id="ic/navigation/language/fill" transform="translate(64.000000, 40.000000)">
                    <g id="ic_navigation_language_fill" transform="translate(2.000000, 2.000000)">
                        <path d="M27.9647748,15.0007422 C27.4516081,22.2657313 21.3954592,28 14,28 C6.60454082,28 0.548391851,22.2657313 0.0352252001,15.0007422 L8.04736299,15.0007422 C8.39715463,19.8277832 10.4902741,24.4138395 14,28 C17.5097259,24.4138395 19.6028454,19.8277832 19.952637,15.0007422 L27.9647748,15.0007422 Z M17.9524265,15.0006849 C17.6883744,18.3925256 16.4349365,21.6958226 14.3339389,24.533984 L14.0551008,24.9015102 L14,24.971 L13.9448992,24.9011708 C11.6909725,22.0002402 10.3410859,18.5737226 10.0531962,15.0006849 L17.9524265,15.0006849 Z M14,0 L13.6731957,0.341164655 C10.3601544,3.87500229 8.38587626,8.32460335 8.04729051,13.0002584 L0.0351546158,13.0002584 C0.547836244,5.73479477 6.60420158,0 14,0 Z M14,3.028 L14.3253783,3.45504722 C16.4171834,6.27875121 17.6708567,9.57210982 17.9468844,13.0003165 L10.0474985,13.0001797 C10.3113872,9.60811334 11.5648546,6.30447219 13.6660362,3.46604961 L13.9448992,3.09848983 L14,3.028 Z M14,0 C21.3957984,0 27.4521638,5.73479477 27.9648454,13.0002584 L19.9527095,13.0002584 C19.6140588,8.323707 17.6390886,3.87329628 14.3248988,0.339132402 L14,0 Z" id="Shape"></path>
                    </g>
                </g>
            </g>
        </g>
    </g>
</svg>