<?xml version="1.0" encoding="UTF-8"?>
<svg width="32px" height="32px" viewBox="0 0 32 32" version="1.1" xmlns="http://www.w3.org/2000/svg" xmlns:xlink="http://www.w3.org/1999/xlink">
    <title>DCFDB972-4E32-46BE-80EB-26416565D524</title>
    <g id="STDS_Icon" stroke="none" stroke-width="1" fill="none" fill-rule="evenodd">
        <g id="state" transform="translate(-784.000000, -665.000000)" fill="#000000">
            <g id="ic_state_help_circle_fill" transform="translate(720.000000, 625.000000)">
                <g id="ic/state/help_circle/fill" transform="translate(64.000000, 40.000000)">
                    <g id="ic_state_help_circle_fill" transform="translate(2.000000, 2.000000)">
                        <path d="M14,0 C21.7319865,0 28,6.2680135 28,14 C28,21.7319865 21.7319865,28 14,28 C6.2680135,28 0,21.7319865 0,14 C0,6.2680135 6.2680135,0 14,0 Z M14,18 C13.1715729,18 12.5,18.6715729 12.5,19.5 C12.5,20.3284271 13.1715729,21 14,21 C14.8284271,21 15.5,20.3284271 15.5,19.5 C15.5,18.6715729 14.8284271,18 14,18 Z M14,7 C11.794784,7 10,8.76329653 10,10.9473684 C10,11.4996532 10.4477153,11.9473684 11,11.9473684 C11.5522847,11.9473684 12,11.4996532 12,10.9473684 C12,9.87586705 12.8915075,9 14,9 C15.1084925,9 16,9.87586705 16,10.9473684 C16,12.0188698 15.1084925,12.8947368 14,12.8947368 C13.4871642,12.8947368 13.0644928,13.280777 13.0067277,13.7781157 L13,13.8947368 L13,16 L13.0067277,16.1166211 C13.0600494,16.575703 13.424297,16.9399506 13.8833789,16.9932723 L14,17 L14.1166211,16.9932723 C14.575703,16.9399506 14.9399506,16.575703 14.9932723,16.1166211 L15,16 L15,14.769 L15.1538204,14.7279337 C16.798533,14.2396282 18,12.7343363 18,10.9473684 C18,8.76329653 16.205216,7 14,7 Z" id="Shape"></path>
                    </g>
                </g>
            </g>
        </g>
    </g>
</svg>