<?xml version="1.0" encoding="UTF-8"?>
<svg width="32px" height="32px" viewBox="0 0 32 32" version="1.1" xmlns="http://www.w3.org/2000/svg" xmlns:xlink="http://www.w3.org/1999/xlink">
    <title>3EDC1B55-CE96-4F64-BEF2-05B7C1D82F2A</title>
    <g id="STDS_Icon" stroke="none" stroke-width="1" fill="none" fill-rule="evenodd">
        <g id="state" transform="translate(-784.000000, -1025.000000)" fill="#000000">
            <g id="ic_state_info_circle_fill" transform="translate(720.000000, 985.000000)">
                <g id="ic/state/info_circle/fill" transform="translate(64.000000, 40.000000)">
                    <g id="ic_state_info_circle_fill" transform="translate(2.000000, 2.000000)">
                        <path d="M14,0 C21.7319865,0 28,6.2680135 28,14 C28,21.7319865 21.7319865,28 14,28 C6.2680135,28 0,21.7319865 0,14 C0,6.2680135 6.2680135,0 14,0 Z M14,12 L13,12 L12.8833789,12.0067277 C12.3860402,12.0644928 12,12.4871642 12,13 C12,13.5522847 12.4477153,14 13,14 L13,14 L13,20 L13.0067277,20.1166211 C13.0644928,20.6139598 13.4871642,21 14,21 L14,21 L15,21 L15.1166211,20.9932723 C15.6139598,20.9355072 16,20.5128358 16,20 L16,20 L15.9932723,19.8833789 C15.9399506,19.424297 15.575703,19.0600494 15.1166211,19.0067277 L15.1166211,19.0067277 L15,19 L15,13 L14.9932723,12.8833789 C14.9355072,12.3860402 14.5128358,12 14,12 L14,12 Z M14,7 C13.1715729,7 12.5,7.67157288 12.5,8.5 C12.5,9.32842712 13.1715729,10 14,10 C14.8284271,10 15.5,9.32842712 15.5,8.5 C15.5,7.67157288 14.8284271,7 14,7 Z" id="Combined-Shape"></path>
                    </g>
                </g>
            </g>
        </g>
    </g>
</svg>