<svg xmlns="http://www.w3.org/2000/svg" xmlns:xlink="http://www.w3.org/1999/xlink" width="20" height="20" viewBox="0 0 20 20">
    <defs>
        <path id="a" d="M7.5 0C11.633 0 15 3.367 15 7.5S11.633 15 7.5 15 0 11.633 0 7.5 3.367 0 7.5 0zM5.228 4.159a.756.756 0 0 0-1.07 1.07L6.432 7.5 4.159 9.772a.756.756 0 0 0 1.07 1.07L7.5 8.568l2.272 2.272a.756.756 0 0 0 1.07-1.07L8.568 7.5l2.272-2.272a.756.756 0 0 0-1.07-1.07L7.5 6.432z"/>
    </defs>
    <use fill="#949CB1" fill-rule="evenodd" opacity=".4" transform="translate(2.5 2.5)" xlink:href="#a"/>
</svg>
