<svg xmlns="http://www.w3.org/2000/svg" xmlns:xlink="http://www.w3.org/1999/xlink" width="140" height="133" viewBox="0 0 140 133">
    <defs>
        <rect id="a" width="49" height="58" rx="2"/>
        <filter id="b" width="165.3%" height="155.2%" x="-32.7%" y="-24.1%" filterUnits="objectBoundingBox">
            <feOffset dy="2" in="SourceAlpha" result="shadowOffsetOuter1"/>
            <feGaussianBlur in="shadowOffsetOuter1" result="shadowBlurOuter1" stdDeviation="5"/>
            <feColorMatrix in="shadowBlurOuter1" values="0 0 0 0 0 0 0 0 0 0 0 0 0 0 0 0 0 0 0.133440778 0"/>
        </filter>
        <path id="d" d="M2 0h45a2 2 0 0 1 2 2v8H0V2a2 2 0 0 1 2-2z"/>
    </defs>
    <g fill="none" fill-rule="evenodd">
        <rect width="92" height="74" x="24" y="33" fill="#B09FFF" rx="10"/>
        <path fill="#FFF" d="M70 54a3 3 0 0 1 3 3l.001 10.582A8.003 8.003 0 0 1 70 83a8 8 0 0 1-3-15.418V57a3 3 0 0 1 3-3z" opacity=".25"/>
        <path fill="#B09FFF" fill-rule="nonzero" d="M53 33.5V19.286C52.99 10.308 60.443 3.01 69.665 3c7.95-.007 14.792 5.453 16.366 13.037a1.5 1.5 0 1 0 2.938-.61C87.103 6.44 79.023-.008 69.662 0 58.798.012 49.988 8.639 50 19.287V33.5a1.5 1.5 0 0 0 3 0z"/>
        <circle cx="136" cy="55" r="4" fill="#B09FFF"/>
        <path fill="#B09FFF" fill-rule="nonzero" d="M4.5 86a4.5 4.5 0 1 1 0 9 4.5 4.5 0 0 1 0-9zm0 2a2.5 2.5 0 1 0 0 5 2.5 2.5 0 0 0 0-5z"/>
        <g transform="translate(45 63)">
            <mask id="c" fill="#fff">
                <use xlink:href="#a"/>
            </mask>
            <use fill="#000" filter="url(#b)" xlink:href="#a"/>
            <use fill="#FFF" xlink:href="#a"/>
            <rect width="14" height="2" x="10" y="40" fill="#967FFF" mask="url(#c)" rx="1"/>
            <rect width="29" height="2" x="10" y="31" fill="#967FFF" mask="url(#c)" rx="1"/>
            <rect width="29" height="2" x="10" y="22" fill="#967FFF" mask="url(#c)" rx="1"/>
            <use fill="#5E3DF5" xlink:href="#d"/>
        </g>
    </g>
</svg>
