<svg xmlns="http://www.w3.org/2000/svg" width="16" height="16" viewBox="0 0 16 16">
    <g fill="none" fill-rule="evenodd" transform="matrix(1 0 0 -1 1.333 14.675)">
        <circle cx="6.667" cy="6.675" r="6.167" stroke="#CCC"/>
        <path fill="#CCC" d="M1.051 9.484l3.152-3.406V4.652l2.074-2.101V.258c2.172 0 3.963.81 5.376 2.432.033.67-.553 1.069-1.76 1.195.193 1.462-.453 2.193-1.939 2.193H5.563v2.03c1.076.097 1.556.798 1.44 2.105 1.513.203 2.27.927 2.27 2.174-.54.21-.98.374-1.319.49-.725.248-2.479.264-3.511-.248-1.768-.877-2.898-1.925-3.392-3.145z"/>
    </g>
</svg>
