<svg xmlns="http://www.w3.org/2000/svg" width="40" height="40" viewBox="0 0 40 40">
    <g fill="none" fill-rule="evenodd">
        <circle cx="20" cy="20" r="19.5" fill="#F0F2FF" stroke="#E1E4FA"/>
        <path fill="#5E3DF5" fill-rule="nonzero" d="M22.03 10c4.402 0 7.97 3.59 7.97 8.016v1.361c0 4.426-3.568 8.016-7.97 8.016h-.11c-2.724 2.016-5.175 3.12-6.118 2.372-.552-.438-.867-1.435-1.037-3.047A8.02 8.02 0 0 1 10 19.378v-1.362C10 13.589 13.568 10 17.97 10h4.06zM15 17.5a1.25 1.25 0 1 0 0 2.5 1.25 1.25 0 0 0 0-2.5zm5 0a1.25 1.25 0 1 0 0 2.5 1.25 1.25 0 0 0 0-2.5zm5 0a1.25 1.25 0 1 0 0 2.5 1.25 1.25 0 0 0 0-2.5z"/>
    </g>
</svg>
