<svg xmlns="http://www.w3.org/2000/svg" width="24" height="24" viewBox="0 0 24 24">
    <g fill="none" fill-rule="evenodd" transform="rotate(-180 12 12)">
        <path d="M0 0h24v24H0z"/>
        <path fill="#666" fill-rule="nonzero" d="M12 1.5c5.799 0 10.5 4.701 10.5 10.5S17.799 22.5 12 22.5 1.5 17.799 1.5 12 6.201 1.5 12 1.5zM12 3a9 9 0 1 0 0 18 9 9 0 0 0 0-18z"/>
        <circle cx="12" cy="12" r="9" fill="#FFF"/>
        <g fill="#666">
            <path d="M11.196 12.053L7.661 8.518a.833.833 0 0 1 1.178-1.179l4.714 4.714-4.714 4.714a.833.833 0 1 1-1.178-1.178l3.535-3.536z"/>
            <path d="M15.696 12.053l-3.535-3.535a.833.833 0 0 1 1.178-1.179l4.714 4.714-4.714 4.714a.833.833 0 0 1-1.178-1.178l3.535-3.536z"/>
        </g>
    </g>
</svg>
