<svg xmlns="http://www.w3.org/2000/svg" width="40" height="40" viewBox="0 0 40 40">
    <path fill="#000" fill-rule="evenodd" d="M18.14 16.39a.911.911 0 0 1-.465-.835c0-.829.985-1.029 2.296-1.029 2.103 0 3.682.79 4.556.79 1.257 0 2.039-.857 2.039-2.008 0-.74-.229-1.316-.693-1.782C24.671 10.32 21.61 10 20.108 10c-4.344 0-7.39 2.14-7.39 5.62 0 6.064 7.825 5.799 9.6 7.498.22.219.356.422.356.778 0 .746-.78 1.104-2.431 1.104-3.003 0-4.702-1.459-5.904-1.459-1.256 0-2.031 1.04-2.031 2.247 0 2.63 4.385 3.836 7.445 3.836 4.398 0 7.94-1.946 7.94-6.084 0-6.227-7.796-5.658-9.553-7.15M20 40C8.954 40 0 31.046 0 20S8.954 0 20 0s20 8.954 20 20-8.954 20-20 20zm0-1.538c10.196 0 18.462-8.266 18.462-18.462S30.196 1.538 20 1.538 1.538 9.804 1.538 20 9.804 38.462 20 38.462z" opacity=".05"/>
</svg>
