<svg xmlns="http://www.w3.org/2000/svg" xmlns:xlink="http://www.w3.org/1999/xlink" width="75" height="39" viewBox="0 0 75 39">
    <defs>
        <path id="a" d="M8.29 2.161c.125-.125.401-.053.616.162.215.215.288.491.162.617l-2.79 2.789 2.79 2.79c.112.111.067.342-.096.543l-.066.073c-.215.215-.491.288-.616.163L5.5 6.507l-2.79 2.79c-.111.112-.342.067-.542-.095l-.074-.067c-.215-.215-.288-.49-.162-.616l2.79-2.79-2.79-2.79c-.112-.11-.067-.341.096-.542l.066-.074c.215-.215.491-.287.616-.162l2.79 2.79z"/>
        <path id="b" d="M8.29 1.611c.125-.125.401-.053.616.162.215.215.288.491.162.616l-2.79 2.79 2.79 2.79c.112.111.067.342-.096.542l-.066.074c-.215.215-.491.288-.616.162L5.5 5.957l-2.79 2.79c-.111.112-.342.067-.542-.096l-.074-.066c-.215-.215-.288-.49-.162-.616l2.79-2.79-2.79-2.79c-.112-.111-.067-.341.096-.542l.066-.074c.215-.215.491-.287.616-.162l2.79 2.79z"/>
    </defs>
    <g fill="none" fill-rule="evenodd">
        <g>
            <circle cx="38" cy="20" r="19" fill="#5E3DF5"/>
            <use fill="#5E3DF5" fill-rule="nonzero" transform="rotate(-45 63.617 -61.573)" xlink:href="#a"/>
            <use fill="#5E3DF5" fill-rule="nonzero" transform="rotate(-45 5.5 4.95)" xlink:href="#b"/>
        </g>
        <path fill="#FFF" fill-rule="nonzero" d="M48.746 22.584a8.053 8.053 0 0 1-1.08 4.035l-.037.06 1.712 4.519-5.833-1.023-.19.073a8.258 8.258 0 0 1-2.43.473l-.36.008a8.262 8.262 0 0 1-4.484-1.313c.265.019.533.03.803.03 5.8 0 10.5-4.702 10.5-10.5 0-.33-.015-.654-.044-.975a8.072 8.072 0 0 1 1.443 4.613z"/>
        <path fill="#FFF" d="M36.692 9.204a9.563 9.563 0 1 1 0 19.126 9.524 9.524 0 0 1-4.246-.992l-5.318.992 1.266-4.804a9.563 9.563 0 0 1 8.297-14.321zm-2.559 8.591a1 1 0 0 0-.577 1.912l.112.034a1 1 0 0 0 .577-1.912zm5.594 0a1 1 0 0 0-.577 1.912l.112.034a1 1 0 0 0 .577-1.912z"/>
    </g>
</svg>
