<?xml version="1.0" encoding="UTF-8"?>
<svg width="32px" height="32px" viewBox="0 0 32 32" version="1.1" xmlns="http://www.w3.org/2000/svg" xmlns:xlink="http://www.w3.org/1999/xlink">
    <title>AC3BF500-875D-428A-AACD-A0ADCC0C4A74</title>
    <g id="STDS_Icon" stroke="none" stroke-width="1" fill="none" fill-rule="evenodd">
        <g id="navigation" transform="translate(-784.000000, -305.000000)" fill="#000000">
            <g id="ic_navigation_alarm_fill" transform="translate(720.000000, 265.000000)">
                <g id="ic/navigation/alarm/fill" transform="translate(64.000000, 40.000000)">
                    <g id="ic_navigation_alarm_fill" transform="translate(4.000000, 2.000000)">
                        <path d="M16.5833795,25.0013197 C15.8115217,26.7665196 14.0498083,28 12,28 C9.95019175,28 8.18847828,26.7665196 7.41662051,25.0013197 L16.5833795,25.0013197 Z M11.9951784,0 C17.3149381,0 21.6816842,4.16009279 21.9793445,9.44120729 L21.9912368,9.72017938 L21.9951784,10 L21.9951784,11.7379092 C21.9951784,14.6946576 22.4059029,17.6357846 23.2121442,20.4694417 L23.3909585,21.0749755 L24.0012811,23 L-3.55271368e-15,23 L0.423865067,21.6917745 C1.39554743,18.6927548 1.92221121,15.5687201 1.98811446,12.4193293 L1.99517839,11.7441081 L1.99528291,9.98554163 L1.99943444,9.70569432 C2.15574679,4.30734138 6.5820896,0 11.9951784,0 Z" id="Shape"></path>
                    </g>
                </g>
            </g>
        </g>
    </g>
</svg>