<?xml version="1.0" encoding="UTF-8"?>
<svg width="32px" height="32px" viewBox="0 0 32 32" version="1.1" xmlns="http://www.w3.org/2000/svg" xmlns:xlink="http://www.w3.org/1999/xlink">
    <title>410F114B-65E3-4558-A297-48B09A8DF1FA</title>
    <g id="STDS_Icon" stroke="none" stroke-width="1" fill="none" fill-rule="evenodd">
        <g id="navigation" transform="translate(-784.000000, -3725.000000)" fill="#000000">
            <g id="ic_navigation_board_timeline_fill" transform="translate(720.000000, 3685.000000)">
                <g id="ic/navigation/board/timeline/fill" transform="translate(64.000000, 40.000000)">
                    <g id="ic_navigation_board_timeline_fill" transform="translate(4.000000, 2.000000)">
                        <path d="M21,0 C22.6568542,0 24,1.34314575 24,3 L24,25 C24,26.6568542 22.6568542,28 21,28 L3,28 C1.34314575,28 0,26.6568542 0,25 L0,3 C0,1.34314575 1.34314575,0 3,0 L21,0 Z M19,14 L5,14 C4.48716416,14 4.06449284,14.3860402 4.00672773,14.8833789 L4,15 L4,23 C4,23.5128358 4.38604019,23.9355072 4.88337887,23.9932723 L5,24 L19,24 C19.5128358,24 19.9355072,23.6139598 19.9932723,23.1166211 L20,23 L20,15 C20,14.4871642 19.6139598,14.0644928 19.1166211,14.0067277 L19,14 Z M7.5,4 C5.56700338,4 4,5.56700338 4,7.5 C4,9.43299662 5.56700338,11 7.5,11 C9.43299662,11 11,9.43299662 11,7.5 C11,5.56700338 9.43299662,4 7.5,4 Z M17,8 L14,8 L13.8833789,8.00672773 C13.3860402,8.06449284 13,8.48716416 13,9 C13,9.51283584 13.3860402,9.93550716 13.8833789,9.99327227 L14,10 L17,10 L17.1166211,9.99327227 C17.6139598,9.93550716 18,9.51283584 18,9 C18,8.48716416 17.6139598,8.06449284 17.1166211,8.00672773 L17,8 Z M7.5,6 C8.32842712,6 9,6.67157288 9,7.5 C9,8.32842712 8.32842712,9 7.5,9 C6.67157288,9 6,8.32842712 6,7.5 C6,6.67157288 6.67157288,6 7.5,6 Z M19,4 L14,4 L13.8833789,4.00672773 C13.3860402,4.06449284 13,4.48716416 13,5 C13,5.51283584 13.3860402,5.93550716 13.8833789,5.99327227 L14,6 L19,6 L19.1166211,5.99327227 C19.6139598,5.93550716 20,5.51283584 20,5 C20,4.48716416 19.6139598,4.06449284 19.1166211,4.00672773 L19,4 Z" id="Shape"></path>
                    </g>
                </g>
            </g>
        </g>
    </g>
</svg>