<?xml version="1.0" encoding="UTF-8"?>
<svg width="32px" height="32px" viewBox="0 0 32 32" version="1.1" xmlns="http://www.w3.org/2000/svg" xmlns:xlink="http://www.w3.org/1999/xlink">
    <title>B2EAB9CD-B9AA-498E-BAD0-403D3EA89607</title>
    <g id="STDS_Icon" stroke="none" stroke-width="1" fill="none" fill-rule="evenodd">
        <g id="navigation" transform="translate(-784.000000, -485.000000)" fill="#000000">
            <g id="ic_navigation_alarm_disabled_fill" transform="translate(720.000000, 445.000000)">
                <g id="ic/navigation/alarm_disabled/fill" transform="translate(64.000000, 40.000000)">
                    <g id="ic_navigation_alarm_disabled_fill" transform="translate(4.000000, 2.000000)">
                        <path d="M16.5833795,25.0013197 C15.8115217,26.7665196 14.0498083,28 12,28 C9.95019175,28 8.18847828,26.7665196 7.41662051,25.0013197 L16.5833795,25.0013197 Z M23.7071068,2.29289322 C24.0675907,2.65337718 24.0953203,3.22060824 23.7902954,3.61289944 L23.7071068,3.70710678 L21.2365151,6.17793331 C21.6448738,7.16436275 21.9005459,8.23113957 21.9737407,9.3492091 L21.9912368,9.72017938 L21.9951784,10 L21.9951784,11.7379092 C21.9951784,14.6946576 22.4059029,17.6357846 23.2121442,20.4694417 L23.3909585,21.0749755 L24.0012811,23 L4.414,23 L1.70710678,25.7071068 C1.31658249,26.0976311 0.683417511,26.0976311 0.292893219,25.7071068 C-0.0675907428,25.3466228 -0.0953202783,24.7793918 0.209704612,24.3871006 L0.292893219,24.2928932 L22.2928932,2.29289322 C22.6834175,1.90236893 23.3165825,1.90236893 23.7071068,2.29289322 Z M11.9951784,0 C14.6992538,0 17.1570925,1.07487157 18.9594454,2.82547844 L0.575271945,21.2117349 C1.45359965,18.3493535 1.92927858,15.3788636 1.98879876,12.3857945 L1.99517839,11.7441081 L1.99528291,9.98554163 L1.99943444,9.70569432 C2.15574679,4.30734138 6.5820896,0 11.9951784,0 Z" id="Shape"></path>
                    </g>
                </g>
            </g>
        </g>
    </g>
</svg>