<?xml version="1.0" encoding="UTF-8"?>
<svg width="32px" height="32px" viewBox="0 0 32 32" version="1.1" xmlns="http://www.w3.org/2000/svg" xmlns:xlink="http://www.w3.org/1999/xlink">
    <title>5200DEFC-C3EB-4C0B-B5A5-8204B43A46DD</title>
    <g id="STDS_Icon" stroke="none" stroke-width="1" fill="none" fill-rule="evenodd">
        <g id="navigation" transform="translate(-784.000000, -3905.000000)" fill="#000000">
            <g id="ic_navigation_authenticator_fill" transform="translate(720.000000, 3865.000000)">
                <g id="ic/navigation/authenticator/fill" transform="translate(64.000000, 40.000000)">
                    <g id="ic_navigation_authenticator_fill" transform="translate(3.000000, 2.000000)">
                        <path d="M12.3391995,0.249311148 C12.7169152,-0.0831037159 13.2827956,-0.0831037159 13.6605113,0.249311148 C16.1913743,2.47663822 21.2748786,3.82097614 24.9097849,3.49171015 C25.4562571,3.44220828 25.9323463,3.84053992 25.9933961,4.37185785 L26,4.48763246 L26,14.2236157 C26,18.7084983 23.5590027,22.2610375 19.5588353,24.9571819 C18.1860724,25.882435 16.7214479,26.6407248 15.2570427,27.2463382 L14.9536376,27.3695681 L14.9536376,27.3695681 L14.6593427,27.48474 L14.1003,27.691192 L13.8366601,27.7826134 L13.5561626,27.8753391 L13.272455,27.9621276 C13.1387845,28 12.9991945,28.0094683 12.8625644,27.9905312 L12.7272498,27.9621259 L12.4435478,27.875337 L11.8994223,27.6911895 L11.340392,27.4847371 C11.1473596,27.410626 10.9478846,27.3311901 10.7427055,27.246335 C9.27833354,26.6407207 7.81374244,25.8824299 6.4410109,24.9571757 C2.54620315,22.3319813 0.129550158,18.8948741 0.0050551308,14.5757492 L0,14.2236157 L0,4.48763246 C0,3.90270177 0.499847507,3.44264854 1.08277106,3.49106387 C4.95409417,3.8126007 9.76098694,2.51830901 12.3391995,0.249311148 Z M13.009892,6.99998384 C9.25192302,6.99369651 6.13868015,9.96985974 6.00447152,13.7540098 C5.86742378,17.6185091 8.8891769,20.862308 12.7534331,20.9993517 C15.942752,21.1124606 18.7806457,19.0593747 19.699123,16.0501375 C19.8761209,15.4702335 19.9775238,14.8665505 19.9993719,14.250412 C20.0189434,13.6984742 19.5873753,13.2351743 19.0354374,13.2156027 C18.4834995,13.1960312 18.0201996,13.6275994 18.0006281,14.1795372 C17.9849639,14.6212854 17.9125245,15.0525393 17.7862402,15.4662887 C17.1306361,17.6142659 15.1026655,19.0814096 12.8243179,19.0006083 C10.0639138,18.902712 7.9053151,16.5854943 8.00321497,13.8248945 C8.10112874,11.0641151 10.4187331,8.90530723 13.1795553,9.00321499 C13.7325201,9.02292372 14.2785177,9.1343224 14.7947886,9.33256594 C15.3103689,9.53054426 15.8888224,9.27307701 16.0868008,8.75749673 C16.2847791,8.24191644 16.0273118,7.6634629 15.5117315,7.46548457 C14.8923092,7.2276318 14.2423765,7.0791027 13.5817363,7.02414145 L13.2506155,7.00447779 L13.009892,6.99998384 Z M20.2071068,8.29289322 C19.8466228,7.93240926 19.2793918,7.90467972 18.8871006,8.20970461 L18.7928932,8.29289322 L13,14.085 L11.7071068,12.7928932 L11.6128994,12.7097046 C11.2206082,12.4046797 10.6533772,12.4324093 10.2928932,12.7928932 C9.93240926,13.1533772 9.90467972,13.7206082 10.2097046,14.1128994 L10.2928932,14.2071068 L12.2928932,16.2071068 L12.3871006,16.2902954 C12.7467008,16.5699015 13.2532992,16.5699015 13.6128994,16.2902954 L13.7071068,16.2071068 L20.2071068,9.70710678 L20.2902954,9.61289944 C20.5953203,9.22060824 20.5675907,8.65337718 20.2071068,8.29289322 Z" id="Shape"></path>
                    </g>
                </g>
            </g>
        </g>
    </g>
</svg>