<?xml version="1.0" encoding="UTF-8"?>
<svg width="32px" height="32px" viewBox="0 0 32 32" version="1.1" xmlns="http://www.w3.org/2000/svg" xmlns:xlink="http://www.w3.org/1999/xlink">
    <title>920FD0AA-82EA-4CDD-B9EE-BA9928408F9F</title>
    <g id="STDS_Icon" stroke="none" stroke-width="1" fill="none" fill-rule="evenodd">
        <g id="navigation" transform="translate(-784.000000, -3005.000000)" fill="#000000">
            <g id="ic_navigation_message_fill" transform="translate(720.000000, 2965.000000)">
                <g id="ic/navigation/message/fill" transform="translate(64.000000, 40.000000)">
                    <g id="ic_navigation_message_fill" transform="translate(3.000000, 4.000000)">
                        <path d="M23.0000187,-4.54747351e-13 C24.656873,-4.54747351e-13 26.0000187,1.34314575 26.0000187,3 L26.0000187,18 C26.0000187,19.6568542 24.656873,21 23.0000187,21 L17.5,21 L13.7071068,24.7928932 C13.3466228,25.1533772 12.7793918,25.1811067 12.3871006,24.8760818 L12.2928932,24.7928932 L8.5,21 L3,21 C1.34314575,21 -9.9475983e-14,19.6568542 -9.9475983e-14,18 L-9.9475983e-14,3 C-9.9475983e-14,1.34314575 1.34314575,-4.54747351e-13 3,-4.54747351e-13 L23.0000187,-4.54747351e-13 Z M19.6981638,6.28406191 C19.3331776,5.92813711 18.7656428,5.90753891 18.3772163,6.21747016 L18.2840619,6.30183623 L13.131,11.585 L7.69838438,6.28427711 L7.60316421,6.20224975 C7.20716283,5.90205735 6.64031438,5.93673915 6.28427711,6.30161562 C5.92823984,6.66649209 5.90746674,7.23402048 6.21727827,7.62254254 L6.30161562,7.71572289 L8.613,9.971 L6.29289322,12.2928932 L6.20970461,12.3871006 C5.90467972,12.7793918 5.93240926,13.3466228 6.29289322,13.7071068 C6.65337718,14.0675907 7.22060824,14.0953203 7.61289944,13.7902954 L7.70710678,13.7071068 L10.045,11.369 L12.4505753,13.7157229 L12.5458166,13.7977664 C12.9088998,14.0729904 13.4155841,14.0666998 13.7717226,13.7825465 L13.8648977,13.6981638 L16.046,11.461 L18.2928932,13.7071068 L18.3871006,13.7902954 C18.7793918,14.0953203 19.3466228,14.0675907 19.7071068,13.7071068 C20.0675907,13.3466228 20.0953203,12.7793918 19.7902954,12.3871006 L19.7071068,12.2928932 L17.443,10.028 L19.7159381,7.69816377 L19.7979361,7.60291833 C20.0980064,7.20682446 20.0631499,6.63998672 19.6981638,6.28406191 Z" id="Shape"></path>
                    </g>
                </g>
            </g>
        </g>
    </g>
</svg>