<?xml version="1.0" encoding="UTF-8"?>
<svg width="32px" height="32px" viewBox="0 0 32 32" version="1.1" xmlns="http://www.w3.org/2000/svg" xmlns:xlink="http://www.w3.org/1999/xlink">
    <title>CA0211A8-72B1-4DBD-830C-02DDA123CB3A</title>
    <g id="STDS_Icon" stroke="none" stroke-width="1" fill="none" fill-rule="evenodd">
        <g id="community" transform="translate(-364.000000, -3725.000000)" fill="#000000">
            <g id="ic_community_tag_line" transform="translate(300.000000, 3685.000000)">
                <g id="ic/community/tag/line" transform="translate(64.000000, 40.000000)">
                    <g id="ic_community_tag_line" transform="translate(3.000000, 4.000000)">
                        <path d="M19.0629419,0.00188748119 L19.1788854,0.0161300899 C19.6834492,0.107868954 20.0302458,0.563292026 19.9981125,1.06294193 L19.9838699,1.17888544 L18.925,6.99982662 L25,7 C25.5522847,7 26,7.44771525 26,8 C26,8.51283584 25.6139598,8.93550716 25.1166211,8.99327227 L25,9 L18.561,8.99982662 L17.47,14.9998266 L23.54547,15 C24.0977547,15 24.54547,15.4477153 24.54547,16 C24.54547,16.5128358 24.1594298,16.9355072 23.6620911,16.9932723 L23.54547,17 L17.106,16.9998266 L15.9838699,23.1788854 C15.8850742,23.7222618 15.3644909,24.0826656 14.8211146,23.9838699 C14.3165508,23.892131 13.9697542,23.436708 14.0018875,22.9370581 L14.0161301,22.8211146 L15.074,16.9998266 L9.106,16.9998266 L7.98386991,23.1788854 C7.88507421,23.7222618 7.36449091,24.0826656 6.82111456,23.9838699 C6.31655081,23.892131 5.96975418,23.436708 6.00188748,22.9370581 L6.01613009,22.8211146 L7.074,16.9998266 L1,17 C0.44771525,17 0,16.5522847 0,16 C0,15.4871642 0.38604019,15.0644928 0.883378875,15.0067277 L1,15 L7.438,14.9998266 L8.529,8.99982662 L2.454545,9 C1.90226025,9 1.454545,8.55228475 1.454545,8 C1.454545,7.48716416 1.84058519,7.06449284 2.33792387,7.00672773 L2.454545,7 L8.893,6.99982662 L10.0161301,0.821114562 C10.107869,0.316550811 10.563292,-0.0302458157 11.0629419,0.00188748119 L11.1788854,0.0161300899 C11.6834492,0.107868954 12.0302458,0.563292026 11.9981125,1.06294193 L11.9838699,1.17888544 L10.925,6.99982662 L16.893,6.99982662 L18.0161301,0.821114562 C18.107869,0.316550811 18.563292,-0.0302458157 19.0629419,0.00188748119 Z M16.529,8.99982662 L10.561,8.99982662 L9.47,14.9998266 L15.438,14.9998266 L16.529,8.99982662 Z" id="Shape"></path>
                    </g>
                </g>
            </g>
        </g>
    </g>
</svg>