<?xml version="1.0" encoding="UTF-8"?>
<svg width="32px" height="32px" viewBox="0 0 32 32" version="1.1" xmlns="http://www.w3.org/2000/svg" xmlns:xlink="http://www.w3.org/1999/xlink">
    <title>E1D0D984-51B4-4D0B-BCFF-3E1DEB776A22</title>
    <g id="STDS_Icon" stroke="none" stroke-width="1" fill="none" fill-rule="evenodd">
        <g id="community" transform="translate(-364.000000, -7325.000000)" fill="#000000" fill-rule="nonzero">
            <g id="ic_community_thumbnail_survey_line" transform="translate(300.000000, 7285.000000)">
                <g id="ic/community/thumbnail_survey/line" transform="translate(64.000000, 40.000000)">
                    <g id="ic_community_thumbnail_survey_line" transform="translate(2.000000, 2.000000)">
                        <path d="M14,0 C21.7319865,0 28,6.2680135 28,14 C28,21.7319865 21.7319865,28 14,28 C6.2680135,28 0,21.7319865 0,14 C0,6.2680135 6.2680135,0 14,0 Z M14,2 C7.372583,2 2,7.372583 2,14 C2,20.627417 7.372583,26 14,26 C20.627417,26 26,20.627417 26,14 C26,7.372583 20.627417,2 14,2 Z M9,11 C9.82842712,11 10.5,11.6715729 10.5,12.5 L10.5,18.5 C10.5,19.3284271 9.82842712,20 9,20 C8.17157288,20 7.5,19.3284271 7.5,18.5 L7.5,12.5 C7.5,11.6715729 8.17157288,11 9,11 Z M14,7 C14.8284271,7 15.5,7.67157288 15.5,8.5 L15.5,18.5 C15.5,19.3284271 14.8284271,20 14,20 C13.1715729,20 12.5,19.3284271 12.5,18.5 L12.5,8.5 C12.5,7.67157288 13.1715729,7 14,7 Z M19,13 C19.8284271,13 20.5,13.6715729 20.5,14.5 L20.5,18.5 C20.5,19.3284271 19.8284271,20 19,20 C18.1715729,20 17.5,19.3284271 17.5,18.5 L17.5,14.5 C17.5,13.6715729 18.1715729,13 19,13 Z" id="Shape"></path>
                    </g>
                </g>
            </g>
        </g>
    </g>
</svg>