<?xml version="1.0" encoding="UTF-8"?>
<svg width="32px" height="32px" viewBox="0 0 32 32" version="1.1" xmlns="http://www.w3.org/2000/svg" xmlns:xlink="http://www.w3.org/1999/xlink">
    <title>DF8E4612-7B0E-4033-AFAE-CCFE4C6720F7</title>
    <g id="STDS_Icon" stroke="none" stroke-width="1" fill="none" fill-rule="evenodd">
        <g id="community" transform="translate(-364.000000, -6065.000000)" fill="#000000">
            <g id="ic_community_attach_video_line" transform="translate(300.000000, 6025.000000)">
                <g id="ic/community/attach_video/line" transform="translate(64.000000, 40.000000)">
                    <g id="ic_community_attach_video_line" transform="translate(4.000000, 4.000000)">
                        <path d="M21,0 C22.5976809,0 23.9036609,1.24891996 23.9949073,2.82372721 L24,3 L24,21 C24,22.5976809 22.75108,23.9036609 21.1762728,23.9949073 L21,24 L3,24 C1.40231912,24 0.0963391206,22.75108 0.00509269341,21.1762728 L0,21 L0,3 C0,1.40231912 1.24891996,0.0963391206 2.82372721,0.00509269341 L3,0 L21,0 Z M21,2 L3,2 C2.48716416,2 2.06449284,2.38604019 2.00672773,2.88337887 L2,3 L2,21 C2,21.5128358 2.38604019,21.9355072 2.88337887,21.9932723 L3,22 L21,22 C21.5128358,22 21.9355072,21.6139598 21.9932723,21.1166211 L22,21 L22,3 C22,2.48716416 21.6139598,2.06449284 21.1166211,2.00672773 L21,2 Z M7.5,6.5 C7.5,5.73316243 8.31907229,5.26578936 8.97023682,5.61706238 L9.06652882,5.67595808 L17.0665288,11.1759581 C17.6083678,11.5484724 17.6422327,12.3218014 17.1681236,12.7444175 L17.0665288,12.8240419 L9.06652882,18.3240419 C8.43462252,18.7584775 7.58545945,18.3483079 7.50601967,17.6127148 L7.5,17.5 L7.5,6.5 Z M9.5,8.401 L9.5,15.598 L14.734,12 L9.5,8.401 Z" id="Shape"></path>
                    </g>
                </g>
            </g>
        </g>
    </g>
</svg>