<?xml version="1.0" encoding="UTF-8"?>
<svg width="32px" height="32px" viewBox="0 0 32 32" version="1.1" xmlns="http://www.w3.org/2000/svg" xmlns:xlink="http://www.w3.org/1999/xlink">
    <title>37045635-FA1B-472B-BB27-81DA9151A71C</title>
    <g id="STDS_Icon" stroke="none" stroke-width="1" fill="none" fill-rule="evenodd">
        <g id="community" transform="translate(-364.000000, -5345.000000)" fill="#000000">
            <g id="ic_community_calendar_line" transform="translate(300.000000, 5305.000000)">
                <g id="ic/community/calendar/line" transform="translate(64.000000, 40.000000)">
                    <g id="ic_community_calendar_line" transform="translate(4.000000, 2.000000)">
                        <path d="M18,0 C18.5128358,0 18.9355072,0.38604019 18.9932723,0.883378875 L19,1 L19,2 L21,2 C22.5976809,2 23.9036609,3.24891996 23.9949073,4.82372721 L24,5 L24,23 C24,24.5976809 22.75108,25.9036609 21.1762728,25.9949073 L21,26 L3,26 C1.40231912,26 0.0963391206,24.75108 0.00509269341,23.1762728 L0,23 L0,5 C0,3.40231912 1.24891996,2.09633912 2.82372721,2.00509269 L3,2 L5,2 L5,1 C5,0.44771525 5.44771525,0 6,0 C6.51283584,0 6.93550716,0.38604019 6.99327227,0.883378875 L7,1 L7,2 L17,2 L17,1 C17,0.44771525 17.4477153,0 18,0 Z M22,10 L2,10 L2,23 C2,23.5128358 2.38604019,23.9355072 2.88337887,23.9932723 L3,24 L21,24 C21.5128358,24 21.9355072,23.6139598 21.9932723,23.1166211 L22,23 L22,10 Z M5,4 L3,4 C2.48716416,4 2.06449284,4.38604019 2.00672773,4.88337887 L2,5 L2,8 L22,8 L22,5 C22,4.48716416 21.6139598,4.06449284 21.1166211,4.00672773 L21,4 L19,4 L19,5 C19,5.55228475 18.5522847,6 18,6 C17.4871642,6 17.0644928,5.61395981 17.0067277,5.11662113 L17,5 L17,4 L7,4 L7,5 C7,5.55228475 6.55228475,6 6,6 C5.48716416,6 5.06449284,5.61395981 5.00672773,5.11662113 L5,5 L5,4 Z" id="Shape"></path>
                    </g>
                </g>
            </g>
        </g>
    </g>
</svg>