<?xml version="1.0" encoding="UTF-8"?>
<svg width="32px" height="32px" viewBox="0 0 32 32" version="1.1" xmlns="http://www.w3.org/2000/svg" xmlns:xlink="http://www.w3.org/1999/xlink">
    <title>DEE08688-F550-4DEB-9DB0-2B0556B826B3</title>
    <g id="STDS_Icon" stroke="none" stroke-width="1" fill="none" fill-rule="evenodd">
        <g id="community" transform="translate(-364.000000, -485.000000)" fill="#000000">
            <g id="ic_community_thumbs_up_line" transform="translate(300.000000, 445.000000)">
                <g id="ic/community/thumbs_up/line" transform="translate(64.000000, 40.000000)">
                    <g id="ic_community_thumbs_up_line" transform="translate(2.000000, 2.000000)">
                        <path d="M12.9992675,1.13686838e-13 C16.3792355,1.13686838e-13 17.7657348,2.4402849 17.2649172,6.75518555 L17.2295805,7.03924408 L17.192,7.304 L23.196351,7.30434783 C23.3532992,7.30434783 23.5099746,7.31358499 23.6655702,7.33196398 L23.8980527,7.36637692 L24.1283103,7.41443111 C26.2095163,7.91305339 27.5173997,9.95464424 27.1291647,12.0349198 L27.0862678,12.236307 L24.7075306,22.164949 C24.1860829,24.3414263 22.2860112,25.8969859 20.0679604,25.9950798 L19.8451347,26 L3,26 C1.40231912,26 0.0963391206,24.75108 0.00509269341,23.1762728 L0,23 L0,12 C0,10.4023191 1.24891996,9.09633912 2.82372721,9.00509269 L3,9 L8.05674582,9.00158301 L8.05674582,9.00158301 L12.0974268,0.567931306 C12.26371,0.220854558 12.6144138,1.13686838e-13 12.9992675,1.13686838e-13 Z M13.604,2.053 L9,11.659 L9,24 L19.8451347,24 C21.1092046,24 22.2230112,23.2102817 22.6557201,22.049523 L22.7154518,21.8726787 L22.7625723,21.6989694 L25.1413094,11.7703274 C25.3986628,10.6961566 24.7365015,9.6167429 23.6623307,9.35938947 C23.5605781,9.33501126 23.4571483,9.31867437 23.3529978,9.31049181 L23.196351,9.30434783 L16,9.30434783 C15.3668528,9.30434783 14.893078,8.7233932 15.0204415,8.10318848 C15.7883881,4.36362251 15.3565247,2.53691403 13.8223917,2.10328385 L13.6881974,2.06951504 L13.604,2.053 Z M7,11 L3,11 C2.52661307,11 2.13005271,11.3289337 2.02641071,11.7707092 L2.00672773,11.8833789 L2,12 L2,23 C2,23.5128358 2.38604019,23.9355072 2.88337887,23.9932723 L3,24 L7,24 L7,11 Z" id="Shape"></path>
                    </g>
                </g>
            </g>
        </g>
    </g>
</svg>