<?xml version="1.0" encoding="UTF-8"?>
<svg width="32px" height="32px" viewBox="0 0 32 32" version="1.1" xmlns="http://www.w3.org/2000/svg" xmlns:xlink="http://www.w3.org/1999/xlink">
    <title>FC821B1D-6119-48FF-B786-9BE72911327F</title>
    <g id="STDS_Icon" stroke="none" stroke-width="1" fill="none" fill-rule="evenodd">
        <g id="community" transform="translate(-364.000000, -4805.000000)" fill="#000000">
            <g id="ic_community_link_line" transform="translate(300.000000, 4765.000000)">
                <g id="ic/community/link/line" transform="translate(64.000000, 40.000000)">
                    <g id="ic_community_link_line" transform="translate(2.000000, 9.000000)">
                        <path d="M10.9991451,-0.00048875 C11.5514298,-0.00048875 11.9991451,0.4472265 11.9991451,0.99951125 C11.9991451,1.51234709 11.6131049,1.93501841 11.1157662,1.99278352 L10.9991451,1.99951125 L6.99914509,1.99951125 C4.23772132,1.99951125 1.99914509,4.2380875 1.99914509,6.99951125 C1.99914509,9.68826595 4.12145178,11.8813294 6.78225547,11.9948917 L6.99914509,11.9995113 L10.9991451,11.9995113 C11.5514298,11.9995113 11.9991451,12.4472265 11.9991451,12.9995113 C11.9991451,13.5123471 11.6131049,13.9350184 11.1157662,13.9927835 L10.9991451,13.9995113 L6.99914509,13.9995113 C3.13315181,13.9995113 -0.000854910593,10.8655045 -0.000854910593,6.99951125 C-0.000854910593,3.21405953 3.00392845,0.130412567 6.75849534,0.00357026831 L6.99914509,-0.00048875 L10.9991451,-0.00048875 Z M21,-0.00048875 C24.8659932,-0.00048875 28,3.13351804 28,6.99951125 C28,10.7849629 24.9952166,13.8686099 21.2406497,13.9954522 L21,13.9995113 L17,13.9995113 C16.4477153,13.9995113 16,13.551796 16,12.9995113 C16,12.4866754 16.3860402,12.0640041 16.8833789,12.006239 L17,11.9995113 L21,11.9995113 C23.7614237,11.9995113 26,9.76093496 26,6.99951125 C26,4.31075658 23.8776933,2.11769314 21.2168896,2.00413076 L21,1.99951125 L17,1.99951125 C16.4477153,1.99951125 16,1.551796 16,0.99951125 C16,0.486675411 16.3860402,0.0640040893 16.8833789,0.00623898133 L17,-0.00048875 L21,-0.00048875 Z M19,5.99902375 C19.5522847,5.99902375 20,6.446739 20,6.99902375 C20,7.51185959 19.6139598,7.93453091 19.1166211,7.99229602 L19,7.99902375 L9,7.99902375 C8.44771525,7.99902375 8,7.5513085 8,6.99902375 C8,6.48618791 8.38604019,6.06351659 8.88337887,6.00575148 L9,5.99902375 L19,5.99902375 Z" id="Shape"></path>
                    </g>
                </g>
            </g>
        </g>
    </g>
</svg>