<?xml version="1.0" encoding="UTF-8"?>
<svg width="32px" height="32px" viewBox="0 0 32 32" version="1.1" xmlns="http://www.w3.org/2000/svg" xmlns:xlink="http://www.w3.org/1999/xlink">
    <title>80E6D3EE-82E8-44C6-8FD5-2F39C10D544B</title>
    <g id="STDS_Icon" stroke="none" stroke-width="1" fill="none" fill-rule="evenodd">
        <g id="community" transform="translate(-364.000000, -3905.000000)" fill="#000000">
            <g id="ic_community_view_list_line" transform="translate(300.000000, 3865.000000)">
                <g id="ic/community/view_list/line" transform="translate(64.000000, 40.000000)">
                    <g id="ic_community_view_list_line" transform="translate(4.000000, 6.000000)">
                        <path d="M1.5,16.5 C2.32842712,16.5 3,17.1715729 3,18 C3,18.8284271 2.32842712,19.5 1.5,19.5 C0.671572875,19.5 0,18.8284271 0,18 C0,17.1715729 0.671572875,16.5 1.5,16.5 Z M23,17 C23.5522847,17 24,17.4477153 24,18 C24,18.5128358 23.6139598,18.9355072 23.1166211,18.9932723 L23,19 L7,19 C6.44771525,19 6,18.5522847 6,18 C6,17.4871642 6.38604019,17.0644928 6.88337887,17.0067277 L7,17 L23,17 Z M1.5,8.5 C2.32842712,8.5 3,9.17157288 3,10 C3,10.8284271 2.32842712,11.5 1.5,11.5 C0.671572875,11.5 0,10.8284271 0,10 C0,9.17157288 0.671572875,8.5 1.5,8.5 Z M23,9 C23.5522847,9 24,9.44771525 24,10 C24,10.5128358 23.6139598,10.9355072 23.1166211,10.9932723 L23,11 L7,11 C6.44771525,11 6,10.5522847 6,10 C6,9.48716416 6.38604019,9.06449284 6.88337887,9.00672773 L7,9 L23,9 Z M1.5,0.5 C2.32842712,0.5 3,1.17157288 3,2 C3,2.82842712 2.32842712,3.5 1.5,3.5 C0.671572875,3.5 0,2.82842712 0,2 C0,1.17157288 0.671572875,0.5 1.5,0.5 Z M23,1 C23.5522847,1 24,1.44771525 24,2 C24,2.51283584 23.6139598,2.93550716 23.1166211,2.99327227 L23,3 L7,3 C6.44771525,3 6,2.55228475 6,2 C6,1.48716416 6.38604019,1.06449284 6.88337887,1.00672773 L7,1 L23,1 Z" id="Shape"></path>
                    </g>
                </g>
            </g>
        </g>
    </g>
</svg>