<?xml version="1.0" encoding="UTF-8"?>
<svg width="32px" height="32px" viewBox="0 0 32 32" version="1.1" xmlns="http://www.w3.org/2000/svg" xmlns:xlink="http://www.w3.org/1999/xlink">
    <title>B27B9203-7CDF-4FDD-9BDB-1950B6928BF5</title>
    <g id="STDS_Icon" stroke="none" stroke-width="1" fill="none" fill-rule="evenodd">
        <g id="community" transform="translate(-364.000000, -3365.000000)" fill="#000000">
            <g id="ic_community_pencil_square_line" transform="translate(300.000000, 3325.000000)">
                <g id="ic/community/pencil_square/line" transform="translate(64.000000, 40.000000)">
                    <g id="ic_community_pencil_square_line" transform="translate(4.000000, 2.000000)">
                        <path d="M7,2 C7.55228475,2 8,2.44771525 8,3 C8,3.51283584 7.61395981,3.93550716 7.11662113,3.99327227 L7,4 L3,4 C2.48716416,4 2.06449284,4.38604019 2.00672773,4.88337887 L2,5 L2,23 C2,23.5128358 2.38604019,23.9355072 2.88337887,23.9932723 L3,24 L21,24 C21.5128358,24 21.9355072,23.6139598 21.9932723,23.1166211 L22,23 L22,19 C22,18.4477153 22.4477153,18 23,18 C23.5128358,18 23.9355072,18.3860402 23.9932723,18.8833789 L24,19 L24,23 C24,24.5976809 22.75108,25.9036609 21.1762728,25.9949073 L21,26 L3,26 C1.40231912,26 0.0963391206,24.75108 0.00509269341,23.1762728 L0,23 L0,5 C0,3.40231912 1.24891996,2.09633912 2.82372721,2.00509269 L3,2 L7,2 Z M17.7466528,1.42826955 C19.503491,-0.343774561 22.3061023,-0.474540405 24.2152129,1.07848066 L24.3971111,1.23403081 L24.586467,1.41353325 C26.3509245,3.17799078 26.4696128,5.98113959 24.8918305,7.90131772 L24.7338442,8.08432049 L24.5717307,8.25334743 L13.0157688,19.7101471 C12.8587352,19.8658332 12.6555021,19.9641886 12.4385602,19.991933 L12.3070099,20 L7.02017265,19.9751109 C6.51075194,19.9727137 6.09144624,19.589624 6.03207756,19.0956638 L6.02488932,18.9798276 L5.99998909,13.6929903 C5.99896867,13.4718645 6.07120453,13.2579494 6.20342715,13.0837356 L6.28985289,12.9842314 L17.7466528,1.42826955 Z M16.99,5.02996653 L8.001,14.098 L8.019,17.98 L11.901,17.998 L20.969,9.00796653 L16.99,5.02996653 Z M22.9178051,2.60178241 C21.8503803,1.76218107 20.3242111,1.80434071 19.3029848,2.70783544 L19.166947,2.8363762 L18.399,3.60896653 L22.389,7.59996653 L23.1449122,6.85210657 L23.2701108,6.72168672 C24.2363265,5.65557729 24.2401603,4.03604303 23.3170472,2.98073377 L23.1913872,2.84637635 L23.051,2.714 L22.9178051,2.60178241 Z" id="Shape"></path>
                    </g>
                </g>
            </g>
        </g>
    </g>
</svg>