<?xml version="1.0" encoding="UTF-8"?>
<svg width="32px" height="32px" viewBox="0 0 32 32" version="1.1" xmlns="http://www.w3.org/2000/svg" xmlns:xlink="http://www.w3.org/1999/xlink">
    <title>381480FB-7D32-41FC-9803-03AEA3765D15</title>
    <g id="STDS_Icon" stroke="none" stroke-width="1" fill="none" fill-rule="evenodd">
        <g id="community" transform="translate(-364.000000, -3185.000000)" fill="#000000">
            <g id="ic_community_pencil_line" transform="translate(300.000000, 3145.000000)">
                <g id="ic/community/pencil/line" transform="translate(64.000000, 40.000000)">
                    <g id="ic_community_pencil_line" transform="translate(4.000000, 4.000000)">
                        <path d="M14.2937843,1.68334567 C16.4411212,-0.482503963 19.901184,-0.55569977 22.1384744,1.47609246 L22.3378021,1.66605306 C24.4944147,3.82266698 24.5527,7.28301265 22.5112593,9.51150025 L22.3362787,9.69430168 L8.19498084,23.7143257 C8.03812109,23.8698396 7.83511299,23.9680862 7.61841125,23.9957934 L7.4870066,24.0038468 L1.0246133,23.9734367 C0.51575663,23.9710422 0.0969151994,23.5883764 0.0376122501,23.0949628 L0.0304319719,22.9792548 L1.08417009e-05,16.5168576 C-0.00101748228,16.2959764 0.071136857,16.082298 0.203212828,15.908277 L0.28954283,15.8088829 L14.2937843,1.68334567 Z M12.7179143,6.10908347 L1.9998574,16.920594 L2.02316609,21.9799951 L7.08256411,22.0033038 L17.893178,11.2843503 L12.7179143,6.10908347 Z M20.913948,3.06749532 C19.5211559,1.68670044 17.3022251,1.64844125 15.8635989,2.94579492 L15.7125194,3.08990754 L14.1243554,4.6906548 L19.3126047,9.87890727 L20.9123971,8.29283198 L21.0596706,8.13840669 C22.3135543,6.74605209 22.3166426,4.62669085 21.0689357,3.23075494 L20.913948,3.06749532 Z" id="Shape"></path>
                    </g>
                </g>
            </g>
        </g>
    </g>
</svg>