<?xml version="1.0" encoding="UTF-8"?>
<svg width="32px" height="32px" viewBox="0 0 32 32" version="1.1" xmlns="http://www.w3.org/2000/svg" xmlns:xlink="http://www.w3.org/1999/xlink">
    <title>FCB844D9-9929-44AF-A761-3FCD652299E3</title>
    <g id="STDS_Icon" stroke="none" stroke-width="1" fill="none" fill-rule="evenodd">
        <g id="community" transform="translate(-364.000000, -3545.000000)" fill="#000000">
            <g id="ic_community_number_of_view_line" transform="translate(300.000000, 3505.000000)">
                <g id="ic/community/number_of_view/line" transform="translate(64.000000, 40.000000)">
                    <g id="ic_community_number_of_view_line" transform="translate(2.000000, 4.000000)">
                        <path d="M14,0 C18.4169992,0 21.9941298,2.23027578 24.7784047,5.89504784 C25.7367821,7.15650192 26.5324498,8.50301651 27.1766547,9.84972541 C27.3460356,10.2038158 27.4959335,10.539549 27.6268233,10.8524558 L27.7513947,11.1575883 L27.8521551,11.4168274 L27.9474457,11.6800833 C28.0175181,11.8876055 28.0175181,12.1123945 27.9474457,12.3199167 L27.9230626,12.3902417 L27.7513947,12.8424117 C27.5937007,13.2386686 27.4024959,13.6781541 27.1766547,14.1502746 C26.5324498,15.4969835 25.7367821,16.8434981 24.7784047,18.1049522 C21.9941298,21.7697242 18.4169992,24 14,24 C9.58300083,24 6.0058702,21.7697242 3.22159532,18.1049522 C2.26321787,16.8434981 1.46755016,15.4969835 0.823345254,14.1502746 C0.653964351,13.7961842 0.504066471,13.460451 0.373176654,13.1475442 L0.248605267,12.8424117 L0.147844911,12.5831726 L0.0525543324,12.3199167 C-0.0175181108,12.1123945 -0.0175181108,11.8876055 0.0525543324,11.6800833 L0.0769374446,11.6097583 L0.248605267,11.1575883 C0.40629933,10.7613314 0.597504051,10.3218459 0.823345254,9.84972541 C1.46755016,8.50301651 2.26321787,7.15650192 3.22159532,5.89504784 C6.0058702,2.23027578 9.58300083,0 14,0 Z M14,2 C10.2919992,2 7.25305837,3.89472422 4.81411896,7.10495216 C3.94437141,8.24974808 3.21660162,9.48135849 2.6275476,10.7127746 C2.47319804,11.035442 2.33711133,11.3402118 2.21899733,11.6224893 L2.066,12 L2.21899733,12.3775107 L2.38715863,12.7668061 L2.38715863,12.7668061 L2.47927491,12.9706941 L2.6275476,13.2872254 C3.21660162,14.5186415 3.94437141,15.7502519 4.81411896,16.8950478 C7.25305837,20.1052758 10.2919992,22 14,22 C17.7080008,22 20.7469416,20.1052758 23.185881,16.8950478 C24.0556286,15.7502519 24.7833984,14.5186415 25.3724524,13.2872254 C25.526802,12.964558 25.6628887,12.6597882 25.7810027,12.3775107 L25.933,11.999 L25.7810027,11.6224893 L25.6128414,11.2331939 L25.6128414,11.2331939 L25.5207251,11.0293059 L25.3724524,10.7127746 C24.7833984,9.48135849 24.0556286,8.24974808 23.185881,7.10495216 C20.7469416,3.89472422 17.7080008,2 14,2 Z M14,6.0010525 C17.3137085,6.0010525 20,8.687344 20,12.0010525 C20,15.314761 17.3137085,18.0010525 14,18.0010525 C10.6862915,18.0010525 8,15.314761 8,12.0010525 C8,8.687344 10.6862915,6.0010525 14,6.0010525 Z M14,8.0010525 C11.790861,8.0010525 10,9.7919135 10,12.0010525 C10,14.2101915 11.790861,16.0010525 14,16.0010525 C16.209139,16.0010525 18,14.2101915 18,12.0010525 C18,9.7919135 16.209139,8.0010525 14,8.0010525 Z" id="Shape"></path>
                    </g>
                </g>
            </g>
        </g>
    </g>
</svg>