<?xml version="1.0" encoding="UTF-8"?>
<svg width="32px" height="32px" viewBox="0 0 32 32" version="1.1" xmlns="http://www.w3.org/2000/svg" xmlns:xlink="http://www.w3.org/1999/xlink">
    <title>4676C040-2ED3-4221-9044-5BF91B077FF8</title>
    <g id="STDS_Icon" stroke="none" stroke-width="1" fill="none" fill-rule="evenodd">
        <g id="community" transform="translate(-364.000000, -8585.000000)" fill="#000000">
            <g id="ic_community_board_line" transform="translate(300.000000, 8545.000000)">
                <g id="ic/community/board/line" transform="translate(64.000000, 40.000000)">
                    <g id="ic_community_board_line" transform="translate(4.000000, 3.000000)">
                        <path d="M21,0 C22.6568542,0 24,1.34314575 24,3 L24,3 L24,23 C24,24.6568542 22.6568542,26 21,26 L21,26 L3,26 C1.34314575,26 0,24.6568542 0,23 L0,23 L0,3 C0,1.34314575 1.34314575,0 3,0 L3,0 Z M21,2 L3,2 C2.44771525,2 2,2.44771525 2,3 L2,3 L2,23 C2,23.5522847 2.44771525,24 3,24 L3,24 L21,24 C21.5522847,24 22,23.5522847 22,23 L22,23 L22,3 C22,2.44771525 21.5522847,2 21,2 L21,2 Z M11,17 C11.5522847,17 12,17.4477153 12,18 C12,18.5128358 11.6139598,18.9355072 11.1166211,18.9932723 L11,19 L7,19 C6.44771525,19 6,18.5522847 6,18 C6,17.4871642 6.38604019,17.0644928 6.88337887,17.0067277 L7,17 L11,17 Z M17,12 C17.5522847,12 18,12.4477153 18,13 C18,13.5128358 17.6139598,13.9355072 17.1166211,13.9932723 L17,14 L7,14 C6.44771525,14 6,13.5522847 6,13 C6,12.4871642 6.38604019,12.0644928 6.88337887,12.0067277 L7,12 L17,12 Z M17,7 C17.5522847,7 18,7.44771525 18,8 C18,8.51283584 17.6139598,8.93550716 17.1166211,8.99327227 L17,9 L7,9 C6.44771525,9 6,8.55228475 6,8 C6,7.48716416 6.38604019,7.06449284 6.88337887,7.00672773 L7,7 L17,7 Z" id="Combined-Shape"></path>
                    </g>
                </g>
            </g>
        </g>
    </g>
</svg>