<?xml version="1.0" encoding="UTF-8"?>
<svg width="32px" height="32px" viewBox="0 0 32 32" version="1.1" xmlns="http://www.w3.org/2000/svg" xmlns:xlink="http://www.w3.org/1999/xlink">
    <title>9F639EB4-7DFC-436C-916F-438DF3649929</title>
    <g id="STDS_Icon" stroke="none" stroke-width="1" fill="none" fill-rule="evenodd">
        <g id="community" transform="translate(-364.000000, -305.000000)" fill="#000000">
            <g id="ic_community_share_line" transform="translate(300.000000, 265.000000)">
                <g id="ic/community/share/line" transform="translate(64.000000, 40.000000)">
                    <g id="ic_community_share_line" transform="translate(3.000000, 2.000000)">
                        <path d="M19,0 C21.7614237,0 24,2.23857625 24,5 C24,7.76142375 21.7614237,10 19,10 C17.5968901,10 16.3287674,9.4220515 15.4207053,8.49122808 L9.66285012,12.1913341 C9.88056905,12.7522328 10,13.3621691 10,14 C10,14.6378309 9.88056905,15.2477672 9.66285012,15.8086659 L15.4207053,19.5087719 C16.3287674,18.5779485 17.5968901,18 19,18 C21.7614237,18 24,20.2385763 24,23 C24,25.7614237 21.7614237,28 19,28 C16.2385763,28 14,25.7614237 14,23 C14,22.3621691 14.119431,21.7522328 14.3371499,21.1913341 L8.58026095,17.4902374 C7.67213231,18.4216414 6.4036076,19 5,19 C2.23857625,19 0,16.7614237 0,14 C0,11.2385763 2.23857625,9 5,9 C6.4036076,9 7.67213231,9.57835861 8.58026095,10.5097626 L14.3371499,6.80866595 C14.119431,6.24776721 14,5.6378309 14,5 C14,2.23857625 16.2385763,0 19,0 Z M19,20 C17.3431458,20 16,21.3431458 16,23 C16,24.6568542 17.3431458,26 19,26 C20.6568542,26 22,24.6568542 22,23 C22,21.3431458 20.6568542,20 19,20 Z M5,11 C3.34314575,11 2,12.3431458 2,14 C2,15.6568542 3.34314575,17 5,17 C5.98443749,17 6.85812747,16.5258336 7.40514073,15.7934299 L7.53418497,15.6063 C7.82916264,15.1418993 8,14.5909002 8,14 C8,13.482233 7.86883342,12.9951017 7.6379162,12.5700219 L7.51793595,12.368399 C6.98313499,11.5447696 6.05518637,11 5,11 Z M19,2 C17.3431458,2 16,3.34314575 16,5 C16,6.65685425 17.3431458,8 19,8 C20.6568542,8 22,6.65685425 22,5 C22,3.34314575 20.6568542,2 19,2 Z" id="Shape"></path>
                    </g>
                </g>
            </g>
        </g>
    </g>
</svg>