<?xml version="1.0" encoding="UTF-8"?>
<svg width="32px" height="32px" viewBox="0 0 32 32" version="1.1" xmlns="http://www.w3.org/2000/svg" xmlns:xlink="http://www.w3.org/1999/xlink">
    <title>697277C9-316D-4A9F-B275-C8DACBAE493C</title>
    <g id="STDS_Icon" stroke="none" stroke-width="1" fill="none" fill-rule="evenodd">
        <g id="community" transform="translate(-364.000000, -7685.000000)" fill="#000000" fill-rule="nonzero">
            <g id="ic_community_thumbnail_pin_line" transform="translate(300.000000, 7645.000000)">
                <g id="ic/community/thumbnail_pin/line" transform="translate(64.000000, 40.000000)">
                    <g id="ic_community_thumbnail_pin_line" transform="translate(2.000000, 2.000000)">
                        <path d="M14,0 C21.7319865,0 28,6.2680135 28,14 C28,21.7319865 21.7319865,28 14,28 C6.2680135,28 0,21.7319865 0,14 C0,6.2680135 6.2680135,0 14,0 Z M14,2 C7.372583,2 2,7.372583 2,14 C2,20.627417 7.372583,26 14,26 C20.627417,26 26,20.627417 26,14 C26,7.372583 20.627417,2 14,2 Z M16.4819313,7.09549703 L16.556523,7.15786244 L20.8419012,11.4467083 C21.0286325,11.6335907 21.0493804,11.9235429 20.904145,12.1333298 L20.8419012,12.2078842 L17.9033667,15.1483698 L16.2966793,20.6131643 C16.1968289,20.9527239 15.8137859,21.0924993 15.5252279,20.9362554 L15.4491567,20.8862317 L15.3992047,20.8418477 L11.9864558,17.427 L9.70710678,19.7071068 C9.31658249,20.0976311 8.68341751,20.0976311 8.29289322,19.7071068 C7.93240926,19.3466228 7.90467972,18.7793918 8.20970461,18.3871006 L8.29289322,18.2928932 L10.5724558,16.012 L7.15730333,12.5932772 C6.89041414,12.3261721 6.97758359,11.885236 7.30140087,11.7287658 L7.3872174,11.6958398 L12.8564724,10.0977051 L15.7947316,7.15786244 C15.9583084,6.99415324 16.2010428,6.95777342 16.3998007,7.04872297 L16.4819313,7.09549703 Z" id="Shape"></path>
                    </g>
                </g>
            </g>
        </g>
    </g>
</svg>