<?xml version="1.0" encoding="UTF-8"?>
<svg width="32px" height="32px" viewBox="0 0 32 32" version="1.1" xmlns="http://www.w3.org/2000/svg" xmlns:xlink="http://www.w3.org/1999/xlink">
    <title>A390379E-D267-4266-AFF6-D537BD9E4DE2</title>
    <g id="STDS_Icon" stroke="none" stroke-width="1" fill="none" fill-rule="evenodd">
        <g id="community" transform="translate(-364.000000, -2465.000000)" fill="#000000">
            <g id="ic_community_bookmark_line" transform="translate(300.000000, 2425.000000)">
                <g id="ic/community/bookmark/line" transform="translate(64.000000, 40.000000)">
                    <g id="ic_community_bookmark_line" transform="translate(6.000000, 3.000000)">
                        <path d="M17,0 L3,0 C1.34314575,0 0,1.34314575 0,3 L0,25 L0.00606243331,25.1126052 C0.0820752118,25.8113866 0.858035148,26.2282167 1.49132119,25.8709785 L10,21.071 L18.5086788,25.8709785 C19.1752957,26.2470188 20,25.7653655 20,25 L20,3 C20,1.34314575 18.6568542,0 17,0 Z M17,2 L17.1166211,2.00672773 C17.6139598,2.06449284 18,2.48716416 18,3 L18,23.288 L10.4913212,19.0520985 L10.3740495,18.9956515 C10.0942394,18.8827577 9.7755188,18.9015733 9.50867881,19.0520985 L2,23.287 L2,3 C2,2.44771525 2.44771525,2 3,2 L17,2 Z" id="Rectangle"></path>
                    </g>
                </g>
            </g>
        </g>
    </g>
</svg>