<?xml version="1.0" encoding="UTF-8"?>
<svg width="32px" height="32px" viewBox="0 0 32 32" version="1.1" xmlns="http://www.w3.org/2000/svg" xmlns:xlink="http://www.w3.org/1999/xlink">
    <title>B4201F2E-727F-4F01-BBAC-38BA2596BE0B</title>
    <g id="STDS_Icon" stroke="none" stroke-width="1" fill="none" fill-rule="evenodd">
        <g id="community" transform="translate(-364.000000, -8045.000000)" fill="#000000">
            <g id="ic_community_sort_ascending_line" transform="translate(300.000000, 8005.000000)">
                <g id="ic/community/sort_ascending/line" transform="translate(64.000000, 40.000000)">
                    <g id="ic_community_sort_ascending_line" transform="translate(5.000000, 5.000000)">
                        <path d="M20,18 C20.5522847,18 21,18.4477153 21,19 C21,19.5128358 20.6139598,19.9355072 20.1166211,19.9932723 L20,20 L1,20 C0.44771525,20 0,19.5522847 0,19 C0,18.4871642 0.38604019,18.0644928 0.883378875,18.0067277 L1,18 L20,18 Z M18.6128994,0.209704612 L18.7071068,0.292893219 L23.7071068,5.29289322 C24.0976311,5.68341751 24.0976311,6.31658249 23.7071068,6.70710678 C23.3466228,7.06759074 22.7793918,7.09532028 22.3871006,6.79029539 L22.2928932,6.70710678 L19,3.414 L19,13 C19,13.5522847 18.5522847,14 18,14 C17.4871642,14 17.0644928,13.6139598 17.0067277,13.1166211 L17,13 L17,3.414 L13.7071068,6.70710678 C13.3466228,7.06759074 12.7793918,7.09532028 12.3871006,6.79029539 L12.2928932,6.70710678 C11.9324093,6.34662282 11.9046797,5.77939176 12.2097046,5.38710056 L12.2928932,5.29289322 L17.2928932,0.292893219 C17.6533772,-0.0675907428 18.2206082,-0.0953202783 18.6128994,0.209704612 Z M10,10 C10.5522847,10 11,10.4477153 11,11 C11,11.5128358 10.6139598,11.9355072 10.1166211,11.9932723 L10,12 L1,12 C0.44771525,12 0,11.5522847 0,11 C0,10.4871642 0.38604019,10.0644928 0.883378875,10.0067277 L1,10 L10,10 Z M8,2 C8.55228475,2 9,2.44771525 9,3 C9,3.51283584 8.61395981,3.93550716 8.11662113,3.99327227 L8,4 L1,4 C0.44771525,4 0,3.55228475 0,3 C0,2.48716416 0.38604019,2.06449284 0.883378875,2.00672773 L1,2 L8,2 Z" id="Shape"></path>
                    </g>
                </g>
            </g>
        </g>
    </g>
</svg>