<?xml version="1.0" encoding="UTF-8"?>
<svg width="32px" height="32px" viewBox="0 0 32 32" version="1.1" xmlns="http://www.w3.org/2000/svg" xmlns:xlink="http://www.w3.org/1999/xlink">
    <title>5BCB29C8-F129-419F-94C4-BA7E695A2446</title>
    <g id="STDS_Icon" stroke="none" stroke-width="1" fill="none" fill-rule="evenodd">
        <g id="community" transform="translate(-364.000000, -5525.000000)" fill="#000000">
            <g id="ic_community_attach_file_line" transform="translate(300.000000, 5485.000000)">
                <g id="ic/community/attach_file/line" transform="translate(64.000000, 40.000000)">
                    <g id="ic_community_attach_file_line" transform="translate(4.000000, 4.000000)">
                        <path d="M12.1251482,1.54018775 C14.2020911,-0.513320974 17.5662257,-0.513320974 19.6458277,1.54018775 C21.6696251,3.54115066 21.7274479,6.75419041 19.8187327,8.82497129 L19.6452132,9.00466301 L9.70681722,18.813963 C8.4724127,20.0336589 6.47667467,20.0336589 5.24430418,18.8144125 C4.05053545,17.6363766 4.00462127,15.7488828 5.10652967,14.5149104 L5.24426823,14.3700579 L14.4160363,5.31825114 C14.8091228,4.93030598 15.4422741,4.93447386 15.8302192,5.32756036 C16.1883225,5.69040944 16.2123175,6.25781074 15.904717,6.64808558 L15.82091,6.74174328 L6.64956119,15.793136 C6.20103237,16.2363203 6.20103237,16.948681 6.65001612,17.3917487 C7.07172855,17.8089697 7.74141969,17.8387712 8.19969747,17.4804872 L8.30149188,17.3909169 L18.2396603,7.58184178 C19.5312043,6.30487023 19.5312043,4.23937353 18.2401154,2.96285163 C16.9882257,1.72666985 14.9844838,1.68088534 13.6785542,2.82533158 L13.5310493,2.96266515 L3.60217955,12.7721591 C1.46596543,14.8838195 1.46596543,18.3015159 3.60187617,20.4119761 C5.68443772,22.4688452 9.02774656,22.5276128 11.1822117,20.5884165 L11.3691641,20.4121259 L21.2971439,10.6024439 C21.6900017,10.2142671 22.3231553,10.218062 22.7113321,10.6109198 C23.069649,10.9735578 23.0939784,11.5409449 22.7866078,11.9314009 L22.7028561,12.025108 L12.7747246,21.8349399 C9.85191928,24.7216867 5.11927266,24.7216867 2.19631566,21.83479 C-0.668419166,19.0041902 -0.73069601,14.4477424 2.00952135,11.5409143 L2.19635436,11.3496067 L12.1251482,1.54018775 Z" id="path"></path>
                    </g>
                </g>
            </g>
        </g>
    </g>
</svg>