<?xml version="1.0" encoding="UTF-8"?>
<svg width="32px" height="32px" viewBox="0 0 32 32" version="1.1" xmlns="http://www.w3.org/2000/svg" xmlns:xlink="http://www.w3.org/1999/xlink">
    <title>038FC2C9-3A00-46DA-BE1C-127039DC9EB2</title>
    <g id="STDS_Icon" stroke="none" stroke-width="1" fill="none" fill-rule="evenodd">
        <g id="community" transform="translate(-364.000000, -2645.000000)" fill="#000000">
            <g id="ic_community_like_line" transform="translate(300.000000, 2605.000000)">
                <g id="ic/community/like/line" transform="translate(64.000000, 40.000000)">
                    <g id="ic_community_like_line" transform="translate(3.000000, 4.000000)">
                        <path d="M18.2280713,0.0061469102 C16.3384812,0.0838580409 14.5463138,0.895557557 13.2250454,2.27908593 L13.001,2.514 L12.7726201,2.27664964 C11.3841764,0.822754153 9.47162939,0 7.47293721,0 C5.47424504,0 3.56169805,0.822754153 2.17091551,2.27909044 C-0.723234619,5.32032679 -0.723234619,10.1436732 2.16970386,13.1836386 L12.2840279,23.6934216 C12.6775419,24.1023207 13.332075,24.1021731 13.7254046,23.6930967 L23.8267332,13.1873633 C26.7232346,10.1436732 26.7232346,5.32032679 23.8302961,2.28036144 C22.438297,0.822767146 20.5258013,0 18.5271828,0 L18.2280713,0.0061469102 Z M18.5271828,2 C19.9779,2 21.3682584,2.59814057 22.3826969,3.66038074 L22.5574384,3.85230305 C24.5378412,6.12634825 24.4795612,9.60018442 22.3814809,11.8048948 L13.004,21.556 L3.61464355,11.8008451 C1.46049364,9.53719269 1.46049364,5.92680731 3.61851909,3.65910523 C4.6317355,2.59813365 6.02213714,2 7.47293721,2 C8.92373729,2 10.3141389,2.59813365 11.328567,3.66037623 L12.2837029,4.6537948 C12.6784698,5.06438091 13.3359487,5.06280155 13.7287385,4.65032363 L14.6724156,3.65934585 C15.685879,2.59812817 17.0763158,2 18.5271828,2 Z" id="Path"></path>
                    </g>
                </g>
            </g>
        </g>
    </g>
</svg>