<?xml version="1.0" encoding="UTF-8"?>
<svg width="32px" height="32px" viewBox="0 0 32 32" version="1.1" xmlns="http://www.w3.org/2000/svg" xmlns:xlink="http://www.w3.org/1999/xlink">
    <title>3921EF06-227C-49F2-B9D4-6335258B67F8</title>
    <g id="STDS_Icon" stroke="none" stroke-width="1" fill="none" fill-rule="evenodd">
        <g id="community" transform="translate(-364.000000, -4085.000000)" fill="#000000">
            <g id="ic_community_view_card_line" transform="translate(300.000000, 4045.000000)">
                <g id="ic/community/view_card/line" transform="translate(64.000000, 40.000000)">
                    <g id="ic_community_view_card_line" transform="translate(4.000000, 5.000000)">
                        <path d="M8,12 C9.59768088,12 10.9036609,13.24892 10.9949073,14.8237272 L11,15 L11,19 C11,20.5976809 9.75108004,21.9036609 8.17627279,21.9949073 L8,22 L3,22 C1.40231912,22 0.0963391206,20.75108 0.00509269341,19.1762728 L0,19 L0,15 C0,13.4023191 1.24891996,12.0963391 2.82372721,12.0050927 L3,12 L8,12 Z M21,12 C22.5976809,12 23.9036609,13.24892 23.9949073,14.8237272 L24,15 L24,19 C24,20.5976809 22.75108,21.9036609 21.1762728,21.9949073 L21,22 L16,22 C14.4023191,22 13.0963391,20.75108 13.0050927,19.1762728 L13,19 L13,15 C13,13.4023191 14.24892,12.0963391 15.8237272,12.0050927 L16,12 L21,12 Z M8,14 L3,14 C2.48716416,14 2.06449284,14.3860402 2.00672773,14.8833789 L2,15 L2,19 C2,19.5128358 2.38604019,19.9355072 2.88337887,19.9932723 L3,20 L8,20 C8.51283584,20 8.93550716,19.6139598 8.99327227,19.1166211 L9,19 L9,15 C9,14.4871642 8.61395981,14.0644928 8.11662113,14.0067277 L8,14 Z M21,14 L16,14 C15.4871642,14 15.0644928,14.3860402 15.0067277,14.8833789 L15,15 L15,19 C15,19.5128358 15.3860402,19.9355072 15.8833789,19.9932723 L16,20 L21,20 C21.5128358,20 21.9355072,19.6139598 21.9932723,19.1166211 L22,19 L22,15 C22,14.4871642 21.6139598,14.0644928 21.1166211,14.0067277 L21,14 Z M8,0 C9.59768088,0 10.9036609,1.24891996 10.9949073,2.82372721 L11,3 L11,7 C11,8.59768088 9.75108004,9.90366088 8.17627279,9.99490731 L8,10 L3,10 C1.40231912,10 0.0963391206,8.75108004 0.00509269341,7.17627279 L0,7 L0,3 C0,1.40231912 1.24891996,0.0963391206 2.82372721,0.00509269341 L3,0 L8,0 Z M21,0 C22.5976809,0 23.9036609,1.24891996 23.9949073,2.82372721 L24,3 L24,7 C24,8.59768088 22.75108,9.90366088 21.1762728,9.99490731 L21,10 L16,10 C14.4023191,10 13.0963391,8.75108004 13.0050927,7.17627279 L13,7 L13,3 C13,1.40231912 14.24892,0.0963391206 15.8237272,0.00509269341 L16,0 L21,0 Z M8,2 L3,2 C2.48716416,2 2.06449284,2.38604019 2.00672773,2.88337887 L2,3 L2,7 C2,7.51283584 2.38604019,7.93550716 2.88337887,7.99327227 L3,8 L8,8 C8.51283584,8 8.93550716,7.61395981 8.99327227,7.11662113 L9,7 L9,3 C9,2.48716416 8.61395981,2.06449284 8.11662113,2.00672773 L8,2 Z M21,2 L16,2 C15.4871642,2 15.0644928,2.38604019 15.0067277,2.88337887 L15,3 L15,7 C15,7.51283584 15.3860402,7.93550716 15.8833789,7.99327227 L16,8 L21,8 C21.5128358,8 21.9355072,7.61395981 21.9932723,7.11662113 L22,7 L22,3 C22,2.48716416 21.6139598,2.06449284 21.1166211,2.00672773 L21,2 Z" id="Shape"></path>
                    </g>
                </g>
            </g>
        </g>
    </g>
</svg>