<?xml version="1.0" encoding="UTF-8"?>
<svg width="32px" height="32px" viewBox="0 0 32 32" version="1.1" xmlns="http://www.w3.org/2000/svg" xmlns:xlink="http://www.w3.org/1999/xlink">
    <title>740679E4-5587-4826-80A0-894C1D7BA3E4</title>
    <g id="STDS_Icon" stroke="none" stroke-width="1" fill="none" fill-rule="evenodd">
        <g id="community" transform="translate(-364.000000, -3005.000000)" fill="#000000">
            <g id="ic_community_write_line" transform="translate(300.000000, 2965.000000)">
                <g id="ic/community/write/line" transform="translate(64.000000, 40.000000)">
                    <g id="ic_community_write_line" transform="translate(4.000000, 4.000000)">
                        <path d="M14.2914878,1.68334567 C16.4384813,-0.482503963 19.8979909,-0.55569977 22.1349235,1.47609246 L22.3342193,1.66605306 C24.4904871,3.82266698 24.5487631,7.28301265 22.5076488,9.51150025 L22.3326962,9.69430168 L8.19365959,23.7143257 C8.03682491,23.8698396 7.83384928,23.9680862 7.61718219,23.9957934 L7.48579855,24.0038468 L1.02443862,23.9734367 C0.515663318,23.9710422 0.0968888622,23.5883764 0.0375953958,23.0949628 L0.0304162657,22.9792548 L0,16.5168576 C-0.00102815955,16.2959764 0.0711146419,16.082298 0.203169493,15.908277 L0.28948569,15.8088829 L14.2914878,1.68334567 Z M23.0012669,21.9756597 C23.552852,21.9756597 24,22.4228795 24,22.9745532 C24,23.4868215 23.6144489,23.9090251 23.1177403,23.9667263 L23.0012669,23.9734466 L15.0114021,23.9734466 C14.4598171,23.9734466 14.012669,23.5262268 14.012669,22.9745532 C14.012669,22.4622848 14.3982202,22.0400812 14.8949288,21.98238 L15.0114021,21.9756597 L23.0012669,21.9756597 Z M12.7158698,6.10908347 L1.99952677,16.920594 L2.02283174,21.9799951 L7.08142073,22.0033038 L17.8903059,11.2843503 L12.7158698,6.10908347 Z M20.9105929,3.06749532 C19.5180236,1.68670044 17.2994476,1.64844125 15.8610514,2.94579492 L15.709996,3.08990754 L14.122086,4.6906548 L19.3095057,9.87890727 L20.9090423,8.29283198 L21.0562922,8.13840669 C22.3099754,6.74605209 22.3130633,4.62669085 21.0655559,3.23075494 L20.9105929,3.06749532 Z" id="Shape"></path>
                    </g>
                </g>
            </g>
        </g>
    </g>
</svg>