<?xml version="1.0" encoding="UTF-8"?>
<svg width="32px" height="32px" viewBox="0 0 32 32" version="1.1" xmlns="http://www.w3.org/2000/svg" xmlns:xlink="http://www.w3.org/1999/xlink">
    <title>8AAC3B43-03B8-4F33-A510-6B850521A661</title>
    <g id="STDS_Icon" stroke="none" stroke-width="1" fill="none" fill-rule="evenodd">
        <g id="community" transform="translate(-364.000000, -4625.000000)" fill="#000000">
            <g id="ic_community_reply_line" transform="translate(300.000000, 4585.000000)">
                <g id="ic/community/reply/line" transform="translate(64.000000, 40.000000)">
                    <g id="ic_community_reply_line" transform="translate(3.000000, 3.000000)">
                        <path d="M13,0 C20.1797017,0 26,5.82029825 26,13 C26,20.1797017 20.1797017,26 13,26 C10.9885094,26 9.04111875,25.5419885 7.27623345,24.6751407 L7.229,24.651 L2.78897684,25.5802673 C1.80852722,25.7852274 0.845747094,25.234247 0.50629034,24.3235421 L0.457960178,24.176815 L0.422047891,24.0318334 C0.376908043,23.8159019 0.367880073,23.5943692 0.394962083,23.3762062 L0.422044181,23.2133561 L1.35,18.773 L1.32636454,18.7268306 C0.582521394,17.213389 0.13936602,15.5656444 0.0279306712,13.8582956 L0.00700062627,13.4302599 L0,13 C0,5.82029825 5.82029825,0 13,0 Z M13,2 C6.92486775,2 2,6.92486775 2,13 C2,14.8265639 2.44487276,16.5867634 3.28387317,18.1622909 C3.3719224,18.3276353 3.41131941,18.5135041 3.39902616,18.6985909 L3.38006683,18.8369264 L2.37972928,23.6225859 L7.16593925,22.6215442 C7.39508343,22.5736184 7.63377937,22.6076045 7.84044107,22.7175812 C9.41528465,23.5556471 11.1745012,24 13,24 C19.0751322,24 24,19.0751322 24,13 C24,6.92486775 19.0751322,2 13,2 Z M17,11.5 C17.8284271,11.5 18.5,12.1715729 18.5,13 C18.5,13.8284271 17.8284271,14.5 17,14.5 C16.1715729,14.5 15.5,13.8284271 15.5,13 C15.5,12.1715729 16.1715729,11.5 17,11.5 Z M9,11.5 C9.82842712,11.5 10.5,12.1715729 10.5,13 C10.5,13.8284271 9.82842712,14.5 9,14.5 C8.17157288,14.5 7.5,13.8284271 7.5,13 C7.5,12.1715729 8.17157288,11.5 9,11.5 Z" id="Shape"></path>
                    </g>
                </g>
            </g>
        </g>
    </g>
</svg>