<?xml version="1.0" encoding="UTF-8"?>
<svg width="32px" height="32px" viewBox="0 0 32 32" version="1.1" xmlns="http://www.w3.org/2000/svg" xmlns:xlink="http://www.w3.org/1999/xlink">
    <title>E1A1BAB2-C9AD-459B-94C8-6DE0332B2076</title>
    <g id="STDS_Icon" stroke="none" stroke-width="1" fill="none" fill-rule="evenodd">
        <g id="community" transform="translate(-364.000000, -8765.000000)" fill="#000000">
            <g id="ic_community_board_write_line" transform="translate(300.000000, 8725.000000)">
                <g id="ic/community/board_write/line" transform="translate(64.000000, 40.000000)">
                    <g id="ic_community_board_write_line" transform="translate(4.000000, 3.000000)">
                        <path d="M21,0 C22.5976809,0 23.9036609,1.24891996 23.9949073,2.82372721 L24,3 L24,6 C24,6.55228475 23.5522847,7 23,7 C22.4871642,7 22.0644928,6.61395981 22.0067277,6.11662113 L22,6 L22,3 C22,2.48716416 21.6139598,2.06449284 21.1166211,2.00672773 L21,2 L3,2 C2.48716416,2 2.06449284,2.38604019 2.00672773,2.88337887 L2,3 L2,23 C2,23.5128358 2.38604019,23.9355072 2.88337887,23.9932723 L3,24 L6,24 C6.55228475,24 7,24.4477153 7,25 C7,25.5128358 6.61395981,25.9355072 6.11662113,25.9932723 L6,26 L3,26 C1.40231912,26 0.0963391206,24.75108 0.00509269341,23.1762728 L0,23 L0,3 C0,1.40231912 1.24891996,0.0963391206 2.82372721,0.00509269341 L3,0 L21,0 Z M19.2006973,11.1766422 C20.6432087,9.72164549 22.9414589,9.60978041 24.5139722,10.8758034 L24.6796066,11.0167228 L24.835498,11.1645021 C26.2842656,12.6132697 26.3862265,14.9119806 25.0970552,16.4966239 L24.9536044,16.6636034 L24.8233579,16.7993029 L15.8353876,25.7101471 C15.678354,25.8658332 15.4751209,25.9641886 15.258179,25.991933 L15.1266287,26 L11.0146441,25.9806394 C10.5052234,25.9782422 10.0859177,25.5951525 10.0265491,25.1011922 L10.0193608,24.9853561 L9.99998909,20.8733715 C9.99896867,20.6522457 10.0712045,20.4383305 10.2034271,20.2641167 L10.2898529,20.1646126 L19.2006973,11.1766422 Z M18.093,15.133 L12.001,21.278 L12.014,23.985 L14.721,23.998 L20.866,17.906 L18.093,15.133 Z M23.3429246,12.5044329 C22.6057058,11.8420544 21.495259,11.8345994 20.7487925,12.466587 L20.6209915,12.5847489 L19.502,13.712 L22.287,16.498 L23.3965395,15.3980621 L23.489871,15.3009697 C24.15542,14.5666118 24.1676598,13.4562074 23.5550133,12.7227186 L23.4404183,12.5973452 L23.3429246,12.5044329 Z M11,12 C11.5522847,12 12,12.4477153 12,13 C12,13.5128358 11.6139598,13.9355072 11.1166211,13.9932723 L11,14 L7,14 C6.44771525,14 6,13.5522847 6,13 C6,12.4871642 6.38604019,12.0644928 6.88337887,12.0067277 L7,12 L11,12 Z M16,7 C16.5522847,7 17,7.44771525 17,8 C17,8.51283584 16.6139598,8.93550716 16.1166211,8.99327227 L16,9 L7,9 C6.44771525,9 6,8.55228475 6,8 C6,7.48716416 6.38604019,7.06449284 6.88337887,7.00672773 L7,7 L16,7 Z" id="Shape"></path>
                    </g>
                </g>
            </g>
        </g>
    </g>
</svg>