<?xml version="1.0" encoding="UTF-8"?>
<svg width="32px" height="32px" viewBox="0 0 32 32" version="1.1" xmlns="http://www.w3.org/2000/svg" xmlns:xlink="http://www.w3.org/1999/xlink">
    <title>C9F33DC9-DD36-4CD6-978C-9C8AE328085E</title>
    <g id="STDS_Icon" stroke="none" stroke-width="1" fill="none" fill-rule="evenodd">
        <g id="community" transform="translate(-364.000000, -6425.000000)" fill="#000000">
            <g id="ic_community_attach_emoji_line" transform="translate(300.000000, 6385.000000)">
                <g id="ic/community/attach_emoji/line" transform="translate(64.000000, 40.000000)">
                    <g id="ic_community_attach_emoji_line" transform="translate(4.000000, 4.000000)">
                        <path d="M21,0 C22.5976809,0 23.9036609,1.24891996 23.9949073,2.82372721 L24,3 L24,21 C24,22.5976809 22.75108,23.9036609 21.1762728,23.9949073 L21,24 L3,24 C1.40231912,24 0.0963391206,22.75108 0.00509269341,21.1762728 L0,21 L0,3 C0,1.40231912 1.24891996,0.0963391206 2.82372721,0.00509269341 L3,0 L21,0 Z M21,2 L3,2 C2.48716416,2 2.06449284,2.38604019 2.00672773,2.88337887 L2,3 L2,21 C2,21.5128358 2.38604019,21.9355072 2.88337887,21.9932723 L3,22 L21,22 C21.5128358,22 21.9355072,21.6139598 21.9932723,21.1166211 L22,21 L22,3 C22,2.48716416 21.6139598,2.06449284 21.1166211,2.00672773 L21,2 Z M16.6,14.2 C17.0418278,14.5313708 17.1313708,15.1581722 16.8,15.6 C16.5571182,15.9238424 16.1309689,16.36852 15.5256717,16.8087361 C14.5068925,17.5496664 13.3247669,18 12,18 C10.6752331,18 9.49310753,17.5496664 8.4743283,16.8087361 C7.86903113,16.36852 7.44288179,15.9238424 7.2,15.6 C6.86862915,15.1581722 6.9581722,14.5313708 7.4,14.2 C7.8418278,13.8686292 8.46862915,13.9581722 8.8,14.4 C8.93211821,14.5761576 9.22471887,14.88148 9.6506717,15.1912639 C10.3506425,15.7003336 11.1372669,16 12,16 C12.8627331,16 13.6493575,15.7003336 14.3493283,15.1912639 C14.6687929,14.958926 14.9132469,14.7290977 15.0712448,14.5543881 L15.2,14.4 C15.5313708,13.9581722 16.1581722,13.8686292 16.6,14.2 Z M8.5,8 C9.32842712,8 10,8.67157288 10,9.5 C10,10.3284271 9.32842712,11 8.5,11 C7.67157288,11 7,10.3284271 7,9.5 C7,8.67157288 7.67157288,8 8.5,8 Z M15.5,8 C16.3284271,8 17,8.67157288 17,9.5 C17,10.3284271 16.3284271,11 15.5,11 C14.6715729,11 14,10.3284271 14,9.5 C14,8.67157288 14.6715729,8 15.5,8 Z" id="Shape"></path>
                    </g>
                </g>
            </g>
        </g>
    </g>
</svg>