<svg xmlns="http://www.w3.org/2000/svg" xmlns:xlink="http://www.w3.org/1999/xlink" width="112" height="112" viewBox="0 0 112 112">
    <defs>
        <filter id="sf9jgk5nac" width="120.7%" height="117.3%" x="-10.3%" y="-7.3%" filterUnits="objectBoundingBox">
            <feOffset dy="1" in="SourceAlpha" result="shadowOffsetOuter1"/>
            <feGaussianBlur in="shadowOffsetOuter1" result="shadowBlurOuter1" stdDeviation="2"/>
            <feColorMatrix in="shadowBlurOuter1" values="0 0 0 0 0.210315617 0 0 0 0 0.304936507 0 0 0 0 0.690698596 0 0 0 0.15 0"/>
        </filter>
        <rect id="oyfwojscfb" width="62.892" height="74.954" x="0" y="0" rx="2"/>
        <path id="w2fzomajca" d="M4.878 81.319c-1.973 0-3.572-1.6-3.572-3.572s1.6-3.571 3.572-3.571h3.261C4.82 67.358 2.955 59.7 2.955 51.606 2.955 23.105 26.059 0 54.56 0c11.83 0 22.73 3.98 31.435 10.675l7.395.001c1.756 0 3.179 1.423 3.179 3.179 0 1.755-1.423 3.178-3.179 3.178l-.517-.001h-2.348c-1.758 0-3.195 1.377-3.292 3.11l-.005.188c0 1.82 1.476 3.296 3.297 3.296h15.304c1.973 0 3.572 1.6 3.572 3.572s-1.6 3.571-3.572 3.571h-4.042c2.815 6.373 4.379 13.422 4.379 20.837 0 28.5-23.105 51.605-51.606 51.605-10.617 0-20.486-3.206-28.69-8.704l-13.782-.002c-1.82 0-3.297-1.476-3.297-3.296 0-1.821 1.476-3.297 3.297-3.297h6.251c1.821 0 3.297-1.476 3.297-3.297 0-1.82-1.476-3.296-3.297-3.296H4.878zm-1.583 6.593c1.82 0 3.296 1.475 3.296 3.295v.003c0 1.82-1.476 3.295-3.296 3.295C1.475 94.505 0 93.03 0 91.21v-.003c0-1.82 1.475-3.295 3.295-3.295zm100.13-77.239c1.756 0 3.179 1.423 3.179 3.179 0 1.755-1.423 3.178-3.179 3.178-1.755 0-3.178-1.423-3.178-3.178 0-1.756 1.423-3.179 3.178-3.179z"/>
    </defs>
    <g fill="none" fill-rule="evenodd">
        <g>
            <g>
                <g>
                    <g opacity=".7" transform="translate(-713.000000, -760.000000) translate(713.000000, 760.000000) translate(1.244444, 2.345299)">
                        <use fill="#EBEDF4" xlink:href="#w2fzomajca"/>
                        <use fill="#DAE3F5" fill-opacity=".1" xlink:href="#w2fzomajca"/>
                    </g>
                    <g transform="translate(-713.000000, -760.000000) translate(713.000000, 760.000000) translate(1.244444, 2.345299) translate(22.878632, 15.747009)">
                        <mask id="e74iy9gwud" fill="#fff">
                            <use xlink:href="#oyfwojscfb"/>
                        </mask>
                        <g>
                            <use fill="#000" filter="url(#sf9jgk5nac)" xlink:href="#oyfwojscfb"/>
                            <use fill="#FFF" xlink:href="#oyfwojscfb"/>
                        </g>
                        <path fill="#8193D0" d="M-0.862 -0.862H65.476V12.923H-0.862z" mask="url(#e74iy9gwud)" opacity=".5"/>
                    </g>
                    <g stroke="#B0C0F3">
                        <g transform="translate(-713.000000, -760.000000) translate(713.000000, 760.000000) translate(1.244444, 2.345299) translate(37.524786, 41.048107) translate(2.962637, 3.991209)">
                            <path stroke-linecap="round" stroke-linejoin="round" stroke-width="3" d="M2.035 0.681L2.042 0.683" transform="translate(8.168518, 9.976292)"/>
                            <path stroke-linecap="round" stroke-linejoin="round" stroke-width="3" d="M2.035 0.681L2.042 0.683" transform="translate(14.995669, 9.976292)"/>
                            <circle cx="13.614" cy="13.614" r="12.614" stroke-width="2"/>
                            <path stroke-linecap="round" stroke-width="2" d="M8.169 18.379L19.103 18.379"/>
                        </g>
                    </g>
                </g>
            </g>
        </g>
    </g>
</svg>
