<svg xmlns="http://www.w3.org/2000/svg" xmlns:xlink="http://www.w3.org/1999/xlink" width="32" height="32" viewBox="0 0 32 32">
    <defs>
        <linearGradient id="6tu3d8b8kb" x1="50%" x2="50%" y1="0%" y2="38.913%">
            <stop offset="0%" stop-color="#FBDA09"/>
            <stop offset="100%" stop-color="#FFBC00"/>
        </linearGradient>
        <linearGradient id="97h85mok8c" x1="37.516%" x2="54.821%" y1="58.476%" y2="39.083%">
            <stop offset="0%" stop-color="#01E2FF"/>
            <stop offset="100%" stop-color="#01C4FF"/>
        </linearGradient>
        <linearGradient id="q40dqk7gte" x1="20.281%" x2="83.82%" y1="32.222%" y2="69.992%">
            <stop offset="0%" stop-color="#28D781"/>
            <stop offset="100%" stop-color="#02F076"/>
        </linearGradient>
        <linearGradient id="2kp7jfqhwf" x1="74.488%" x2="10.108%" y1="35.244%" y2="68.658%">
            <stop offset="0%" stop-color="#F2414E"/>
            <stop offset="100%" stop-color="#E02554"/>
        </linearGradient>
        <path id="fi3bjbtjla" d="M5.022 2.255c-.62.348-1.008.998-1.022 1.709v24.055c.014.729.402 1.379 1.022 1.727.62.348 1.377.34 1.99-.018l19.99-12.015c.598-.318.998-.986.998-1.712 0-.671-.34-1.292-.897-1.653L7.023 2.28c-.572-.334-1.256-.368-1.843-.103l-.158.08z"/>
    </defs>
    <g fill="none" fill-rule="evenodd">
        <g>
            <g>
                <g transform="translate(-964 -1025) translate(900 985) translate(64 40)">
                    <path d="M0 0H32V32H0z"/>
                    <mask id="ikxvlofx2d" fill="#fff">
                        <use xlink:href="#fi3bjbtjla"/>
                    </mask>
                    <use fill="url(#6tu3d8b8kb)" xlink:href="#fi3bjbtjla"/>
                    <path fill="url(#97h85mok8c)" d="M4 2L17.991 15.729 4 30z" mask="url(#ikxvlofx2d)"/>
                    <path fill="url(#q40dqk7gte)" d="M1 -1L17.891 15.826 22.82 10.867z" mask="url(#ikxvlofx2d)"/>
                    <path fill="url(#2kp7jfqhwf)" d="M17.891 15.826L26.653 24.566 0.525 33.412z" mask="url(#ikxvlofx2d)"/>
                </g>
            </g>
        </g>
    </g>
</svg>
