<svg xmlns="http://www.w3.org/2000/svg" xmlns:xlink="http://www.w3.org/1999/xlink" width="160" height="160" viewBox="0 0 160 160">
    <defs>
        <filter id="zeryke2sme" width="118.8%" height="136.3%" x="-9.4%" y="-16.2%" filterUnits="objectBoundingBox">
            <feOffset dy="1" in="SourceAlpha" result="shadowOffsetOuter1"/>
            <feGaussianBlur in="shadowOffsetOuter1" result="shadowBlurOuter1" stdDeviation="3"/>
            <feColorMatrix in="shadowBlurOuter1" values="0 0 0 0 0.161255414 0 0 0 0 0.240589513 0 0 0 0 0.564028533 0 0 0 0.15 0"/>
        </filter>
        <filter id="2t6muy1wkg" width="129.7%" height="157.3%" x="-14.8%" y="-26.7%" filterUnits="objectBoundingBox">
            <feGaussianBlur in="SourceAlpha" result="shadowBlurInner1" stdDeviation="4"/>
            <feOffset dx="-10" in="shadowBlurInner1" result="shadowOffsetInner1"/>
            <feComposite in="shadowOffsetInner1" in2="SourceAlpha" k2="-1" k3="1" operator="arithmetic" result="shadowInnerInner1"/>
            <feColorMatrix in="shadowInnerInner1" values="0 0 0 0 1 0 0 0 0 1 0 0 0 0 1 0 0 0 0.3 0"/>
        </filter>
        <filter id="xt8b7y2hwh" width="176.8%" height="308.2%" x="-38.4%" y="-104.1%" filterUnits="objectBoundingBox">
            <feGaussianBlur in="SourceGraphic" stdDeviation="8"/>
        </filter>
        <filter id="se1oey215j" width="207.7%" height="308.2%" x="-53.8%" y="-104.1%" filterUnits="objectBoundingBox">
            <feGaussianBlur in="SourceGraphic" stdDeviation="8"/>
        </filter>
        <filter id="oxbsgauu8m" width="101.9%" height="103.3%" x="-1%" y="-1.6%" filterUnits="objectBoundingBox">
            <feGaussianBlur in="SourceAlpha" result="shadowBlurInner1" stdDeviation=".5"/>
            <feOffset dx="-1" dy="-1" in="shadowBlurInner1" result="shadowOffsetInner1"/>
            <feComposite in="shadowOffsetInner1" in2="SourceAlpha" k2="-1" k3="1" operator="arithmetic" result="shadowInnerInner1"/>
            <feColorMatrix in="shadowInnerInner1" values="0 0 0 0 1 0 0 0 0 1 0 0 0 0 1 0 0 0 0.4 0"/>
        </filter>
        <filter id="fuqr1r7xfn" width="275.7%" height="263.6%" x="-87.9%" y="-81.8%" filterUnits="objectBoundingBox">
            <feGaussianBlur in="SourceGraphic" stdDeviation="7"/>
        </filter>
        <filter id="5lj8yvprfo" width="276.8%" height="266%" x="-88.4%" y="-83%" filterUnits="objectBoundingBox">
            <feGaussianBlur in="SourceGraphic" stdDeviation="8"/>
        </filter>
        <filter id="7262sz6amp" width="185.5%" height="258.6%" x="-42.7%" y="-79.3%" filterUnits="objectBoundingBox">
            <feGaussianBlur in="SourceGraphic" stdDeviation="5"/>
        </filter>
        <filter id="9r1ta5teps" width="160.3%" height="208.4%" x="-30.1%" y="-54.2%" filterUnits="objectBoundingBox">
            <feGaussianBlur in="SourceGraphic" stdDeviation="8"/>
        </filter>
        <filter id="u61ftiy20u" width="140.5%" height="168.9%" x="-20.3%" y="-34.5%" filterUnits="objectBoundingBox">
            <feGaussianBlur in="SourceGraphic" stdDeviation="4"/>
        </filter>
        <filter id="quvgsa2lwv" width="105.7%" height="111.4%" x="-2.9%" y="-2.8%" filterUnits="objectBoundingBox">
            <feOffset dy="1" in="SourceAlpha" result="shadowOffsetOuter1"/>
            <feGaussianBlur in="shadowOffsetOuter1" result="shadowBlurOuter1" stdDeviation=".5"/>
            <feColorMatrix in="shadowBlurOuter1" values="0 0 0 0 1 0 0 0 0 1 0 0 0 0 1 0 0 0 0.2 0"/>
        </filter>
        <path id="slce2pxz0a" d="M7.857 118.63c-2.817 0-5.102-2.283-5.102-5.101s2.285-5.102 5.102-5.102l4.66.001C7.772 98.688 5.11 87.747 5.11 76.184c0-40.716 33.007-73.722 73.722-73.722 16.9 0 32.472 5.686 44.906 15.25l10.566.001c2.507 0 4.54 2.033 4.54 4.54 0 2.508-2.033 4.541-4.54 4.541l-.74-.001-3.354.001c-2.529 0-4.592 1.993-4.705 4.494l-.004.216c0 2.6 2.108 4.71 4.71 4.71H152.073c2.817 0 5.102 2.284 5.102 5.101 0 2.818-2.285 5.102-5.102 5.102h-5.776c4.022 9.103 6.256 19.174 6.256 29.767 0 40.715-33.006 73.722-73.722 73.722-15.168 0-29.267-4.581-40.988-12.435l-19.687-.002c-2.6 0-4.71-2.108-4.71-4.71 0-2.6 2.11-4.709 4.71-4.709h8.931c2.601 0 4.71-2.109 4.71-4.71 0-2.6-2.109-4.71-4.71-4.71H7.858zm-2.26 9.42c2.6 0 4.707 2.108 4.707 4.708v.003c0 2.6-2.108 4.708-4.707 4.708-2.6 0-4.708-2.108-4.708-4.708v-.003c0-2.6 2.108-4.708 4.708-4.708zM148.639 17.71c2.508 0 4.54 2.032 4.54 4.54s-2.032 4.54-4.54 4.54-4.54-2.032-4.54-4.54 2.032-4.54 4.54-4.54z"/>
        <path id="x40t1m7gkb" d="M0.096 0.375L26.397 3.428 12.513 16.597 7.781 10.267 2.86 11.668 5.279 6.682z"/>
        <path id="4qzqbkxuad" d="M88.537.583c3.82 4.815 7.024 9.584 11.617 19.818.6 1.34 1.094 3.132 1.094 4.638v20.763c0 3.501-2.789 6.364-6.282 6.448-19.928.48-34.425.719-43.491.719-9.105 0-24.105-.242-45-.725C2.98 52.163.187 49.3.187 45.795V25.45c0-1.02.355-3.488.705-4.41C4.54 11.437 8.445 6.365 11.066 2.53m1.54 7.86c-.036.054-.447.63-1 1.528-1.654 2.689-4.578 8.262-2.524 11.355 3.764 3.549 16.527 1.126 19.598 3.322 1.74 2.067.695 9.254 3.073 9.176 14.719.37 24.233.844 37.988-.265 2.772-.446.397-9.517 3.934-10.025 6.237-1.449 15.446.22 18.812-2.484 2.616-3.306.01-6.338-4.444-13.538-.228-.368-.46-.748-.698-1.138"/>
        <path id="4v0ginexyl" d="M.638 17.259c-.147.218-3.025 8.158-.285 12.283 2.657 5.898 24.823 4.007 27.894 6.203 1.739 2.066 1.128 8.49 3.506 8.41 14.719.37 24.233.845 37.988-.265 2.772-.445.74-8.86 4.277-9.37 6.237-1.448 25.356-1.427 27.413-5.592 3.44-4.182 2.569-9.193-2.303-17.222-4.803-5.665-9.107-21.2-22.32-26.362-12.691-4.958-34.236.335-42.008.538C12.99-13.546.784 17.041.638 17.26z"/>
        <path id="cdsgooqttq" d="M9.215 2.633C18.843.878 28.618 0 38.541 0c9.651 0 19.033.787 28.144 2.36l1.012.178c4.492.806 7.919 4.478 8.42 9.023l.145 1.33c.819 7.692 1.228 14.154 1.228 19.385l-.003.645c-.068 7.464-1.31 16.382-4.29 22.188-.074.145-10.127.045-11.92.994-1.794.949-1.54 6.063-1.678 6.079-10.871 1.293-29.252 1.58-41.32.443-.19-.018-.05-4.914-1.622-5.781-1.572-.868-12.626-.99-12.777-1.284C.477 48.943.18 38.282.166 31.764v-1.099c.015-3.838.176-9.088.481-15.751l.125-2.632c.234-4.792 3.733-8.79 8.443-9.65z"/>
        <path id="pnjt5ii6qw" d="M73.529 10.17C67.012 20.193 60.85 27.747 55.047 32.832c4.55 3.501 7.842 7.683 9.876 12.544-4.396-4.832-8.456-8.38-12.18-10.642-4.96 3.845-9.649 5.826-14.07 5.945-4.569.103-9.494-2.379-14.16-5.932-3.64 1.965-7.642 5.508-12.007 10.629 2.065-4.878 5.314-9.027 9.747-12.449C12.01 24.261 3.579 11.443 3.909 11.592c.502.226 18.938 25.553 34.758 25.164 10.867-.267 22.488-9.129 34.862-26.586z"/>
        <linearGradient id="6m1b4w7ovf" x1="103.55%" x2="-46.78%" y1="51.683%" y2="68.09%">
            <stop offset="0%" stop-color="#9ABBFF"/>
            <stop offset="99.943%" stop-color="#6084EB"/>
        </linearGradient>
        <linearGradient id="lamfttif3k" x1="95.067%" x2="66.47%" y1="48.368%" y2="73.396%">
            <stop offset="0%" stop-color="#9ABBFF"/>
            <stop offset="98.997%" stop-color="#92AFFF"/>
        </linearGradient>
        <linearGradient id="nqyfnzqwbr" x1="71.447%" x2="30.135%" y1="37.295%" y2="73.219%">
            <stop offset="0%" stop-color="#FFD89A"/>
            <stop offset="99.937%" stop-color="#F2883A"/>
        </linearGradient>
    </defs>
    <g fill="none" fill-rule="evenodd">
        <g>
            <g>
                <g opacity=".7" transform="translate(-135.000000, -733.000000) translate(135.000000, 733.000000) translate(-0.000000, 0.000000)">
                    <use fill="#EBEDF4" xlink:href="#slce2pxz0a"/>
                    <use fill="#DAE3F5" fill-opacity=".1" xlink:href="#slce2pxz0a"/>
                </g>
                <g>
                    <g>
                        <path stroke="#84A3FA" stroke-dasharray="3" stroke-linecap="round" stroke-linejoin="round" stroke-width="1.5" d="M11.016 82.63c-8.49 4.298-14.629 20.697-7.492 29.812 7.838 9.313 22.487 9.703 39.367 10.15 33.234-2.4 37.466-5.369 58.76-12.688 10.901-6.17 22.862-13.03 21.578-24.69-1.479-12.79-11.586-22.91-26.014-39.143-6.97-9.087-13.89-12.792-15.118-22.819-.83-10.087 17.158-14.138 16.878-13.875" transform="translate(-135.000000, -733.000000) translate(135.000000, 733.000000) translate(-0.000000, 0.000000) translate(20.283018, 2.461538)"/>
                        <g transform="translate(-135.000000, -733.000000) translate(135.000000, 733.000000) translate(-0.000000, 0.000000) translate(20.283018, 2.461538) translate(95.731156, 0.000000)">
                            <mask id="5myuw2lxcc" fill="#fff">
                                <use xlink:href="#x40t1m7gkb"/>
                            </mask>
                            <use fill="#B4C6FF" xlink:href="#x40t1m7gkb"/>
                            <path fill="#597FE9" d="M4.61 6.646L27.114 3.312 1.492 12.562z" mask="url(#5myuw2lxcc)"/>
                        </g>
                    </g>
                    <g>
                        <path fill="#355078" d="M12.607 40.795c-.147.218-6.265 8.758-3.525 12.883 3.764 3.55 16.527 1.127 19.598 3.323 1.74 2.067.695 9.254 3.073 9.176 14.719.37 24.233.844 37.988-.266 2.772-.445.397-9.516 3.934-10.025 6.237-1.448 15.446.22 18.812-2.483 2.75-3.475-.27-6.647-5.142-14.676-9.414-11.105-21.865-20.96-37.728-20.545-21.811.572-36.864 22.395-37.01 22.613z" transform="translate(-135.000000, -733.000000) translate(135.000000, 733.000000) translate(-0.000000, 0.000000) translate(20.283018, 2.461538) translate(9.992706, 29.152607)"/>
                        <g transform="translate(-135.000000, -733.000000) translate(135.000000, 733.000000) translate(-0.000000, 0.000000) translate(20.283018, 2.461538) translate(9.992706, 29.152607) translate(0.000000, 30.405958)">
                            <mask id="gbaa64xqqi" fill="#fff">
                                <use xlink:href="#4qzqbkxuad"/>
                            </mask>
                            <g>
                                <use fill="#000" filter="url(#zeryke2sme)" xlink:href="#4qzqbkxuad"/>
                                <use fill="url(#6m1b4w7ovf)" xlink:href="#4qzqbkxuad"/>
                                <use fill="#000" filter="url(#2t6muy1wkg)" xlink:href="#4qzqbkxuad"/>
                            </g>
                            <path fill="#6481F5" d="M-.457 30.314h10.3v15.64l24.706 3.183c7.95.197 14.06.607 18.33 1.228 4.268.622 7.324 1.625 9.168 3.007L7.624 52.89h-8.08V30.314z" filter="url(#xt8b7y2hwh)" mask="url(#gbaa64xqqi)" opacity=".4"/>
                            <path fill="#B1C3FC" d="M57.373 30.314h17.103v11.454c9.395 4.937 16.227 7.717 20.496 8.339 4.269.622 6.597 1.71 6.984 3.265l-36.502-.483h-8.08V30.314z" filter="url(#se1oey215j)" mask="url(#gbaa64xqqi)" opacity=".6" transform="translate(79.664855, 41.843410) scale(-1, 1) translate(-79.664855, -41.843410)"/>
                            <g mask="url(#gbaa64xqqi)">
                                <use fill="url(#lamfttif3k)" xlink:href="#4v0ginexyl"/>
                                <use fill="#000" filter="url(#oxbsgauu8m)" xlink:href="#4v0ginexyl"/>
                            </g>
                            <path fill="#F6F8FF" d="M87.893 5.793c-3.503 10.255-4.054 17.024-1.653 20.305 3.349 2.356 4.355 2.95 10.758 3.884 4.269.621 5.871 1.108 4.807 1.458-3.618.115-9.09-.105-16.416-.66-3.125-.227-6.011-.602-6.743-3.009-1.639-5.395 1.443-12.721 9.247-21.978z" filter="url(#fuqr1r7xfn)" mask="url(#gbaa64xqqi)" opacity=".9" transform="translate(90.171657, 18.631178) scale(-1, 1) translate(-90.171657, -18.631178)"/>
                            <path fill="#6481F5" d="M11.936 4.503c-4.43 10.353-5.444 17.17-3.043 20.452 3.349 2.355 8.113 1.099 14.516 2.032 4.269.621 5.998 2.766 5.189 6.432-5.88-1.204-12.484-2.084-19.81-2.639-3.125-.227-6.01-.602-6.742-3.009-1.64-5.395 1.657-13.151 9.89-23.268z" filter="url(#5lj8yvprfo)" mask="url(#gbaa64xqqi)" opacity=".6"/>
                            <path fill="#6481F5" d="M52.058 33.148c-2.322-3.317-3.3-5.199-2.933-5.646 2.268-2.763 9.732-2.097 10.59-1.524 1.546 1.034 1.231 7.192 2.412 8.806 3.349 2.355 5.371 1.153 11.774 2.086 4.269.622 7.683 3.09 10.244 7.402-2.84-.085-7.174-.047-13.003.114-3.575-.706-8.27.395-8.773-2.033-.545-2.635-.344-5.66-1.741-7.41-.993-1.245-3.85-1.843-8.57-1.795z" filter="url(#7262sz6amp)" mask="url(#gbaa64xqqi)" opacity=".4" transform="translate(66.597660, 34.926691) scale(-1, 1) translate(-66.597660, -34.926691)"/>
                        </g>
                        <g>
                            <g transform="translate(-135.000000, -733.000000) translate(135.000000, 733.000000) translate(-0.000000, 0.000000) translate(20.283018, 2.461538) translate(9.992706, 29.152607) translate(11.268898, 0.000000) translate(0.477998, 0.000000)">
                                <mask id="1q8tyn6swt" fill="#fff">
                                    <use xlink:href="#cdsgooqttq"/>
                                </mask>
                                <use fill="url(#nqyfnzqwbr)" xlink:href="#cdsgooqttq"/>
                                <path fill="#F77524" d="M73.197 55.109c-.074.145-10.127.045-11.92.994-1.794.949-1.54 6.063-1.678 6.079-10.871 1.293-29.252 1.58-41.32.443-.19-.018-.05-4.914-1.622-5.781-1.572-.868-12.626-.99-12.777-1.284C2.427 52.733 1.54 49.169 1 45.505.875 44.67-3.052 19.199.484 19.069c8.305-.304 19.867 22.674 35.817 28.051 8.702 2.934 33.848-3.085 40.131-2.031 6.165 1.034-2.6 8.78-3.236 10.02z" filter="url(#9r1ta5teps)" mask="url(#1q8tyn6swt)" opacity=".25"/>
                                <path fill="#FFFADE" d="M55.389 32.598c-15.238.113-30.279-2.212-30.345-2.34-1.302-2.516-2.096-5.69-2.58-8.95-.11-.744-3.624-23.418-.46-23.533 7.433-.27 17.782 20.183 32.057 24.97 7.788 2.612 18.933 5.04 24.557 5.977 5.517.92-7.506 3.759-23.229 3.876z" filter="url(#u61ftiy20u)" mask="url(#1q8tyn6swt)" opacity=".4" transform="translate(50.296768, 15.187243) scale(-1, -1) translate(-50.296768, -15.187243)"/>
                                <g mask="url(#1q8tyn6swt)" opacity=".7">
                                    <use fill="#000" filter="url(#quvgsa2lwv)" xlink:href="#pnjt5ii6qw"/>
                                    <use fill="#BF4425" xlink:href="#pnjt5ii6qw"/>
                                </g>
                            </g>
                        </g>
                    </g>
                </g>
            </g>
        </g>
    </g>
</svg>
