<?xml version="1.0" encoding="UTF-8"?>
<svg width="32px" height="32px" viewBox="0 0 32 32" version="1.1" xmlns="http://www.w3.org/2000/svg" xmlns:xlink="http://www.w3.org/1999/xlink">
    <title>427B7AAB-1457-417A-BDBF-D38E6D62004B</title>
    <g id="STDS_Icon" stroke="none" stroke-width="1" fill="none" fill-rule="evenodd">
        <g id="state" transform="translate(-364.000000, -305.000000)" fill="#000000">
            <g id="ic_state_warning_circle_line" transform="translate(300.000000, 265.000000)">
                <g id="ic/state/warning_circle/line" transform="translate(64.000000, 40.000000)">
                    <g id="ic_state_warning_circle_line" transform="translate(2.000000, 2.000000)">
                        <path d="M14,0 C21.7319865,0 28,6.2680135 28,14 C28,21.7319865 21.7319865,28 14,28 C6.2680135,28 0,21.7319865 0,14 C0,6.2680135 6.2680135,0 14,0 Z M14,2 C7.372583,2 2,7.372583 2,14 C2,20.627417 7.372583,26 14,26 C20.627417,26 26,20.627417 26,14 C26,7.372583 20.627417,2 14,2 Z M14,18 C14.8284271,18 15.5,18.6715729 15.5,19.5 C15.5,20.3284271 14.8284271,21 14,21 C13.1715729,21 12.5,20.3284271 12.5,19.5 C12.5,18.6715729 13.1715729,18 14,18 Z M14,7 C14.5128358,7 14.9355072,7.38604019 14.9932723,7.88337887 L15,8 L15,15 C15,15.5522847 14.5522847,16 14,16 C13.4871642,16 13.0644928,15.6139598 13.0067277,15.1166211 L13,15 L13,8 C13,7.44771525 13.4477153,7 14,7 Z" id="Shape"></path>
                    </g>
                </g>
            </g>
        </g>
    </g>
</svg>