<svg xmlns="http://www.w3.org/2000/svg" xmlns:xlink="http://www.w3.org/1999/xlink" width="160" height="160" viewBox="0 0 160 160">
    <defs>
        <filter id="299p7h4jkc" width="156.2%" height="625%" x="-28.1%" y="-187.5%" filterUnits="objectBoundingBox">
            <feOffset dy="2" in="SourceAlpha" result="shadowOffsetOuter1"/>
            <feGaussianBlur in="shadowOffsetOuter1" result="shadowBlurOuter1" stdDeviation="2"/>
            <feColorMatrix in="shadowBlurOuter1" values="0 0 0 0 0 0 0 0 0 0 0 0 0 0 0 0 0 0 0.2 0"/>
        </filter>
        <filter id="apicahsdcf" width="116.1%" height="121.2%" x="-8%" y="-9%" filterUnits="objectBoundingBox">
            <feOffset dy="1" in="SourceAlpha" result="shadowOffsetOuter1"/>
            <feGaussianBlur in="shadowOffsetOuter1" result="shadowBlurOuter1" stdDeviation="2"/>
            <feColorMatrix in="shadowBlurOuter1" values="0 0 0 0 0.210315617 0 0 0 0 0.304936507 0 0 0 0 0.690698596 0 0 0 0.15 0"/>
        </filter>
        <filter id="fspqukvaih" width="167.5%" height="167.5%" x="-33.7%" y="-33.7%" filterUnits="objectBoundingBox">
            <feOffset in="SourceAlpha" result="shadowOffsetOuter1"/>
            <feGaussianBlur in="shadowOffsetOuter1" result="shadowBlurOuter1" stdDeviation=".5"/>
            <feColorMatrix in="shadowBlurOuter1" values="0 0 0 0 1 0 0 0 0 1 0 0 0 0 1 0 0 0 0.2 0"/>
        </filter>
        <filter id="rqseydi8kj" width="167.5%" height="167.5%" x="-33.8%" y="-33.7%" filterUnits="objectBoundingBox">
            <feOffset in="SourceAlpha" result="shadowOffsetOuter1"/>
            <feGaussianBlur in="shadowOffsetOuter1" result="shadowBlurOuter1" stdDeviation=".5"/>
            <feColorMatrix in="shadowBlurOuter1" values="0 0 0 0 1 0 0 0 0 1 0 0 0 0 1 0 0 0 0.2 0"/>
        </filter>
        <filter id="ez6tcqylml" width="167.5%" height="167.5%" x="-33.7%" y="-33.7%" filterUnits="objectBoundingBox">
            <feOffset in="SourceAlpha" result="shadowOffsetOuter1"/>
            <feGaussianBlur in="shadowOffsetOuter1" result="shadowBlurOuter1" stdDeviation=".5"/>
            <feColorMatrix in="shadowBlurOuter1" values="0 0 0 0 1 0 0 0 0 1 0 0 0 0 1 0 0 0 0.2 0"/>
        </filter>
        <filter id="pjun3y2xwo" width="116.1%" height="121.2%" x="-8%" y="-9%" filterUnits="objectBoundingBox">
            <feOffset dy="1" in="SourceAlpha" result="shadowOffsetOuter1"/>
            <feGaussianBlur in="shadowOffsetOuter1" result="shadowBlurOuter1" stdDeviation="2"/>
            <feColorMatrix in="shadowBlurOuter1" values="0 0 0 0 0.210315617 0 0 0 0 0.304936507 0 0 0 0 0.690698596 0 0 0 0.15 0"/>
        </filter>
        <filter id="ghbg8g4rcq" width="104.9%" height="113.4%" x="-2.4%" y="1.7%" filterUnits="objectBoundingBox">
            <feOffset dy="1" in="SourceAlpha" result="shadowOffsetOuter1"/>
            <feGaussianBlur in="shadowOffsetOuter1" result="shadowBlurOuter1" stdDeviation="3"/>
            <feColorMatrix in="shadowBlurOuter1" values="0 0 0 0 0.161255414 0 0 0 0 0.240589513 0 0 0 0 0.564028533 0 0 0 0.15 0"/>
        </filter>
        <filter id="4is8v3b81t" width="125.3%" height="133.8%" x="-12.7%" y="-16.9%" filterUnits="objectBoundingBox">
            <feOffset in="SourceAlpha" result="shadowOffsetOuter1"/>
            <feGaussianBlur in="shadowOffsetOuter1" result="shadowBlurOuter1" stdDeviation="1"/>
            <feColorMatrix in="shadowBlurOuter1" values="0 0 0 0 0.68529212 0 0 0 0 0.342992385 0 0 0 0 0.247909125 0 0 0 0.4 0"/>
        </filter>
        <path id="oy6cnetjla" d="M6.968 116.17c-2.817 0-5.102-2.285-5.102-5.103 0-2.817 2.285-5.102 5.102-5.102l4.66.002c-4.745-9.74-7.407-20.682-7.407-32.245C4.221 33.007 37.228 0 77.943 0c16.9 0 32.472 5.686 44.906 15.25l10.566.002c2.508 0 4.54 2.033 4.54 4.54 0 2.508-2.032 4.54-4.54 4.54h-.74.001-3.355c-2.529 0-4.592 1.994-4.705 4.495l-.004.215c0 2.601 2.108 4.71 4.71 4.71H151.184c2.817 0 5.102 2.284 5.102 5.102 0 2.818-2.285 5.102-5.102 5.102l-5.776-.001c4.022 9.104 6.256 19.174 6.256 29.767 0 40.716-33.006 73.722-73.722 73.722-15.168 0-29.267-4.58-40.988-12.435l-19.687-.001c-2.6 0-4.71-2.109-4.71-4.71s2.11-4.71 4.71-4.71H26.2c2.601 0 4.71-2.108 4.71-4.71 0-2.6-2.109-4.709-4.71-4.709H6.97zm-2.26 9.419c2.6 0 4.707 2.107 4.707 4.707v.004c0 2.6-2.107 4.708-4.707 4.708-2.6 0-4.708-2.108-4.708-4.708v-.004c0-2.6 2.108-4.707 4.708-4.707zM147.75 15.248c2.508 0 4.541 2.033 4.541 4.54 0 2.508-2.033 4.541-4.54 4.541-2.508 0-4.541-2.033-4.541-4.54 0-2.508 2.033-4.541 4.54-4.541z"/>
        <path id="jgoxrh59ne" d="M4 0h72.889c2.209 0 4 1.79 4 4v53.333c0 2.21-1.791 4-4 4H4c-2.21 0-4-1.79-4-4V4c0-2.21 1.79-4 4-4z"/>
        <path id="mnohl9i9ln" d="M4 0h72.889c2.209 0 4 1.79 4 4v53.333c0 2.21-1.791 4-4 4H4c-2.21 0-4-1.79-4-4V4c0-2.21 1.79-4 4-4z"/>
        <path id="o68x84upjr" d="M49.503 14.606l23.382 39.647c2.805 4.758 1.223 10.888-3.534 13.694-1.54.908-3.293 1.386-5.08 1.386H17.507c-5.523 0-10-4.477-10-10 0-1.786.479-3.54 1.386-5.08l23.382-39.647c2.806-4.757 8.937-6.34 13.694-3.534 1.458.86 2.674 2.076 3.534 3.534z"/>
        <path id="xupwlj5t2u" d="M36.867 54.873V37.547H36.5l-7.166 2.567v2.793l4.1-1.272v13.238h3.434zm10.326.238c1.799 0 3.22-.446 4.266-1.337 1.046-.891 1.569-2.105 1.569-3.642 0-.959-.246-1.793-.737-2.502-.49-.709-1.156-1.265-1.996-1.67.737-.387 1.315-.906 1.735-1.556.42-.65.63-1.394.63-2.234 0-1.49-.494-2.668-1.48-3.535-.986-.868-2.32-1.302-3.999-1.302-1.687 0-3.022.438-4.004 1.313-.983.876-1.474 2.05-1.474 3.524 0 .84.208 1.584.624 2.234.416.65.992 1.169 1.729 1.557-.832.396-1.493.95-1.985 1.663-.49.713-.736 1.55-.736 2.508 0 1.529.526 2.741 1.58 3.636s2.48 1.343 4.278 1.343zm0-10.481c-.65 0-1.152-.21-1.509-.63-.357-.42-.535-.974-.535-1.664 0-.697.178-1.244.535-1.64.357-.396.856-.594 1.497-.594.65 0 1.153.204 1.51.612.356.408.534.949.534 1.622 0 .69-.176 1.244-.529 1.664-.352.42-.853.63-1.503.63zm0 7.712c-.76 0-1.355-.226-1.782-.677-.428-.452-.642-1.046-.642-1.783 0-.76.218-1.364.654-1.812.435-.448 1.018-.671 1.746-.671.737 0 1.323.225 1.76.677.435.452.653 1.054.653 1.806 0 .769-.212 1.37-.636 1.807-.424.435-1.008.653-1.753.653z"/>
        <circle id="az2l10r6ri" cx="8.444" cy="6.667" r="2.222"/>
        <circle id="npsh8ld5sk" cx="15.556" cy="6.667" r="2.222"/>
        <circle id="qf20oijnwm" cx="23.556" cy="6.667" r="2.222"/>
        <linearGradient id="4bhd81hu4s" x1="83.534%" x2="21.217%" y1="32.458%" y2="93.864%">
            <stop offset="0%" stop-color="#FFE29A"/>
            <stop offset="49.885%" stop-color="#FB9D16"/>
            <stop offset="100%" stop-color="#EE8264"/>
            <stop offset="100%" stop-color="#EE8264"/>
        </linearGradient>
        <rect id="6igj86evbd" width="24.889" height="2.667" x="104.889" y="127.111" rx="1.333"/>
    </defs>
    <g fill="none" fill-rule="evenodd">
        <g>
            <g>
                <g>
                    <g transform="translate(-689.000000, -428.000000) translate(689.000000, 428.000000) translate(-0.000000, 0.000000) translate(1.777778, 2.666667)">
                        <mask id="ov402v6bhb" fill="#fff">
                            <use xlink:href="#oy6cnetjla"/>
                        </mask>
                        <g opacity=".7">
                            <use fill="#EBEDF4" xlink:href="#oy6cnetjla"/>
                            <use fill="#DAE3F5" fill-opacity=".1" xlink:href="#oy6cnetjla"/>
                        </g>
                        <g mask="url(#ov402v6bhb)">
                            <use fill="#000" filter="url(#299p7h4jkc)" xlink:href="#6igj86evbd"/>
                            <use fill="#816C60" xlink:href="#6igj86evbd"/>
                        </g>
                    </g>
                    <g>
                        <g transform="translate(-689.000000, -428.000000) translate(689.000000, 428.000000) translate(-0.000000, 0.000000) translate(32.000000, 25.777778) translate(16.000000, 30.222222)">
                            <mask id="jfw6wxfcmg" fill="#fff">
                                <use xlink:href="#jgoxrh59ne"/>
                            </mask>
                            <g>
                                <use fill="#000" filter="url(#apicahsdcf)" xlink:href="#jgoxrh59ne"/>
                                <use fill="#FFF" xlink:href="#jgoxrh59ne"/>
                            </g>
                            <rect width="35.556" height="7.111" x="15.111" y="21.333" fill="#D7E4FC" mask="url(#jfw6wxfcmg)" rx="3.556"/>
                            <rect width="22.222" height="7.111" x="15.111" y="32" fill="#D7E4FC" mask="url(#jfw6wxfcmg)" rx="3.556"/>
                            <g mask="url(#jfw6wxfcmg)">
                                <use fill="#000" filter="url(#fspqukvaih)" xlink:href="#az2l10r6ri"/>
                                <use fill="#D1DAFF" xlink:href="#az2l10r6ri"/>
                            </g>
                            <g mask="url(#jfw6wxfcmg)">
                                <use fill="#000" filter="url(#rqseydi8kj)" xlink:href="#npsh8ld5sk"/>
                                <use fill="#D1DAFF" xlink:href="#npsh8ld5sk"/>
                            </g>
                            <g mask="url(#jfw6wxfcmg)">
                                <use fill="#000" filter="url(#ez6tcqylml)" xlink:href="#qf20oijnwm"/>
                                <use fill="#D1DAFF" xlink:href="#qf20oijnwm"/>
                            </g>
                        </g>
                        <g transform="translate(-689.000000, -428.000000) translate(689.000000, 428.000000) translate(-0.000000, 0.000000) translate(32.000000, 25.777778) translate(0.000000, 16.000000)">
                            <mask id="2l994dsifp" fill="#fff">
                                <use xlink:href="#mnohl9i9ln"/>
                            </mask>
                            <g>
                                <use fill="#000" filter="url(#pjun3y2xwo)" xlink:href="#mnohl9i9ln"/>
                                <use fill="#FFF" xlink:href="#mnohl9i9ln"/>
                            </g>
                            <rect width="42.667" height="5.333" x="8.889" y="21.333" fill="#DEE7F8" mask="url(#2l994dsifp)" opacity=".7" rx="2"/>
                            <rect width="28.444" height="5.333" x="8.889" y="32" fill="#DEE7F8" mask="url(#2l994dsifp)" opacity=".7" rx="2"/>
                            <path fill="#8193D0" d="M-4.444 -3.556H83.556V11.555H-4.444z" mask="url(#2l994dsifp)" opacity=".5"/>
                            <circle cx="59.111" cy="5.778" r="2.222" fill="#D1DAFF" mask="url(#2l994dsifp)" opacity=".7"/>
                            <circle cx="66.222" cy="5.778" r="2.222" fill="#D1DAFF" mask="url(#2l994dsifp)" opacity=".7"/>
                            <circle cx="73.333" cy="5.778" r="2.222" fill="#D1DAFF" mask="url(#2l994dsifp)" opacity=".7"/>
                        </g>
                        <g>
                            <path fill="#816C60" d="M38.667 61.333H43.111000000000004V106.666H38.667z" transform="translate(-689.000000, -428.000000) translate(689.000000, 428.000000) translate(-0.000000, 0.000000) translate(32.000000, 25.777778) translate(46.222222, 0.000000)"/>
                            <g transform="translate(-689.000000, -428.000000) translate(689.000000, 428.000000) translate(-0.000000, 0.000000) translate(32.000000, 25.777778) translate(46.222222, 0.000000)">
                                <use fill="#000" filter="url(#ghbg8g4rcq)" xlink:href="#o68x84upjr"/>
                                <use fill="url(#4bhd81hu4s)" xlink:href="#o68x84upjr"/>
                            </g>
                            <g fill-rule="nonzero" transform="translate(-689.000000, -428.000000) translate(689.000000, 428.000000) translate(-0.000000, 0.000000) translate(32.000000, 25.777778) translate(46.222222, 0.000000)">
                                <use fill="#000" filter="url(#4is8v3b81t)" xlink:href="#xupwlj5t2u"/>
                                <use fill="#FFF" xlink:href="#xupwlj5t2u"/>
                                <use fill="#FFF" xlink:href="#xupwlj5t2u"/>
                            </g>
                        </g>
                    </g>
                </g>
            </g>
        </g>
    </g>
</svg>
