<svg xmlns="http://www.w3.org/2000/svg" width="32" height="32" viewBox="0 0 32 32">
    <g fill="none" fill-rule="evenodd">
        <g fill="#D6D6D6">
            <g>
                <g>
                    <path d="M21.36 8.515l.304.026.12.013.266.036.295.051.32.07c1.107.27 2.562.91 3.634 2.48l-.157.096-.237.164c-.031.022-.064.046-.097.072l-.216.171c-.873.726-2.237 2.244-2.216 4.629.028 2.596 1.46 4.092 2.515 4.844l.237.16.217.135.282.156.267.129.106.044-.092.289-.103.293-.144.376-.12.29-.138.318-.16.341-.087.18-.19.37c-.033.063-.067.126-.103.19l-.222.392c-.117.198-.242.4-.375.603l-.408.598-.275.39c-.97 1.35-2.042 2.51-3.59 2.534-.745.018-1.283-.16-1.802-.375l-.671-.286c-.537-.218-1.135-.407-1.983-.407-.977 0-1.636.23-2.239.481l-.445.19c-.517.217-1.04.41-1.744.44-1.303.043-2.372-.929-3.298-2.095l-.287-.373-.28-.38-.402-.573c-2.324-3.362-4.092-9.474-1.71-13.611 1.183-2.062 3.288-3.363 5.582-3.392.761-.02 1.505.202 2.19.457l1.111.432c.433.162.823.28 1.156.28.301 0 .67-.114 1.095-.274l.925-.358c.91-.346 1.99-.688 3.168-.596zM20.972 2c.16 1.519-.414 3.051-1.282 4.148-.868 1.097-2.284 1.955-3.66 1.842-.187-1.49.507-3.051 1.309-4.021.895-1.097 2.39-1.913 3.633-1.969z" transform="translate(-964 -485) translate(900 445) translate(64 40)"/>
                </g>
            </g>
        </g>
    </g>
</svg>
