<svg xmlns="http://www.w3.org/2000/svg" xmlns:xlink="http://www.w3.org/1999/xlink" width="32" height="32" viewBox="0 0 32 32">
    <defs>
        <path id="mfg0h6c2na" d="M5.779 2.191C10.843-1.193 17.563-.6 21.956 3.576l.237.232-3.536 3.535c-2.698-2.698-6.927-3.115-10.1-.995-3.174 2.12-4.407 6.187-2.947 9.713 1.46 3.526 5.208 5.529 8.951 4.784 2.808-.558 5.026-2.545 5.96-5.114l.08-.232H13v-5h13V13c0 6.202-4.382 11.54-10.464 12.75C9.454 26.96 3.364 23.704.99 17.974-1.382 12.244.622 5.636 5.779 2.191z"/>
    </defs>
    <g fill="none" fill-rule="evenodd">
        <g>
            <g>
                <g>
                    <g transform="translate(-964 -1205) translate(900 1165) translate(64 40) translate(3 3)">
                        <mask id="ldibnyqkkb" fill="#fff">
                            <use xlink:href="#mfg0h6c2na"/>
                        </mask>
                        <use fill="#000" xlink:href="#mfg0h6c2na"/>
                        <path fill="#4285F4" d="M28.592 8.27C28.859 9.472 29 10.72 29 12c0 .632-.034 1.256-.101 1.871-.48 4.402-2.634 8.333-5.85 11.212l-6.567-4.863-.707-.378c.204-.382.4-.808.598-1.28l.305-.745L17 17l-6.885-1.313V8.27h18.477z" mask="url(#ldibnyqkkb)"/>
                        <path fill="#34A853" d="M13 20.818c1.694 0 3.269-.548 4.578-1.488l4.71 3.894C19.817 25.574 16.564 27 13 27 7.407 27 2.58 23.486.338 18.406l4.786-3.841c1.025 3.62 4.163 6.253 7.876 6.253z" mask="url(#ldibnyqkkb)"/>
                        <path fill="#FBBC05" d="M.98 6.155l6.01 3.98c-.37.898-.572 1.862-.572 2.865 0 1.03.212 2.018.601 2.936L.99 19.86C-.283 17.804-1 15.472-1 13c0-2.466.714-4.793 1.98-6.845z" mask="url(#ldibnyqkkb)"/>
                        <path fill="#EA4335" d="M13-1c3.878 0 7.388 1.69 9.923 4.418l-4.065 4.388C17.366 6.186 15.292 5.182 13 5.182c-3.365 0-6.258 2.163-7.534 5.263L.71 6.81C3.087 2.156 7.7-1 13-1z" mask="url(#ldibnyqkkb)"/>
                    </g>
                </g>
            </g>
        </g>
    </g>
</svg>
