<svg xmlns="http://www.w3.org/2000/svg" width="32" height="32" viewBox="0 0 32 32">
    <g fill="none" fill-rule="evenodd">
        <g fill="#1FA1F1">
            <g>
                <g>
                    <path d="M30 7.723c-.992.462-2.06.774-3.18.913 1.144-.717 2.022-1.855 2.435-3.21-1.071.664-2.255 1.147-3.52 1.406C24.727 5.704 23.287 5 21.693 5c-3.058 0-5.538 2.6-5.538 5.806 0 .455.048.897.143 1.322-4.604-.242-8.685-2.551-11.418-6.068-.477.86-.75 1.859-.75 2.922 0 2.013.978 3.791 2.464 4.833-.906-.029-1.762-.293-2.51-.725v.072c0 2.814 1.91 5.161 4.445 5.693-.464.136-.954.204-1.46.204-.356 0-.704-.035-1.042-.103.705 2.306 2.75 3.985 5.174 4.03-1.895 1.559-4.285 2.487-6.88 2.487-.446 0-.888-.026-1.321-.08C5.452 27.038 8.365 28 11.491 28c10.19 0 15.761-8.846 15.761-16.52 0-.252-.005-.504-.014-.752C28.32 9.909 29.26 8.888 30 7.723" transform="translate(-964 -845) translate(900 805) translate(64 40)"/>
                </g>
            </g>
        </g>
    </g>
</svg>
