<svg xmlns="http://www.w3.org/2000/svg" width="32" height="32" viewBox="0 0 32 32">
    <g fill="none" fill-rule="evenodd">
        <g>
            <g>
                <g>
                    <path fill="#391B1B" d="M16 4C8.268 4 2 8.955 2 15.068c0 3.978 2.656 7.465 6.642 9.416-.293 1.093-1.06 3.96-1.215 4.574-.19.762.28.751.587.546.24-.16 3.836-2.604 5.387-3.66.842.125 1.71.192 2.599.192 7.732 0 14-4.956 14-11.068C30 8.955 23.732 4 16 4" transform="translate(-964 -1745) translate(900 1705) translate(64 40)"/>
                    <g fill="#FAE300">
                        <path d="M4.79.098H.697C.312.098 0 .41 0 .794c0 .385.312.697.696.697h1.331v4.904c0 .178.073.354.2.48.126.127.3.2.48.2h.148c.179 0 .353-.073.478-.199.127-.127.2-.301.2-.48V1.49h1.258c.385 0 .696-.312.696-.697 0-.384-.311-.696-.696-.696M14.838 5.765h-1.903V.755c0-.417-.338-.755-.755-.755-.418 0-.756.338-.756.756v5.399c0 .042.005.081.012.12-.008.04-.012.08-.012.121 0 .35.282.633.632.633h2.782c.35 0 .632-.283.632-.633 0-.348-.282-.631-.632-.631M20.953 5.995l-2.121-2.787 1.917-1.918c.26-.259.26-.68 0-.94-.26-.259-.68-.259-.941 0l-2.373 2.373V.756c0-.418-.338-.756-.755-.756-.418 0-.756.338-.756.756V6.32c0 .418.338.755.756.755.417 0 .755-.337.755-.755V4.604l.431-.431 2.007 2.633c.224.299.648.36.946.135.298-.224.358-.648.134-.946M6.676 4.368l.939-2.677.03.003.937 2.674H6.676zm3.974 1.808L8.61.594 8.602.588C8.472.248 8.096 0 7.646 0c-.498 0-.91.304-.991.703-.014.03-.028.06-.04.091L4.61 6.176c-.124.353.062.739.414.862.352.125.74-.061.863-.414l.347-.99h2.793l.347.99c.124.353.51.539.863.414.352-.123.537-.51.414-.862z" transform="translate(-964 -1745) translate(900 1705) translate(64 40) translate(5.4 11.71)"/>
                    </g>
                </g>
            </g>
        </g>
    </g>
</svg>
