<svg xmlns="http://www.w3.org/2000/svg" xmlns:xlink="http://www.w3.org/1999/xlink" width="160" height="160" viewBox="0 0 160 160">
    <defs>
        <filter id="xdjegkp1pb" width="120.9%" height="144.3%" x="-10.4%" y="-18.8%" filterUnits="objectBoundingBox">
            <feOffset dy="1" in="SourceAlpha" result="shadowOffsetOuter1"/>
            <feGaussianBlur in="shadowOffsetOuter1" result="shadowBlurOuter1" stdDeviation="2"/>
            <feColorMatrix in="shadowBlurOuter1" values="0 0 0 0 0.210315617 0 0 0 0 0.304936507 0 0 0 0 0.690698596 0 0 0 0.15 0"/>
        </filter>
        <filter id="bek27ezrfd" width="120.9%" height="144.3%" x="-10.4%" y="-18.7%" filterUnits="objectBoundingBox">
            <feOffset dy="1" in="SourceAlpha" result="shadowOffsetOuter1"/>
            <feGaussianBlur in="shadowOffsetOuter1" result="shadowBlurOuter1" stdDeviation="2"/>
            <feColorMatrix in="shadowBlurOuter1" values="0 0 0 0 0.210315617 0 0 0 0 0.304936507 0 0 0 0 0.690698596 0 0 0 0.15 0"/>
        </filter>
        <filter id="5tgxcug46g" width="243%" height="185.4%" x="-71.5%" y="-38.2%" filterUnits="objectBoundingBox">
            <feOffset dy="1" in="SourceAlpha" result="shadowOffsetOuter1"/>
            <feGaussianBlur in="shadowOffsetOuter1" result="shadowBlurOuter1" stdDeviation="3"/>
            <feColorMatrix in="shadowBlurOuter1" values="0 0 0 0 0.161255414 0 0 0 0 0.240589513 0 0 0 0 0.564028533 0 0 0 0.15 0"/>
        </filter>
        <filter id="rw83rc3n8j" width="123.5%" height="120%" x="-11.7%" y="-8.9%" filterUnits="objectBoundingBox">
            <feOffset dy="1" in="SourceAlpha" result="shadowOffsetOuter1"/>
            <feGaussianBlur in="shadowOffsetOuter1" result="shadowBlurOuter1" stdDeviation="3"/>
            <feColorMatrix in="shadowBlurOuter1" values="0 0 0 0 0.161255414 0 0 0 0 0.240589513 0 0 0 0 0.564028533 0 0 0 0.15 0"/>
        </filter>
        <filter id="ean6ooc6gl" width="157.4%" height="223.7%" x="-28.7%" y="-61.9%" filterUnits="objectBoundingBox">
            <feGaussianBlur in="SourceGraphic" stdDeviation="8"/>
        </filter>
        <filter id="8679vd8ckn" width="148.5%" height="162.3%" x="-24.3%" y="-31.1%" filterUnits="objectBoundingBox">
            <feGaussianBlur in="SourceGraphic" stdDeviation="7"/>
        </filter>
        <filter id="b7cbl1c6zo" width="106%" height="184.4%" x="-3%" y="-42.2%" filterUnits="objectBoundingBox">
            <feOffset in="SourceAlpha" result="shadowOffsetOuter1"/>
            <feGaussianBlur in="shadowOffsetOuter1" result="shadowBlurOuter1" stdDeviation=".5"/>
            <feColorMatrix in="shadowBlurOuter1" values="0 0 0 0 1 0 0 0 0 1 0 0 0 0 1 0 0 0 0.3 0"/>
        </filter>
        <filter id="eifo7mp6oq" width="110.5%" height="184.4%" x="-5.3%" y="-42.2%" filterUnits="objectBoundingBox">
            <feOffset in="SourceAlpha" result="shadowOffsetOuter1"/>
            <feGaussianBlur in="shadowOffsetOuter1" result="shadowBlurOuter1" stdDeviation=".5"/>
            <feColorMatrix in="shadowBlurOuter1" values="0 0 0 0 1 0 0 0 0 1 0 0 0 0 1 0 0 0 0.3 0"/>
        </filter>
        <filter id="1xd85cp7ts" width="104.9%" height="108.7%" x="-2.4%" y="-4.3%" filterUnits="objectBoundingBox">
            <feOffset in="SourceAlpha" result="shadowOffsetOuter1"/>
            <feGaussianBlur in="shadowOffsetOuter1" result="shadowBlurOuter1" stdDeviation=".5"/>
            <feColorMatrix in="shadowBlurOuter1" values="0 0 0 0 1 0 0 0 0 1 0 0 0 0 1 0 0 0 0.3 0"/>
        </filter>
        <filter id="wa9mzt7shu" width="117.8%" height="122.5%" x="-8.9%" y="-11.3%" filterUnits="objectBoundingBox">
            <feOffset in="SourceAlpha" result="shadowOffsetOuter1"/>
            <feGaussianBlur in="shadowOffsetOuter1" result="shadowBlurOuter1" stdDeviation=".5"/>
            <feColorMatrix in="shadowBlurOuter1" values="0 0 0 0 1 0 0 0 0 1 0 0 0 0 1 0 0 0 0.3 0"/>
        </filter>
        <filter id="b7h6qie11w" width="117.8%" height="122.5%" x="-8.9%" y="-11.3%" filterUnits="objectBoundingBox">
            <feOffset in="SourceAlpha" result="shadowOffsetOuter1"/>
            <feGaussianBlur in="shadowOffsetOuter1" result="shadowBlurOuter1" stdDeviation=".5"/>
            <feColorMatrix in="shadowBlurOuter1" values="0 0 0 0 1 0 0 0 0 1 0 0 0 0 1 0 0 0 0.3 0"/>
        </filter>
        <filter id="05hgxqzcpy" width="117.8%" height="122.5%" x="-8.9%" y="-11.3%" filterUnits="objectBoundingBox">
            <feOffset in="SourceAlpha" result="shadowOffsetOuter1"/>
            <feGaussianBlur in="shadowOffsetOuter1" result="shadowBlurOuter1" stdDeviation=".5"/>
            <feColorMatrix in="shadowBlurOuter1" values="0 0 0 0 1 0 0 0 0 1 0 0 0 0 1 0 0 0 0.3 0"/>
        </filter>
        <filter id="dm8jcktrsB" width="226.5%" height="221.7%" x="-63.3%" y="-54.4%" filterUnits="objectBoundingBox">
            <feOffset dy="1" in="SourceAlpha" result="shadowOffsetOuter1"/>
            <feGaussianBlur in="shadowOffsetOuter1" result="shadowBlurOuter1" stdDeviation="3"/>
            <feColorMatrix in="shadowBlurOuter1" values="0 0 0 0 0.161255414 0 0 0 0 0.240589513 0 0 0 0 0.564028533 0 0 0 0.15 0"/>
        </filter>
        <filter id="jguuvkv2yE" width="147%" height="142.5%" x="-23.5%" y="-19%" filterUnits="objectBoundingBox">
            <feOffset dy="1" in="SourceAlpha" result="shadowOffsetOuter1"/>
            <feGaussianBlur in="shadowOffsetOuter1" result="shadowBlurOuter1" stdDeviation="3"/>
            <feColorMatrix in="shadowBlurOuter1" values="0 0 0 0 0.161255414 0 0 0 0 0.240589513 0 0 0 0 0.564028533 0 0 0 0.15 0"/>
        </filter>
        <filter id="x5wn6j9yyH" width="161.8%" height="216.6%" x="-30.9%" y="-58.3%" filterUnits="objectBoundingBox">
            <feGaussianBlur in="SourceGraphic" stdDeviation="3"/>
        </filter>
        <rect id="u1tmh1g27c" width="62.222" height="29.333" x="0" y="0" rx="4"/>
        <rect id="hgt5ccrywe" width="62.222" height="29.333" x="0" y="0" rx="4"/>
        <rect id="xasbmc7rdp" width="49.778" height="3.556" x="8" y="50.667" rx="1.778"/>
        <rect id="nudhxrksyr" width="28.444" height="3.556" x="8" y="60.444" rx="1.778"/>
        <rect id="j5ael5sset" width="61.333" height="34.667" x="8" y="8" rx="2"/>
        <rect id="e9plb97r3v" width="16.889" height="13.333" x="8" y="71.111" rx="2"/>
        <rect id="u4tiwqyd6x" width="16.889" height="13.333" x="30.222" y="71.111" rx="2"/>
        <rect id="wxmvxbcuez" width="16.889" height="13.333" x="52.444" y="71.111" rx="2"/>
        <path id="jtxml2umba" d="M8.746 118.836c-2.818 0-5.102-2.284-5.102-5.102 0-2.818 2.284-5.102 5.102-5.102l4.66.002c-4.745-9.74-7.407-20.682-7.407-32.245 0-40.716 33.006-73.722 73.722-73.722 16.9 0 32.471 5.686 44.906 15.25l10.566.001c2.507 0 4.54 2.033 4.54 4.54 0 2.509-2.033 4.541-4.54 4.541l-.74-.001L131.1 27c-2.529 0-4.592 1.993-4.705 4.494l-.005.216c0 2.601 2.109 4.71 4.71 4.71h21.864c2.817 0 5.101 2.284 5.101 5.102 0 2.817-2.284 5.102-5.102 5.102l-5.775-.001c4.022 9.103 6.256 19.174 6.256 29.767 0 40.715-33.006 73.722-73.722 73.722-15.169 0-29.267-4.581-40.988-12.435l-19.687-.002c-2.6 0-4.71-2.108-4.71-4.71 0-2.6 2.11-4.709 4.71-4.709h8.93c2.602 0 4.71-2.108 4.71-4.71 0-2.6-2.108-4.709-4.71-4.709H8.747zm-2.26 9.42c2.6 0 4.707 2.107 4.707 4.707v.004c0 2.6-2.108 4.707-4.708 4.707s-4.707-2.107-4.707-4.707v-.004c0-2.6 2.107-4.708 4.707-4.708zM149.527 17.913c2.508 0 4.54 2.033 4.54 4.541 0 2.508-2.032 4.54-4.54 4.54s-4.54-2.032-4.54-4.54 2.032-4.54 4.54-4.54z"/>
        <path id="iav37sf0af" d="M73.828 73.778h9.283c2.21 0 4 1.79 4 4V89.38c0 3.668-2.973 6.641-6.641 6.641s-6.642-2.973-6.642-6.641V73.778z"/>
        <path id="r7pid5w9di" d="M4.621.627h67.556c2.209 0 4 1.79 4 4v76c.084 7.558 1.861 12.595 5.333 15.11-29.633.073-33.108-.063-70.257 0C4.373 95.633.829 90.596.62 80.628v-76c0-2.21 1.791-4 4-4z"/>
        <path id="awxo3eyz6A" d="M2.914.8C2.11 1.16-.089 16.24.098 16.374c.005.004 14.7-5.453 15.002-6.73C15.298 8.81 4.491.092 2.914.8z"/>
        <path id="35m1v53urD" d="M12.201 0.035L40.4 35.56 28.182 44.79 0 9.579z"/>
        <linearGradient id="2edstbo4ih" x1="67.831%" x2="32.169%" y1="0%" y2="79.94%">
            <stop offset="0%" stop-color="#C4D2FF"/>
            <stop offset="100%" stop-color="#728EE7"/>
        </linearGradient>
        <linearGradient id="pva4tgfwrk" x1="90.294%" x2="13.852%" y1="12.289%" y2="100%">
            <stop offset="0%" stop-color="#BECEFF"/>
            <stop offset="67.38%" stop-color="#AABEFE"/>
            <stop offset="100%" stop-color="#89A3F4"/>
        </linearGradient>
        <linearGradient id="wpk4rgo4tF" x1="-.496%" x2="90.743%" y1="-29.707%" y2="121.882%">
            <stop offset="0%" stop-color="#FFE29A"/>
            <stop offset="42.393%" stop-color="#FB9D16"/>
            <stop offset="100%" stop-color="#EE8264"/>
        </linearGradient>
    </defs>
    <g fill="none" fill-rule="evenodd">
        <g>
            <g>
                <g opacity=".7" transform="translate(-135.000000, -153.000000) translate(135.000000, 153.000000) translate(-0.000000, 0.000000)">
                    <use fill="#EBEDF4" xlink:href="#jtxml2umba"/>
                    <use fill="#DAE3F5" fill-opacity=".1" xlink:href="#jtxml2umba"/>
                </g>
                <g>
                    <g transform="translate(-135.000000, -153.000000) translate(135.000000, 153.000000) translate(-0.000000, 0.000000) translate(18.666667, 31.111111) translate(56.000000, 49.777778)">
                        <g>
                            <use fill="#000" filter="url(#xdjegkp1pb)" xlink:href="#u1tmh1g27c"/>
                            <use fill="#FFF" xlink:href="#u1tmh1g27c"/>
                        </g>
                        <circle cx="19.111" cy="14.667" r="6.667" fill="#D7E4FC"/>
                        <rect width="17.778" height="2.667" x="31.111" y="16" fill="#D7E4FC" opacity=".7" rx="1.333"/>
                        <rect width="26.667" height="3.556" x="25.778" y="9.778" fill="#D7E4FC" opacity=".7" rx="1.778"/>
                    </g>
                    <g transform="translate(-135.000000, -153.000000) translate(135.000000, 153.000000) translate(-0.000000, 0.000000) translate(18.666667, 31.111111) translate(0.000000, 23.111111)">
                        <g>
                            <use fill="#000" filter="url(#bek27ezrfd)" xlink:href="#hgt5ccrywe"/>
                            <use fill="#FFF" xlink:href="#hgt5ccrywe"/>
                        </g>
                        <circle cx="12.889" cy="14.667" r="6.667" fill="#D7E4FC" opacity=".7"/>
                        <rect width="17.778" height="2.667" x="22.222" y="16" fill="#D7E4FC" opacity=".7" rx="1.333"/>
                        <rect width="26.667" height="3.556" x="22.222" y="9.778" fill="#D7E4FC" opacity=".7" rx="1.778"/>
                    </g>
                    <g transform="translate(-135.000000, -153.000000) translate(135.000000, 153.000000) translate(-0.000000, 0.000000) translate(18.666667, 31.111111) translate(23.111111, 0.000000)">
                        <g fill-rule="nonzero">
                            <use fill="#000" filter="url(#5tgxcug46g)" xlink:href="#iav37sf0af"/>
                            <use fill="url(#2edstbo4ih)" xlink:href="#iav37sf0af"/>
                        </g>
                        <g>
                            <g transform="translate(0.267794, 0.262057) translate(0.000000, -0.000000)">
                                <mask id="hgotb4t2vm" fill="#fff">
                                    <use xlink:href="#r7pid5w9di"/>
                                </mask>
                                <g fill-rule="nonzero">
                                    <use fill="#000" filter="url(#rw83rc3n8j)" xlink:href="#r7pid5w9di"/>
                                    <use fill="url(#pva4tgfwrk)" xlink:href="#r7pid5w9di"/>
                                </g>
                                <path fill="#6481F5" d="M35.526 82.026c6.476 6.175 36.804 12.898 41.5 15.355 7.432 3.888 3.759-3.192 3.759-13.509 0-16.835 2.402-24.196-14.409-24.196-7.391 0-68.678-.293-68.277 3.411.51 4.72 28.055 10.004 37.427 18.94z" filter="url(#ean6ooc6gl)" mask="url(#hgotb4t2vm)" opacity=".1" transform="translate(39.894588, 79.066175) scale(-1, -1) translate(-39.894588, -79.066175)"/>
                                <path fill="#F6F8FF" d="M36.597 30.047c7.625 9.01 39.046 35.834 41.885 36.5 2.132.5 1.47-23.482 1.469-29.332 0-9.766 1.571-29.7-1.47-33.55C74.445-1.442 8.595-.87 1.537-.87-10.546-.87-6.51 20.125.12 26.248c2.593 2.395 34.237 1.153 36.476 3.799z" filter="url(#8679vd8ckn)" mask="url(#hgotb4t2vm)" opacity=".15"/>
                            </g>
                        </g>
                        <g opacity=".6">
                            <use fill="#000" filter="url(#b7cbl1c6zo)" xlink:href="#xasbmc7rdp"/>
                            <use fill="#FFF" xlink:href="#xasbmc7rdp"/>
                        </g>
                        <g opacity=".6">
                            <use fill="#000" filter="url(#eifo7mp6oq)" xlink:href="#nudhxrksyr"/>
                            <use fill="#FFF" xlink:href="#nudhxrksyr"/>
                        </g>
                        <g opacity=".6">
                            <use fill="#000" filter="url(#1xd85cp7ts)" xlink:href="#j5ael5sset"/>
                            <use fill="#FFF" xlink:href="#j5ael5sset"/>
                        </g>
                        <path fill="#B3C5FF" d="M39.826 19.914l6.963 11.314c.289.47.142 1.086-.328 1.376-.158.097-.339.148-.524.148H32.012c-.552 0-1-.448-1-1 0-.185.051-.366.148-.524l6.963-11.314c.29-.47.905-.617 1.375-.328.134.082.246.195.328.328z" opacity=".7" transform="translate(38.974359, 25.641026) rotate(90.000000) translate(-38.974359, -25.641026)"/>
                        <g opacity=".6">
                            <use fill="#000" filter="url(#wa9mzt7shu)" xlink:href="#e9plb97r3v"/>
                            <use fill="#FFF" xlink:href="#e9plb97r3v"/>
                        </g>
                        <g opacity=".6">
                            <use fill="#000" filter="url(#b7h6qie11w)" xlink:href="#u4tiwqyd6x"/>
                            <use fill="#FFF" xlink:href="#u4tiwqyd6x"/>
                        </g>
                        <g opacity=".6">
                            <use fill="#000" filter="url(#05hgxqzcpy)" xlink:href="#wxmvxbcuez"/>
                            <use fill="#FFF" xlink:href="#wxmvxbcuez"/>
                        </g>
                    </g>
                    <g>
                        <g transform="translate(-135.000000, -153.000000) translate(135.000000, 153.000000) translate(-0.000000, 0.000000) translate(18.666667, 31.111111) translate(100.073530, 45.575993) rotate(10.000000) translate(-100.073530, -45.575993) translate(77.851308, 19.353771) translate(0.000000, 35.347552)">
                            <mask id="k12njhmyhC" fill="#fff">
                                <use xlink:href="#awxo3eyz6A"/>
                            </mask>
                            <g>
                                <use fill="#000" filter="url(#dm8jcktrsB)" xlink:href="#awxo3eyz6A"/>
                                <use fill="#E0E6EC" xlink:href="#awxo3eyz6A"/>
                            </g>
                            <path fill="#294078" d="M0.893 9.853L-0.422 17.495 6.137 14.078z" mask="url(#k12njhmyhC)"/>
                            <path fill="#767676" d="M-0.46 17.318L6.815 3.086 11.98 7.355z" mask="url(#k12njhmyhC)" opacity=".08"/>
                        </g>
                        <g transform="translate(-135.000000, -153.000000) translate(135.000000, 153.000000) translate(-0.000000, 0.000000) translate(18.666667, 31.111111) translate(100.073530, 45.575993) rotate(10.000000) translate(-100.073530, -45.575993) translate(77.851308, 19.353771) translate(2.735303, 0.573275)">
                            <mask id="2fcws9b1lG" fill="#fff">
                                <use xlink:href="#35m1v53urD"/>
                            </mask>
                            <g transform="translate(20.200131, 22.412643) scale(-1, 1) translate(-20.200131, -22.412643)">
                                <use fill="#000" filter="url(#jguuvkv2yE)" xlink:href="#35m1v53urD"/>
                                <use fill="url(#wpk4rgo4tF)" xlink:href="#35m1v53urD"/>
                            </g>
                            <path fill="#C45A0D" d="M3.884 38.41L34.89 -0.566 39.347 2.877 8.923 42.415z" mask="url(#2fcws9b1lG)" opacity=".17"/>
                            <path d="M30.024 22.233c-7.47.06-17.509.57-17.541.501-.638-1.331-1.027-3.01-1.264-4.736-.054-.393-.798-10.633.753-10.694 3.644-.144 9.33 5.036 16.328 7.57 3.817 1.382 8.267 5.407 11.023 5.903 2.705.487-1.592 1.394-9.3 1.456z" filter="url(#x5wn6j9yyH)" mask="url(#2fcws9b1lG)" opacity=".1" transform="translate(25.564200, 15.020637) scale(-1, -1) rotate(-51.000000) translate(-25.564200, -15.020637)"/>
                        </g>
                    </g>
                </g>
            </g>
        </g>
    </g>
</svg>
