<?xml version="1.0" encoding="UTF-8"?>
<svg width="32px" height="32px" viewBox="0 0 32 32" version="1.1" xmlns="http://www.w3.org/2000/svg" xmlns:xlink="http://www.w3.org/1999/xlink">
    <title>488A80B9-FA56-46AA-9CF1-369CD3E21C97</title>
    <g id="STDS_Icon" stroke="none" stroke-width="1" fill="none" fill-rule="evenodd">
        <g id="object" transform="translate(-784.000000, -845.000000)" fill="#000000">
            <g id="ic_object_payment_fill" transform="translate(720.000000, 805.000000)">
                <g id="ic/object/payment/fill" transform="translate(64.000000, 40.000000)">
                    <g id="ic_object_payment_fill" transform="translate(2.000000, 5.000000)">
                        <path d="M28,9 L28,19 C28,20.6568542 26.6568542,22 25,22 L3,22 C1.34314575,22 0,20.6568542 0,19 L0,9 L28,9 Z M9,15 L6,15 C5.44771525,15 5,15.4477153 5,16 C5,16.5128358 5.38604019,16.9355072 5.88337887,16.9932723 L6,17 L9,17 C9.55228475,17 10,16.5522847 10,16 C10,15.4871642 9.61395981,15.0644928 9.11662113,15.0067277 L9,15 Z M25,0 C26.6568542,0 28,1.34314575 28,3 L28,7 L0,7 L0,3 C0,1.34314575 1.34314575,0 3,0 L25,0 Z" id="Shape"></path>
                    </g>
                </g>
            </g>
        </g>
    </g>
</svg>