<?xml version="1.0" encoding="UTF-8"?>
<svg width="32px" height="32px" viewBox="0 0 32 32" version="1.1" xmlns="http://www.w3.org/2000/svg" xmlns:xlink="http://www.w3.org/1999/xlink">
    <title>096C0898-026F-4AE4-B3C9-D9564D541DF7</title>
    <g id="STDS_Icon" stroke="none" stroke-width="1" fill="none" fill-rule="evenodd">
        <g id="object" transform="translate(-784.000000, -1025.000000)" fill="#000000">
            <g id="ic_object_delete_fill" transform="translate(720.000000, 985.000000)">
                <g id="ic/object/delete/fill" transform="translate(64.000000, 40.000000)">
                    <g id="ic_object_delete_fill" transform="translate(4.000000, 2.000000)">
                        <path d="M22,6 L22,23 C22,24.6568542 20.6568542,26 19,26 L5,26 C3.34314575,26 2,24.6568542 2,23 L2,6 L22,6 Z M9,10.5 C8.48716416,10.5 8.06449284,10.8860402 8.00672773,11.3833789 L8,11.5 L8,18.5 C8,19.0522847 8.44771525,19.5 9,19.5 C9.51283584,19.5 9.93550716,19.1139598 9.99327227,18.6166211 L10,18.5 L10,11.5 C10,10.9477153 9.55228475,10.5 9,10.5 Z M15,10.5 C14.4871642,10.5 14.0644928,10.8860402 14.0067277,11.3833789 L14,11.5 L14,18.5 C14,19.0522847 14.4477153,19.5 15,19.5 C15.5128358,19.5 15.9355072,19.1139598 15.9932723,18.6166211 L16,18.5 L16,11.5 C16,10.9477153 15.5522847,10.5 15,10.5 Z M1,6 C0.44771525,6 0,5.55228475 0,5 C0,4.44771525 0.44771525,4 1,4 L6,4 L6,3 C6,1.40231912 7.24891996,0.0963391206 8.82372721,0.00509269341 L9,0 L15,0 C16.5976809,0 17.9036609,1.24891996 17.9949073,2.82372721 L18,3 L18,4 L23,4 C23.5522847,4 24,4.44771525 24,5 C24,5.55228475 23.5522847,6 23,6 L1,6 Z M15,2 L9,2 C8.48716416,2 8.06449284,2.38604019 8.00672773,2.88337887 L8,3 L8,4 L16,4 L16,3 C16,2.48716416 15.6139598,2.06449284 15.1166211,2.00672773 L15,2 Z" id="Shape"></path>
                    </g>
                </g>
            </g>
        </g>
    </g>
</svg>