<?xml version="1.0" encoding="UTF-8"?>
<svg width="32px" height="32px" viewBox="0 0 32 32" version="1.1" xmlns="http://www.w3.org/2000/svg" xmlns:xlink="http://www.w3.org/1999/xlink">
    <title>B6AEF4A4-4A35-4317-9ADB-95A9F988C5AA</title>
    <g id="STDS_Icon" stroke="none" stroke-width="1" fill="none" fill-rule="evenodd">
        <g id="object" transform="translate(-784.000000, -1565.000000)" fill="#000000">
            <g id="ic_object_cash_circle_fill" transform="translate(720.000000, 1525.000000)">
                <g id="ic/object/cash_circle/fill" transform="translate(64.000000, 40.000000)">
                    <g id="ic_object_cash_circle_fill" transform="translate(2.000000, 2.000000)">
                        <path d="M14,0 C21.7319865,0 28,6.2680135 28,14 C28,21.7319865 21.7319865,28 14,28 C6.2680135,28 0,21.7319865 0,14 C0,6.2680135 6.2680135,0 14,0 Z M14.0470579,7 C12.2610591,7 11.0865606,7.56306033 10.4880891,8.74789024 C10.2445657,9.23000802 10.119463,9.67463438 10.0572605,10.3400239 L10.0367746,10.6003976 L10.0169327,11.0007195 L10.0054217,11.4545559 L10.0005144,11.9699405 L10,17.7047087 L10.0049927,17.8970364 C10.1045866,19.7972507 11.6863679,21 14.0470579,21 C16.4539153,21 17.995323,19.8481867 17.995323,17.9609625 C17.995323,17.4086777 17.5476078,16.9609625 16.995323,16.9609625 C16.4824872,16.9609625 16.0598158,17.3470027 16.0020507,17.8443414 L15.9912289,18.0544858 C15.9391113,18.6355372 15.384499,19 14.0470579,19 C12.6970254,19 12.0645849,18.5487073 12.0047159,17.8217558 L12,17.7047087 L12,12.3094213 L12.0049349,11.5387726 L12.0219449,10.9686698 L12.0415368,10.6568468 L12.0688116,10.3913115 C12.1107119,10.0649576 12.1755718,9.84304596 12.2732784,9.64961035 C12.4751141,9.25002414 12.8910181,9.0304494 13.8362837,9.0029487 L14.2510172,9.00176705 L14.6192625,9.01588475 C15.640061,9.07895276 15.9875006,9.32949 15.9990538,9.76155771 L15.9966289,9.96150896 C16.0224991,10.4615223 16.4196413,10.8737797 16.9314292,10.9065468 C17.4825855,10.9418343 17.9579921,10.5236401 17.9932797,9.97248384 C18.1203905,7.98714183 16.5955183,7 14.0470579,7 Z" id="Shape"></path>
                    </g>
                </g>
            </g>
        </g>
    </g>
</svg>