<?xml version="1.0" encoding="UTF-8"?>
<svg width="32px" height="32px" viewBox="0 0 32 32" version="1.1" xmlns="http://www.w3.org/2000/svg" xmlns:xlink="http://www.w3.org/1999/xlink">
    <title>D42805FD-4E50-4247-832B-1AAC57875C49</title>
    <g id="STDS_Icon" stroke="none" stroke-width="1" fill="none" fill-rule="evenodd">
        <g id="object" transform="translate(-784.000000, -305.000000)" fill="#000000">
            <g id="ic_object_cash_stove_fill" transform="translate(720.000000, 265.000000)">
                <g id="ic/object/cash_stove/fill" transform="translate(64.000000, 40.000000)">
                    <g id="ic_object_stove_cash_fill" transform="translate(2.000000, 2.000000)">
                        <path d="M14,0 C21.7319865,0 28,6.2680135 28,14 C28,21.7319865 21.7319865,28 14,28 C6.2680135,28 0,21.7319865 0,14 C0,6.2680135 6.2680135,0 14,0 Z M9.64761441,7.7 C7.85624427,7.7 6.66755434,8.42156666 6.12087065,9.62998919 C5.92484534,10.0632953 5.83909127,10.4599277 5.81239381,10.878179 L5.80372936,11.0893761 L5.80010743,11.6240922 C5.80369142,12.1159841 5.87418925,12.5618808 6.08653349,13.0537672 C6.5894095,14.2186583 7.69808856,14.932621 9.37664906,14.9951199 L9.81359275,15.0018933 C10.9911995,15.031138 11.29708,15.3419824 11.3780817,16.0778447 C11.386545,16.1547304 11.3922274,16.229122 11.3956611,16.3130247 L11.3991917,16.4475128 L11.3990366,16.6956907 L11.3934583,17.1445454 C11.3934583,17.8488206 10.8830733,18.3 9.64761441,18.3 C8.38214022,18.3 7.8598725,17.96416 7.80840242,17.4186149 L7.79740887,17.2091495 C7.73964376,16.7118108 7.31697244,16.3257706 6.8041366,16.3257706 C6.25185185,16.3257706 5.8041366,16.7734859 5.8041366,17.3257706 C5.8041366,19.1854314 7.31637045,20.3 9.64761441,20.3 C11.860206,20.3 13.2954035,19.0964856 13.3886249,17.3293381 L13.3934583,17.1445454 L13.3991749,16.6952924 L13.3986883,16.3819558 L13.3885111,16.1166648 L13.3660737,15.8590122 C13.1766032,14.1377605 12.0646097,13.0746891 9.86064188,13.0034205 L9.41946699,12.9959247 C8.51780038,12.9617988 8.10855054,12.691507 7.92274144,12.261088 C7.84166962,12.0732886 7.8073053,11.8769965 7.80122843,11.6457934 L7.80507772,11.0914313 C7.81445881,10.8564056 7.85330909,10.6527743 7.94307723,10.4543454 C8.15675184,9.98202621 8.62135439,9.7 9.64761441,9.7 C10.9188012,9.7 11.2816309,9.91625398 11.3662531,10.2462025 C11.3812768,10.304781 11.3904697,10.3662686 11.3951008,10.4472808 L11.3982582,10.5354165 L11.3934583,10.9577631 C11.3934583,11.5100478 11.8411735,11.9577631 12.3934583,11.9577631 C12.9062941,11.9577631 13.3289654,11.5717229 13.3867305,11.0743842 L13.3934583,10.9577631 L13.3990319,10.6022737 C13.3998605,10.2727503 13.3777919,10.0388068 13.3035526,9.74934186 C12.9633265,8.42277297 11.7506619,7.7 9.64761441,7.7 Z M18.4439207,7.7 C16.7635296,7.7 15.6513088,8.20463958 15.0730873,9.28805398 C14.8068625,9.78687971 14.6867945,10.2367994 14.6353952,10.9711974 L14.6206991,11.2269902 L14.6065532,11.6679847 L14.6006147,12.1753407 L14.6,17.2724927 L14.6051087,17.4563754 C14.7035985,19.2111151 16.2180425,20.3 18.4439207,20.3 C20.7169451,20.3 22.1956348,19.2542462 22.1956348,17.4988502 C22.1956348,16.9465654 21.7479196,16.4988502 21.1956348,16.4988502 C20.682799,16.4988502 20.2601276,16.8848904 20.2023625,17.3822291 L20.1912737,17.5762731 C20.141499,18.0070719 19.6597541,18.3 18.4439207,18.3 C17.211897,18.3 16.6593024,17.9312406 16.6045474,17.3681165 L16.6,17.2724927 L16.6,12.5066555 L16.6021343,12.0067975 L16.6148865,11.4525693 L16.6417805,11.0219233 L16.6544099,10.9016591 L16.6858372,10.6906855 C16.7216005,10.4976243 16.7708196,10.3547193 16.8375223,10.2297382 C17.0197099,9.88837305 17.4348823,9.7 18.4439207,9.7 C19.7838303,9.7 20.1848059,9.90462307 20.1988352,10.2609172 L20.1967563,10.4352361 C20.2208221,10.9353395 20.616474,11.3490273 21.1281404,11.3836409 C21.6791658,11.420917 22.1560783,11.0044409 22.1933545,10.4534156 C22.3189237,8.59721831 20.8545087,7.7 18.4439207,7.7 Z" id="Shape"></path>
                    </g>
                </g>
            </g>
        </g>
    </g>
</svg>