<?xml version="1.0" encoding="UTF-8"?>
<svg width="32px" height="32px" viewBox="0 0 32 32" version="1.1" xmlns="http://www.w3.org/2000/svg" xmlns:xlink="http://www.w3.org/1999/xlink">
    <title>E6DB9A2C-4B2E-438A-BD9C-B556D5189C13</title>
    <g id="STDS_Icon" stroke="none" stroke-width="1" fill="none" fill-rule="evenodd">
        <g id="object" transform="translate(-784.000000, -485.000000)" fill="#000000">
            <g id="ic_object_game_fill" transform="translate(720.000000, 445.000000)">
                <g id="ic/object/game/fill" transform="translate(64.000000, 40.000000)">
                    <g id="ic_object_game_fill" transform="translate(2.000000, 3.000000)">
                        <path d="M18.7867871,0 C23.4907739,0 27.3585742,3.66921691 27.6329329,8.33326774 L27.6444606,8.59338819 L27.9975607,20.4201487 C28.0742531,22.9888911 26.3388363,25.2594517 23.8394468,25.8608908 C21.4284282,26.4410649 18.970748,25.160931 18.0520805,22.8831484 L17.9705126,22.6667098 L17.187,20.435 L10.71,20.435 L9.93693242,22.6842813 C9.16142246,24.9400005 6.88998777,26.2915474 4.57161039,25.9467387 L4.3541692,25.9094189 L4.12992568,25.8603691 C1.72530904,25.2760855 0.0343516258,23.1392641 0.000512672403,20.6851284 L0.00222390187,20.4541612 L0.340788214,8.60473991 C0.47520573,3.90025771 4.26178907,0.138983011 8.93810051,0.00376458628 L9.1987934,0 L18.7867871,0 Z M9,7 C8.48716416,7 8.06449284,7.38604019 8.00672773,7.88337887 L8,8 L8,10 L6,10 L5.88337887,10.0067277 C5.38604019,10.0644928 5,10.4871642 5,11 C5,11.5128358 5.38604019,11.9355072 5.88337887,11.9932723 L6,12 L8,12 L8,14 L8.00672773,14.1166211 C8.06449284,14.6139598 8.48716416,15 9,15 C9.51283584,15 9.93550716,14.6139598 9.99327227,14.1166211 L10,14 L10,12 L12,12 L12.1166211,11.9932723 C12.6139598,11.9355072 13,11.5128358 13,11 C13,10.4871642 12.6139598,10.0644928 12.1166211,10.0067277 L12,10 L10,10 L10,8 L9.99327227,7.88337887 C9.93550716,7.38604019 9.51283584,7 9,7 Z M19,7 C16.790861,7 15,8.790861 15,11 C15,13.209139 16.790861,15 19,15 C21.209139,15 23,13.209139 23,11 C23,8.790861 21.209139,7 19,7 Z M19,9 C20.1045695,9 21,9.8954305 21,11 C21,12.1045695 20.1045695,13 19,13 C17.8954305,13 17,12.1045695 17,11 C17,9.8954305 17.8954305,9 19,9 Z" id="Shape"></path>
                    </g>
                </g>
            </g>
        </g>
    </g>
</svg>