<?xml version="1.0" encoding="UTF-8"?>
<svg width="32px" height="32px" viewBox="0 0 32 32" version="1.1" xmlns="http://www.w3.org/2000/svg" xmlns:xlink="http://www.w3.org/1999/xlink">
    <title>5F717255-76A3-48AA-A477-51EAA7FA8FAD</title>
    <g id="STDS_Icon" stroke="none" stroke-width="1" fill="none" fill-rule="evenodd">
        <g id="object" transform="translate(-784.000000, -1745.000000)" fill="#000000" fill-rule="nonzero">
            <g id="ic_object_notice_fill" transform="translate(720.000000, 1705.000000)">
                <g id="ic/object/notice/fill" transform="translate(64.000000, 40.000000)">
                    <g id="ic_object_notice_fill" transform="translate(2.000000, 3.000000)">
                        <path d="M5.16051541,20.5894807 C6.05958712,20.857037 7.01309816,21 8,21 L12,21 L12,23 C12,24.0543618 11.1841222,24.9181651 10.1492623,24.9945143 L10,25 L7.84775455,25 C6.88456592,25 6.05816433,24.3135865 5.88155146,23.3667344 C5.70986378,22.4462872 5.4696053,21.5205749 5.16051541,20.5894807 Z M12,3 L12.5656176,3 C12.9547254,3 13.3434022,2.99126589 13.7313622,2.97385409 C16.4015949,2.84917966 19.0359036,2.29700192 21.5334811,1.33720439 L22.0676742,1.12483841 L24.6199177,0.0760685417 C24.7037712,0.0416114285 24.7886624,0.0194014653 24.8729655,0.00834893045 L25,1.8438584e-12 C25.4924951,1.8438584e-12 25.9349237,0.369646589 25.9934496,0.884639428 L26,1.00102123 L26,21.0010212 C26,21.5347319 25.5937169,21.9403791 25.1129038,21.9956168 L24.9987758,22.0010446 C24.9087788,22.0016781 24.8192336,21.9894776 24.7300551,21.9641497 L24.6199177,21.9259739 L22.0676742,20.877204 C19.2302482,19.7112468 16.2040075,19.0780852 13.1404375,19.0076301 L12.5656176,19 L12,18.9999788 L12,3 Z M10,19 L8,19 C6.59460941,19 5.27386026,18.6376069 4.12610133,18.0011696 C3.95778225,17.907963 3.78937085,17.8063735 3.62515169,17.6989085 L3.45788661,17.5864206 L3.279,17.459 L3.03828307,17.2758688 L2.87088946,17.1396525 C2.77696287,17.0611074 2.68464046,16.9802406 2.5942305,16.8973219 C2.44922076,16.7642937 2.30943307,16.6263296 2.17494578,16.4835264 L1.97719996,16.2657045 L1.8250233,16.0865758 L1.73853529,15.9798576 C1.55848032,15.753752 1.39052981,15.517855 1.23551127,15.2729601 L1.08601703,15.0271205 L0.984,14.847 L0.836319529,14.5650924 L0.836319529,14.5650924 L0.750704014,14.387943 C0.714763178,14.311166 0.680090402,14.2339202 0.64661879,14.1560362 C0.580084398,14.0012205 0.518293506,13.8438754 0.461431494,13.6841889 L0.379858306,13.4429269 L0.310969958,13.2162823 C0.239295617,12.9671635 0.179403899,12.7130818 0.131931816,12.4546632 L0.068,12.048 L0.0508572552,11.9070776 L0.027,11.668 L0.0173177363,11.5306216 C0.00583149484,11.3551934 2.13162821e-13,11.1782777 2.13162821e-13,11 C2.13162821e-13,6.66508574 3.44783777,3.13545713 7.75082067,3.00380682 L8,3 L10,3 L10,19 Z" id="Shape"></path>
                    </g>
                </g>
            </g>
        </g>
    </g>
</svg>