<?xml version="1.0" encoding="UTF-8"?>
<svg width="32px" height="32px" viewBox="0 0 32 32" version="1.1" xmlns="http://www.w3.org/2000/svg" xmlns:xlink="http://www.w3.org/1999/xlink">
    <title>A6E2B271-D4BF-403E-B087-7623D88F2CBE</title>
    <g id="STDS_Icon" stroke="none" stroke-width="1" fill="none" fill-rule="evenodd">
        <g id="object" transform="translate(-784.000000, -1385.000000)" fill="#000000" fill-rule="nonzero">
            <g id="ic_object_coin_fill" transform="translate(720.000000, 1345.000000)">
                <g id="ic/object/coin/fill" transform="translate(64.000000, 40.000000)">
                    <g id="ic_object_coin_fill" transform="translate(4.000000, 3.000000)">
                        <path d="M0.00545454545,17.604875 C0.192,20.432875 5.49054545,22.7 12,22.7 C18.5110048,22.7 23.8110971,20.4314915 23.9950613,17.6021013 L24,17.45 L24,20.5 C24,23.7819316 18.578055,26 12,26 C5.68466609,26 0.426798949,23.9527915 0.0227129976,20.84179 L0.00550843089,20.6710499 L0,20.5 L0,17.45 L0.00545454545,17.604875 Z M24,7.45 L24,10.7 C24,13.59975 18.6272727,15.95 12,15.95 C5.48899522,15.95 0.188902879,13.6814915 0.00493872977,10.8521013 L0,10.7 L0,7.45 L0.00545454545,7.604875 C0.192,10.432875 5.49054545,12.7 12,12.7 C18.5110048,12.7 23.8110971,10.4314915 23.9950613,7.60210131 L24,7.45 Z M12,0 C18.3153339,0 23.5732011,2.0472085 23.977287,5.15821002 L23.9944916,5.3289501 L24,5.5 L24,5.7 C24,8.59975 18.6272727,10.95 12,10.95 C5.48899522,10.95 0.188902879,8.68149154 0.00493872977,5.85210131 L0,5.7 L0.000646951848,5.46403495 L0.00744827643,5.29303398 C0.235953356,2.12232921 5.56984183,0 12,0 Z M0,12.45 L0.00545454545,12.604875 C0.192,15.432875 5.49054545,17.7 12,17.7 C18.5110048,17.7 23.8110971,15.4314915 23.9950613,12.6021013 L24,12.45 L24,15.7 C24,18.59975 18.6272727,20.95 12,20.95 C5.48899522,20.95 0.188902879,18.6814915 0.00493872977,15.8521013 L0,15.7 L0,12.45 Z" id="Shape"></path>
                    </g>
                </g>
            </g>
        </g>
    </g>
</svg>