<?xml version="1.0" encoding="UTF-8"?>
<svg width="32px" height="32px" viewBox="0 0 32 32" version="1.1" xmlns="http://www.w3.org/2000/svg" xmlns:xlink="http://www.w3.org/1999/xlink">
    <title>E227DA6D-0BB0-4128-911B-669AC59C857F</title>
    <g id="STDS_Icon" stroke="none" stroke-width="1" fill="none" fill-rule="evenodd">
        <g id="community" transform="translate(-784.000000, -6965.000000)" fill="#000000">
            <g id="ic_community_attach_quotation_fill" transform="translate(720.000000, 6925.000000)">
                <g id="ic/community/attach_quotation/fill" transform="translate(64.000000, 40.000000)">
                    <g id="ic_community_attach_quotation_fill" transform="translate(4.000000, 4.000000)">
                        <path d="M21,0 C22.6568542,0 24,1.34314575 24,3 L24,21 C24,22.6568542 22.6568542,24 21,24 L3,24 C1.34314575,24 0,22.6568542 0,21 L0,3 C0,1.34314575 1.34314575,0 3,0 L21,0 Z M8.48067857,7 C6.83490513,7 5.5,8.34636665 5.5,10.0062707 C5.5,11.6661748 6.83490513,13.0125415 8.48067857,13.0125415 C8.62696954,13.0125415 8.76960324,12.9891799 8.91101785,12.9682774 C8.56728346,14.2550305 7.5976994,15.1669531 6.00226567,15.7040452 L6.32288672,17 C8.93070833,16.4536743 10.5679481,15.0003361 11.2346061,12.6399852 C11.3906498,12.0497971 11.4613571,11.490348 11.4881772,11.0120497 L11.4970955,10.7806078 L11.4970955,10.7806078 L11.5027746,10.3655219 L11.5027746,10.3655219 L11.5,9.85171509 L11.5,9.85171509 L11.4914761,9.7603817 L11.4914761,9.7603817 L11.4587536,9.52908897 C11.4515583,9.4851373 11.4434921,9.43848419 11.4345551,9.38912964 C11.14888,7.99957275 9.91189192,7 8.48067857,7 Z M15.4806786,7 C13.8349051,7 12.5,8.34636665 12.5,10.0062707 C12.5,11.6661748 13.8349051,13.0125415 15.4806786,13.0125415 C15.6269695,13.0125415 15.7696032,12.9891799 15.9110178,12.9682774 C15.5672835,14.2550305 14.5976994,15.1669531 13.0022657,15.7040452 L13.3228867,17 C15.9307083,16.4536743 17.5679481,15.0003361 18.2346061,12.6399852 C18.3906498,12.0497971 18.4613571,11.490348 18.4881772,11.0120497 L18.4970955,10.7806078 L18.4970955,10.7806078 L18.5027746,10.3655219 L18.5027746,10.3655219 L18.5,9.85171509 L18.5,9.85171509 L18.4914761,9.7603817 L18.4914761,9.7603817 L18.4587536,9.52908897 C18.4515583,9.4851373 18.4434921,9.43848419 18.4345551,9.38912964 C18.14888,7.99957275 16.9118919,7 15.4806786,7 Z" id="Shape"></path>
                    </g>
                </g>
            </g>
        </g>
    </g>
</svg>