<?xml version="1.0" encoding="UTF-8"?>
<svg width="32px" height="32px" viewBox="0 0 32 32" version="1.1" xmlns="http://www.w3.org/2000/svg" xmlns:xlink="http://www.w3.org/1999/xlink">
    <title>7166C041-5C43-469E-B151-EE6C1221F2C0</title>
    <g id="STDS_Icon" stroke="none" stroke-width="1" fill="none" fill-rule="evenodd">
        <g id="community" transform="translate(-784.000000, -5345.000000)" fill="#000000">
            <g id="ic_community_calendar_fill" transform="translate(720.000000, 5305.000000)">
                <g id="ic/community/calendar/fill" transform="translate(64.000000, 40.000000)">
                    <g id="ic_community_calendar_fill" transform="translate(4.000000, 2.000000)">
                        <path d="M24,10 L24,23 C24,24.6568542 22.6568542,26 21,26 L3,26 C1.34314575,26 0,24.6568542 0,23 L0,10 L24,10 Z M18,0 C18.5128358,0 18.9355072,0.38604019 18.9932723,0.883378875 L19,1 L19,2 L21,2 C22.6568542,2 24,3.34314575 24,5 L24,8 L0,8 L0,5 C0,3.34314575 1.34314575,2 3,2 L5,2 L5,1 C5,0.44771525 5.44771525,0 6,0 C6.51283584,0 6.93550716,0.38604019 6.99327227,0.883378875 L7,1 L7,2 L17,2 L17,1 C17,0.44771525 17.4477153,0 18,0 Z" id="Shape"></path>
                    </g>
                </g>
            </g>
        </g>
    </g>
</svg>