<?xml version="1.0" encoding="UTF-8"?>
<svg width="32px" height="32px" viewBox="0 0 32 32" version="1.1" xmlns="http://www.w3.org/2000/svg" xmlns:xlink="http://www.w3.org/1999/xlink">
    <title>1FB9B3E3-AEA6-420D-8D46-4562A109A85B</title>
    <g id="STDS_Icon" stroke="none" stroke-width="1" fill="none" fill-rule="evenodd">
        <g id="community" transform="translate(-784.000000, -8405.000000)" fill="#000000">
            <g id="ic_community_forum_fill" transform="translate(720.000000, 8365.000000)">
                <g id="ic/community/forum/fill" transform="translate(64.000000, 40.000000)">
                    <g id="ic_community_forum_fill" transform="translate(3.000000, 4.000000)">
                        <path d="M23.0000187,4 C24.5976996,4 25.9036796,5.24891996 25.994926,6.82372721 L26.0000187,7 L26.0000187,19 C26.0000187,20.5976809 24.7510988,21.9036609 23.1762915,21.9949073 L23.0000187,22 L18.414,22 L15.7071068,24.7071068 C15.3766631,25.0375504 14.8724945,25.0883879 14.4885971,24.8596192 L14.3871006,24.7902954 L14.2928932,24.7071068 L11.585,22 L7,22 C5.46149248,22 4.19347852,20.8418794 4.02018319,19.3498634 L4.00509269,19.1762728 L4,19 L4,7 C4,5.40231912 5.24891996,4.09633912 6.82372721,4.00509269 L7,4 L23.0000187,4 Z M16,0 C16.5522847,0 17,0.44771525 17,1 C17,1.51283584 16.6139598,1.93550716 16.1166211,1.99327227 L16,2 L6,2 C3.85780461,2 2.10892112,3.68396847 2.00489531,5.80035966 L2,6 L2,16 C2,16.5522847 1.55228475,17 1,17 C0.487164161,17 0.0644928393,16.6139598 0.00672773133,16.1166211 L0,16 L0,6 C0,2.76160306 2.56557489,0.122428238 5.77506174,0.00413847206 L6,0 L16,0 Z" id="Shape"></path>
                    </g>
                </g>
            </g>
        </g>
    </g>
</svg>