<?xml version="1.0" encoding="UTF-8"?>
<svg width="32px" height="32px" viewBox="0 0 32 32" version="1.1" xmlns="http://www.w3.org/2000/svg" xmlns:xlink="http://www.w3.org/1999/xlink">
    <title>6C976524-424B-4539-8909-0530D029844D</title>
    <g id="STDS_Icon" stroke="none" stroke-width="1" fill="none" fill-rule="evenodd">
        <g id="community" transform="translate(-784.000000, -8765.000000)" fill="#000000">
            <g id="ic_community_board_write_fill" transform="translate(720.000000, 8725.000000)">
                <g id="ic/community/board_write/fill" transform="translate(64.000000, 40.000000)">
                    <g id="ic_community_board_write_fill" transform="translate(4.000000, 3.000000)">
                        <path d="M21,0 C22.6568542,0 24.0000416,1.34314575 24.0000416,3 L24.0000416,8.34752886 C21.9443784,7.6166363 19.5785527,8.04096498 17.8955918,9.59695507 L17.7044909,9.78151321 L15.2462565,12.2597063 L8.78398528,18.7879353 L8.67805756,18.9036458 L8.6058848,18.9889751 L8.50862814,19.1136388 L8.39114947,19.2915467 C8.17085244,19.6555626 8.03915143,20.0669236 8.00744489,20.4922205 L7.99997727,20.7058755 L8.0215705,25.2836612 L8.02665352,25.4170501 L8.03348035,25.5124131 L8.04758285,25.6461203 L8.0770725,25.8173606 C8.08979135,25.8793204 8.10459898,25.9404641 8.12141578,26.0007195 L3,26 C1.34314575,26 1.70530257e-13,24.6568542 1.70530257e-13,23 L1.70530257e-13,3 C1.70530257e-13,1.34314575 1.34314575,0 3,0 L21,0 Z M10.2050853,20.1952287 L16.6609773,13.676 L22.3229773,19.338 L15.804773,25.7949148 C15.6981084,25.9006642 15.561318,25.9690295 15.414741,25.9916973 L15.3032911,26 L10.7257604,25.9784517 L10.6766053,25.9765383 L10.6766053,25.9765383 L10.6210624,25.9702582 L10.58413,25.963589 C10.5656904,25.9597496 10.5475143,25.9551926 10.5296321,25.9499487 L10.6210624,25.9702582 L10.5561625,25.9571678 L10.5561625,25.9571678 L10.4665611,25.9281509 L10.4665611,25.9281509 L10.3974556,25.8960809 L10.3974556,25.8960809 L10.296989,25.8312345 L10.296989,25.8312345 L10.2241423,25.7665435 L10.2241423,25.7665435 L10.1676724,25.7015924 L10.1676724,25.7015924 L10.1093906,25.6126454 L10.1093906,25.6126454 L10.0829566,25.5596643 L10.0829566,25.5596643 L10.0499304,25.4699553 L10.0499304,25.4699553 L10.0283751,25.3696028 L10.0215483,25.2742398 L9.99998472,20.6967106 L10.0082949,20.5852606 L10.0174953,20.5369636 L10.0174953,20.5369636 L10.0371261,20.4671834 L10.0371261,20.4671834 C10.0476747,20.4358796 10.0605435,20.4050681 10.0755374,20.3752776 L10.1329125,20.280558 L10.2050853,20.1952287 Z M22.3737501,10.0192591 L22.5460895,10.0398884 L22.5460895,10.0398884 L22.7772571,10.079502 L22.7772571,10.079502 L22.9070157,10.1078805 L22.9070157,10.1078805 L23.0627021,10.1479359 L23.0627021,10.1479359 L23.2580315,10.2077802 L23.2580315,10.2077802 L23.4355879,10.2718616 L23.4355879,10.2718616 L23.5707103,10.3271212 L23.5707103,10.3271212 L23.772012,10.4204825 L23.772012,10.4204825 L24.0007726,10.5438622 L24.0007726,10.5438622 C24.2290481,10.6767836 24.4467365,10.8337614 24.6504956,11.0150439 L24.8226093,11.1773955 C26.3403095,12.6950953 26.3908984,15.124339 24.9734045,16.703782 L24.8215302,16.864069 L23.7449773,17.93 L18.0689773,12.254 L19.1247608,11.1896445 L19.207604,11.1084186 L19.207604,11.1084186 L19.3648702,10.9661669 L19.4823794,10.8691197 L19.4823794,10.8691197 L19.3093875,11.0146602 L19.4245549,10.9159426 L19.4245549,10.9159426 L19.6079722,10.7732928 L19.6079722,10.7732928 L19.7328374,10.6854526 L19.7328374,10.6854526 L19.936567,10.55664 L19.936567,10.55664 L20.1425598,10.4429997 L20.1425598,10.4429997 L20.3447751,10.3461862 L20.3447751,10.3461862 L20.5906485,10.2464939 L20.5906485,10.2464939 L20.8544839,10.1598446 L20.8544839,10.1598446 L21.0871615,10.0997502 L21.0871615,10.0997502 L21.2477772,10.0667762 L21.2477772,10.0667762 L21.5225763,10.0258967 L21.5225763,10.0258967 L21.7543116,10.006274 L21.7543116,10.006274 C21.961111,9.99477262 22.168048,9.99910885 22.3737501,10.0192591 Z M9,12 L7,12 L6.88337887,12.0067277 C6.38604019,12.0644928 6,12.4871642 6,13 C6,13.5128358 6.38604019,13.9355072 6.88337887,13.9932723 L7,14 L9,14 L9.11662113,13.9932723 C9.61395981,13.9355072 10,13.5128358 10,13 C10,12.4477153 9.55228475,12 9,12 Z M14,7 L7,7 L6.88337887,7.00672773 C6.38604019,7.06449284 6,7.48716416 6,8 C6,8.51283584 6.38604019,8.93550716 6.88337887,8.99327227 L7,9 L14,9 L14.1166211,8.99327227 C14.6139598,8.93550716 15,8.51283584 15,8 C15,7.44771525 14.5522847,7 14,7 Z" id="Shape"></path>
                    </g>
                </g>
            </g>
        </g>
    </g>
</svg>