<?xml version="1.0" encoding="UTF-8"?>
<svg width="32px" height="32px" viewBox="0 0 32 32" version="1.1" xmlns="http://www.w3.org/2000/svg" xmlns:xlink="http://www.w3.org/1999/xlink">
    <title>1BFEA1E6-12AB-4192-A333-BD4CEE129A91</title>
    <g id="STDS_Icon" stroke="none" stroke-width="1" fill="none" fill-rule="evenodd">
        <g id="community" transform="translate(-784.000000, -3545.000000)" fill="#000000">
            <g id="ic_community_number_of_view_fill" transform="translate(720.000000, 3505.000000)">
                <g id="ic/community/number_of_view/fill" transform="translate(64.000000, 40.000000)">
                    <g id="ic_community_number_of_view_fill" transform="translate(2.000000, 4.000000)">
                        <path d="M14,0 C18.4169992,0 21.9941298,2.23027578 24.7784047,5.89504784 C25.7367821,7.15650192 26.5324498,8.50301651 27.1766547,9.84972541 C27.3460356,10.2038158 27.4959335,10.539549 27.6268233,10.8524558 L27.7513947,11.1575883 L27.8521551,11.4168274 L27.9474457,11.6800833 C28.0175181,11.8876055 28.0175181,12.1123945 27.9474457,12.3199167 L27.9230626,12.3902417 L27.7513947,12.8424117 C27.5937007,13.2386686 27.4024959,13.6781541 27.1766547,14.1502746 C26.5324498,15.4969835 25.7367821,16.8434981 24.7784047,18.1049522 C21.9941298,21.7697242 18.4169992,24 14,24 C9.58300083,24 6.0058702,21.7697242 3.22159532,18.1049522 C2.26321787,16.8434981 1.46755016,15.4969835 0.823345254,14.1502746 C0.653964351,13.7961842 0.504066471,13.460451 0.373176654,13.1475442 L0.248605267,12.8424117 L0.147844911,12.5831726 L0.0525543324,12.3199167 C-0.0175181108,12.1123945 -0.0175181108,11.8876055 0.0525543324,11.6800833 L0.0769374446,11.6097583 L0.248605267,11.1575883 C0.40629933,10.7613314 0.597504051,10.3218459 0.823345254,9.84972541 C1.46755016,8.50301651 2.26321787,7.15650192 3.22159532,5.89504784 C6.0058702,2.23027578 9.58300083,0 14,0 Z M14,6.0010525 C10.6862915,6.0010525 8,8.687344 8,12.0010525 C8,15.314761 10.6862915,18.0010525 14,18.0010525 C17.3137085,18.0010525 20,15.314761 20,12.0010525 C20,8.687344 17.3137085,6.0010525 14,6.0010525 Z M14,8.0010525 C16.209139,8.0010525 18,9.7919135 18,12.0010525 C18,14.2101915 16.209139,16.0010525 14,16.0010525 C11.790861,16.0010525 10,14.2101915 10,12.0010525 C10,9.7919135 11.790861,8.0010525 14,8.0010525 Z" id="Shape"></path>
                    </g>
                </g>
            </g>
        </g>
    </g>
</svg>