<?xml version="1.0" encoding="UTF-8"?>
<svg width="32px" height="32px" viewBox="0 0 32 32" version="1.1" xmlns="http://www.w3.org/2000/svg" xmlns:xlink="http://www.w3.org/1999/xlink">
    <title>5412508E-61CB-4A1D-BB93-FB551605600D</title>
    <g id="STDS_Icon" stroke="none" stroke-width="1" fill="none" fill-rule="evenodd">
        <g id="community" transform="translate(-784.000000, -6605.000000)" fill="#000000">
            <g id="ic_community_attach_survey_fill" transform="translate(720.000000, 6565.000000)">
                <g id="ic/community/attach_survey/fill" transform="translate(64.000000, 40.000000)">
                    <g id="ic_community_attach_survey_fill" transform="translate(4.000000, 4.000000)">
                        <path d="M24,7 L24,21 C24,22.5976809 22.75108,23.9036609 21.1762728,23.9949073 L21,24 L3,24 C1.40231912,24 0.0963391206,22.75108 0.00509269341,21.1762728 L0,21 L0,7 L24,7 Z M16.7071068,10.2928932 C16.3466228,9.93240926 15.7793918,9.90467972 15.3871006,10.2097046 L15.2928932,10.2928932 L10.5,15.085 L8.70710678,13.2928932 L8.61289944,13.2097046 C8.22060824,12.9046797 7.65337718,12.9324093 7.29289322,13.2928932 C6.93240926,13.6533772 6.90467972,14.2206082 7.20970461,14.6128994 L7.29289322,14.7071068 L9.79289322,17.2071068 L9.88710056,17.2902954 C10.2467008,17.5699015 10.7532992,17.5699015 11.1128994,17.2902954 L11.2071068,17.2071068 L16.7071068,11.7071068 L16.7902954,11.6128994 C17.0953203,11.2206082 17.0675907,10.6533772 16.7071068,10.2928932 Z M18.0387503,0 C18.885005,0 19.688654,0.357201467 20.2549701,0.978013631 L20.3813567,1.12591486 L23.48,5 L0.519,5 L3.61864327,1.12591486 C4.14729436,0.465100993 4.9282574,0.0606985354 5.76680511,0.0062982551 L5.96124969,0 L18.0387503,0 Z" id="Shape"></path>
                    </g>
                </g>
            </g>
        </g>
    </g>
</svg>