<?xml version="1.0" encoding="UTF-8"?>
<svg width="32px" height="32px" viewBox="0 0 32 32" version="1.1" xmlns="http://www.w3.org/2000/svg" xmlns:xlink="http://www.w3.org/1999/xlink">
    <title>B7D5EB09-7ECE-456B-B90D-A00335194518</title>
    <g id="STDS_Icon" stroke="none" stroke-width="1" fill="none" fill-rule="evenodd">
        <g id="community" transform="translate(-784.000000, -1565.000000)" fill="#000000">
            <g id="ic_community_friend_now_fill" transform="translate(720.000000, 1525.000000)">
                <g id="ic/community/friend_now/fill" transform="translate(64.000000, 40.000000)">
                    <g id="ic_community_friend_now_fill" transform="translate(3.000000, 4.000000)">
                        <path d="M10,14 C15.4292399,14 19.8479317,18.3266708 19.9961582,23.7200952 L20,24 L4.54747351e-13,24 C4.54747351e-13,18.4771525 4.4771525,14 10,14 Z M26.7071068,8.29289322 C27.0675907,8.65337718 27.0953203,9.22060824 26.7902954,9.61289944 L26.7071068,9.70710678 L21.2071068,15.2071068 C20.8466228,15.5675907 20.2793918,15.5953203 19.8871006,15.2902954 L19.7928932,15.2071068 L17.2928932,12.7071068 C16.9023689,12.3165825 16.9023689,11.6834175 17.2928932,11.2928932 C17.6533772,10.9324093 18.2206082,10.9046797 18.6128994,11.2097046 L18.7071068,11.2928932 L20.5,13.085 L25.2928932,8.29289322 C25.6834175,7.90236893 26.3165825,7.90236893 26.7071068,8.29289322 Z M10,0 C13.3137085,0 16,2.6862915 16,6 C16,9.3137085 13.3137085,12 10,12 C6.6862915,12 4,9.3137085 4,6 C4,2.6862915 6.6862915,0 10,0 Z" id="Shape"></path>
                    </g>
                </g>
            </g>
        </g>
    </g>
</svg>