<?xml version="1.0" encoding="UTF-8"?>
<svg width="32px" height="32px" viewBox="0 0 32 32" version="1.1" xmlns="http://www.w3.org/2000/svg" xmlns:xlink="http://www.w3.org/1999/xlink">
    <title>B08315D5-EE11-47E0-9238-9B09373BABBC</title>
    <g id="STDS_Icon" stroke="none" stroke-width="1" fill="none" fill-rule="evenodd">
        <g id="community" transform="translate(-784.000000, -6245.000000)" fill="#000000">
            <g id="ic_community_attach_image_fill" transform="translate(720.000000, 6205.000000)">
                <g id="ic/community/attach_image/fill" transform="translate(64.000000, 40.000000)">
                    <g id="ic_community_attach_image_fill" transform="translate(4.000000, 4.000000)">
                        <path d="M15.505,11.41 L24,19.905 L24,21 C24,22.6568542 22.6568542,24 21,24 L3,24 L2.917,23.997 L15.505,11.41 Z M21,0 C22.6568542,0 24,1.34314575 24,3 L24,17.075 L16.2120766,9.28792336 L16.1178693,9.20473475 C15.758269,8.9251286 15.2516707,8.9251286 14.8920704,9.20473475 L14.7978631,9.28792336 L0.92175943,23.1635477 C0.353605581,22.617659 0,21.850124 0,21 L0,3 C0,1.34314575 1.34314575,0 3,0 L21,0 Z M7.5,6 C6.67157288,6 6,6.67157288 6,7.5 C6,8.32842712 6.67157288,9 7.5,9 C8.32842712,9 9,8.32842712 9,7.5 C9,6.67157288 8.32842712,6 7.5,6 Z" id="Shape"></path>
                    </g>
                </g>
            </g>
        </g>
    </g>
</svg>