<?xml version="1.0" encoding="UTF-8"?>
<svg width="32px" height="32px" viewBox="0 0 32 32" version="1.1" xmlns="http://www.w3.org/2000/svg" xmlns:xlink="http://www.w3.org/1999/xlink">
    <title>A23BEAFC-9B1E-4D4F-B13A-997E00B9683F</title>
    <g id="STDS_Icon" stroke="none" stroke-width="1" fill="none" fill-rule="evenodd">
        <g id="community" transform="translate(-784.000000, -2645.000000)" fill="#000000">
            <g id="ic_community_like_fill" transform="translate(720.000000, 2605.000000)">
                <g id="ic/community/like/fill" transform="translate(64.000000, 40.000000)">
                    <g id="ic_community_like_fill" transform="translate(3.000000, 4.000000)">
                        <path d="M18.2280713,0.0061469102 C16.3384812,0.0838580409 14.5463138,0.895557557 13.2250454,2.27908593 L13.001,2.514 L12.7726201,2.27664964 C11.3841764,0.822754153 9.47162939,0 7.47293721,0 C5.47424504,0 3.56169805,0.822754153 2.17091551,2.27909044 C-0.723234619,5.32032679 -0.723234619,10.1436732 2.16970386,13.1836386 L12.2840279,23.6934216 C12.6775419,24.1023207 13.332075,24.1021731 13.7254046,23.6930967 L23.8267332,13.1873633 C26.7232346,10.1436732 26.7232346,5.32032679 23.8302961,2.28036144 C22.438297,0.822767146 20.5258013,0 18.5271828,0 L18.2280713,0.0061469102 Z" id="Path"></path>
                    </g>
                </g>
            </g>
        </g>
    </g>
</svg>