<?xml version="1.0" encoding="UTF-8"?>
<svg width="32px" height="32px" viewBox="0 0 32 32" version="1.1" xmlns="http://www.w3.org/2000/svg" xmlns:xlink="http://www.w3.org/1999/xlink">
    <title>30F64668-F2E9-4316-8EA5-1651E43C1796</title>
    <g id="STDS_Icon" stroke="none" stroke-width="1" fill="none" fill-rule="evenodd">
        <g id="community" transform="translate(-784.000000, -4625.000000)" fill="#000000">
            <g id="ic_community_reply_fill" transform="translate(720.000000, 4585.000000)">
                <g id="ic/community/reply/fill" transform="translate(64.000000, 40.000000)">
                    <g id="ic_community_reply_fill" transform="translate(3.000000, 3.000000)">
                        <path d="M13,0 C20.1797017,0 26,5.82029825 26,13 C26,20.1797017 20.1797017,26 13,26 C10.9885094,26 9.04111875,25.5419885 7.27623345,24.6751407 L7.229,24.651 L2.78897684,25.5802673 C1.80852722,25.7852274 0.845747094,25.234247 0.50629034,24.3235421 L0.457960178,24.176815 L0.422047891,24.0318334 C0.376908043,23.8159019 0.367880073,23.5943692 0.394962083,23.3762062 L0.422044181,23.2133561 L1.35,18.773 L1.32636454,18.7268306 C0.582521394,17.213389 0.13936602,15.5656444 0.0279306712,13.8582956 L0.00700062627,13.4302599 L0,13 C0,5.82029825 5.82029825,0 13,0 Z M17,11.5 C16.1715729,11.5 15.5,12.1715729 15.5,13 C15.5,13.8284271 16.1715729,14.5 17,14.5 C17.8284271,14.5 18.5,13.8284271 18.5,13 C18.5,12.1715729 17.8284271,11.5 17,11.5 Z M9,11.5 C8.17157288,11.5 7.5,12.1715729 7.5,13 C7.5,13.8284271 8.17157288,14.5 9,14.5 C9.82842712,14.5 10.5,13.8284271 10.5,13 C10.5,12.1715729 9.82842712,11.5 9,11.5 Z" id="Shape"></path>
                    </g>
                </g>
            </g>
        </g>
    </g>
</svg>