<?xml version="1.0" encoding="UTF-8"?>
<svg width="32px" height="32px" viewBox="0 0 32 32" version="1.1" xmlns="http://www.w3.org/2000/svg" xmlns:xlink="http://www.w3.org/1999/xlink">
    <title>13C4EE9C-612B-4C13-AEE0-A3C5B9F0B143</title>
    <g id="STDS_Icon" stroke="none" stroke-width="1" fill="none" fill-rule="evenodd">
        <g id="community" transform="translate(-784.000000, -2825.000000)" fill="#000000">
            <g id="ic_community_pin_fill" transform="translate(720.000000, 2785.000000)">
                <g id="ic/community/pin/fill" transform="translate(64.000000, 40.000000)">
                    <g id="ic_community_pin_fill" transform="translate(3.000000, 3.000000)">
                        <path d="M16.3338813,0.293179167 C16.6944255,-0.0676567309 17.262037,-0.0954133385 17.6544378,0.209909345 L17.7486665,0.293179167 L25.7073926,8.25834346 C26.0675248,8.61876696 26.0952273,9.1856177 25.7905,9.57779923 L25.7073926,9.67198513 L20.25,15.133 L17.2660895,25.2821142 C17.0756908,25.9295995 16.330851,26.1859427 15.7907669,25.8576945 L15.6920859,25.78925 L15.599316,25.7068208 L8.65545575,18.758 L2.70710678,24.7071068 C2.31658249,25.0976311 1.68341751,25.0976311 1.29289322,24.7071068 C0.932409257,24.3466228 0.904679722,23.7793918 1.20970461,23.3871006 L1.29289322,23.2928932 L7.24245575,17.342 L0.292607386,10.3877299 C-0.214527982,9.88018425 -0.0333176046,9.03468412 0.602689516,8.76285511 L0.719599603,8.7210259 L10.877,5.753 L16.3338813,0.293179167 Z" id="Path"></path>
                    </g>
                </g>
            </g>
        </g>
    </g>
</svg>