<?xml version="1.0" encoding="UTF-8"?>
<svg width="32px" height="32px" viewBox="0 0 32 32" version="1.1" xmlns="http://www.w3.org/2000/svg" xmlns:xlink="http://www.w3.org/1999/xlink">
    <title>5B948D9F-0C8B-4953-8D34-E8F7D72EE3CD</title>
    <g id="STDS_Icon" stroke="none" stroke-width="1" fill="none" fill-rule="evenodd">
        <g id="community" transform="translate(-784.000000, -8585.000000)" fill="#000000">
            <g id="ic_community_board_fill" transform="translate(720.000000, 8545.000000)">
                <g id="ic/community/board/fill" transform="translate(64.000000, 40.000000)">
                    <g id="ic_community_board_fill" transform="translate(4.000000, 3.000000)">
                        <path d="M21,0 C22.6568542,0 24,1.34314575 24,3 L24,23 C24,24.6568542 22.6568542,26 21,26 L3,26 C1.34314575,26 0,24.6568542 0,23 L0,3 C0,1.34314575 1.34314575,0 3,0 L21,0 Z M11,17 L7,17 L6.88337887,17.0067277 C6.38604019,17.0644928 6,17.4871642 6,18 C6,18.5128358 6.38604019,18.9355072 6.88337887,18.9932723 L7,19 L11,19 L11.1166211,18.9932723 C11.6139598,18.9355072 12,18.5128358 12,18 C12,17.4871642 11.6139598,17.0644928 11.1166211,17.0067277 L11,17 Z M17,12 L7,12 L6.88337887,12.0067277 C6.38604019,12.0644928 6,12.4871642 6,13 C6,13.5128358 6.38604019,13.9355072 6.88337887,13.9932723 L7,14 L17,14 L17.1166211,13.9932723 C17.6139598,13.9355072 18,13.5128358 18,13 C18,12.4871642 17.6139598,12.0644928 17.1166211,12.0067277 L17,12 Z M17,7 L7,7 L6.88337887,7.00672773 C6.38604019,7.06449284 6,7.48716416 6,8 C6,8.51283584 6.38604019,8.93550716 6.88337887,8.99327227 L7,9 L17,9 L17.1166211,8.99327227 C17.6139598,8.93550716 18,8.51283584 18,8 C18,7.48716416 17.6139598,7.06449284 17.1166211,7.00672773 L17,7 Z" id="Shape"></path>
                    </g>
                </g>
            </g>
        </g>
    </g>
</svg>