<?xml version="1.0" encoding="UTF-8"?>
<svg width="32px" height="32px" viewBox="0 0 32 32" version="1.1" xmlns="http://www.w3.org/2000/svg" xmlns:xlink="http://www.w3.org/1999/xlink">
    <title>4006DA3B-0F78-481B-972A-1298056E95FE</title>
    <g id="STDS_Icon" stroke="none" stroke-width="1" fill="none" fill-rule="evenodd">
        <g id="logo" transform="translate(-364.000000, -1385.000000)" fill="#000000">
            <g id="ic_logo_instagram_line" transform="translate(300.000000, 1345.000000)">
                <g id="ic/logo/instagram/line" transform="translate(64.000000, 40.000000)">
                    <g id="ic_logo_instagram_line" transform="translate(3.000000, 3.000000)">
                        <path d="M18,0 C22.3349143,0 25.8645429,3.44783777 25.9961932,7.75082067 L26,8 L26,18 C26,22.3349143 22.5521622,25.8645429 18.2491793,25.9961932 L18,26 L8,26 C3.66508574,26 0.135457134,22.5521622 0.00380682464,18.2491793 L0,18 L0,8 C0,3.66508574 3.44783777,0.135457134 7.75082067,0.00380682464 L8,0 L18,0 Z M18,2 L8,2 C4.76160306,2 2.12242824,4.56557489 2.00413847,7.77506174 L2,8 L2,18 C2,21.2383969 4.56557489,23.8775718 7.77506174,23.9958615 L8,24 L18,24 C21.2383969,24 23.8775718,21.4344251 23.9958615,18.2249383 L24,18 L24,8 C24,4.6862915 21.3137085,2 18,2 Z M13,6.5 C16.5898509,6.5 19.5,9.41014913 19.5,13 C19.5,16.5898509 16.5898509,19.5 13,19.5 C9.41014913,19.5 6.5,16.5898509 6.5,13 C6.5,9.41014913 9.41014913,6.5 13,6.5 Z M13,8.5 C10.5147186,8.5 8.5,10.5147186 8.5,13 C8.5,15.4852814 10.5147186,17.5 13,17.5 C15.4852814,17.5 17.5,15.4852814 17.5,13 C17.5,10.5147186 15.4852814,8.5 13,8.5 Z M20,4.5 C20.8284271,4.5 21.5,5.17157288 21.5,6 C21.5,6.82842712 20.8284271,7.5 20,7.5 C19.1715729,7.5 18.5,6.82842712 18.5,6 C18.5,5.17157288 19.1715729,4.5 20,4.5 Z" id="Shape"></path>
                    </g>
                </g>
            </g>
        </g>
    </g>
</svg>