<?xml version="1.0" encoding="UTF-8"?>
<svg width="32px" height="32px" viewBox="0 0 32 32" version="1.1" xmlns="http://www.w3.org/2000/svg" xmlns:xlink="http://www.w3.org/1999/xlink">
    <title>895B44B4-3EED-456E-BFE7-90360359FBD8</title>
    <g id="STDS_Icon" stroke="none" stroke-width="1" fill="none" fill-rule="evenodd">
        <g id="logo" transform="translate(-364.000000, -305.000000)" fill="#000000">
            <g id="ic_logo_window_line" transform="translate(300.000000, 265.000000)">
                <g id="ic/logo/window/line" transform="translate(64.000000, 40.000000)">
                    <g id="ic_logo_window_line" transform="translate(4.000000, 4.000000)">
                        <path d="M24,12.5 L24,24 L11,22.179 L11,12.5 L24,12.5 Z M10,12.5 L10,22.039 L0,20.64 L0,12.5 L10,12.5 Z M22,14.5 L13,14.5 L13,20.439 L22,21.7 L22,14.5 Z M8,14.5 L2,14.5 L2,18.9 L8,19.739 L8,14.5 Z M10,1.96 L10,11.5 L0,11.5 L0,3.36 L10,1.96 Z M24,0 L24,11.5 L11,11.5 L11,1.82 L24,0 Z M8,4.259 L2,5.099 L2,9.5 L8,9.5 L8,4.259 Z M22,2.299 L13,3.559 L13,9.5 L22,9.5 L22,2.299 Z" id="Shape"></path>
                    </g>
                </g>
            </g>
        </g>
    </g>
</svg>