<svg xmlns="http://www.w3.org/2000/svg" width="140" height="32" viewBox="0 0 140 32">
    <g fill="none" fill-rule="evenodd">
        <g fill="#FF5000">
            <g>
                <g>
                    <path d="M67.938.147c8.82 0 15.969 7.13 15.969 15.926S76.757 32 67.938 32C59.12 32 51.97 24.87 51.97 16.073 51.97 7.277 59.12.147 67.938.147zM12.753.009l.524.008c2.587.068 7.068.644 8.903 2.473.759.758 1.133 1.693 1.133 2.896 0 1.871-1.279 3.266-3.334 3.266-.4 0-.89-.1-1.465-.245l-1.356-.359-.612-.153c-1.156-.279-2.503-.528-4.016-.528l-.22.002-.427.01c-.14.005-.276.012-.409.02l-.388.035c-1.384.15-2.312.583-2.312 1.606 0 .275.074.54.288.86.084.125.192.25.324.37l.15.127c.228.193.519.364.86.522l.306.132.33.126.172.062.361.119.38.116.604.17.858.225 1.613.41.72.192.486.136.488.143.49.15.244.08.489.165.485.177c3.546 1.337 6.732 3.637 6.732 8.698 0 6.727-5.79 9.89-12.981 9.89-.34 0-.689-.009-1.045-.027l-.539-.034-.548-.048c-.183-.018-.368-.038-.553-.061l-.558-.076C4.55 31.017 0 29.08 0 25.674c0-1.961 1.267-3.651 3.322-3.651.595 0 1.265.217 2.047.52l1.534.611c1.579.61 3.542 1.24 6.071 1.24 2.7 0 3.976-.582 3.976-1.795 0-.579-.224-.909-.581-1.266-.405-.385-1.003-.708-1.732-1.006l-.375-.147-.395-.143-.413-.142-.651-.21-2.367-.725-.747-.238-.754-.254-.503-.18-.502-.188c-.418-.162-.832-.334-1.238-.52l-.485-.23C3.168 15.847.67 13.5.67 9.144.67 3.487 5.651.01 12.753.01zM129.3.002l.849.013 1.01.03.735.034.766.046c1.936.13 3.996.395 4.997.922 1.56.82 2.502 2.297 2.32 4.025-.23 2.213-2.049 3.168-4.244 3.01l-1.022-.097-.81-.065-.758-.052-.872-.05-.97-.043-.695-.023-.727-.016-.757-.01h-.644l-.608.014-.706.028-.637.036-.47.032-.764.063-.543.054-.566.063c-.307.037-.547.276-.592.573l-.008.101v3.625h10.092c1.975 0 3.7 1.589 3.719 3.557-.02 1.905-1.634 3.454-3.529 3.552l-.19.005h-10.092v3.625c0 .343.259.633.6.673l.568.064.808.077.743.058.667.04.75.033.845.02.939-.005.742-.013.712-.02.676-.025.94-.046.835-.05 1.302-.1.809-.078c2.289-.238 4.219.706 4.458 2.99.181 1.728-.761 3.205-2.321 4.025-.934.492-2.79.755-4.609.895l-.774.052-.752.04-.714.027-.66.018-.848.013-.448.002-.813-.004-.756-.012-.703-.019-.655-.026-.611-.033-.57-.039-.535-.045-.502-.05-.474-.055-.668-.09-.627-.1-.403-.07c-1.87-.345-3.123-1.141-3.954-2.175-1.247-1.548-1.552-3.629-1.579-5.523l-.002-.297V8.538c0-1.97.269-4.19 1.58-5.82.832-1.034 2.085-1.83 3.955-2.174l.403-.07.627-.1.668-.091.474-.055.502-.05.815-.065.59-.036.632-.03.68-.022.357-.01.756-.011.4-.003h.86zm-20.14.404c1.5 0 4.078 1.31 4.078 4.338 0 6.596-4.666 19.937-10.012 25.269-1.108 1.104-2.523 1.694-3.957 1.676-1.434.018-2.85-.572-3.957-1.676C89.966 24.68 85.3 11.34 85.3 4.743c0-3.027 2.498-4.337 4.077-4.337 2.734 0 3.655 1.687 4.055 3.887l.068.405c.91 5.921 2.773 11.503 5.351 17.118l.356.766h.123c2.643-5.618 4.582-11.187 5.578-17.078l.13-.806c.363-2.394 1.223-4.292 4.123-4.292zM39.416.318l.727.006.705.012 1.013.026.956.037.898.043 1.1.068.985.074 1.056.094.85.089 1.028.129.142.021c2.573.432 4.105 2.21 3.873 4.418-.224 2.138-1.998 3.333-4.12 3.198l-1.912-.125-2.311-.12-1.371-.057v19.822c0 2.666-2.15 3.633-4.189 3.633-1.933 0-3.843-.91-3.957-3.395l-.005-.238V8.231l-1.982.094-3.315.19c-2.216.23-4.033-.97-4.264-3.18-.225-2.142 1.32-3.915 3.666-4.378l.316-.053L30.42.768l.871-.09 1.075-.094 1.258-.091.837-.05.892-.044.945-.037.993-.026.687-.012.705-.006h.732zM67.93 8.05c-4.452 0-8.06 3.599-8.06 8.038 0 4.44 3.608 8.039 8.06 8.039 4.451 0 8.06-3.6 8.06-8.039 0-4.44-3.609-8.038-8.06-8.038z" transform="translate(-909 -2105) translate(900 2065) translate(9 40)"/>
                </g>
            </g>
        </g>
    </g>
</svg>
