<svg xmlns="http://www.w3.org/2000/svg" width="28" height="32" viewBox="0 0 28 32">
    <g fill="none" fill-rule="evenodd">
        <path fill="#D6D6D6" fill-rule="nonzero" d="M25 0a3 3 0 0 1 3 3v26a3 3 0 0 1-3 3H3a3 3 0 0 1-3-3V3a3 3 0 0 1 3-3h22zm0 2H3a1 1 0 0 0-.993.883L2 3v26a1 1 0 0 0 .883.993L3 30h22a1 1 0 0 0 .993-.883L26 29V3a1 1 0 0 0-.883-.993L25 2z"/>
        <rect width="17" height="1.8" x="5.333" y="6" fill="#CCC" opacity=".9" rx=".75"/>
        <rect width="7" height="1.8" x="5.333" y="10" fill="#CCC" rx=".75"/>
        <path fill="#5E3DF5" fill-rule="nonzero" d="M18.218 15C20.859 15 23 17.154 23 19.81v.816c0 2.656-2.14 4.81-4.782 4.81h-.066c-1.635 1.21-3.105 1.872-3.67 1.423-.332-.263-.521-.86-.623-1.828A4.811 4.811 0 0 1 11 20.626v-.817C11 17.154 13.14 15 15.782 15h2.436zM14 19.5a.75.75 0 1 0 0 1.5.75.75 0 0 0 0-1.5zm3 0a.75.75 0 1 0 0 1.5.75.75 0 0 0 0-1.5zm3 0a.75.75 0 1 0 0 1.5.75.75 0 0 0 0-1.5z"/>
    </g>
</svg>
