<svg xmlns="http://www.w3.org/2000/svg" xmlns:xlink="http://www.w3.org/1999/xlink" width="26" height="26" viewBox="0 0 26 26">
    <defs>
        <path id="a" d="M5.36 11.667c0 .863.734 1.562 1.64 1.562.906 0 1.64-.7 1.64-1.562zM7 1.25c-2.287 0-4.14 1.766-4.14 3.943v3.112c0 .098-.03.194-.084.277l-.822 1.245a.503.503 0 0 0-.084.277c0 .288.245.521.547.521h9.166a.567.567 0 0 0 .291-.08.506.506 0 0 0 .172-.718l-.822-1.245a.503.503 0 0 1-.083-.277V5.193C11.14 3.016 9.287 1.25 7 1.25zm2.734 10.417c0 1.438-1.224 2.604-2.734 2.604s-2.734-1.166-2.734-2.604h-1.85c-.905 0-1.64-.7-1.64-1.563 0-.294.087-.582.252-.831l.738-1.118V5.193C1.766 2.44 4.109.208 7 .208c2.89 0 5.234 2.232 5.234 4.985v2.962l.738 1.118c.482.73.251 1.695-.516 2.154-.261.157-.564.24-.873.24z"/>
    </defs>
    <g fill="none" fill-rule="evenodd" transform="translate(1 1)">
        <circle cx="12" cy="12" r="12" stroke="#FF5000"/>
        <use fill="#FF5000" fill-rule="nonzero" transform="translate(5 5)" xlink:href="#a"/>
    </g>
</svg>
