<svg xmlns="http://www.w3.org/2000/svg" xmlns:xlink="http://www.w3.org/1999/xlink" width="28" height="32" viewBox="0 0 28 32">
    <defs>
        <path id="a" d="M16.952 17.013l-.752.816-.752-.815c-1.247-1.351-3.267-1.351-4.513 0-1.247 1.35-1.247 3.54 0 4.892l4.587 4.983a.901.901 0 0 0 1.355 0l4.588-4.983c1.247-1.351 1.247-3.542 0-4.893-1.246-1.35-3.267-1.35-4.513 0z"/>
    </defs>
    <g fill="none" fill-rule="evenodd">
        <path fill="#D6D6D6" fill-rule="nonzero" d="M25 0a3 3 0 0 1 3 3v26a3 3 0 0 1-3 3H3a3 3 0 0 1-3-3V3a3 3 0 0 1 3-3h22zm0 2H3a1 1 0 0 0-.993.883L2 3v26a1 1 0 0 0 .883.993L3 30h22a1 1 0 0 0 .993-.883L26 29V3a1 1 0 0 0-.883-.993L25 2z"/>
        <rect width="17" height="1.8" x="5.333" y="6" fill="#CCC" rx=".75"/>
        <rect width="7" height="1.8" x="5.333" y="10" fill="#CCC" rx=".75"/>
        <use fill="#FF5000" xlink:href="#a"/>
    </g>
</svg>
