<svg xmlns="http://www.w3.org/2000/svg" width="26" height="26" viewBox="0 0 26 26">
    <g fill="none" fill-rule="evenodd" transform="translate(1 1)">
        <circle cx="12" cy="12" r="12" fill="#F6F6F6" stroke="#999"/>
        <path d="M4 4h16v16H4z"/>
        <path fill="#666" fill-rule="nonzero" d="M16.773 14.02l-.114.08c-1.1.753-2.778 1.233-4.659 1.233-1.843 0-3.492-.461-4.592-1.188l-.182-.126-.08.129a1.063 1.063 0 0 0-.146.519C7 15.797 9.165 17 12 17s5-1.203 5-2.333c0-.216-.08-.435-.227-.647zm-2.458-1.61c-.713.165-1.495.257-2.315.257l-.213-.002-.043-.001h-.018l-.032-.002c-.04 0-.079-.002-.118-.004l.134.005a10.186 10.186 0 0 1-1.966-.24l.012.003-.033-.008-.232-.056a8.816 8.816 0 0 1-.053-.014l.012.003-.036-.009a8.916 8.916 0 0 0-.37-.107l-.197-.065-.018-.006a6.182 6.182 0 0 1-1.576-.791l.026.018a4.647 4.647 0 0 1-.052-.038c-.148.212-.227.43-.227.647 0 1.13 2.165 2.333 5 2.333S17 13.13 17 12c0-.216-.08-.435-.227-.647l-.092.066-.022.015-.117.077-.028.018c-.595.377-1.34.68-2.183.877l.036-.009-.052.012zM6.808 13.67l.048.046-.048-.046zm5.524-1.01l-.03.002.024-.001.006-.001zm.018 0l-.048.002.037-.002h.011zm.1-.004l-.148.006.037-.002h-.007zm.211-.011l.018-.001h.003l-.013.001-.026.002.018-.002zm.435-.035l-.121.012.06-.006.06-.006zm-2.118.007l.014.002-.014-.002zm-.497-.06l.107.016.108.014.05.006c-.09-.01-.178-.022-.265-.035zm2.866.024l-.006.001.003-.001h.003zm-.001 0h-.002l-.003.001.005-.001zm.013-.002l-.007.001.005-.001h.002zm-3.095-.055l.172.027a9.89 9.89 0 0 1-.172-.027zm3.418.009l-.016.002h-.002l.018-.002zm-3.926-.108l.007.001.028.006-.035-.007zm-.661-.176l.111.034-.07-.02-.041-.014zm5.838-.009l-.026.01-.01.002.008-.003.01-.002.018-.007zm-6.086-.071l.126.042-.062-.02a7.907 7.907 0 0 1-.065-.023zm-.314-.116l.074.029.013.005-.014-.006a7.365 7.365 0 0 1-.073-.028zm-.202-.084l.014.007.03.012-.032-.013-.012-.006zm-.019-.007l.019.007-.02-.007h.001zm-.227-.104l.024.012a6.458 6.458 0 0 1-.024-.012zm-.274-.14l.035.02.004.002.092.048-.081-.043-.05-.027zm8.41-.016l-.015.007-.016.01.03-.017zM12 7C9.165 7 7 8.203 7 9.333c0 1.13 2.165 2.334 5 2.334s5-1.203 5-2.334C17 8.203 14.835 7 12 7zm4.855 4.293l-.174.126c.078-.054.154-.11.226-.167l-.052.04zm-9.782-.057l.02.015a4.252 4.252 0 0 1-.02-.015zm10.002-.124l-.051.045.05-.045zm-10.31-.15l-.04-.038.04.039zm10.645-.185l-.046.052.02-.022zm-10.82-.001l-.111-.135c.047.06.097.12.15.18l-.04-.045zm11.024-.265l-.018.028.008-.014.005-.007zm-4.262 2.07l-.003.001h-.003l.006-.001zm.006-.001h.002l.007-.001-.009.001zm.08-.01l-.071.009.022-.002.048-.007zm.219-.032l.007-.002-.019.003.021-.003-.045.008.036-.006zm2.804-.976l.022-.014-.022.014-.035.021.035-.02zm-10.024-.979l-.033-.044.016.023c-.27-.38-.42-.795-.42-1.229C6 7.493 8.686 6 12 6s6 1.492 6 3.333l-.003.106-.002.025c-.029.424-.201.828-.49 1.198l.016-.021a2.908 2.908 0 0 1-.02.026c.32.408.499.859.499 1.333 0 .448-.159.875-.447 1.265l-.074.093.021-.025c.322.408.5.86.5 1.334C18 16.507 15.314 18 12 18s-6-1.492-6-3.333c0-.475.178-.926.5-1.334l.02.026C6.186 12.944 6 12.484 6 12c0-.474.178-.925.5-1.334l-.021-.025.01.012.006.009a2.88 2.88 0 0 1-.024-.032l.008.01-.042-.057zm6.247 2.062h.011l-.003-.001h.023-.024l-.007.001zm.663-.063h.002l.004-.001-.006.001zm.012-.002h.008-.008zm-.001 0l-.005.001.004-.001h.001zm-.674.065l-.04.003.017-.002.018-.001h.005z"/>
    </g>
</svg>
