<svg xmlns="http://www.w3.org/2000/svg" xmlns:xlink="http://www.w3.org/1999/xlink" width="118" height="38" viewBox="0 0 118 38">
    <defs>
        <path id="a" d="M0 37.3h117.496V0H0z"/>
    </defs>
    <g fill="none" fill-rule="evenodd">
        <path fill="#FFF" d="M52.157 9.615c-.076-.521-.508-1.412-1.867-1.41-.934 0-1.533.59-1.533 1.2 0 .546.336.94 1.107 1.08l1.504.282c2.139.403 3.247 1.774 3.247 3.375 0 1.762-1.47 3.553-4.146 3.553-3.105 0-4.441-2.014-4.6-3.596l2.301-.558c.096 1.035.791 1.933 2.328 1.933.983 0 1.583-.472 1.583-1.166 0-.572-.462-.982-1.202-1.132l-1.535-.284c-1.907-.367-3.059-1.631-3.059-3.297 0-2.117 1.868-3.607 4.024-3.607 2.8 0 3.861 1.674 4.096 2.994l-2.248.633zM55.791 17.458V9.581h2.295v.904c.406-.697 1.414-1.144 2.271-1.144 1.123 0 1.926.461 2.33 1.242.618-.89 1.372-1.242 2.434-1.242 1.49 0 2.912.875 2.912 3.013v5.104H65.71v-4.566c0-.746-.4-1.327-1.252-1.327-.854-.002-1.316.653-1.316 1.346v4.547h-2.373v-4.566c0-.746-.397-1.329-1.268-1.329-.84 0-1.3.655-1.3 1.36v4.535H55.79z"/>
        <mask id="b" fill="#fff">
            <use xlink:href="#a"/>
        </mask>
        <path fill="#FFF" d="M69.518 17.459h2.412V9.582h-2.412v7.877zm1.185-11.691c.797 0 1.426.63 1.426 1.402 0 .78-.629 1.418-1.426 1.418-.755 0-1.396-.637-1.396-1.418a1.41 1.41 0 0 1 1.396-1.402zM73.438 17.459h2.412V5.988h-2.412zM82.451 12.58c-.03-.605-.434-1.337-1.576-1.337-1.016 0-1.52.746-1.569 1.336h3.145zm2.195 2.613c-.388 1.364-1.633 2.502-3.634 2.502-2.172 0-4.102-1.553-4.102-4.202 0-2.534 1.885-4.152 3.93-4.152 2.437 0 3.941 1.509 3.941 4.042 0 .338-.029.7-.047.75h-5.476c.048.888.855 1.517 1.787 1.517.87 0 1.357-.41 1.582-1.027l2.02.57zM91.256 13.287c0-1.068-.77-1.738-1.686-1.738-.898 0-1.689.67-1.689 1.738 0 1.082.732 1.75 1.69 1.75.982 0 1.685-.668 1.685-1.75zm-3.654 4.018c.15.759.787 1.31 1.685 1.31 1.207 0 1.951-.584 1.951-2.014v-.361c-.29.426-.972.887-2.107.887-2.09 0-3.656-1.652-3.656-3.84 0-2.074 1.504-3.842 3.656-3.842 1.285 0 1.967.56 2.184.977v-.84h2.298v6.894c0 2.264-1.269 4.229-4.209 4.229-2.267 0-3.71-1.391-3.929-2.805l2.127-.595zM98.885 15.607c.969 0 1.795-.766 1.795-2.094 0-1.367-.807-2.082-1.795-2.082-1.023 0-1.799.715-1.799 2.082 0 1.297.805 2.094 1.799 2.094zm1.809.84c-.342.758-1.143 1.23-2.121 1.23-2.307 0-3.909-1.754-3.909-4.183 0-2.344 1.498-4.153 3.828-4.153 1.411 0 2.028.782 2.188 1.145v-.902h2.328v6.464c0 .73.045 1.237.064 1.41h-2.318a9.256 9.256 0 0 1-.06-.935v-.076zM107.537 9.582h1.531v2.11h-1.53v2.947c0 .652.35.822.87.822.25 0 .488-.05.631-.08v2c-.094.046-.488.22-1.254.22-1.627 0-2.629-.968-2.629-2.537v-3.371l-1.387.004V9.582h.391c.83 0 1.221-.556 1.221-1.282V7.282h2.156v2.3zM115.166 12.58c-.033-.605-.439-1.337-1.582-1.337-1.008 0-1.518.746-1.572 1.336h3.154zm2.19 2.614c-.383 1.362-1.629 2.5-3.629 2.5-2.174 0-4.102-1.55-4.102-4.2 0-2.535 1.883-4.152 3.93-4.152 2.437 0 3.941 1.508 3.941 4.04 0 .338-.035.702-.045.75h-5.482c.043.889.86 1.518 1.787 1.518.871 0 1.361-.41 1.586-1.027l2.013.572z" mask="url(#b)"/>
        <path fill="#46508C" d="M0 27.978l16.153-9.322L0 9.328z" mask="url(#b)"/>
        <path fill="#46508C" d="M32.285 9.328L16.132 18.65l16.153 9.328z" mask="url(#b)"/>
        <path fill="#FF5000" d="M0 9.328l16.132 9.322 16.153-9.322L16.132 0zM0 27.978l16.132 9.321 16.153-9.321-16.153-9.328z" mask="url(#b)"/>
        <path fill="#FFF" d="M50.804 27.81c-.098-.624-.624-1.482-1.838-1.482-.979 0-1.679.637-1.679 1.447 0 .625.38 1.102 1.116 1.262l1.298.282c1.446.318 2.255 1.224 2.255 2.437 0 1.349-1.152 2.574-3.002 2.574-2.095 0-3.087-1.349-3.247-2.585l1.152-.37c.086.97.772 1.864 2.083 1.864 1.201 0 1.789-.624 1.789-1.384 0-.625-.429-1.165-1.299-1.349l-1.237-.268c-1.238-.27-2.12-1.08-2.12-2.378 0-1.36 1.261-2.585 2.867-2.585 1.961 0 2.745 1.213 2.941 2.155l-1.079.38zM54.847 28.252h1.274v1.04h-1.274v3.064c0 .54.22.809.82.809.148 0 .356-.024.454-.05v.982a2.55 2.55 0 0 1-.785.11c-1.004 0-1.641-.613-1.641-1.68v-3.234h-1.127v-1.041h.318c.638 0 .907-.393.907-.907v-.955h1.054v1.862zM61.83 31.192c0-1.359-.857-2.095-1.838-2.095-.98 0-1.838.736-1.838 2.095 0 1.372.858 2.107 1.838 2.107.981 0 1.838-.735 1.838-2.107m1.176 0c0 1.802-1.25 3.137-3.014 3.137-1.765 0-3.015-1.335-3.015-3.137 0-1.789 1.25-3.124 3.015-3.124 1.764 0 3.014 1.335 3.014 3.124M66.987 34.145h-1.163l-2.39-5.894h1.299l1.678 4.546 1.69-4.546h1.24zM74.228 30.592c-.024-.845-.575-1.507-1.617-1.507-.968 0-1.556.748-1.606 1.507h3.223zm1.164 1.875c-.331 1.042-1.274 1.862-2.646 1.862-1.581 0-2.965-1.151-2.965-3.148 0-1.851 1.335-3.112 2.817-3.112 1.815 0 2.83 1.25 2.83 3.087 0 .147-.012.294-.023.368h-4.436c.025 1.053.784 1.789 1.777 1.789.956 0 1.433-.528 1.654-1.19l.992.344z" mask="url(#b)"/>
    </g>
</svg>
