<svg xmlns="http://www.w3.org/2000/svg" xmlns:xlink="http://www.w3.org/1999/xlink" width="14" height="13" viewBox="0 0 14 13">
    <defs>
        <path id="a" d="M9.406.5a1.5 1.5 0 0 1 1.317.782l.574 1.051H12a1.5 1.5 0 0 1 1.5 1.5V11a1.5 1.5 0 0 1-1.5 1.5H2A1.5 1.5 0 0 1 .5 11V3.833a1.5 1.5 0 0 1 1.5-1.5h.703l.574-1.051A1.5 1.5 0 0 1 4.594.5zm0 1H4.594a.5.5 0 0 0-.44.26l-.857 1.573H2a.5.5 0 0 0-.5.5V11a.5.5 0 0 0 .5.5h10a.5.5 0 0 0 .5-.5V3.833a.5.5 0 0 0-.5-.5h-1.297l-.858-1.572a.5.5 0 0 0-.439-.261zM7 4a3 3 0 1 1 0 6 3 3 0 0 1 0-6zm0 1a2 2 0 1 0 0 4 2 2 0 0 0 0-4z"/>
    </defs>
    <use fill="#FFF" fill-rule="nonzero" xlink:href="#a"/>
</svg>
