<svg xmlns="http://www.w3.org/2000/svg" xmlns:xlink="http://www.w3.org/1999/xlink" width="12" height="12" viewBox="0 0 12 12">
    <defs>
        <path id="a" d="M.074.152L.11.11A.375.375 0 0 1 .598.074L.64.11 4.5 3.97 8.36.11a.375.375 0 0 1 .488-.036L8.89.11a.375.375 0 0 1 .036.488L8.89.64 5.03 4.5l3.86 3.86a.375.375 0 0 1 .036.488l-.036.042a.375.375 0 0 1-.488.036L8.36 8.89 4.5 5.03.64 8.89a.375.375 0 0 1-.488.036L.11 8.89a.375.375 0 0 1-.036-.488L.11 8.36 3.97 4.5.11.64A.375.375 0 0 1 .074.152L.11.11.074.152z"/>
    </defs>
    <use fill="#666" fill-rule="nonzero" transform="translate(1.5 1.5)" xlink:href="#a"/>
</svg>
