<svg xmlns="http://www.w3.org/2000/svg" width="18" height="18" viewBox="0 0 18 18">
    <g fill="none" fill-rule="evenodd">
        <path d="M0 0h18v18H0z"/>
        <path fill="#FFF" fill-rule="nonzero" d="M16 12.2a.8.8 0 0 1 .8.8v3a.8.8 0 0 1-.8.8H2a.8.8 0 0 1-.8-.8v-3a.8.8 0 1 1 1.6 0v2.2h12.4V13a.8.8 0 0 1 .8-.8zM9 1.958c.46 0 .833.373.833.834v7.173l1.603-1.433a.833.833 0 1 1 1.075 1.273L9.57 12.31a.831.831 0 0 1-1.075.005L5.543 9.801a.834.834 0 0 1 1.074-1.275l1.55 1.392V2.792c0-.46.373-.834.833-.834z"/>
    </g>
</svg>
