<svg xmlns="http://www.w3.org/2000/svg" width="48" height="48" viewBox="0 0 48 48">
    <g fill="none" fill-rule="evenodd">
        <path fill="#2B4B82" d="M48 24c0 13.255-10.746 24-24 24C10.745 48 0 37.255 0 24S10.745 0 24 0c13.254 0 24 10.745 24 24"/>
        <path fill="#FFFFFE" d="M20.594 31.639c0-2.27-.009-4.54.009-6.81.003-.383-.11-.503-.505-.487-.73.028-1.464-.003-2.196.013-.296.007-.405-.072-.402-.376.015-1.416.013-2.834.002-4.25-.003-.273.082-.362.366-.356.749.016 1.499-.02 2.246.015.433.02.522-.128.513-.517a69.142 69.142 0 0 1-.001-3.236c.03-1.316.395-2.546 1.205-3.616 1.026-1.356 2.484-1.976 4.166-2.049 1.728-.074 3.46-.033 5.19-.05.241-.004.313.08.312.307-.008 1.432-.01 2.866.001 4.298.002.255-.084.333-.342.33-.832-.013-1.664-.007-2.496-.005-1.107.003-1.77.554-1.84 1.615-.055.85-.014 1.706-.035 2.559-.007.304.18.283.387.283 1.264-.002 2.53.012 3.793-.01.371-.005.494.077.451.455-.159 1.424-.295 2.85-.421 4.277-.03.322-.181.384-.48.379a142.09 142.09 0 0 0-2.994-.004c-.717.004-.647-.102-.647.605-.004 4.444-.01 8.888.01 13.331.002.47-.122.586-.602.578a139.08 139.08 0 0 0-5.14 0c-.483.01-.563-.149-.559-.565.018-2.238.009-4.476.009-6.714"/>
    </g>
</svg>
