<svg xmlns="http://www.w3.org/2000/svg" width="52" height="60" viewBox="0 0 52 60">
    <g fill="none" fill-rule="evenodd">
        <path fill="#FFF" d="M.772 50.7H50.59V1.923H.772z"/>
        <path fill="#231F20" d="M48.848 44.854c0 1.713-1.41 3.103-3.151 3.103H6.303c-1.74 0-3.151-1.39-3.151-3.103V6.06c0-1.714 1.41-3.104 3.151-3.104h39.394c1.74 0 3.151 1.39 3.151 3.104v38.793zM48.323 0H3.677C1.647 0 0 1.621 0 3.62v52.76C0 58.377 1.646 60 3.677 60h44.646C50.353 60 52 58.378 52 56.38V3.62C52 1.622 50.354 0 48.323 0z"/>
        <path fill="#FFF" d="M14.246 56.251h3.267v-1.038h-3.267v1.038zm-.366-3.341h1.521v-1.235h-1.52v1.235zm4.715 1.477v2.697h-4.54c-.296 0-.52-.075-.671-.227-.146-.146-.22-.346-.22-.598v-1.872h5.431zm-4.715-4.455v.94h1.521v-.94h1.075v1.63h1.03v-1.69h1.082v4.136h-1.082v-1.606h-1.03v1.311h-2.749c-.321 0-.555-.063-.701-.19-.147-.13-.22-.338-.22-.621v-2.97h1.074zM36.745 50.023v.795h-1.462c0 .83.19 1.498.57 2.008.288.374.705.68 1.25.917l-.526.606a4.8 4.8 0 0 1-1.156-.704 3.287 3.287 0 0 1-.672-.728c-.16.243-.38.483-.657.72a4.63 4.63 0 0 1-1.083.705l-.489-.599c.502-.237.884-.543 1.148-.917.355-.51.533-1.179.533-2.008H32.85v-.795h3.896zm-1.477 5.804h2.208V49.87h1.067v7.29h-1.067v-.524h-5.051v-.81H34.2v-1.91h1.067v1.91z"/>
        <path fill="#211821" d="M34.655 16.715c-5.42 0-9.815-2.434-9.815-4.39 0-2.426 4.394-4.392 9.815-4.392 5.422 0 9.816 1.966 9.816 4.391 0 1.957-4.394 4.391-9.816 4.391m6.73 4.21c-.363 0-.656-.232-.656-.517 0-.286.293-.518.656-.518.363 0 .657.232.657.518 0 .285-.294.517-.657.517m-8.579 9.906c-.22 0-.393-.011-.503-.077a2.714 2.714 0 0 0-.084-.36c.084-.144.302-.16.587-.16.363 0 .57.233.57.519 0 .286-.207.078-.57.078m-13.28 5.808c-6.533 0-11.83-2.934-11.83-5.292 0-2.924 5.297-5.293 11.83-5.293 6.534 0 11.83 2.37 11.83 5.293 0 2.358-5.296 5.292-11.83 5.292m15.13-29.34c-5.876 0-10.636 2.199-10.636 4.913v4.396c.807 2.345 5.334 4.138 10.635 4.138 1.222 0 2.397-.098 3.5-.273-.02.27.008.599.156.99-.975.479-1.522 1.42-1.522 2.78 0 .18.016.36.038.538a3.556 3.556 0 0 0-.65-.063c-1.828 0-3.455 1.147-3.684 2.769-1.02.548-1.502.687-1.812.808-2.202-1.794-6.37-3.005-11.154-3.005-7.081 0-12.82 2.651-12.82 5.921v5.3c.974 2.823 6.43 4.986 12.82 4.986 6.389 0 11.844-2.163 12.817-4.987v-3.018c1.634-.1 2.021-.61 2.881-1.404.184.036 1.02-.129 1.214-.129 2.055 0 3.502-1.424 3.502-3.448 0-.066-.007-.13-.011-.195.118.015.238.022.361.022 2.055 0 3.502-1.424 3.502-3.448 0-.756-.24-1.477-.646-2.084.168-.402.407-.878.646-1.02.413-.243.591-1.942.097-3.437.694-.525 1.185-1.112 1.402-1.74v-4.397c0-2.714-4.762-4.914-10.637-4.914"/>
    </g>
</svg>
