<svg xmlns="http://www.w3.org/2000/svg" width="52" height="60" viewBox="0 0 52 60">
    <g fill="none" fill-rule="evenodd">
        <path fill="#44A342" d="M1.56 51.7h47.68V1.717H1.56z"/>
        <path fill="#FFF" d="M22.988 37.05l1.902-17.913 1.903 17.913h-3.805zm17.23 11.45L34.464 5.906H15.317L9.845 48.53l12.8-.08v-3.155h4.6v3.207h12.973z"/>
        <path fill="#9CA3AB" d="M35.529 39.798V29.264h-5.982v15.114h9.203v-4.58z"/>
        <path fill="#FFF" d="M46.113 39.798V29.264h-6.442v15.114h9.663v-4.58z"/>
        <path fill="#231F20" d="M48.773 45.1a2.766 2.766 0 0 1-2.761 2.77H5.988a2.766 2.766 0 0 1-2.761-2.77V5.87c0-1.53 1.236-2.77 2.761-2.77h40.024a2.765 2.765 0 0 1 2.76 2.77V45.1zM48.319 0H3.68C1.901 0 0 1.907 0 3.693v52.615C0 58.092 1.902 60 3.681 60H48.32C50.098 60 52 58.092 52 56.308V3.693C52 1.907 50.098 0 48.319 0z"/>
        <path fill="#FFF" d="M12.423 55.34h-1.19v-2.36h-1.31v-.708h1.31v-1.496h1.19v4.564zm-4.776.922h4.832v.703H7.511c-.38 0-.654-.055-.82-.164-.156-.107-.234-.283-.234-.525v-1.327h1.19v1.313zm2.638-5.356v.702H8.733c0 .614.209 1.148.627 1.6.332.353.782.647 1.35.876l-.538.56a7.31 7.31 0 0 1-1.158-.573c-.386-.237-.678-.476-.876-.715-.188.235-.475.473-.86.715a7.58 7.58 0 0 1-1.142.572l-.483-.559c.558-.22.995-.512 1.311-.877.386-.442.579-.975.579-1.599H6.072v-.702h4.213zM19.901 57.03h1.19v-6.254h-1.19v6.254zm-2.78-3.154v-.682h.972v-2.418h1.19v6.254h-1.19v-3.154h-.973zm-1.738-2.522v-.611h1.19v.611h1.126v.696h-1.126v1.006c0 .751.14 1.402.418 1.958.23.464.547.835.949 1.112l-.732.448a2.989 2.989 0 0 1-.748-.727 2.856 2.856 0 0 1-.49-1.151 3.051 3.051 0 0 1-.523 1.157 3.058 3.058 0 0 1-.812.721l-.651-.448c.418-.273.745-.641.981-1.106.279-.541.418-1.195.418-1.964V52.05h-1.11v-.696h1.11zM28.33 57.03h1.19v-6.254h-1.19v6.254zm-3.9-4.96c-.156.393-.234.903-.234 1.527 0 .676.078 1.22.234 1.63.17.443.417.665.74.665.315 0 .56-.222.73-.664.162-.41.242-.955.242-1.63 0-.625-.08-1.135-.241-1.529-.177-.43-.421-.643-.732-.643-.316 0-.563.214-.739.643zm2.371-.469c.365.524.547 1.193.547 2.002 0 .858-.182 1.557-.547 2.093-.385.585-.927.878-1.623.878-.703 0-1.25-.293-1.64-.878-.36-.536-.54-1.235-.54-2.093 0-.81.18-1.478.54-2.002.396-.572.943-.858 1.64-.858.69 0 1.232.286 1.623.858zM35.88 53.675v-.402c-.14.016-.293.031-.459.044-.15.01-.318.013-.506.013-.193 0-.365-.003-.515-.013a10.903 10.903 0 0 1-.466-.044v.402h1.946zm-2.34 1.95c-.3.095-.45.212-.45.351 0 .139.15.256.45.352.338.107.796.161 1.375.161.563 0 1.01-.054 1.343-.161.305-.096.458-.213.458-.352 0-.139-.153-.256-.458-.35-.333-.105-.78-.157-1.343-.157-.579 0-1.037.052-1.375.157zm-.04-3.991c-.311.104-.466.237-.466.404 0 .159.155.291.466.395.338.114.804.169 1.399.169s1.064-.055 1.407-.169c.31-.104.466-.236.466-.395 0-.167-.156-.3-.466-.404-.343-.108-.812-.163-1.407-.163s-1.061.055-1.4.163zm3.658 3.498c.504.229.756.512.756.85 0 .33-.252.609-.756.84-.558.255-1.307.383-2.25.383-.95 0-1.703-.128-2.26-.383-.499-.231-.748-.51-.748-.84 0-.338.25-.621.748-.85.557-.257 1.31-.385 2.26-.385.943 0 1.692.128 2.25.385zm-5.121-2.569c-.156-.164-.233-.34-.233-.525 0-.361.257-.662.771-.906.568-.259 1.348-.39 2.34-.39.986 0 1.766.131 2.34.39.52.244.78.545.78.906 0 .184-.081.36-.242.525-.171.17-.412.317-.723.442v.67h1.327v.708h-6.963v-.708h1.31v-.67c-.31-.125-.546-.273-.707-.442zM46.502 50.776v2.535h.812v.716h-.812v3.003h-1.19v-6.254h1.19zm-2.669.13v1.937c0 .927-.3 1.706-.9 2.333-.558.577-1.386 1.042-2.485 1.398l-.474-.532c.804-.278 1.428-.632 1.873-1.06.536-.516.804-1.138.804-1.866v-1.502h-2.484v-.708h3.666z"/>
    </g>
</svg>
