<svg xmlns="http://www.w3.org/2000/svg" width="52" height="60" viewBox="0 0 52 60">
    <g fill="none" fill-rule="evenodd">
        <path fill="#FFF" d="M.772 50.7H50.59V1.923H.772z"/>
        <path fill="#231F20" d="M48.848 44.854c0 1.713-1.41 3.103-3.151 3.103H6.303c-1.74 0-3.151-1.39-3.151-3.103V6.06c0-1.714 1.41-3.104 3.151-3.104h39.394c1.74 0 3.151 1.39 3.151 3.104v38.793zM48.323 0H3.677C1.647 0 0 1.621 0 3.62v52.76C0 58.377 1.646 60 3.677 60h44.646C50.353 60 52 58.378 52 56.38V3.62C52 1.622 50.354 0 48.323 0z"/>
        <path fill="#FFF" d="M16.385 49.871v2.955h.738v.834h-.738v3.5h-1.082v-7.289h1.082zm-3.414.061v2.652c0 .657.234 1.359.702 2.106.336.53.714.983 1.133 1.356l-.673.584a4.47 4.47 0 0 1-1.001-1.046 4.15 4.15 0 0 1-.68-1.56c-.116.53-.36 1.052-.73 1.568a4.98 4.98 0 0 1-1.002 1.038l-.577-.576c.35-.288.703-.73 1.059-1.326.458-.768.688-1.483.688-2.144v-2.652h1.081zM26.333 49.871h1.082v1.774h.57V49.87h1.082v4.137h-1.082v-1.56h-.57v1.56h-1.082v-4.137zm-1.367 5.44c-.293.132-.439.299-.439.5 0 .192.146.357.439.493.327.151.777.227 1.352.227.56 0 1.006-.076 1.338-.227.292-.136.438-.3.438-.493 0-.201-.146-.368-.438-.5-.327-.146-.773-.219-1.338-.219-.575 0-1.025.073-1.352.22zm-.928-3.462c-.074.142-.11.326-.11.553 0 .238.036.434.11.591.092.182.219.273.38.273.17 0 .302-.09.394-.273.083-.157.125-.353.125-.59 0-.228-.042-.412-.125-.554-.092-.161-.224-.243-.394-.243-.166 0-.292.082-.38.243zm4.429 2.902c.472.293.71.651.71 1.076 0 .414-.238.762-.71 1.045-.526.324-1.242.486-2.149.486-.92 0-1.647-.162-2.178-.486-.473-.283-.709-.631-.709-1.045 0-.425.236-.783.709-1.076.53-.318 1.257-.477 2.178-.477.907 0 1.623.159 2.149.477zm-4.663-4.433v-.484h1.082v.484h1.103v.819h-.738c.302.141.52.376.65.705.118.313.144.666.08 1.06a1.411 1.411 0 0 1-.481.834c-.284.237-.644.356-1.082.356-.434 0-.79-.119-1.068-.356a1.429 1.429 0 0 1-.475-.834c-.073-.394-.048-.747.073-1.06.127-.329.347-.564.659-.705h-.768v-.819h.965zM39.402 51.841v-.84h.943v-1.13h1.081v4.175h-1.081v-2.205h-.943zm-2.017 3.456c-.283.136-.424.305-.424.507 0 .197.141.364.424.5.316.157.75.235 1.3.235.561 0 1.002-.078 1.324-.235.287-.136.431-.303.431-.5 0-.202-.144-.371-.431-.507-.322-.152-.763-.228-1.323-.228-.551 0-.985.076-1.301.228zm3.442-.561c.468.293.702.651.702 1.076-.005.419-.241.773-.71 1.06-.52.324-1.232.485-2.133.485-.897 0-1.606-.161-2.128-.484-.462-.288-.693-.642-.693-1.061 0-.425.23-.783.693-1.076.527-.323 1.236-.485 2.128-.485.906 0 1.62.162 2.141.485zm-2.222-2.591c.298.44.719.787 1.265 1.045l-.52.614a5.398 5.398 0 0 1-1.146-.766c-.351-.307-.593-.6-.724-.878-.152.277-.403.568-.754.871-.345.298-.718.55-1.118.758l-.445-.6a3.405 3.405 0 0 0 1.184-1.044c.395-.586.592-1.324.592-2.213h1.09c0 .904.191 1.642.576 2.213z"/>
        <path fill="#211821" d="M18.887 13.04c1.068.547 1.598 1.214 2.872 1.28.489.026 1.08-.29 1.561-.1.564.222.705.659 1.46.633 1.215-.041 2.039-.84 3.282-.842 1.17 0 2.434.628 3.562.21.861-.319 1.83-1.195 2.2-2.034.831-1.9-1.998-3.597-3.595-3.672-1.123-.051-2.233-.025-3.349-.129-1.121-.104-2.01-.498-3.151-.452-1.16.046-1.55 1.094-2.758.97-.543-.056-.922-.305-1.507-.113-.481.158-1.216.676-1.568 1.02-.238.232-.469.557-.603.874-.124 1.174.656 1.875 1.594 2.355M17.294 10.649l-.065.194c.016-.052.042-.106.064-.158l.001-.036"/>
        <path fill="#211821" d="M34.843 27.672v2.344h-1.857l-1.981 7.944-3.203-.001-1.345-6.316a45.768 45.768 0 0 1-.326-1.629H25.05c-.103.543-.245 1.085-.367 1.628l-1.533 6.316h-3.182l-1.834-7.946H16.36l.001-2.344h1.224l-1.06-4.612h3.204l.855 4.613h2.672l1.042-4.61h2.979l.937 4.612h2.53l.94-4.611h3.04l-1.165 4.612h1.285zM18.151 17.198c.493.069 1.027.14 1.582.204.367.042.628.36.583.71a.657.657 0 0 1-.744.556 75.023 75.023 0 0 1-1.615-.208c-.366-.052-.618-.375-.564-.723.053-.35.39-.59.758-.539zm4.02.401c.562.046 1.094.077 1.581.095.369.013.656.31.641.661-.013.344-.31.614-.666.614H23.7a37.635 37.635 0 0 1-1.641-.1c-.368-.029-.64-.337-.61-.688a.658.658 0 0 1 .722-.582zm5.07.087c.484-.02 1.017-.054 1.583-.1.363-.031.69.23.722.58.032.351-.24.66-.608.69-.584.048-1.135.083-1.638.104h-.03a.656.656 0 0 1-.667-.608c-.016-.352.27-.65.638-.666zm4.023-.3a81.563 81.563 0 0 0 1.586-.2.663.663 0 0 1 .756.54.643.643 0 0 1-.567.722c-.503.07-1.048.139-1.614.205a.658.658 0 0 1-.744-.557.645.645 0 0 1 .583-.71zm7.366-2.28c2.33-.556 5.476.371 5.507.381l.153-.495c-.134-.04-3.314-.98-5.784-.389-2.147.512-3.622 2.381-4.043 2.97-.364-.877.1-1.752.1-1.752l1.642-3.491-.132-.905s-.328.129-.985 1.034c-.656.905-2.67 2.671-3.458 2.8-.788.13-1.578-.203-2.298-.405-2.826-.792-3.587.935-4.76.935-1.018 0-1.447-.272-2.42-.623-.863-.312-1.683-.767-2.406-.638-.722.13-1.215.744-1.74.485-.525-.258-.328-1.325-1.247-1.843a21.422 21.422 0 0 1-1.786-1.144l-1.223-.213.46 1.228s1.772 2.586 1.904 3.362c.131.776.218 1.983-.504 2.824-.722.84-6.85 5.69-6.85 10.776 0 7.142 7.54 12.93 16.84 12.93 9.302 0 16.842-5.788 16.842-12.93 0-5.087-3.353-7.128-5.428-9.31-1.116-1.175-2.107-2.41-2.23-2.585.748-.155 3.987-.775 5.534-.232 1.76.619 3.046 1.807 3.058 1.819l.363-.376a10.166 10.166 0 0 0-3.245-1.93c-1.441-.508-4.075-.117-5.315.113.596-.732 1.836-2.011 3.45-2.396z"/>
        <path fill="#211821" d="M25.623 26.895l-.123.775h.244l-.081-.775zM21.785 34.703h.061c.204-1.492.532-3.042.899-4.69H21.03c.285 1.628.55 3.256.754 4.69M29.455 34.666h.062c.204-1.57.47-3.08.756-4.65h-1.572c.306 1.568.57 3.08.754 4.65"/>
    </g>
</svg>
