<svg xmlns="http://www.w3.org/2000/svg" width="52" height="60" viewBox="0 0 52 60">
    <g fill="none" fill-rule="evenodd">
        <path fill="#FFF" d="M.772 50.7H50.59V1.923H.772z"/>
        <path fill="#231F20" d="M48.848 44.854c0 1.713-1.41 3.103-3.152 3.103H6.303c-1.74 0-3.151-1.39-3.151-3.103V6.06c0-1.714 1.41-3.104 3.151-3.104h39.393c1.741 0 3.152 1.39 3.152 3.104v38.793zM48.323 0H3.677C1.646 0 0 1.621 0 3.62v52.76C0 58.377 1.646 60 3.677 60h44.646c2.03 0 3.676-1.622 3.676-3.62V3.62C52 1.622 50.354 0 48.323 0z"/>
        <path fill="#FFF" d="M14.4 55.213c-.298.146-.447.326-.447.538 0 .212.149.392.447.538.325.162.767.243 1.323.243.55 0 .994-.081 1.33-.243.308-.152.46-.331.46-.538 0-.212-.152-.392-.46-.538-.336-.161-.78-.242-1.33-.242-.556 0-.998.08-1.323.242zm3.464-.568c.487.303.731.672.731 1.106 0 .43-.244.796-.731 1.099-.536.338-1.25.508-2.141.508-.897 0-1.61-.17-2.143-.508-.477-.303-.715-.67-.715-1.099 0-.434.238-.803.715-1.106.537-.333 1.25-.5 2.143-.5.891 0 1.605.167 2.14.5zm1.024-.94h-6.33v-.818h2.082v-1.25h1.083v1.25h1.549a5.13 5.13 0 0 0 .132-.765c.029-.258.043-.543.043-.856v-.417h-4.531v-.826h5.613v.78c0 .349-.017.703-.05 1.06-.035.41-.084.751-.148 1.024h.557v.818zM34.683 53.137h1.996v-2.303h-1.996v2.303zm3.904-3.114v.81h-.826v2.304h.826v.803h-5.812v-.803h.826v-2.303h-.826v-.811h5.812zm-3.414 5.811v-1.886h1.082v1.886h2.58v.804h-6.33v-.804h2.668z"/>
        <path fill="#212121" d="M37.219 24.318l-11.906.625 5.603-17.07h-7.354l-6.303 21.95 10.57-.72-4.595 14.611z"/>
        <path fill="#212121" d="M15.726 21.602h-4.054L8.31 33.93l5.715.011-2.534 8.053 7.709-10.69-5.946.071zM38.794 19.865l2.473-9.771h-4.054L33.85 22.42l5.715.01-2.533 8.055 7.708-10.69z"/>
    </g>
</svg>
