<svg xmlns="http://www.w3.org/2000/svg" width="52" height="60" viewBox="0 0 52 60">
    <g fill="none" fill-rule="evenodd">
        <path fill="#8FC320" d="M1.56 51.7h47.679V1.716H1.559z"/>
        <path fill="#FFF" d="M14.936 7.204h8.168L36.492 25.19c1.036 0 1.414.15 1.414-.398 0-6.41-.033-17.588-.033-17.588H48.64v38.483l.425 3.294-3.943-.933-5.698.038-15.413-21.812.187 21.812h-9.262V7.204z"/>
        <path fill="#8EC23F" d="M41.89 12.384c0-1.063-.48-1.7-1.235-1.7-.754 0-1.234.637-1.234 1.7 0 1.059.48 1.735 1.234 1.735.755 0 1.234-.676 1.234-1.735m-3.503 0c0-1.612.925-2.55 2.27-2.55 1.344 0 2.268.944 2.268 2.55 0 1.608-.924 2.591-2.269 2.591-1.344 0-2.27-.983-2.27-2.591M43.506 9.928h1.034l1.474 2.638.507 1.071h.035c-.054-.515-.13-1.171-.13-1.734V9.928h.96v4.954h-1.028l-1.468-2.65-.514-1.065h-.035c.048.535.124 1.157.124 1.727v1.988h-.96V9.928z"/>
        <path fill="#1187AF" d="M34.594 42.145h.5c.497 0 .768-.278.768-.827 0-.557-.271-.745-.767-.745h-.501v1.572zm1.331 2.76l-.793-1.947h-.538v1.947h-.773V39.76h1.345c.81 0 1.454.375 1.454 1.558 0 .771-.293 1.252-.737 1.482l.903 2.105h-.86zM39.593 42.311c0-1.106-.364-1.765-.94-1.765-.574 0-.939.66-.939 1.765 0 1.099.365 1.801.94 1.801s.94-.702.94-1.8m-2.667 0c0-1.675.704-2.648 1.727-2.648 1.023 0 1.728.98 1.728 2.647 0 1.67-.705 2.691-1.728 2.691-1.023 0-1.727-1.021-1.727-2.69M40.876 39.76h2.381v.855h-1.608v1.342h1.372v.864H41.65v2.084h-.773zM43.668 44.905h.772V39.76h-.772zM45.897 40.615H44.81v-.855h2.955v.855H46.67v4.29h-.772z"/>
        <path fill="#1187AF" d="M34.812 34.104c2.556 0 5.198-.144 5.198-3.465 0-2.49-2.543-3.172-5.07-3.172h-2.143v6.637h2.015zM27.54 23.185h7.666c4.817 0 10.232 1.478 10.232 7.349 0 6.083-5.064 7.873-10.085 7.873h-2.555v9.384h-5.258V23.185z"/>
        <path fill="#231F20" d="M48.773 45.1a2.766 2.766 0 0 1-2.762 2.77H5.988a2.766 2.766 0 0 1-2.762-2.77V5.87c0-1.53 1.237-2.77 2.762-2.77H46.01a2.766 2.766 0 0 1 2.762 2.77V45.1zM48.319 0H3.68C1.901 0 0 1.908 0 3.693v52.615C0 58.09 1.902 60 3.681 60H48.32C50.098 60 52 58.091 52 56.308V3.693C52 1.908 50.098 0 48.319 0z"/>
        <path fill="#FFF" d="M8.247 54.983c-.327.127-.49.28-.49.463 0 .182.163.336.49.461.359.14.844.21 1.457.21.606 0 1.093-.07 1.465-.21.337-.13.506-.284.506-.461 0-.183-.169-.336-.506-.463-.372-.138-.86-.207-1.465-.207-.613 0-1.098.07-1.457.207zm3.814-.487c.537.26.805.576.805.95 0 .368-.268.682-.805.942-.59.291-1.376.437-2.357.437-.988 0-1.774-.146-2.358-.437-.527-.26-.79-.574-.79-.942 0-.374.263-.69.79-.95.59-.286 1.375-.43 2.358-.43.981 0 1.768.144 2.357.43zm1.127-.807h-6.97v-.702h2.295v-1.075h1.19v1.075h1.706c.066-.192.113-.411.145-.658.033-.221.048-.466.048-.734v-.36H6.613v-.708h6.181v.67c0 .3-.02.603-.057.91a4.89 4.89 0 0 1-.16.88h.61v.702zM22.705 53.956h1.192v-3.56h-1.192v3.56zm-3.927-2.609c-.155.173-.234.409-.234.709 0 .295.079.53.234.702.182.2.45.3.806.3.348 0 .613-.1.796-.3.16-.173.24-.407.24-.702 0-.3-.08-.536-.24-.709-.183-.195-.448-.293-.796-.293-.355 0-.624.098-.806.293zm5.119 2.94v2.363h-1.192v-1.667h-4.917v-.695h6.109zm-2.616-3.416c.36.309.54.703.54 1.185 0 .478-.18.869-.54 1.178-.403.341-.968.513-1.697.513-.736 0-1.302-.172-1.699-.513-.36-.31-.539-.7-.539-1.178 0-.482.18-.876.539-1.185.397-.339.963-.507 1.699-.507.729 0 1.294.168 1.697.507zM29.881 52.037h3.8v-.808h-3.8v.808zm4.99 2.465v2.148h-1.19v-1.433h-4.99v-.715h6.18zm0-3.975v2.212h-2.422v.566h2.816v.703h-6.97v-.703h2.971v-.566h-1.594c-.327 0-.574-.062-.74-.19-.16-.125-.241-.302-.241-.532v-1.49h6.18zM45.974 53.956h-1.191v-1.464h-1.28v-.69h1.28v-1.405h1.19v3.559zm0 .332v2.362h-1.191v-1.667h-4.917v-.695h6.108zm-2.254-3.76v.69h-1.48c0 .507.2.962.603 1.365.338.338.773.607 1.304.807l-.547.539a5.89 5.89 0 0 1-1.103-.526c-.376-.226-.66-.455-.853-.69-.188.235-.47.464-.845.69a6.045 6.045 0 0 1-1.118.526l-.484-.54c.536-.19.97-.46 1.296-.806.375-.394.563-.85.563-1.366h-1.44v-.69h4.104z"/>
    </g>
</svg>
