<svg xmlns="http://www.w3.org/2000/svg" width="52" height="60" viewBox="0 0 52 60">
    <g fill="none" fill-rule="evenodd">
        <path fill="#4369B1" d="M1.56 51.7h47.68V1.717H1.56z"/>
        <path fill="#9CA3AB" d="M22.79 5.905c-5.042 6.87-11.65 7.3-12.57 7.317v5.844s.575.009 4.694.021c2.704.008 2.668 2.681 2.668 2.681v27.19H49.334V5.907H22.79z"/>
        <path fill="#FFF" d="M49.334 11.406c-2.76-2.174-5.054-2.707-9.217-2.707-5.16 0-9.425 1.926-10.923 4.76-1.636 3.092-1.948 4.906-1.948 9.937v1.288H38.29v-3.839c0-1.648.318-4.691 2.611-4.691 2.38 0 2.51 2.091 2.151 4.797-.218 1.644-1.792 4.767-2.784 6.38-1.196 1.942-8.88 14.282-12.562 19.631v1.996h21.41l-.64-3.033-7.345-.2c2.25-3.519 7.283-11.33 8.203-13.518V11.406z"/>
        <path fill="#231F20" d="M48.773 45.1a2.766 2.766 0 0 1-2.761 2.77H5.988a2.766 2.766 0 0 1-2.761-2.77V5.87c0-1.53 1.236-2.77 2.761-2.77h40.024a2.765 2.765 0 0 1 2.76 2.77V45.1zM48.319 0H3.68C1.901 0 0 1.907 0 3.693v52.615C0 58.092 1.902 60 3.681 60H48.32C50.098 60 52 58.092 52 56.308V3.693C52 1.907 50.098 0 48.319 0z"/>
        <path fill="#FFF" d="M7.65 51.023v5.656H6.516V53.16c0-.173-.01-.302-.028-.39a.32.32 0 0 0-.117-.195.72.72 0 0 0-.302-.117 3.937 3.937 0 0 0-.59-.032h-.17v-.507a3.295 3.295 0 0 0 1.022-.319c.279-.146.528-.34.748-.578h.57zM12.885 55.95v.729H9.042v-.814c.311-.403.66-.8 1.045-1.192.386-.392.703-.697.95-.91.246-.215.458-.441.638-.68.18-.237.27-.459.27-.663 0-.29-.071-.496-.213-.617-.143-.121-.385-.181-.728-.181-.306 0-.527.065-.664.196-.136.133-.204.33-.204.59v.54H9.042v-.222c0-.585.144-1.034.434-1.346.29-.312.777-.468 1.464-.468.67 0 1.188.136 1.555.407.368.27.55.627.55 1.07 0 .289-.074.562-.224.819-.15.254-.33.478-.54.668-.208.192-.524.485-.947.881-.424.397-.815.794-1.174 1.194h2.725zM19.954 57.03h1.174v-6.254h-1.174v6.254zm-.587-6.254v6.254h-1.175v-3.186h-.851v-.735h.851v-2.333h1.175zm-2.838.052v2.093c0 .732.147 1.408.442 2.029.262.549.579.938.949 1.162l-.74.462a3.147 3.147 0 0 1-.748-.774 3.58 3.58 0 0 1-.514-1.098 3.36 3.36 0 0 1-.515 1.098 3.118 3.118 0 0 1-.772.774l-.683-.462c.343-.242.645-.63.908-1.162a4.437 4.437 0 0 0 .483-2.029v-2.093h1.19zM28.365 57.03h1.19v-6.254h-1.19v6.254zm-3.9-4.961c-.155.394-.233.904-.233 1.528 0 .676.078 1.22.234 1.63.17.443.417.665.739.665.317 0 .56-.222.731-.664.162-.41.241-.955.241-1.63 0-.625-.08-1.135-.24-1.529-.177-.43-.421-.643-.732-.643-.316 0-.563.214-.74.643zm2.372-.468c.364.524.547 1.193.547 2.002 0 .858-.183 1.557-.547 2.093-.386.585-.927.878-1.624.878-.702 0-1.25-.293-1.64-.878-.36-.536-.54-1.235-.54-2.093 0-.81.18-1.478.54-2.002.396-.572.944-.858 1.64-.858.692 0 1.233.286 1.624.858zM35.916 53.675v-.402c-.14.016-.293.031-.458.044-.15.01-.32.013-.507.013-.193 0-.365-.004-.514-.013a11.643 11.643 0 0 1-.467-.044v.402h1.946zm-2.34 1.95c-.3.095-.45.212-.45.35 0 .14.15.257.45.353.338.107.796.162 1.375.162.563 0 1.01-.055 1.343-.162.305-.096.458-.213.458-.352 0-.139-.153-.256-.458-.35-.333-.105-.78-.157-1.343-.157-.579 0-1.037.052-1.375.157zm-.04-3.991c-.311.104-.466.238-.466.404 0 .158.155.291.466.395.338.114.804.169 1.399.169s1.064-.055 1.407-.169c.31-.104.466-.237.466-.395 0-.166-.156-.3-.466-.404-.343-.108-.812-.163-1.407-.163s-1.061.055-1.4.163zm3.658 3.497c.504.23.756.514.756.852 0 .329-.252.608-.756.838-.557.256-1.307.384-2.25.384-.95 0-1.703-.128-2.26-.384-.499-.23-.747-.51-.747-.838 0-.338.248-.622.747-.852.557-.256 1.31-.384 2.26-.384.943 0 1.693.128 2.25.384zm-5.121-2.568c-.156-.164-.233-.34-.233-.525 0-.361.257-.662.772-.905.567-.26 1.347-.39 2.34-.39.985 0 1.765.13 2.339.39.52.243.78.544.78.905 0 .184-.081.36-.242.525-.171.17-.412.317-.723.442v.67h1.326v.708H31.47v-.708h1.31v-.67c-.311-.125-.546-.273-.707-.442zM46.538 50.776v2.535h.812v.716h-.812v3.003h-1.19v-6.254h1.19zm-2.67.13v1.937c0 .927-.3 1.706-.9 2.333-.557.577-1.386 1.042-2.484 1.398l-.475-.532c.805-.278 1.429-.631 1.874-1.06.536-.516.804-1.138.804-1.866v-1.502h-2.485v-.708h3.666z"/>
    </g>
</svg>
