<svg xmlns="http://www.w3.org/2000/svg" width="16" height="16" viewBox="0 0 16 16">
    <g fill="none" fill-rule="evenodd">
        <path fill="#CCC" d="M12.018 5.333a2 2 0 0 1 2 2v5.334a2 2 0 0 1-2 2h-8a2 2 0 0 1-2-2V7.333a2 2 0 0 1 2-2h8zM8.235 9.028a1 1 0 0 0-.579 1.911l.112.034a1 1 0 0 0 .579-1.91z"/>
        <path fill="#CCC" fill-rule="nonzero" d="M8.034 1.025c1.669 0 3.063 1.113 3.161 2.56l.005.163v1.777a.5.5 0 0 1-.992.09l-.008-.09V3.748c0-.93-.951-1.723-2.166-1.723-1.16 0-2.08.723-2.161 1.597l-.006.126v1.777a.5.5 0 0 1-.992.09l-.008-.09V3.748c0-1.526 1.436-2.723 3.167-2.723z"/>
    </g>
</svg>
