<svg xmlns="http://www.w3.org/2000/svg" xmlns:xlink="http://www.w3.org/1999/xlink" width="16" height="16" viewBox="0 0 16 16">
    <defs>
        <path id="a" d="M6 0c3.307 0 6 2.693 6 6s-2.693 6-6 6a6.01 6.01 0 0 1-6-6c0-3.307 2.693-6 6-6zM4.182 3.327a.605.605 0 0 0-.855.855L5.145 6 3.327 7.818a.605.605 0 0 0 .855.855L6 6.855l1.818 1.818a.605.605 0 0 0 .855-.855L6.855 6l1.818-1.818a.605.605 0 0 0-.855-.855L6 5.145z"/>
    </defs>
    <use fill="#CCC" fill-rule="evenodd" transform="translate(2 2)" xlink:href="#a"/>
</svg>
