<svg xmlns="http://www.w3.org/2000/svg" xmlns:xlink="http://www.w3.org/1999/xlink" width="16" height="16" viewBox="0 0 16 16">
    <defs>
        <path id="a" d="M12.126.862a2.944 2.944 0 0 1 0 4.163l-7.818 7.816a.5.5 0 0 1-.354.147H.5a.5.5 0 0 1-.5-.5V9.032a.5.5 0 0 1 .146-.354L7.964.862a2.943 2.943 0 0 1 4.162 0zm.374 11.126a.5.5 0 0 1 0 1h-5a.5.5 0 1 1 0-1zM7.272 2.967L1 9.239v2.749h2.747l6.273-6.273-2.748-2.748zm1.4-1.398l-.693.691 2.748 2.748.692-.69a1.944 1.944 0 0 0-2.748-2.75z"/>
    </defs>
    <use fill="#999" fill-rule="nonzero" transform="translate(1.5 1.512)" xlink:href="#a"/>
</svg>
