<svg xmlns="http://www.w3.org/2000/svg" width="40" height="40" viewBox="0 0 40 40">
    <g fill="none" fill-rule="evenodd">
        <circle cx="20" cy="20" r="19.5" fill="#F4FFED" stroke="#E1F6DE"/>
        <path fill="#82C378" d="M16.07 25.165l4.263 2.33-2.61 2.92a.3.3 0 0 1-.517-.135l-1.137-5.115zm13.28-14.43a.5.5 0 0 1 .338.545l-.02.088-5.292 15.927a.5.5 0 0 1-.635.316l-.083-.037-6.735-3.747 5.741-6.639-7.87 5.39-6.274-3.131a.5.5 0 0 1-.036-.875l.081-.04 20.45-7.79a.5.5 0 0 1 .336-.006z"/>
    </g>
</svg>
