<svg xmlns="http://www.w3.org/2000/svg" xmlns:xlink="http://www.w3.org/1999/xlink" width="156" height="123" viewBox="0 0 156 123">
    <defs>
        <rect id="a" width="61.5" height="72.796" x=".789" y=".233" rx="2"/>
        <filter id="b" width="152%" height="144%" x="-26%" y="-19.2%" filterUnits="objectBoundingBox">
            <feOffset dy="2" in="SourceAlpha" result="shadowOffsetOuter1"/>
            <feGaussianBlur in="shadowOffsetOuter1" result="shadowBlurOuter1" stdDeviation="5"/>
            <feColorMatrix in="shadowBlurOuter1" values="0 0 0 0 0 0 0 0 0 0 0 0 0 0 0 0 0 0 0.133440778 0"/>
        </filter>
    </defs>
    <g fill="none" fill-rule="evenodd">
        <g transform="translate(3.765 2.51)">
            <circle cx="74.051" cy="50.204" r="50.204" fill="#E6E7FB"/>
            <circle cx="143.709" cy="21.964" r="5.648" fill="#E6E7FB"/>
            <circle cx="5.02" cy="74.051" r="5.02" stroke="#E6E7FB" stroke-width="2"/>
        </g>
        <g transform="translate(46.439 32.633)">
            <mask id="c" fill="#fff">
                <use xlink:href="#a"/>
            </mask>
            <use fill="#000" filter="url(#b)" xlink:href="#a"/>
            <use fill="#FFF" xlink:href="#a"/>
            <g stroke="#B9B9EB" stroke-linecap="round" stroke-linejoin="round" mask="url(#c)">
                <path stroke-width="2" d="M31.561 28.367c7.731 0 14 6.268 14 14 0 7.731-6.269 14-14 14-7.732 0-14-6.269-14-14 0-7.732 6.268-14 14-14zM25.961 46.567h11.2"/>
                <path stroke-width="3" d="M27.361 38.167h.014M35.761 38.167h.014"/>
            </g>
            <path fill="#B9B9EB" d="M-2.976.233H64.8v12.551H-2.976z" mask="url(#c)"/>
        </g>
    </g>
</svg>
