<svg xmlns="http://www.w3.org/2000/svg" width="16" height="16" viewBox="0 0 16 16">
    <g fill="none" fill-rule="evenodd">
        <path fill-rule="nonzero" d="M0 0h16v16H0z"/>
        <path fill="#323232" d="M6 4h1V3H6zM5 4h1V3H5zM7 4h1V3H7zM9 4h1V3H9zM10 4h1V3h-1zM8 4h1V3H8z"/>
        <path fill="#FFCF3B" d="M6 5h1V4H6zM5 5h1V4H5z"/>
        <path fill="#F6C18E" d="M4 5h1.001V4H4z"/>
        <path fill="#323232" d="M6 16h1v-1H6zM5 16h1v-1H5zM7 16h1v-1H7zM9 16h1v-1H9zM10 16h1v-1h-1zM8 16h1v-1H8z"/>
        <path fill="#FFCF3B" d="M7 5h1V4H7zM9 5h1V4H9zM10 5h1V4h-1z"/>
        <path fill="#F6C18E" d="M11 5h1V4h-1z"/>
        <path fill="#323232" d="M11 5h1V4h-1z"/>
        <path fill="#FFCF3B" d="M8 5h1V4H8z"/>
        <path fill="#F6C18E" d="M6 6h1V5H6z"/>
        <path fill="#FFCF3B" d="M4 6h1.001V5H4z"/>
        <path fill="#F6C18E" d="M5 6h1V5H5zM7 6h1V5H7zM9 6h1V5H9zM10 6h1V5h-1zM12 6h1V5h-1z"/>
        <path fill="#FFCF3B" d="M11 6h1V5h-1z"/>
        <path fill="#323232" d="M12 6h1V5h-1z"/>
        <path fill="#F6C18E" d="M8 6h1V5H8z"/>
        <path fill="#FBFAF2" d="M3 8h1V7H3zM4 8h1.001V7H4z"/>
        <path fill="#FDD7B3" d="M13 7h1.001V6H13zM13 8h1.001V7H13zM13 9h1.001V8H13z"/>
        <path fill="#FBFAF2" d="M3 9h1V8H3z"/>
        <path fill="#FFCF3B" d="M10 9h1V8h-1z"/>
        <path fill="#FBFAF2" d="M2 9h1V8H2z"/>
        <path fill="#F2BC22" d="M4 10h1.001V9H4z"/>
        <path fill="#FDD7B3" d="M4 9h1.001V8H4z"/>
        <path fill="#8ECFB0" d="M7 10h1V9H7z"/>
        <path fill="#3EA882" d="M8 10h1V9H8zM9 10h1V9H9z"/>
        <path fill="#ADAEAE" d="M10 10h1V9h-1z"/>
        <path fill="#E1E2E2" d="M6 10h1V9H6z"/>
        <path fill="#FBFAF2" d="M6 10h1V9H6z"/>
        <path fill="#544643" d="M6 9h1V8H6z"/>
        <path fill="#F6C18E" d="M4 8h1.001V7H4zM5 7h1V6H5z"/>
        <path fill="#ADAEAE" d="M9 9h1V8H9z"/>
        <path fill="#3EA882" d="M8 9h1V8H8z"/>
        <path fill="#FBFAF2" d="M7 9h1V8H7z"/>
        <path fill="#123827" d="M6 9h1V8H6z"/>
        <path fill="#FFCF3B" d="M10 8h1V7h-1z"/>
        <path fill="#FDD7B3" d="M5 8h1V7H5z"/>
        <path fill="#FFCF3B" d="M9 8h1V7H9z"/>
        <path fill="#123827" d="M8 8h1V7H8zM7 8h1V7H7z"/>
        <path fill="#F2BC22" d="M6 8h1V7H6z"/>
        <path fill="#FFCF3B" d="M10 7h1V6h-1z"/>
        <path fill="#FDD7B3" d="M9 7h1V6H9zM8 7h1V6H8zM7 7h1V6H7zM6 7h1V6H6z"/>
        <path fill="#FBFAF2" d="M2 8h1V7H2z"/>
        <path fill="#D7512A" d="M2 10h1V9H2zM2 9h1V8H2z"/>
        <path fill="#FEFEFE" d="M3 8h1V7H3z"/>
        <path fill="#F39A20" d="M4 8h1.001V7H4zM4 7h1.001V6H4z"/>
        <path fill="#F39A20" d="M5 7h1V6H5z"/>
        <path fill="#FFCF3B" d="M2 11h1v-1H2zM1 11h1v-1H1z"/>
        <path fill="#F39A20" d="M3 10h1V9H3zM3 9h1V8H3z"/>
        <path fill="#FBFAF2" d="M2 10h1V9H2z"/>
        <path fill="#FDD7B3" d="M4 11h1.001v-1H4zM2 12h1v-1.001H2zM2 13h1v-1H2z"/>
        <path fill="#FFCF3B" d="M3 13h1v-1H3z"/>
        <path fill="#FDD7B3" d="M3 14h1v-1H3z"/>
        <path fill="#FFCF3B" d="M4 14h1.001v-1H4z"/>
        <path fill="#323232" d="M4 15h1.001v-1H4z"/>
        <path fill="#FFCF3B" d="M5 15h1v-1H5zM6 15h1v-1H6zM7 15h1v-1H7zM8 15h1v-1H8z"/>
        <path fill="#FEFEFE" d="M9 15h1v-1H9z"/>
        <path fill="#8ECFB0" d="M7 11h1v-1H7z"/>
        <path fill="#3EA882" d="M8 11h1v-1H8z"/>
        <path fill="#ADAEAE" d="M9 11h1v-1H9z"/>
        <path fill="#FFCF3B" d="M11 9h1V8h-1zM11 8h1V7h-1zM11 7h1V6h-1zM12 9h1V8h-1zM12 10h1V9h-1zM12 8h1V7h-1zM12 7h1V6h-1zM11 11h1v-1h-1zM11 10h1V9h-1z"/>
        <path fill="#F2BC22" d="M10 11h1v-1h-1z"/>
        <path fill="#E1E2E2" d="M6 11h1v-1H6z"/>
        <path fill="#123827" d="M6 11h1v-1H6z"/>
        <path fill="#FDD7B3" d="M4 12h1.001v-1.001H4z"/>
        <path fill="#123827" d="M7 12h1v-1.001H7zM8 12h1v-1.001H8z"/>
        <path fill="#F2BC22" d="M9 12h1v-1.001H9z"/>
        <path fill="#FFCF3B" d="M6 12h1v-1.001H6zM5 12h1v-1.001H5zM7 13h1v-1H7z"/>
        <path fill="#F2BC22" d="M8 13h1v-1H8z"/>
        <path fill="#FFCF3B" d="M9 13h1v-1H9zM10 13h1v-1h-1zM6 13h1v-1H6z"/>
        <path fill="#FDD7B3" d="M5 13h1v-1H5z"/>
        <path fill="#F39A20" d="M3 12h1v-1.001H3zM4 13h1.001v-1H4zM5 14h1v-1H5z"/>
        <path fill="#D7512A" d="M11 15h1v-1h-1zM12 14h1v-1h-1zM13 13h1.001v-1H13zM2 10h1V9H2z"/>
        <path fill="#F39A20" d="M3 11h1v-1H3z"/>
        <path fill="#F2BC22" d="M4 12h1.001v-1.001H4z"/>
        <path fill="#F2BC22" d="M4 11h1.001v-1H4z"/>
        <path fill="#123827" d="M5 10h1V9H5z"/>
        <path fill="#F2BC22" d="M4 9h1.001V8H4zM5 8h1V7H5z"/>
        <path fill="#F2BC22" d="M5 9h1V8H5z"/>
        <path fill="#FFCF3B" d="M5 11h1v-1H5z"/>
        <path fill="#F2BC22" d="M6 7h1V6H6zM7 7h1V6H7zM8 7h1V6H8z"/>
        <path fill="#FFCF3B" d="M9 7h1V6H9zM5 13h1v-1H5z"/>
        <path fill="#F6C18E" d="M6 14h1v-1H6z"/>
        <path fill="#FBFAF2" d="M12 11h1v-1h-1z"/>
        <path fill="#FFCF3B" d="M11 12h1v-1.001h-1z"/>
        <path fill="#FEFEFE" d="M12 12h1v-1.001h-1zM11 13h1v-1h-1zM10 14h1v-1h-1z"/>
        <path fill="#FFCF3B" d="M9 14h1v-1H9z"/>
        <path fill="#FDD7B3" d="M8 14h1v-1H8zM7 14h1v-1H7z"/>
        <path fill="#FFCF3B" d="M6 14h1v-1H6zM7 14h1v-1H7zM8 14h1v-1H8zM12 11h1v-1h-1z"/>
        <path fill="#FDD7B3" d="M13 11h1.001v-1H13zM13 10h1.001V9H13z"/>
        <path fill="#FFCF3B" d="M10 12h1v-1.001h-1z"/>
        <path fill="#FEFEFE" d="M6 3h1V1.999H6z"/>
        <path fill="#2C8765" d="M5 3h1V1.999H5z"/>
        <path fill="#323232" d="M4 3h1.001V1.999H4zM3 3h1V1.999H3zM11 3h1V1.999h-1zM12 3h1V1.999h-1z"/>
        <path fill="#323232" d="M11 2h1V1h-1zM12 2h1V1h-1zM14 1h1V0h-1zM1 1h1V0H1z"/>
        <path fill="#2C8765" d="M7 3h1V1.999H7z"/>
        <path fill="#FEFEFE" d="M9 3h1V1.999H9z"/>
        <path fill="#2C8765" d="M10 3h1V1.999h-1zM8 3h1V1.999H8z"/>
        <path fill="#FEFEFE" d="M6 2h1V1H6z"/>
        <path fill="#3EA882" d="M5 2h1V1H5z"/>
        <path fill="#3EA882" d="M4 2h1.001V1H4z"/>
        <path fill="#F6C18E" d="M3 2h1V1H3z"/>
        <path fill="#3EA882" d="M7 2h1V1H7z"/>
        <path fill="#FEFEFE" d="M9 2h1V1H9z"/>
        <path fill="#2C8765" d="M10 2h1V1h-1zM11 2h1V1h-1z"/>
        <path fill="#D7512A" d="M12 2h1V1h-1z"/>
        <path fill="#3EA882" d="M8 2h1V1H8z"/>
        <path fill="#323232" d="M5 1h1V0H5zM6 1h1V0H6zM7 1h1V0H7z"/>
        <path fill="#323232" d="M4 1h1.001V0H4zM3 1h1V0H3zM2 1h1V0H2zM11 1h1V0h-1zM12 1h1V0h-1zM13 1h1.001V0H13zM10 1h1V0h-1zM8 1h1V0H8zM9 1h1V0H9z"/>
        <path fill="#F39A20" d="M6 6h1V5H6zM5 6h1V5H5zM8 6h1V5H8zM9 6h1V5H9zM10 6h1V5h-1zM7 6h1V5H7z"/>
        <path fill="#323232" d="M0 9h1V8H0zM2 13h1v-1H2z"/>
        <path fill="#323232" d="M0 9h1V8H0zM1 8h1V7H1zM2 8h1V7H2zM3 8h1V7H3zM2 7h1V6H2zM3 6h1V5H3zM4 5h1.001V4H4z"/>
        <path fill="#FEFEFE" d="M2 9h1V8H2zM3 7h1V6H3z"/>
        <path fill="#323232" d="M0 11h1v-1H0zM1 10h1V9H1zM1 12h1v-1.001H1z"/>
        <path fill="#FFCF3B" d="M2 12h1v-1.001H2zM2 10h1V9H2z"/>
        <path fill="#FEFEFE" d="M1 9h1V8H1z"/>
        <path fill="#323232" d="M14 9h1V8h-1zM13 13h1.001v-1H13z"/>
        <path fill="#F39A20" d="M14 9h1V8h-1z"/>
        <path fill="#323232" d="M14 8h1V7h-1zM13 7h1.001V6H13z"/>
        <path fill="#323232" d="M13 8h1.001V7H13zM12 8h1V7h-1z"/>
        <path fill="#F39A20" d="M13 11h1.001v-1H13zM13 10h1.001V9H13zM13 9h1.001V8H13z"/>
        <path fill="#323232" d="M14 10h1V9h-1z"/>
        <path fill="#F39A20" d="M14 10h1V9h-1zM14 11h1v-1h-1z"/>
        <path fill="#323232" d="M15 9h1V8h-1zM15 11h1v-1h-1zM14 12h1v-1.001h-1z"/>
        <path fill="#323232" d="M13 12h1.001v-1.001H13zM12 12h1v-1.001h-1z"/>
        <path fill="#F39A20" d="M12 13h1v-1h-1zM11 14h1v-1h-1zM10 15h1v-1h-1zM13 10h1.001V9H13z"/>
        <path fill="#323232" d="M2 2h1V1H2z"/>
        <path fill="#3EA882" d="M3 2h1V1H3z"/>
        <path fill="#323232" d="M12 2h1V1h-1zM13 2h1.001V1H13z"/>
        <path fill="#2C8765" d="M12 2h1V1h-1z"/>
        <path fill="#323232" d="M3 14h1v-1H3zM12 14h1v-1h-1zM11 15h1v-1h-1z"/>
        <path fill="#123827" d="M9 9h1V8H9zM9 11h1v-1H9zM10 10h1V9h-1z"/>
        <path fill="#323232" d="M2 12h1v-1.001H2zM3 12h1v-1.001H3zM14 10h1V9h-1z"/>
    </g>
</svg>
