<svg xmlns="http://www.w3.org/2000/svg" width="20" height="20" viewBox="0 0 20 20">
    <path fill="#333" fill-rule="nonzero" d="M2.575 11.438h3.2a.6.6 0 0 1 .081 1.194l-.081.006H3.689a6.805 6.805 0 0 0 12.835-.762.6.6 0 0 1 1.155.324 8.003 8.003 0 0 1-14.504 2.056v.982a.6.6 0 0 1-1.195.081l-.005-.081v-3.2a.6.6 0 0 1 .519-.595l.081-.005zm14.53-2.8h-2.93a.6.6 0 0 1-.081-1.195l.081-.005h2.086A6.805 6.805 0 0 0 3.426 8.2a.6.6 0 0 1-1.155-.324A8.003 8.003 0 0 1 16.776 5.82l-.001-.982a.6.6 0 0 1 1.195-.082l.005.082v3.2a.6.6 0 0 1-.519.594l-.081.006h-3.2 2.93z"/>
</svg>
