<svg xmlns="http://www.w3.org/2000/svg" width="24" height="24" viewBox="0 0 24 24">
    <g fill="none" fill-rule="evenodd">
        <circle cx="12" cy="12" r="11" fill="#2E3343" stroke="#B2BAD1"/>
        <path d="M4 4h16v16H4z"/>
        <path fill="#949CB1" fill-rule="nonzero" d="M8.72 5.5h6.56a1.5 1.5 0 0 1 1.373.898l.05.128 1.771 5.316c.017.05.026.103.026.158v4a2.5 2.5 0 0 1-2.5 2.5H8A2.5 2.5 0 0 1 5.5 16v-4l.007-.081.019-.077 1.772-5.316a1.5 1.5 0 0 1 1.286-1.02L8.72 5.5h6.558zm-.22 7h-2V16A1.5 1.5 0 0 0 8 17.5h8a1.5 1.5 0 0 0 1.5-1.5v-3.5h-2a.5.5 0 0 0-.4.2l-1.2 1.6a.5.5 0 0 1-.4.2h-3a.5.5 0 0 1-.4-.2l-1.2-1.6a.5.5 0 0 0-.4-.2zm6.78-6H8.72a.5.5 0 0 0-.437.259l-.037.083L6.693 11.5H8.5a1.5 1.5 0 0 1 1.2.6l1.05 1.4h2.5l1.05-1.4a1.5 1.5 0 0 1 1.2-.6h1.806l-1.552-4.658a.5.5 0 0 0-.384-.334l-.09-.008zm-.78 3a.5.5 0 1 1 0 1h-5a.5.5 0 0 1 0-1h5zm-1-2a.5.5 0 0 1 0 1h-3a.5.5 0 0 1 0-1h3z"/>
    </g>
</svg>
