<svg xmlns="http://www.w3.org/2000/svg" width="74" height="38" viewBox="0 0 74 38">
    <g fill="none" fill-rule="evenodd">
        <g fill="#911FDE">
            <circle cx="37" cy="19" r="19"/>
            <path fill-rule="nonzero" d="M70 1.5a4 4 0 1 1 0 8 4 4 0 0 1 0-8zm0 1a3 3 0 1 0 0 6 3 3 0 0 0 0-6z"/>
            <circle cx="2.5" cy="21.5" r="2.5"/>
        </g>
        <g transform="translate(27 8)">
            <rect width="20" height="22" fill="#FFF" rx="2"/>
            <rect width="6" height="2" x="2.8" y="7.059" fill="#911FDE" rx="1"/>
            <path fill="#911FDE" fill-rule="nonzero" d="M12.106 11L15 13.846 9.995 18.9a.35.35 0 0 1-.246.1H7.348A.345.345 0 0 1 7 18.658v-2.363c0-.09.037-.178.102-.242L12.106 11zm4.286-1.394c.81.809.81 2.119 0 2.927l-.457.467L13 10.074l.458-.468a2.08 2.08 0 0 1 2.934 0z"/>
            <rect width="14" height="2" x="2.8" y="3" fill="#911FDE" rx="1"/>
        </g>
    </g>
</svg>
