<svg xmlns="http://www.w3.org/2000/svg" xmlns:xlink="http://www.w3.org/1999/xlink" width="26" height="26" viewBox="0 0 26 26">
    <defs>
        <path id="a" d="M10.243 2.96l.417-.15a1.5 1.5 0 0 1 1.797.64l.515.861a1.5 1.5 0 0 1-.373 1.96l-.24.184c.042.365.041.733-.002 1.098l.252.196a1.5 1.5 0 0 1 .357 1.96l-.512.843a1.5 1.5 0 0 1-1.807.627l-.394-.148a5.48 5.48 0 0 1-1.013.567l-.108.649a1.5 1.5 0 0 1-1.48 1.253h-1.34a1.5 1.5 0 0 1-1.484-1.277l-.095-.636a5.463 5.463 0 0 1-.976-.548l-.417.151a1.5 1.5 0 0 1-1.797-.64l-.515-.861a1.5 1.5 0 0 1 .373-1.96l.24-.184a4.742 4.742 0 0 1 .002-1.098l-.252-.196a1.5 1.5 0 0 1-.357-1.96l.512-.843a1.5 1.5 0 0 1 1.807-.627l.394.148a5.48 5.48 0 0 1 1.013-.567l.108-.649A1.5 1.5 0 0 1 6.348.5h1.34a1.5 1.5 0 0 1 1.484 1.277l.095.636c.345.15.672.333.976.548zm-2.06-1.034A.5.5 0 0 0 7.69 1.5H6.347a.5.5 0 0 0-.493.418L5.652 3.13l-.273.1a4.593 4.593 0 0 0-1.24.694l-.222.176-.914-.342a.5.5 0 0 0-.602.209l-.513.843a.5.5 0 0 0 .12.653l.719.563-.055.298a3.744 3.744 0 0 0-.002 1.35l.055.3-.715.548a.5.5 0 0 0-.124.653l.515.861A.5.5 0 0 0 3 10.25l.931-.337.218.172c.361.285.77.513 1.21.676l.276.103.182 1.21a.5.5 0 0 0 .494.426h1.342a.5.5 0 0 0 .493-.418l.202-1.212.273-.1a4.593 4.593 0 0 0 1.24-.694l.222-.176.914.342a.5.5 0 0 0 .602-.209l.513-.843a.5.5 0 0 0-.12-.653l-.719-.563.055-.298c.082-.446.083-.902.002-1.35l-.055-.3.715-.548a.5.5 0 0 0 .124-.653l-.515-.861A.5.5 0 0 0 11 3.75l-.931.337-.218-.172a4.464 4.464 0 0 0-1.21-.676l-.276-.103-.182-1.21zM7 9.5a2.5 2.5 0 1 1 0-5 2.5 2.5 0 0 1 0 5zm0-1a1.5 1.5 0 1 0 0-3 1.5 1.5 0 0 0 0 3z"/>
    </defs>
    <g fill="none" fill-rule="evenodd" transform="translate(1 1)">
        <circle cx="12" cy="12" r="12" fill="#2E3343" stroke="#B2BAD1"/>
        <g transform="translate(5 5)">
            <mask id="b" fill="#fff">
                <use xlink:href="#a"/>
            </mask>
            <use fill="#000" fill-rule="nonzero" xlink:href="#a"/>
            <g mask="url(#b)">
                <path fill="#949CB1" d="M-1-1h16v16H-1z"/>
            </g>
        </g>
    </g>
</svg>
