<svg xmlns="http://www.w3.org/2000/svg" xmlns:xlink="http://www.w3.org/1999/xlink" width="75" height="39" viewBox="0 0 75 39">
    <defs>
        <path id="a" d="M8.29 2.161c.125-.125.401-.053.616.162.215.215.288.491.162.617l-2.79 2.789 2.79 2.79c.112.111.067.342-.096.543l-.066.073c-.215.215-.491.288-.616.163L5.5 6.507l-2.79 2.79c-.111.112-.342.067-.542-.095l-.074-.067c-.215-.215-.288-.49-.162-.616l2.79-2.79-2.79-2.79c-.112-.11-.067-.341.096-.542l.066-.074c.215-.215.491-.287.616-.162l2.79 2.79z"/>
        <path id="b" d="M8.29 1.611c.125-.125.401-.053.616.162.215.215.288.491.162.616l-2.79 2.79 2.79 2.79c.112.111.067.342-.096.542l-.066.074c-.215.215-.491.288-.616.162L5.5 5.957l-2.79 2.79c-.111.112-.342.067-.542-.096l-.074-.066c-.215-.215-.288-.49-.162-.616l2.79-2.79-2.79-2.79c-.112-.111-.067-.341.096-.542l.066-.074c.215-.215.491-.287.616-.162l2.79 2.79z"/>
    </defs>
    <g fill="none" fill-rule="evenodd">
        <g>
            <circle cx="38" cy="20" r="19" fill="#5E3DF5"/>
            <use fill="#5E3DF5" fill-rule="nonzero" transform="rotate(-45 63.617 -61.573)" xlink:href="#a"/>
            <use fill="#5E3DF5" fill-rule="nonzero" transform="rotate(-45 5.5 4.95)" xlink:href="#b"/>
        </g>
        <path fill="#FFF" d="M38.26 9a7.028 7.028 0 0 1 7.036 7.037 7.028 7.028 0 0 1-7.037 7.037 7.028 7.028 0 0 1-7.037-7.037A7.028 7.028 0 0 1 38.26 9zM38.26 35.74c-4.692 0-8.84-2.251-11.26-5.664.056-3.501 7.506-5.419 11.26-5.419 3.734 0 11.202 1.918 11.259 5.419-2.421 3.413-6.568 5.665-11.26 5.665z"/>
        <path fill="#5E3DF5" fill-rule="nonzero" d="M35.178 18.95c2.013 1.656 4.15 1.656 6.163 0a.75.75 0 1 0-.954-1.16c-1.46 1.202-2.796 1.202-4.256 0a.75.75 0 1 0-.953 1.16z"/>
    </g>
</svg>
