<svg xmlns="http://www.w3.org/2000/svg" xmlns:xlink="http://www.w3.org/1999/xlink" width="40" height="40" viewBox="0 0 40 40">
    <defs>
        <path id="a" d="M.366.366a1.25 1.25 0 0 1 1.768 0l11.49 11.49L25.114.366a1.25 1.25 0 0 1 1.667-.091l.102.091a1.25 1.25 0 0 1 0 1.768L15.39 13.624l11.492 11.49a1.25 1.25 0 0 1 .09 1.667l-.09.102a1.25 1.25 0 0 1-1.768 0L13.624 15.39 2.134 26.883a1.25 1.25 0 0 1-1.666.09l-.102-.09a1.25 1.25 0 0 1 0-1.768l11.49-11.491L.366 2.134A1.25 1.25 0 0 1 .275.468z"/>
    </defs>
    <use fill="#666" fill-rule="nonzero" transform="translate(6.376 6.376)" xlink:href="#a"/>
</svg>
