<svg xmlns="http://www.w3.org/2000/svg" xmlns:xlink="http://www.w3.org/1999/xlink" width="24" height="24" viewBox="0 0 24 24">
    <defs>
        <path id="a" d="M18.19 1.293a4.416 4.416 0 0 1-.001 6.245L6.462 19.262a.75.75 0 0 1-.53.22H.75a.75.75 0 0 1-.75-.75v-5.184a.75.75 0 0 1 .22-.53L11.947 1.292a4.414 4.414 0 0 1 6.242 0zm.56 16.689a.75.75 0 1 1 0 1.5h-7.5a.75.75 0 1 1 0-1.5zM10.908 4.45L1.5 13.858v4.124h4.12l9.41-9.409-4.122-4.122zm2.1-2.098L11.968 3.39l4.122 4.122 1.037-1.035a2.915 2.915 0 0 0-4.12-4.124z"/>
    </defs>
    <use fill="#FFF" fill-rule="nonzero" transform="translate(2.25 2.268)" xlink:href="#a"/>
</svg>
