<svg xmlns="http://www.w3.org/2000/svg" width="61" height="16" viewBox="0 0 61 16">
    <path fill="#FFF" d="M5.379 15.75c1.071 0 1.504-.753 1.504-1.437 0-.729-.41-1.504-1.39-1.572V3.236c.98-.045 1.39-.774 1.39-1.458C6.883 1.003 6.45.25 5.38.25h-3.83C.434.25 0 1.003 0 1.778c0 .684.387 1.413 1.413 1.458v9.505C.387 12.809 0 13.607 0 14.313c0 .684.433 1.436 1.55 1.436h3.829zm5.542.25c1.026 0 2.074-.57 2.074-1.892V9.823c0-1.048-.045-1.823-.068-2.712h.045c.274.547.867 1.573 1.231 2.12l3.852 5.63c.752 1.093 1.96 1.116 2.37 1.116.867 0 1.983-.638 1.983-2.005V1.915C22.408.593 21.428 0 20.471 0c-1.003 0-2.074.593-2.074 1.915v4.284c0 1.003.068 1.801.091 2.667h-.045c-.32-.684-.775-1.527-1.163-2.074l-3.852-5.607C12.631.023 11.673 0 11.126 0c-1.025 0-2.142.638-2.142 2.074v12.034C8.984 15.43 9.987 16 10.92 16zm19.879-.25c4.102 0 7.886-1.596 7.886-7.75 0-6.108-3.784-7.75-7.886-7.75h-3.807c-.98 0-2.005.525-2.005 1.892v11.716c0 1.344 1.025 1.891 2.028 1.891H30.8zm.16-3.328h-1.824V3.578h1.823c2.302 0 3.419.935 3.419 4.422 0 3.487-1.117 4.422-3.419 4.422zm14.658 3.327c1.071 0 1.505-.752 1.505-1.436 0-.729-.41-1.504-1.39-1.572V3.236c.98-.045 1.39-.774 1.39-1.458 0-.775-.434-1.527-1.505-1.527H41.79c-1.117 0-1.55.752-1.55 1.527 0 .684.388 1.413 1.413 1.458v9.505c-1.025.068-1.413.866-1.413 1.572 0 .684.433 1.436 1.55 1.436h3.83zm12.95 0c1.253 0 1.778-.957 1.778-1.755 0-.866-.525-1.71-1.778-1.71h-4.695c-.388 0-.57-.159-.57-.546V9.413h4.513c1.253 0 1.778-.934 1.778-1.755 0-.866-.525-1.71-1.778-1.71h-4.513V4.263c0-.387.182-.547.57-.547h4.444c1.254 0 1.778-.843 1.778-1.71 0-.82-.524-1.754-1.778-1.754h-6.062c-1.505 0-3.032.82-3.032 2.849v9.8c0 2.029 1.527 2.85 3.032 2.85h6.313z"/>
</svg>
