<svg xmlns="http://www.w3.org/2000/svg" xmlns:xlink="http://www.w3.org/1999/xlink" width="71" height="16" viewBox="0 0 71 16">
    <defs>
        <path id="prefix__a" d="M34.12.073c4.41 0 7.985 3.566 7.985 7.964 0 4.398-3.575 7.963-7.984 7.963-4.41 0-7.984-3.565-7.984-7.963S29.71.073 34.12.073zM6.378.005c1.228 0 3.73.26 4.713 1.24.38.379.566.847.566 1.448 0 .936-.639 1.633-1.666 1.633-.715 0-2.005-.642-3.725-.642-1.072 0-1.878.162-1.878.836 0 .137.037.27.144.43.056.084.133.166.232.245 1.441 1.216 7.814.754 7.814 5.815 0 3.364-2.895 4.945-6.49 4.945-2.502 0-6.087-.98-6.087-3.118 0-.98.634-1.826 1.661-1.826.982 0 2.372 1.186 4.826 1.186 1.35 0 1.988-.291 1.988-.897 0-.29-.112-.455-.29-.633C6.732 9.286.334 9.502.334 4.573c0-2.83 2.49-4.568 6.042-4.568zM65.417 0c.888 0 3.508.05 4.41.524.78.41 1.253 1.148 1.162 2.012-.12 1.142-1.086 1.614-2.232 1.495-.028-.003-1.521-.168-3.398-.168 0 0-.995-.008-2.279.145-.17.02-.3.166-.3.337v1.813h5.053c.99 0 1.853.794 1.862 1.778-.01.984-.873 1.778-1.862 1.778H62.78v1.813c0 .172.13.316.3.337 1.081.129 1.958.144 2.207.145h.072c1.877 0 3.37-.165 3.398-.168 1.146-.119 2.112.353 2.232 1.495.09.864-.381 1.602-1.162 2.013-.902.474-3.522.523-4.41.523-1.827 0-2.799-.116-3.663-.272-.936-.172-1.564-.57-1.98-1.087-.657-.815-.792-1.925-.792-2.91V4.269c0-.985.135-2.095.792-2.91.416-.517 1.044-.915 1.98-1.087C62.618.116 63.59 0 65.418 0zM55.085.203c.75 0 2.039.655 2.039 2.169 0 3.298-2.333 9.968-5.006 12.634-.554.553-1.262.848-1.979.839-.717.009-1.424-.286-1.978-.839-2.673-2.666-5.006-9.336-5.006-12.634 0-1.514 1.249-2.169 2.038-2.169 1.45 0 1.88.949 2.062 2.146.475 3.095 1.472 6.005 2.854 8.942h.061c1.382-2.937 2.378-5.847 2.854-8.942.181-1.197.611-2.146 2.061-2.146zM19.65.159c2.872 0 4.8.28 4.916.3 1.286.216 2.052 1.104 1.936 2.209-.116 1.104-1.059 1.705-2.166 1.59-.018-.003-1.224-.087-2.69-.142v9.91c0 1.334-1.076 1.817-2.095 1.817-.997 0-1.981-.483-1.981-1.816V4.115c-1.304.056-2.63.14-2.649.142-1.108.115-2.016-.485-2.132-1.59-.116-1.104.71-2.012 1.945-2.208.116-.019 2.144-.3 4.916-.3zm14.464 3.867c-2.226 0-4.03 1.799-4.03 4.019s1.804 4.019 4.03 4.019c2.225 0 4.03-1.8 4.03-4.02 0-2.219-1.805-4.018-4.03-4.018z"/>
    </defs>
    <g fill="none" fill-rule="evenodd">
        <mask id="prefix__b" fill="#fff">
            <use xlink:href="#prefix__a"/>
        </mask>
        <use fill="#FF5000" xlink:href="#prefix__a"/>
        <g fill="#FF5000" mask="url(#prefix__b)">
            <path d="M0 0L71 0 71 16 0 16z"/>
        </g>
    </g>
</svg>
