<?xml version="1.0" encoding="UTF-8"?>
<svg width="32px" height="32px" viewBox="0 0 32 32" version="1.1" xmlns="http://www.w3.org/2000/svg" xmlns:xlink="http://www.w3.org/1999/xlink">
    <title>B8C831FF-E486-42B9-A16A-6B173084BD51</title>
    <g id="STDS_Icon" stroke="none" stroke-width="1" fill="none" fill-rule="evenodd">
        <g id="object" transform="translate(-364.000000, -2825.000000)" fill="#000000">
            <g id="ic_object_report_line" transform="translate(300.000000, 2785.000000)">
                <g id="ic/object/report/line" transform="translate(64.000000, 40.000000)">
                    <g id="ic_object_report_line" transform="translate(4.000000, 3.000000)">
                        <path d="M12,0 C17.4281276,0 21.847894,4.30588257 21.9961572,9.67580782 L22,9.95449487 L22.0009007,17.1710242 C23.1073865,17.5625103 23.9157364,18.5847648 23.9938052,19.8056423 L24,20 L24,24 C24,24.5128358 23.6139598,24.9355072 23.1166211,24.9932723 L23,25 L1,25 C0.487164161,25 0.0644928393,24.6139598 0.00672773133,24.1166211 L0,24 L0,20 C0,18.6937479 0.834850101,17.5824856 2.00008893,17.1706743 L2,9.95449487 C2,4.45564127 6.47828403,0 12,0 Z M21,19 L3,19 C2.48716416,19 2.06449284,19.3860402 2.00672773,19.8833789 L2,20 L2,23 L22,23 L22,20 C22,19.5266131 21.6710663,19.1300527 21.2292908,19.0264107 L21.1166211,19.0067277 L21,19 Z M12,2 C7.66397555,2 4.13541524,5.42932134 4.00380564,9.70679491 L4,9.95449487 L4,17 L20,17 L20,9.95449487 C20,5.56248655 16.4194095,2 12,2 Z M12,4 C12.5522847,4 13,4.44771525 13,5 C13,5.55228475 12.5522847,6 12,6 C9.77929925,6 8,7.68699452 8,9.74061493 C8,10.2928997 7.55228475,10.7406149 7,10.7406149 C6.44771525,10.7406149 6,10.2928997 6,9.74061493 C6,6.55789668 8.69785325,4 12,4 Z" id="Shape"></path>
                    </g>
                </g>
            </g>
        </g>
    </g>
</svg>