<?xml version="1.0" encoding="UTF-8"?>
<svg width="32px" height="32px" viewBox="0 0 32 32" version="1.1" xmlns="http://www.w3.org/2000/svg" xmlns:xlink="http://www.w3.org/1999/xlink">
    <title>FC6D2002-DCF9-4C67-8278-C58327DFC173</title>
    <g id="STDS_Icon" stroke="none" stroke-width="1" fill="none" fill-rule="evenodd">
        <g id="object" transform="translate(-364.000000, -1025.000000)" fill="#000000">
            <g id="ic_object_delete_line" transform="translate(300.000000, 985.000000)">
                <g id="ic/object/delete/line" transform="translate(64.000000, 40.000000)">
                    <g id="ic_object_delete_line" transform="translate(4.000000, 2.000000)">
                        <path d="M15,0 C16.5976809,0 17.9036609,1.24891996 17.9949073,2.82372721 L18,3 L18,4 L23,4 C23.5522847,4 24,4.44771525 24,5 C24,5.51283584 23.6139598,5.93550716 23.1166211,5.99327227 L23,6 L22,6 L22,23 C22,24.5976809 20.75108,25.9036609 19.1762728,25.9949073 L19,26 L5,26 C3.40231912,26 2.09633912,24.75108 2.00509269,23.1762728 L2,23 L2,6 L1,6 C0.44771525,6 0,5.55228475 0,5 C0,4.48716416 0.38604019,4.06449284 0.883378875,4.00672773 L1,4 L6,4 L6,3 C6,1.40231912 7.24891996,0.0963391206 8.82372721,0.00509269341 L9,0 L15,0 Z M20,6 L4,6 L4,23 C4,23.5128358 4.38604019,23.9355072 4.88337887,23.9932723 L5,24 L19,24 C19.5128358,24 19.9355072,23.6139598 19.9932723,23.1166211 L20,23 L20,6 Z M9,10.5 C9.51283584,10.5 9.93550716,10.8860402 9.99327227,11.3833789 L10,11.5 L10,18.5 C10,19.0522847 9.55228475,19.5 9,19.5 C8.48716416,19.5 8.06449284,19.1139598 8.00672773,18.6166211 L8,18.5 L8,11.5 C8,10.9477153 8.44771525,10.5 9,10.5 Z M15,10.5 C15.5128358,10.5 15.9355072,10.8860402 15.9932723,11.3833789 L16,11.5 L16,18.5 C16,19.0522847 15.5522847,19.5 15,19.5 C14.4871642,19.5 14.0644928,19.1139598 14.0067277,18.6166211 L14,18.5 L14,11.5 C14,10.9477153 14.4477153,10.5 15,10.5 Z M15,2 L9,2 C8.48716416,2 8.06449284,2.38604019 8.00672773,2.88337887 L8,3 L8,4 L16,4 L16,3 C16,2.48716416 15.6139598,2.06449284 15.1166211,2.00672773 L15,2 Z" id="Shape"></path>
                    </g>
                </g>
            </g>
        </g>
    </g>
</svg>