<?xml version="1.0" encoding="UTF-8"?>
<svg width="32px" height="32px" viewBox="0 0 32 32" version="1.1" xmlns="http://www.w3.org/2000/svg" xmlns:xlink="http://www.w3.org/1999/xlink">
    <title>0A987561-C131-4776-A1CB-601571BE634B</title>
    <g id="STDS_Icon" stroke="none" stroke-width="1" fill="none" fill-rule="evenodd">
        <g id="object" transform="translate(-364.000000, -665.000000)" fill="#000000">
            <g id="ic_object_download_line" transform="translate(300.000000, 625.000000)">
                <g id="ic/object/download/line" transform="translate(64.000000, 40.000000)">
                    <g id="ic_object_download_line" transform="translate(3.000000, 4.000000)">
                        <path d="M25,13 C25.5128358,13 25.9355072,13.3860402 25.9932723,13.8833789 L26,14 L26,21 C26,22.5976809 24.75108,23.9036609 23.1762728,23.9949073 L23,24 L3,24 C1.40231912,24 0.0963391206,22.75108 0.00509269341,21.1762728 L0,21 L0,14 C0,13.4477153 0.44771525,13 1,13 C1.51283584,13 1.93550716,13.3860402 1.99327227,13.8833789 L2,14 L2,21 C2,21.5128358 2.38604019,21.9355072 2.88337887,21.9932723 L3,22 L23,22 C23.5128358,22 23.9355072,21.6139598 23.9932723,21.1166211 L24,21 L24,14 C24,13.4477153 24.4477153,13 25,13 Z M13,0 C13.5128358,0 13.9355072,0.38604019 13.9932723,0.883378875 L14,1 L14,13.585 L18.2928932,9.29289322 C18.6533772,8.93240926 19.2206082,8.90467972 19.6128994,9.20970461 L19.7071068,9.29289322 C20.0675907,9.65337718 20.0953203,10.2206082 19.7902954,10.6128994 L19.7071068,10.7071068 L13.7071068,16.7071068 C13.3466228,17.0675907 12.7793918,17.0953203 12.3871006,16.7902954 L12.2928932,16.7071068 L6.29289322,10.7071068 C5.90236893,10.3165825 5.90236893,9.68341751 6.29289322,9.29289322 C6.65337718,8.93240926 7.22060824,8.90467972 7.61289944,9.20970461 L7.70710678,9.29289322 L12,13.585 L12,1 C12,0.44771525 12.4477153,0 13,0 Z" id="Shape"></path>
                    </g>
                </g>
            </g>
        </g>
    </g>
</svg>