<?xml version="1.0" encoding="UTF-8"?>
<svg width="32px" height="32px" viewBox="0 0 32 32" version="1.1" xmlns="http://www.w3.org/2000/svg" xmlns:xlink="http://www.w3.org/1999/xlink">
    <title>A915C773-A9E7-45EE-88AB-692FD6A65FDB</title>
    <g id="STDS_Icon" stroke="none" stroke-width="1" fill="none" fill-rule="evenodd">
        <g id="state" transform="translate(-364.000000, -665.000000)" fill="#000000">
            <g id="ic_state_help_circle_line" transform="translate(300.000000, 625.000000)">
                <g id="ic/state/help_circle/line" transform="translate(64.000000, 40.000000)">
                    <g id="ic_state_help_circle_line" transform="translate(2.000000, 2.000000)">
                        <path d="M14,0 C21.7319865,0 28,6.2680135 28,14 C28,21.7319865 21.7319865,28 14,28 C6.2680135,28 0,21.7319865 0,14 C0,6.2680135 6.2680135,0 14,0 Z M14,2 C7.372583,2 2,7.372583 2,14 C2,20.627417 7.372583,26 14,26 C20.627417,26 26,20.627417 26,14 C26,7.372583 20.627417,2 14,2 Z M14,18 C14.8284271,18 15.5,18.6715729 15.5,19.5 C15.5,20.3284271 14.8284271,21 14,21 C13.1715729,21 12.5,20.3284271 12.5,19.5 C12.5,18.6715729 13.1715729,18 14,18 Z M14,7 C16.205216,7 18,8.76329653 18,10.9473684 C18,12.7343363 16.798533,14.2396282 15.1538204,14.7279337 L15,14.769 L15,16 C15,16.5128358 14.6139598,16.9355072 14.1166211,16.9932723 L14,17 C13.4871642,17 13.0644928,16.6139598 13.0067277,16.1166211 L13,16 L13,13.8947368 C13,13.3424521 13.4477153,12.8947368 14,12.8947368 C15.1084925,12.8947368 16,12.0188698 16,10.9473684 C16,9.87586705 15.1084925,9 14,9 C12.8915075,9 12,9.87586705 12,10.9473684 C12,11.4996532 11.5522847,11.9473684 11,11.9473684 C10.4477153,11.9473684 10,11.4996532 10,10.9473684 C10,8.76329653 11.794784,7 14,7 Z" id="Shape"></path>
                    </g>
                </g>
            </g>
        </g>
    </g>
</svg>