<?xml version="1.0" encoding="UTF-8"?>
<svg width="32px" height="32px" viewBox="0 0 32 32" version="1.1" xmlns="http://www.w3.org/2000/svg" xmlns:xlink="http://www.w3.org/1999/xlink">
    <title>73CAC5DC-2E20-45C2-B40D-2F2A6F1593D9</title>
    <g id="STDS_Icon" stroke="none" stroke-width="1" fill="none" fill-rule="evenodd">
        <g id="state" transform="translate(-364.000000, -845.000000)" fill="#000000">
            <g id="ic_state_block_line" transform="translate(300.000000, 805.000000)">
                <g id="ic/state/block/line" transform="translate(64.000000, 40.000000)">
                    <g id="ic_state_block_line" transform="translate(2.000000, 2.000000)">
                        <path d="M14,0 C21.7319865,0 28,6.2680135 28,14 C28,21.7319865 21.7319865,28 14,28 C6.2680135,28 0,21.7319865 0,14 C0,6.2680135 6.2680135,0 14,0 Z M4.83673926,6.25140247 C3.067074,8.34205133 2,11.0464114 2,14 C2,20.627417 7.372583,26 14,26 C16.9535886,26 19.6579487,24.932926 21.7485975,23.1632607 L4.83673926,6.25140247 Z M14,2 C11.0464114,2 8.34205133,3.067074 6.25140247,4.83673926 L23.1632607,21.7485975 C24.932926,19.6579487 26,16.9535886 26,14 C26,7.372583 20.627417,2 14,2 Z" id="Shape"></path>
                    </g>
                </g>
            </g>
        </g>
    </g>
</svg>