<svg xmlns="http://www.w3.org/2000/svg" width="24" height="24" viewBox="0 0 24 24">
    <g fill="none" fill-rule="evenodd" stroke="#333">
        <path d="M12.369 8.965l-5.92 3.7V5.679l5.92 3.286z" transform="translate(3 3)"/>
        <path d="M16 17.497H2c-.414 0-.789-.168-1.06-.44-.272-.271-.44-.646-.44-1.06v-14c0-.414.168-.79.44-1.06.271-.272.646-.44 1.06-.44h14c.415 0 .79.168 1.061.44.271.27.44.646.44 1.06v14c0 .414-.169.789-.44 1.06-.271.272-.646.44-1.06.44z" transform="translate(3 3)"/>
    </g>
</svg>
