<svg xmlns="http://www.w3.org/2000/svg" width="24" height="24" viewBox="0 0 24 24">
    <g fill="none" fill-rule="evenodd" stroke="#ff5000">
        <path d="M3.882 5.536l12.267.139c.37.004.71.142.972.371.261.23.443.549.496.915h0l1.559 10.825c.06.41-.054.805-.284 1.113-.223.299-.558.515-.954.58h0L2.305 19.5c-.414 0-.79-.168-1.06-.44-.265-.264-.431-.626-.44-1.027h0L2.38 6.825c.053-.373.24-.697.508-.927.268-.23.617-.366.994-.362h0z" transform="translate(2 2)"/>
        <path stroke-linecap="round" stroke-linejoin="round" d="M6.198 8.326V4.604c0-2.21 1.697-4 3.79-4 2.092 0 3.788 1.79 3.788 4v3.722" transform="translate(2 2)"/>
    </g>
</svg>
