<svg xmlns="http://www.w3.org/2000/svg" width="22" height="22" viewBox="0 0 22 22">
    <g fill="none" fill-rule="evenodd">
        <g stroke="#BBB">
            <g transform="translate(-2354 -2048) translate(2354 2048)">
                <circle cx="11" cy="11" r="10.5"/>
                <g>
                    <g>
                        <path stroke-linecap="round" stroke-linejoin="round" d="M10.94 3.646c.095.371.146.76.147 1.16l.01 3.322.845 2.31H4.314m-2.873 0h-.5l.844-2.31V4.692c0-2.484 1.975-4.507 4.44-4.585l.204-.002c1.324.016 2.516.577 3.362 1.468" transform="translate(3.75 4.75) translate(.808 .145)"/>
                        <path stroke-linecap="round" d="M13.111 1.385L1.824 12.871" transform="translate(3.75 4.75) translate(.808 .145)"/>
                        <path d="M8.21 10.832c0 .957-.776 1.732-1.733 1.732h-.073c-.954-.006-1.725-.778-1.73-1.732" transform="translate(3.75 4.75) translate(.808 .145)"/>
                    </g>
                </g>
            </g>
        </g>
    </g>
</svg>
