<svg xmlns="http://www.w3.org/2000/svg" width="32" height="32" viewBox="0 0 32 32">
    <g fill="none" fill-rule="evenodd">
        <path stroke="#CCC" stroke-linecap="round" stroke-width="1.5" d="M23.25 6.958V1.997a2 2 0 00-2-2H2.71a2 2 0 00-2 2v20a2 2 0 002 2h4.247" transform="translate(4 4)"/>
        <path fill="#FF5000" d="M23.958 12.851a4.05 4.05 0 00-5.87 0l-.683.708-.683-.708a4.05 4.05 0 00-5.87 0c-1.62 1.679-1.62 4.4 0 6.078l5.594 5.793c.472.489 1.228.539 1.758.142l.16-.142 5.594-5.793c1.62-1.678 1.62-4.4 0-6.078z" transform="translate(4 4)"/>
        <path stroke="#CCC" stroke-linecap="round" stroke-linejoin="round" stroke-width="1.5" d="M7.523 4.36L7.523 10.36M4.523 7.36L10.523 7.36" transform="translate(4 4)"/>
    </g>
</svg>
