<svg xmlns="http://www.w3.org/2000/svg" width="50" height="50" viewBox="0 0 50 50">
    <g fill="none" fill-rule="evenodd">
        <circle cx="25" cy="25" r="25" fill="#333"/>
        <path fill="#FFF" d="M34.333 15.667c1.289 0 2.334 1.044 2.334 2.333v3.657c-1.427.442-2.462 1.771-2.462 3.343s1.035 2.901 2.462 3.343V32c0 1.289-1.045 2.333-2.334 2.333H15.667c-1.289 0-2.334-1.044-2.334-2.333V18c0-1.289 1.045-2.333 2.334-2.333h18.666zM28.894 27.53c-.403-.878-1.442-1.262-2.326-.856l-.15.078c-.77.448-1.09 1.417-.71 2.243.405.878 1.444 1.263 2.328.856l.15-.077c.77-.448 1.089-1.417.708-2.244zm-1.162-6.215c-.342-.342-.896-.342-1.237 0l-6.101 6.1-.085.099c-.254.342-.226.828.085 1.139.341.342.895.342 1.237 0l6.101-6.101.085-.098c.254-.343.226-.829-.085-1.14zm-5.321-.268c-.404-.878-1.443-1.263-2.327-.857l-.15.078c-.77.448-1.089 1.417-.709 2.243.404.879 1.443 1.263 2.327.857l.15-.078c.77-.448 1.089-1.417.709-2.243z"/>
    </g>
</svg>
