<svg xmlns="http://www.w3.org/2000/svg" width="16" height="16" viewBox="0 0 16 16">
    <g fill="none" fill-rule="evenodd" stroke="#333">
        <path d="M10.667 12.896H1.333c-.23 0-.438-.093-.589-.244-.15-.15-.244-.36-.244-.59V2.73c0-.23.093-.438.244-.589.15-.15.36-.244.59-.244h9.333c.23 0 .438.093.589.244.15.151.244.36.244.59v9.333c0 .23-.093.438-.244.589-.15.15-.36.244-.59.244zM.514 5.017L11.667 5" transform="translate(2 1.333)"/>
        <path stroke-linecap="round" d="M3.084 2.795L3.084.392M8.938 2.795L8.938.392" transform="translate(2 1.333)"/>
    </g>
</svg>
