<svg xmlns="http://www.w3.org/2000/svg" width="20" height="20" viewBox="0 0 20 20">
    <path fill="#CCC" fill-rule="evenodd" d="M10.156 14.167c.921 0 1.667.746 1.667 1.666 0 .92-.746 1.667-1.667 1.667-.92 0-1.666-.746-1.666-1.667 0-.92.746-1.666 1.666-1.666zm0-5.834c.921 0 1.667.747 1.667 1.667s-.746 1.667-1.667 1.667c-.92 0-1.666-.747-1.666-1.667s.746-1.667 1.666-1.667zm0-5.833c.921 0 1.667.746 1.667 1.667 0 .92-.746 1.666-1.667 1.666-.92 0-1.666-.746-1.666-1.666 0-.92.746-1.667 1.666-1.667z"/>
</svg>
