<svg xmlns="http://www.w3.org/2000/svg" width="40" height="40" viewBox="0 0 40 40">
    <g fill="none" fill-rule="evenodd">
        <g fill-rule="nonzero">
            <g transform="translate(-1618 -1044) translate(1618 1044)">
                <rect width="39" height="39" x=".5" y=".5" fill="#FFF" stroke="#DDD" rx="19.5"/>
                <path fill="#979797" d="M18.724 15.37c.176-.217.435-.35.714-.368.278-.018.552.082.754.275l.084.092 6.5 8c.335.41.292 1.009-.096 1.367-.389.36-.99.353-1.371-.013l-.085-.092-5.724-7.045-5.724 7.045c-.318.39-.876.484-1.304.218l-.103-.073c-.39-.318-.484-.876-.218-1.304l.073-.103 6.5-8v.001z"/>
            </g>
        </g>
    </g>
</svg>
