<svg xmlns="http://www.w3.org/2000/svg" width="20" height="20" viewBox="0 0 20 20">
    <g fill="none" fill-rule="evenodd">
        <g fill="#FFF" fill-rule="nonzero">
            <g>
                <g>
                    <g>
                        <path d="M8.333.823c4.603 0 8.334 3.73 8.334 8.333 0 4.602-3.731 8.333-8.334 8.333C3.731 17.49 0 13.76 0 9.156 0 4.554 3.731.823 8.333.823zm0 1.25c-3.912 0-7.083 3.171-7.083 7.083 0 3.912 3.171 7.083 7.083 7.083 3.912 0 7.084-3.17 7.084-7.083 0-3.912-3.172-7.083-7.084-7.083zm0 10.028c.46 0 .834.373.834.833 0 .46-.373.833-.834.833-.46 0-.833-.373-.833-.833 0-.46.373-.833.833-.833zm.904-7.64c1.11.398 1.848 1.464 1.847 2.656 0 .887-.522 1.597-1.346 2.157-.228.155-.455.284-.663.387l-.136.064v.855c0 .317-.235.578-.54.62l-.085.005c-.316 0-.577-.235-.619-.54l-.006-.085V9.304c0-.268.17-.506.424-.592l.082-.03c.051-.02.118-.048.196-.084.221-.1.442-.22.644-.358.516-.35.799-.735.799-1.124 0-.667-.41-1.26-1.019-1.478-.787-.282-1.652.14-1.932.953-.113.326-.469.5-.795.387-.326-.112-.5-.468-.387-.794.506-1.467 2.09-2.242 3.536-1.722z" transform="translate(-345 -1050) translate(97 1038) translate(248 12) translate(1.667 .844)"/>
                    </g>
                </g>
            </g>
        </g>
    </g>
</svg>
