<svg xmlns="http://www.w3.org/2000/svg" xmlns:xlink="http://www.w3.org/1999/xlink" width="130" height="130" viewBox="0 0 130 130">
    <defs>
        <filter id="5l2f1r4jcc" width="169.2%" height="746.2%" x="-34.6%" y="-230.8%" filterUnits="objectBoundingBox">
            <feOffset dy="2" in="SourceAlpha" result="shadowOffsetOuter1"/>
            <feGaussianBlur in="shadowOffsetOuter1" result="shadowBlurOuter1" stdDeviation="2"/>
            <feColorMatrix in="shadowBlurOuter1" values="0 0 0 0 0 0 0 0 0 0 0 0 0 0 0 0 0 0 0.2 0"/>
        </filter>
        <filter id="4k5uwnfzsf" width="119.8%" height="126.1%" x="-9.9%" y="-11%" filterUnits="objectBoundingBox">
            <feOffset dy="1" in="SourceAlpha" result="shadowOffsetOuter1"/>
            <feGaussianBlur in="shadowOffsetOuter1" result="shadowBlurOuter1" stdDeviation="2"/>
            <feColorMatrix in="shadowBlurOuter1" values="0 0 0 0 0.210315617 0 0 0 0 0.304936507 0 0 0 0 0.690698596 0 0 0 0.15 0"/>
        </filter>
        <filter id="qktunmv60h" width="183.1%" height="183.1%" x="-41.5%" y="-41.5%" filterUnits="objectBoundingBox">
            <feOffset in="SourceAlpha" result="shadowOffsetOuter1"/>
            <feGaussianBlur in="shadowOffsetOuter1" result="shadowBlurOuter1" stdDeviation=".5"/>
            <feColorMatrix in="shadowBlurOuter1" values="0 0 0 0 1 0 0 0 0 1 0 0 0 0 1 0 0 0 0.2 0"/>
        </filter>
        <filter id="eevvjvj57j" width="183.1%" height="183.1%" x="-41.5%" y="-41.5%" filterUnits="objectBoundingBox">
            <feOffset in="SourceAlpha" result="shadowOffsetOuter1"/>
            <feGaussianBlur in="shadowOffsetOuter1" result="shadowBlurOuter1" stdDeviation=".5"/>
            <feColorMatrix in="shadowBlurOuter1" values="0 0 0 0 1 0 0 0 0 1 0 0 0 0 1 0 0 0 0.2 0"/>
        </filter>
        <filter id="wsypqfgd0l" width="183.1%" height="183.1%" x="-41.5%" y="-41.5%" filterUnits="objectBoundingBox">
            <feOffset in="SourceAlpha" result="shadowOffsetOuter1"/>
            <feGaussianBlur in="shadowOffsetOuter1" result="shadowBlurOuter1" stdDeviation=".5"/>
            <feColorMatrix in="shadowBlurOuter1" values="0 0 0 0 1 0 0 0 0 1 0 0 0 0 1 0 0 0 0.2 0"/>
        </filter>
        <filter id="2gub94g9ho" width="119.8%" height="126.1%" x="-9.9%" y="-11%" filterUnits="objectBoundingBox">
            <feOffset dy="1" in="SourceAlpha" result="shadowOffsetOuter1"/>
            <feGaussianBlur in="shadowOffsetOuter1" result="shadowBlurOuter1" stdDeviation="2"/>
            <feColorMatrix in="shadowBlurOuter1" values="0 0 0 0 0.210315617 0 0 0 0 0.304936507 0 0 0 0 0.690698596 0 0 0 0.15 0"/>
        </filter>
        <filter id="s2mngnhmhq" width="110.5%" height="120%" x="-5.3%" y="-1.3%" filterUnits="objectBoundingBox">
            <feOffset dy="1" in="SourceAlpha" result="shadowOffsetOuter1"/>
            <feGaussianBlur in="shadowOffsetOuter1" result="shadowBlurOuter1" stdDeviation="3"/>
            <feColorMatrix in="shadowBlurOuter1" values="0 0 0 0 0.161255414 0 0 0 0 0.240589513 0 0 0 0 0.564028533 0 0 0 0.15 0"/>
        </filter>
        <filter id="a6vpismqqt">
            <feColorMatrix in="SourceGraphic" values="0 0 0 0 1.000000 0 0 0 0 1.000000 0 0 0 0 1.000000 0 0 0 1.000000 0"/>
        </filter>
        <filter id="nd91j2zx0u" width="258.2%" height="138.2%" x="-79.1%" y="-19.1%" filterUnits="objectBoundingBox">
            <feOffset in="SourceAlpha" result="shadowOffsetOuter1"/>
            <feGaussianBlur in="shadowOffsetOuter1" result="shadowBlurOuter1" stdDeviation="1"/>
            <feColorMatrix in="shadowBlurOuter1" result="shadowMatrixOuter1" values="0 0 0 0 0.68529212 0 0 0 0 0.342992385 0 0 0 0 0.247909125 0 0 0 0.4 0"/>
            <feMerge>
                <feMergeNode in="shadowMatrixOuter1"/>
                <feMergeNode in="SourceGraphic"/>
            </feMerge>
        </filter>
        <path id="cv5u71gkra" d="M5.662 94.388c-2.29 0-4.146-1.856-4.146-4.146s1.856-4.145 4.146-4.145h3.785C5.593 78.184 3.43 69.294 3.43 59.9 3.43 26.818 30.248 0 63.329 0c13.73 0 26.382 4.62 36.485 12.39l8.586.002c2.037 0 3.689 1.652 3.689 3.69 0 2.037-1.652 3.688-3.69 3.688h-3.326c-2.047 0-3.719 1.608-3.821 3.63l-.005.197c0 2.113 1.713 3.826 3.826 3.826h17.764c2.29 0 4.146 1.856 4.146 4.146s-1.856 4.145-4.145 4.145h-4.693c3.268 7.397 5.083 15.579 5.083 24.185 0 33.082-26.818 59.9-59.899 59.9-12.325 0-23.78-3.723-33.303-10.104l-15.995-.001c-2.114 0-3.827-1.714-3.827-3.827s1.713-3.826 3.827-3.826h7.256c2.113 0 3.826-1.714 3.826-3.827s-1.713-3.826-3.826-3.826H5.662zm-1.837 7.653c2.112 0 3.825 1.712 3.825 3.825v.003c0 2.112-1.713 3.825-3.825 3.825-2.113 0-3.825-1.713-3.825-3.825v-.003c0-2.113 1.712-3.825 3.825-3.825zm116.222-89.652c2.038 0 3.69 1.651 3.69 3.689 0 2.038-1.652 3.69-3.69 3.69-2.037 0-3.69-1.652-3.69-3.69 0-2.038 1.653-3.69 3.69-3.69z"/>
        <path id="mv13e82gne" d="M4 0h57.722c2.21 0 4 1.79 4 4v41.833c0 2.21-1.79 4-4 4H4c-2.21 0-4-1.79-4-4V4c0-2.21 1.79-4 4-4z"/>
        <path id="cl97qumesn" d="M4 0h57.722c2.21 0 4 1.79 4 4v41.833c0 2.21-1.79 4-4 4H4c-2.21 0-4-1.79-4-4V4c0-2.21 1.79-4 4-4z"/>
        <path id="oamtq7to6r" d="M40.113 11.685L59.33 44.269c2.244 3.806.979 8.71-2.827 10.955-1.231.726-2.635 1.11-4.064 1.11H14.006c-4.419 0-8-3.582-8-8 0-1.43.382-2.833 1.109-4.065L26.33 11.685c2.245-3.806 7.15-5.072 10.955-2.827 1.167.687 2.14 1.66 2.827 2.827z"/>
        <circle id="p5mtqjvbti" cx="6.861" cy="5.417" r="1.806"/>
        <circle id="w1dek65cbk" cx="12.639" cy="5.417" r="1.806"/>
        <circle id="qf9tfvi0tm" cx="19.139" cy="5.417" r="1.806"/>
        <linearGradient id="tgl114lrzs" x1="83.534%" x2="21.217%" y1="32.458%" y2="93.864%">
            <stop offset="0%" stop-color="#FFE29A"/>
            <stop offset="49.885%" stop-color="#FB9D16"/>
            <stop offset="100%" stop-color="#EE8264"/>
            <stop offset="100%" stop-color="#EE8264"/>
        </linearGradient>
        <rect id="7yerf4bsgd" width="20.222" height="2.167" x="85.222" y="103.278" rx="1.083"/>
    </defs>
    <g fill="none" fill-rule="evenodd">
        <g>
            <g>
                <g>
                    <g>
                        <g transform="translate(-894 -531) translate(480 390) translate(338 141) translate(76) translate(1.444 2.722)">
                            <mask id="sonkeuc1eb" fill="#fff">
                                <use xlink:href="#cv5u71gkra"/>
                            </mask>
                            <g opacity=".7">
                                <use fill="#EBEDF4" xlink:href="#cv5u71gkra"/>
                                <use fill="#DAE3F5" fill-opacity=".1" xlink:href="#cv5u71gkra"/>
                            </g>
                            <g mask="url(#sonkeuc1eb)">
                                <use fill="#000" filter="url(#5l2f1r4jcc)" xlink:href="#7yerf4bsgd"/>
                                <use fill="#816C60" xlink:href="#7yerf4bsgd"/>
                            </g>
                        </g>
                        <g>
                            <g transform="translate(-894 -531) translate(480 390) translate(338 141) translate(76) translate(26 21.5) translate(13 24.556)">
                                <mask id="pdkj8fs71g" fill="#fff">
                                    <use xlink:href="#mv13e82gne"/>
                                </mask>
                                <g>
                                    <use fill="#000" filter="url(#4k5uwnfzsf)" xlink:href="#mv13e82gne"/>
                                    <use fill="#FFF" xlink:href="#mv13e82gne"/>
                                </g>
                                <rect width="28.889" height="5.778" x="12.278" y="17.333" fill="#D7E4FC" mask="url(#pdkj8fs71g)" rx="2.889"/>
                                <rect width="18.056" height="5.778" x="12.278" y="26" fill="#D7E4FC" mask="url(#pdkj8fs71g)" rx="2.889"/>
                                <g mask="url(#pdkj8fs71g)">
                                    <use fill="#000" filter="url(#qktunmv60h)" xlink:href="#p5mtqjvbti"/>
                                    <use fill="#D1DAFF" xlink:href="#p5mtqjvbti"/>
                                </g>
                                <g mask="url(#pdkj8fs71g)">
                                    <use fill="#000" filter="url(#eevvjvj57j)" xlink:href="#w1dek65cbk"/>
                                    <use fill="#D1DAFF" xlink:href="#w1dek65cbk"/>
                                </g>
                                <g mask="url(#pdkj8fs71g)">
                                    <use fill="#000" filter="url(#wsypqfgd0l)" xlink:href="#qf9tfvi0tm"/>
                                    <use fill="#D1DAFF" xlink:href="#qf9tfvi0tm"/>
                                </g>
                            </g>
                            <g transform="translate(-894 -531) translate(480 390) translate(338 141) translate(76) translate(26 21.5) translate(0 13)">
                                <mask id="5yxa1d9zpp" fill="#fff">
                                    <use xlink:href="#cl97qumesn"/>
                                </mask>
                                <g>
                                    <use fill="#000" filter="url(#2gub94g9ho)" xlink:href="#cl97qumesn"/>
                                    <use fill="#FFF" xlink:href="#cl97qumesn"/>
                                </g>
                                <rect width="34.667" height="4.333" x="7.222" y="17.333" fill="#DEE7F8" mask="url(#5yxa1d9zpp)" opacity=".7" rx="2"/>
                                <rect width="23.111" height="4.333" x="7.222" y="26" fill="#DEE7F8" mask="url(#5yxa1d9zpp)" opacity=".7" rx="2"/>
                                <path fill="#8193D0" d="M-3.611 -2.889H67.889V9.389000000000001H-3.611z" mask="url(#5yxa1d9zpp)" opacity=".5"/>
                                <circle cx="48.028" cy="4.694" r="1.806" fill="#D1DAFF" mask="url(#5yxa1d9zpp)" opacity=".7"/>
                                <circle cx="53.806" cy="4.694" r="1.806" fill="#D1DAFF" mask="url(#5yxa1d9zpp)" opacity=".7"/>
                                <circle cx="59.583" cy="4.694" r="1.806" fill="#D1DAFF" mask="url(#5yxa1d9zpp)" opacity=".7"/>
                            </g>
                            <g>
                                <path fill="#816C60" d="M31.417 49.833H35.028V86.666H31.417z" transform="translate(-894 -531) translate(480 390) translate(338 141) translate(76) translate(26 21.5) translate(37.556)"/>
                                <g transform="translate(-894 -531) translate(480 390) translate(338 141) translate(76) translate(26 21.5) translate(37.556)">
                                    <use fill="#000" filter="url(#s2mngnhmhq)" xlink:href="#oamtq7to6r"/>
                                    <use fill="url(#tgl114lrzs)" xlink:href="#oamtq7to6r"/>
                                </g>
                                <g filter="url(#a6vpismqqt)" transform="translate(-894 -531) translate(480 390) translate(338 141) translate(76) translate(26 21.5) translate(37.556)">
                                    <g fill="#FFF" filter="url(#nd91j2zx0u)" transform="translate(30.694 26)">
                                        <rect width="4.333" height="14.444" x=".361" rx="2.167"/>
                                        <circle cx="2.528" cy="18.778" r="2.167"/>
                                    </g>
                                </g>
                            </g>
                        </g>
                    </g>
                </g>
            </g>
        </g>
    </g>
</svg>
