<svg xmlns="http://www.w3.org/2000/svg" width="40" height="40" viewBox="0 0 40 40">
    <g fill="none" fill-rule="evenodd">
        <circle cx="20" cy="20" r="19.5" fill="#F4FFED" stroke="#E1F6DE"/>
        <g stroke-linecap="round" stroke-linejoin="round">
            <path fill="#6DC66E" stroke="#49C962" d="M13.795 0c1.524 0 2.759 1.249 2.759 2.79 0 1.54-1.235 2.79-2.76 2.79-1.523 0-2.758-1.25-2.758-2.79 0-1.541 1.235-2.79 2.759-2.79zM2.759 6.51c1.524 0 2.759 1.249 2.759 2.79 0 1.54-1.235 2.79-2.76 2.79C1.236 12.09 0 10.84 0 9.3c0-1.541 1.235-2.79 2.759-2.79zM13.795 13.02c1.524 0 2.759 1.248 2.759 2.79 0 1.54-1.235 2.789-2.76 2.789-1.523 0-2.758-1.249-2.758-2.79 0-1.54 1.235-2.79 2.759-2.79z" transform="matrix(1 0 0 -1 10.737 29.304)"/>
            <path stroke="#6DC66E" d="M5.141 10.704L11.422 14.405M11.413 4.194L5.141 7.895" transform="matrix(1 0 0 -1 10.737 29.304)"/>
        </g>
    </g>
</svg>
