<svg xmlns="http://www.w3.org/2000/svg" xmlns:xlink="http://www.w3.org/1999/xlink" width="131" height="130" viewBox="0 0 131 130">
    <defs>
        <filter id="xl26zpw97b" width="125.7%" height="154.5%" x="-12.9%" y="-23.1%" filterUnits="objectBoundingBox">
            <feOffset dy="1" in="SourceAlpha" result="shadowOffsetOuter1"/>
            <feGaussianBlur in="shadowOffsetOuter1" result="shadowBlurOuter1" stdDeviation="2"/>
            <feColorMatrix in="shadowBlurOuter1" values="0 0 0 0 0.210315617 0 0 0 0 0.304936507 0 0 0 0 0.690698596 0 0 0 0.15 0"/>
        </filter>
        <filter id="ev1y9wd2ed" width="125.7%" height="154.5%" x="-12.9%" y="-23.1%" filterUnits="objectBoundingBox">
            <feOffset dy="1" in="SourceAlpha" result="shadowOffsetOuter1"/>
            <feGaussianBlur in="shadowOffsetOuter1" result="shadowBlurOuter1" stdDeviation="2"/>
            <feColorMatrix in="shadowBlurOuter1" values="0 0 0 0 0.210315617 0 0 0 0 0.304936507 0 0 0 0 0.690698596 0 0 0 0.15 0"/>
        </filter>
        <filter id="akmgf2igsg" width="276%" height="205.1%" x="-88%" y="-47%" filterUnits="objectBoundingBox">
            <feOffset dy="1" in="SourceAlpha" result="shadowOffsetOuter1"/>
            <feGaussianBlur in="shadowOffsetOuter1" result="shadowBlurOuter1" stdDeviation="3"/>
            <feColorMatrix in="shadowBlurOuter1" values="0 0 0 0 0.161255414 0 0 0 0 0.240589513 0 0 0 0 0.564028533 0 0 0 0.15 0"/>
        </filter>
        <filter id="a6tpw6eszj" width="128.9%" height="124.6%" x="-14.5%" y="-11%" filterUnits="objectBoundingBox">
            <feOffset dy="1" in="SourceAlpha" result="shadowOffsetOuter1"/>
            <feGaussianBlur in="shadowOffsetOuter1" result="shadowBlurOuter1" stdDeviation="3"/>
            <feColorMatrix in="shadowBlurOuter1" values="0 0 0 0 0.161255414 0 0 0 0 0.240589513 0 0 0 0 0.564028533 0 0 0 0.15 0"/>
        </filter>
        <filter id="pzv8nsv9nl" width="170.7%" height="252.3%" x="-35.3%" y="-76.1%" filterUnits="objectBoundingBox">
            <feGaussianBlur in="SourceGraphic" stdDeviation="8"/>
        </filter>
        <filter id="s0zodmgogn" width="159.7%" height="176.6%" x="-29.9%" y="-38.3%" filterUnits="objectBoundingBox">
            <feGaussianBlur in="SourceGraphic" stdDeviation="7"/>
        </filter>
        <filter id="xxgt03ojeo" width="107.4%" height="203.8%" x="-3.7%" y="-51.9%" filterUnits="objectBoundingBox">
            <feOffset in="SourceAlpha" result="shadowOffsetOuter1"/>
            <feGaussianBlur in="shadowOffsetOuter1" result="shadowBlurOuter1" stdDeviation=".5"/>
            <feColorMatrix in="shadowBlurOuter1" values="0 0 0 0 1 0 0 0 0 1 0 0 0 0 1 0 0 0 0.3 0"/>
        </filter>
        <filter id="xqu2chewbq" width="113%" height="203.8%" x="-6.5%" y="-51.9%" filterUnits="objectBoundingBox">
            <feOffset in="SourceAlpha" result="shadowOffsetOuter1"/>
            <feGaussianBlur in="shadowOffsetOuter1" result="shadowBlurOuter1" stdDeviation=".5"/>
            <feColorMatrix in="shadowBlurOuter1" values="0 0 0 0 1 0 0 0 0 1 0 0 0 0 1 0 0 0 0.3 0"/>
        </filter>
        <filter id="q3c3nkvxgs" width="106%" height="110.7%" x="-3%" y="-5.3%" filterUnits="objectBoundingBox">
            <feOffset in="SourceAlpha" result="shadowOffsetOuter1"/>
            <feGaussianBlur in="shadowOffsetOuter1" result="shadowBlurOuter1" stdDeviation=".5"/>
            <feColorMatrix in="shadowBlurOuter1" values="0 0 0 0 1 0 0 0 0 1 0 0 0 0 1 0 0 0 0.3 0"/>
        </filter>
        <filter id="rbs7m8dpvu" width="121.9%" height="127.7%" x="-10.9%" y="-13.8%" filterUnits="objectBoundingBox">
            <feOffset in="SourceAlpha" result="shadowOffsetOuter1"/>
            <feGaussianBlur in="shadowOffsetOuter1" result="shadowBlurOuter1" stdDeviation=".5"/>
            <feColorMatrix in="shadowBlurOuter1" values="0 0 0 0 1 0 0 0 0 1 0 0 0 0 1 0 0 0 0.3 0"/>
        </filter>
        <filter id="471j53jl3w" width="121.9%" height="127.7%" x="-10.9%" y="-13.8%" filterUnits="objectBoundingBox">
            <feOffset in="SourceAlpha" result="shadowOffsetOuter1"/>
            <feGaussianBlur in="shadowOffsetOuter1" result="shadowBlurOuter1" stdDeviation=".5"/>
            <feColorMatrix in="shadowBlurOuter1" values="0 0 0 0 1 0 0 0 0 1 0 0 0 0 1 0 0 0 0.3 0"/>
        </filter>
        <filter id="ds0ljzwxby" width="121.9%" height="127.7%" x="-10.9%" y="-13.8%" filterUnits="objectBoundingBox">
            <feOffset in="SourceAlpha" result="shadowOffsetOuter1"/>
            <feGaussianBlur in="shadowOffsetOuter1" result="shadowBlurOuter1" stdDeviation=".5"/>
            <feColorMatrix in="shadowBlurOuter1" values="0 0 0 0 1 0 0 0 0 1 0 0 0 0 1 0 0 0 0.3 0"/>
        </filter>
        <filter id="1bj29r16tB" width="255.7%" height="249.8%" x="-77.9%" y="-67%" filterUnits="objectBoundingBox">
            <feOffset dy="1" in="SourceAlpha" result="shadowOffsetOuter1"/>
            <feGaussianBlur in="shadowOffsetOuter1" result="shadowBlurOuter1" stdDeviation="3"/>
            <feColorMatrix in="shadowBlurOuter1" values="0 0 0 0 0.161255414 0 0 0 0 0.240589513 0 0 0 0 0.564028533 0 0 0 0.15 0"/>
        </filter>
        <filter id="dp0cbnwthE" width="157.9%" height="152.3%" x="-28.9%" y="-23.4%" filterUnits="objectBoundingBox">
            <feOffset dy="1" in="SourceAlpha" result="shadowOffsetOuter1"/>
            <feGaussianBlur in="shadowOffsetOuter1" result="shadowBlurOuter1" stdDeviation="3"/>
            <feColorMatrix in="shadowBlurOuter1" values="0 0 0 0 0.161255414 0 0 0 0 0.240589513 0 0 0 0 0.564028533 0 0 0 0.15 0"/>
        </filter>
        <filter id="baef1s2poH" width="176%" height="243.5%" x="-38%" y="-71.7%" filterUnits="objectBoundingBox">
            <feGaussianBlur in="SourceGraphic" stdDeviation="3"/>
        </filter>
        <rect id="d5fedeb3qc" width="50.556" height="23.833" x="0" y="0" rx="4"/>
        <rect id="gn40sggnde" width="50.556" height="23.833" x="0" y="0" rx="4"/>
        <rect id="xlbi2do9xp" width="40.444" height="2.889" x="6.5" y="41.167" rx="1.444"/>
        <rect id="vavnd652vr" width="23.111" height="2.889" x="6.5" y="49.111" rx="1.444"/>
        <rect id="jtr4hnj4qt" width="49.833" height="28.167" x="6.5" y="6.5" rx="2"/>
        <rect id="2zr1rwfxpv" width="13.722" height="10.833" x="6.5" y="57.778" rx="2"/>
        <rect id="xge6vjwr6x" width="13.722" height="10.833" x="24.556" y="57.778" rx="2"/>
        <rect id="o4g7vb55az" width="13.722" height="10.833" x="42.611" y="57.778" rx="2"/>
        <path id="1r6dy0d30a" d="M7.106 97.11c-2.29 0-4.145-1.856-4.145-4.146s1.856-4.145 4.145-4.145h3.786c-3.855-7.913-6.018-16.803-6.018-26.198 0-33.081 26.818-59.899 59.9-59.899 13.73 0 26.382 4.62 36.484 12.39l8.586.002c2.038 0 3.69 1.652 3.69 3.69 0 2.037-1.652 3.689-3.69 3.689l-.6-.001h-2.726c-2.047 0-3.72 1.608-3.822 3.63l-.005.197c0 2.113 1.714 3.827 3.827 3.827h17.764c2.29 0 4.145 1.856 4.145 4.145 0 2.29-1.856 4.145-4.145 4.145h-4.692c3.268 7.397 5.083 15.58 5.083 24.185 0 33.082-26.818 59.9-59.9 59.9-12.324 0-23.78-3.722-33.302-10.104l-15.996-.001c-2.113 0-3.826-1.713-3.826-3.827 0-2.113 1.713-3.826 3.826-3.826h7.256c2.114 0 3.827-1.713 3.827-3.827 0-2.113-1.713-3.826-3.827-3.826H7.106zm-1.837 7.653c2.113 0 3.825 1.712 3.825 3.825v.003c0 2.112-1.712 3.825-3.825 3.825-2.112 0-3.825-1.713-3.825-3.825v-.003c0-2.113 1.713-3.825 3.825-3.825zm116.223-89.652c2.037 0 3.689 1.652 3.689 3.69 0 2.037-1.652 3.689-3.69 3.689-2.037 0-3.689-1.652-3.689-3.69 0-2.037 1.652-3.69 3.69-3.69z"/>
        <path id="hnbh524shf" d="M59.985 59.944h6.793c2.209 0 4 1.791 4 4v8.677c0 2.98-2.416 5.396-5.396 5.396s-5.397-2.416-5.397-5.396V59.944z"/>
        <path id="h4ogihcyxi" d="M4.505.51h53.389c2.209 0 4 1.79 4 4v61c.068 6.14 1.512 10.233 4.333 12.277-24.077.059-26.9-.052-57.084 0-5.59-.086-8.47-4.179-8.638-12.278v-61c0-2.209 1.79-4 4-4z"/>
        <path id="ch26x3ypzA" d="M2.368.65C1.714.943-.072 13.195.08 13.304c.004.003 11.944-4.43 12.189-5.468.16-.678-8.62-7.762-9.901-7.186z"/>
        <path id="26uth457zD" d="M9.914 0.029L32.825 28.893 22.898 36.392 0 7.783z"/>
        <linearGradient id="a7r4usfy1h" x1="67.831%" x2="32.169%" y1="0%" y2="79.94%">
            <stop offset="0%" stop-color="#C4D2FF"/>
            <stop offset="100%" stop-color="#728EE7"/>
        </linearGradient>
        <linearGradient id="kmwg1pbagk" x1="90.294%" x2="13.852%" y1="12.289%" y2="100%">
            <stop offset="0%" stop-color="#BECEFF"/>
            <stop offset="67.38%" stop-color="#AABEFE"/>
            <stop offset="100%" stop-color="#89A3F4"/>
        </linearGradient>
        <linearGradient id="sair4r42gF" x1="-.496%" x2="90.743%" y1="-29.707%" y2="121.882%">
            <stop offset="0%" stop-color="#FFE29A"/>
            <stop offset="42.393%" stop-color="#FB9D16"/>
            <stop offset="100%" stop-color="#EE8264"/>
        </linearGradient>
    </defs>
    <g fill="none" fill-rule="evenodd">
        <g>
            <g>
                <g opacity=".7" transform="translate(-231 -909) translate(232 909)">
                    <use fill="#EBEDF4" xlink:href="#1r6dy0d30a"/>
                    <use fill="#DAE3F5" fill-opacity=".1" xlink:href="#1r6dy0d30a"/>
                </g>
                <g>
                    <g transform="translate(-231 -909) translate(232 909) translate(15.167 25.833) translate(45.5 40.444)">
                        <g>
                            <use fill="#000" filter="url(#xl26zpw97b)" xlink:href="#d5fedeb3qc"/>
                            <use fill="#FFF" xlink:href="#d5fedeb3qc"/>
                        </g>
                        <circle cx="15.528" cy="11.917" r="5.417" fill="#D7E4FC"/>
                        <rect width="14.444" height="2.167" x="25.278" y="13" fill="#D7E4FC" opacity=".7" rx="1.083"/>
                        <rect width="21.667" height="2.889" x="20.944" y="7.944" fill="#D7E4FC" opacity=".7" rx="1.444"/>
                    </g>
                    <g transform="translate(-231 -909) translate(232 909) translate(15.167 25.833) translate(0 18.778)">
                        <g>
                            <use fill="#000" filter="url(#ev1y9wd2ed)" xlink:href="#gn40sggnde"/>
                            <use fill="#FFF" xlink:href="#gn40sggnde"/>
                        </g>
                        <circle cx="10.472" cy="11.917" r="5.417" fill="#D7E4FC" opacity=".7"/>
                        <rect width="14.444" height="2.167" x="18.056" y="13" fill="#D7E4FC" opacity=".7" rx="1.083"/>
                        <rect width="21.667" height="2.889" x="18.056" y="7.944" fill="#D7E4FC" opacity=".7" rx="1.444"/>
                    </g>
                    <g transform="translate(-231 -909) translate(232 909) translate(15.167 25.833) translate(18.778)">
                        <g fill-rule="nonzero">
                            <use fill="#000" filter="url(#akmgf2igsg)" xlink:href="#hnbh524shf"/>
                            <use fill="url(#a7r4usfy1h)" xlink:href="#hnbh524shf"/>
                        </g>
                        <g>
                            <g transform="translate(.218 .213)">
                                <mask id="ym6j5fkmym" fill="#fff">
                                    <use xlink:href="#h4ogihcyxi"/>
                                </mask>
                                <g fill-rule="nonzero">
                                    <use fill="#000" filter="url(#a6tpw6eszj)" xlink:href="#h4ogihcyxi"/>
                                    <use fill="url(#kmwg1pbagk)" xlink:href="#h4ogihcyxi"/>
                                </g>
                                <path fill="#6481F5" d="M28.865 66.646c5.261 5.017 29.903 10.48 33.718 12.476 6.039 3.16 3.055-2.594 3.055-10.976 0-13.678 1.951-19.66-11.707-19.66-6.006 0-55.801-.238-55.476 2.772.415 3.836 22.795 8.129 30.41 15.388z" filter="url(#pzv8nsv9nl)" mask="url(#ym6j5fkmym)" opacity=".1" transform="rotate(180 32.414 64.241)"/>
                                <path fill="#F6F8FF" d="M29.735 24.413C35.93 31.734 61.46 53.528 63.767 54.07c1.732.407 1.193-19.079 1.193-23.832 0-7.935 1.277-24.13-1.195-27.26C60.488-1.171 6.985-.706 1.25-.706c-9.818 0-6.537 17.059-1.15 22.034 2.106 1.946 27.817.937 29.636 3.086z" filter="url(#s0zodmgogn)" mask="url(#ym6j5fkmym)" opacity=".15"/>
                            </g>
                        </g>
                        <g opacity=".6">
                            <use fill="#000" filter="url(#xxgt03ojeo)" xlink:href="#xlbi2do9xp"/>
                            <use fill="#FFF" xlink:href="#xlbi2do9xp"/>
                        </g>
                        <g opacity=".6">
                            <use fill="#000" filter="url(#xqu2chewbq)" xlink:href="#vavnd652vr"/>
                            <use fill="#FFF" xlink:href="#vavnd652vr"/>
                        </g>
                        <g opacity=".6">
                            <use fill="#000" filter="url(#q3c3nkvxgs)" xlink:href="#jtr4hnj4qt"/>
                            <use fill="#FFF" xlink:href="#jtr4hnj4qt"/>
                        </g>
                        <path fill="#B3C5FF" d="M32.518 16.44l5.322 8.647c.29.47.143 1.086-.328 1.376-.157.097-.339.148-.524.148H26.345c-.552 0-1-.448-1-1 0-.185.051-.366.148-.524l5.322-8.647c.29-.47.905-.618 1.376-.328.133.082.245.194.327.328z" opacity=".7" transform="rotate(90 31.667 20.833)"/>
                        <g opacity=".6">
                            <use fill="#000" filter="url(#rbs7m8dpvu)" xlink:href="#2zr1rwfxpv"/>
                            <use fill="#FFF" xlink:href="#2zr1rwfxpv"/>
                        </g>
                        <g opacity=".6">
                            <use fill="#000" filter="url(#471j53jl3w)" xlink:href="#xge6vjwr6x"/>
                            <use fill="#FFF" xlink:href="#xge6vjwr6x"/>
                        </g>
                        <g opacity=".6">
                            <use fill="#000" filter="url(#ds0ljzwxby)" xlink:href="#o4g7vb55az"/>
                            <use fill="#FFF" xlink:href="#o4g7vb55az"/>
                        </g>
                    </g>
                    <g>
                        <g transform="translate(-231 -909) translate(232 909) translate(15.167 25.833) rotate(10 -40.186 390.667) translate(0 28.72)">
                            <mask id="1um31karwC" fill="#fff">
                                <use xlink:href="#ch26x3ypzA"/>
                            </mask>
                            <g>
                                <use fill="#000" filter="url(#1bj29r16tB)" xlink:href="#ch26x3ypzA"/>
                                <use fill="#E0E6EC" xlink:href="#ch26x3ypzA"/>
                            </g>
                            <path fill="#294078" d="M0.725 8.005L-0.343 14.215 4.986 11.438z" mask="url(#1um31karwC)"/>
                            <path fill="#767676" d="M-0.373 14.071L5.537 2.507 9.734 5.976z" mask="url(#1um31karwC)" opacity=".08"/>
                        </g>
                        <g transform="translate(-231 -909) translate(232 909) translate(15.167 25.833) rotate(10 -40.186 390.667) translate(2.222 .466)">
                            <mask id="lvrfxnq4kG" fill="#fff">
                                <use xlink:href="#26uth457zD"/>
                            </mask>
                            <g transform="matrix(-1 0 0 1 32.825 0)">
                                <use fill="#000" filter="url(#dp0cbnwthE)" xlink:href="#26uth457zD"/>
                                <use fill="url(#sair4r42gF)" xlink:href="#26uth457zD"/>
                            </g>
                            <path fill="#C45A0D" d="M3.156 31.208L28.348 -0.46 31.97 2.338 7.25 34.462z" mask="url(#lvrfxnq4kG)" opacity=".17"/>
                            <path d="M24.394 18.065c-6.07.048-14.225.462-14.252.407-.518-1.082-.834-2.446-1.027-3.849-.044-.32-.648-8.64.613-8.689 2.96-.116 7.58 4.093 13.265 6.15 3.102 1.124 6.718 4.394 8.957 4.797 2.198.396-1.293 1.133-7.556 1.184z" filter="url(#baef1s2poH)" mask="url(#lvrfxnq4kG)" opacity=".1" transform="rotate(129 20.77 12.204)"/>
                        </g>
                    </g>
                </g>
            </g>
        </g>
    </g>
</svg>
