<svg xmlns="http://www.w3.org/2000/svg" xmlns:xlink="http://www.w3.org/1999/xlink" width="140" height="140" viewBox="0 0 140 140">
    <defs>
        <filter id="prefix__b" width="165.3%" height="155.2%" x="-32.7%" y="-24.1%" filterUnits="objectBoundingBox">
            <feOffset dy="2" in="SourceAlpha" result="shadowOffsetOuter1"/>
            <feGaussianBlur in="shadowOffsetOuter1" result="shadowBlurOuter1" stdDeviation="5"/>
            <feColorMatrix in="shadowBlurOuter1" values="0 0 0 0 0 0 0 0 0 0 0 0 0 0 0 0 0 0 0.133440778 0"/>
        </filter>
        <rect id="prefix__a" width="49" height="58" x="0" y="0" rx="2"/>
        <path id="prefix__c" d="M2 0h45c1.105 0 2 .895 2 2v8H0V2C0 .895.895 0 2 0z"/>
    </defs>
    <g fill="none" fill-rule="evenodd" transform="translate(0 2)">
        <rect width="92" height="74" x="24" y="33" fill="#B09FFF" rx="10"/>
        <path fill="#FFF" d="M70 54c1.657 0 3 1.343 3 3l.001 10.582C75.932 68.769 78 71.643 78 75c0 4.418-3.582 8-8 8s-8-3.582-8-8c0-3.357 2.068-6.232 5-7.418V57c0-1.657 1.343-3 3-3z" opacity=".25"/>
        <path fill="#B09FFF" fill-rule="nonzero" d="M53 33.5V19.286C52.99 10.308 60.443 3.01 69.665 3c7.95-.007 14.792 5.453 16.366 13.037.169.811.963 1.332 1.774 1.164.811-.169 1.332-.963 1.164-1.774C87.103 6.44 79.023-.008 69.662 0 58.798.012 49.988 8.639 50 19.287V33.5c0 .828.672 1.5 1.5 1.5s1.5-.672 1.5-1.5z"/>
        <circle cx="136" cy="55" r="4" fill="#B09FFF"/>
        <path fill="#B09FFF" fill-rule="nonzero" d="M4.5 86C6.985 86 9 88.015 9 90.5S6.985 95 4.5 95 0 92.985 0 90.5 2.015 86 4.5 86zm0 2C3.12 88 2 89.12 2 90.5S3.12 93 4.5 93 7 91.88 7 90.5 5.88 88 4.5 88z"/>
        <g transform="translate(45 63)">
            <use fill="#000" filter="url(#prefix__b)" xlink:href="#prefix__a"/>
            <use fill="#FFF" xlink:href="#prefix__a"/>
            <use fill="#5E3DF5" xlink:href="#prefix__c"/>
        </g>
        <path stroke="#B09FFF" stroke-linecap="round" stroke-width="2" d="M55 95L84 95M55 105L68 105M55 85L84 85"/>
    </g>
</svg>
