<svg xmlns="http://www.w3.org/2000/svg" width="30" height="30" viewBox="0 0 30 30">
    <g fill="none" fill-rule="evenodd">
        <circle cx="15" cy="15" r="15" fill="#5E3DF5"/>
        <path fill="#FFF" d="M15.205 18.677c2.948 0 8.844 1.514 8.889 4.278-1.912 2.694-5.186 4.472-8.89 4.472-3.703 0-6.977-1.778-8.888-4.472.044-2.764 5.926-4.278 8.889-4.278zm0-12.361a5.548 5.548 0 0 1 5.555 5.555 5.548 5.548 0 0 1-5.555 5.556 5.548 5.548 0 0 1-5.556-5.556 5.548 5.548 0 0 1 5.556-5.555zm-2.433 7.854c1.59 1.309 3.276 1.309 4.865 0a.592.592 0 0 0-.752-.914c-1.153.948-2.208.948-3.36 0a.592.592 0 0 0-.753.914z"/>
    </g>
</svg>
