<svg xmlns="http://www.w3.org/2000/svg" width="50" height="50" viewBox="0 0 50 50">
    <g fill="none" fill-rule="evenodd">
        <g>
            <g>
                <g>
                    <g>
                        <g transform="translate(-157 -746) translate(80 591) translate(36 125) translate(41 30)">
                            <circle cx="25" cy="25" r="25" fill="#9681FF"/>
                            <g fill="#FFF">
                                <g>
                                    <path d="M10.2 5.511l.972-3.013c.375-1.159-.46-2.355-1.644-2.355h-.195L5.506 4.44C5.18 4.806 5 5.28 5 5.77v11.373h8.23c.792 0 1.51-.468 1.83-1.193l2.864-6.498L18 9.09V7.3c0-.987-.777-1.789-1.733-1.789H10.2zM2 17.143h1v-12H2c-1.104 0-2 .827-2 1.846v8.308c0 1.019.896 1.846 2 1.846" transform="translate(13 13) translate(3 2.857)"/>
                                </g>
                            </g>
                        </g>
                    </g>
                </g>
            </g>
        </g>
    </g>
</svg>
