<svg xmlns="http://www.w3.org/2000/svg" width="20" height="20" viewBox="0 0 20 20">
    <g fill="none" fill-rule="evenodd" stroke="#999" stroke-linecap="round" stroke-linejoin="round">
        <path d="M11.496 0c1.27 0 2.299 1.04 2.299 2.325 0 1.284-1.03 2.325-2.3 2.325-1.27 0-2.299-1.041-2.299-2.325 0-1.284 1.03-2.325 2.3-2.325zM2.3 5.425c1.269 0 2.298 1.04 2.298 2.325 0 1.284-1.029 2.324-2.299 2.324S0 9.034 0 7.75c0-1.285 1.03-2.325 2.3-2.325zM11.496 10.85c1.27 0 2.299 1.04 2.299 2.324 0 1.284-1.03 2.325-2.3 2.325-1.27 0-2.299-1.04-2.299-2.325 0-1.284 1.03-2.325 2.3-2.325zM4.284 8.92L9.518 12.004M9.511 3.495L4.284 6.579" transform="matrix(1 0 0 -1 3.114 17.753)"/>
    </g>
</svg>
