<svg xmlns="http://www.w3.org/2000/svg" width="14" height="14" viewBox="0 0 14 14">
    <g fill="none" fill-rule="evenodd" stroke-linecap="round">
        <g stroke="#999">
            <g>
                <g>
                    <g>
                        <g>
                            <path d="M10.225 3.208V1.194c0-.483-.392-.875-.875-.876L1.184.31C.7.308.308.7.308 1.183c0 0 0 0 0 0v8.16c0 .483.39.874.873.876l2.027.007h0" transform="translate(-844 -374) translate(776 355) translate(16 16) translate(52 3) matrix(1 0 0 -1 1.75 12.257)"/>
                            <path stroke-linejoin="round" d="M6.142 10.226L10.225 10.226 10.225 6.142" transform="translate(-844 -374) translate(776 355) translate(16 16) translate(52 3) matrix(1 0 0 -1 1.75 12.257)"/>
                            <path d="M10.225 10.226L4.375 4.382" transform="translate(-844 -374) translate(776 355) translate(16 16) translate(52 3) matrix(1 0 0 -1 1.75 12.257)"/>
                        </g>
                    </g>
                </g>
            </g>
        </g>
    </g>
</svg>
