<svg xmlns="http://www.w3.org/2000/svg" width="20" height="20" viewBox="0 0 20 20">
    <g fill="none" fill-rule="evenodd" transform="translate(1.265 2.336)">
        <path stroke="#FFF" d="M10.12.071c.377 0 .708.254.805.619l.305 1.144c.467.2.904.454 1.305.755l1.145-.308c.365-.099.75.06.938.388l1.385 2.398c.189.327.134.74-.133 1.006l-.84.838c.03.247.045.498.045.753s-.015.506-.044.753l.839.838c.267.266.322.68.133 1.006l-1.385 2.398c-.188.327-.573.486-.938.388l-1.145-.308c-.4.3-.838.555-1.305.755l-.305 1.144c-.097.365-.428.618-.805.618H7.35c-.377 0-.707-.253-.804-.618l-.306-1.144c-.466-.2-.904-.454-1.305-.755l-1.144.308c-.365.098-.75-.061-.939-.388l-1.384-2.398c-.189-.327-.134-.74.133-1.006l.839-.838c-.03-.247-.044-.498-.044-.753s.015-.506.044-.753l-.84-.838c-.266-.266-.321-.68-.132-1.006l1.384-2.398c.189-.327.574-.487.938-.388l1.145.308c.401-.301.839-.555 1.305-.755L6.546.69C6.643.325 6.973.07 7.35.07h2.769z"/>
        <circle cx="8.744" cy="7.654" r="2.833" stroke="#FFF"/>
    </g>
</svg>
