<svg xmlns="http://www.w3.org/2000/svg" width="50" height="50" viewBox="0 0 50 50">
    <g fill="none" fill-rule="evenodd">
        <circle cx="25" cy="25" r="25" fill="#9681FF"/>
        <path fill="#FFF" d="M25.375 8.233l1.34 2.717 3.001.439c.228.033.386.245.353.474-.013.09-.056.174-.122.238l-2.17 2.115.512 2.986c.039.227-.114.443-.341.482-.09.016-.184.001-.265-.042L25 16.232l-2.683 1.41c-.204.108-.456.03-.564-.175-.043-.081-.057-.174-.042-.265l.512-2.986-2.17-2.115c-.166-.16-.169-.425-.008-.59.064-.066.148-.109.239-.122l3-.439 1.341-2.717c.103-.207.353-.292.56-.19.082.04.149.108.19.19zM26.2 27.368l.972-3.013c.375-1.159-.46-2.355-1.644-2.355h-.195l-3.827 4.297c-.326.366-.506.84-.506 1.33V39h8.23c.792 0 1.51-.468 1.83-1.193l2.864-6.498.076-.362v-1.79c0-.987-.777-1.789-1.733-1.789H26.2zM18 39h1V27h-1c-1.104 0-2 .827-2 1.846v8.308c0 1.019.896 1.846 2 1.846"/>
    </g>
</svg>
