<?xml version="1.0" encoding="UTF-8"?>
<svg width="32px" height="32px" viewBox="0 0 32 32" version="1.1" xmlns="http://www.w3.org/2000/svg" xmlns:xlink="http://www.w3.org/1999/xlink">
    <title>9E648A60-0E80-4D94-A966-3D6E671B5F48</title>
    <g id="STDS_Icon" stroke="none" stroke-width="1" fill="none" fill-rule="evenodd">
        <g id="object" transform="translate(-364.000000, -845.000000)" fill="#000000">
            <g id="ic_object_payment_line" transform="translate(300.000000, 805.000000)">
                <g id="ic/object/payment/line" transform="translate(64.000000, 40.000000)">
                    <g id="ic_object_payment_line" transform="translate(2.000000, 5.000000)">
                        <path d="M25,0 C26.5976809,0 27.9036609,1.24891996 27.9949073,2.82372721 L28,3 L28,19 C28,20.5976809 26.75108,21.9036609 25.1762728,21.9949073 L25,22 L3,22 C1.40231912,22 0.0963391206,20.75108 0.00509269341,19.1762728 L0,19 L0,3 C0,1.40231912 1.24891996,0.0963391206 2.82372721,0.00509269341 L3,0 L25,0 Z M26,11 L2,11 L2,19 C2,19.5128358 2.38604019,19.9355072 2.88337887,19.9932723 L3,20 L25,20 C25.5128358,20 25.9355072,19.6139598 25.9932723,19.1166211 L26,19 L26,11 Z M9,15 C9.55228475,15 10,15.4477153 10,16 C10,16.5128358 9.61395981,16.9355072 9.11662113,16.9932723 L9,17 L6,17 C5.44771525,17 5,16.5522847 5,16 C5,15.4871642 5.38604019,15.0644928 5.88337887,15.0067277 L6,15 L9,15 Z M26,7 L2,7 L2,9 L26,9 L26,7 Z M25,2 L3,2 C2.48716416,2 2.06449284,2.38604019 2.00672773,2.88337887 L2,3 L2,5 L26,5 L26,3 C26,2.48716416 25.6139598,2.06449284 25.1166211,2.00672773 L25,2 Z" id="Shape"></path>
                    </g>
                </g>
            </g>
        </g>
    </g>
</svg>