<?xml version="1.0" encoding="UTF-8"?>
<svg width="32px" height="32px" viewBox="0 0 32 32" version="1.1" xmlns="http://www.w3.org/2000/svg" xmlns:xlink="http://www.w3.org/1999/xlink">
    <title>EDEF26B8-99F4-4249-8A45-C901E6734E3B</title>
    <g id="STDS_Icon" stroke="none" stroke-width="1" fill="none" fill-rule="evenodd">
        <g id="object" transform="translate(-364.000000, -2105.000000)" fill="#000000" fill-rule="nonzero">
            <g id="ic_object_unlock_line" transform="translate(300.000000, 2065.000000)">
                <g id="ic/object/unlock/line" transform="translate(64.000000, 40.000000)">
                    <g id="ic_object_unlock_line" transform="translate(4.000000, 2.000000)">
                        <path d="M12,0 C14.8488983,0 17.2851429,2.02017547 17.8690305,4.79771343 C17.9826473,5.33818516 17.6366129,5.86842861 17.0961412,5.98204532 C16.5556695,6.09566204 16.025426,5.74962769 15.9118093,5.20915596 C15.5207546,3.34891918 13.8940161,2 12,2 C9.86051959,2 8.10908567,3.70768369 8.00490279,5.85950421 L8,6.0625 L8,8 L21,8 C22.5976809,8 23.9036609,9.24891996 23.9949073,10.8237272 L24,11 L24,23 C24,24.5976809 22.75108,25.9036609 21.1762728,25.9949073 L21,26 L3,26 C1.40231912,26 0.0963391206,24.75108 0.00509269341,23.1762728 L0,23 L0,11 C0,9.40231912 1.24891996,8.09633912 2.82372721,8.00509269 L3,8 L6,8 L6,6.0625 C6,2.71703533 8.68349168,0 12,0 Z M21,10 L3,10 C2.48716416,10 2.06449284,10.3860402 2.00672773,10.8833789 L2,11 L2,23 C2,23.5128358 2.38604019,23.9355072 2.88337887,23.9932723 L3,24 L21,24 C21.5128358,24 21.9355072,23.6139598 21.9932723,23.1166211 L22,23 L22,11 C22,10.4871642 21.6139598,10.0644928 21.1166211,10.0067277 L21,10 Z M12,15.5 C12.8284271,15.5 13.5,16.1715729 13.5,17 C13.5,17.8284271 12.8284271,18.5 12,18.5 C11.1715729,18.5 10.5,17.8284271 10.5,17 C10.5,16.1715729 11.1715729,15.5 12,15.5 Z" id="Shape"></path>
                    </g>
                </g>
            </g>
        </g>
    </g>
</svg>