<?xml version="1.0" encoding="UTF-8"?>
<svg width="32px" height="32px" viewBox="0 0 32 32" version="1.1" xmlns="http://www.w3.org/2000/svg" xmlns:xlink="http://www.w3.org/1999/xlink">
    <title>72E341D1-5DA1-4DD0-BDF1-C9D646FECBCB</title>
    <g id="STDS_Icon" stroke="none" stroke-width="1" fill="none" fill-rule="evenodd">
        <g id="object" transform="translate(-364.000000, -1565.000000)" fill="#000000" fill-rule="nonzero">
            <g id="ic_object_cash_circle_line" transform="translate(300.000000, 1525.000000)">
                <g id="ic/object/cash_circle/line" transform="translate(64.000000, 40.000000)">
                    <g id="ic_object_cash_circle_line" transform="translate(2.000000, 2.000000)">
                        <path d="M14,0 C21.7319865,0 28,6.2680135 28,14 C28,21.7319865 21.7319865,28 14,28 C6.2680135,28 0,21.7319865 0,14 C0,6.2680135 6.2680135,0 14,0 Z M14,2 C7.372583,2 2,7.372583 2,14 C2,20.627417 7.372583,26 14,26 C20.627417,26 26,20.627417 26,14 C26,7.372583 20.627417,2 14,2 Z M14.0470579,7 C16.5955183,7 18.1203905,7.98714183 17.9932797,9.97248384 C17.9579921,10.5236401 17.4825855,10.9418343 16.9314292,10.9065468 C16.4196413,10.8737797 16.0224991,10.4615223 15.9966289,9.96150896 L15.9973663,9.84469626 C16.0283002,9.36153946 15.7038609,9.08289451 14.6192625,9.01588475 L14.2510172,9.00176705 L14.0470579,9 L14.0470579,9 C12.9515251,9 12.4895309,9.22148227 12.2732784,9.64961035 C12.1755718,9.84304596 12.1107119,10.0649576 12.0688116,10.3913115 L12.0415368,10.6568468 L12.0219449,10.9686698 L12.0049349,11.5387726 L12,12.3094213 L12,17.7047087 C12,18.4999527 12.6259711,19 14.0470579,19 C15.384499,19 15.9391113,18.6355372 15.9912289,18.0544858 L15.995323,17.9609625 C15.995323,17.4086777 16.4430383,16.9609625 16.995323,16.9609625 C17.5476078,16.9609625 17.995323,17.4086777 17.995323,17.9609625 C17.995323,19.8481867 16.4539153,21 14.0470579,21 C11.6863679,21 10.1045866,19.7972507 10.0049927,17.8970364 L10,17.7047087 L10.0005144,11.9699405 L10.0054217,11.4545559 L10.0169327,11.0007195 L10.0367746,10.6003976 C10.0900377,9.78520516 10.2141253,9.29027274 10.4880891,8.74789024 C11.0865606,7.56306033 12.2610591,7 14.0470579,7 Z" id="Shape"></path>
                    </g>
                </g>
            </g>
        </g>
    </g>
</svg>