<?xml version="1.0" encoding="UTF-8"?>
<svg width="32px" height="32px" viewBox="0 0 32 32" version="1.1" xmlns="http://www.w3.org/2000/svg" xmlns:xlink="http://www.w3.org/1999/xlink">
    <title>194B0076-D42B-4A97-AA79-AFF55DF52B2A</title>
    <g id="STDS_Icon" stroke="none" stroke-width="1" fill="none" fill-rule="evenodd">
        <g id="object" transform="translate(-364.000000, -305.000000)" fill="#000000">
            <g id="ic_object_cash_stove_line" transform="translate(300.000000, 265.000000)">
                <g id="ic/object/cash_stove/line" transform="translate(64.000000, 40.000000)">
                    <g id="ic_object_stove_cash_line" transform="translate(2.000000, 2.000000)">
                        <path d="M14,0 C21.7319865,0 28,6.2680135 28,14 C28,21.7319865 21.7319865,28 14,28 C6.2680135,28 0,21.7319865 0,14 C0,6.2680135 6.2680135,0 14,0 Z M14,2 C7.372583,2 2,7.372583 2,14 C2,20.627417 7.372583,26 14,26 C20.627417,26 26,20.627417 26,14 C26,7.372583 20.627417,2 14,2 Z M9.64761441,7.7 C11.7506619,7.7 12.9633265,8.42277297 13.3035526,9.74934186 C13.3777919,10.0388068 13.3998605,10.2727503 13.3990319,10.6022737 L13.3934583,10.9577631 C13.3934583,11.5100478 12.945743,11.9577631 12.3934583,11.9577631 C11.8411735,11.9577631 11.3934583,11.5100478 11.3934583,10.9577631 L11.3982582,10.5354165 C11.3959504,10.4075835 11.3862847,10.3243072 11.3662531,10.2462025 C11.2816309,9.91625398 10.9188012,9.7 9.64761441,9.7 C8.62135439,9.7 8.15675184,9.98202621 7.94307723,10.4543454 C7.85330909,10.6527743 7.81445881,10.8564056 7.80507772,11.0914313 L7.80168686,11.4654325 C7.79304236,11.7783197 7.82140167,12.0263387 7.92274144,12.261088 C8.10855054,12.691507 8.51780038,12.9617988 9.41946699,12.9959247 L9.62031628,12.9995949 C11.9840049,12.9995949 13.1698364,14.0762873 13.3660737,15.8590122 L13.3885111,16.1166648 L13.3986883,16.3819558 L13.3991749,16.6952924 L13.3934583,17.1445454 C13.3934583,19.0120535 11.9365022,20.3 9.64761441,20.3 C7.31637045,20.3 5.8041366,19.1854314 5.8041366,17.3257706 C5.8041366,16.7734859 6.25185185,16.3257706 6.8041366,16.3257706 C7.31697244,16.3257706 7.73964376,16.7118108 7.79740887,17.2091495 L7.8041366,17.3257706 C7.8041366,17.9258079 8.3118361,18.3 9.64761441,18.3 C10.8830733,18.3 11.3934583,17.8488206 11.3934583,17.1445454 L11.3990366,16.6956907 L11.3991917,16.4475128 C11.3972145,16.3028901 11.3907767,16.1931732 11.3780817,16.0778447 C11.29708,15.3419824 10.9911995,15.031138 9.81359275,15.0018933 L9.62031628,14.9995949 C7.80505074,14.9995949 6.61335598,14.2741293 6.08653349,13.0537672 C5.87418925,12.5618808 5.80369142,12.1159841 5.80010743,11.6240922 L5.80372936,11.0893761 C5.81356967,10.5911198 5.89217445,10.135513 6.12087065,9.62998919 C6.66755434,8.42156666 7.85624427,7.7 9.64761441,7.7 Z M18.4439207,7.7 C20.8545087,7.7 22.3189237,8.59721831 22.1933545,10.4534156 C22.1560783,11.0044409 21.6791658,11.420917 21.1281404,11.3836409 C20.616474,11.3490273 20.2208221,10.9353395 20.1967563,10.4352361 L20.1979152,10.3184268 C20.224413,9.92672916 19.8543519,9.7 18.4439207,9.7 C17.4348823,9.7 17.0197099,9.88837305 16.8375223,10.2297382 C16.7708196,10.3547193 16.7216005,10.4976243 16.6858372,10.6906855 L16.6544099,10.9016591 C16.6498698,10.9400057 16.6456663,10.9800441 16.6417805,11.0219233 L16.6148865,11.4525693 L16.6148865,11.4525693 L16.6021343,12.0067975 L16.6,12.5066555 L16.6,17.2724927 C16.6,17.8891292 17.1434513,18.3 18.4439207,18.3 C19.6597541,18.3 20.141499,18.0070719 20.1912737,17.5762731 L20.1956348,17.4988502 C20.1956348,16.9465654 20.6433501,16.4988502 21.1956348,16.4988502 C21.7479196,16.4988502 22.1956348,16.9465654 22.1956348,17.4988502 C22.1956348,19.2542462 20.7169451,20.3 18.4439207,20.3 C16.2180425,20.3 14.7035985,19.2111151 14.6051087,17.4563754 L14.6,17.2724927 L14.6006147,12.1753407 L14.6065532,11.6679847 L14.6206991,11.2269902 C14.6619171,10.3361778 14.777282,9.84230479 15.0730873,9.28805398 C15.6513088,8.20463958 16.7635296,7.7 18.4439207,7.7 Z" id="Shape"></path>
                    </g>
                </g>
            </g>
        </g>
    </g>
</svg>