<?xml version="1.0" encoding="UTF-8"?>
<svg width="32px" height="32px" viewBox="0 0 32 32" version="1.1" xmlns="http://www.w3.org/2000/svg" xmlns:xlink="http://www.w3.org/1999/xlink">
    <title>0880B9CB-B900-4DF8-B75C-CEDFA02896C7</title>
    <g id="STDS_Icon" stroke="none" stroke-width="1" fill="none" fill-rule="evenodd">
        <g id="object" transform="translate(-364.000000, -485.000000)" fill="#000000">
            <g id="ic_object_game_line" transform="translate(300.000000, 445.000000)">
                <g id="ic/object/game/line" transform="translate(64.000000, 40.000000)">
                    <g id="ic_object_game_line" transform="translate(2.000000, 3.000000)">
                        <path d="M18.7867871,0 C23.4907739,0 27.3585742,3.66921691 27.6329329,8.33326774 L27.6444606,8.59338819 L27.9975607,20.4201487 C28.0742531,22.9888911 26.3388363,25.2594517 23.8394468,25.8608908 C21.4284282,26.4410649 18.970748,25.160931 18.0520805,22.8831484 L17.9705126,22.6667098 L17.187,20.435 L10.71,20.435 L9.93693242,22.6842813 C9.16142246,24.9400005 6.88998777,26.2915474 4.57161039,25.9467387 L4.3541692,25.9094189 L4.12992568,25.8603691 C1.72530904,25.2760855 0.0343516258,23.1392641 0.0005126724,20.6851284 L0.00222390187,20.4541612 L0.340788214,8.60473991 C0.47520573,3.90025771 4.26178907,0.138983011 8.93810051,0.00376458628 L9.1987934,0 L18.7867871,0 Z M18.7867871,2 L9.1987934,2 C5.56439895,2 2.57560351,4.82806579 2.35069966,8.42613389 L2.33997234,8.66186104 L2.00140803,20.5112823 C1.95551497,22.1174947 3.03958757,23.5372396 4.6021533,23.9169182 C6.00591254,24.2580094 7.43734944,23.5195239 7.98216826,22.2017452 L8.04558667,22.0340419 L9.05085452,19.1100279 C9.17579148,18.7466249 9.49598504,18.4906943 9.87004109,18.4431422 L9.99652739,18.4351476 L17.8962459,18.4351476 C18.2784213,18.4351476 18.6230883,18.6523767 18.7907062,18.9879204 L18.83983,19.1040146 L19.8576808,22.0044439 C20.3643989,23.4483686 21.8827382,24.2746521 23.3715345,23.9163965 C24.8875158,23.5515992 25.9584185,22.2152129 25.9988119,20.673555 L25.9984514,20.4798341 L25.6453514,8.65307364 C25.5370606,5.02597408 22.6247237,2.12575305 19.0226604,2.00398135 L18.7867871,2 Z M19,7 C21.209139,7 23,8.790861 23,11 C23,13.209139 21.209139,15 19,15 C16.790861,15 15,13.209139 15,11 C15,8.790861 16.790861,7 19,7 Z M9,7 C9.51283584,7 9.93550716,7.38604019 9.99327227,7.88337887 L10,8 L10,10 L12,10 C12.5522847,10 13,10.4477153 13,11 C13,11.5128358 12.6139598,11.9355072 12.1166211,11.9932723 L12,12 L10,12 L10,14 C10,14.5522847 9.55228475,15 9,15 C8.48716416,15 8.06449284,14.6139598 8.00672773,14.1166211 L8,14 L8,12 L6,12 C5.44771525,12 5,11.5522847 5,11 C5,10.4871642 5.38604019,10.0644928 5.88337887,10.0067277 L6,10 L8,10 L8,8 C8,7.44771525 8.44771525,7 9,7 Z M19,9 C17.8954305,9 17,9.8954305 17,11 C17,12.1045695 17.8954305,13 19,13 C20.1045695,13 21,12.1045695 21,11 C21,9.8954305 20.1045695,9 19,9 Z" id="Shape"></path>
                    </g>
                </g>
            </g>
        </g>
    </g>
</svg>