<?xml version="1.0" encoding="UTF-8"?>
<svg width="32px" height="32px" viewBox="0 0 32 32" version="1.1" xmlns="http://www.w3.org/2000/svg" xmlns:xlink="http://www.w3.org/1999/xlink">
    <title>325190AF-8156-4110-BE61-BC38390BC971</title>
    <g id="STDS_Icon" stroke="none" stroke-width="1" fill="none" fill-rule="evenodd">
        <g id="object" transform="translate(-364.000000, -2465.000000)" fill="#000000" fill-rule="nonzero">
            <g id="ic_object_cabinet_line" transform="translate(300.000000, 2425.000000)">
                <g id="ic/object/cabinet/line" transform="translate(64.000000, 40.000000)">
                    <g id="ic_object_cabinet_line" transform="translate(4.000000, 4.000000)">
                        <path d="M18.0387503,0 C18.885005,0 19.688654,0.357201467 20.2549701,0.978013631 L20.3813567,1.12591486 L23.5617376,5.10139096 C23.8099759,5.4116888 23.9593418,5.78782649 23.9928046,6.18125283 L24,6.35078106 L24,21 C24,22.5976809 22.75108,23.9036609 21.1762728,23.9949073 L21,24 L3,24 C1.40231912,24 0.0963391206,22.75108 0.00509269341,21.1762728 L0,21 L0,6.35078106 C0,5.95340594 0.118336152,5.56638359 0.337977613,5.23826521 L0.438262381,5.10139096 L3.61864327,1.12591486 C4.14729436,0.465100993 4.9282574,0.0606985354 5.76680511,0.0062982551 L5.96124969,0 L18.0387503,0 Z M22,7 L2,7 L2,21 C2,21.5128358 2.38604019,21.9355072 2.88337887,21.9932723 L3,22 L21,22 C21.5128358,22 21.9355072,21.6139598 21.9932723,21.1166211 L22,21 L22,7 Z M17,11 C17.5128358,11 17.9355072,11.3860402 17.9932723,11.8833789 L18,12 L18,16 C18,16.5128358 17.6139598,16.9355072 17.1166211,16.9932723 L17,17 L7,17 C6.48716416,17 6.06449284,16.6139598 6.00672773,16.1166211 L6,16 L6,12 C6,11.4477153 6.44771525,11 7,11 C7.51283584,11 7.93550716,11.3860402 7.99327227,11.8833789 L8,12 L8,15 L16,15 L16,12 C16,11.4871642 16.3860402,11.0644928 16.8833789,11.0067277 L17,11 Z M18.0387503,2 L5.96124969,2 C5.70086365,2 5.45257861,2.10145367 5.26744735,2.27982379 L5.18038089,2.37530495 L3.08,5 L20.92,5 L18.8196191,2.37530495 C18.6569572,2.17197761 18.4226328,2.04147718 18.1676986,2.00834087 L18.0387503,2 Z" id="Shape"></path>
                    </g>
                </g>
            </g>
        </g>
    </g>
</svg>