<?xml version="1.0" encoding="UTF-8"?>
<svg width="32px" height="32px" viewBox="0 0 32 32" version="1.1" xmlns="http://www.w3.org/2000/svg" xmlns:xlink="http://www.w3.org/1999/xlink">
    <title>9679AC3B-ACB6-4CA0-AC9B-13518628A27E</title>
    <g id="STDS_Icon" stroke="none" stroke-width="1" fill="none" fill-rule="evenodd">
        <g id="object" transform="translate(-364.000000, -2645.000000)" fill="#000000">
            <g id="ic_object_help_center_line" transform="translate(300.000000, 2605.000000)">
                <g id="ic/object/help_center/line" transform="translate(64.000000, 40.000000)">
                    <g id="ic_object_help_center_line" transform="translate(3.000000, 3.000000)">
                        <path d="M13,0 C20.080975,0 25.8335381,5.74969159 25.9964519,12.8970725 L25.997,13 L26,13 L26,18 C26,19.5976809 24.75108,20.9036609 23.1762728,20.9949073 L23,21 L21,21 C19.4023191,21 18.0963391,19.75108 18.0050927,18.1762728 L18,18 L18,16 C18,14.4023191 19.24892,13.0963391 20.8237272,13.0050927 L21,13 L23.997,13 L23.9962897,12.9146401 C23.8432435,6.856555 18.9748673,2 13,2 C7.02513267,2 2.15675654,6.856555 2.0037103,12.9146401 L2.002,13 L5,13 C6.59768088,13 7.90366088,14.24892 7.99490731,15.8237272 L8,16 L8,18 C8,19.3930998 7.05044749,20.5644197 5.76326105,20.9020412 C7.32692883,22.5423893 9.4192175,23.6237348 11.7150849,23.9182998 L12.0868748,23.9589331 C12.6369164,24.0086593 13.0425022,24.4948671 12.9927761,25.0449087 C12.9466018,25.5556616 12.5240734,25.9418582 12.0235537,25.9546098 L11.8368917,25.9442846 C8.36862472,25.610358 5.2554155,23.7857313 3.25285101,21.0010258 L3,21 C1.40231912,21 0.0963391206,19.75108 0.00509269341,18.1762728 L0,18 L0,13 L0.002,13 L0.0035480911,12.8970725 C0.166461938,5.74969159 5.91902499,0 13,0 Z M5,15 L2,15 L2,18 C2,18.5128358 2.38604019,18.9355072 2.88337887,18.9932723 L3,19 L5,19 C5.51283584,19 5.93550716,18.6139598 5.99327227,18.1166211 L6,18 L6,16 C6,15.4871642 5.61395981,15.0644928 5.11662113,15.0067277 L5,15 Z M24,15 L21,15 C20.4871642,15 20.0644928,15.3860402 20.0067277,15.8833789 L20,16 L20,18 C20,18.5128358 20.3860402,18.9355072 20.8833789,18.9932723 L21,19 L23,19 C23.5128358,19 23.9355072,18.6139598 23.9932723,18.1166211 L24,18 L24,15 Z M9.5,9 C10.3284271,9 11,9.67157288 11,10.5 C11,11.3284271 10.3284271,12 9.5,12 C8.67157288,12 8,11.3284271 8,10.5 C8,9.67157288 8.67157288,9 9.5,9 Z M16.5,9 C17.3284271,9 18,9.67157288 18,10.5 C18,11.3284271 17.3284271,12 16.5,12 C15.6715729,12 15,11.3284271 15,10.5 C15,9.67157288 15.6715729,9 16.5,9 Z" id="Shape"></path>
                    </g>
                </g>
            </g>
        </g>
    </g>
</svg>