<?xml version="1.0" encoding="UTF-8"?>
<svg width="32px" height="32px" viewBox="0 0 32 32" version="1.1" xmlns="http://www.w3.org/2000/svg" xmlns:xlink="http://www.w3.org/1999/xlink">
    <title>A38D91F7-7C64-46E2-9BA3-FD50EEDE1E2C</title>
    <g id="STDS_Icon" stroke="none" stroke-width="1" fill="none" fill-rule="evenodd">
        <g id="object" transform="translate(-364.000000, -1385.000000)" fill="#000000" fill-rule="nonzero">
            <g id="ic_object_coin_line" transform="translate(300.000000, 1345.000000)">
                <g id="ic/object/coin/line" transform="translate(64.000000, 40.000000)">
                    <g id="ic_object_coin_line" transform="translate(4.000000, 3.000000)">
                        <path d="M12,0 C18.3153339,0 23.5732011,2.0472085 23.977287,5.15821002 L23.9944916,5.3289501 L24,5.5 L24,20.5 C24,23.7819316 18.578055,26 12,26 C5.68466609,26 0.426798949,23.9527915 0.0227129976,20.84179 L0.00550843089,20.6710499 L0,20.5 L0.000646951848,5.46403495 L0.00744827643,5.29303398 C0.235953356,2.12232921 5.56984183,0 12,0 Z M22.0005798,18.6398379 C19.8423526,20.1165728 16.1514079,21 12,21 C7.84859207,21 4.1576474,20.1165728 1.99935305,18.6398379 L1.99935305,20.4640349 L2.00227468,20.5632037 C2.06651742,21.454627 3.32860249,22.3646432 5.31354922,23.0241441 L5.5653981,23.1052575 L6.05096922,23.2481808 L6.56034654,23.3810127 C8.12287855,23.7636296 9.98911972,24 12,24 C13.123807,24 14.2010646,23.9263224 15.2048381,23.7948334 L15.7004765,23.7243448 L16.2622438,23.6305181 C19.5662443,23.0334309 21.8577685,21.8026293 21.9936148,20.6115288 L22,20.5 L22.0005798,18.6398379 Z M22.0005798,13.6398379 C19.8423526,15.1165728 16.1514079,16 12,16 C7.84859207,16 4.1576474,15.1165728 1.99942025,13.6398379 L2,15.5 L2.00508227,15.5994582 C2.12295738,16.7569669 4.2812271,17.9541358 7.42998126,18.5725037 L7.73775621,18.6305181 L8.29952354,18.7243448 C9.44114261,18.8997166 10.6888919,19 12,19 C13.123807,19 14.2010646,18.9263224 15.2048381,18.7948334 L15.7004765,18.7243448 L16.2622438,18.6305181 C19.5662443,18.0334309 21.8577685,16.8026293 21.9936148,15.6115288 L22,15.5 L22.0005798,13.6398379 Z M22.0005798,8.63983787 C19.8423526,10.1165728 16.1514079,11 12,11 C7.84922269,11 4.15876877,10.1168412 2.0004039,8.6405108 L2,10.5 L2.00508227,10.5994582 C2.12295738,11.7569669 4.2812271,12.9541358 7.42998126,13.5725037 L7.73775621,13.6305181 L8.29952354,13.7243448 C9.44114261,13.8997166 10.6888919,14 12,14 C13.123807,14 14.2010646,13.9263224 15.2048381,13.7948334 L15.7004765,13.7243448 L16.2622438,13.6305181 C19.5662443,13.0334309 21.8577685,11.8026293 21.9936148,10.6115288 L22,10.5 L22.0005798,8.63983787 Z M12,2 C11.4134933,2 10.8392909,2.02010789 10.2813421,2.05804337 L9.72895742,2.10183691 L9.11205469,2.16578975 L8.51176101,2.24384765 L8.21825194,2.28792962 L7.64532811,2.38572683 C7.04458131,2.49669248 6.47777,2.6285034 5.95204859,2.77702858 L5.56557367,2.89149184 L5.10517033,3.04279506 C3.32203601,3.66312044 2.16873186,4.48434919 2.01845471,5.29099384 L2.00421453,5.40088021 L2,5.5 L2.00508227,5.59945823 C2.12295738,6.75696686 4.2812271,7.95413578 7.42998126,8.5725037 L7.73775621,8.63051812 L8.29952354,8.72434477 C9.44114261,8.8997166 10.6888919,9 12,9 C13.123807,9 14.2010646,8.9263224 15.2048381,8.79483342 L15.7004765,8.72434477 L16.2622438,8.63051812 C19.5662443,8.03343094 21.8577685,6.80262931 21.9936148,5.61152881 L21.999,5.511 L21.9977253,5.43679633 C21.9334826,4.54537298 20.6713975,3.63535684 18.6864508,2.97585587 L18.4346019,2.89474248 L17.9490308,2.75181924 L17.4396535,2.61898733 C15.8771215,2.23637035 14.0108803,2 12,2 Z" id="Shape"></path>
                    </g>
                </g>
            </g>
        </g>
    </g>
</svg>