<?xml version="1.0" encoding="UTF-8"?>
<svg width="32px" height="32px" viewBox="0 0 32 32" version="1.1" xmlns="http://www.w3.org/2000/svg" xmlns:xlink="http://www.w3.org/1999/xlink">
    <title>996C00FA-FED0-4E8C-A9C4-A14DFC4FCC4B</title>
    <g id="STDS_Icon" stroke="none" stroke-width="1" fill="none" fill-rule="evenodd">
        <g id="object" transform="translate(-364.000000, -1745.000000)" fill="#000000" fill-rule="nonzero">
            <g id="ic_object_notice_line" transform="translate(300.000000, 1705.000000)">
                <g id="ic/object/notice/line" transform="translate(64.000000, 40.000000)">
                    <g id="ic_object_notice_line" transform="translate(2.000000, 3.000000)">
                        <path d="M12,23 C12,24.0543618 11.1841222,24.9181651 10.1492623,24.9945143 L10,25 L7.84775455,25 C6.88456592,25 6.05816433,24.3135865 5.88155146,23.3667344 C5.58036117,21.7520014 5.06814148,20.1210646 4.34348549,18.4732947 L4.1300873,18.0033783 C1.66732558,16.6396033 0,14.014514 0,11 C0,6.66508574 3.44783777,3.13545713 7.75082067,3.00380682 L8,3 L12.5656176,3 C15.633262,3 18.6730451,2.4354241 21.5334811,1.33618316 L22.0676742,1.12381718 L24.6199177,0.0750473128 C25.2414393,-0.18034881 25.919975,0.237085861 25.9934496,0.8836182 L26,1 L26,21 C26,21.6719496 25.3559933,22.1409035 24.7300551,21.9631285 L24.6199177,21.9249527 L22.0676742,20.8761828 C19.2302482,19.7102256 16.2040075,19.077064 13.1404375,19.0066088 L12.5656176,19 L12,18.9999788 L12,23 Z M6.67606548,18.8909598 L6.88454141,19.4531284 C7.23628099,20.441396 7.51794063,21.4271871 7.72927909,22.4103938 L7.84764169,23 L10,23 L10,18.9999788 L8,19 C7.5489987,19 7.10671395,18.96268 6.67606548,18.8909598 Z M24,2.491 L22.8278387,2.97372255 C19.7634187,4.23295637 16.4950787,4.91677091 13.186423,4.99286247 L12.5656176,5 L12,4.99997877 L12,16.9999788 L12.5656176,17 C15.8786736,17 19.1616393,17.609742 22.2509102,18.7969222 L22.8278387,19.0262774 L24,19.508 L24,2.491 Z M10,17 L10,4.99997877 L8,4.99997877 C4.76160306,4.99997877 2.12242824,7.56557489 2.00413847,10.7750617 L2,11 C2,14.2383969 4.56557489,16.8775718 7.77506174,16.9958615 L8,17 L10,17 Z" id="Shape"></path>
                    </g>
                </g>
            </g>
        </g>
    </g>
</svg>