<?xml version="1.0" encoding="UTF-8"?>
<svg width="32px" height="32px" viewBox="0 0 32 32" version="1.1" xmlns="http://www.w3.org/2000/svg" xmlns:xlink="http://www.w3.org/1999/xlink">
    <title>0A9B4E91-D7EC-4A66-8A17-968ADFC3E5D9</title>
    <g id="STDS_Icon" stroke="none" stroke-width="1" fill="none" fill-rule="evenodd">
        <g id="object" transform="translate(-364.000000, -2285.000000)" fill="#000000" fill-rule="nonzero">
            <g id="ic_object_clock_line" transform="translate(300.000000, 2245.000000)">
                <g id="ic/object/clock/line" transform="translate(64.000000, 40.000000)">
                    <g id="ic_object_clock_line" transform="translate(2.000000, 2.000000)">
                        <path d="M14,0 C21.7319865,0 28,6.2680135 28,14 C28,21.7319865 21.7319865,28 14,28 C6.2680135,28 0,21.7319865 0,14 C0,6.2680135 6.2680135,0 14,0 Z M14,2 C7.372583,2 2,7.372583 2,14 C2,20.627417 7.372583,26 14,26 C20.627417,26 26,20.627417 26,14 C26,7.372583 20.627417,2 14,2 Z M14,5 C14.5128358,5 14.9355072,5.38604019 14.9932723,5.88337887 L15,6 L15,13.434 L19.5144958,16.1425071 C19.9542489,16.4063589 20.1180705,16.9548483 19.911725,17.4110326 L19.8574929,17.5144958 C19.5936411,17.9542489 19.0451517,18.1180705 18.5889674,17.911725 L18.4855042,17.8574929 L13.4855042,14.8574929 C13.2219495,14.6993601 13.0479014,14.4303773 13.0085074,14.1302838 L13,14 L13,6 C13,5.44771525 13.4477153,5 14,5 Z" id="Shape"></path>
                    </g>
                </g>
            </g>
        </g>
    </g>
</svg>