<?xml version="1.0" encoding="UTF-8"?>
<svg width="32px" height="32px" viewBox="0 0 32 32" version="1.1" xmlns="http://www.w3.org/2000/svg" xmlns:xlink="http://www.w3.org/1999/xlink">
    <title>618A2BF2-ADDA-4771-AE54-6D870577DE89</title>
    <g id="STDS_Icon" stroke="none" stroke-width="1" fill="none" fill-rule="evenodd">
        <g id="logo" transform="translate(-784.000000, -1025.000000)" fill="#000000">
            <g id="ic_logo_google_playstore_fill" transform="translate(720.000000, 985.000000)">
                <g id="ic/logo/google_playstore/fill" transform="translate(64.000000, 40.000000)">
                    <g id="ic_logo_google_playstore_fill" transform="translate(3.000000, 2.000000)">
                        <path d="M15.0000914,15.4140914 L18.556675,18.9713563 L3.98935416,27.7276484 C3.5268283,27.9980554 2.98236743,28.0683591 2.47686877,27.9374963 L15.0000914,15.4140914 Z M1.05008302,1.46263574 L13.5860914,14.0000914 L1.05168969,26.5349531 C1.02102791,26.4246647 0.999381847,26.3108319 0.987375864,26.1944182 L0.976675,26.0179825 L0.976675,1.96317388 C0.979950911,1.79167846 1.00509829,1.62369756 1.05008302,1.46263574 Z M20.322675,10.0903563 L24.0796441,12.3476065 C24.6359307,12.7087982 24.976675,13.3292753 24.976675,14 C24.976675,14.6707247 24.6359307,15.2912018 24.1136573,15.6330843 L20.322675,17.9093563 L16.4140914,14.0000914 L20.322675,10.0903563 Z M2.47702436,0.0626009186 C2.92678045,-0.0534702514 3.40847662,-0.00991024102 3.84035029,0.19439997 L3.9998078,0.27855365 L18.556675,9.02835626 L15.0000914,12.5860914 L2.47702436,0.0626009186 Z" id="Shape"></path>
                    </g>
                </g>
            </g>
        </g>
    </g>
</svg>