<?xml version="1.0" encoding="UTF-8"?>
<svg width="32px" height="32px" viewBox="0 0 32 32" version="1.1" xmlns="http://www.w3.org/2000/svg" xmlns:xlink="http://www.w3.org/1999/xlink">
    <title>96E1DDBE-5C19-48DB-819D-0C06E67FA543</title>
    <g id="STDS_Icon" stroke="none" stroke-width="1" fill="none" fill-rule="evenodd">
        <g id="community" transform="translate(-364.000000, -845.000000)" fill="#000000">
            <g id="ic_community_group_line" transform="translate(300.000000, 805.000000)">
                <g id="ic/community/group/line" transform="translate(64.000000, 40.000000)">
                    <g id="ic_community_group_line" transform="translate(3.000000, 4.000000)">
                        <path d="M10,14 C15.4292399,14 19.8479317,18.3266708 19.9961582,23.7200952 L20,24 L0,24 C0,18.4771525 4.4771525,14 10,14 Z M20.7102131,14.2960132 C23.2925813,16.9012209 24.7261079,19.7845444 24.9743121,22.9211142 C25.0178796,23.4716779 24.6068779,23.9533162 24.0563143,23.9968837 C23.5057506,24.0404511 23.0241122,23.6294494 22.9805448,23.0788858 C22.7715397,20.4376778 21.5534474,17.987668 19.2897869,15.7039868 C18.9009858,15.3117469 18.9037734,14.678588 19.2960132,14.2897869 C19.6882531,13.9009858 20.321412,13.9037734 20.7102131,14.2960132 Z M10,16 C6.33199562,16 3.24055672,18.4685702 2.29640422,21.8349898 L2.252,22 L17.747,22 L17.7035958,21.8349898 C16.7809013,18.5450798 13.8074152,16.1126715 10.2491793,16.0038068 L10,16 Z M10,-1.77634871e-14 C13.3137085,-1.77634871e-14 16,2.6862915 16,6 C16,9.3137085 13.3137085,12 10,12 C6.6862915,12 4,9.3137085 4,6 C4,2.6862915 6.6862915,-1.77634871e-14 10,-1.77634871e-14 Z M17.2411003,0.0294997922 C20.036326,0.723914604 22,3.17850707 22,6 C22,8.82149293 20.036326,11.2760854 17.2411003,11.9705002 C16.7051078,12.1036562 16.1626558,11.7770927 16.0294998,11.2411003 C15.8963438,10.7051078 16.2229073,10.1626558 16.7588997,10.0294998 C18.6711396,9.55444418 20,7.89336863 20,6 C20,4.10663137 18.6711396,2.44555582 16.7588997,1.97050021 C16.2229073,1.8373442 15.8963438,1.29489218 16.0294998,0.758899717 C16.1626558,0.222907252 16.7051078,-0.103656217 17.2411003,0.0294997922 Z M10,2 C7.790861,2 6,3.790861 6,6 C6,8.209139 7.790861,10 10,10 C12.209139,10 14,8.209139 14,6 C14,3.790861 12.209139,2 10,2 Z" id="Shape"></path>
                    </g>
                </g>
            </g>
        </g>
    </g>
</svg>