<?xml version="1.0" encoding="UTF-8"?>
<svg width="32px" height="32px" viewBox="0 0 32 32" version="1.1" xmlns="http://www.w3.org/2000/svg" xmlns:xlink="http://www.w3.org/1999/xlink">
    <title>17B6BA9D-45F3-4FAB-B528-80F0046DEDE8</title>
    <g id="STDS_Icon" stroke="none" stroke-width="1" fill="none" fill-rule="evenodd">
        <g id="community" transform="translate(-364.000000, -665.000000)" fill="#000000">
            <g id="ic_community_thumbs_down_line" transform="translate(300.000000, 625.000000)">
                <g id="ic/community/thumbs_down/line" transform="translate(64.000000, 40.000000)">
                    <g id="ic_community_thumbs_down_line" transform="translate(3.000000, 4.000000)">
                        <path d="M24,0 C25.5976809,0 26.9036609,1.24891996 26.9949073,2.82372721 L27,3 L27,14 C27,15.5976809 25.75108,16.9036609 24.1762728,16.9949073 L24,17 L19.139,17 L15.0998393,25.4320687 C14.952032,25.7405814 14.6585097,25.9493629 14.3248123,25.99195 L14.1979986,26 C10.8180306,26 9.4315313,23.5597151 9.93234891,19.2448144 L9.96768561,18.9607559 L10.0052661,18.696 L4.0009151,18.6956522 C3.84396694,18.6956522 3.68729154,18.686415 3.53169598,18.668036 L3.29921341,18.6336231 L3.06895588,18.5855689 C0.987749883,18.0869466 -0.320133603,16.0453558 0.0681014222,13.9650802 L0.110998384,13.763693 L2.48973552,3.83505098 C3.01118321,1.65857368 4.91125494,0.103014065 7.12930569,0.00492018562 L7.35213141,0 L24,0 Z M18,2 L7.35213141,2 C6.08806158,2 4.97425492,2.78971832 4.54154607,3.95047702 L4.48181433,4.1273213 L4.43469388,4.30103059 L2.05595674,14.2296726 C1.79860331,15.3038434 2.46076465,16.3832571 3.53493549,16.6406105 C3.63668803,16.6649887 3.74011783,16.6813256 3.84426835,16.6895082 L4.0009151,16.6956522 L11.1972661,16.6956522 C11.8304133,16.6956522 12.3041881,17.2766068 12.1768247,17.8968115 C11.4088781,21.6363775 11.8407414,23.463086 13.3748745,23.8967162 L13.5090688,23.930485 L13.5932661,23.947 L18,14.752 L18,2 Z M24,2 L20.197,2 L20.1972661,14.5652174 C20.1972661,14.6773806 20.1783982,14.7884726 20.1417042,14.8939072 L20.098,15 L24,15 C24.5128358,15 24.9355072,14.6139598 24.9932723,14.1166211 L25,14 L25,3 C25,2.48716416 24.6139598,2.06449284 24.1166211,2.00672773 L24,2 Z" id="Shape"></path>
                    </g>
                </g>
            </g>
        </g>
    </g>
</svg>