<?xml version="1.0" encoding="UTF-8"?>
<svg width="32px" height="32px" viewBox="0 0 32 32" version="1.1" xmlns="http://www.w3.org/2000/svg" xmlns:xlink="http://www.w3.org/1999/xlink">
    <title>3AFCC834-4121-4155-AD20-59AD672F2A78</title>
    <g id="STDS_Icon" stroke="none" stroke-width="1" fill="none" fill-rule="evenodd">
        <g id="community" transform="translate(-364.000000, -4985.000000)" fill="#000000">
            <g id="ic_community_link_unlink_line" transform="translate(300.000000, 4945.000000)">
                <g id="ic/community/link_unlink/line" transform="translate(64.000000, 40.000000)">
                    <g id="ic_community_link_unlink_line" transform="translate(2.000000, 4.000000)">
                        <path d="M12.2071068,20.2928932 C12.5675907,20.6533772 12.5953203,21.2206082 12.2902954,21.6128994 L12.2071068,21.7071068 L10.2071068,23.7071068 C9.81658249,24.0976311 9.18341751,24.0976311 8.79289322,23.7071068 C8.43240926,23.3466228 8.40467972,22.7793918 8.70970461,22.3871006 L8.79289322,22.2928932 L10.7928932,20.2928932 C11.1834175,19.9023689 11.8165825,19.9023689 12.2071068,20.2928932 Z M17.1128994,20.2097046 L17.2071068,20.2928932 L19.2071068,22.2928932 C19.5976311,22.6834175 19.5976311,23.3165825 19.2071068,23.7071068 C18.8466228,24.0675907 18.2793918,24.0953203 17.8871006,23.7902954 L17.7928932,23.7071068 L15.7928932,21.7071068 C15.4023689,21.3165825 15.4023689,20.6834175 15.7928932,20.2928932 C16.1533772,19.9324093 16.7206082,19.9046797 17.1128994,20.2097046 Z M10.9991451,4.99951125 C11.5514298,4.99951125 11.9991451,5.4472265 11.9991451,5.99951125 C11.9991451,6.51234709 11.6131049,6.93501841 11.1157662,6.99278352 L10.9991451,6.99951125 L6.99914509,6.99951125 C4.23772132,6.99951125 1.99914509,9.2380875 1.99914509,11.9995113 C1.99914509,14.688266 4.12145178,16.8813294 6.78225547,16.9948917 L6.99914509,16.9995113 L10.9991451,16.9995113 C11.5514298,16.9995113 11.9991451,17.4472265 11.9991451,17.9995113 C11.9991451,18.5123471 11.6131049,18.9350184 11.1157662,18.9927835 L10.9991451,18.9995113 L6.99914509,18.9995113 C3.13315181,18.9995113 -0.000854910593,15.8655045 -0.000854910593,11.9995113 C-0.000854910593,8.21405953 3.00392845,5.13041257 6.75849534,5.00357027 L6.99914509,4.99951125 L10.9991451,4.99951125 Z M21,4.99951125 C24.8659932,4.99951125 28,8.13351804 28,11.9995113 C28,15.7849629 24.9952166,18.8686099 21.2406497,18.9954522 L21,18.9995113 L17,18.9995113 C16.4477153,18.9995113 16,18.551796 16,17.9995113 C16,17.4866754 16.3860402,17.0640041 16.8833789,17.006239 L17,16.9995113 L21,16.9995113 C23.7614237,16.9995113 26,14.760935 26,11.9995113 C26,9.31075658 23.8776933,7.11769314 21.2168896,7.00413076 L21,6.99951125 L17,6.99951125 C16.4477153,6.99951125 16,6.551796 16,5.99951125 C16,5.48667541 16.3860402,5.06400409 16.8833789,5.00623898 L17,4.99951125 L21,4.99951125 Z M19,10.9990237 C19.5522847,10.9990237 20,11.446739 20,11.9990237 C20,12.5118596 19.6139598,12.9345309 19.1166211,12.992296 L19,12.9990237 L9,12.9990237 C8.44771525,12.9990237 8,12.5513085 8,11.9990237 C8,11.4861879 8.38604019,11.0635166 8.88337887,11.0057515 L9,10.9990237 L19,10.9990237 Z M10.1128994,0.209704612 L10.2071068,0.292893219 L12.2071068,2.29289322 C12.5976311,2.68341751 12.5976311,3.31658249 12.2071068,3.70710678 C11.8466228,4.06759074 11.2793918,4.09532028 10.8871006,3.79029539 L10.7928932,3.70710678 L8.79289322,1.70710678 C8.40236893,1.31658249 8.40236893,0.683417511 8.79289322,0.292893219 C9.15337718,-0.0675907428 9.72060824,-0.0953202783 10.1128994,0.209704612 Z M19.2071068,0.292893219 C19.5675907,0.65337718 19.5953203,1.22060824 19.2902954,1.61289944 L19.2071068,1.70710678 L17.2071068,3.70710678 C16.8165825,4.09763107 16.1834175,4.09763107 15.7928932,3.70710678 C15.4324093,3.34662282 15.4046797,2.77939176 15.7097046,2.38710056 L15.7928932,2.29289322 L17.7928932,0.292893219 C18.1834175,-0.0976310729 18.8165825,-0.0976310729 19.2071068,0.292893219 Z" id="Shape"></path>
                    </g>
                </g>
            </g>
        </g>
    </g>
</svg>