<?xml version="1.0" encoding="UTF-8"?>
<svg width="32px" height="32px" viewBox="0 0 32 32" version="1.1" xmlns="http://www.w3.org/2000/svg" xmlns:xlink="http://www.w3.org/1999/xlink">
    <title>A8D0CE66-92BE-4F7F-BED2-2A8BECE5FD63</title>
    <g id="STDS_Icon" stroke="none" stroke-width="1" fill="none" fill-rule="evenodd">
        <g id="community" transform="translate(-364.000000, -1745.000000)" fill="#000000">
            <g id="ic_community_friend_cancel_line" transform="translate(300.000000, 1705.000000)">
                <g id="ic/community/friend_cancel/line" transform="translate(64.000000, 40.000000)">
                    <g id="ic_community_friend_cancel_line" transform="translate(3.000000, 4.000000)">
                        <path d="M10,14 C15.4292399,14 19.8479317,18.3266708 19.9961582,23.7200952 L20,24 L4.54747351e-13,24 C4.54747351e-13,18.4771525 4.4771525,14 10,14 Z M10,16 C6.33199562,16 3.24055672,18.4685702 2.29640422,21.8349898 L2.252,22 L17.747,22 L17.7035958,21.8349898 C16.7809013,18.5450798 13.8074152,16.1126715 10.2491793,16.0038068 L10,16 Z M26,11 C26.5522847,11 27,11.4477153 27,12 C27,12.5128358 26.6139598,12.9355072 26.1166211,12.9932723 L26,13 L18,13 C17.4477153,13 17,12.5522847 17,12 C17,11.4871642 17.3860402,11.0644928 17.8833789,11.0067277 L18,11 L26,11 Z M10,0 C13.3137085,0 16,2.6862915 16,6 C16,9.3137085 13.3137085,12 10,12 C6.6862915,12 4,9.3137085 4,6 C4,2.6862915 6.6862915,0 10,0 Z M10,2 C7.790861,2 6,3.790861 6,6 C6,8.209139 7.790861,10 10,10 C12.209139,10 14,8.209139 14,6 C14,3.790861 12.209139,2 10,2 Z" id="Shape"></path>
                    </g>
                </g>
            </g>
        </g>
    </g>
</svg>