<?xml version="1.0" encoding="UTF-8"?>
<svg width="32px" height="32px" viewBox="0 0 32 32" version="1.1" xmlns="http://www.w3.org/2000/svg" xmlns:xlink="http://www.w3.org/1999/xlink">
    <title>5480B291-4527-4EB6-9A81-BA2F53B5FA38</title>
    <g id="STDS_Icon" stroke="none" stroke-width="1" fill="none" fill-rule="evenodd">
        <g id="community" transform="translate(-364.000000, -5165.000000)" fill="#000000">
            <g id="ic_community_send_line" transform="translate(300.000000, 5125.000000)">
                <g id="ic/community/send/line" transform="translate(64.000000, 40.000000)">
                    <g id="ic_community_send_line" transform="translate(1.000000, 3.000000)">
                        <path d="M25.5494725,0.0946181786 C26.6104477,-0.212636402 27.7196171,0.398374895 28.0268717,1.45935011 C28.1145766,1.76220242 28.1291941,2.08060955 28.0707242,2.3886468 L28.0268717,2.57201737 L21.1950272,26.1629357 C20.8877726,27.223911 19.7786032,27.8349223 18.717628,27.5276677 C18.2223353,27.3842327 17.8038104,27.0558235 17.5462589,26.6141106 L17.4664859,26.4627748 L12.3861018,15.7353881 L1.65871509,10.655004 C0.758046292,10.2283714 0.323290146,9.21585208 0.594211937,8.28878884 L0.645940735,8.13518468 L0.707412103,7.99135561 C0.928152131,7.52534888 1.31922175,7.16468251 1.79641535,6.98102698 L1.95855415,6.92646274 L25.5494725,0.0946181786 Z M26.1058062,2.01568374 L2.51488778,8.8475283 L12.8444186,13.7401654 L17.7928932,8.79289322 C18.1834175,8.40236893 18.8165825,8.40236893 19.2071068,8.79289322 C19.5697365,9.15552292 19.5956386,9.72736831 19.2848131,10.119886 L19.2071068,10.2071068 L14.3024186,15.1101654 L19.2739616,25.6066021 L26.1058062,2.01568374 Z" id="Shape"></path>
                    </g>
                </g>
            </g>
        </g>
    </g>
</svg>