<?xml version="1.0" encoding="UTF-8"?>
<svg width="32px" height="32px" viewBox="0 0 32 32" version="1.1" xmlns="http://www.w3.org/2000/svg" xmlns:xlink="http://www.w3.org/1999/xlink">
    <title>A8C9A07E-C333-4771-B7BD-82F0852582F8</title>
    <g id="STDS_Icon" stroke="none" stroke-width="1" fill="none" fill-rule="evenodd">
        <g id="community" transform="translate(-364.000000, -2285.000000)" fill="#000000">
            <g id="ic_community_star_half_line" transform="translate(300.000000, 2245.000000)">
                <g id="ic/community/star_half/line" transform="translate(64.000000, 40.000000)">
                    <g id="ic_community_star_half_line" transform="translate(2.000000, 2.000000)">
                        <path d="M12.5139669,0.928997161 C12.9176505,0.10423688 13.9133026,-0.236191697 14.7357419,0.173218634 C15.0154734,0.312469011 15.249048,0.527618179 15.4110363,0.792520783 L15.4859473,0.928997161 L18.915,7.937 L26.585033,9.06787192 C27.3923848,9.18688012 27.9754585,9.87068885 27.9993484,10.6591063 L27.997193,10.8080481 L27.9826814,10.950359 C27.9379601,11.2589203 27.8077322,11.54774 27.6080692,11.7844335 L27.5025258,11.8982864 L21.95,17.352 L23.2604457,25.0593732 C23.3971472,25.8631779 22.9331224,26.633118 22.1917609,26.9010997 L22.0495845,26.9453497 L21.9097653,26.975721 C21.6006696,27.0291845 21.2839857,26.9932739 20.9961904,26.8739308 L20.8548691,26.807334 L13.9999996,23.171 L7.14504514,26.807334 C6.4235336,27.1899904 5.54993608,26.9838883 5.06647992,26.3614526 L4.98053624,26.2399091 L4.90453078,26.1088603 C4.76045279,25.832565 4.69730967,25.5222072 4.72059692,25.2134521 L4.73946853,25.0593732 L6.049,17.352 L0.497388367,11.8982864 C-0.0770496717,11.3340347 -0.15527714,10.4524743 0.269760692,9.80194423 L0.361480553,9.67508108 L0.466633364,9.55535356 C0.684118849,9.33016719 0.960047157,9.1719858 1.26192828,9.09785449 L1.41488117,9.06787192 L9.084,7.937 L12.5139669,0.928997161 Z M14,2.442 L14.0009551,21.0398719 C14.0812392,21.039952 14.1615158,21.0496916 14.2399877,21.0690908 L14.3561174,21.1054344 L14.4684947,21.1564279 L21.172,24.712 L19.8904923,17.1729056 C19.8493385,16.9309214 19.898946,16.6853192 20.0248219,16.4808888 L20.0940485,16.3823119 L20.1755838,16.2918411 L25.617,10.946 L18.1037301,9.83929169 C17.8591986,9.80324637 17.6397626,9.67857471 17.484205,9.49361252 L17.4119289,9.3962384 L17.3513765,9.28960296 L14,2.442 Z" id="Shape"></path>
                    </g>
                </g>
            </g>
        </g>
    </g>
</svg>