<?xml version="1.0" encoding="UTF-8"?>
<svg width="32px" height="32px" viewBox="0 0 32 32" version="1.1" xmlns="http://www.w3.org/2000/svg" xmlns:xlink="http://www.w3.org/1999/xlink">
    <title>F951E7C5-65D4-4F9B-BB82-56C7C05CCE77</title>
    <g id="STDS_Icon" stroke="none" stroke-width="1" fill="none" fill-rule="evenodd">
        <g id="community" transform="translate(-364.000000, -4265.000000)" fill="#000000">
            <g id="ic_community_view_webzine_line" transform="translate(300.000000, 4225.000000)">
                <g id="ic/community/view_webzine/line" transform="translate(64.000000, 40.000000)">
                    <g id="ic_community_view_webzine_line" transform="translate(4.000000, 6.000000)">
                        <path d="M21,11 C22.5976809,11 23.9036609,12.24892 23.9949073,13.8237272 L24,14 L24,17 C24,18.5976809 22.75108,19.9036609 21.1762728,19.9949073 L21,20 L3,20 C1.40231912,20 0.0963391206,18.75108 0.00509269341,17.1762728 L0,17 L0,14 C0,12.4023191 1.24891996,11.0963391 2.82372721,11.0050927 L3,11 L21,11 Z M21,13 L3,13 C2.48716416,13 2.06449284,13.3860402 2.00672773,13.8833789 L2,14 L2,17 C2,17.5128358 2.38604019,17.9355072 2.88337887,17.9932723 L3,18 L21,18 C21.5128358,18 21.9355072,17.6139598 21.9932723,17.1166211 L22,17 L22,14 C22,13.4871642 21.6139598,13.0644928 21.1166211,13.0067277 L21,13 Z M21,0 C22.5976809,0 23.9036609,1.24891996 23.9949073,2.82372721 L24,3 L24,6 C24,7.59768088 22.75108,8.90366088 21.1762728,8.99490731 L21,9 L3,9 C1.40231912,9 0.0963391206,7.75108004 0.00509269341,6.17627279 L0,6 L0,3 C0,1.40231912 1.24891996,0.0963391206 2.82372721,0.00509269341 L3,0 L21,0 Z M21,2 L3,2 C2.48716416,2 2.06449284,2.38604019 2.00672773,2.88337887 L2,3 L2,6 C2,6.51283584 2.38604019,6.93550716 2.88337887,6.99327227 L3,7 L21,7 C21.5128358,7 21.9355072,6.61395981 21.9932723,6.11662113 L22,6 L22,3 C22,2.48716416 21.6139598,2.06449284 21.1166211,2.00672773 L21,2 Z" id="Shape"></path>
                    </g>
                </g>
            </g>
        </g>
    </g>
</svg>