<?xml version="1.0" encoding="UTF-8"?>
<svg width="32px" height="32px" viewBox="0 0 32 32" version="1.1" xmlns="http://www.w3.org/2000/svg" xmlns:xlink="http://www.w3.org/1999/xlink">
    <title>D62F9A58-EE93-4AD2-9875-6B6B3BCE9820</title>
    <g id="STDS_Icon" stroke="none" stroke-width="1" fill="none" fill-rule="evenodd">
        <g id="community" transform="translate(-364.000000, -4445.000000)" fill="#000000">
            <g id="ic_community_filter_line" transform="translate(300.000000, 4405.000000)">
                <g id="ic/community/filter/line" transform="translate(64.000000, 40.000000)">
                    <g id="ic_community_filter_line" transform="translate(3.000000, 5.000000)">
                        <path d="M17,12 C19.4188915,12 21.4366008,13.7176654 21.8999437,15.999812 L25,16 C25.5522847,16 26,16.4477153 26,17 C26,17.5128358 25.6139598,17.9355072 25.1166211,17.9932723 L25,18 L21.8997409,18.0011864 C21.4360122,20.2828356 19.4185387,22 17,22 C14.5814613,22 12.5639878,20.2828356 12.1002591,18.0011864 L1,18 C0.44771525,18 0,17.5522847 0,17 C0,16.4871642 0.38604019,16.0644928 0.883378875,16.0067277 L1,16 L12.1000563,15.999812 C12.5633992,13.7176654 14.5811085,12 17,12 Z M17,14 C15.3431458,14 14,15.3431458 14,17 C14,18.6568542 15.3431458,20 17,20 C18.6568542,20 20,18.6568542 20,17 C20,15.3431458 18.6568542,14 17,14 Z M9,0 C11.4188915,0 13.4366008,1.71766536 13.8999437,3.99981203 L25,4 C25.5522847,4 26,4.44771525 26,5 C26,5.51283584 25.6139598,5.93550716 25.1166211,5.99327227 L25,6 L13.8997409,6.0011864 C13.4360122,8.2828356 11.4185387,10 9,10 C6.58146126,10 4.56398776,8.2828356 4.10025909,6.0011864 L1,6 C0.44771525,6 0,5.55228475 0,5 C0,4.48716416 0.38604019,4.06449284 0.883378875,4.00672773 L1,4 L4.10005628,3.99981203 C4.56339924,1.71766536 6.5811085,0 9,0 Z M9,2 C7.34314575,2 6,3.34314575 6,5 C6,6.65685425 7.34314575,8 9,8 C10.6568542,8 12,6.65685425 12,5 C12,3.34314575 10.6568542,2 9,2 Z" id="Shape"></path>
                    </g>
                </g>
            </g>
        </g>
    </g>
</svg>