<?xml version="1.0" encoding="UTF-8"?>
<svg width="32px" height="32px" viewBox="0 0 32 32" version="1.1" xmlns="http://www.w3.org/2000/svg" xmlns:xlink="http://www.w3.org/1999/xlink">
    <title>C12F81B8-1643-4501-A67E-81FCC92D29B4</title>
    <g id="STDS_Icon" stroke="none" stroke-width="1" fill="none" fill-rule="evenodd">
        <g id="community" transform="translate(-364.000000, -6965.000000)" fill="#000000">
            <g id="ic_community_attach_quotation_line" transform="translate(300.000000, 6925.000000)">
                <g id="ic/community/attach_quotation/line" transform="translate(64.000000, 40.000000)">
                    <g id="ic_community_attach_quotation_line" transform="translate(4.000000, 4.000000)">
                        <path d="M21,0 C22.5976809,0 23.9036609,1.24891996 23.9949073,2.82372721 L24,3 L24,21 C24,22.5976809 22.75108,23.9036609 21.1762728,23.9949073 L21,24 L3,24 C1.40231912,24 0.0963391206,22.75108 0.00509269341,21.1762728 L0,21 L0,3 C0,1.40231912 1.24891996,0.0963391206 2.82372721,0.00509269341 L3,0 L21,0 Z M21,2 L3,2 C2.48716416,2 2.06449284,2.38604019 2.00672773,2.88337887 L2,3 L2,21 C2,21.5128358 2.38604019,21.9355072 2.88337887,21.9932723 L3,22 L21,22 C21.5128358,22 21.9355072,21.6139598 21.9932723,21.1166211 L22,21 L22,3 C22,2.48716416 21.6139598,2.06449284 21.1166211,2.00672773 L21,2 Z M8.48067857,7 C9.91189192,7 11.14888,7.99957275 11.4345551,9.38912964 L11.4777273,9.65283966 C11.4886348,9.72993724 11.4960591,9.79622904 11.5,9.85171509 L11.5027746,10.3655219 L11.5027746,10.3655219 L11.4970955,10.7806078 C11.4949397,10.8550206 11.4920376,10.9321284 11.4881772,11.0120497 C11.4613571,11.490348 11.3906498,12.0497971 11.2346061,12.6399852 C10.5926392,14.9129157 9.05065397,16.3447754 6.60865051,16.9355646 L6.32288672,17 L6.00226567,15.7040452 C7.5976994,15.1669531 8.56728346,14.2550305 8.91101785,12.9682774 C8.76960324,12.9891799 8.62696954,13.0125415 8.48067857,13.0125415 C6.83490513,13.0125415 5.5,11.6661748 5.5,10.0062707 C5.5,8.34636665 6.83490513,7 8.48067857,7 Z M15.4806786,7 C16.9118919,7 18.14888,7.99957275 18.4345551,9.38912964 L18.4777273,9.65283966 C18.4886348,9.72993724 18.4960591,9.79622904 18.5,9.85171509 L18.5027746,10.3655219 L18.5027746,10.3655219 L18.4970955,10.7806078 C18.4949397,10.8550206 18.4920376,10.9321284 18.4881772,11.0120497 C18.4613571,11.490348 18.3906498,12.0497971 18.2346061,12.6399852 C17.5926392,14.9129157 16.050654,16.3447754 13.6086505,16.9355646 L13.3228867,17 L13.0022657,15.7040452 C14.5976994,15.1669531 15.5672835,14.2550305 15.9110178,12.9682774 C15.7696032,12.9891799 15.6269695,13.0125415 15.4806786,13.0125415 C13.8349051,13.0125415 12.5,11.6661748 12.5,10.0062707 C12.5,8.34636665 13.8349051,7 15.4806786,7 Z" id="Shape"></path>
                    </g>
                </g>
            </g>
        </g>
    </g>
</svg>