<?xml version="1.0" encoding="UTF-8"?>
<svg width="32px" height="32px" viewBox="0 0 32 32" version="1.1" xmlns="http://www.w3.org/2000/svg" xmlns:xlink="http://www.w3.org/1999/xlink">
    <title>CD38BC66-A069-4915-99AD-895E952FC99E</title>
    <g id="STDS_Icon" stroke="none" stroke-width="1" fill="none" fill-rule="evenodd">
        <g id="community" transform="translate(-364.000000, -6605.000000)" fill="#000000">
            <g id="ic_community_attach_survey_line" transform="translate(300.000000, 6565.000000)">
                <g id="ic/community/attach_survey/line" transform="translate(64.000000, 40.000000)">
                    <g id="ic_community_attach_survey_line" transform="translate(4.000000, 4.000000)">
                        <path d="M18.0387503,0 C18.885005,0 19.688654,0.357201467 20.2549701,0.978013631 L20.3813567,1.12591486 L23.5617376,5.10139096 C23.8099759,5.4116888 23.9593418,5.78782649 23.9928046,6.18125283 L24,6.35078106 L24,21 C24,22.5976809 22.75108,23.9036609 21.1762728,23.9949073 L21,24 L3,24 C1.40231912,24 0.0963391206,22.75108 0.00509269341,21.1762728 L0,21 L0,6.35078106 C0,5.95340594 0.118336152,5.56638359 0.337977613,5.23826521 L0.438262381,5.10139096 L3.61864327,1.12591486 C4.14729436,0.465100993 4.9282574,0.0606985354 5.76680511,0.0062982551 L5.96124969,0 L18.0387503,0 Z M22,7 L2,7 L2,21 C2,21.5128358 2.38604019,21.9355072 2.88337887,21.9932723 L3,22 L21,22 C21.5128358,22 21.9355072,21.6139598 21.9932723,21.1166211 L22,21 L22,7 Z M16.7071068,10.2928932 C17.0675907,10.6533772 17.0953203,11.2206082 16.7902954,11.6128994 L16.7071068,11.7071068 L11.2071068,17.2071068 C10.8466228,17.5675907 10.2793918,17.5953203 9.88710056,17.2902954 L9.79289322,17.2071068 L7.29289322,14.7071068 C6.90236893,14.3165825 6.90236893,13.6834175 7.29289322,13.2928932 C7.65337718,12.9324093 8.22060824,12.9046797 8.61289944,13.2097046 L8.70710678,13.2928932 L10.5,15.085 L15.2928932,10.2928932 C15.6834175,9.90236893 16.3165825,9.90236893 16.7071068,10.2928932 Z M18.0387503,2 L5.96124969,2 C5.70086365,2 5.45257861,2.10145367 5.26744735,2.27982379 L5.18038089,2.37530495 L3.08,5 L20.92,5 L18.8196191,2.37530495 C18.6569572,2.17197761 18.4226328,2.04147718 18.1676986,2.00834087 L18.0387503,2 Z" id="Shape"></path>
                    </g>
                </g>
            </g>
        </g>
    </g>
</svg>