<?xml version="1.0" encoding="UTF-8"?>
<svg width="32px" height="32px" viewBox="0 0 32 32" version="1.1" xmlns="http://www.w3.org/2000/svg" xmlns:xlink="http://www.w3.org/1999/xlink">
    <title>0FE206A0-F5F3-45F1-B07F-15FBC1C677C5</title>
    <g id="STDS_Icon" stroke="none" stroke-width="1" fill="none" fill-rule="evenodd">
        <g id="community" transform="translate(-364.000000, -2105.000000)" fill="#000000">
            <g id="ic_community_star_line" transform="translate(300.000000, 2065.000000)">
                <g id="ic/community/star/line" transform="translate(64.000000, 40.000000)">
                    <g id="ic_community_star_line" transform="translate(2.000000, 2.000000)">
                        <path d="M12.5139669,0.928997161 L9.084,7.937 L1.41488117,9.06787192 C1.05364667,9.12111992 0.72036643,9.29263613 0.466633364,9.55535356 L0.361480553,9.67508108 C-0.163502088,10.3335227 -0.115345541,11.2964179 0.497388367,11.8982864 L6.049,17.352 L4.73946853,25.0593732 C4.67851015,25.4178084 4.73643979,25.7865158 4.90453078,26.1088603 L4.98053624,26.2399091 C5.44014231,26.9558257 6.37843913,27.2139064 7.14504514,26.807334 L13.9999996,23.171 L20.8548691,26.807334 C21.1782136,26.978821 21.5491537,27.038095 21.9097653,26.975721 L22.0495845,26.9453497 C22.8727727,26.7292282 23.405691,25.9134157 23.2604457,25.0593732 L21.95,17.352 L27.5025258,11.8982864 C27.7619477,11.6434648 27.9305066,11.3103472 27.9826814,10.950359 L27.997193,10.8080481 C28.0474667,9.95837119 27.4428443,9.19431814 26.585033,9.06787192 L18.915,7.937 L15.4859473,0.928997161 C15.325624,0.601442869 15.0620954,0.335677407 14.7357419,0.173218634 C13.9133026,-0.236191697 12.9176505,0.10423688 12.5139669,0.928997161 Z M14,2.442 L17.3513765,9.28960296 L17.4119289,9.3962384 C17.5673143,9.63455564 17.8184434,9.79723881 18.1037301,9.83929169 L25.617,10.946 L20.1755838,16.2918411 L20.0940485,16.3823119 C19.918003,16.6033513 19.8424796,16.8905907 19.8904923,17.1729056 L21.172,24.712 L14.4684947,21.1564279 L14.3561174,21.1054344 C14.0886179,21.0034475 13.7878192,21.0204453 13.5314195,21.1564279 L6.827,24.711 L8.10942188,17.1729056 L8.12250243,17.0518193 C8.1356888,16.769549 8.02862672,16.4925148 7.82433036,16.2918411 L2.382,10.946 L9.8961841,9.83929169 C10.2222261,9.79123126 10.5036539,9.58561289 10.6485377,9.28960296 L14,2.442 Z" id="Stroke-1"></path>
                    </g>
                </g>
            </g>
        </g>
    </g>
</svg>