<?xml version="1.0" encoding="UTF-8"?>
<svg width="32px" height="32px" viewBox="0 0 32 32" version="1.1" xmlns="http://www.w3.org/2000/svg" xmlns:xlink="http://www.w3.org/1999/xlink">
    <title>B97DC063-BD97-46A9-A1F4-4EF446CC875F</title>
    <g id="STDS_Icon" stroke="none" stroke-width="1" fill="none" fill-rule="evenodd">
        <g id="community" transform="translate(-364.000000, -7145.000000)" fill="#000000">
            <g id="ic_community_thumbnail_video_line" transform="translate(300.000000, 7105.000000)">
                <g id="ic/community/thumbnail_video/line" transform="translate(64.000000, 40.000000)">
                    <g id="ic_community_thumbnail_video_line" transform="translate(2.000000, 2.000000)">
                        <path d="M14,0 C21.7319865,0 28,6.2680135 28,14 C28,21.7319865 21.7319865,28 14,28 C6.2680135,28 0,21.7319865 0,14 C0,6.2680135 6.2680135,0 14,0 Z M14,2 C7.372583,2 2,7.372583 2,14 C2,20.627417 7.372583,26 14,26 C20.627417,26 26,20.627417 26,14 C26,7.372583 20.627417,2 14,2 Z M10.9723116,8 C11.1718028,8 11.3664661,8.06228549 11.5298956,8.17840753 L18.585189,13.1914236 C19.0251107,13.5040023 19.1320988,14.1193904 18.8241536,14.5659314 C18.7590584,14.6603238 18.6781822,14.742417 18.585189,14.8084917 L11.5298956,19.8215077 C11.089974,20.1340864 10.4837081,20.0254885 10.1757629,19.5789475 C10.0613622,19.4130589 10,19.2154666 10,19.0129737 L10,8.98694155 C10,8.44186878 10.4353187,8 10.9723116,8 Z" id="Shape"></path>
                    </g>
                </g>
            </g>
        </g>
    </g>
</svg>