<?xml version="1.0" encoding="UTF-8"?>
<svg width="32px" height="32px" viewBox="0 0 32 32" version="1.1" xmlns="http://www.w3.org/2000/svg" xmlns:xlink="http://www.w3.org/1999/xlink">
    <title>12BBE88D-BB3F-4A20-B7A4-0D1C75476ABF</title>
    <g id="STDS_Icon" stroke="none" stroke-width="1" fill="none" fill-rule="evenodd">
        <g id="community" transform="translate(-364.000000, -8225.000000)" fill="#000000">
            <g id="ic_community_sort_descending_line" transform="translate(300.000000, 8185.000000)">
                <g id="ic/community/sort_descending/line" transform="translate(64.000000, 40.000000)">
                    <g id="ic_community_sort_descending_line" transform="translate(5.000000, 7.000000)">
                        <path d="M18,6 C18.5128358,6 18.9355072,6.38604019 18.9932723,6.88337887 L19,7 L19,16.585 L22.2928932,13.2928932 C22.6533772,12.9324093 23.2206082,12.9046797 23.6128994,13.2097046 L23.7071068,13.2928932 C24.0675907,13.6533772 24.0953203,14.2206082 23.7902954,14.6128994 L23.7071068,14.7071068 L18.7071068,19.7071068 C18.3466228,20.0675907 17.7793918,20.0953203 17.3871006,19.7902954 L17.2928932,19.7071068 L12.2928932,14.7071068 C11.9023689,14.3165825 11.9023689,13.6834175 12.2928932,13.2928932 C12.6533772,12.9324093 13.2206082,12.9046797 13.6128994,13.2097046 L13.7071068,13.2928932 L17,16.585 L17,7 C17,6.44771525 17.4477153,6 18,6 Z M8,16 C8.55228475,16 9,16.4477153 9,17 C9,17.5128358 8.61395981,17.9355072 8.11662113,17.9932723 L8,18 L1,18 C0.44771525,18 0,17.5522847 0,17 C0,16.4871642 0.38604019,16.0644928 0.883378875,16.0067277 L1,16 L8,16 Z M10,8 C10.5522847,8 11,8.44771525 11,9 C11,9.51283584 10.6139598,9.93550716 10.1166211,9.99327227 L10,10 L1,10 C0.44771525,10 0,9.55228475 0,9 C0,8.48716416 0.38604019,8.06449284 0.883378875,8.00672773 L1,8 L10,8 Z M20,0 C20.5522847,0 21,0.44771525 21,1 C21,1.51283584 20.6139598,1.93550716 20.1166211,1.99327227 L20,2 L1,2 C0.44771525,2 0,1.55228475 0,1 C0,0.487164161 0.38604019,0.0644928393 0.883378875,0.00672773133 L1,0 L20,0 Z" id="Shape"></path>
                    </g>
                </g>
            </g>
        </g>
    </g>
</svg>