<?xml version="1.0" encoding="UTF-8"?>
<svg width="32px" height="32px" viewBox="0 0 32 32" version="1.1" xmlns="http://www.w3.org/2000/svg" xmlns:xlink="http://www.w3.org/1999/xlink">
    <title>97C2D3E0-B55C-4F8E-BB56-182EE88D4986</title>
    <g id="STDS_Icon" stroke="none" stroke-width="1" fill="none" fill-rule="evenodd">
        <g id="media" transform="translate(-364.000000, -485.000000)" fill="#000000">
            <g id="ic_media_av_fast_rewind_line" transform="translate(300.000000, 445.000000)">
                <g id="ic/media/av/fast_rewind/line" transform="translate(64.000000, 40.000000)">
                    <g id="ic_media_av_fast_rewind_line" transform="translate(3.000000, 8.000000)">
                        <path d="M12,1.00173994 L12,15.0017399 C12,15.8107629 11.0893151,16.2849161 10.4265377,15.8209719 L0.426537656,8.82097186 C-0.142179219,8.42287004 -0.142179219,7.58060983 0.426537656,7.18250801 L10.4265377,0.182508015 C11.0893151,-0.281436217 12,0.192716925 12,1.00173994 Z M25,1.00173994 L25,15.0017399 C25,15.8107629 24.0893151,16.2849161 23.4265377,15.8209719 L13.4265377,8.82097186 C12.8578208,8.42287004 12.8578208,7.58060983 13.4265377,7.18250801 L23.4265377,0.182508015 C24.0893151,-0.281436217 25,0.192716925 25,1.00173994 Z M10,2.92273994 L2.745,8.00173994 L10,13.0797399 L10,2.92273994 Z M23,2.92273994 L15.745,8.00173994 L23,13.0797399 L23,2.92273994 Z" id="Shape"></path>
                    </g>
                </g>
            </g>
        </g>
    </g>
</svg>