<?xml version="1.0" encoding="UTF-8"?>
<svg width="32px" height="32px" viewBox="0 0 32 32" version="1.1" xmlns="http://www.w3.org/2000/svg" xmlns:xlink="http://www.w3.org/1999/xlink">
    <title>884267A4-6B2A-4F25-8749-618131ED8FC1</title>
    <g id="STDS_Icon" stroke="none" stroke-width="1" fill="none" fill-rule="evenodd">
        <g id="media" transform="translate(-364.000000, -2825.000000)" fill="#000000">
            <g id="ic_media_av_volume_off_line" transform="translate(300.000000, 2785.000000)">
                <g id="ic/media/av/volume_off/line" transform="translate(64.000000, 40.000000)">
                    <g id="ic_media_av_volume_off_line" transform="translate(2.000000, 4.000000)">
                        <path d="M25.7071068,0.292893219 C26.0675907,0.65337718 26.0953203,1.22060824 25.7902954,1.61289944 L25.7071068,1.70710678 L17,10.4133186 L17,23 C17,23.7606623 16.1926118,24.2289853 15.5416503,23.8891511 L15.4452998,23.8320503 L8.327,19.0863186 L3.70710678,23.7071068 C3.31658249,24.0976311 2.68341751,24.0976311 2.29289322,23.7071068 C1.93240926,23.3466228 1.90467972,22.7793918 2.20970461,22.3871006 L2.29289322,22.2928932 L7.413,17.1713186 L7.43776673,17.1402052 C7.47792742,17.0937862 7.52169925,17.0518239 7.56837656,17.0144596 L24.2928932,0.292893219 C24.6834175,-0.0976310729 25.3165825,-0.0976310729 25.7071068,0.292893219 Z M14.999,12.4143186 L9.769,17.6443186 L15,21.131 L14.999,12.4143186 Z M24.7514972,5.84026372 C26.195019,7.48456104 27,9.69825877 27,12 C27,14.3017412 26.195019,16.515439 24.7514972,18.1597363 C24.3871349,18.5747767 23.7553042,18.6158595 23.3402637,18.2514972 C22.9252233,17.8871349 22.8841405,17.2553042 23.2485028,16.8402637 C24.366138,15.5671797 25,13.8240591 25,12 C25,10.1759409 24.366138,8.43282028 23.2485028,7.15973628 C22.8841405,6.74469584 22.9252233,6.11286509 23.3402637,5.7485028 C23.7553042,5.38414051 24.3871349,5.42522328 24.7514972,5.84026372 Z M16.9755287,0.77559155 L16.9940651,0.888157681 L17,1 L17,4.41363525 C17,4.96592 16.5522847,5.41363525 16,5.41363525 C15.4871642,5.41363525 15.0644928,5.02759506 15.0067277,4.53025638 L15,4.41363525 L15,2.868 L7.5547002,7.83205029 C7.42328618,7.91965964 7.27347846,7.97458184 7.11773033,7.99304635 L7,8 L3,8 C2.48716416,8 2.06449284,8.38604019 2.00672773,8.88337887 L2,9 L2,15 C2,15.5128358 2.38604019,15.9355072 2.88337887,15.9932723 L3,16 L3.37762451,16 C3.92990926,16 4.37762451,16.4477153 4.37762451,17 C4.37762451,17.5128358 3.99158432,17.9355072 3.49424564,17.9932723 L3.37762451,18 L3,18 C1.40231912,18 0.0963391206,16.75108 0.00509269341,15.1762728 L0,15 L0,9 C0,7.40231912 1.24891996,6.09633912 2.82372721,6.00509269 L3,6 L6.696,6 L15.4452998,0.167949706 C16.0448981,-0.231782463 16.8281419,0.116959648 16.9755287,0.77559155 Z M21.719341,8.80534285 C22.5405371,9.65571921 22.999999,10.8043765 22.999999,11.999999 C22.999999,13.1956235 22.5405371,14.3442808 21.719341,15.1946572 C21.3356924,15.5919382 20.7026239,15.6029895 20.3053428,15.219341 C19.9080618,14.8356924 19.8970105,14.2026239 20.280659,13.8053428 C20.7400414,13.3296369 20.999999,12.6797403 20.999999,11.999999 C20.999999,11.3202597 20.7400414,10.6703631 20.280659,10.1946572 C19.8970105,9.7973761 19.9080618,9.16430757 20.3053428,8.78065902 C20.7026239,8.39701047 21.3356924,8.4080618 21.719341,8.80534285 Z" id="Shape"></path>
                    </g>
                </g>
            </g>
        </g>
    </g>
</svg>