<?xml version="1.0" encoding="UTF-8"?>
<svg width="32px" height="32px" viewBox="0 0 32 32" version="1.1" xmlns="http://www.w3.org/2000/svg" xmlns:xlink="http://www.w3.org/1999/xlink">
    <title>380F2978-0C3C-4D05-9FE1-45D3F712288D</title>
    <g id="STDS_Icon" stroke="none" stroke-width="1" fill="none" fill-rule="evenodd">
        <g id="media" transform="translate(-364.000000, -4527.000000)" fill="#000000">
            <g id="ic_media_image_image_line" transform="translate(300.000000, 4487.000000)">
                <g id="ic/media/image/image/line" transform="translate(64.000000, 40.000000)">
                    <g id="ic_media_image_image_line" transform="translate(4.000000, 4.000000)">
                        <path d="M21,0 C22.5976809,0 23.9036609,1.24891996 23.9949073,2.82372721 L24,3 L24,21 C24,22.5976809 22.75108,23.9036609 21.1762728,23.9949073 L21,24 L3,24 C1.40231912,24 0.0963391206,22.75108 0.00509269341,21.1762728 L0,21 L0,3 C0,1.40231912 1.24891996,0.0963391206 2.82372721,0.00509269341 L3,0 L21,0 Z M15.505,11.41 L4.914,22 L21,22 C21.5128358,22 21.9355072,21.6139598 21.9932723,21.1166211 L22,21 L22,17.905 L15.505,11.41 Z M21,2 L3,2 C2.48716416,2 2.06449284,2.38604019 2.00672773,2.88337887 L2,3 L2,21 C2,21.2977912 2.13016655,21.5651803 2.33670677,21.7483745 L14.7978631,9.28792336 C15.158347,8.9274394 15.7255781,8.89970986 16.1178693,9.20473475 L16.2120766,9.28792336 L22,15.075 L22,3 C22,2.48716416 21.6139598,2.06449284 21.1166211,2.00672773 L21,2 Z M7.5,6 C8.32842712,6 9,6.67157288 9,7.5 C9,8.32842712 8.32842712,9 7.5,9 C6.67157288,9 6,8.32842712 6,7.5 C6,6.67157288 6.67157288,6 7.5,6 Z" id="Shape"></path>
                    </g>
                </g>
            </g>
        </g>
    </g>
</svg>