<?xml version="1.0" encoding="UTF-8"?>
<svg width="32px" height="32px" viewBox="0 0 32 32" version="1.1" xmlns="http://www.w3.org/2000/svg" xmlns:xlink="http://www.w3.org/1999/xlink">
    <title>E68EBA69-DC08-4DBF-A0AA-18575D36E426</title>
    <g id="STDS_Icon" stroke="none" stroke-width="1" fill="none" fill-rule="evenodd">
        <g id="media" transform="translate(-364.000000, -5427.000000)" fill="#000000">
            <g id="ic_media_image_camera_switch_line" transform="translate(300.000000, 5387.000000)">
                <g id="ic/media/image/camera_switch/line" transform="translate(64.000000, 40.000000)">
                    <g id="ic_media_image_camera_switch_line" transform="translate(3.000000, 4.000000)">
                        <path d="M15.8393549,0 C16.8486398,0 17.7853796,0.507004272 18.3386379,1.34056947 L18.4440844,1.51158318 L19.581,3.5 L23,3.5 C24.5385075,3.5 25.8065215,4.65812057 25.9798168,6.15013662 L25.9949073,6.32372721 L26,6.5 L26,21 C26,22.5976809 24.75108,23.9036609 23.1762728,23.9949073 L23,24 L3,24 C1.40231912,24 0.0963391206,22.75108 0.00509269341,21.1762728 L0,21 L0,6.5 C0,4.90231912 1.24891996,3.59633912 2.82372721,3.50509269 L3,3.5 L6.418,3.5 L7.55591564,1.51158318 C8.02327814,0.693698817 8.84275291,0.149806217 9.76153722,0.0266125102 L9.95984749,0.00670659226 L10.1606451,0 L15.8393549,0 Z M15.8393549,2 L10.1606451,2 C9.84166121,2 9.54441633,2.15192973 9.3572548,2.40452097 L9.29240193,2.50386106 L7.86824314,4.99613894 C7.70998283,5.27309449 7.43059612,5.45579706 7.11842739,5.49297843 L7,5.5 L3,5.5 C2.48716416,5.5 2.06449284,5.88604019 2.00672773,6.38337887 L2,6.5 L2,21 C2,21.5128358 2.38604019,21.9355072 2.88337887,21.9932723 L3,22 L23,22 C23.5128358,22 23.9355072,21.6139598 23.9932723,21.1166211 L24,21 L24,6.5 C24,5.98716416 23.6139598,5.56449284 23.1166211,5.50672773 L23,5.5 L19,5.5 C18.6810161,5.5 18.3837713,5.34807027 18.1966097,5.09547903 L18.1317569,4.99613894 L16.7075981,2.50386106 C16.5493378,2.22690551 16.2699511,2.04420294 15.9577823,2.00702157 L15.8393549,2 Z M7.58470721,10.4126792 L10.6498194,13.4782466 L9.15201895,14.0949097 C9.33201996,14.7297057 9.67187127,15.3287255 10.1715729,15.8284271 C11.6863338,17.343188 14.1137267,17.3890899 15.6837986,15.9661327 L15.8284271,15.8284271 L17.2426407,17.2426407 C14.8994949,19.5857864 11.1005051,19.5857864 8.75735931,17.2426407 C6.9100019,15.3952833 6.51911787,12.6429893 7.58470721,10.4126792 Z M17.2426407,8.75735931 C19.0897318,10.6044505 19.4807694,13.3562173 18.4157535,15.5863564 L15.3530808,12.5246537 L16.848808,11.9080109 C16.669022,11.2721318 16.328895,10.6720408 15.8284271,10.1715729 C14.3136662,8.65681199 11.8862733,8.61091014 10.3162014,10.0338673 L10.1715729,10.1715729 L8.75735931,8.75735931 C11.1005051,6.41421356 14.8994949,6.41421356 17.2426407,8.75735931 Z" id="Shape"></path>
                    </g>
                </g>
            </g>
        </g>
    </g>
</svg>