<?xml version="1.0" encoding="UTF-8"?>
<svg width="32px" height="32px" viewBox="0 0 32 32" version="1.1" xmlns="http://www.w3.org/2000/svg" xmlns:xlink="http://www.w3.org/1999/xlink">
    <title>A32D1927-B616-45E0-9828-A303417830EA</title>
    <g id="STDS_Icon" stroke="none" stroke-width="1" fill="none" fill-rule="evenodd">
        <g id="media" transform="translate(-364.000000, -3185.000000)" fill="#000000">
            <g id="ic_media_av_video_line" transform="translate(300.000000, 3145.000000)">
                <g id="ic/media/av/video/line" transform="translate(64.000000, 40.000000)">
                    <g id="ic_media_av_video_line" transform="translate(2.000000, 6.000000)">
                        <path d="M19,0 L3,0 C1.34314575,0 0,1.34314575 0,3 L0,17 C0,18.6568542 1.34314575,20 3,20 L19,20 L19.1762728,19.9949073 C20.75108,19.9036609 22,18.5976809 22,17 L22,14.618 L26.5527864,16.8944272 C27.2176875,17.2268777 28,16.743382 28,16 L28,4 L27.99363,3.88486468 C27.9179766,3.20798393 27.1826927,2.79061966 26.5527864,3.10557281 L22,5.381 L22,3 C22,1.34314575 20.6568542,0 19,0 Z M3,2 L19,2 C19.5522847,2 20,2.44771525 20,3 L20,7 L20.00637,7.11513532 C20.0820234,7.79201607 20.8173073,8.20938034 21.4472136,7.89442719 L26,5.618 L26,14.382 L21.4472136,12.1055728 C20.7823125,11.7731223 20,12.256618 20,13 L20,17 C20,17.5522847 19.5522847,18 19,18 L3,18 C2.44771525,18 2,17.5522847 2,17 L2,3 C2,2.44771525 2.44771525,2 3,2 Z" id="Rectangle"></path>
                    </g>
                </g>
            </g>
        </g>
    </g>
</svg>