<?xml version="1.0" encoding="UTF-8"?>
<svg width="32px" height="32px" viewBox="0 0 32 32" version="1.1" xmlns="http://www.w3.org/2000/svg" xmlns:xlink="http://www.w3.org/1999/xlink">
    <title>B6716D2B-230E-4715-B210-258B24DCC9B5</title>
    <g id="STDS_Icon" stroke="none" stroke-width="1" fill="none" fill-rule="evenodd">
        <g id="media" transform="translate(-364.000000, -4707.000000)" fill="#000000">
            <g id="ic_media_image_image_miss_line" transform="translate(300.000000, 4667.000000)">
                <g id="ic/media/image/image_miss/line" transform="translate(64.000000, 40.000000)">
                    <g id="ic_media_image_image_miss_line" transform="translate(3.000000, 3.000000)">
                        <path d="M25.7071068,0.292893219 C26.0675907,0.65337718 26.0953203,1.22060824 25.7902954,1.61289944 L25.7071068,1.70710678 L25,2.414 L25,22 C25,23.5976809 23.75108,24.9036609 22.1762728,24.9949073 L22,25 L2.414,25 L1.70710678,25.7071068 C1.31658249,26.0976311 0.683417511,26.0976311 0.292893219,25.7071068 C-0.0675907428,25.3466228 -0.0953202783,24.7793918 0.209704612,24.3871006 L0.292893219,24.2928932 L24.2928932,0.292893219 C24.6834175,-0.0976310729 25.3165825,-0.0976310729 25.7071068,0.292893219 Z M23,4.414 L4.414,23 L7.084,23 L17.7978631,12.2879234 C18.158347,11.9274394 18.7255781,11.8997099 19.1178693,12.2047348 L19.2120766,12.2879234 L23,16.075 L23,4.414 Z M18.505,14.41 L9.914,23 L22,23 C22.5128358,23 22.9355072,22.6139598 22.9932723,22.1166211 L23,22 L23,18.905 L18.505,14.41 Z M18.4,1 C18.9522847,1 19.4,1.44771525 19.4,2 C19.4,2.51283584 19.0139598,2.93550716 18.5166211,2.99327227 L18.4,3 L4,3 C3.48716416,3 3.06449284,3.38604019 3.00672773,3.88337887 L3,4 L3,18.4 C3,18.9522847 2.55228475,19.4 2,19.4 C1.48716416,19.4 1.06449284,19.0139598 1.00672773,18.5166211 L1,18.4 L1,4 C1,2.40231912 2.24891996,1.09633912 3.82372721,1.00509269 L4,1 L18.4,1 Z M8.5,7 C9.32842712,7 10,7.67157288 10,8.5 C10,9.32842712 9.32842712,10 8.5,10 C7.67157288,10 7,9.32842712 7,8.5 C7,7.67157288 7.67157288,7 8.5,7 Z" id="Shape"></path>
                    </g>
                </g>
            </g>
        </g>
    </g>
</svg>