<?xml version="1.0" encoding="UTF-8"?>
<svg width="32px" height="32px" viewBox="0 0 32 32" version="1.1" xmlns="http://www.w3.org/2000/svg" xmlns:xlink="http://www.w3.org/1999/xlink">
    <title>0636FC3A-6295-4B25-A4C5-FEC913A08431</title>
    <g id="STDS_Icon" stroke="none" stroke-width="1" fill="none" fill-rule="evenodd">
        <g id="media" transform="translate(-364.000000, -5607.000000)" fill="#000000">
            <g id="ic_media_image_gif_line" transform="translate(300.000000, 5567.000000)">
                <g id="ic/media/image/gif/line" transform="translate(64.000000, 40.000000)">
                    <g id="ic_media_image_gif_line" transform="translate(4.000000, 4.000000)">
                        <path d="M21,0 C22.5976809,0 23.9036609,1.24891996 23.9949073,2.82372721 L24,3 L24,21 C24,22.5976809 22.75108,23.9036609 21.1762728,23.9949073 L21,24 L3,24 C1.40231912,24 0.0963391206,22.75108 0.00509269341,21.1762728 L0,21 L0,3 C0,1.40231912 1.24891996,0.0963391206 2.82372721,0.00509269341 L3,0 L21,0 Z M21,2 L3,2 C2.48716416,2 2.06449284,2.38604019 2.00672773,2.88337887 L2,3 L2,21 C2,21.5128358 2.38604019,21.9355072 2.88337887,21.9932723 L3,22 L21,22 C21.5128358,22 21.9355072,21.6139598 21.9932723,21.1166211 L22,21 L22,3 C22,2.48716416 21.6139598,2.06449284 21.1166211,2.00672773 L21,2 Z M13.1428571,8 L13.1428571,16 L11.6190476,16 L11.6190476,8 L13.1428571,8 Z M10.0952381,8 L10.0952381,9.52380952 L7.04761905,9.52380952 C6.20647619,9.52380952 5.52380952,10.2064762 5.52380952,11.047619 L5.52380952,12.952381 C5.52380952,13.7935238 6.20647619,14.4761905 7.04761905,14.4761905 L8.57142857,14.4761905 L8.57142857,12.57 L7.04761905,12.57 L7.04761905,11.047619 L10.0952381,11.047619 L10.0952381,14.4761905 C10.0952381,15.3173333 9.41257143,16 8.57142857,16 L7.04761905,16 C5.36380952,16 4,14.6361905 4,12.952381 L4,11.047619 C4,9.36380952 5.36380952,8 7.04761905,8 L10.0952381,8 Z M19.2380952,8 L19.2380952,9.52380952 L16.1904762,9.52380952 L16.1904762,11.047619 L19.2380952,11.047619 L19.2380952,12.5714286 L16.1904762,12.5714286 L16.1904762,16 L14.6666667,16 L14.6666667,8 L19.2380952,8 Z" id="Shape"></path>
                    </g>
                </g>
            </g>
        </g>
    </g>
</svg>