<?xml version="1.0" encoding="UTF-8"?>
<svg width="32px" height="32px" viewBox="0 0 32 32" version="1.1" xmlns="http://www.w3.org/2000/svg" xmlns:xlink="http://www.w3.org/1999/xlink">
    <title>97E587DC-D407-45F1-B2DD-BC4C8F138BD6</title>
    <g id="STDS_Icon" stroke="none" stroke-width="1" fill="none" fill-rule="evenodd">
        <g id="logo" transform="translate(-784.000000, -845.000000)" fill="#000000">
            <g id="ic_logo_twitter_fill" transform="translate(720.000000, 805.000000)">
                <g id="ic/logo/twitter/fill" transform="translate(64.000000, 40.000000)">
                    <g id="ic_logo_twitter_fill" transform="translate(3.000000, 5.000000)">
                        <path d="M27,2.72278801 C26.0079239,3.18461538 24.9397781,3.4969303 23.8193344,3.63647526 C24.9635499,2.91881546 25.8415214,1.78085952 26.2551506,0.425279884 C25.1838352,1.0897797 24,1.57320332 22.7353407,1.83235825 C21.7274168,0.704369809 20.2868463,0 18.6925515,0 C15.6354992,0 13.155309,2.59985554 13.155309,5.80606717 C13.155309,6.26124955 13.2028526,6.70314193 13.2979398,7.12842181 C8.69413629,6.88587938 4.6133122,4.57674251 1.87955626,1.05987721 C1.40253566,1.92040448 1.12995246,2.91881546 1.12995246,3.98201517 C1.12995246,5.99544962 2.10776545,7.77298664 3.59429477,8.8145901 C2.68779715,8.78634886 1.83201268,8.52221018 1.08399366,8.0902853 L1.08399366,8.16171903 C1.08399366,10.9758758 2.99366086,13.3232214 5.52931854,13.8548212 C5.06497623,13.9910437 4.57527734,14.0591549 4.06973059,14.0591549 C3.71315372,14.0591549 3.36450079,14.0242687 3.02694136,13.9561575 C3.73217116,16.2619718 5.77654517,17.9414951 8.20126783,17.9863489 C6.30586371,19.5446009 3.91600634,20.4732394 1.32171157,20.4732394 C0.874801902,20.4732394 0.432646593,20.4466594 0,20.3934995 C2.45166403,22.0381365 5.36450079,23 8.49128368,23 C18.681458,23 24.251981,14.1538462 24.251981,6.48053449 C24.251981,6.22802456 24.2472266,5.97551463 24.2377179,5.72798844 C25.3201268,4.90899242 26.2599049,3.88732394 27,2.72278801" id="Twitter"></path>
                    </g>
                </g>
            </g>
        </g>
    </g>
</svg>