<?xml version="1.0" encoding="UTF-8"?>
<svg width="32px" height="32px" viewBox="0 0 32 32" version="1.1" xmlns="http://www.w3.org/2000/svg" xmlns:xlink="http://www.w3.org/1999/xlink">
    <title>63BA223B-E07F-48FF-A8E6-33ECC260C836</title>
    <g id="STDS_Icon" stroke="none" stroke-width="1" fill="none" fill-rule="evenodd">
        <g id="logo" transform="translate(-784.000000, -1205.000000)" fill="#000000">
            <g id="ic_logo_google_fill" transform="translate(720.000000, 1165.000000)">
                <g id="ic/logo/google/fill" transform="translate(64.000000, 40.000000)">
                    <g id="ic_logo_google_fill" transform="translate(3.000000, 3.000000)">
                        <path d="M5.77846909,2.19096942 C10.8429075,-1.19295876 17.5623945,-0.60048648 21.9552679,3.57623096 L22.1925479,3.80760418 L19.3641303,6.63604084 C16.3282374,3.60016838 11.5705738,3.13158296 8.0007403,5.51685436 C4.43091338,7.90212137 3.04315965,12.4769038 4.6861687,16.4434518 C6.32918006,20.4100054 10.5453632,22.6635873 14.7562702,21.825991 C18.2504243,21.1309649 20.9334168,18.4681475 21.745542,15.1287918 L21.775,14.999 L13.0005645,14.9995476 L13.0005645,10.9995476 L26,10.9995476 L26,12.9995476 C26,19.201213 21.6191583,24.5392498 15.5366268,25.749133 C9.45409848,26.9590156 3.36394283,23.7037814 0.99065421,17.9741944 C-1.38263673,12.2446018 0.621943353,5.63642797 5.77846909,2.19096942 Z" id="Path"></path>
                    </g>
                </g>
            </g>
        </g>
    </g>
</svg>