<?xml version="1.0" encoding="UTF-8"?>
<svg width="32px" height="32px" viewBox="0 0 32 32" version="1.1" xmlns="http://www.w3.org/2000/svg" xmlns:xlink="http://www.w3.org/1999/xlink">
    <title>0DA6F20A-3334-4A63-91BD-1345951B22E6</title>
    <g id="STDS_Icon" stroke="none" stroke-width="1" fill="none" fill-rule="evenodd">
        <g id="logo" transform="translate(-784.000000, -485.000000)" fill="#000000">
            <g id="ic_logo_apple_fill" transform="translate(720.000000, 445.000000)">
                <g id="ic/logo/apple/fill" transform="translate(64.000000, 40.000000)">
                    <g id="ic_logo_apple_fill" transform="translate(5.000000, 2.000000)">
                        <path d="M16.3591548,6.5151771 L16.6635705,6.54074853 C16.7022039,6.54469122 16.7423491,6.54907091 16.7839145,6.55395744 L17.0496177,6.58991762 L17.0496177,6.58991762 L17.3450156,6.64139514 L17.3450156,6.64139514 L17.6657179,6.71174299 C18.7720207,6.9814119 20.2268846,7.62146943 21.2985477,9.19074754 L21.142066,9.2866755 L21.142066,9.2866755 L20.9047498,9.45053391 C20.873748,9.4731599 20.841356,9.49726516 20.8077277,9.52285579 L20.5923565,9.69427288 C19.7193543,10.4200731 18.3554596,11.9380919 18.37583,14.3225794 C18.4036315,16.918628 19.8359718,18.4152003 20.8914846,19.1665034 L21.1275645,19.3268127 L21.1275645,19.3268127 L21.3454009,19.46163 L21.3454009,19.46163 L21.6273072,19.6181747 L21.6273072,19.6181747 L21.8939245,19.7467077 L21.8939245,19.7467077 L22,19.7906851 L22,19.7906851 L21.9083083,20.0796072 L21.9083083,20.0796072 L21.8050352,20.3728032 L21.8050352,20.3728032 L21.6610329,20.7486117 L21.6610329,20.7486117 L21.5414987,21.0389191 L21.5414987,21.0389191 L21.4025045,21.3567521 L21.4025045,21.3567521 L21.2435071,21.6984341 C21.2153105,21.7571643 21.1862577,21.816735 21.1563375,21.8770696 L20.9663169,22.2476318 C20.9328818,22.3107158 20.8985567,22.3744106 20.8633302,22.4386394 L20.6410641,22.8298099 C20.5244323,23.0279872 20.3994845,23.2295933 20.2659152,23.4325601 L19.8582381,24.0313179 L19.8582381,24.0313179 L19.5834016,24.4212749 C18.6128975,25.7708628 17.5405173,26.9302182 15.9938151,26.9547808 C15.2476625,26.9728416 14.7096397,26.7950672 14.1910016,26.5796714 L13.5200049,26.2944581 C12.9833147,26.0758751 12.3851184,25.8874768 11.5366706,25.8874768 C10.560139,25.8874768 9.90075774,26.1173592 9.29810561,26.3683824 L8.85268414,26.5573522 C8.33594075,26.774831 7.81278439,26.9685414 7.10875327,26.9986426 C5.80589565,27.0413798 4.73715809,26.0691097 3.8112938,24.9034476 L3.52355843,24.5298735 L3.52355843,24.5298735 L3.244683,24.1491922 L3.244683,24.1491922 L2.84158542,23.5774214 L2.84158542,23.5774214 C0.51802484,20.2146826 -1.25021937,14.1032703 1.13179556,9.96563953 C2.31549623,7.90413443 4.41985298,6.60290072 6.71418638,6.57365951 C7.47500634,6.55446997 8.2190435,6.77594927 8.90469052,7.03118517 L10.0151235,7.46319259 C10.4475016,7.62480095 10.8379584,7.74330779 11.1713309,7.74330779 C11.4719533,7.74330779 11.8405736,7.62873 12.2662849,7.46913951 L13.1905971,7.11055346 C14.1017365,6.7646225 15.1803253,6.42327616 16.3591548,6.5151771 Z M15.9731676,0 C16.1334623,1.51860954 15.5590729,3.05128028 14.6908099,4.14805384 C13.8225469,5.24482739 12.4066103,6.10256056 11.0307474,5.99007096 C10.8437369,4.49958382 11.5383473,2.93879068 12.3398208,1.96856792 C13.2347996,0.871794366 14.7308836,0.0562447978 15.9731676,0 Z" id="Shape"></path>
                    </g>
                </g>
            </g>
        </g>
    </g>
</svg>