<?xml version="1.0" encoding="UTF-8"?>
<svg width="32px" height="32px" viewBox="0 0 32 32" version="1.1" xmlns="http://www.w3.org/2000/svg" xmlns:xlink="http://www.w3.org/1999/xlink">
    <title>F3599E37-B9AD-474C-B2D4-EEB457F8890C</title>
    <g id="STDS_Icon" stroke="none" stroke-width="1" fill="none" fill-rule="evenodd">
        <g id="media" transform="translate(-784.000000, -3545.000000)" fill="#000000">
            <g id="ic_media_av_video_file_fill" transform="translate(720.000000, 3505.000000)">
                <g id="ic/media/av/video_file/fill" transform="translate(64.000000, 40.000000)">
                    <g id="ic_media_av_video_file_fill" transform="translate(2.000000, 6.000000)">
                        <path d="M19,0 C20.5976809,0 21.9036609,1.24891996 21.9949073,2.82372721 L22,3 L22,5.381 L26.5527864,3.10557281 C27.1456394,2.80914632 27.8318372,3.16141622 27.9735877,3.76820531 L27.99363,3.88486468 L28,4 L28,16 C28,16.7042567 27.2978691,17.1752635 26.6586153,16.9402197 L26.5527864,16.8944272 L22,14.618 L22,17 C22,18.5385075 20.8418794,19.8065215 19.3498634,19.9798168 L19.1762728,19.9949073 L19,20 L3,20 C1.40231912,20 0.0963391206,18.75108 0.00509269341,17.1762728 L0,17 L0,3 C0,1.40231912 1.24891996,0.0963391206 2.82372721,0.00509269341 L3,0 L19,0 Z M8.5,6 L8.5,14 C8.5,14.3993477 8.94507273,14.6375434 9.2773501,14.4160251 L15.2773501,10.4160251 C15.5742166,10.2181141 15.5742166,9.78188588 15.2773501,9.58397485 L9.2773501,5.58397485 C8.94507273,5.36245661 8.5,5.60065231 8.5,6 Z" id="Shape"></path>
                    </g>
                </g>
            </g>
        </g>
    </g>
</svg>