<?xml version="1.0" encoding="UTF-8"?>
<svg width="32px" height="32px" viewBox="0 0 32 32" version="1.1" xmlns="http://www.w3.org/2000/svg" xmlns:xlink="http://www.w3.org/1999/xlink">
    <title>BB21EBCF-6AB8-4320-8A18-21561AF0ECA8</title>
    <g id="STDS_Icon" stroke="none" stroke-width="1" fill="none" fill-rule="evenodd">
        <g id="media" transform="translate(-784.000000, -4265.000000)" fill="#000000">
            <g id="ic_media_av_pip_off_fill" transform="translate(720.000000, 4225.000000)">
                <g id="ic/media/av/pip_off_fill" transform="translate(64.000000, 40.000000)">
                    <g id="ic_media_av_pip_off_fill" transform="translate(3.000000, 4.000000)">
                        <path d="M26,16 C26.5522847,16 27,16.4477153 27,17 L27,23 C27,23.5522847 26.5522847,24 26,24 L18,24 C17.4477153,24 17,23.5522847 17,23 L17,17 C17,16.4477153 17.4477153,16 18,16 L26,16 Z M23,0 C24.6568542,0 26,1.34314575 26,3 L26,14 L17,14 C15.9456382,14 15.0818349,14.8158778 15.0054857,15.8507377 L15,16 L15,22 L3,22 C1.34314575,22 0,20.6568542 0,19 L0,3 C0,1.34314575 1.34314575,0 3,0 L23,0 Z M11.5,4.5 L5.5,4.5 L5.38337887,4.50672773 C4.92429701,4.56004937 4.56004937,4.92429701 4.50672773,5.38337887 L4.5,5.5 L4.5,11.5 L4.50672773,11.6166211 C4.56004937,12.075703 4.92429701,12.4399506 5.38337887,12.4932723 L5.5,12.5 L5.61662113,12.4932723 C6.07570299,12.4399506 6.43995063,12.075703 6.49327227,11.6166211 L6.5,11.5 L6.5,7.915 L11.2928932,12.7071068 L11.3871006,12.7902954 C11.7793918,13.0953203 12.3466228,13.0675907 12.7071068,12.7071068 C13.0675907,12.3466228 13.0953203,11.7793918 12.7902954,11.3871006 L12.7071068,11.2928932 L7.915,6.5 L11.5,6.5 L11.6166211,6.49327227 C12.1139598,6.43550716 12.5,6.01283584 12.5,5.5 C12.5,4.94771525 12.0522847,4.5 11.5,4.5 Z" id="Shape"></path>
                    </g>
                </g>
            </g>
        </g>
    </g>
</svg>