<?xml version="1.0" encoding="UTF-8"?>
<svg width="32px" height="32px" viewBox="0 0 32 32" version="1.1" xmlns="http://www.w3.org/2000/svg" xmlns:xlink="http://www.w3.org/1999/xlink">
    <title>08B87C5F-F8F6-426E-9690-7F13AD2F3903</title>
    <g id="STDS_Icon" stroke="none" stroke-width="1" fill="none" fill-rule="evenodd">
        <g id="media" transform="translate(-784.000000, -1565.000000)" fill="#000000">
            <g id="ic_media_av_pause_fill" transform="translate(720.000000, 1525.000000)">
                <g id="ic/media/av/pause/fill" transform="translate(64.000000, 40.000000)">
                    <g id="ic_media_av_pause_fill" transform="translate(7.000000, 6.000000)">
                        <path d="M5,0 C6.1045695,0 7,0.8954305 7,2 L7,18 C7,19.1045695 6.1045695,20 5,20 L2,20 C0.8954305,20 0,19.1045695 0,18 L0,2 C0,0.8954305 0.8954305,0 2,0 L5,0 Z M16,0 C17.1045695,0 18,0.8954305 18,2 L18,18 C18,19.1045695 17.1045695,20 16,20 L13,20 C11.8954305,20 11,19.1045695 11,18 L11,2 C11,0.8954305 11.8954305,0 13,0 L16,0 Z" id="Shape"></path>
                    </g>
                </g>
            </g>
        </g>
    </g>
</svg>