<?xml version="1.0" encoding="UTF-8"?>
<svg width="32px" height="32px" viewBox="0 0 32 32" version="1.1" xmlns="http://www.w3.org/2000/svg" xmlns:xlink="http://www.w3.org/1999/xlink">
    <title>4762BF9E-BCB0-4918-A702-FA71086128A6</title>
    <g id="STDS_Icon" stroke="none" stroke-width="1" fill="none" fill-rule="evenodd">
        <g id="media" transform="translate(-784.000000, -3365.000000)" fill="#000000">
            <g id="ic_media_av_video_off_fill" transform="translate(720.000000, 3325.000000)">
                <g id="ic/media/av/video_off/fill" transform="translate(64.000000, 40.000000)">
                    <g id="ic_media_av_video_off_fill" transform="translate(2.000000, 4.000000)">
                        <path d="M25.7071068,0.292893219 C26.0675907,0.65337718 26.0953203,1.22060824 25.7902954,1.61289944 L25.7071068,1.70710678 L22,5.414 L22,7.381 L26.5527864,5.10557281 C27.1456394,4.80914632 27.8318372,5.16141622 27.9735877,5.76820531 L27.99363,5.88486468 L28,6 L28,18 C28,18.7042567 27.2978691,19.1752635 26.6586153,18.9402197 L26.5527864,18.8944272 L22,16.618 L22,19 C22,20.5385075 20.8418794,21.8065215 19.3498634,21.9798168 L19.1762728,21.9949073 L19,22 L5.414,22 L3.70710678,23.7071068 C3.31658249,24.0976311 2.68341751,24.0976311 2.29289322,23.7071068 C1.93240926,23.3466228 1.90467972,22.7793918 2.20970461,22.3871006 L2.29289322,22.2928932 L24.2928932,0.292893219 C24.6834175,-0.0976310729 25.3165825,-0.0976310729 25.7071068,0.292893219 Z M19,2 C19.2421057,2 19.477513,2.02867903 19.7030101,2.08282518 L0.77473972,21.012053 C0.337025397,20.5282563 0.0548745373,19.9010585 0.00719185474,19.2093642 L0,19 L0,5 C0,3.40231912 1.24891996,2.09633912 2.82372721,2.00509269 L3,2 L19,2 Z" id="Combined-Shape"></path>
                    </g>
                </g>
            </g>
        </g>
    </g>
</svg>