<?xml version="1.0" encoding="UTF-8"?>
<svg width="32px" height="32px" viewBox="0 0 32 32" version="1.1" xmlns="http://www.w3.org/2000/svg" xmlns:xlink="http://www.w3.org/1999/xlink">
    <title>1952A4E0-5F7F-45E7-8150-614203F689E6</title>
    <g id="STDS_Icon" stroke="none" stroke-width="1" fill="none" fill-rule="evenodd">
        <g id="media" transform="translate(-784.000000, -5607.000000)" fill="#000000">
            <g id="ic_media_image_gif_fill" transform="translate(720.000000, 5567.000000)">
                <g id="ic/media/image/gif/fill" transform="translate(64.000000, 40.000000)">
                    <g id="ic_media_image_gif_fill" transform="translate(4.000000, 4.000000)">
                        <path d="M21,0 C22.6568542,0 24,1.34314575 24,3 L24,21 C24,22.6568542 22.6568542,24 21,24 L3,24 C1.34314575,24 0,22.6568542 0,21 L0,3 C0,1.34314575 1.34314575,0 3,0 L21,0 Z M13.1428571,8 L11.6190476,8 L11.6190476,16 L13.1428571,16 L13.1428571,8 Z M10.0952381,8 L7.04761905,8 C5.42394558,8 4.09782313,9.26813411 4.00517111,10.8684829 L4,11.047619 L4,12.952381 C4,14.5760544 5.26813411,15.9021769 6.86848292,15.9948289 L7.04761905,16 L8.57142857,16 C9.36584127,16 10.0188971,15.3910782 10.089007,14.6148237 L10.0952381,14.4761905 L10.0952381,11.047619 L7.04761905,11.047619 L7.04761905,12.57 L8.57142857,12.57 L8.57142857,14.4761905 L7.04761905,14.4761905 C6.25320635,14.4761905 5.6001505,13.8672687 5.53004063,13.0910142 L5.52380952,12.952381 L5.52380952,11.047619 C5.52380952,10.2532063 6.13273133,9.6001505 6.90898583,9.53004063 L7.04761905,9.52380952 L10.0952381,9.52380952 L10.0952381,8 Z M19.2380952,8 L14.6666667,8 L14.6666667,16 L16.1904762,16 L16.1904762,12.5714286 L19.2380952,12.5714286 L19.2380952,11.047619 L16.1904762,11.047619 L16.1904762,9.52380952 L19.2380952,9.52380952 L19.2380952,8 Z" id="Shape"></path>
                    </g>
                </g>
            </g>
        </g>
    </g>
</svg>