<?xml version="1.0" encoding="UTF-8"?>
<svg width="32px" height="32px" viewBox="0 0 32 32" version="1.1" xmlns="http://www.w3.org/2000/svg" xmlns:xlink="http://www.w3.org/1999/xlink">
    <title>A369A4C4-ED0E-4C14-8199-2DFDF2EF8C51</title>
    <g id="STDS_Icon" stroke="none" stroke-width="1" fill="none" fill-rule="evenodd">
        <g id="media" transform="translate(-784.000000, -1745.000000)" fill="#000000">
            <g id="ic_media_av_pause_circle_fill" transform="translate(720.000000, 1705.000000)">
                <g id="ic/media/av/pause_circle/fill" transform="translate(64.000000, 40.000000)">
                    <g id="ic_media_av_pause_circle_fill" transform="translate(2.000000, 2.000000)">
                        <path d="M14,0 C21.7319865,0 28,6.2680135 28,14 C28,21.7319865 21.7319865,28 14,28 C6.2680135,28 0,21.7319865 0,14 C0,6.2680135 6.2680135,0 14,0 Z M12,8 L10,8 C9.48716416,8 9.06449284,8.38604019 9.00672773,8.88337887 L9,9 L9,19 C9,19.5128358 9.38604019,19.9355072 9.88337887,19.9932723 L10,20 L12,20 C12.5128358,20 12.9355072,19.6139598 12.9932723,19.1166211 L13,19 L13,9 C13,8.48716416 12.6139598,8.06449284 12.1166211,8.00672773 L12,8 Z M18,8 L16,8 C15.4871642,8 15.0644928,8.38604019 15.0067277,8.88337887 L15,9 L15,19 C15,19.5128358 15.3860402,19.9355072 15.8833789,19.9932723 L16,20 L18,20 C18.5128358,20 18.9355072,19.6139598 18.9932723,19.1166211 L19,19 L19,9 C19,8.48716416 18.6139598,8.06449284 18.1166211,8.00672773 L18,8 Z" id="Shape"></path>
                    </g>
                </g>
            </g>
        </g>
    </g>
</svg>