<?xml version="1.0" encoding="UTF-8"?>
<svg width="32px" height="32px" viewBox="0 0 32 32" version="1.1" xmlns="http://www.w3.org/2000/svg" xmlns:xlink="http://www.w3.org/1999/xlink">
    <title>89F18A4B-3800-423D-A910-C916DC12D553</title>
    <g id="STDS_Icon" stroke="none" stroke-width="1" fill="none" fill-rule="evenodd">
        <g id="media" transform="translate(-784.000000, -3185.000000)" fill="#000000">
            <g id="ic_media_av_video_fill" transform="translate(720.000000, 3145.000000)">
                <g id="ic/media/av/video/fill" transform="translate(64.000000, 40.000000)">
                    <g id="ic_media_av_video_fill" transform="translate(2.000000, 6.000000)">
                        <path d="M19,0 L3,0 C1.34314575,0 0,1.34314575 0,3 L0,17 C0,18.6568542 1.34314575,20 3,20 L19,20 L19.1762728,19.9949073 C20.75108,19.9036609 22,18.5976809 22,17 L22,14.618 L26.5527864,16.8944272 C27.2176875,17.2268777 28,16.743382 28,16 L28,4 L27.99363,3.88486468 C27.9179766,3.20798393 27.1826927,2.79061966 26.5527864,3.10557281 L22,5.381 L22,3 C22,1.34314575 20.6568542,0 19,0 Z" id="Path"></path>
                    </g>
                </g>
            </g>
        </g>
    </g>
</svg>