<?xml version="1.0" encoding="UTF-8"?>
<svg width="32px" height="32px" viewBox="0 0 32 32" version="1.1" xmlns="http://www.w3.org/2000/svg" xmlns:xlink="http://www.w3.org/1999/xlink">
    <title>7C3364DD-E67B-441F-A233-AD70BB41186B</title>
    <g id="STDS_Icon" stroke="none" stroke-width="1" fill="none" fill-rule="evenodd">
        <g id="media" transform="translate(-784.000000, -4887.000000)" fill="#000000">
            <g id="ic_media_image_image_library_fill" transform="translate(720.000000, 4847.000000)">
                <g id="ic/media/image/image_library/fill" transform="translate(64.000000, 40.000000)">
                    <g id="ic_media_image_image_library_fill" transform="translate(4.000000, 4.000000)">
                        <path d="M1,4 C1.51283584,4 1.93550716,4.38604019 1.99327227,4.88337887 L2,5 L2,18 C2,20.1421954 3.68396847,21.8910789 5.80035966,21.9951047 L6,22 L19,22 C19.5522847,22 20,22.4477153 20,23 C20,23.5128358 19.6139598,23.9355072 19.1166211,23.9932723 L19,24 L6,24 C2.76160306,24 0.122428238,21.4344251 0.00413847206,18.2249383 L0,18 L0,5 C0,4.44771525 0.44771525,4 1,4 Z M15.505,11.41 L23.1682918,19.0732918 C22.6221104,19.6443404 21.8525896,20 21,20 L7,20 L6.917,19.997 L15.505,11.41 Z M21,0 C22.6568542,0 24,1.34314575 24,3 L24,17 L23.998,17.073 L16.2120766,9.28792336 L16.1178693,9.20473475 C15.758269,8.9251286 15.2516707,8.9251286 14.8920704,9.20473475 L14.7978631,9.28792336 L4.92175943,19.1635477 C4.35360558,18.617659 4,17.850124 4,17 L4,3 C4,1.34314575 5.34314575,0 7,0 L21,0 Z M10.5,6 C9.67157288,6 9,6.67157288 9,7.5 C9,8.32842712 9.67157288,9 10.5,9 C11.3284271,9 12,8.32842712 12,7.5 C12,6.67157288 11.3284271,6 10.5,6 Z" id="Shape"></path>
                    </g>
                </g>
            </g>
        </g>
    </g>
</svg>