<?xml version="1.0" encoding="UTF-8"?>
<svg width="32px" height="32px" viewBox="0 0 32 32" version="1.1" xmlns="http://www.w3.org/2000/svg" xmlns:xlink="http://www.w3.org/1999/xlink">
    <title>168E8EAB-F36F-41E1-B4B1-412E560D2EDB</title>
    <g id="STDS_Icon" stroke="none" stroke-width="1" fill="none" fill-rule="evenodd">
        <g id="media" transform="translate(-784.000000, -2105.000000)" fill="#000000">
            <g id="ic_media_av_sound_off_fill" transform="translate(720.000000, 2065.000000)">
                <g id="ic/media/av/sound_off/fill" transform="translate(64.000000, 40.000000)">
                    <g id="ic_media_av_sound_off_fill" transform="translate(3.000000, 3.000000)">
                        <path d="M24.7071068,1.29289322 C25.0675907,1.65337718 25.0953203,2.22060824 24.7902954,2.61289944 L24.7071068,2.70710678 L22.8401677,4.5764431 C24.7826788,6.85955697 25.9104591,9.75591816 25.9948907,12.8356403 L25.997,13 L26,13 L26,21 C26,22.6568542 24.6568542,24 23,24 L21,24 C19.3431458,24 18,22.6568542 18,21 L18,16 C18,14.3431458 19.3431458,13 21,13 L23.996,13 L23.9945602,12.8532644 C23.91639,10.302222 22.9985156,7.90538869 21.4201987,5.99564368 L2.70710678,24.7071068 C2.31658249,25.0976311 1.68341751,25.0976311 1.29289322,24.7071068 C0.932409257,24.3466228 0.904679722,23.7793918 1.20970461,23.3871006 L1.29289322,23.2928932 L23.2928932,1.29289322 C23.6834175,0.902368927 24.3165825,0.902368927 24.7071068,1.29289322 Z M13,0 C14.955826,0 16.8520945,0.439841833 18.5808829,1.27591205 C19.0780768,1.5163631 19.2862079,2.11434246 19.0457569,2.61153632 C18.8053058,3.10873018 18.2073265,3.31686135 17.7101326,3.0764103 C16.2512026,2.37084799 14.6523839,2 13,2 C7.1215015,2 2.31408878,6.70115535 2.01478064,12.62246 L2.001,12.999 L5,13 C6.02927103,13 6.93747746,13.5183392 7.47782438,14.3082226 L0.0828251848,21.7030101 C0.0286790277,21.477513 1.13686838e-13,21.2421057 1.13686838e-13,21 L1.13686838e-13,13 L0.002,12.999 L0.0035480911,12.8970725 C0.166461938,5.74969159 5.91902499,0 13,0 Z" id="Shape"></path>
                    </g>
                </g>
            </g>
        </g>
    </g>
</svg>