<?xml version="1.0" encoding="UTF-8"?>
<svg width="32px" height="32px" viewBox="0 0 32 32" version="1.1" xmlns="http://www.w3.org/2000/svg" xmlns:xlink="http://www.w3.org/1999/xlink">
    <title>6831AC27-EBC0-4F60-B47A-9502B58B3D70</title>
    <g id="STDS_Icon" stroke="none" stroke-width="1" fill="none" fill-rule="evenodd">
        <g id="media" transform="translate(-784.000000, -3005.000000)" fill="#000000">
            <g id="ic_media_av_volume_auto_fill" transform="translate(720.000000, 2965.000000)">
                <g id="ic/media/av/volume_auto/fill" transform="translate(64.000000, 40.000000)">
                    <g id="ic_media_av_volume_auto_fill" transform="translate(2.000000, 4.000000)">
                        <path d="M15.4452998,0.167949706 C16.0782091,-0.253989805 16.9157358,0.158018877 16.9940651,0.888157681 L17,1 L17,23 C17,23.7606623 16.1926118,24.2289853 15.5416503,23.8891511 L15.4452998,23.8320503 L6.697,18 L3,18 C1.46149248,18 0.193478518,16.8418794 0.020183194,15.3498634 L0.00509269341,15.1762728 L0,15 L0,9 C0,7.40231912 1.24891996,6.09633912 2.82372721,6.00509269 L3,6 L6.696,6 L15.4452998,0.167949706 Z M26,7 C27.0543618,7 27.9181651,7.81587779 27.9945143,8.85073766 L28,9 L28,16 C28,16.5128358 27.6139598,16.9355072 27.1166211,16.9932723 L27,17 L22,17 C20.9456382,17 20.0818349,16.1841222 20.0054857,15.1492623 L20,15 L20,13 C20,11.9456382 20.8158778,11.0818349 21.8507377,11.0054857 L22,11 L26,11 L26,9 L22,9 C21.4477153,9 21,8.55228475 21,8 C21,7.48716416 21.3860402,7.06449284 21.8833789,7.00672773 L22,7 L26,7 Z M26,13 L22,13 L22,15 L26,15 L26,13 Z" id="Shape"></path>
                    </g>
                </g>
            </g>
        </g>
    </g>
</svg>