<?xml version="1.0" encoding="UTF-8"?>
<svg width="32px" height="32px" viewBox="0 0 32 32" version="1.1" xmlns="http://www.w3.org/2000/svg" xmlns:xlink="http://www.w3.org/1999/xlink">
    <title>D79722E7-2817-4755-BF01-60EFC4F27901</title>
    <g id="STDS_Icon" stroke="none" stroke-width="1" fill="none" fill-rule="evenodd">
        <g id="media" transform="translate(-784.000000, -1925.000000)" fill="#000000">
            <g id="ic_media_av_sound_fill" transform="translate(720.000000, 1885.000000)">
                <g id="ic/media/av/sound/fill" transform="translate(64.000000, 40.000000)">
                    <g id="ic_media_av_sound_fill" transform="translate(3.000000, 3.000000)">
                        <path d="M26,21 C26,22.6568542 24.6568542,24 23,24 L21,24 C19.3431458,24 18,22.6568542 18,21 L18,16 C18,14.3431458 19.3431458,13 21,13 L23.997,13 L23.9962897,12.9146401 C23.8432435,6.856555 18.9748673,2 13,2 C7.02513267,2 2.15675654,6.856555 2.0037103,12.9146401 L2.002,13 L5,13 C6.65685425,13 8,14.3431458 8,16 L8,21 C8,22.6568542 6.65685425,24 5,24 L3,24 C1.34314575,24 0,22.6568542 0,21 L0,13 L0.002,13 L0.0035480911,12.8970725 C0.166461938,5.74969159 5.91902499,0 13,0 C20.080975,0 25.8335381,5.74969159 25.9964519,12.8970725 L25.997,13 L26,13 L26,21 Z" id="Path"></path>
                    </g>
                </g>
            </g>
        </g>
    </g>
</svg>