<svg xmlns="http://www.w3.org/2000/svg" xmlns:xlink="http://www.w3.org/1999/xlink" width="20" height="20" viewBox="0 0 20 20">
    <defs>
        <path id="a" d="M14.868 10.444c.001 1.563.962 2.975 2.44 3.584a8.84 8.84 0 0 1-1.27 2.52c-.747 1.09-1.53 2.154-2.775 2.174-1.208.027-1.615-.694-3.001-.694-1.4 0-1.833.674-2.992.72-1.185.044-2.09-1.162-2.865-2.242C2.857 14.3 1.651 10.29 3.268 7.564c.759-1.33 2.178-2.174 3.738-2.223 1.186-.024 2.287.78 3.016.78.715 0 2.076-.962 3.48-.818 1.334.04 2.57.692 3.335 1.758a4.012 4.012 0 0 0-1.97 3.383zm-2.64-6.387C11.5 4.845 10.4 5.3 9.24 5.288c-.074-.987.306-1.96 1.055-2.703.76-.754 1.817-1.23 2.961-1.335.09 1.017-.28 2.024-1.029 2.807z"/>
    </defs>
    <g fill="none" fill-rule="evenodd">
        <path d="M0 0h20v20H0z"/>
        <mask id="b" fill="#fff">
            <use xlink:href="#a"/>
        </mask>
        <use fill="#fff" fill-rule="nonzero" xlink:href="#a"/>
        <g fill="#fff" mask="url(#b)">
            <path d="M0 0h20v20H0z"/>
        </g>
    </g>
</svg>
