<svg xmlns="http://www.w3.org/2000/svg" xmlns:xlink="http://www.w3.org/1999/xlink" width="24" height="24" viewBox="0 0 24 24">
    <defs>
        <path id="a" d="M4.19 11a1.5 1.5 0 0 0 3 0zm1.5-10a3.786 3.786 0 0 0-3.785 3.786v2.987a.5.5 0 0 1-.077.266l-.751 1.195A.5.5 0 0 0 1.5 10h8.38a.5.5 0 0 0 .424-.766l-.751-1.195a.5.5 0 0 1-.077-.266V4.786A3.786 3.786 0 0 0 5.69 1zm2.5 10a2.5 2.5 0 1 1-5 0H1.5A1.5 1.5 0 0 1 .23 8.702l.675-1.073V4.786a4.786 4.786 0 1 1 9.571 0v2.843l.675 1.073A1.5 1.5 0 0 1 9.88 11z"/>
    </defs>
    <g fill="none" fill-rule="evenodd">
        <circle cx="12" cy="12" r="11" fill="#2E3343" stroke="#464E63"/>
        <use fill="#949CB1" fill-rule="nonzero" transform="translate(6.31 5)" xlink:href="#a"/>
    </g>
</svg>
