<svg xmlns="http://www.w3.org/2000/svg" width="26" height="26" viewBox="0 0 26 26">
    <g fill="none" fill-rule="evenodd" transform="translate(1 1)">
        <circle cx="12" cy="12" r="12" fill="#2E3343" stroke="#B2BAD1"/>
        <path d="M2.4 2.4h19.2v19.2H2.4z"/>
        <path fill="#949CB1" fill-rule="nonzero" d="M5.316 10.291l-.013-.02c-.164-.23-.291-.47-.376-.72l-.01-.029-.006-.018-.03-.1A2.29 2.29 0 0 1 4.8 8.8c0-2.21 3.224-4 7.2-4s7.2 1.79 7.2 4c0 .192-.024.382-.072.567h-.001l-.009.038c-.027.098-.06.196-.1.292l-.016.039-.048.104a3.06 3.06 0 0 1-.345.55l-.008.01c.385.49.599 1.031.599 1.6 0 .565-.211 1.103-.591 1.59l-.008.01c.385.49.599 1.03.599 1.6 0 2.21-3.224 4-7.2 4s-7.2-1.79-7.2-4c0-.569.214-1.11.599-1.6l.024.029-.093-.12c-.342-.466-.53-.975-.53-1.509 0-.569.214-1.11.599-1.6l-.083-.109zm.926 4.11l.03.023c-.177.254-.272.517-.272.776 0 1.357 2.598 2.8 6 2.8s6-1.443 6-2.8c0-.26-.095-.522-.272-.777l-.041.03C16.369 15.396 14.312 16 12 16c-2.354 0-4.445-.628-5.758-1.598zm8.456-1.892l-.009.003.003-.002.006-.001zm3.18 1.798l-.122.094.088-.065.034-.029zm.079-.06l-.076.058.048-.035.028-.023zm-12.514-.593l.022.027.021.026.017.019-.06-.072zm7.325-.876l-.136.007zm.611-.052l-.003.001h-.001l.004-.001zm.005 0h.002l-.008.001.006-.001zm-2.873-.012l.07.008-.07-.008zm3.235-.033l-.005.001.002-.001h.003zm-3.554-.008l.063.009a12.072 12.072 0 0 1-.063-.01zm3.933-.05l-.026.004-.104.017.13-.021zm-4.641-.074l.096.02-.01-.003-.086-.017zm5.578-.128l-.079.02.08-.02zm.421-.12l-.057.018-.055.016.112-.033zm-6.937.01l.083.024zm7.095-.06l-.003.001h-.001l.004-.001zm.021-.007l-.012.004-.006.002-.007.002.025-.008zm.326-.113a9.158 9.158 0 0 1-.1.036zm-8.021-.017l.017.006.017.007.011.004.097.035a9.115 9.115 0 0 1-.142-.052zm8.527-.189l-.003.001.002-.001h.001zm.004-.002l-.002.001-.002.001.001-.001.003-.001zm-9.074-.035l.074.034zm9.352-.095l-.027.013.007-.004.02-.009zm-9.872-.167l.082.045a6.98 6.98 0 0 1-.082-.045zM12 6C8.598 6 6 7.443 6 8.8c0 1.357 2.598 2.8 6 2.8s6-1.443 6-2.8C18 7.443 15.402 6 12 6zm5.247 5.54l-.007.003-.007.004-.013.008.019-.012.008-.004zm-10.772-.175l.014.01.032.02-.035-.023-.011-.007zm-.567-.432l-.03-.026.03.026zm12.314-.119l-.056.053.056-.053zm.139-.138l-.024.024a4.05 4.05 0 0 0 .024-.024zm-12.806-.091l-.017-.02-.147-.175c.052.066.106.131.164.195zm-.412-.56l.028.047-.007-.013a2.962 2.962 0 0 1-.02-.034zm-.084-.159l.026.052.007.013-.016-.029a2.775 2.775 0 0 1-.017-.036zm13.955-.16l-.025.059.025-.058zm.116-.347a2.37 2.37 0 0 1-.004.017l.001-.009h.001zM4.806 8.964l.002.025-.002-.025.005.055-.003-.03-.002-.025zM19.2 8.8l-.003.11-.002.028.002-.025V8.91L19.2 8.8zm-6.86 3.996l.013-.001h.01l-.045.001h.023zm1.054-.071h-.004l-.006.001h-.005l.015-.001zm.028-.003l-.02.002.04-.004.066-.008-.094.011.008-.001zm.308-.038l.013-.003-.011.002.009-.001-.044.006.033-.004zm.98-.178l.009-.001.009-.003-.014.003-.01.002.006-.001zm.004-.001l.006-.001-.01.002.004-.001zm.023-.005l.012-.002-.02.004.008-.002zm.07-.015l-.118.027.048-.012zm-6.525-.259l.029.01.025.008-.054-.018zm8.22-.304H16.5l-.003.001.005-.001zm-9.833-.433l.052.031a4.812 4.812 0 0 1-.052-.031zm12.525-2.527v-.009.01l-.003.025.003-.024v-.002zm-3.553 3.289l.003-.001.006-.002.013-.004-.018.006-.004.001zm-2.239.473l-.016.002.004-.001.012-.001zm1.309-.217h-.008l-.005.002.001-.001-.007.002-.003.002c-.826.185-1.736.288-2.689.288-.832 0-1.632-.078-2.375-.223l-.093-.018-.153-.032c-1.218-.265-2.275-.709-3.066-1.273l-.019-.014a5.502 5.502 0 0 1-.022-.016C6.095 11.478 6 11.74 6 12c0 1.357 2.598 2.8 6 2.8s6-1.443 6-2.8c0-.26-.095-.522-.272-.777l-.041.03-.143.098-.032.022-.048.032-.048.03.051-.032c-.742.48-1.685.862-2.756 1.104zm-1.309.217l-.008.001h.004l.004-.001z"/>
    </g>
</svg>
