<svg xmlns="http://www.w3.org/2000/svg" width="75" height="80" viewBox="0 0 75 80">
    <g fill="none" fill-rule="evenodd">
        <path fill="#E5E5E5" d="M68.104 35.537h.007C63.142 20.431 53.72 10.643 51.057 8.092c-.24-.228-.627-.053-.627.279-.001 2.04-1.287 3.356-1.287 3.356C47.936 5.317 41.467 1.603 38.077.069c-.597-.268-1.28.285-1.076.904 2.082 6.293-12.43 11.7-12.43 11.7-18.73 6.748-22.44 22.455-22.44 22.455A34.532 34.532 0 0 0 0 47.112C0 57.979 8.869 66.79 19.81 66.79h30.476c10.94 0 19.81-8.812 19.81-19.68a34.56 34.56 0 0 0-1.992-11.574"/>
        <path fill="#000" d="M68.187 35.767c-2.165-6.582-5.175-12.147-8.102-16.552a65.966 65.966 0 0 1 2.499 6.429h-.008a34.506 34.506 0 0 1 1.992 11.573c0 10.869-8.869 19.679-19.81 19.679H14.283c-5.37 0-10.232-2.13-13.8-5.578 1.85 8.961 9.834 15.702 19.403 15.702h30.477c10.939 0 19.81-8.812 19.81-19.679a34.56 34.56 0 0 0-1.993-11.574h.008z" opacity=".03"/>
        <ellipse cx="35.135" cy="77.288" fill="#EBEBEB" rx="24.324" ry="2.712"/>
        <path fill="#000" d="M22.377 44.314c0 2.507-2.046 4.542-4.571 4.542s-4.571-2.035-4.571-4.542c0-2.508 2.046-4.541 4.571-4.541s4.571 2.033 4.571 4.541"/>
        <path fill="#FFF" d="M19.886 43.446a1.14 1.14 0 0 1-1.142 1.136 1.14 1.14 0 0 1-1.143-1.136c0-.628.512-1.135 1.143-1.135.63 0 1.142.507 1.142 1.135"/>
        <path fill="#000" d="M56.854 44.314c0 2.507-2.047 4.542-4.572 4.542s-4.571-2.035-4.571-4.542c0-2.508 2.046-4.541 4.571-4.541s4.572 2.033 4.572 4.541"/>
        <path fill="#FFF" d="M54.363 43.446a1.14 1.14 0 0 1-1.143 1.136 1.14 1.14 0 0 1-1.143-1.136c0-.628.512-1.135 1.143-1.135.63 0 1.143.507 1.143 1.135"/>
        <path fill="#F1F1F1" d="M27.487 32.681c-4.814 2.049-10.051.607-11.702-3.216-1.648-3.826.916-8.587 5.728-10.635 4.813-2.048 10.051-.608 11.702 3.219 1.649 3.823-.916 8.583-5.728 10.632"/>
        <path fill="#CDF3FF" d="M73.024 46.16l-3.37-4.005-3.368 4.006c-.928 1.107-1.393 2.58-1.393 4 0 1.417.465 2.912 1.393 4.016.93 1.107 2.15 1.667 3.368 1.667 1.222 0 2.442-.56 3.37-1.667.929-1.104 1.393-2.599 1.393-4.016 0-1.42-.464-2.893-1.393-4"/>
    </g>
</svg>
