<svg xmlns="http://www.w3.org/2000/svg" width="52" height="60" viewBox="0 0 52 60">
    <g fill="none" fill-rule="evenodd">
        <path fill="#A31639" d="M1.56 51.7h47.679V1.716H1.559z"/>
        <path fill="#9CA3AB" d="M23.256 6.363c-5.042 6.412-11.656 6.842-12.577 6.86v5.843s.576.01 4.695.021c2.705.008 2.668 2.68 2.668 2.68v26.734H49.794V6.363H23.256z"/>
        <path fill="#FFF" d="M42.892 23.143c0 1.423-.79 2.577-1.841 2.577-1.052 0-1.84-1.154-1.84-2.577v-5.154c0-1.423.788-2.577 1.84-2.577 1.051 0 1.84 1.154 1.84 2.577v5.154zm0 20.769c0 1.424-.79 2.577-1.841 2.577-1.052 0-1.84-1.153-1.84-2.577v-8.384c0-1.424.788-2.578 1.84-2.578 1.051 0 1.84 1.154 1.84 2.578v8.384zm-1.89-35.155c-7.53 0-13.1 2.779-13.1 10.843 0 5.461 1.367 6.985 3.405 8.427-1.758 1.335-4.217 3.832-4.217 11.453 0 8.064 1.41 8.562 4.346 9.936H43.86c1.88 0 5.013.53 5.933.14V10.73c-1.84-1.184-4.41-1.972-8.791-1.972z"/>
        <path fill="#231F20" d="M48.773 45.1a2.766 2.766 0 0 1-2.762 2.77H5.988a2.766 2.766 0 0 1-2.762-2.77V5.87c0-1.53 1.237-2.77 2.762-2.77H46.01a2.766 2.766 0 0 1 2.762 2.77V45.1zM48.319 0H3.68C1.901 0 0 1.908 0 3.693v52.615C0 58.09 1.902 60 3.681 60H48.32C50.098 60 52 58.091 52 56.308V3.693C52 1.908 50.098 0 48.319 0z"/>
        <path fill="#FFF" d="M9.152 54.283h-.969v-1.315H7.075v-.732h1.108V50.46h.97v3.823zm-3.62 1.164c-.255.125-.381.281-.381.467 0 .18.126.333.38.459.283.145.671.217 1.165.217.502 0 .898-.072 1.185-.217.257-.126.387-.279.387-.46 0-.185-.13-.34-.387-.466-.287-.14-.683-.209-1.185-.209-.494 0-.882.07-1.165.21zm3.083-.515c.42.268.629.6.629.989-.005.385-.217.71-.635.975-.467.297-1.105.446-1.913.446-.804 0-1.439-.15-1.906-.446-.414-.265-.622-.59-.622-.975 0-.39.208-.721.622-.989.472-.297 1.107-.446 1.906-.446.812 0 1.451.149 1.919.446zm-3.464-3.97v-.537h.97v.537h1.31v.73H6.12c0 .432.145.83.437 1.193.27.338.644.616 1.12.835l-.432.563a3.83 3.83 0 0 1-.982-.577c-.305-.25-.522-.498-.649-.746-.135.248-.358.495-.667.746-.314.255-.649.45-1.002.586l-.36-.558c.449-.223.813-.504 1.093-.843.314-.376.472-.775.472-1.199H3.84v-.73h1.31zM12.628 55.942v-1.86h.964v1.86h2.363v.731h-5.67v-.731h2.343zm1.678-3.246c.387.446.958.799 1.709 1.058l-.433.593c-.611-.219-1.113-.465-1.506-.738a3.48 3.48 0 0 1-.976-1.016c-.223.389-.539.726-.95 1.016-.392.273-.9.52-1.518.738l-.387-.593c.716-.26 1.268-.616 1.658-1.065.483-.561.725-1.286.725-2.173h.964c0 .9.238 1.627.714 2.18zM18.331 56.34h3.938v.751H18.22c-.31 0-.532-.058-.668-.175-.127-.115-.19-.304-.19-.563v-1.42h.968v1.406zm2.923-3.366h-1.782v-.758h1.782v-.524h-1.75v-.752h1.75v-.48h.969v4.848h-.97V54.29H17.73c-.235 0-.41-.072-.523-.216-.105-.13-.157-.316-.157-.558v-3.001h.969v3.03h3.236v-.572zM27.789 57.16h.969v-6.7h-.97v6.7zm-3.177-5.314c-.127.423-.19.968-.19 1.637 0 .724.063 1.307.19 1.748.14.473.341.71.602.71.258 0 .457-.237.597-.71.13-.441.196-1.024.196-1.748 0-.669-.066-1.214-.196-1.637-.146-.46-.344-.689-.597-.689-.258 0-.458.23-.602.689zm1.933-.502c.295.562.444 1.278.444 2.146 0 .919-.149 1.667-.444 2.242-.315.627-.757.94-1.323.94-.574 0-1.019-.313-1.338-.94-.291-.575-.438-1.323-.438-2.242 0-.868.147-1.584.438-2.146.323-.612.769-.919 1.338-.919.562 0 1.002.307 1.323.92zM33.511 53.567v-.432a7.88 7.88 0 0 1-.372.049c-.123.01-.26.013-.414.013-.156 0-.296-.004-.418-.013a7.68 7.68 0 0 1-.38-.049v.432h1.584zm-1.905 2.09c-.245.1-.367.226-.367.375 0 .148.122.274.367.377.275.115.648.173 1.12.173.458 0 .822-.058 1.093-.173.248-.103.373-.229.373-.377 0-.149-.125-.274-.373-.376-.27-.111-.635-.167-1.094-.167-.47 0-.844.056-1.12.167zm-.033-4.277c-.253.112-.379.255-.379.432 0 .17.126.313.379.424.275.122.655.181 1.14.181.484 0 .867-.06 1.146-.18.253-.112.38-.255.38-.425 0-.177-.127-.32-.38-.432-.28-.116-.662-.175-1.146-.175-.485 0-.865.059-1.14.175zm2.98 3.746c.41.246.616.55.616.912 0 .354-.206.653-.616.9-.454.273-1.065.41-1.834.41-.772 0-1.386-.137-1.84-.41-.406-.247-.61-.546-.61-.9 0-.361.204-.666.61-.912.454-.273 1.068-.41 1.84-.41.769 0 1.38.137 1.834.41zm-4.173-2.75a.956.956 0 0 1-.189-.564c0-.386.21-.708.629-.968.463-.28 1.097-.419 1.905-.419.804 0 1.44.14 1.907.419.423.26.635.582.635.968a.93.93 0 0 1-.196.564c-.141.18-.337.339-.59.473v.718h1.08v.758H29.89v-.758h1.067v-.718a1.645 1.645 0 0 1-.577-.473zM37.715 52.035h3.092v-.454h-3.092v.454zm0-1.52v.322h3.092v-.321h.969v2.27H37.63c-.31 0-.537-.062-.682-.188-.134-.125-.202-.318-.202-.577v-1.505h.97zm4.381 3.261h-2.345v.474h2.025v1.775h-4.06v.307h4.111v.76H37.63c-.289 0-.509-.068-.662-.204-.147-.129-.222-.315-.222-.556v-1.06h4.061v-.27h-4.061v-.752h2.037v-.474h-2.358v-.746h5.671v.746zM48.271 50.46v2.717h.662v.766h-.662v3.218h-.97v-6.7h.97zm-2.173.14v2.076c0 .992-.245 1.827-.734 2.5-.455.617-1.13 1.116-2.024 1.497l-.386-.571c.655-.298 1.164-.676 1.526-1.135.437-.553.655-1.22.655-1.999v-1.61H43.11V50.6h2.988z"/>
    </g>
</svg>
