<svg xmlns="http://www.w3.org/2000/svg" width="20" height="20" viewBox="0 0 20 20">
    <path fill="#FFF" fill-rule="evenodd" d="M4.587 12.85c-.8.798-.83 2.398-.829 2.708.002.38.31.703.692.703h.022c.358 0 1.895-.059 2.677-.84.493-.492.597-.995.597-1.326 0-.463-.199-.92-.56-1.28-.88-.88-1.964-.6-2.599.034m9.793-7.223a1.135 1.135 0 0 1-.8 1.93 1.137 1.137 0 0 1-1.13-1.13 1.132 1.132 0 0 1 1.93-.8m2.937-3.59c-4.392-.342-7.557 1.784-9.51 4.469-1.08-.354-2.24-.228-3.298.368-1.018.574-1.886 1.54-2.443 2.722a.695.695 0 0 0 .954.912c1.114-.587 2.368-.477 3.12.275l3.067 3.063.015.019c.753.751.864 2.003.276 3.115a.696.696 0 0 0 .911.955c1.183-.556 2.15-1.423 2.725-2.44.6-1.064.725-2.23.363-3.315a11.83 11.83 0 0 0 2.087-1.896c1.821-2.125 2.62-4.686 2.372-7.612a.695.695 0 0 0-.64-.635h.001z"/>
</svg>
