<svg xmlns="http://www.w3.org/2000/svg" xmlns:xlink="http://www.w3.org/1999/xlink" width="52" height="60" viewBox="0 0 52 60">
    <defs>
        <path id="a" d="M3.54.137C1.8.137.39 1.515.39 3.214v38.61c0 1.699 1.411 3.077 3.152 3.077h39.744c1.74 0 3.151-1.378 3.151-3.077V3.214c0-1.699-1.41-3.077-3.151-3.077"/>
        <path id="c" d="M3.54.137C1.8.137.39 1.515.39 3.214v38.61c0 1.699 1.411 3.077 3.152 3.077h39.744c1.74 0 3.151-1.378 3.151-3.077V3.214c0-1.699-1.41-3.077-3.151-3.077"/>
        <path id="e" d="M3.54.137C1.8.137.39 1.515.39 3.214v38.61c0 1.699 1.411 3.077 3.152 3.077h39.744c1.74 0 3.151-1.378 3.151-3.077V3.214c0-1.699-1.41-3.077-3.151-3.077"/>
    </defs>
    <g fill="none" fill-rule="evenodd">
        <path fill="#FFF" d="M.726 50.78h49.818V2.42H.726z"/>
        <path fill="#231F20" d="M48.848 44.47c0 1.7-1.41 3.078-3.152 3.078H6.303c-1.74 0-3.151-1.378-3.151-3.077V6.009c0-1.7 1.41-3.077 3.151-3.077h39.393c1.741 0 3.152 1.378 3.152 3.077V44.47zM48.323 0H3.677C1.646 0 0 1.607 0 3.59v52.308c0 1.981 1.646 3.59 3.677 3.59h44.646c2.03 0 3.676-1.609 3.676-3.59V3.59C52 1.607 50.354 0 48.323 0z"/>
        <path fill="#FFF" d="M16.396 54.794h-1.083v-3.193h-.971v-.856h.971v-1.3h1.083v5.35zm-4.343.992h4.394v.811H11.93c-.346 0-.594-.062-.745-.188-.141-.126-.212-.328-.212-.609V54.27h1.081v1.517zm1.521-3.854c.292.466.713.826 1.264 1.082l-.52.63a5.623 5.623 0 0 1-1.146-.803c-.35-.32-.592-.626-.725-.916-.15.29-.401.595-.752.916a5.73 5.73 0 0 1-1.119.789l-.445-.61a3.3 3.3 0 0 0 1.184-1.088c.395-.626.592-1.435.592-2.426h1.09c0 1.006.192 1.815.577 2.426zM28.865 53.555h-1.082v-1.69h-1.162v-.797h1.162v-1.622h1.082v4.109zm-4.042 1.269c-.283.135-.424.303-.424.504 0 .195.141.36.424.495.317.155.75.233 1.3.233.561 0 1.002-.078 1.325-.233.287-.135.43-.3.43-.495 0-.2-.143-.37-.43-.504-.323-.15-.764-.225-1.325-.225-.55 0-.983.075-1.3.225zm3.443-.555c.468.29.702.645.702 1.066-.006.416-.242.766-.71 1.051-.52.32-1.233.481-2.135.481-.896 0-1.604-.16-2.126-.48-.462-.286-.694-.636-.694-1.052 0-.421.232-.776.694-1.066.527-.32 1.236-.481 2.126-.481.907 0 1.621.16 2.143.48zm-1.447-4.674v.797h-1.345c0 .586.183 1.111.548 1.577.307.391.701.701 1.184.932l-.497.624a4.944 4.944 0 0 1-1.002-.61c-.34-.26-.598-.525-.774-.795-.171.27-.427.535-.768.796-.312.24-.65.443-1.016.609l-.438-.624c.487-.22.88-.53 1.176-.932.341-.455.512-.98.512-1.577h-1.308v-.797h3.728zM39.31 51.399v-.834h.943v-1.12h1.082v4.14h-1.082v-2.186h-.942zm-2.017 3.425c-.283.135-.424.304-.424.504 0 .195.14.36.424.495.317.155.75.233 1.3.233.561 0 1.003-.078 1.324-.233.287-.135.431-.3.431-.495 0-.2-.144-.37-.431-.504-.321-.15-.763-.225-1.323-.225-.55 0-.984.075-1.301.225zm3.443-.555c.468.29.701.645.701 1.066-.005.416-.24.766-.709 1.052-.521.32-1.232.48-2.134.48-.897 0-1.606-.16-2.127-.48-.463-.286-.694-.636-.694-1.052 0-.421.231-.776.694-1.066.526-.32 1.235-.481 2.127-.481.906 0 1.62.16 2.142.48zm-2.223-2.57c.298.436.72.78 1.265 1.037l-.519.608a5.392 5.392 0 0 1-1.147-.759c-.352-.305-.592-.595-.724-.87-.15.275-.402.562-.753.863a5.88 5.88 0 0 1-1.118.752l-.447-.594c.503-.276.898-.621 1.185-1.037.395-.58.592-1.312.592-2.193h1.09c0 .896.192 1.627.576 2.193z"/>
        <g transform="translate(2.587 2.692)">
            <mask id="b" fill="#fff">
                <use xlink:href="#a"/>
            </mask>
            <path fill="#212121" d="M49.68 12.469a6.71 6.71 0 0 1-4.874 2.053 6.757 6.757 0 0 1-4.59-1.779 6.425 6.425 0 0 1-.28-9.238A6.71 6.71 0 0 1 44.81 1.45c1.711 0 3.342.632 4.589 1.78a6.437 6.437 0 0 1 .28 9.239M51.357 1.2a9.639 9.639 0 0 0-6.548-2.538c-2.66 0-5.13 1.04-6.953 2.93-3.272 3.388-3.483 8.532-.565 12.147l-1.245 1.29-2.101-1.934-1.958 2.03 2.101 1.933-2.229 2.308 2.08 1.912 2.227-2.308 2.102 1.934 1.958-2.03-2.102-1.933 1.245-1.29a9.748 9.748 0 0 0 5.436 1.658c2.66 0 5.128-1.04 6.952-2.929 1.75-1.812 2.672-4.181 2.596-6.67-.075-2.49-1.14-4.802-2.996-6.51" mask="url(#b)"/>
        </g>
        <g transform="translate(2.587 2.692)">
            <mask id="d" fill="#fff">
                <use xlink:href="#c"/>
            </mask>
            <path fill="#212121" d="M25.162-8.142c3.691 0 6.694 2.932 6.694 6.536a6.42 6.42 0 0 1-1.96 4.622 6.738 6.738 0 0 1-4.734 1.913c-1.788 0-3.47-.679-4.734-1.913a6.417 6.417 0 0 1-1.96-4.622c0-1.746.696-3.387 1.96-4.622a6.735 6.735 0 0 1 4.734-1.914m9.55 6.536c0-5.14-4.284-9.324-9.55-9.324-5.266 0-9.55 4.183-9.55 9.324 0 4.658 3.46 8.543 8.122 9.22v3.718l-1.922-1.737-1.596 1.856 4.562 4.265.264.22.122.12 5.053-4.502-1.69-1.759L26.59 11.4V7.614c4.662-.678 8.122-4.562 8.122-9.22" mask="url(#d)"/>
        </g>
        <g transform="translate(2.587 2.692)">
            <mask id="f" fill="#fff">
                <use xlink:href="#e"/>
            </mask>
            <path fill="#212121" d="M27.312 23.165a3.88 3.88 0 0 0-1.483.29v-.72c.004-1.65-1.71-3.646-3.855-3.652-.53 0-1.055.124-1.559.369a3.782 3.782 0 0 0-1.046-1.915c-.712-.697-1.654-1.067-2.721-1.067-2.088 0-3.36 1.392-3.73 2.817a5.122 5.122 0 0 0-1.607-.262c-.953 0-1.971.437-2.724 1.17-.722.703-1.12 1.604-1.12 2.538v7.894a4.626 4.626 0 0 0-1.485-.234c-2.072 0-3.848 2.221-3.848 4.039l.001 2.578c.001 1.44.001 1.555-.002 2.609-.008 2.5 1.727 4.274 2.994 5.57l.349.354c.98.985 1.993 2.003 1.99 3.106v3.533h2.363v-3.53c.006-2.038-1.47-3.523-2.657-4.717l-.336-.34c-1.328-1.358-2.344-2.514-2.34-3.968.004-1.058.004-1.175.003-2.618l-.002-2.577c.001-.712.875-1.732 1.485-1.732.676 0 1.482.2 1.484 1.155v6.09h2.363l.001-17.212c0-.406.231-.715.425-.904.354-.344.766-.498 1.017-.498l.04.002c.87.002 1.487.436 1.488.574L12.798 34.5h2.364l.001-14.317c0-.364.277-1.404 1.486-1.404.432 0 .784.13 1.047.388.324.318.438.743.437 1.012l-.002 14.146h2.364v-11.59c.003-.481.75-1.344 1.482-1.344.74.003 1.49.863 1.488 1.341v11.93h2.363v-7.846c.003-.454.454-1.342 1.484-1.342.944 0 1.485.51 1.485 1.399l-.001 20.386h2.363l.001-20.386c0-2.148-1.618-3.707-3.848-3.707" mask="url(#f)"/>
        </g>
    </g>
</svg>
