<svg xmlns="http://www.w3.org/2000/svg" width="52" height="60" viewBox="0 0 52 60">
    <g fill="none" fill-rule="evenodd">
        <path fill="#FFF" d="M.772 50.7H50.59V1.923H.772z"/>
        <path fill="#231F20" d="M48.848 44.854c0 1.713-1.41 3.103-3.151 3.103H6.303c-1.74 0-3.151-1.39-3.151-3.103V6.06c0-1.714 1.41-3.104 3.151-3.104h39.394c1.74 0 3.151 1.39 3.151 3.104v38.793zM48.323 0H3.677C1.647 0 0 1.621 0 3.62v52.76C0 58.377 1.646 60 3.677 60h44.646C50.354 60 52 58.378 52 56.38V3.62C52 1.622 50.354 0 48.323 0z"/>
        <path fill="#FFF" d="M18.486 49.871v.705h.738v.803h-.738v1h.738v.811h-.738v.818h-1.082v-4.137h1.082zm-4.546 1.107c-.142.202-.213.477-.213.825 0 .344.071.617.213.819.165.232.409.348.73.348.317 0 .558-.116.724-.348.146-.202.219-.475.219-.819 0-.348-.073-.623-.219-.825-.166-.228-.407-.342-.724-.342-.321 0-.565.114-.73.342zm4.546 3.425v2.75h-1.082V55.22H13.04v-.818h5.446zm-2.273-3.979c.326.36.49.819.49 1.38 0 .555-.164 1.012-.49 1.371-.366.399-.88.599-1.543.599-.667 0-1.182-.2-1.542-.599-.326-.359-.49-.816-.49-1.372 0-.56.164-1.02.49-1.379.36-.393.875-.59 1.542-.59.663 0 1.177.197 1.543.59zM33.946 51.394h3.45v-.553h-3.45v.553zm4.532-1.371v2.19h-4.722c-.298 0-.522-.073-.673-.22-.146-.147-.22-.354-.22-.622v-1.348h5.615zm.357 3.455H36.22v.515h2.259v1.932h-4.532v.334h4.59v.825H33.85c-.322 0-.568-.073-.738-.22-.167-.14-.25-.343-.25-.605v-1.152h4.533v-.295h-4.532v-.819h2.273v-.515h-2.632v-.81h6.33v.81z"/>
        <path fill="#211821" d="M14.846 16.494l-3.18-3.04 4.163-4.221 3.18 3.04-4.163 4.221zm27.092 20.322l-3.862-3.693 1.876-1.901-2.262-2.162 1.739-1.763-2.026-1.937.87-.881-14.554-13.92 1.326-1.344-1.553-1.487-3.385 3.432-3.18-3.04 1.875-1.902-1.554-1.486L7.185 14.935l1.554 1.487 1.83-1.856 3.179 3.041-3.247 3.294 1.553 1.486 1.19-1.206L27.797 35.1l1.098-1.113-3.532-3.378 4.026-4.082-1.131-1.08-4.026 4.08-1.79-1.711 4.026-4.082-1.13-1.08-4.026 4.08-1.742-1.666 4.025-4.082-1.13-1.08-4.026 4.081-4.098-3.92 8.28-8.394 14.554 13.919-8.142 8.256 2.025 1.937 1.92-1.948 2.262 2.162 1.738-1.763 3.862 3.693 1.098-1.113zM42.856 42.978h.01s-1.577-3.976-1.74-4.17c-.165-.194-1.553 3.835-1.553 3.835l.011.001a2.721 2.721 0 0 0-.461 1.53c0 1.34.896 2.425 2.002 2.425 1.106 0 2.003-1.085 2.003-2.425 0-.437-.104-.842-.272-1.196"/>
    </g>
</svg>
