<svg xmlns="http://www.w3.org/2000/svg" width="52" height="60" viewBox="0 0 52 60">
    <g fill="none" fill-rule="evenodd">
        <path fill="#F9B846" d="M1.56 51.7h47.68V1.716H1.56z"/>
        <path fill="#9CA3AB" d="M23.256 6.363c-5.042 6.412-11.656 6.842-12.576 6.86v5.843s.575.01 4.695.021c2.704.008 2.668 2.68 2.668 2.68v26.734H49.795V6.363H23.256z"/>
        <path fill="#FFF" d="M50.715 16.898V9.11H28.166v22.901H38.75V29.72c0-1.275.972-2.308 2.071-2.308 1.1 0 2.071 1.033 2.071 2.308v14.307c0 1.275-.971 2.308-2.07 2.308-1.1 0-2.072-1.033-2.072-2.308V36.592H28.166v2.188c0 9.82.372 11.662 9.448 11.641 0 0 12.186 1.157 12.186-7.103l.178-12.391c.125-8.592-.31-10.523-4.777-10.523-3.416 0-5.07 1.315-6.45 2.855v-6.361h11.964z"/>
        <path fill="#231F20" d="M48.773 45.1a2.766 2.766 0 0 1-2.761 2.77H5.988a2.766 2.766 0 0 1-2.76-2.77V5.87c0-1.53 1.236-2.77 2.76-2.77h40.024a2.765 2.765 0 0 1 2.76 2.77V45.1zM48.319 0H3.68C1.902 0 0 1.908 0 3.693v52.615C0 58.09 1.902 60 3.681 60H48.32C50.099 60 52 58.091 52 56.308V3.693C52 1.908 50.098 0 48.319 0z"/>
        <path fill="#FFF" d="M7.615 50.9v5.655H6.48v-3.517c0-.173-.009-.303-.028-.39a.313.313 0 0 0-.117-.195.714.714 0 0 0-.302-.117 3.926 3.926 0 0 0-.59-.032h-.17v-.507a3.289 3.289 0 0 0 1.021-.319c.28-.147.529-.34.749-.578h.57zM12.665 50.893v.696H9.98v1.54c.262-.312.683-.468 1.263-.468 1.174 0 1.76.501 1.76 1.502v.643c0 .608-.145 1.07-.434 1.387-.29.32-.799.477-1.528.472-1.393-.013-2.09-.52-2.09-1.521v-.234h1.101v.28c0 .216.073.395.217.536.146.141.386.212.724.212.327 0 .56-.081.7-.24.138-.161.209-.422.209-.781v-.715c0-.299-.08-.517-.237-.653-.159-.137-.399-.205-.72-.205-.241 0-.45.068-.628.201-.176.135-.265.27-.265.41H8.983v-3.062h3.682zM19.919 56.907h1.173v-6.254H19.92v6.254zm-.587-6.254v6.254h-1.174V53.72h-.853v-.735h.853v-2.333h1.174zm-2.838.052v2.093c0 .732.148 1.408.442 2.028.262.55.58.939.949 1.164l-.74.46a3.146 3.146 0 0 1-.748-.773 3.615 3.615 0 0 1-.514-1.099c-.102.391-.274.758-.515 1.1a3.121 3.121 0 0 1-.771.773l-.684-.461c.343-.244.646-.63.908-1.164a4.432 4.432 0 0 0 .482-2.028v-2.093h1.191zM28.33 56.907h1.19v-6.254h-1.19v6.254zm-3.899-4.961c-.156.395-.233.904-.233 1.528 0 .676.077 1.22.233 1.63.17.443.417.664.739.664.317 0 .56-.22.732-.663.16-.412.24-.955.24-1.63 0-.625-.08-1.134-.24-1.53-.177-.428-.42-.642-.732-.642-.316 0-.563.214-.739.643zm2.37-.468c.365.525.548 1.192.548 2.002 0 .858-.183 1.556-.547 2.093-.386.585-.927.878-1.624.878-.702 0-1.249-.293-1.64-.878-.359-.537-.539-1.235-.539-2.093 0-.81.18-1.477.539-2.002.397-.572.943-.858 1.64-.858.691 0 1.233.286 1.624.858zM35.881 53.552v-.403c-.14.017-.293.032-.458.045-.15.01-.32.013-.507.013-.193 0-.365-.004-.514-.013a11.671 11.671 0 0 1-.467-.045v.403h1.946zm-2.34 1.95c-.3.095-.45.212-.45.35 0 .14.15.257.45.353.338.107.797.162 1.375.162.563 0 1.011-.055 1.343-.162.305-.096.458-.213.458-.352 0-.139-.153-.256-.458-.35-.332-.105-.78-.157-1.343-.157-.578 0-1.037.052-1.374.156zm-.04-3.991c-.311.104-.467.237-.467.403 0 .16.156.292.467.396.338.114.804.169 1.399.169s1.064-.055 1.408-.169c.31-.104.464-.237.464-.396 0-.166-.155-.299-.464-.403-.344-.109-.813-.163-1.408-.163s-1.061.054-1.399.163zm3.658 3.497c.504.23.756.514.756.851 0 .33-.252.609-.756.84-.557.255-1.307.382-2.25.382-.95 0-1.703-.127-2.26-.383-.499-.23-.748-.51-.748-.839 0-.337.25-.621.747-.85.558-.257 1.312-.385 2.26-.385.944 0 1.694.128 2.251.384zm-5.121-2.568c-.156-.164-.233-.34-.233-.526 0-.36.257-.66.771-.904.568-.26 1.348-.39 2.34-.39.986 0 1.766.13 2.34.39.52.243.78.544.78.904 0 .185-.08.362-.242.526-.171.17-.413.317-.723.442v.67h1.327v.708h-6.963v-.708h1.31v-.67c-.31-.125-.547-.273-.707-.442zM46.503 50.653v2.535h.812v.715h-.812v3.003h-1.19v-6.253h1.19zm-2.67.13v1.937c0 .927-.3 1.706-.9 2.333-.557.577-1.385 1.042-2.484 1.398l-.475-.533c.804-.277 1.429-.63 1.874-1.06.536-.515.805-1.137.805-1.865V51.49h-2.486v-.708h3.667z"/>
    </g>
</svg>
