<svg xmlns="http://www.w3.org/2000/svg" xmlns:xlink="http://www.w3.org/1999/xlink" width="56" height="56" viewBox="0 0 56 56">
    <defs>
        <path id="a" d="M2 0a1.5 1.5 0 0 1 1.5 1.5v18A1.5 1.5 0 0 1 2 21h-.5A1.5 1.5 0 0 1 0 19.5v-18A1.5 1.5 0 0 1 1.5 0H2zm10.5 0A1.5 1.5 0 0 1 14 1.5v18a1.5 1.5 0 0 1-1.5 1.5H12a1.5 1.5 0 0 1-1.5-1.5v-18A1.5 1.5 0 0 1 12 0h.5z"/>
    </defs>
    <g fill="none" fill-rule="evenodd">
        <circle cx="28" cy="28" r="27.5" fill="#000" fill-opacity=".4" stroke="#FFF"/>
        <use fill="#FFF" fill-rule="nonzero" transform="translate(21 18)" xlink:href="#a"/>
    </g>
</svg>
