<svg xmlns="http://www.w3.org/2000/svg" xmlns:xlink="http://www.w3.org/1999/xlink" width="124" height="98" viewBox="0 0 124 98">
    <defs>
        <rect id="a" width="49" height="58" x=".629" y=".186" rx="2"/>
        <filter id="b" width="165.3%" height="155.2%" x="-32.7%" y="-24.1%" filterUnits="objectBoundingBox">
            <feOffset dy="2" in="SourceAlpha" result="shadowOffsetOuter1"/>
            <feGaussianBlur in="shadowOffsetOuter1" result="shadowBlurOuter1" stdDeviation="5"/>
            <feColorMatrix in="shadowBlurOuter1" values="0 0 0 0 0 0 0 0 0 0 0 0 0 0 0 0 0 0 0.133440778 0"/>
        </filter>
    </defs>
    <g fill="none" fill-rule="evenodd">
        <g transform="translate(3 2)">
            <circle cx="59" cy="40" r="40" fill="#E6E7FB"/>
            <circle cx="114.5" cy="17.5" r="4.5" fill="#E6E7FB"/>
            <circle cx="4" cy="59" r="4" stroke="#E6E7FB" stroke-width="2"/>
        </g>
        <g transform="translate(37 26)">
            <mask id="c" fill="#fff">
                <use xlink:href="#a"/>
            </mask>
            <use fill="#000" filter="url(#b)" xlink:href="#a"/>
            <use fill="#FFF" xlink:href="#a"/>
            <rect width="14" height="2" x="10.629" y="25.186" fill="#B9B9EB" mask="url(#c)" rx="1"/>
            <path fill="#B9B9EB" fill-rule="nonzero" d="M31.017 31.93l6.243 6.245-10.798 11.087a.75.75 0 0 1-.53.22H20.75a.75.75 0 0 1-.75-.75v-5.184a.75.75 0 0 1 .22-.53L31.017 31.93zm8.612-2.43a4.416 4.416 0 0 1 0 6.244l-.973.998-6.244-6.244.974-.999a4.414 4.414 0 0 1 6.243.001z" mask="url(#c)"/>
            <rect width="29" height="2" x="10.629" y="18.186" fill="#B9B9EB" mask="url(#c)" rx="1"/>
            <path fill="#B9B9EB" d="M-2.371.186h54v10h-54z" mask="url(#c)"/>
        </g>
    </g>
</svg>
