<svg xmlns="http://www.w3.org/2000/svg" width="16" height="16" viewBox="0 0 16 16">
    <g fill="#999" fill-rule="nonzero">
        <path d="M8 .5a7.5 7.5 0 1 1 0 15 7.5 7.5 0 0 1 0-15zm0 1a6.5 6.5 0 1 0 0 13 6.5 6.5 0 0 0 0-13z"/>
        <path d="M6.947 9.228h1.408c-.165-1.551 1.749-2.079 1.749-3.641 0-1.408-.968-2.09-2.288-2.09-.957 0-1.738.451-2.31 1.1l.891.814c.352-.363.737-.616 1.221-.616.572 0 .935.352.935.902 0 1.056-1.87 1.76-1.606 3.531zm.704 2.926c-.572 0-1.001-.462-1.001-1.056 0-.594.429-1.056 1.001-1.056.583 0 1.012.462 1.012 1.056 0 .594-.429 1.056-1.012 1.056z"/>
    </g>
</svg>
