<svg xmlns="http://www.w3.org/2000/svg" width="24" height="24" viewBox="0 0 24 24">
    <path fill="#5E3DF5" fill-rule="nonzero" d="M14.162 2c4.622 0 8.368 3.769 8.368 8.416v1.43c0 4.648-3.746 8.416-8.368 8.416h-.115c-2.861 2.118-5.435 3.277-6.425 2.491-.58-.46-.91-1.506-1.089-3.199a8.42 8.42 0 0 1-5.003-7.708v-1.43C1.53 5.77 5.276 2 9.898 2h4.264zM6.78 9.875a1.313 1.313 0 1 0 0 2.625 1.313 1.313 0 0 0 0-2.625zm5.25 0a1.313 1.313 0 1 0 0 2.625 1.313 1.313 0 0 0 0-2.625zm5.25 0a1.313 1.313 0 1 0 0 2.625 1.313 1.313 0 0 0 0-2.625z"/>
</svg>
