<svg xmlns="http://www.w3.org/2000/svg" xmlns:xlink="http://www.w3.org/1999/xlink" width="24" height="24" viewBox="0 0 24 24">
    <defs>
        <path id="a" d="M14.143 3.691l.625-.226a2.25 2.25 0 0 1 2.696.96l.772 1.292a2.25 2.25 0 0 1-.56 2.939l-.36.276c.063.548.062 1.1-.002 1.647l.376.295a2.25 2.25 0 0 1 .537 2.94l-.768 1.264a2.25 2.25 0 0 1-2.711.94l-.59-.22a8.22 8.22 0 0 1-1.52.85l-.162.972a2.25 2.25 0 0 1-2.22 1.88H8.245a2.25 2.25 0 0 1-2.225-1.916l-.143-.954a8.195 8.195 0 0 1-1.464-.821l-.625.226a2.25 2.25 0 0 1-2.696-.96L.32 13.782a2.25 2.25 0 0 1 .56-2.939l.36-.276A7.113 7.113 0 0 1 1.24 8.92l-.376-.295a2.25 2.25 0 0 1-.537-2.94l.768-1.264a2.25 2.25 0 0 1 2.711-.94l.59.22a8.22 8.22 0 0 1 1.52-.85l.162-.972A2.25 2.25 0 0 1 8.299 0h2.012a2.25 2.25 0 0 1 2.225 1.916l.143.954c.517.224 1.008.5 1.464.821zm-3.09-1.552a.75.75 0 0 0-.742-.639H8.298a.75.75 0 0 0-.74.627l-.303 1.818-.408.15a6.89 6.89 0 0 0-1.862 1.042l-.332.263-1.371-.513a.75.75 0 0 0-.904.313L1.61 6.465a.75.75 0 0 0 .18.98l1.078.844-.083.446a5.617 5.617 0 0 0-.002 2.025l.082.45-1.072.824a.75.75 0 0 0-.186.98l.772 1.29a.75.75 0 0 0 .898.32l1.397-.505.328.259a6.696 6.696 0 0 0 1.814 1.014l.414.154.273 1.815a.75.75 0 0 0 .741.639h2.013a.75.75 0 0 0 .74-.627l.303-1.818.408-.15a6.89 6.89 0 0 0 1.862-1.042l.332-.263 1.371.513a.75.75 0 0 0 .904-.313l.768-1.265a.75.75 0 0 0-.179-.98l-1.079-.844.083-.446c.123-.67.124-1.355.002-2.025l-.082-.45 1.072-.824a.75.75 0 0 0 .186-.98l-.772-1.29a.75.75 0 0 0-.898-.32l-1.397.505-.328-.259a6.696 6.696 0 0 0-1.814-1.014l-.414-.154-.273-1.815zM9.277 13.5a3.75 3.75 0 1 1 0-7.5 3.75 3.75 0 0 1 0 7.5zm0-1.5a2.25 2.25 0 1 0 0-4.5 2.25 2.25 0 0 0 0 4.5z"/>
    </defs>
    <use fill="#FFF" fill-rule="nonzero" transform="translate(2.722 2.25)" xlink:href="#a"/>
</svg>
