<svg xmlns="http://www.w3.org/2000/svg" xmlns:xlink="http://www.w3.org/1999/xlink" width="48" height="48" viewBox="0 0 48 48">
    <defs>
        <path id="a" d="M0 0h24v19H0z"/>
    </defs>
    <g fill="none" fill-rule="evenodd">
        <circle cx="24" cy="24" r="24" fill="#1DA1F2"/>
        <g transform="translate(12 15)">
            <mask id="b" fill="#fff">
                <use xlink:href="#a"/>
            </mask>
            <path fill="#FFF" d="M7.548 19c9.057 0 14.01-7.31 14.01-13.647 0-.208-.005-.415-.014-.62A9.882 9.882 0 0 0 24 2.249c-.882.382-1.832.64-2.828.755A4.837 4.837 0 0 0 23.337.351c-.951.55-2.005.95-3.126 1.164A4.98 4.98 0 0 0 16.617 0c-2.72 0-4.925 2.148-4.925 4.796 0 .377.043.743.128 1.094C7.727 5.69 4.099 3.78 1.67.878a4.685 4.685 0 0 0-.667 2.411c0 1.664.87 3.133 2.192 3.993a4.986 4.986 0 0 1-2.23-.6l-.001.06c0 2.324 1.697 4.263 3.95 4.703a5.062 5.062 0 0 1-2.224.082c.627 1.906 2.445 3.293 4.6 3.332a10.05 10.05 0 0 1-6.115 2.053c-.398 0-.79-.022-1.175-.066A14.21 14.21 0 0 0 7.548 19" mask="url(#b)"/>
        </g>
    </g>
</svg>
