<svg xmlns="http://www.w3.org/2000/svg" xmlns:xlink="http://www.w3.org/1999/xlink" width="12" height="12" viewBox="0 0 12 12">
    <defs>
        <path id="a" d="M8.359 1.06c.146-.147.423-.108.618.088.196.195.235.472.089.618l-3.36 3.359 3.36 3.359c.128.128.114.356-.023.542l-.066.076c-.195.196-.472.235-.618.089l-3.36-3.36-3.358 3.36c-.128.128-.356.114-.542-.023l-.076-.066C.827 8.907.788 8.63.934 8.484l3.359-3.36L.934 1.767C.806 1.638.82 1.41.957 1.224l.066-.076c.195-.196.472-.235.618-.089L5 4.418z"/>
    </defs>
    <g fill="none" fill-rule="evenodd" transform="translate(1 1)">
        <mask id="b" fill="#fff">
            <use xlink:href="#a"/>
        </mask>
        <use fill="#000" fill-rule="nonzero" xlink:href="#a"/>
        <g fill="#FFF" mask="url(#b)">
            <path d="M-1-1h12v12H-1z"/>
        </g>
    </g>
</svg>
