<?xml version="1.0" encoding="UTF-8"?>
<svg width="32px" height="32px" viewBox="0 0 32 32" version="1.1" xmlns="http://www.w3.org/2000/svg" xmlns:xlink="http://www.w3.org/1999/xlink">
    <title>FA68E7D7-2A9E-4F4F-8F76-5DFFF8E8217B</title>
    <g id="STDS_Icon" stroke="none" stroke-width="1" fill="none" fill-rule="evenodd">
        <g id="control" transform="translate(-784.000000, -3725.000000)" fill="#000000">
            <g id="ic_control_double_arrow_right_circle_fill" transform="translate(720.000000, 3685.000000)">
                <g id="ic/control/double_arrow_right_circle/fill" transform="translate(64.000000, 40.000000)">
                    <g id="ic_control_double_arrow_right_circle_fill" transform="translate(2.000000, 2.000000)">
                        <path d="M14,0 C21.7319865,0 28,6.2680135 28,14 C28,21.7319865 21.7319865,28 14,28 C6.2680135,28 0,21.7319865 0,14 C0,6.2680135 6.2680135,0 14,0 Z M15.6128994,8.20970461 C15.2532992,7.93009846 14.7467008,7.93009846 14.3871006,8.20970461 L14.2928932,8.29289322 L14.2097046,8.38710056 C13.9300985,8.74670083 13.9300985,9.25329917 14.2097046,9.61289944 L14.2928932,9.70710678 L18.585,14 L14.2928932,18.2928932 L14.2097046,18.3871006 C13.9046797,18.7793918 13.9324093,19.3466228 14.2928932,19.7071068 C14.6533772,20.0675907 15.2206082,20.0953203 15.6128994,19.7902954 L15.7071068,19.7071068 L20.7071068,14.7071068 L20.7902954,14.6128994 C21.0699015,14.2532992 21.0699015,13.7467008 20.7902954,13.3871006 L20.7071068,13.2928932 L15.7071068,8.29289322 L15.6128994,8.20970461 Z M9.61289944,8.20970461 C9.25329917,7.93009846 8.74670083,7.93009846 8.38710056,8.20970461 L8.29289322,8.29289322 L8.20970461,8.38710056 C7.93009846,8.74670083 7.93009846,9.25329917 8.20970461,9.61289944 L8.29289322,9.70710678 L12.585,14 L8.29289322,18.2928932 L8.20970461,18.3871006 C7.90467972,18.7793918 7.93240926,19.3466228 8.29289322,19.7071068 C8.65337718,20.0675907 9.22060824,20.0953203 9.61289944,19.7902954 L9.70710678,19.7071068 L14.7071068,14.7071068 L14.7902954,14.6128994 C15.0699015,14.2532992 15.0699015,13.7467008 14.7902954,13.3871006 L14.7071068,13.2928932 L9.70710678,8.29289322 L9.61289944,8.20970461 Z" id="Shape"></path>
                    </g>
                </g>
            </g>
        </g>
    </g>
</svg>