<?xml version="1.0" encoding="UTF-8"?>
<svg width="32px" height="32px" viewBox="0 0 32 32" version="1.1" xmlns="http://www.w3.org/2000/svg" xmlns:xlink="http://www.w3.org/1999/xlink">
    <title>CB65D765-55A8-4B12-80FE-A5C23396BB72</title>
    <g id="STDS_Icon" stroke="none" stroke-width="1" fill="none" fill-rule="evenodd">
        <g id="control" transform="translate(-784.000000, -3545.000000)" fill="#000000">
            <g id="ic_control_double_arrow_left_circle_fill" transform="translate(720.000000, 3505.000000)">
                <g id="ic/control/double_arrow_left_circle/fill" transform="translate(64.000000, 40.000000)">
                    <g id="ic_control_double_arrow_left_circle_fill" transform="translate(2.000000, 2.000000)">
                        <path d="M14,0 C21.7319865,0 28,6.2680135 28,14 C28,21.7319865 21.7319865,28 14,28 C6.2680135,28 0,21.7319865 0,14 C0,6.2680135 6.2680135,0 14,0 Z M13.7071068,8.29289322 C13.3466228,7.93240926 12.7793918,7.90467972 12.3871006,8.20970461 L12.2928932,8.29289322 L7.29289322,13.2928932 L7.20970461,13.3871006 C6.93009846,13.7467008 6.93009846,14.2532992 7.20970461,14.6128994 L7.29289322,14.7071068 L12.2928932,19.7071068 L12.3871006,19.7902954 C12.7467008,20.0699015 13.2532992,20.0699015 13.6128994,19.7902954 L13.7071068,19.7071068 L13.7902954,19.6128994 C14.0699015,19.2532992 14.0699015,18.7467008 13.7902954,18.3871006 L13.7071068,18.2928932 L9.415,14 L13.7071068,9.70710678 L13.7902954,9.61289944 C14.0953203,9.22060824 14.0675907,8.65337718 13.7071068,8.29289322 Z M19.7071068,8.29289322 C19.3466228,7.93240926 18.7793918,7.90467972 18.3871006,8.20970461 L18.2928932,8.29289322 L13.2928932,13.2928932 L13.2097046,13.3871006 C12.9300985,13.7467008 12.9300985,14.2532992 13.2097046,14.6128994 L13.2928932,14.7071068 L18.2928932,19.7071068 L18.3871006,19.7902954 C18.7467008,20.0699015 19.2532992,20.0699015 19.6128994,19.7902954 L19.7071068,19.7071068 L19.7902954,19.6128994 C20.0699015,19.2532992 20.0699015,18.7467008 19.7902954,18.3871006 L19.7071068,18.2928932 L15.415,14 L19.7071068,9.70710678 L19.7902954,9.61289944 C20.0953203,9.22060824 20.0675907,8.65337718 19.7071068,8.29289322 Z" id="Shape"></path>
                    </g>
                </g>
            </g>
        </g>
    </g>
</svg>