<?xml version="1.0" encoding="UTF-8"?>
<svg width="32px" height="32px" viewBox="0 0 32 32" version="1.1" xmlns="http://www.w3.org/2000/svg" xmlns:xlink="http://www.w3.org/1999/xlink">
    <title>F26EE976-A606-41EB-9CB2-637EDF668A0D</title>
    <g id="STDS_Icon" stroke="none" stroke-width="1" fill="none" fill-rule="evenodd">
        <g id="control" transform="translate(-784.000000, -3185.000000)" fill="#000000">
            <g id="ic_control_arrow_left_circle_fill" transform="translate(720.000000, 3145.000000)">
                <g id="ic/control/arrow_left_circle/fill" transform="translate(64.000000, 40.000000)">
                    <g id="ic_control_arrow_left_circle_fill" transform="translate(2.000000, 2.000000)">
                        <path d="M14,0 C21.7319865,0 28,6.2680135 28,14 C28,21.7319865 21.7319865,28 14,28 C6.2680135,28 0,21.7319865 0,14 C0,6.2680135 6.2680135,0 14,0 Z M16.7071068,7.29289322 C16.3466228,6.93240926 15.7793918,6.90467972 15.3871006,7.20970461 L15.2928932,7.29289322 L9.29289322,13.2928932 L9.20970461,13.3871006 C8.93009846,13.7467008 8.93009846,14.2532992 9.20970461,14.6128994 L9.29289322,14.7071068 L15.2928932,20.7071068 L15.3871006,20.7902954 C15.7467008,21.0699015 16.2532992,21.0699015 16.6128994,20.7902954 L16.7071068,20.7071068 L16.7902954,20.6128994 C17.0699015,20.2532992 17.0699015,19.7467008 16.7902954,19.3871006 L16.7071068,19.2928932 L11.415,14 L16.7071068,8.70710678 L16.7902954,8.61289944 C17.0953203,8.22060824 17.0675907,7.65337718 16.7071068,7.29289322 Z" id="Shape"></path>
                    </g>
                </g>
            </g>
        </g>
    </g>
</svg>