<?xml version="1.0" encoding="UTF-8"?>
<svg width="32px" height="32px" viewBox="0 0 32 32" version="1.1" xmlns="http://www.w3.org/2000/svg" xmlns:xlink="http://www.w3.org/1999/xlink">
    <title>ED9F3845-77E5-4713-9607-2F8863675300</title>
    <g id="STDS_Icon" stroke="none" stroke-width="1" fill="none" fill-rule="evenodd">
        <g id="control" transform="translate(-784.000000, -845.000000)" fill="#000000">
            <g id="ic_control_close_circle_fill" transform="translate(720.000000, 805.000000)">
                <g id="ic/control/close_circle/fill" transform="translate(64.000000, 40.000000)">
                    <g id="ic_control_close_circle_fill" transform="translate(2.000000, 2.000000)">
                        <path d="M14,0 C21.7319865,0 28,6.2680135 28,14 C28,21.7319865 21.7319865,28 14,28 C6.2680135,28 0,21.7319865 0,14 C0,6.2680135 6.2680135,0 14,0 Z M8.29289322,8.29289322 C7.93240926,8.65337718 7.90467972,9.22060824 8.20970461,9.61289944 L8.29289322,9.70710678 L12.585,14 L8.29289322,18.2928932 L8.20970461,18.3871006 C7.90467972,18.7793918 7.93240926,19.3466228 8.29289322,19.7071068 C8.65337718,20.0675907 9.22060824,20.0953203 9.61289944,19.7902954 L9.70710678,19.7071068 L14,15.415 L18.2928932,19.7071068 C18.6834175,20.0976311 19.3165825,20.0976311 19.7071068,19.7071068 C20.0675907,19.3466228 20.0953203,18.7793918 19.7902954,18.3871006 L19.7071068,18.2928932 L15.415,14 L19.7071068,9.70710678 L19.7902954,9.61289944 C20.0953203,9.22060824 20.0675907,8.65337718 19.7071068,8.29289322 C19.3466228,7.93240926 18.7793918,7.90467972 18.3871006,8.20970461 L18.2928932,8.29289322 L14,12.585 L9.70710678,8.29289322 C9.31658249,7.90236893 8.68341751,7.90236893 8.29289322,8.29289322 Z" id="Shape"></path>
                    </g>
                </g>
            </g>
        </g>
    </g>
</svg>