<?xml version="1.0" encoding="UTF-8"?>
<svg width="32px" height="32px" viewBox="0 0 32 32" version="1.1" xmlns="http://www.w3.org/2000/svg" xmlns:xlink="http://www.w3.org/1999/xlink">
    <title>31C2B837-BB3F-4AC4-A250-B07A36D30EA6</title>
    <g id="STDS_Icon" stroke="none" stroke-width="1" fill="none" fill-rule="evenodd">
        <g id="navigation" transform="translate(-364.000000, -1925.000000)" fill="#000000">
            <g id="ic_navigation_setting_line" transform="translate(300.000000, 1885.000000)">
                <g id="ic/navigation/setting/line" transform="translate(64.000000, 40.000000)">
                    <g id="ic_navigation_setting_line" transform="translate(2.000000, 2.000000)">
                        <path d="M15.4384472,0 C16.8150501,0 18.0149994,0.936892121 18.3488035,2.27210858 L18.3488035,2.27210858 L18.498,2.873 L18.8151548,3.00541777 C19.6284131,3.36205737 20.3988598,3.8081094 21.1128708,4.33436037 L21.1128708,4.33436037 L21.382,4.541 L21.9819681,4.36996061 C23.2453238,4.00856392 24.5887078,4.51217105 25.3068672,5.59558178 L25.3068672,5.59558178 L25.4051321,5.75426819 L26.8435792,8.24573181 C27.5318807,9.43790491 27.320483,10.9455376 26.3309398,11.9023388 L26.3309398,11.9023388 L25.883,12.334 L25.9268938,12.6686477 C25.959294,12.9619111 25.9809856,13.2571129 25.9918466,13.5538332 L25.9918466,13.5538332 L26,14 C26,14.447166 25.9754978,14.8913886 25.9269051,15.3312503 L25.9269051,15.3312503 L25.883,15.665 L26.3308428,16.0975675 C27.2733573,17.008896 27.5099829,18.4197599 26.9358007,19.5819053 L26.9358007,19.5819053 L26.8435792,19.7542682 L25.4051321,22.2457318 C24.7168306,23.4379049 23.3054836,24.0086454 21.9824203,23.6301686 L21.9824203,23.6301686 L21.382,23.458 L21.1126359,23.6658127 C20.3989036,24.1918316 19.6287829,24.6377161 18.8158811,24.9942637 L18.8158811,24.9942637 L18.499,25.126 L18.1595086,26.4850713 C17.9500182,27.3230327 17.2290747,27.9255988 16.3798608,27.9935894 L16.3798608,27.9935894 L16.2192236,28 L11.7807764,28 C10.8630411,28 10.0630749,27.3754053 9.84053366,26.4852402 L9.84053366,26.4852402 L9.5,25.126 L9.18484522,24.9945822 C8.37158686,24.6379426 7.60114018,24.1918906 6.88712921,23.6656396 L6.88712921,23.6656396 L6.617,23.458 L6.01803186,23.6300394 C4.75467623,23.9914361 3.41129221,23.487829 2.69313277,22.4044182 L2.69313277,22.4044182 L2.59486794,22.2457318 L1.15642075,19.7542682 C0.468119291,18.5620951 0.679517006,17.0544624 1.66906022,16.0976612 L1.66906022,16.0976612 L2.116,15.665 L2.07310617,15.3313523 C2.04070604,15.0380889 2.01901445,14.7428871 2.00815341,14.4461668 L2.00815341,14.4461668 L2,14 C2,13.5527994 2.02450597,13.1085427 2.07310617,12.6686477 L2.07310617,12.6686477 L2.116,12.334 L1.66915718,11.9024325 C0.726642728,10.991104 0.490017128,9.58024013 1.06419926,8.4180947 L1.06419926,8.4180947 L1.15642075,8.24573181 L2.59486794,5.75426819 C3.2831694,4.56209509 4.69451644,3.99135455 6.01800077,4.36995171 L6.01800077,4.36995171 L6.617,4.541 L6.88712921,4.33436037 C7.60114018,3.8081094 8.37158686,3.36205737 9.18484522,3.00541777 L9.18484522,3.00541777 L9.501,2.873 L9.65112531,2.27239312 C9.97048425,0.994957382 11.0822437,0.082222394 12.3830544,0.00526894659 L12.3830544,0.00526894659 L12.5615528,0 Z M15.4384472,2 L12.5615528,2 C12.1026852,2 11.7027021,2.31229737 11.5913391,2.75774892 L11.5913391,2.75774892 L11.1836139,4.38661921 L10.6763841,4.56530113 C9.51034518,4.97606188 8.43207342,5.60114826 7.49431617,6.40526023 L7.49431617,6.40526023 L7.08578569,6.75556863 L5.46797339,6.29283233 C5.02680158,6.16663031 4.55635257,6.35687716 4.32691875,6.75426819 L4.32691875,6.75426819 L2.88847156,9.24573181 C2.65903774,9.64312284 2.72950365,10.1456671 3.05948066,10.4647258 L3.05948066,10.4647258 L4.26677862,11.6323918 L4.16865093,12.1604757 C4.05677794,12.7625312 4,13.3773825 4,14 C4,14.6226175 4.05677794,15.2374688 4.16865093,15.8395243 L4.16865093,15.8395243 L4.26677862,16.3676082 L3.0593837,17.535368 C2.72950365,17.8543329 2.65903774,18.3568772 2.88847156,18.7542682 L2.88847156,18.7542682 L4.32691875,21.2457318 C4.55635257,21.6431228 5.02680158,21.8333697 5.46800448,21.7071588 L5.46800448,21.7071588 L7.08578569,21.2444314 L7.49431617,21.5947398 C8.43207342,22.3988517 9.51034518,23.0239381 10.6763841,23.4346989 L10.6763841,23.4346989 L11.1836863,23.6134063 L11.7807764,26 L16.2192236,26 L16.817579,23.6130159 L17.3245249,23.4343786 C18.4900438,23.0236737 19.5678528,22.3988266 20.505269,21.5950954 L20.505269,21.5950954 L20.9135776,21.2450158 L22.5320266,21.7071677 C22.9731984,21.8333697 23.4436474,21.6431228 23.6730813,21.2457318 L23.6730813,21.2457318 L25.1115284,18.7542682 C25.3409623,18.3568772 25.2704964,17.8543329 24.9404375,17.5351951 L24.9404375,17.5351951 L23.7332699,16.3673892 L23.831375,15.839385 C23.9432308,15.2373739 24,14.6225694 24,14 C24,13.3773825 23.9432221,12.7625312 23.8313491,12.1604757 L23.8313491,12.1604757 L23.7332214,11.6323918 L24.9406163,10.464632 C25.2704964,10.1456671 25.3409623,9.64312284 25.1115284,9.24573181 L25.1115284,9.24573181 L23.6730813,6.75426819 C23.4436474,6.35687716 22.9731984,6.16663031 22.5319955,6.29284122 L22.5319955,6.29284122 L20.9142143,6.75556863 L20.5056838,6.40526023 C19.5679266,5.60114826 18.4896548,4.97606188 17.3236159,4.56530113 L17.3236159,4.56530113 L16.8163861,4.38661921 L16.4085897,2.75746437 C16.2972979,2.31229737 15.8973148,2 15.4384472,2 L15.4384472,2 Z M14,8 C17.3137085,8 20,10.6862915 20,14 C20,17.3137085 17.3137085,20 14,20 C10.6862915,20 8,17.3137085 8,14 C8,10.6862915 10.6862915,8 14,8 Z M14,10 C11.790861,10 10,11.790861 10,14 C10,16.209139 11.790861,18 14,18 C16.209139,18 18,16.209139 18,14 C18,11.790861 16.209139,10 14,10 Z" id="Combined-Shape"></path>
                    </g>
                </g>
            </g>
        </g>
    </g>
</svg>