<?xml version="1.0" encoding="UTF-8"?>
<svg width="32px" height="32px" viewBox="0 0 32 32" version="1.1" xmlns="http://www.w3.org/2000/svg" xmlns:xlink="http://www.w3.org/1999/xlink">
    <title>10D78191-CC67-41CA-A1C8-D6AA71C1D82C</title>
    <g id="STDS_Icon" stroke="none" stroke-width="1" fill="none" fill-rule="evenodd">
        <g id="navigation" transform="translate(-364.000000, -3725.000000)" fill="#000000">
            <g id="ic_navigation_board_timeline_line" transform="translate(300.000000, 3685.000000)">
                <g id="ic/navigation/board_timeline/line" transform="translate(64.000000, 40.000000)">
                    <g id="ic_navigation_board_timeline_line" transform="translate(4.000000, 2.000000)">
                        <path d="M21,0 C22.5976809,0 23.9036609,1.24891996 23.9949073,2.82372721 L24,3 L24,25 C24,26.5976809 22.75108,27.9036609 21.1762728,27.9949073 L21,28 L3,28 C1.40231912,28 0.0963391206,26.75108 0.00509269341,25.1762728 L0,25 L0,3 C0,1.40231912 1.24891996,0.0963391206 2.82372721,0.00509269341 L3,0 L21,0 Z M21,2 L3,2 C2.48716416,2 2.06449284,2.38604019 2.00672773,2.88337887 L2,3 L2,25 C2,25.5128358 2.38604019,25.9355072 2.88337887,25.9932723 L3,26 L21,26 C21.5128358,26 21.9355072,25.6139598 21.9932723,25.1166211 L22,25 L22,3 C22,2.48716416 21.6139598,2.06449284 21.1166211,2.00672773 L21,2 Z M19,13 C19.5128358,13 19.9355072,13.3860402 19.9932723,13.8833789 L20,14 L20,23 C20,23.5128358 19.6139598,23.9355072 19.1166211,23.9932723 L19,24 L5,24 C4.48716416,24 4.06449284,23.6139598 4.00672773,23.1166211 L4,23 L4,14 C4,13.4871642 4.38604019,13.0644928 4.88337887,13.0067277 L5,13 L19,13 Z M18,15 L6,15 L6,22 L18,22 L18,15 Z M7.5,4 C9.43299662,4 11,5.56700338 11,7.5 C11,9.43299662 9.43299662,11 7.5,11 C5.56700338,11 4,9.43299662 4,7.5 C4,5.56700338 5.56700338,4 7.5,4 Z M17,8 C17.5522847,8 18,8.44771525 18,9 C18,9.51283584 17.6139598,9.93550716 17.1166211,9.99327227 L17,10 L14,10 C13.4477153,10 13,9.55228475 13,9 C13,8.48716416 13.3860402,8.06449284 13.8833789,8.00672773 L14,8 L17,8 Z M7.5,6 C6.67157288,6 6,6.67157288 6,7.5 C6,8.32842712 6.67157288,9 7.5,9 C8.32842712,9 9,8.32842712 9,7.5 C9,6.67157288 8.32842712,6 7.5,6 Z M19,4 C19.5522847,4 20,4.44771525 20,5 C20,5.51283584 19.6139598,5.93550716 19.1166211,5.99327227 L19,6 L14,6 C13.4477153,6 13,5.55228475 13,5 C13,4.48716416 13.3860402,4.06449284 13.8833789,4.00672773 L14,4 L19,4 Z" id="Shape"></path>
                    </g>
                </g>
            </g>
        </g>
    </g>
</svg>