<?xml version="1.0" encoding="UTF-8"?>
<svg width="32px" height="32px" viewBox="0 0 32 32" version="1.1" xmlns="http://www.w3.org/2000/svg" xmlns:xlink="http://www.w3.org/1999/xlink">
    <title>638CC722-BCC1-4FCD-AF49-49260837D09A</title>
    <g id="STDS_Icon" stroke="none" stroke-width="1" fill="none" fill-rule="evenodd">
        <g id="navigation" transform="translate(-364.000000, -4445.000000)" fill="#000000">
            <g id="ic_navigation_quizpop_line" transform="translate(300.000000, 4405.000000)">
                <g id="ic/navigation/quizpop/line" transform="translate(64.000000, 40.000000)">
                    <g id="ic_navigation_quizpop_line" transform="translate(2.000000, 2.000000)">
                        <path d="M14,0 C21.7319865,0 28,6.2680135 28,14 C28,21.7319865 21.7319865,28 14,28 C6.2680135,28 0,21.7319865 0,14 C0,6.2680135 6.2680135,0 14,0 Z M14,2 C7.372583,2 2,7.372583 2,14 C2,20.627417 7.372583,26 14,26 C20.627417,26 26,20.627417 26,14 C26,7.372583 20.627417,2 14,2 Z M19.5,18 C20.3284271,18 21,18.6715729 21,19.5 C21,20.3284271 20.3284271,21 19.5,21 C18.6715729,21 18,20.3284271 18,19.5 C18,18.6715729 18.6715729,18 19.5,18 Z M16.1648439,7.67956254 C18.1750252,9.68974379 18.3404006,12.8501972 16.7249734,15.1695787 L16.6645707,15.2514418 L17.2071068,15.7928932 C17.5697365,16.1555229 17.5956386,16.7273683 17.2848131,17.119886 L17.2071068,17.2071068 C16.8444771,17.5697365 16.2726317,17.5956386 15.880114,17.2848131 L15.7928932,17.2071068 L14.6017658,16.0159793 C14.2112415,15.625455 14.2112415,14.9922901 14.6017658,14.6017658 C16.1705057,13.0330258 16.2235452,10.5666909 14.7506304,9.0937761 C13.2777155,7.62086126 10.8113807,7.67390072 9.24264069,9.24264069 C7.67390072,10.8113807 7.62086126,13.2777155 9.0937761,14.7506304 C9.48430039,15.1411546 9.48430039,15.7743196 9.0937761,16.1648439 C8.70325181,16.5553682 8.07008683,16.5553682 7.67956254,16.1648439 C5.41166574,13.8969471 5.49192417,10.1649301 7.82842712,7.82842712 C10.1649301,5.49192417 13.8969471,5.41166574 16.1648439,7.67956254 Z" id="Shape"></path>
                    </g>
                </g>
            </g>
        </g>
    </g>
</svg>