<?xml version="1.0" encoding="UTF-8"?>
<svg width="32px" height="32px" viewBox="0 0 32 32" version="1.1" xmlns="http://www.w3.org/2000/svg" xmlns:xlink="http://www.w3.org/1999/xlink">
    <title>51B45CB4-D2B6-42BA-A932-1CA3418CFD07</title>
    <g id="STDS_Icon" stroke="none" stroke-width="1" fill="none" fill-rule="evenodd">
        <g id="navigation" transform="translate(-364.000000, -1565.000000)" fill="#000000">
            <g id="ic_navigation_search_line" transform="translate(300.000000, 1525.000000)">
                <g id="ic/navigation/search/line" transform="translate(64.000000, 40.000000)">
                    <g id="ic_navigation_search_line" transform="translate(2.000000, 2.000000)">
                        <path d="M11,0 C17.07475,0 22,4.92525 22,11 C22,13.6771735 21.043413,16.1310899 19.4534212,18.038567 L25.7071068,24.2928932 C26.0976311,24.6834175 26.0976311,25.3165825 25.7071068,25.7071068 C25.3466228,26.0675907 24.7793918,26.0953203 24.3871006,25.7902954 L24.2928932,25.7071068 L18.038567,19.4534212 C16.1310899,21.043413 13.6771735,22 11,22 C4.92525,22 0,17.07475 0,11 C0,4.92525 4.92525,0 11,0 Z M11,2 C6.0298195,2 2,6.0298195 2,11 C2,15.9701805 6.0298195,20 11,20 C15.9701805,20 20,15.9701805 20,11 C20,6.0298195 15.9701805,2 11,2 Z" id="Shape"></path>
                    </g>
                </g>
            </g>
        </g>
    </g>
</svg>