<?xml version="1.0" encoding="UTF-8"?>
<svg width="32px" height="32px" viewBox="0 0 32 32" version="1.1" xmlns="http://www.w3.org/2000/svg" xmlns:xlink="http://www.w3.org/1999/xlink">
    <title>E83330B2-301F-4F38-80AF-881469CA6CE6</title>
    <g id="STDS_Icon" stroke="none" stroke-width="1" fill="none" fill-rule="evenodd">
        <g id="navigation" transform="translate(-364.000000, -665.000000)" fill="#000000">
            <g id="ic_navigation_language_line" transform="translate(300.000000, 625.000000)">
                <g id="ic/navigation/language/line" transform="translate(64.000000, 40.000000)">
                    <g id="ic_navigation_language_line" transform="translate(2.000000, 2.000000)">
                        <path d="M14,0 C21.3957984,0 27.4521638,5.73479477 27.9648454,13.0001337 L28,13 L28,15 L27.9647748,15.0008661 C27.4516081,22.2657313 21.3954592,28 14,28 C6.60454082,28 0.548391851,22.2657313 0.0352252001,15.0008661 L0,15 L0,13 L0.0351546158,13.0001337 C0.547836244,5.73479477 6.60420158,0 14,0 Z M8.04736299,15.0007422 L2.0411123,15.0004669 C2.4988923,20.5468027 6.72852069,25.0235403 12.1589733,25.8596555 C9.75940275,22.666591 8.33085101,18.9128092 8.04736299,15.0007422 Z M25.9588877,15.0004669 L19.952637,15.0007422 C19.669149,18.9128092 18.2405972,22.666591 15.8409034,25.8581013 C21.1727416,25.0387141 25.346906,20.7083892 25.9301927,15.3019181 L25.9588877,15.0004669 Z M17.9524265,15.0006849 L10.0531962,15.0006849 C10.3410859,18.5737226 11.6909725,22.0002402 13.9448992,24.9011708 L14,24.971 L14.0551008,24.9015102 C16.3240716,21.9828986 17.6768938,18.5399926 17.9524265,15.0006849 Z M12.1590966,2.14189866 L11.9076368,2.18178477 C6.59814074,3.11538353 2.49130311,7.53960213 2.04102967,13.0005348 L8.04729051,13.0002584 C8.31927476,9.24432795 9.64674335,5.6342663 11.8757822,2.52758605 L12.1590966,2.14189866 Z M14,3.028 L13.9448992,3.09848983 C11.6757225,6.0173662 10.3228607,9.46063219 10.0474985,13.0001797 L17.9468844,13.0003165 C17.6708567,9.57210982 16.4171834,6.27875121 14.3253783,3.45504722 L14,3.028 Z M15.8410267,2.14034454 L16.1078082,2.50474725 C18.3467418,5.6165672 19.6800585,9.23512037 19.9527095,13.0002584 L25.9589703,13.0005348 C25.5016169,7.4537363 21.2718062,2.97651005 15.8410267,2.14034454 Z"></path>
                    </g>
                </g>
            </g>
        </g>
    </g>
</svg>