<?xml version="1.0" encoding="UTF-8"?>
<svg width="32px" height="32px" viewBox="0 0 32 32" version="1.1" xmlns="http://www.w3.org/2000/svg" xmlns:xlink="http://www.w3.org/1999/xlink">
    <title>96ABBF7F-CC15-44EA-ABF7-8926A9261CFB</title>
    <g id="STDS_Icon" stroke="none" stroke-width="1" fill="none" fill-rule="evenodd">
        <g id="navigation" transform="translate(-364.000000, -2645.000000)" fill="#000000">
            <g id="ic_navigation_logout_line" transform="translate(300.000000, 2605.000000)">
                <g id="ic/navigation/logout/line" transform="translate(64.000000, 40.000000)">
                    <g id="ic_navigation_logout_line" transform="translate(4.000000, 4.000000)">
                        <path d="M12,0 C12.5522847,0 13,0.44771525 13,1 C13,1.51283584 12.6139598,1.93550716 12.1166211,1.99327227 L12,2 L3,2 C2.48716416,2 2.06449284,2.38604019 2.00672773,2.88337887 L2,3 L2,21 C2,21.5128358 2.38604019,21.9355072 2.88337887,21.9932723 L3,22 L12,22 C12.5522847,22 13,22.4477153 13,23 C13,23.5128358 12.6139598,23.9355072 12.1166211,23.9932723 L12,24 L3,24 C1.40231912,24 0.0963391206,22.75108 0.00509269341,21.1762728 L0,21 L0,3 C0,1.40231912 1.24891996,0.0963391206 2.82372721,0.00509269341 L3,0 L12,0 Z M17.6128994,5.20970461 L17.7071068,5.29289322 L23.7071068,11.2928932 C23.7425008,11.3282873 23.774687,11.3656744 23.8036654,11.4046934 L23.8753288,11.5159379 L23.8753288,11.5159379 L23.9287745,11.628664 L23.9287745,11.628664 L23.9641549,11.734007 L23.9641549,11.734007 L23.9930928,11.8819045 L23.9930928,11.8819045 L24,12 L24,12 L23.9972121,12.0752385 L23.9972121,12.0752385 L23.9797599,12.2007258 L23.9797599,12.2007258 L23.9502619,12.3121425 L23.9502619,12.3121425 L23.9063266,12.4232215 L23.9063266,12.4232215 L23.8540045,12.5207088 L23.8540045,12.5207088 L23.7803112,12.625449 L23.7803112,12.625449 L23.7071068,12.7071068 L17.7071068,18.7071068 C17.3165825,19.0976311 16.6834175,19.0976311 16.2928932,18.7071068 C15.9324093,18.3466228 15.9046797,17.7793918 16.2097046,17.3871006 L16.2928932,17.2928932 L20.585,13 L9,13 C8.44771525,13 8,12.5522847 8,12 C8,11.4871642 8.38604019,11.0644928 8.88337887,11.0067277 L9,11 L20.585,11 L16.2928932,6.70710678 C15.9324093,6.34662282 15.9046797,5.77939176 16.2097046,5.38710056 L16.2928932,5.29289322 C16.6533772,4.93240926 17.2206082,4.90467972 17.6128994,5.20970461 Z" id="Shape"></path>
                    </g>
                </g>
            </g>
        </g>
    </g>
</svg>