<?xml version="1.0" encoding="UTF-8"?>
<svg width="32px" height="32px" viewBox="0 0 32 32" version="1.1" xmlns="http://www.w3.org/2000/svg" xmlns:xlink="http://www.w3.org/1999/xlink">
    <title>879BA215-1627-41E9-8703-362221287668</title>
    <g id="STDS_Icon" stroke="none" stroke-width="1" fill="none" fill-rule="evenodd">
        <g id="media" transform="translate(-784.000000, -4085.000000)" fill="#000000">
            <g id="ic_media_av_pip_on_fill" transform="translate(720.000000, 4045.000000)">
                <g id="ic/media/av/pip_on/fill" transform="translate(64.000000, 40.000000)">
                    <g id="ic_media_av_pip_on_fill" transform="translate(3.000000, 4.000000)">
                        <path d="M26,16 C26.5522847,16 27,16.4477153 27,17 L27,23 C27,23.5522847 26.5522847,24 26,24 L18,24 C17.4477153,24 17,23.5522847 17,23 L17,17 C17,16.4477153 17.4477153,16 18,16 L26,16 Z M23,0 C24.6568542,0 26,1.34314575 26,3 L26,14 L17,14 C15.9456382,14 15.0818349,14.8158778 15.0054857,15.8507377 L15,16 L15,22 L3,22 C1.34314575,22 0,20.6568542 0,19 L0,3 C0,1.34314575 1.34314575,0 3,0 L23,0 Z M4.79289322,4.79289322 C4.43240926,5.15337718 4.40467972,5.72060824 4.70970461,6.11289944 L4.79289322,6.20710678 L9.585,11 L6,11 L5.88337887,11.0067277 C5.38604019,11.0644928 5,11.4871642 5,12 C5,12.5128358 5.38604019,12.9355072 5.88337887,12.9932723 L6,13 L12,13 L12.1166211,12.9932723 C12.575703,12.9399506 12.9399506,12.575703 12.9932723,12.1166211 L13,12 L13,6 L12.9932723,5.88337887 C12.9399506,5.42429701 12.575703,5.06004937 12.1166211,5.00672773 L12,5 L11.8833789,5.00672773 C11.424297,5.06004937 11.0600494,5.42429701 11.0067277,5.88337887 L11,6 L11,9.585 L6.20710678,4.79289322 L6.11289944,4.70970461 C5.72060824,4.40467972 5.15337718,4.43240926 4.79289322,4.79289322 Z" id="Shape"></path>
                    </g>
                </g>
            </g>
        </g>
    </g>
</svg>