<?xml version="1.0" encoding="UTF-8"?>
<svg width="32px" height="32px" viewBox="0 0 32 32" version="1.1" xmlns="http://www.w3.org/2000/svg" xmlns:xlink="http://www.w3.org/1999/xlink">
    <title>07EC12B3-1041-4E75-A40F-8A4CE0BB3CCC</title>
    <g id="STDS_Icon" stroke="none" stroke-width="1" fill="none" fill-rule="evenodd">
        <g id="media" transform="translate(-784.000000, -4707.000000)" fill="#000000">
            <g id="ic_media_image_image_miss_fill" transform="translate(720.000000, 4667.000000)">
                <g id="ic/media/image/image_miss/fill" transform="translate(64.000000, 40.000000)">
                    <g id="ic_media_image_image_miss_fill" transform="translate(3.000000, 3.000000)">
                        <path d="M25.7071068,0.292893219 C26.0675907,0.65337718 26.0953203,1.22060824 25.7902954,1.61289944 L25.7071068,1.70710678 L25,2.414 L25,18.075 L19.2120766,12.2879234 L19.1178693,12.2047348 C18.758269,11.9251286 18.2516707,11.9251286 17.8920704,12.2047348 L17.7978631,12.2879234 L5.084,25 L2.414,25 L1.70710678,25.7071068 C1.31658249,26.0976311 0.683417511,26.0976311 0.292893219,25.7071068 C-0.0675907428,25.3466228 -0.0953202783,24.7793918 0.209704612,24.3871006 L0.292893219,24.2928932 L24.2928932,0.292893219 C24.6834175,-0.0976310729 25.3165825,-0.0976310729 25.7071068,0.292893219 Z M18.505,14.41 L25,20.905 L25,22 C25,23.6568542 23.6568542,25 22,25 L7.914,25 L18.505,14.41 Z M20.785,1 L1,20.785 L1,4 C1,2.34314575 2.34314575,1 4,1 L20.785,1 Z M8.5,7 C7.67157288,7 7,7.67157288 7,8.5 C7,9.32842712 7.67157288,10 8.5,10 C9.32842712,10 10,9.32842712 10,8.5 C10,7.67157288 9.32842712,7 8.5,7 Z" id="Shape"></path>
                    </g>
                </g>
            </g>
        </g>
    </g>
</svg>