<?xml version="1.0" encoding="UTF-8"?>
<svg width="32px" height="32px" viewBox="0 0 32 32" version="1.1" xmlns="http://www.w3.org/2000/svg" xmlns:xlink="http://www.w3.org/1999/xlink">
    <title>734EFC09-9A46-48DC-B8E0-F88EB566FD45</title>
    <g id="STDS_Icon" stroke="none" stroke-width="1" fill="none" fill-rule="evenodd">
        <g id="media" transform="translate(-784.000000, -1385.000000)" fill="#000000">
            <g id="ic_media_av_play_circle_fill" transform="translate(720.000000, 1345.000000)">
                <g id="ic/media/av/play_circle/fill" transform="translate(64.000000, 40.000000)">
                    <g id="ic_media_av_play_circle_fill" transform="translate(2.000000, 2.000000)">
                        <path d="M14,0 C21.7319865,0 28,6.2680135 28,14 C28,21.7319865 21.7319865,28 14,28 C6.2680135,28 0,21.7319865 0,14 C0,6.2680135 6.2680135,0 14,0 Z M10.9723116,8 C10.4736753,8 10.0627071,8.3809991 10.0065415,8.87184332 L10,8.98694155 L10,19.0129737 C10,19.2154666 10.0613622,19.4130589 10.1757629,19.5789475 C10.46002,19.9911392 10.9984675,20.1153794 11.4256339,19.8862027 L11.5298956,19.8215077 L18.585189,14.8084917 C18.6781822,14.742417 18.7590584,14.6603238 18.8241536,14.5659314 C19.1084107,14.1537397 19.0391152,13.5976783 18.680762,13.2687178 L18.585189,13.1914236 L11.5298956,8.17840753 C11.3664661,8.06228549 11.1718028,8 10.9723116,8 Z" id="Shape"></path>
                    </g>
                </g>
            </g>
        </g>
    </g>
</svg>