<?xml version="1.0" encoding="UTF-8"?>
<svg width="32px" height="32px" viewBox="0 0 32 32" version="1.1" xmlns="http://www.w3.org/2000/svg" xmlns:xlink="http://www.w3.org/1999/xlink">
    <title>BC47078D-B4E8-402C-9BAE-4F7A8153DF55</title>
    <g id="STDS_Icon" stroke="none" stroke-width="1" fill="none" fill-rule="evenodd">
        <g id="media" transform="translate(-784.000000, -5247.000000)" fill="#000000">
            <g id="ic_media_image_camera_fill" transform="translate(720.000000, 5207.000000)">
                <g id="ic/media/image/camera/fill" transform="translate(64.000000, 40.000000)">
                    <g id="ic_media_image_camera_fill" transform="translate(3.000000, 4.000000)">
                        <path d="M15.8393549,0 C16.8486398,0 17.7853796,0.507004272 18.3386379,1.34056947 L18.4440844,1.51158318 L19.581,3.5 L23,3.5 C24.5385075,3.5 25.8065215,4.65812057 25.9798168,6.15013662 L25.9949073,6.32372721 L26,6.5 L26,21 C26,22.5976809 24.75108,23.9036609 23.1762728,23.9949073 L23,24 L3,24 C1.40231912,24 0.0963391206,22.75108 0.00509269341,21.1762728 L0,21 L0,6.5 C0,4.90231912 1.24891996,3.59633912 2.82372721,3.50509269 L3,3.5 L6.418,3.5 L7.55591564,1.51158318 C8.02327814,0.693698817 8.84275291,0.149806217 9.76153722,0.0266125102 L9.95984749,0.00670659226 L10.1606451,0 L15.8393549,0 Z M13,7 C9.6862915,7 7,9.6862915 7,13 C7,16.3137085 9.6862915,19 13,19 C16.3137085,19 19,16.3137085 19,13 C19,9.6862915 16.3137085,7 13,7 Z M13,9 C15.209139,9 17,10.790861 17,13 C17,15.209139 15.209139,17 13,17 C10.790861,17 9,15.209139 9,13 C9,10.790861 10.790861,9 13,9 Z" id="Shape"></path>
                    </g>
                </g>
            </g>
        </g>
    </g>
</svg>