<?xml version="1.0" encoding="UTF-8"?>
<svg width="32px" height="32px" viewBox="0 0 32 32" version="1.1" xmlns="http://www.w3.org/2000/svg" xmlns:xlink="http://www.w3.org/1999/xlink">
    <title>AC84E7D3-8896-4097-9E93-6C6B561692E3</title>
    <g id="STDS_Icon" stroke="none" stroke-width="1" fill="none" fill-rule="evenodd">
        <g id="media" transform="translate(-784.000000, -2465.000000)" fill="#000000">
            <g id="ic_media_av_mic_off_fill" transform="translate(720.000000, 2425.000000)">
                <g id="ic/media/av/mic_off/fill" transform="translate(64.000000, 40.000000)">
                    <g id="ic_media_av_mic_off_fill" transform="translate(4.000000, 2.000000)">
                        <path d="M23.7071068,2.29289322 C24.0675907,2.65337718 24.0953203,3.22060824 23.7902954,3.61289944 L23.7071068,3.70710678 L19,8.414 L19,12 C19,15.8659932 15.8659932,19 12,19 C10.9499684,19 9.9539358,18.7688028 9.06003048,18.3545368 L7.5766999,19.8398271 C8.88300169,20.5784402 10.3922706,21 12,21 C16.9705627,21 21,16.9705627 21,12 C21,11.4477153 21.4477153,11 22,11 C22.5522847,11 23,11.4477153 23,12 C23,17.7388175 18.6053132,22.4512009 12.9977284,22.9553615 L13,23 L13,27 C13,27.5522847 12.5522847,28 12,28 C11.4871642,28 11.0644928,27.6139598 11.0067277,27.1166211 L11,27 L11,23 L11.0021749,22.9553528 C9.21723224,22.7948583 7.55518334,22.2079848 6.11864532,21.2973494 L1.70710678,25.7071068 C1.31658249,26.0976311 0.683417511,26.0976311 0.292893219,25.7071068 C-0.0675907428,25.3466228 -0.0953202783,24.7793918 0.209704612,24.3871006 L0.292893219,24.2928932 L22.2928932,2.29289322 C22.6834175,1.90236893 23.3165825,1.90236893 23.7071068,2.29289322 Z M2,11 C2.55228475,11 3,11.4477153 3,12 C3,13.9196536 3.60100629,15.6989347 4.62512005,17.1599444 L3.19305638,18.5918204 C1.81585417,16.7547706 1,14.4726618 1,12 C1,11.4477153 1.44771525,11 2,11 Z M12,0 C14.6492847,0 16.954823,1.47175328 18.1436153,3.6422602 L6.06825668,15.7185171 C5.39142676,14.6411164 5,13.3662695 5,12 L5,7 C5,3.13400675 8.13400675,0 12,0 Z" id="Shape"></path>
                    </g>
                </g>
            </g>
        </g>
    </g>
</svg>