<?xml version="1.0" encoding="UTF-8"?>
<svg width="32px" height="32px" viewBox="0 0 32 32" version="1.1" xmlns="http://www.w3.org/2000/svg" xmlns:xlink="http://www.w3.org/1999/xlink">
    <title>1A165A46-D22D-492F-A3BD-0C85CF469677</title>
    <g id="STDS_Icon" stroke="none" stroke-width="1" fill="none" fill-rule="evenodd">
        <g id="media" transform="translate(-784.000000, -5427.000000)" fill="#000000">
            <g id="ic_media_image_camera_switch_fill" transform="translate(720.000000, 5387.000000)">
                <g id="ic/media/image/camera_switch/fill" transform="translate(64.000000, 40.000000)">
                    <g id="ic_media_image_camera_switch_fill" transform="translate(3.000000, 4.000000)">
                        <path d="M15.8393549,0 C16.9159255,0 17.9099558,0.576858193 18.4440844,1.51158318 L18.4440844,1.51158318 L19.581,3.5 L23,3.5 C24.5976809,3.5 25.9036609,4.74891996 25.9949073,6.32372721 L25.9949073,6.32372721 L26,6.5 L26,21 C26,22.6568542 24.6568542,24 23,24 L23,24 L3,24 C1.34314575,24 0,22.6568542 0,21 L0,21 L0,6.5 C0,4.84314575 1.34314575,3.5 3,3.5 L3,3.5 L6.418,3.5 L7.55591564,1.51158318 C8.05666118,0.635278505 8.96161723,0.0735051914 9.95984749,0.00670659226 L9.95984749,0.00670659226 L10.1606451,0 Z M7.57998859,10.4079606 C6.51439924,12.6382707 6.90528328,15.3905647 8.75264069,17.2379221 C11.0957864,19.5810678 14.8947763,19.5810678 17.2379221,17.2379221 L17.2379221,17.2379221 L15.8237085,15.8237085 L15.67908,15.961414 C14.109008,17.3843712 11.6816151,17.3384694 10.1668542,15.8237085 C9.66715264,15.3240069 9.32730133,14.724987 9.14730032,14.0901911 L9.14730032,14.0901911 L10.6451008,13.4735279 Z M17.2379221,8.75264069 C14.8947763,6.40949494 11.0957864,6.40949494 8.75264069,8.75264069 L8.75264069,8.75264069 L10.1668542,10.1668542 L10.3114828,10.0291487 C11.8815547,8.60619152 14.3089476,8.65209336 15.8237085,10.1668542 C16.3241764,10.6673222 16.6643034,11.2674131 16.8440894,11.9032923 L16.8440894,11.9032923 L15.3483622,12.5199351 L17.7357971,14.9073699 L17.734311,14.9058839 L18.4110348,15.5816377 C19.4760508,13.3514987 19.0850132,10.5997318 17.2379221,8.75264069 Z" id="Combined-Shape"></path>
                    </g>
                </g>
            </g>
        </g>
    </g>
</svg>