<?xml version="1.0" encoding="UTF-8"?>
<svg width="32px" height="32px" viewBox="0 0 32 32" version="1.1" xmlns="http://www.w3.org/2000/svg" xmlns:xlink="http://www.w3.org/1999/xlink">
    <title>C545A22F-6FEC-4062-A6FE-FFC28FF81850</title>
    <g id="STDS_Icon" stroke="none" stroke-width="1" fill="none" fill-rule="evenodd">
        <g id="navigation" transform="translate(-364.000000, -2285.000000)" fill="#000000">
            <g id="ic_navigation_stove_line" transform="translate(300.000000, 2245.000000)">
                <g id="ic/navigation/stove/line" transform="translate(64.000000, 40.000000)">
                    <g id="ic_navigation_stove_line" transform="translate(2.000000, 2.000000)">
                        <path d="M14,0 C21.7319865,0 28,6.2680135 28,14 C28,21.7319865 21.7319865,28 14,28 C6.2680135,28 0,21.7319865 0,14 C0,6.2680135 6.2680135,0 14,0 Z M14,2 C7.372583,2 2,7.372583 2,14 C2,20.627417 7.372583,26 14,26 C20.627417,26 26,20.627417 26,14 C26,7.372583 20.627417,2 14,2 Z M14.0700857,7.5 C15.0466849,7.5 17.0360441,7.712147 17.8173883,8.51104412 C18.1192462,8.81965772 18.2679718,9.20088628 18.2679718,9.69110355 C18.2679718,10.4536269 17.7595829,11.0220908 16.9427261,11.0220908 C16.3745229,11.0220908 15.3484133,10.4984812 13.981304,10.4984812 C13.1289344,10.4984812 12.4880857,10.630659 12.4880857,11.1801741 C12.4880857,11.2921443 12.517442,11.4002054 12.6025948,11.530528 C12.6470504,11.5986377 12.7086144,11.6658861 12.7873515,11.7301529 C12.7883884,11.7311468 12.7895549,11.7319418 12.7906565,11.7329356 C13.9329601,12.7214532 19,12.3444649 19,16.4696045 C19,19.2110844 16.698155,20.5 13.8392532,20.5 C11.8503477,20.5 9,19.7011691 9,17.9582775 C9,17.1595129 9.50385261,16.4705983 10.3207095,16.4705983 C11.1014056,16.4705983 12.2062523,17.4369206 14.1578306,17.4369206 C15.2309233,17.4369206 15.7382105,17.1997294 15.7382105,16.7056031 C15.7382105,16.4696045 15.6494288,16.3351078 15.507378,16.1898116 C14.3531505,15.0642796 9.26641004,15.2402517 9.26641004,11.2229083 C9.26641004,8.91718439 11.2466318,7.5 14.0700857,7.5 Z" id="Combined-Shape"></path>
                    </g>
                </g>
            </g>
        </g>
    </g>
</svg>