<?xml version="1.0" encoding="UTF-8"?>
<svg width="32px" height="32px" viewBox="0 0 32 32" version="1.1" xmlns="http://www.w3.org/2000/svg" xmlns:xlink="http://www.w3.org/1999/xlink">
    <title>48922DD4-F454-48D3-A9D0-E562B65E5A59</title>
    <g id="STDS_Icon" stroke="none" stroke-width="1" fill="none" fill-rule="evenodd">
        <g id="navigation" transform="translate(-364.000000, -485.000000)" fill="#000000">
            <g id="ic_navigation_alarm_disabled_line" transform="translate(300.000000, 445.000000)">
                <g id="ic/navigation/alarm_disabled/line" transform="translate(64.000000, 40.000000)">
                    <g id="ic_navigation_alarm_disabled_line" transform="translate(4.000000, 2.000000)">
                        <path d="M23.7071068,2.29289322 C24.0675907,2.65337718 24.0953203,3.22060824 23.7902954,3.61289944 L23.7071068,3.70710678 L21.2388318,6.17658601 L21.276467,6.2590276 L21.276467,6.2590276 C21.6555247,7.19816551 21.8900293,8.19237381 21.9699705,9.22846272 L21.9926838,9.61893345 L22,10 L22,11.7379092 C22,14.6946576 22.4107246,17.6357846 23.2169658,20.4694417 L23.3957801,21.0749755 L24.0061028,23 L17,23 C17,25.7614237 14.7614237,28 12,28 C9.23857625,28 7,25.7614237 7,23 L4.415,22.9990153 L1.70710678,25.7071068 C1.31658249,26.0976311 0.683417511,26.0976311 0.292893219,25.7071068 C-0.0675907428,25.3466228 -0.0953202783,24.7793918 0.209704612,24.3871006 L0.292893219,24.2928932 L22.2928932,2.29289322 C22.6834175,1.90236893 23.3165825,1.90236893 23.7071068,2.29289322 Z M15,22.9990153 L9,22.9990153 L9.00509269,23.1744869 C9.09295962,24.6927538 10.3072462,25.9070404 11.8237272,25.9949073 L12,26 C13.5976809,26 14.9036609,24.75108 14.9949073,23.1762728 L15,22.9990153 Z M19.676626,7.74008962 L6.415,20.9990153 L21.288,21 L21.1180926,20.376003 C20.4333886,17.7753974 20.0600592,15.1015937 20.0066755,12.4109015 L20,11.7379092 L20.0001942,10.0197052 L19.9936566,9.67809515 C19.9674652,9.01480825 19.8603492,8.36528415 19.676626,7.74008962 Z M12.0132004,1.53321967e-05 C14.4016703,0.0315468237 16.5664747,0.822496887 18.4105076,2.32466239 C18.8387013,2.67347272 18.9030542,3.30335889 18.5542439,3.73155254 C18.2054335,4.1597462 17.5755474,4.2240991 17.1473537,3.87528878 C15.6520713,2.65721854 13.9228028,2.02539931 12,1.9999282 C7.75298314,1.9999282 4.26492977,5.31476597 4.01469884,9.50181171 L4.00373258,9.74909612 L4,10 L4,11.7441081 C4,14.0349958 3.77031931,16.3192691 3.31488046,18.5627726 C3.20500591,19.1040174 2.67716931,19.4537122 2.13592442,19.3438376 C1.59467954,19.2339631 1.24498479,18.7061265 1.35485935,18.1648816 C1.73607058,16.2870252 1.94931372,14.3788365 1.99199477,12.4629023 L2,11.7441081 L2.00010453,9.98554163 L2.00425605,9.70569432 C2.16056874,4.30732959 6.58692286,1.53321967e-05 12.0132004,1.53321967e-05 Z" id="Shape"></path>
                    </g>
                </g>
            </g>
        </g>
    </g>
</svg>