<?xml version="1.0" encoding="UTF-8"?>
<svg width="32px" height="32px" viewBox="0 0 32 32" version="1.1" xmlns="http://www.w3.org/2000/svg" xmlns:xlink="http://www.w3.org/1999/xlink">
    <title>94D768F9-0F24-43E4-A4AD-0005F9E681EC</title>
    <g id="STDS_Icon" stroke="none" stroke-width="1" fill="none" fill-rule="evenodd">
        <g id="navigation" transform="translate(-364.000000, -1025.000000)" fill="#000000">
            <g id="ic_navigation_menu_line" transform="translate(300.000000, 985.000000)">
                <g id="ic/navigation/menu/line" transform="translate(64.000000, 40.000000)">
                    <g id="ic_navigation_menu_line" transform="translate(4.000000, 6.000000)">
                        <path d="M23,18 C23.5522847,18 24,18.4477153 24,19 C24,19.5128358 23.6139598,19.9355072 23.1166211,19.9932723 L23,20 L1,20 C0.44771525,20 0,19.5522847 0,19 C0,18.4871642 0.38604019,18.0644928 0.883378875,18.0067277 L1,18 L23,18 Z M23,9 C23.5522847,9 24,9.44771525 24,10 C24,10.5128358 23.6139598,10.9355072 23.1166211,10.9932723 L23,11 L1,11 C0.44771525,11 0,10.5522847 0,10 C0,9.48716416 0.38604019,9.06449284 0.883378875,9.00672773 L1,9 L23,9 Z M23,0 C23.5522847,0 24,0.44771525 24,1 C24,1.51283584 23.6139598,1.93550716 23.1166211,1.99327227 L23,2 L1,2 C0.44771525,2 0,1.55228475 0,1 C0,0.487164161 0.38604019,0.0644928393 0.883378875,0.00672773133 L1,0 L23,0 Z" id="Shape"></path>
                    </g>
                </g>
            </g>
        </g>
    </g>
</svg>