<?xml version="1.0" encoding="UTF-8"?>
<svg width="32px" height="32px" viewBox="0 0 32 32" version="1.1" xmlns="http://www.w3.org/2000/svg" xmlns:xlink="http://www.w3.org/1999/xlink">
    <title>3099BE63-58EF-43B9-9223-8F59ACE46FAD</title>
    <g id="STDS_Icon" stroke="none" stroke-width="1" fill="none" fill-rule="evenodd">
        <g id="navigation" transform="translate(-364.000000, -1205.000000)" fill="#000000">
            <g id="ic_navigation_option-_vertical_line" transform="translate(300.000000, 1165.000000)">
                <g id="ic/navigation/option_vertical/line" transform="translate(64.000000, 40.000000)">
                    <g id="ic_navigation_option-_vertical_line" transform="translate(13.000000, 4.000000)">
                        <path d="M3,18 C4.65685425,18 6,19.3431458 6,21 C6,22.6568542 4.65685425,24 3,24 C1.34314575,24 0,22.6568542 0,21 C0,19.3431458 1.34314575,18 3,18 Z M3,20 C2.44771525,20 2,20.4477153 2,21 C2,21.5522847 2.44771525,22 3,22 C3.55228475,22 4,21.5522847 4,21 C4,20.4477153 3.55228475,20 3,20 Z M3,9 C4.65685425,9 6,10.3431458 6,12 C6,13.6568542 4.65685425,15 3,15 C1.34314575,15 0,13.6568542 0,12 C0,10.3431458 1.34314575,9 3,9 Z M3,11 C2.44771525,11 2,11.4477153 2,12 C2,12.5522847 2.44771525,13 3,13 C3.55228475,13 4,12.5522847 4,12 C4,11.4477153 3.55228475,11 3,11 Z M3,0 C4.65685425,0 6,1.34314575 6,3 C6,4.65685425 4.65685425,6 3,6 C1.34314575,6 0,4.65685425 0,3 C0,1.34314575 1.34314575,0 3,0 Z M3,2 C2.44771525,2 2,2.44771525 2,3 C2,3.55228475 2.44771525,4 3,4 C3.55228475,4 4,3.55228475 4,3 C4,2.44771525 3.55228475,2 3,2 Z" id="Shape"></path>
                    </g>
                </g>
            </g>
        </g>
    </g>
</svg>