<?xml version="1.0" encoding="UTF-8"?>
<svg width="32px" height="32px" viewBox="0 0 32 32" version="1.1" xmlns="http://www.w3.org/2000/svg" xmlns:xlink="http://www.w3.org/1999/xlink">
    <title>12731486-E11A-489C-812C-5E4CF815F16C</title>
    <g id="STDS_Icon" stroke="none" stroke-width="1" fill="none" fill-rule="evenodd">
        <g id="navigation" transform="translate(-364.000000, -2825.000000)" fill="#000000">
            <g id="ic_navigation_coupon_line" transform="translate(300.000000, 2785.000000)">
                <g id="ic/navigation/coupon/line" transform="translate(64.000000, 40.000000)">
                    <g id="ic_navigation_coupon_line" transform="translate(2.000000, 6.000000)">
                        <path d="M25,0 C26.5976809,0 27.9038873,1.24891996 27.9951499,2.82365738 L28.0002435,2.99992211 L28.0002435,6.12587694 C28.0002435,6.58221294 27.6913805,6.98068998 27.2494406,7.09440761 C25.9357415,7.43244169 25,8.62319345 25,10 C25,11.3768065 25.9357415,12.5675583 27.2494406,12.9055924 C27.6545522,13.0098335 27.9478422,13.3533517 27.9939106,13.7613758 L28.0002435,13.8741231 L28.0002435,17 C28.0002435,18.5976809 26.7510971,19.9036609 25.1762737,19.9949073 L25,20 L3,20 C1.40231912,20 0.0963391206,18.75108 0.00509269341,17.1762728 L0,17 L0,3 C0,1.40231912 1.24891996,0.0963391206 2.82372721,0.00509269341 L3,0 L25,0 Z M25,2 L3,2 C2.48716416,2 2.06449284,2.38604019 2.00672773,2.88337887 L2,3 L2,17 C2,17.5128358 2.38604019,17.9355072 2.88337887,17.9932723 L3,18 L25,18 C25.5128358,18 25.9355072,17.6139598 25.9932723,17.1165588 L26,16.9999221 L26,14.582 L25.9100998,14.5437765 C24.3073511,13.8067201 23.1873767,12.2586324 23.0213663,10.463862 L23.0051615,10.2284089 L23,10 C23,8.09066109 24.0789807,6.39686539 25.7041478,5.55674607 L25.9100998,5.45622355 L26,5.417 L26,3 C26,2.52661307 25.6710663,2.13005271 25.2292908,2.02641071 L25.1166211,2.00672773 L25,2 Z M16.5,12 C17.3284271,12 18,12.6715729 18,13.5 C18,14.3284271 17.3284271,15 16.5,15 C15.6715729,15 15,14.3284271 15,13.5 C15,12.6715729 15.6715729,12 16.5,12 Z M17.2071068,5.79289322 C17.5675907,6.15337718 17.5953203,6.72060824 17.2902954,7.11289944 L17.2071068,7.20710678 L10.2071068,14.2071068 C9.81658249,14.5976311 9.18341751,14.5976311 8.79289322,14.2071068 C8.43240926,13.8466228 8.40467972,13.2793918 8.70970461,12.8871006 L8.79289322,12.7928932 L15.7928932,5.79289322 C16.1834175,5.40236893 16.8165825,5.40236893 17.2071068,5.79289322 Z M9.5,5 C10.3284271,5 11,5.67157288 11,6.5 C11,7.32842712 10.3284271,8 9.5,8 C8.67157288,8 8,7.32842712 8,6.5 C8,5.67157288 8.67157288,5 9.5,5 Z" id="Shape"></path>
                    </g>
                </g>
            </g>
        </g>
    </g>
</svg>