<?xml version="1.0" encoding="UTF-8"?>
<svg width="32px" height="32px" viewBox="0 0 32 32" version="1.1" xmlns="http://www.w3.org/2000/svg" xmlns:xlink="http://www.w3.org/1999/xlink">
    <title>57E39DAD-CCA4-4A43-A71A-A307DE7DEEDF</title>
    <g id="STDS_Icon" stroke="none" stroke-width="1" fill="none" fill-rule="evenodd">
        <g id="navigation" transform="translate(-364.000000, -3905.000000)" fill="#000000">
            <g id="ic_navigation_authenticator_line" transform="translate(300.000000, 3865.000000)">
                <g id="ic/navigation/authenticator/line" transform="translate(64.000000, 40.000000)">
                    <g id="ic_navigation_authenticator_line" transform="translate(3.000000, 2.000000)">
                        <path d="M12.3391995,0.249311148 C12.7169152,-0.0831037159 13.2827956,-0.0831037159 13.6605113,0.249311148 C16.1913743,2.47663822 21.2748786,3.82097614 24.9097849,3.49171015 C25.4562571,3.44220828 25.9323463,3.84053992 25.9933961,4.37185785 L26,4.48763246 L26,14.2236157 C26,18.7084983 23.5590027,22.2610375 19.5588353,24.9571819 C18.1860724,25.882435 16.7214479,26.6407248 15.2570427,27.2463382 L14.9536376,27.3695681 L14.9536376,27.3695681 L14.6593427,27.48474 L14.1003,27.691192 L13.8366601,27.7826134 L13.5561626,27.8753391 L13.272455,27.9621276 C13.1387845,28 12.9991945,28.0094683 12.8625644,27.9905312 L12.7272498,27.9621259 L12.4435478,27.875337 L11.8994223,27.6911895 L11.340392,27.4847371 C11.1473596,27.410626 10.9478846,27.3311901 10.7427055,27.246335 C9.27833354,26.6407207 7.81374244,25.8824299 6.4410109,24.9571757 C2.54620315,22.3319813 0.129550158,18.8948741 0.0050551308,14.5757492 L0,14.2236157 L0,4.48763246 C0,3.90270177 0.499847507,3.44264854 1.08277106,3.49106387 C4.95409417,3.8126007 9.76098694,2.51830901 12.3391995,0.249311148 Z M13.002,2.282 L12.8089396,2.42547832 C10.1086947,4.3593422 6.12981019,5.49395433 2.51231242,5.53848588 L2.09660593,5.53876995 L2,5.536 L2,14.2236157 C2,17.7176543 3.81699395,20.5738653 6.93852507,22.8627778 L7.24466397,23.0825169 L7.55884452,23.2987282 C8.81108136,24.1427661 10.1589564,24.8406273 11.5070505,25.398153 C11.8606121,25.544374 12.1946766,25.6726874 12.5042256,25.7835341 L12.8054171,25.888575 L13,25.953 L13.4955124,25.7835316 C13.8050696,25.6726846 14.1391426,25.544371 14.4927134,25.3981497 C15.840842,24.8406232 17.1887514,24.142761 18.4410202,23.298722 C21.8348848,21.0112304 23.8738856,18.1241005 23.9943449,14.5597591 L24,14.2236157 L24,5.538 L23.5574284,5.53976056 C20.1718363,5.49658845 16.2108197,4.4203018 13.5049923,2.63501976 L13.1864351,2.41740349 L13.002,2.282 Z M13.009892,6.99998384 L13.2506155,7.00447779 C14.0248847,7.03207421 14.7890721,7.18798967 15.5117315,7.46548457 C16.0273118,7.6634629 16.2847791,8.24191644 16.0868008,8.75749673 C15.8888224,9.27307701 15.3103689,9.53054426 14.7947886,9.33256594 C14.2785177,9.1343224 13.7325201,9.02292372 13.1795553,9.00321499 C10.4187331,8.90530723 8.10112874,11.0641151 8.00321497,13.8248945 C7.9053151,16.5854943 10.0639138,18.902712 12.8243179,19.0006083 C15.1026655,19.0814096 17.1306361,17.6142659 17.7862402,15.4662887 C17.9125245,15.0525393 17.9849639,14.6212854 18.0006281,14.1795372 C18.0201996,13.6275994 18.4834995,13.1960312 19.0354374,13.2156027 C19.5873753,13.2351743 20.0189434,13.6984742 19.9993719,14.250412 C19.9775238,14.8665505 19.8761209,15.4702335 19.699123,16.0501375 C18.7806457,19.0593747 15.942752,21.1124606 12.7534331,20.9993517 C8.8891769,20.862308 5.86742378,17.6185091 6.00447152,13.7540098 C6.13868015,9.96985974 9.25192302,6.99369651 13.009892,6.99998384 Z M20.2071068,8.29289322 C20.5675907,8.65337718 20.5953203,9.22060824 20.2902954,9.61289944 L20.2071068,9.70710678 L13.7071068,16.2071068 C13.3466228,16.5675907 12.7793918,16.5953203 12.3871006,16.2902954 L12.2928932,16.2071068 L10.2928932,14.2071068 C9.90236893,13.8165825 9.90236893,13.1834175 10.2928932,12.7928932 C10.6533772,12.4324093 11.2206082,12.4046797 11.6128994,12.7097046 L11.7071068,12.7928932 L13,14.085 L18.7928932,8.29289322 C19.1834175,7.90236893 19.8165825,7.90236893 20.2071068,8.29289322 Z" id="Shape"></path>
                    </g>
                </g>
            </g>
        </g>
    </g>
</svg>