<?xml version="1.0" encoding="UTF-8"?>
<svg width="32px" height="32px" viewBox="0 0 32 32" version="1.1" xmlns="http://www.w3.org/2000/svg" xmlns:xlink="http://www.w3.org/1999/xlink">
    <title>BA372310-3113-4194-9203-E595CBA1FEDF</title>
    <g id="STDS_Icon" stroke="none" stroke-width="1" fill="none" fill-rule="evenodd">
        <g id="navigation" transform="translate(-364.000000, -2465.000000)" fill="#000000">
            <g id="ic_navigation_login_line" transform="translate(300.000000, 2425.000000)">
                <g id="ic/navigation/login/line" transform="translate(64.000000, 40.000000)">
                    <g id="ic_navigation_login_line" transform="translate(4.000000, 4.000000)">
                        <path d="M12,0 C12.5522847,0 13,0.44771525 13,1 C13,1.51283584 12.6139598,1.93550716 12.1166211,1.99327227 L12,2 L3,2 C2.48716416,2 2.06449284,2.38604019 2.00672773,2.88337887 L2,3 L2,21 C2,21.5128358 2.38604019,21.9355072 2.88337887,21.9932723 L3,22 L12,22 C12.5522847,22 13,22.4477153 13,23 C13,23.5128358 12.6139598,23.9355072 12.1166211,23.9932723 L12,24 L3,24 C1.40231912,24 0.0963391206,22.75108 0.00509269341,21.1762728 L0,21 L0,3 C0,1.40231912 1.24891996,0.0963391206 2.82372721,0.00509269341 L3,0 L12,0 Z M14.7071068,5.29289322 C15.0675907,5.65337718 15.0953203,6.22060824 14.7902954,6.61289944 L14.7071068,6.70710678 L10.415,11 L23,11 C23.5522847,11 24,11.4477153 24,12 C24,12.5128358 23.6139598,12.9355072 23.1166211,12.9932723 L23,13 L10.415,13 L14.7071068,17.2928932 C15.0675907,17.6533772 15.0953203,18.2206082 14.7902954,18.6128994 L14.7071068,18.7071068 C14.3466228,19.0675907 13.7793918,19.0953203 13.3871006,18.7902954 L13.2928932,18.7071068 L7.29289322,12.7071068 C6.93240926,12.3466228 6.90467972,11.7793918 7.20970461,11.3871006 L7.29289322,11.2928932 L13.2928932,5.29289322 C13.6834175,4.90236893 14.3165825,4.90236893 14.7071068,5.29289322 Z" id="Shape"></path>
                    </g>
                </g>
            </g>
        </g>
    </g>
</svg>