<?xml version="1.0" encoding="UTF-8"?>
<svg width="32px" height="32px" viewBox="0 0 32 32" version="1.1" xmlns="http://www.w3.org/2000/svg" xmlns:xlink="http://www.w3.org/1999/xlink">
    <title>DE2079E4-8D72-437B-B1B2-6A7974F86854</title>
    <g id="STDS_Icon" stroke="none" stroke-width="1" fill="none" fill-rule="evenodd">
        <g id="navigation" transform="translate(-364.000000, -3005.000000)" fill="#000000">
            <g id="ic_navigation_message_line" transform="translate(300.000000, 2965.000000)">
                <g id="ic/navigation/message/line" transform="translate(64.000000, 40.000000)">
                    <g id="ic_navigation_message_line" transform="translate(3.000000, 4.000000)">
                        <path d="M23.0000187,0 C24.5976996,0 25.9036796,1.24891996 25.994926,2.82372721 L26.0000187,3 L26.0000187,18 C26.0000187,19.5976809 24.7510988,20.9036609 23.1762915,20.9949073 L23.0000187,21 L17.414,21 L13.7071068,24.7071068 C13.3766631,25.0375504 12.8724945,25.0883879 12.4885971,24.8596192 L12.3871006,24.7902954 L12.2928932,24.7071068 L8.585,21 L3,21 C1.46149248,21 0.193478518,19.8418794 0.020183194,18.3498634 L0.00509269341,18.1762728 L1.42108547e-14,18 L1.42108547e-14,3 C1.42108547e-14,1.40231912 1.24891996,0.0963391206 2.82372721,0.00509269341 L3,0 L23.0000187,0 Z M23.0000187,2 L3,2 C2.48716416,2 2.06449284,2.38604019 2.00672773,2.88337887 L2,3 L2,18 C2,18.5128358 2.38604019,18.9355072 2.88337887,18.9932723 L3,19 L9,19 C9.22101374,19 9.43448403,19.0731645 9.60802951,19.2060806 L9.70710678,19.2928932 L13,22.585 L16.2928932,19.2928932 C16.4179175,19.167869 16.5726384,19.079369 16.7404768,19.0342605 L16.868556,19.0086724 L17,19 L23.0000187,19 C23.5128546,19 23.9355259,18.6139598 23.993291,18.1166211 L24.0000187,18 L24.0000187,3 C24.0000187,2.48716416 23.6139785,2.06449284 23.1166399,2.00672773 L23.0000187,2 Z M19.6981638,6.28406191 C20.0631499,6.63998672 20.0980064,7.20682446 19.7979361,7.60291833 L19.7159381,7.69816377 L17.443,10.028 L19.7071068,12.2928932 C20.0976311,12.6834175 20.0976311,13.3165825 19.7071068,13.7071068 C19.3466228,14.0675907 18.7793918,14.0953203 18.3871006,13.7902954 L18.2928932,13.7071068 L16.046,11.461 L13.8648977,13.6981638 C13.5088954,14.0632295 12.9419074,14.0980108 12.5458166,13.7977664 L12.4505753,13.7157229 L10.045,11.369 L7.70710678,13.7071068 C7.31658249,14.0976311 6.68341751,14.0976311 6.29289322,13.7071068 C5.93240926,13.3466228 5.90467972,12.7793918 6.20970461,12.3871006 L6.29289322,12.2928932 L8.613,9.971 L6.30161562,7.71572289 C5.90633278,7.33001585 5.89857007,6.69689846 6.28427711,6.30161562 C6.64031438,5.93673915 7.20716283,5.90205735 7.60316421,6.20224975 L7.69838438,6.28427711 L13.131,11.585 L18.2840619,6.30183623 C18.6696471,5.90643454 19.3027621,5.89847671 19.6981638,6.28406191 Z" id="Shape"></path>
                    </g>
                </g>
            </g>
        </g>
    </g>
</svg>