<?xml version="1.0" encoding="UTF-8"?>
<svg width="32px" height="32px" viewBox="0 0 32 32" version="1.1" xmlns="http://www.w3.org/2000/svg" xmlns:xlink="http://www.w3.org/1999/xlink">
    <title>F4AB2A02-EFBD-4B45-961A-703F37B85018</title>
    <g id="STDS_Icon" stroke="none" stroke-width="1" fill="none" fill-rule="evenodd">
        <g id="navigation" transform="translate(-364.000000, -1745.000000)" fill="#000000">
            <g id="ic_navigation_home_line" transform="translate(300.000000, 1705.000000)">
                <g id="ic/navigation/home/line" transform="translate(64.000000, 40.000000)">
                    <g id="ic_navigation_home_line" transform="translate(4.000000, 3.000000)">
                        <path d="M9.94950141,0.810147141 L0.949501413,9.23741987 C0.343745792,9.8046274 0,10.5974147 0,11.4272727 L0,21.9997233 C0,23.6565776 1.34314575,24.9997233 3,24.9997233 L10,24.9997233 L10,18.9997233 L10.0046756,18.8523294 C10.064436,17.8282001 10.9393425,16.9997233 12,16.9997233 C13.1045695,16.9997233 14,17.8951538 14,18.9997233 L14,24.9997233 L21,24.9997233 C22.6568542,24.9997233 24,23.6565776 24,21.9997233 L24,11.4272727 C24,10.5974147 23.6562542,9.8046274 23.0504986,9.23741987 L14.0504986,0.810147141 C12.896891,-0.270049047 11.103109,-0.270049047 9.94950141,0.810147141 Z M12.6834995,2.27004905 L21.6834995,10.6973218 C21.8854181,10.886391 22,11.1506534 22,11.4272727 L22,21.9997233 L21.9932723,22.1163444 C21.9355072,22.6136831 21.5128358,22.9997233 21,22.9997233 L16,22.9990899 L16,18.9997233 C16,16.7905843 14.209139,14.9997233 12,14.9997233 C9.87822792,14.9997233 8.12899296,16.6561296 8.00676708,18.7656062 L8.00041708,18.9708444 L8,22.9990899 L3,22.9997233 C2.44771525,22.9997233 2,22.5520081 2,21.9997233 L2,11.4272727 C2,11.1506534 2.11458193,10.886391 2.31650047,10.6973218 L11.3165005,2.27004905 C11.7010363,1.90998365 12.2989637,1.90998365 12.6834995,2.27004905 Z" id="Combined-Shape"></path>
                    </g>
                </g>
            </g>
        </g>
    </g>
</svg>