<?xml version="1.0" encoding="UTF-8"?>
<svg width="32px" height="32px" viewBox="0 0 32 32" version="1.1" xmlns="http://www.w3.org/2000/svg" xmlns:xlink="http://www.w3.org/1999/xlink">
    <title>0001F7BC-0D6D-4A6B-A75E-86C6AAF3FA5E</title>
    <g id="STDS_Icon" stroke="none" stroke-width="1" fill="none" fill-rule="evenodd">
        <g id="navigation" transform="translate(-364.000000, -3365.000000)" fill="#000000">
            <g id="ic_navigation_cart_line" transform="translate(300.000000, 3325.000000)">
                <g id="ic/navigation/cart/line" transform="translate(64.000000, 40.000000)">
                    <g id="ic_navigation_cart_line" transform="translate(2.000000, 2.000000)">
                        <path d="M14,-4.54747351e-13 C17.2521063,-4.54747351e-13 19.8808344,2.69883442 19.9960607,6.04905285 L20,6.27846217 L19.9998501,7 L21.4365183,7 C23.3369404,7 24.9646713,8.33488959 25.350975,10.1768898 L25.3875702,10.3761497 L27.4402017,23.3761497 C27.7847447,25.5582554 26.2951059,27.6065089 24.1130002,27.9510519 C23.9754316,27.9727732 23.8368696,27.9872875 23.6978812,27.9945502 L23.4891499,28 L4.51085012,28 C2.30171112,28 0.510850115,26.209139 0.510850115,24 C0.510850115,23.8607272 0.518123944,23.721597 0.532627096,23.5831768 L0.559798254,23.3761497 L2.61242983,10.3761497 C2.90882455,8.49898317 4.48124414,7.0993637 6.36095263,7.00507029 L6.56348169,7 L7.99985012,7 L8,6.27846217 C8,2.82290274 10.6739822,-4.54747351e-13 14,-4.54747351e-13 Z M21.4365183,9 L19.9998501,9 L20,11 C20,11.5522847 19.5522847,12 19,12 C18.4871642,12 18.0644928,11.6139598 18.0067277,11.1166211 L18,11 L17.9998501,9 L9.99985012,9 L10,11 C10,11.5522847 9.55228475,12 9,12 C8.48716416,12 8.06449284,11.6139598 8.00672773,11.1166211 L8,11 L7.99985012,9 L6.56348169,9 C5.63400939,9 4.83499604,9.63862824 4.6197822,10.528508 L4.58795576,10.6880749 L2.53532418,23.6880749 C2.51903317,23.7912513 2.51085012,23.8955454 2.51085012,24 C2.51085012,25.0543618 3.32672791,25.9181651 4.36158777,25.9945143 L4.51085012,26 L23.4891499,26 C23.5936045,26 23.6978986,25.9918169 23.801075,25.9755259 C24.8425346,25.811085 25.5685211,24.8704701 25.4825365,23.8363662 L25.4646758,23.6880749 L23.4120442,10.6880749 C23.2670813,9.76997654 22.5116518,9.08034284 21.5990963,9.00655051 L21.4365183,9 Z M14,2 C11.8700779,2 10.109665,3.79031697 10.0049291,6.0639345 L10,6.27846217 L9.99985012,7 L17.9998501,7 L18,6.27846217 C18,3.90396014 16.1964822,2 14,2 Z" id="Shape"></path>
                    </g>
                </g>
            </g>
        </g>
    </g>
</svg>