<?xml version="1.0" encoding="UTF-8"?>
<svg width="32px" height="32px" viewBox="0 0 32 32" version="1.1" xmlns="http://www.w3.org/2000/svg" xmlns:xlink="http://www.w3.org/1999/xlink">
    <title>1BDDB385-5082-424C-A307-832F4F0A6B06</title>
    <g id="STDS_Icon" stroke="none" stroke-width="1" fill="none" fill-rule="evenodd">
        <g id="navigation" transform="translate(-364.000000, -305.000000)" fill="#000000">
            <g id="ic_navigation_alarm_line" transform="translate(300.000000, 265.000000)">
                <g id="ic/navigation/alarm/line" transform="translate(64.000000, 40.000000)">
                    <g id="ic_navigation_alarm_line" transform="translate(4.000000, 2.000000)">
                        <path d="M0,23 C1.32119475,19.6970131 2,16.1722609 2,12.6148352 L2,10 L2.0038418,9.72009516 C2.15206828,4.32667079 6.57076009,0 12,0 C17.4292399,0 21.8479317,4.32667079 21.9961582,9.72009516 L22,10 L22,12.6148352 C22,15.9630006 22.6012946,19.2822233 23.7735238,22.4148564 L24,23 L17,23 C17,25.7614237 14.7614237,28 12,28 C9.23857625,28 7,25.7614237 7,23 L0,23 Z M15,23 L9,23 L9.00509269,23.1744869 C9.09295962,24.6927538 10.3072462,25.9070404 11.8237272,25.9949073 L12,26 C13.5976809,26 14.9036609,24.75108 14.9949073,23.1762728 L15,23 Z M12,2 C7.74868254,2 4.25844883,5.32144192 4.01425505,9.50073185 L4.00365344,9.74754331 L4,10 L4,12.6148352 C4,15.3678485 3.6206077,18.1026002 2.87652263,20.7427618 L2.8,21 L16.5833795,20.9986803 L21.199,21 L21.1155714,20.7146594 C20.4333467,18.2849273 20.0600677,15.7759964 20.006677,13.2473682 L20,12.6148352 L20.0001884,10.0274482 L19.9969131,9.77504004 C19.8781305,5.45297153 16.3346766,2 12,2 Z" id="Shape"></path>
                    </g>
                </g>
            </g>
        </g>
    </g>
</svg>