<?xml version="1.0" encoding="UTF-8"?>
<svg width="32px" height="32px" viewBox="0 0 32 32" version="1.1" xmlns="http://www.w3.org/2000/svg" xmlns:xlink="http://www.w3.org/1999/xlink">
    <title>B7A5E631-DB62-4B12-B855-3895E9A27F99</title>
    <g id="STDS_Icon" stroke="none" stroke-width="1" fill="none" fill-rule="evenodd">
        <g id="navigation" transform="translate(-364.000000, -4625.000000)" fill="#000000">
            <g id="ic_navigation_my_activity_line" transform="translate(300.000000, 4585.000000)">
                <g id="ic/navigation/my_activity/line" transform="translate(64.000000, 40.000000)">
                    <g id="ic_navigation_my_activity_line" transform="translate(4.000000, 3.000000)">
                        <path d="M18,11 C22.418278,11 26,14.581722 26,19 C26,23.418278 22.418278,27 18,27 C13.581722,27 10,23.418278 10,19 C10,14.581722 13.581722,11 18,11 Z M21,0 C22.5976809,0 23.9036609,1.24891996 23.9949073,2.82372721 L24,3 L24,6 C24,6.55228475 23.5522847,7 23,7 C22.4871642,7 22.0644928,6.61395981 22.0067277,6.11662113 L22,6 L22,3 C22,2.48716416 21.6139598,2.06449284 21.1166211,2.00672773 L21,2 L3,2 C2.48716416,2 2.06449284,2.38604019 2.00672773,2.88337887 L2,3 L2,23 C2,23.5128358 2.38604019,23.9355072 2.88337887,23.9932723 L3,24 L6,24 C6.55228475,24 7,24.4477153 7,25 C7,25.5128358 6.61395981,25.9355072 6.11662113,25.9932723 L6,26 L3,26 C1.40231912,26 0.0963391206,24.75108 0.00509269341,23.1762728 L0,23 L0,3 C0,1.40231912 1.24891996,0.0963391206 2.82372721,0.00509269341 L3,0 L21,0 Z M18,13 C14.6862915,13 12,15.6862915 12,19 C12,22.3137085 14.6862915,25 18,25 C21.3137085,25 24,22.3137085 24,19 C24,15.6862915 21.3137085,13 18,13 Z M18,15 C18.5128358,15 18.9355072,15.3860402 18.9932723,15.8833789 L19,16 L19,18.759 L20.503871,19.6362211 C20.9468478,19.8946242 21.1174279,20.4410494 20.9167296,20.8997462 L20.8637789,21.003871 C20.6053758,21.4468478 20.0589506,21.6174279 19.6002538,21.4167296 L19.496129,21.3637789 L17.496129,20.1971122 C17.2230466,20.0378142 17.0434409,19.7602416 17.0068999,19.4507291 L17,19.3333333 L17,16 C17,15.4477153 17.4477153,15 18,15 Z M17,6 C17.5522847,6 18,6.44771525 18,7 C18,7.51283584 17.6139598,7.93550716 17.1166211,7.99327227 L17,8 L7,8 C6.44771525,8 6,7.55228475 6,7 C6,6.48716416 6.38604019,6.06449284 6.88337887,6.00672773 L7,6 L17,6 Z" id="Shape"></path>
                    </g>
                </g>
            </g>
        </g>
    </g>
</svg>