<?xml version="1.0" encoding="UTF-8"?>
<svg width="32px" height="32px" viewBox="0 0 32 32" version="1.1" xmlns="http://www.w3.org/2000/svg" xmlns:xlink="http://www.w3.org/1999/xlink">
    <title>96B6DF26-7FAC-450B-B86D-C4290496598A</title>
    <g id="STDS_Icon" stroke="none" stroke-width="1" fill="none" fill-rule="evenodd">
        <g id="navigation" transform="translate(-364.000000, -4085.000000)" fill="#000000">
            <g id="ic_navigation_community_line" transform="translate(300.000000, 4045.000000)">
                <g id="ic/navigation/community/line" transform="translate(64.000000, 40.000000)">
                    <g id="ic_navigation_community_line" transform="translate(2.000000, 2.000000)">
                        <path d="M12,0 C17.4909242,0 22.1204808,3.68795353 23.5467966,8.72198764 L23.5707444,8.7412849 C25.6567379,10.6445853 26.9010335,13.3031292 26.9903421,16.1681844 L26.9955034,16.4996529 L26.9890168,16.8717748 C26.9419068,18.221345 26.6388943,19.5299319 26.1031419,20.7415826 L25.9354571,21.1021137 L25.9215034,21.129 L26.3139997,23.9062966 L26.3317746,24.0983372 C26.3374313,24.226638 26.3307168,24.3551884 26.3117246,24.4822017 L26.2740396,24.6713455 L26.2325278,24.8148241 C25.9237962,25.7510209 24.9735096,26.3231742 24.0022423,26.1588714 L23.8488005,26.1267544 L21.7375034,25.599 L21.4749176,25.7460035 C19.9606074,26.5632295 18.2593444,26.9996529 16.4955034,26.9996529 C13.5807482,26.9996529 10.8543295,25.8046975 8.88532227,23.7339837 C8.83217299,23.6780891 8.78675716,23.6176552 8.74904151,23.5540035 C8.31823248,23.4332039 7.8948883,23.2881629 7.48074507,23.1196802 L7.06973313,22.9434133 L6.7,22.768 L2.78163504,23.5874161 C1.80118542,23.7923763 0.838405294,23.2413959 0.49894854,22.330691 L0.450618378,22.1839639 L0.414706091,22.0389823 C0.369566243,21.8230508 0.360538273,21.601518 0.387596345,21.3834697 L0.414655627,21.2207287 L1.232,17.302 L1.04462285,16.9036673 C0.470513533,15.62303 0.124603147,14.2464965 0.0279543571,12.824835 L0.00645863076,12.3970335 L0,12 C0,5.372583 5.372583,0 12,0 Z M23.9907141,12.4859922 L23.9848605,12.6080776 C23.6759958,18.796582 18.6790138,23.7504432 12.4727161,23.9908598 C13.6881368,24.6440045 15.062981,24.9996529 16.4955034,24.9996529 C18.129178,24.9996529 19.6922671,24.5389718 21.0409489,23.6836362 C21.2336204,23.5614438 21.4610196,23.5095339 21.6851786,23.5340396 L21.8189815,23.5579619 L24.3337156,24.1864304 L23.8967336,21.0973754 L23.8869738,20.9714018 C23.8846064,20.8034524 23.9245903,20.6368764 24.0041538,20.4874126 C24.6520195,19.2703664 24.9955034,17.9108809 24.9955034,16.4996529 C24.9955034,15.0705397 24.6414046,13.6991683 23.9907141,12.4859922 Z M12,2 C6.4771525,2 2,6.4771525 2,12 C2,13.6601209 2.40416657,15.2597499 3.16644223,16.6916868 C3.25442031,16.8569538 3.29379725,17.0427186 3.28153896,17.2277087 L3.26261623,17.3659737 L2.37238748,21.6297347 L6.63696167,20.7390005 C6.8659705,20.6911678 7.10450153,20.7251427 7.31104813,20.8350131 C8.74230006,21.5963535 10.3409453,22 12,22 C17.5228475,22 22,17.5228475 22,12 C22,6.4771525 17.5228475,2 12,2 Z M16,10.5 C16.8284271,10.5 17.5,11.1715729 17.5,12 C17.5,12.8284271 16.8284271,13.5 16,13.5 C15.1715729,13.5 14.5,12.8284271 14.5,12 C14.5,11.1715729 15.1715729,10.5 16,10.5 Z M8,10.5 C8.82842712,10.5 9.5,11.1715729 9.5,12 C9.5,12.8284271 8.82842712,13.5 8,13.5 C7.17157288,13.5 6.5,12.8284271 6.5,12 C6.5,11.1715729 7.17157288,10.5 8,10.5 Z" id="Shape"></path>
                    </g>
                </g>
            </g>
        </g>
    </g>
</svg>