<?xml version="1.0" encoding="UTF-8"?>
<svg width="32px" height="32px" viewBox="0 0 32 32" version="1.1" xmlns="http://www.w3.org/2000/svg" xmlns:xlink="http://www.w3.org/1999/xlink">
    <title>BF2D43DA-219D-4A6F-B760-40A25A70DAE0</title>
    <g id="STDS_Icon" stroke="none" stroke-width="1" fill="none" fill-rule="evenodd">
        <g id="control" transform="translate(-364.000000, -3905.000000)" fill="#000000">
            <g id="ic_control_web_link_line" transform="translate(300.000000, 3865.000000)">
                <g id="ic/control/web_link/line" transform="translate(64.000000, 40.000000)">
                    <g id="ic_control_web_link_line" transform="translate(4.000000, 4.000000)">
                        <path d="M8,0 C8.55228475,0 9,0.44771525 9,1 C9,1.51283584 8.61395981,1.93550716 8.11662113,1.99327227 L8,2 L3,2 C2.48716416,2 2.06449284,2.38604019 2.00672773,2.88337887 L2,3 L2,21 C2,21.5128358 2.38604019,21.9355072 2.88337887,21.9932723 L3,22 L21,22 C21.5128358,22 21.9355072,21.6139598 21.9932723,21.1166211 L22,21 L22,16 C22,15.4477153 22.4477153,15 23,15 C23.5128358,15 23.9355072,15.3860402 23.9932723,15.8833789 L24,16 L24,21 C24,22.5976809 22.75108,23.9036609 21.1762728,23.9949073 L21,24 L3,24 C1.40231912,24 0.0963391206,22.75108 0.00509269341,21.1762728 L0,21 L0,3 C0,1.40231912 1.24891996,0.0963391206 2.82372721,0.00509269341 L3,0 L8,0 Z M23,0 C23.5128358,0 23.9355072,0.38604019 23.9932723,0.883378875 L24,1 L24,9 C24,9.55228475 23.5522847,10 23,10 C22.4871642,10 22.0644928,9.61395981 22.0067277,9.11662113 L22,9 L22,3.414 L12.2071068,13.2071068 C11.8165825,13.5976311 11.1834175,13.5976311 10.7928932,13.2071068 C10.4324093,12.8466228 10.4046797,12.2793918 10.7097046,11.8871006 L10.7928932,11.7928932 L20.584,2 L15,2 C14.4871642,2 14.0644928,1.61395981 14.0067277,1.11662113 L14,1 C14,0.487164161 14.3860402,0.0644928393 14.8833789,0.00672773133 L15,0 L23,0 Z" id="Shape"></path>
                    </g>
                </g>
            </g>
        </g>
    </g>
</svg>