<?xml version="1.0" encoding="UTF-8"?>
<svg width="32px" height="32px" viewBox="0 0 32 32" version="1.1" xmlns="http://www.w3.org/2000/svg" xmlns:xlink="http://www.w3.org/1999/xlink">
    <title>48121E21-3297-44F3-A9CB-9876A22751B1</title>
    <g id="STDS_Icon" stroke="none" stroke-width="1" fill="none" fill-rule="evenodd">
        <g id="control" transform="translate(-364.000000, -4805.000000)" fill="#000000">
            <g id="ic_control_top_line" transform="translate(300.000000, 4765.000000)">
                <g id="ic/control/top/line" transform="translate(64.000000, 40.000000)">
                    <g id="ic_control_top_line" transform="translate(4.000000, 4.000000)">
                        <path d="M11.8515331,4.0110178 L11.909968,4.00399798 L11.909968,4.00399798 L12,4 L12.0752385,4.00278786 L12.0752385,4.00278786 L12.2007258,4.02024007 L12.2007258,4.02024007 L12.3121425,4.04973809 L12.3121425,4.04973809 L12.4232215,4.09367336 L12.4232215,4.09367336 L12.5207088,4.14599545 L12.5207088,4.14599545 L12.625449,4.21968877 L12.625449,4.21968877 L12.7071068,4.29289322 L20.7071068,12.2928932 C21.0976311,12.6834175 21.0976311,13.3165825 20.7071068,13.7071068 C20.3466228,14.0675907 19.7793918,14.0953203 19.3871006,13.7902954 L19.2928932,13.7071068 L13,7.415 L13,23 C13,23.5522847 12.5522847,24 12,24 C11.4871642,24 11.0644928,23.6139598 11.0067277,23.1166211 L11,23 L11,7.415 L4.70710678,13.7071068 C4.34662282,14.0675907 3.77939176,14.0953203 3.38710056,13.7902954 L3.29289322,13.7071068 C2.93240926,13.3466228 2.90467972,12.7793918 3.20970461,12.3871006 L3.29289322,12.2928932 L11.2928932,4.29289322 C11.3282873,4.25749917 11.3656744,4.22531295 11.4046934,4.19633458 L11.5159379,4.12467117 L11.5159379,4.12467117 L11.628664,4.07122549 L11.628664,4.07122549 L11.734007,4.03584514 L11.734007,4.03584514 L11.8515331,4.0110178 L11.8515331,4.0110178 Z M23,0 C23.5522847,0 24,0.44771525 24,1 C24,1.51283584 23.6139598,1.93550716 23.1166211,1.99327227 L23,2 L1,2 C0.44771525,2 0,1.55228475 0,1 C0,0.487164161 0.38604019,0.0644928393 0.883378875,0.00672773133 L1,0 L23,0 Z" id="Shape"></path>
                    </g>
                </g>
            </g>
        </g>
    </g>
</svg>