<?xml version="1.0" encoding="UTF-8"?>
<svg width="32px" height="32px" viewBox="0 0 32 32" version="1.1" xmlns="http://www.w3.org/2000/svg" xmlns:xlink="http://www.w3.org/1999/xlink">
    <title>6AFA6029-8612-48CD-8A33-1D73582A15B3</title>
    <g id="STDS_Icon" stroke="none" stroke-width="1" fill="none" fill-rule="evenodd">
        <g id="control" transform="translate(-364.000000, -6065.000000)" fill="#000000">
            <g id="ic_control_long_arrow_right_circle_line" transform="translate(300.000000, 6025.000000)">
                <g id="ic/control/long_arrow_right_circle/line" transform="translate(64.000000, 40.000000)">
                    <g id="ic_control_long_arrow_right_circle_line" transform="translate(2.000000, 2.000000)">
                        <path d="M14,0 C21.7319865,0 28,6.2680135 28,14 C28,21.7319865 21.7319865,28 14,28 C6.2680135,28 0,21.7319865 0,14 C0,6.2680135 6.2680135,0 14,0 Z M14,2 C7.372583,2 2,7.372583 2,14 C2,20.627417 7.372583,26 14,26 C20.627417,26 26,20.627417 26,14 C26,7.372583 20.627417,2 14,2 Z M14.6128994,7.20970461 L14.7071068,7.29289322 L20.7071068,13.2928932 C21.0675907,13.6533772 21.0953203,14.2206082 20.7902954,14.6128994 L20.7071068,14.7071068 L14.7071068,20.7071068 C14.3165825,21.0976311 13.6834175,21.0976311 13.2928932,20.7071068 C12.9324093,20.3466228 12.9046797,19.7793918 13.2097046,19.3871006 L13.2928932,19.2928932 L17.523,15.062 L8,15.0625 C7.44771525,15.0625 7,14.6147847 7,14.0625 C7,13.5496642 7.38604019,13.1269928 7.88337887,13.0692277 L8,13.0625 L17.647,13.062 L13.2928932,8.70710678 C12.9324093,8.34662282 12.9046797,7.77939176 13.2097046,7.38710056 L13.2928932,7.29289322 C13.6533772,6.93240926 14.2206082,6.90467972 14.6128994,7.20970461 Z" id="Shape"></path>
                    </g>
                </g>
            </g>
        </g>
    </g>
</svg>