<?xml version="1.0" encoding="UTF-8"?>
<svg width="32px" height="32px" viewBox="0 0 32 32" version="1.1" xmlns="http://www.w3.org/2000/svg" xmlns:xlink="http://www.w3.org/1999/xlink">
    <title>34D785BF-1372-4DE4-B350-5A15B2A551E9</title>
    <g id="STDS_Icon" stroke="none" stroke-width="1" fill="none" fill-rule="evenodd">
        <g id="control" transform="translate(-364.000000, -1385.000000)" fill="#000000">
            <g id="ic_control_long_arrow_left_line" transform="translate(300.000000, 1345.000000)">
                <g id="ic/control/long_arrow_left/line" transform="translate(64.000000, 40.000000)">
                    <g id="ic_control_long_arrow_left_line" transform="translate(4.000000, 6.000000)">
                        <path d="M10.7071068,0.292893219 C11.0675907,0.65337718 11.0953203,1.22060824 10.7902954,1.61289944 L10.7071068,1.70710678 L3.414,9 L23,9 C23.5522847,9 24,9.44771525 24,10 C24,10.5128358 23.6139598,10.9355072 23.1166211,10.9932723 L23,11 L3.414,11 L10.7071068,18.2928932 C11.0675907,18.6533772 11.0953203,19.2206082 10.7902954,19.6128994 L10.7071068,19.7071068 C10.3466228,20.0675907 9.77939176,20.0953203 9.38710056,19.7902954 L9.29289322,19.7071068 L0.292893219,10.7071068 C0.257499166,10.6717127 0.225312953,10.6343256 0.196334578,10.5953066 L0.124671174,10.4840621 L0.124671174,10.4840621 L0.0712254916,10.371336 L0.0712254916,10.371336 L0.0358451423,10.265993 L0.0358451423,10.265993 L0.0110178009,10.1484669 L0.0110178009,10.1484669 L0.00397747606,10.0898018 L0.00397747606,10.0898018 L0,10 L0.00278786299,9.92476146 L0.00278786299,9.92476146 L0.020240071,9.79927424 L0.020240071,9.79927424 L0.0497380859,9.68785748 L0.0497380859,9.68785748 L0.0936733617,9.57677845 L0.0936733617,9.57677845 L0.145995454,9.47929125 L0.145995454,9.47929125 L0.209704612,9.38710056 L0.209704612,9.38710056 L0.292893219,9.29289322 L0.292893219,9.29289322 L9.29289322,0.292893219 C9.68341751,-0.0976310729 10.3165825,-0.0976310729 10.7071068,0.292893219 Z" id="Path"></path>
                    </g>
                </g>
            </g>
        </g>
    </g>
</svg>