<?xml version="1.0" encoding="UTF-8"?>
<svg width="32px" height="32px" viewBox="0 0 32 32" version="1.1" xmlns="http://www.w3.org/2000/svg" xmlns:xlink="http://www.w3.org/1999/xlink">
    <title>490B61CA-9E08-4391-8FDC-D79449837CC4</title>
    <g id="STDS_Icon" stroke="none" stroke-width="1" fill="none" fill-rule="evenodd">
        <g id="control" transform="translate(-364.000000, -6245.000000)" fill="#000000">
            <g id="ic_control_long_arrow_up_circle_line" transform="translate(300.000000, 6205.000000)">
                <g id="ic/control/long_arrow_up_circle/line" transform="translate(64.000000, 40.000000)">
                    <g id="ic_control_long_arrow_up_circle_line" transform="translate(2.000000, 2.000000)">
                        <path d="M14,0 C21.7319865,0 28,6.2680135 28,14 C28,21.7319865 21.7319865,28 14,28 C6.2680135,28 0,21.7319865 0,14 C0,6.2680135 6.2680135,0 14,0 Z M14,2 C7.372583,2 2,7.372583 2,14 C2,20.627417 7.372583,26 14,26 C20.627417,26 26,20.627417 26,14 C26,7.372583 20.627417,2 14,2 Z M14.6128994,7.20970461 L14.7071068,7.29289322 L20.7071068,13.2928932 C21.0976311,13.6834175 21.0976311,14.3165825 20.7071068,14.7071068 C20.3466228,15.0675907 19.7793918,15.0953203 19.3871006,14.7902954 L19.2928932,14.7071068 L15,10.415 L15,20 C15,20.5522847 14.5522847,21 14,21 C13.4871642,21 13.0644928,20.6139598 13.0067277,20.1166211 L13,20 L13,10.415 L8.70710678,14.7071068 C8.34662282,15.0675907 7.77939176,15.0953203 7.38710056,14.7902954 L7.29289322,14.7071068 C6.93240926,14.3466228 6.90467972,13.7793918 7.20970461,13.3871006 L7.29289322,13.2928932 L13.2928932,7.29289322 C13.6533772,6.93240926 14.2206082,6.90467972 14.6128994,7.20970461 Z" id="Shape"></path>
                    </g>
                </g>
            </g>
        </g>
    </g>
</svg>