<?xml version="1.0" encoding="UTF-8"?>
<svg width="32px" height="32px" viewBox="0 0 32 32" version="1.1" xmlns="http://www.w3.org/2000/svg" xmlns:xlink="http://www.w3.org/1999/xlink">
    <title>9ECB0BE8-C729-4787-9289-8FADB2C98952</title>
    <g id="STDS_Icon" stroke="none" stroke-width="1" fill="none" fill-rule="evenodd">
        <g id="control" transform="translate(-364.000000, -845.000000)" fill="#000000">
            <g id="ic_control_close_circle_line" transform="translate(300.000000, 805.000000)">
                <g id="ic/control/close_circle/line" transform="translate(64.000000, 40.000000)">
                    <g id="ic_control_close_circle_line" transform="translate(2.000000, 2.000000)">
                        <path d="M14,0 C21.7319865,0 28,6.2680135 28,14 C28,21.7319865 21.7319865,28 14,28 C6.2680135,28 0,21.7319865 0,14 C0,6.2680135 6.2680135,0 14,0 Z M14,2 C7.372583,2 2,7.372583 2,14 C2,20.627417 7.372583,26 14,26 C20.627417,26 26,20.627417 26,14 C26,7.372583 20.627417,2 14,2 Z M8.29289322,8.29289322 C8.65337718,7.93240926 9.22060824,7.90467972 9.61289944,8.20970461 L9.70710678,8.29289322 L14,12.585 L18.2928932,8.29289322 C18.6834175,7.90236893 19.3165825,7.90236893 19.7071068,8.29289322 C20.0675907,8.65337718 20.0953203,9.22060824 19.7902954,9.61289944 L19.7071068,9.70710678 L15.415,14 L19.7071068,18.2928932 L19.7902954,18.3871006 C20.0953203,18.7793918 20.0675907,19.3466228 19.7071068,19.7071068 C19.3466228,20.0675907 18.7793918,20.0953203 18.3871006,19.7902954 L18.2928932,19.7071068 L14,15.415 L9.70710678,19.7071068 C9.31658249,20.0976311 8.68341751,20.0976311 8.29289322,19.7071068 C7.93240926,19.3466228 7.90467972,18.7793918 8.20970461,18.3871006 L8.29289322,18.2928932 L12.585,14 L8.29289322,9.70710678 L8.20970461,9.61289944 C7.90467972,9.22060824 7.93240926,8.65337718 8.29289322,8.29289322 Z" id="Shape"></path>
                    </g>
                </g>
            </g>
        </g>
    </g>
</svg>