<?xml version="1.0" encoding="UTF-8"?>
<svg width="32px" height="32px" viewBox="0 0 32 32" version="1.1" xmlns="http://www.w3.org/2000/svg" xmlns:xlink="http://www.w3.org/1999/xlink">
    <title>F00B556F-A531-48B5-B4C9-399753F10305</title>
    <g id="STDS_Icon" stroke="none" stroke-width="1" fill="none" fill-rule="evenodd">
        <g id="control" transform="translate(-364.000000, -6425.000000)" fill="#000000">
            <g id="ic_control_long_arrow_down_circle_line" transform="translate(300.000000, 6385.000000)">
                <g id="ic/control/long_arrow_down_circle/line" transform="translate(64.000000, 40.000000)">
                    <g id="ic_control_long_arrow_down_circle_line" transform="translate(2.000000, 2.000000)">
                        <path d="M14,0 C21.7319865,0 28,6.2680135 28,14 C28,21.7319865 21.7319865,28 14,28 C6.2680135,28 0,21.7319865 0,14 C0,6.2680135 6.2680135,0 14,0 Z M14,2 C7.372583,2 2,7.372583 2,14 C2,20.627417 7.372583,26 14,26 C20.627417,26 26,20.627417 26,14 C26,7.372583 20.627417,2 14,2 Z M14,7 C14.5128358,7 14.9355072,7.38604019 14.9932723,7.88337887 L15,8 L15,17.585 L19.2928932,13.2928932 C19.6533772,12.9324093 20.2206082,12.9046797 20.6128994,13.2097046 L20.7071068,13.2928932 C21.0675907,13.6533772 21.0953203,14.2206082 20.7902954,14.6128994 L20.7071068,14.7071068 L14.7071068,20.7071068 C14.3466228,21.0675907 13.7793918,21.0953203 13.3871006,20.7902954 L13.2928932,20.7071068 L7.29289322,14.7071068 C6.90236893,14.3165825 6.90236893,13.6834175 7.29289322,13.2928932 C7.65337718,12.9324093 8.22060824,12.9046797 8.61289944,13.2097046 L8.70710678,13.2928932 L13,17.585 L13,8 C13,7.44771525 13.4477153,7 14,7 Z" id="Shape"></path>
                    </g>
                </g>
            </g>
        </g>
    </g>
</svg>