<?xml version="1.0" encoding="UTF-8"?>
<svg width="32px" height="32px" viewBox="0 0 32 32" version="1.1" xmlns="http://www.w3.org/2000/svg" xmlns:xlink="http://www.w3.org/1999/xlink">
    <title>695886B5-4CA0-491C-BA53-7AD778AA37C9</title>
    <g id="STDS_Icon" stroke="none" stroke-width="1" fill="none" fill-rule="evenodd">
        <g id="control" transform="translate(-364.000000, -4265.000000)" fill="#000000">
            <g id="ic_control_maximize_line" transform="translate(300.000000, 4225.000000)">
                <g id="ic/control/maximize/line" transform="translate(64.000000, 40.000000)">
                    <g id="ic_control_maximize_line" transform="translate(4.000000, 4.000000)">
                        <path d="M21,0 L3,0 C1.34314575,0 0,1.34314575 0,3 L0,21 C0,22.6568542 1.34314575,24 3,24 L21,24 C22.6568542,24 24,22.6568542 24,21 L24,3 C24,1.34314575 22.6568542,0 21,0 Z M3,2 L21,2 C21.5522847,2 22,2.44771525 22,3 L22,21 C22,21.5522847 21.5522847,22 21,22 L3,22 C2.44771525,22 2,21.5522847 2,21 L2,3 C2,2.44771525 2.44771525,2 3,2 Z" id="Rectangle"></path>
                    </g>
                </g>
            </g>
        </g>
    </g>
</svg>