<?xml version="1.0" encoding="UTF-8"?>
<svg width="32px" height="32px" viewBox="0 0 32 32" version="1.1" xmlns="http://www.w3.org/2000/svg" xmlns:xlink="http://www.w3.org/1999/xlink">
    <title>09656BDC-2418-4A68-BC34-21CAE5B02931</title>
    <g id="STDS_Icon" stroke="none" stroke-width="1" fill="none" fill-rule="evenodd">
        <g id="control" transform="translate(-364.000000, -2825.000000)" fill="#000000">
            <g id="ic_control_double_arrow_left_line" transform="translate(300.000000, 2785.000000)">
                <g id="ic/control/double_arrow_left/line" transform="translate(64.000000, 40.000000)">
                    <g id="ic_control_double_arrow_left_line" transform="translate(4.000000, 5.000000)">
                        <path d="M21.7071068,0.292893219 C22.0675907,0.65337718 22.0953203,1.22060824 21.7902954,1.61289944 L21.7071068,1.70710678 L12.415,11 L21.7071068,20.2928932 C22.0675907,20.6533772 22.0953203,21.2206082 21.7902954,21.6128994 L21.7071068,21.7071068 C21.3466228,22.0675907 20.7793918,22.0953203 20.3871006,21.7902954 L20.2928932,21.7071068 L10.2928932,11.7071068 C9.93240926,11.3466228 9.90467972,10.7793918 10.2097046,10.3871006 L10.2928932,10.2928932 L20.2928932,0.292893219 C20.6834175,-0.0976310729 21.3165825,-0.0976310729 21.7071068,0.292893219 Z M11.7071068,0.292893219 C12.0675907,0.65337718 12.0953203,1.22060824 11.7902954,1.61289944 L11.7071068,1.70710678 L2.415,11 L11.7071068,20.2928932 C12.0675907,20.6533772 12.0953203,21.2206082 11.7902954,21.6128994 L11.7071068,21.7071068 C11.3466228,22.0675907 10.7793918,22.0953203 10.3871006,21.7902954 L10.2928932,21.7071068 L0.292893219,11.7071068 C-0.0675907428,11.3466228 -0.0953202783,10.7793918 0.209704612,10.3871006 L0.292893219,10.2928932 L10.2928932,0.292893219 C10.6834175,-0.0976310729 11.3165825,-0.0976310729 11.7071068,0.292893219 Z" id="Shape"></path>
                    </g>
                </g>
            </g>
        </g>
    </g>
</svg>