<?xml version="1.0" encoding="UTF-8"?>
<svg width="32px" height="32px" viewBox="0 0 32 32" version="1.1" xmlns="http://www.w3.org/2000/svg" xmlns:xlink="http://www.w3.org/1999/xlink">
    <title>EE215C5A-5AF6-4867-A7AA-DDED604A1141</title>
    <g id="STDS_Icon" stroke="none" stroke-width="1" fill="none" fill-rule="evenodd">
        <g id="control" transform="translate(-364.000000, -5705.000000)" fill="#000000">
            <g id="ic_control_long_arrow_up_right_line" transform="translate(300.000000, 5665.000000)">
                <g id="ic/control/long_arrow_up_right/line" transform="translate(64.000000, 40.000000)">
                    <g id="ic_control_long_arrow_up_right_line" transform="translate(7.000000, 7.000000)">
                        <path d="M17,0 C17.5128358,0 17.9355072,0.38604019 17.9932723,0.883378875 L18,1 L18,14 C18,14.5522847 17.5522847,15 17,15 C16.4871642,15 16.0644928,14.6139598 16.0067277,14.1166211 L16,14 L16,3.414 L2.20710678,17.2071068 C1.81658249,17.5976311 1.18341751,17.5976311 0.792893219,17.2071068 C0.432409257,16.8466228 0.404679722,16.2793918 0.709704612,15.8871006 L0.792893219,15.7928932 L14.584,2 L4,2 C3.48716416,2 3.06449284,1.61395981 3.00672773,1.11662113 L3,1 C3,0.487164161 3.38604019,0.0644928393 3.88337887,0.00672773133 L4,0 L17,0 Z" id="Path"></path>
                    </g>
                </g>
            </g>
        </g>
    </g>
</svg>