<?xml version="1.0" encoding="UTF-8"?>
<svg width="32px" height="32px" viewBox="0 0 32 32" version="1.1" xmlns="http://www.w3.org/2000/svg" xmlns:xlink="http://www.w3.org/1999/xlink">
    <title>99059E96-A35E-43D2-BBDB-CFFB0BFF0FF4</title>
    <g id="STDS_Icon" stroke="none" stroke-width="1" fill="none" fill-rule="evenodd">
        <g id="control" transform="translate(-364.000000, -1925.000000)" fill="#000000">
            <g id="ic_control_long_arrow_down_line" transform="translate(300.000000, 1885.000000)">
                <g id="ic/control/long_arrow_down/line" transform="translate(64.000000, 40.000000)">
                    <g id="ic_control_long_arrow_down_line" transform="translate(6.000000, 4.000000)">
                        <path d="M10,0 C10.5128358,0 10.9355072,0.38604019 10.9932723,0.883378875 L11,1 L11,20.585 L18.2928932,13.2928932 C18.6533772,12.9324093 19.2206082,12.9046797 19.6128994,13.2097046 L19.7071068,13.2928932 C20.0675907,13.6533772 20.0953203,14.2206082 19.7902954,14.6128994 L19.7071068,14.7071068 L10.7071068,23.7071068 C10.6717127,23.7425008 10.6343256,23.774687 10.5953066,23.8036654 L10.4840621,23.8753288 L10.4840621,23.8753288 L10.371336,23.9287745 L10.371336,23.9287745 L10.265993,23.9641549 L10.265993,23.9641549 L10.1174742,23.9931658 L10.1174742,23.9931658 L10,24 L10,24 L9.92476146,23.9972121 L9.92476146,23.9972121 L9.79927424,23.9797599 L9.79927424,23.9797599 L9.68785748,23.9502619 L9.68785748,23.9502619 L9.57677845,23.9063266 L9.57677845,23.9063266 L9.47929125,23.8540045 L9.47929125,23.8540045 L9.38710056,23.7902954 L9.38710056,23.7902954 L9.29289322,23.7071068 L9.29289322,23.7071068 L0.292893219,14.7071068 C-0.0976310729,14.3165825 -0.0976310729,13.6834175 0.292893219,13.2928932 C0.65337718,12.9324093 1.22060824,12.9046797 1.61289944,13.2097046 L1.70710678,13.2928932 L9,20.585 L9,1 C9,0.44771525 9.44771525,0 10,0 Z" id="Path"></path>
                    </g>
                </g>
            </g>
        </g>
    </g>
</svg>