<?xml version="1.0" encoding="UTF-8"?>
<svg width="32px" height="32px" viewBox="0 0 32 32" version="1.1" xmlns="http://www.w3.org/2000/svg" xmlns:xlink="http://www.w3.org/1999/xlink">
    <title>22393A27-50D0-4E53-8DBC-39A1E951B9B7</title>
    <g id="STDS_Icon" stroke="none" stroke-width="1" fill="none" fill-rule="evenodd">
        <g id="control" transform="translate(-364.000000, -305.000000)" fill="#000000">
            <g id="ic_control_refresh_line" transform="translate(300.000000, 265.000000)">
                <g id="ic/control/refresh/line" transform="translate(64.000000, 40.000000)">
                    <g id="ic_control_refresh_line" transform="translate(3.000000, 3.000000)">
                        <path d="M13,0 C16.9524549,0 20.5815994,1.78027346 23.0016057,4.69237434 L23,2 C23,1.48716416 23.3860402,1.06449284 23.8833789,1.00672773 L24,1 C24.5128358,1 24.9355072,1.38604019 24.9932723,1.88337887 L25,2 L25,8 C25,8.51283584 24.6139598,8.93550716 24.1166211,8.99327227 L24,9 L23.9245912,9.00189411 C23.908197,9.00207985 23.8918303,9.00185981 23.8755054,9.0012393 L18,9 C17.4477153,9 17,8.55228475 17,8 C17,7.48716416 17.3860402,7.06449284 17.8833789,7.00672773 L18,7 L22.2221011,6.99985009 C20.2247869,3.93204307 16.7881071,2 13,2 C6.92486775,2 2,6.92486775 2,13 C2,19.0751322 6.92486775,24 13,24 C16.1706322,24 19.1216743,22.6525464 21.1963843,20.3363327 C21.5648726,19.924951 22.1970821,19.8901791 22.6084637,20.2586674 C23.0198453,20.6271556 23.0546173,21.2593651 22.686129,21.6707467 C20.2359174,24.4061717 16.7452931,26 13,26 C5.82029825,26 -1.79412041e-13,20.1797017 -1.79412041e-13,13 C-1.79412041e-13,5.82029825 5.82029825,0 13,0 Z" id="Combined-Shape"></path>
                    </g>
                </g>
            </g>
        </g>
    </g>
</svg>