<?xml version="1.0" encoding="UTF-8"?>
<svg width="32px" height="32px" viewBox="0 0 32 32" version="1.1" xmlns="http://www.w3.org/2000/svg" xmlns:xlink="http://www.w3.org/1999/xlink">
    <title>172B24D7-A7ED-4734-86B4-CBAB99370C4F</title>
    <g id="STDS_Icon" stroke="none" stroke-width="1" fill="none" fill-rule="evenodd">
        <g id="control" transform="translate(-364.000000, -485.000000)" fill="#000000">
            <g id="ic_control_refresh2_line" transform="translate(300.000000, 445.000000)">
                <g id="ic/control/refresh2/line" transform="translate(64.000000, 40.000000)">
                    <g id="ic_control_refresh2_line" transform="translate(3.000000, 3.000000)">
                        <path d="M24.9243656,13.0005577 L25.0411451,13.0034383 C25.5915611,13.0488326 26.0009621,13.5318324 25.9555677,14.0822484 C25.4019369,20.7951328 19.776704,26.0003589 13,26.0003589 C9.18392848,26.0003589 5.65625747,24.3417233 3.2302433,21.578452 L2.99893413,21.3076088 L3,24.0003589 L2.99327227,24.11698 C2.93550716,24.6143187 2.51283584,25.0003589 2,25.0003589 C1.48716416,25.0003589 1.06449284,24.6143187 1.00672773,24.11698 L1,24.0003589 L1,18.0003589 L1.00672773,17.8837378 C1.06004937,17.4246559 1.42429701,17.0604082 1.88337887,17.0070866 L2,17.0003589 L8,17.0003589 L8.11662113,17.0070866 C8.57570299,17.0604082 8.93995063,17.4246559 8.99327227,17.8837378 L9,18.0003589 L8.99327227,18.11698 C8.93995063,18.5760619 8.57570299,18.9403095 8.11662113,18.9936311 L8,19.0003589 L3.77853288,19.0002374 C5.78831859,22.0853412 9.22678808,24.0003589 13,24.0003589 C18.7337921,24.0003589 23.4940844,19.5954928 23.962335,13.9178608 C24.0044869,13.4067602 24.4239618,13.0172492 24.9243656,13.0005577 Z M12.9590059,0 C16.7750775,0 20.3027485,1.65863563 22.7287626,4.42190691 L22.9600718,4.69275006 L22.9590059,2 L22.9657337,1.88337887 C23.0234988,1.38604019 23.4461701,1 23.9590059,1 C24.4718418,1 24.8945131,1.38604019 24.9522782,1.88337887 L24.9590059,2 L24.9590059,8 L24.9522782,8.11662113 C24.8989566,8.57570299 24.5347089,8.93995063 24.0756271,8.99327227 L23.9590059,9 L17.9590059,9 L17.8423848,8.99327227 C17.383303,8.93995063 17.0190553,8.57570299 16.9657337,8.11662113 L16.9590059,8 L16.9657337,7.88337887 C17.0190553,7.42429701 17.383303,7.06004937 17.8423848,7.00672773 L17.9590059,7 L22.1804731,7.00012146 C20.1706873,3.91501771 16.7322179,2 12.9590059,2 C7.22521385,2 2.46492155,6.40486611 1.99667098,12.0824981 C1.95127659,12.6329141 1.46827683,13.042315 0.91786081,12.9969206 C0.36744479,12.9515262 -0.0419561345,12.4685265 0.00343825095,11.9181105 C0.557069049,5.2052261 6.18230195,0 12.9590059,0 Z" id="Shape"></path>
                    </g>
                </g>
            </g>
        </g>
    </g>
</svg>