<?xml version="1.0" encoding="UTF-8"?>
<svg width="32px" height="32px" viewBox="0 0 32 32" version="1.1" xmlns="http://www.w3.org/2000/svg" xmlns:xlink="http://www.w3.org/1999/xlink">
    <title>5488E33E-4A8B-4C49-8F4C-E10F5C29D0A5</title>
    <g id="STDS_Icon" stroke="none" stroke-width="1" fill="none" fill-rule="evenodd">
        <g id="control" transform="translate(-364.000000, -5165.000000)" fill="#000000">
            <g id="ic_control_check_circle_line" transform="translate(300.000000, 5125.000000)">
                <g id="ic/control/check_circle/line" transform="translate(64.000000, 40.000000)">
                    <g id="ic_control_check_circle_line" transform="translate(2.000000, 2.000000)">
                        <path d="M14,0 C21.7319865,0 28,6.2680135 28,14 C28,21.7319865 21.7319865,28 14,28 C6.2680135,28 0,21.7319865 0,14 C0,6.2680135 6.2680135,0 14,0 Z M14,2 C7.372583,2 2,7.372583 2,14 C2,20.627417 7.372583,26 14,26 C20.627417,26 26,20.627417 26,14 C26,7.372583 20.627417,2 14,2 Z M20.7071068,9.29289322 C21.0675907,9.65337718 21.0953203,10.2206082 20.7902954,10.6128994 L20.7071068,10.7071068 L12.7071068,18.7071068 C12.3466228,19.0675907 11.7793918,19.0953203 11.3871006,18.7902954 L11.2928932,18.7071068 L7.29289322,14.7071068 C6.90236893,14.3165825 6.90236893,13.6834175 7.29289322,13.2928932 C7.65337718,12.9324093 8.22060824,12.9046797 8.61289944,13.2097046 L8.70710678,13.2928932 L12,16.585 L19.2928932,9.29289322 C19.6834175,8.90236893 20.3165825,8.90236893 20.7071068,9.29289322 Z" id="Shape"></path>
                    </g>
                </g>
            </g>
        </g>
    </g>
</svg>