<?xml version="1.0" encoding="UTF-8"?>
<svg width="32px" height="32px" viewBox="0 0 32 32" version="1.1" xmlns="http://www.w3.org/2000/svg" xmlns:xlink="http://www.w3.org/1999/xlink">
    <title>A15CB2FF-D8A5-4982-8D4E-2E647EE2B1FF</title>
    <g id="STDS_Icon" stroke="none" stroke-width="1" fill="none" fill-rule="evenodd">
        <g id="control" transform="translate(-364.000000, -3725.000000)" fill="#000000">
            <g id="ic_control_double_arrow_right_circle_line" transform="translate(300.000000, 3685.000000)">
                <g id="ic/control/double_arrow_right_circle/line" transform="translate(64.000000, 40.000000)">
                    <g id="ic_control_double_arrow_right_circle_line" transform="translate(2.000000, 2.000000)">
                        <path d="M14,0 C21.7319865,0 28,6.2680135 28,14 C28,21.7319865 21.7319865,28 14,28 C6.2680135,28 0,21.7319865 0,14 C0,6.2680135 6.2680135,0 14,0 Z M14,2 C7.372583,2 2,7.372583 2,14 C2,20.627417 7.372583,26 14,26 C20.627417,26 26,20.627417 26,14 C26,7.372583 20.627417,2 14,2 Z M15.6128994,8.20970461 L15.7071068,8.29289322 L20.7071068,13.2928932 C21.0675907,13.6533772 21.0953203,14.2206082 20.7902954,14.6128994 L20.7071068,14.7071068 L15.7071068,19.7071068 C15.3165825,20.0976311 14.6834175,20.0976311 14.2928932,19.7071068 C13.9324093,19.3466228 13.9046797,18.7793918 14.2097046,18.3871006 L14.2928932,18.2928932 L18.585,14 L14.2928932,9.70710678 C13.9324093,9.34662282 13.9046797,8.77939176 14.2097046,8.38710056 L14.2928932,8.29289322 C14.6533772,7.93240926 15.2206082,7.90467972 15.6128994,8.20970461 Z M9.61289944,8.20970461 L9.70710678,8.29289322 L14.7071068,13.2928932 C15.0675907,13.6533772 15.0953203,14.2206082 14.7902954,14.6128994 L14.7071068,14.7071068 L9.70710678,19.7071068 C9.31658249,20.0976311 8.68341751,20.0976311 8.29289322,19.7071068 C7.93240926,19.3466228 7.90467972,18.7793918 8.20970461,18.3871006 L8.29289322,18.2928932 L12.585,14 L8.29289322,9.70710678 C7.93240926,9.34662282 7.90467972,8.77939176 8.20970461,8.38710056 L8.29289322,8.29289322 C8.65337718,7.93240926 9.22060824,7.90467972 9.61289944,8.20970461 Z" id="Shape"></path>
                    </g>
                </g>
            </g>
        </g>
    </g>
</svg>