<?xml version="1.0" encoding="UTF-8"?>
<svg width="32px" height="32px" viewBox="0 0 32 32" version="1.1" xmlns="http://www.w3.org/2000/svg" xmlns:xlink="http://www.w3.org/1999/xlink">
    <title>9F45E5E7-59D0-4445-B39E-1BD470D95312</title>
    <g id="STDS_Icon" stroke="none" stroke-width="1" fill="none" fill-rule="evenodd">
        <g id="control" transform="translate(-364.000000, -4625.000000)" fill="#000000">
            <g id="ic_control_preview_line" transform="translate(300.000000, 4585.000000)">
                <g id="ic/control/preview/line" transform="translate(64.000000, 40.000000)">
                    <g id="ic_control_preview_line" transform="translate(2.000000, 2.000000)">
                        <path d="M12,0 C18.627,0 24,5.373 24,12 C24,14.9547994 22.9318336,17.6603003 21.1606119,19.7513918 L21.2071068,19.7928932 L25.7071068,24.2928932 C26.0976311,24.6834175 26.0976311,25.3165825 25.7071068,25.7071068 C25.3466228,26.0675907 24.7793918,26.0953203 24.3871006,25.7902954 L24.2928932,25.7071068 L19.7928932,21.2071068 L19.7513918,21.1606119 C17.6603003,22.9318336 14.9547994,24 12,24 C5.373,24 0,18.627 0,12 C0,5.373 5.373,0 12,0 Z M12,2 C6.4775695,2 2,6.4775695 2,12 C2,17.5224305 6.4775695,22 12,22 C17.5224305,22 22,17.5224305 22,12 C22,6.4775695 17.5224305,2 12,2 Z M17.7071068,8.29289322 C18.0675907,8.65337718 18.0953203,9.22060824 17.7902954,9.61289944 L17.7071068,9.70710678 L11.2071068,16.2071068 C10.8466228,16.5675907 10.2793918,16.5953203 9.88710056,16.2902954 L9.79289322,16.2071068 L6.29289322,12.7071068 C5.90236893,12.3165825 5.90236893,11.6834175 6.29289322,11.2928932 C6.65337718,10.9324093 7.22060824,10.9046797 7.61289944,11.2097046 L7.70710678,11.2928932 L10.5,14.085 L16.2928932,8.29289322 C16.6834175,7.90236893 17.3165825,7.90236893 17.7071068,8.29289322 Z" id="Shape"></path>
                    </g>
                </g>
            </g>
        </g>
    </g>
</svg>