<?xml version="1.0" encoding="UTF-8"?>
<svg width="32px" height="32px" viewBox="0 0 32 32" version="1.1" xmlns="http://www.w3.org/2000/svg" xmlns:xlink="http://www.w3.org/1999/xlink">
    <title>FE0B8B5A-C43C-426B-A884-AB48E5C441B6</title>
    <g id="STDS_Icon" stroke="none" stroke-width="1" fill="none" fill-rule="evenodd">
        <g id="control" transform="translate(-364.000000, -5885.000000)" fill="#000000">
            <g id="ic_control_long_arrow_letf_circle_line" transform="translate(300.000000, 5845.000000)">
                <g id="ic/control/long_arrow_letf_circle/line" transform="translate(64.000000, 40.000000)">
                    <g id="ic_control_long_arrow_letf_circle_line" transform="translate(2.000000, 2.000000)">
                        <path d="M14,0 C21.7319865,0 28,6.2680135 28,14 C28,21.7319865 21.7319865,28 14,28 C6.2680135,28 0,21.7319865 0,14 C0,6.2680135 6.2680135,0 14,0 Z M14,2 C7.372583,2 2,7.372583 2,14 C2,20.627417 7.372583,26 14,26 C20.627417,26 26,20.627417 26,14 C26,7.372583 20.627417,2 14,2 Z M14.7071068,7.29289322 C15.0675907,7.65337718 15.0953203,8.22060824 14.7902954,8.61289944 L14.7071068,8.70710678 L10.353,13.062 L20,13.0625 C20.5522847,13.0625 21,13.5102153 21,14.0625 C21,14.5753358 20.6139598,14.9980072 20.1166211,15.0557723 L20,15.0625 L10.477,15.062 L14.7071068,19.2928932 C15.0675907,19.6533772 15.0953203,20.2206082 14.7902954,20.6128994 L14.7071068,20.7071068 C14.3466228,21.0675907 13.7793918,21.0953203 13.3871006,20.7902954 L13.2928932,20.7071068 L7.29289322,14.7071068 C6.93240926,14.3466228 6.90467972,13.7793918 7.20970461,13.3871006 L7.29289322,13.2928932 L13.2928932,7.29289322 C13.6834175,6.90236893 14.3165825,6.90236893 14.7071068,7.29289322 Z" id="Shape"></path>
                    </g>
                </g>
            </g>
        </g>
    </g>
</svg>