<?xml version="1.0" encoding="UTF-8"?>
<svg width="32px" height="32px" viewBox="0 0 32 32" version="1.1" xmlns="http://www.w3.org/2000/svg" xmlns:xlink="http://www.w3.org/1999/xlink">
    <title>F68240B0-9BDA-487F-8225-AB554567EB9B</title>
    <g id="STDS_Icon" stroke="none" stroke-width="1" fill="none" fill-rule="evenodd">
        <g id="control" transform="translate(-364.000000, -1565.000000)" fill="#000000">
            <g id="ic_control_long_arrow_right_line" transform="translate(300.000000, 1525.000000)">
                <g id="ic/control/long_arrow_right/line" transform="translate(64.000000, 40.000000)">
                    <g id="ic_control_long_arrow_right_line" transform="translate(4.000000, 6.000000)">
                        <path d="M14.6128994,0.209704612 L14.7071068,0.292893219 L23.7071068,9.29289322 C23.7425008,9.32828727 23.774687,9.36567442 23.8036654,9.40469339 L23.8753288,9.5159379 L23.8753288,9.5159379 L23.9287745,9.62866398 L23.9287745,9.62866398 L23.9641549,9.73400703 L23.9641549,9.73400703 L23.9930928,9.8819045 L23.9930928,9.8819045 L24,10 L24,10 L23.9972121,10.0752385 L23.9972121,10.0752385 L23.9797599,10.2007258 L23.9797599,10.2007258 L23.9502619,10.3121425 L23.9502619,10.3121425 L23.9063266,10.4232215 L23.9063266,10.4232215 L23.8540045,10.5207088 L23.8540045,10.5207088 L23.7803112,10.625449 L23.7803112,10.625449 L23.7071068,10.7071068 L14.7071068,19.7071068 C14.3165825,20.0976311 13.6834175,20.0976311 13.2928932,19.7071068 C12.9324093,19.3466228 12.9046797,18.7793918 13.2097046,18.3871006 L13.2928932,18.2928932 L20.585,11 L1,11 C0.44771525,11 0,10.5522847 0,10 C0,9.48716416 0.38604019,9.06449284 0.883378875,9.00672773 L1,9 L20.585,9 L13.2928932,1.70710678 C12.9324093,1.34662282 12.9046797,0.779391764 13.2097046,0.387100557 L13.2928932,0.292893219 C13.6533772,-0.0675907428 14.2206082,-0.0953202783 14.6128994,0.209704612 Z" id="Path"></path>
                    </g>
                </g>
            </g>
        </g>
    </g>
</svg>