<?xml version="1.0" encoding="UTF-8"?>
<svg width="32px" height="32px" viewBox="0 0 32 32" version="1.1" xmlns="http://www.w3.org/2000/svg" xmlns:xlink="http://www.w3.org/1999/xlink">
    <title>977279AE-CE4E-42B7-BC14-490C5FDFD6C6</title>
    <g id="STDS_Icon" stroke="none" stroke-width="1" fill="none" fill-rule="evenodd">
        <g id="communication" transform="translate(-364.000000, -665.000000)" fill="#000000">
            <g id="ic_communication_hand_up_line" transform="translate(300.000000, 625.000000)">
                <g id="ic/communication/hand_up/line" transform="translate(64.000000, 40.000000)">
                    <g id="ic_communication_hand_up_line" transform="translate(4.000000, 2.000000)">
                        <path d="M11,0 C12.2991244,0 13.4053812,0.825764065 13.8225221,1.98104378 L13.8773722,2.14827175 L13.894,2.211 L13.9882237,2.17489588 C14.1857867,2.10413287 14.3929335,2.05350492 14.607191,2.025485 L14.8237272,2.00509269 L15,2 C16.5976809,2 17.9036609,3.24891996 17.9949073,4.82372721 L18,5 L18,14.284 L18.8530504,13.1054259 L19.840815,11.7002088 L19.9397971,11.579291 C21.006217,10.4666405 22.6552298,10.3560833 23.8400192,11.2114381 C25.0125438,12.053867 25.3364735,13.528684 24.6926214,15.2018838 L24.6270754,15.3451644 L24.6270754,15.3451644 L24.4813616,15.6505138 L24.228306,16.1520089 L23.9371799,16.7000708 L23.7785047,16.9895959 L23.4372583,17.5956983 L23.0672549,18.2326212 L22.6722201,18.8940663 L22.4664801,19.2320164 L22.0408832,19.9184351 L21.5995684,20.6136299 L21.1462611,21.3113022 L20.6846867,22.0051536 L20.2185705,22.6888857 L19.7516381,23.3561999 C17.5269138,26.492138 14.6310169,28 11,28 C4.29933505,28 0.139540951,23.5224583 0.00709728667,17.9641737 L0.00383720315,17.6899591 L2.27373675e-13,9 C2.27373675e-13,7.34314575 1.34314575,6 3,6 C3.22190012,6 3.4381733,6.02409182 3.64634656,6.06980249 L3.85172825,6.12262784 L4,6.17 L4,5 C4,3.46149248 5.15812057,2.19347852 6.65013662,2.02018319 L6.82372721,2.00509269 L7,2 C7.28403216,2 7.55884513,2.03947204 7.8192527,2.11322991 L8.01177634,2.17489588 L8.105,2.211 L8.12262784,2.14827175 C8.45618324,1.01967992 9.43565897,0.168293388 10.6329359,0.0222312907 L10.8237272,0.00509269341 L11,0 Z M10.9999999,2 C10.4871642,2 10.0644928,2.38604019 10.0067276,2.88337887 L9.9999999,3 L9.9999999,13.5 C9.9999999,14.0522847 9.55228475,14.5 8.9999999,14.5 C8.48716416,14.5 8.06449284,14.1139598 8.00672773,13.6166211 L7.9999999,13.5 L7.9999999,5 L7.99327227,4.88337887 C7.93550716,4.38604019 7.51283584,4 6.9999999,4 C6.48716415,4 6.06449275,4.38604019 6.00672764,4.88337887 L5.9999999,5 L5.9999999,14.5 C5.9999999,15.0522847 5.55228475,15.5 4.9999999,15.5 C4.48716416,15.5 4.06449284,15.1139598 4.00672773,14.6166211 L3.9999999,14.5 L3.9999999,9 L3.99327227,8.88337887 C3.93550716,8.38604019 3.51283584,8 2.9999999,8 C2.48716415,8 2.06449275,8.38604019 2.00672764,8.88302532 L1.9999999,8.99955842 L2.00383711,17.6895175 C2.00383711,22.3119905 5.3411098,26 10.9999999,26 C13.8776823,26 16.1107103,24.8889548 17.9273727,22.4638464 L18.1204323,22.1989758 L18.5715728,21.5542194 L19.0220278,20.8935278 L19.4680049,20.2234006 L19.9057115,19.5503374 L20.3313553,18.8808378 L20.7411438,18.2214014 L21.2253056,17.421159 L21.2253056,17.421159 L21.6713609,16.6594906 L21.9957909,16.0864598 L22.2872999,15.5527404 L22.5420953,15.064832 C22.6596826,14.8334138 22.7620802,14.6216121 22.8471548,14.4330829 C23.1630302,13.6100173 23.0528981,13.1085977 22.6711885,12.8343459 C22.3102745,12.5737862 21.8331402,12.5820456 21.4774932,12.8759415 L21.425,12.924 L20.9190629,13.6484635 L19.9580971,14.9963046 L19.3204779,15.8570791 L19.0064336,16.2620917 L18.7422047,16.5853192 L18.5930891,16.7560969 L18.4651561,16.8916189 L18.4090134,16.9462957 C17.5493837,17.7543083 16.1075975,17.5154811 16.0057092,16.1557032 L15.9999999,16 L15.9999999,5 C15.9999999,4.44771525 15.5522847,4 14.9999999,4 C14.4871642,4 14.0644928,4.38604019 14.0067276,4.88337887 L13.9999999,4.983 L13.9999999,13.5 C13.9999999,14.0522847 13.5522847,14.5 12.9999999,14.5 C12.4871642,14.5 12.0644928,14.1139598 12.0067277,13.6166211 L11.9999999,13.5 L11.9999999,3 C11.9999999,2.44771525 11.5522847,2 10.9999999,2 Z" id="Shape"></path>
                    </g>
                </g>
            </g>
        </g>
    </g>
</svg>