<?xml version="1.0" encoding="UTF-8"?>
<svg width="32px" height="32px" viewBox="0 0 32 32" version="1.1" xmlns="http://www.w3.org/2000/svg" xmlns:xlink="http://www.w3.org/1999/xlink">
    <title>06150D8A-C848-4B43-849B-63172848FE73</title>
    <g id="STDS_Icon" stroke="none" stroke-width="1" fill="none" fill-rule="evenodd">
        <g id="communication" transform="translate(-364.000000, -1025.000000)" fill="#000000">
            <g id="ic_communication_phone_disabled_line" transform="translate(300.000000, 985.000000)">
                <g id="ic/communication/phone_disabled/line" transform="translate(64.000000, 40.000000)">
                    <g id="ic_communication_phone_disabled_line" transform="translate(3.000000, 3.000000)">
                        <path d="M24.7071068,1.29289322 C25.0675907,1.65337718 25.0953203,2.22060824 24.7902954,2.61289944 L24.7071068,2.70710678 L11.4138395,16.0009867 C12.0203403,16.4970085 12.6834505,16.9208326 13.3878583,17.2614415 L13.4064772,17.2644131 L13.427777,17.255731 L16.6990415,15.0743793 C17.1735159,14.7579903 17.7533486,14.6569834 18.2985275,14.7842208 L18.4787783,14.8351045 L18.6394454,14.8961228 L24.7564082,17.5176838 C25.5934298,17.8732323 26.0944215,18.7394856 25.9843441,19.6489337 C25.5203527,23.2796649 22.4304763,26 18.7703175,26 C14.0668088,26 9.63626869,24.260889 6.22392424,21.1911719 L2.70710678,24.7071068 C2.31658249,25.0976311 1.68341751,25.0976311 1.29289322,24.7071068 C0.932409257,24.3466228 0.904679722,23.7793918 1.20970461,23.3871006 L1.29289322,23.2928932 L23.2928932,1.29289322 C23.6834175,0.902368927 24.3165825,0.902368927 24.7071068,1.29289322 Z M17.8296124,16.7309391 L17.8086198,16.7383613 L14.5418772,18.9166799 C13.9456445,19.3189669 13.1813873,19.3767897 12.5243432,19.0654039 C11.6124919,18.6245198 10.7625519,18.0714654 9.99322989,17.4206487 L7.64086749,19.7752139 C10.6793344,22.4742036 14.6030265,24 18.7703175,24 C21.4238946,24 23.6640781,22.0277367 23.9996539,19.4020326 C24.0011465,19.3896983 23.997081,19.377697 23.9882479,19.3685345 L23.9715212,19.3572333 L17.8516071,16.734413 L17.8296124,16.7309391 Z M8.32999381,0.951702072 L8.41331261,1.09695151 L8.48105434,1.24062629 L11.1061628,7.36588106 C11.3760058,7.99551532 11.312728,8.71843047 10.9376009,9.2916096 L9.0987904,12.1012375 C9.01152892,12.2345695 8.93916384,12.3604436 8.85013163,12.5627643 C8.7970713,12.6833409 8.75065103,12.807628 8.71271617,12.9340253 C8.5539581,13.4630001 7.99644046,13.76312 7.46746568,13.6043619 C6.9384909,13.4456039 6.63837096,12.8880862 6.79712903,12.3591114 C6.85953759,12.1511689 6.93453418,11.9503707 7.01953862,11.7572029 C7.13277844,11.4998718 7.23345218,11.312685 7.34206198,11.1367613 L9.26413811,8.19638251 L9.27136368,8.17551984 L9.2678726,8.15371928 L6.64151057,2.02552662 C6.63422411,2.00837374 6.61647201,1.99810715 6.60459567,1.99952193 C3.97226328,2.33592235 2,4.57610581 2,7.22968276 C2,10.4272586 2.89542414,13.490193 4.55894555,16.1380611 C4.85274781,16.6057134 4.7118145,17.2229943 4.2441622,17.5167966 C3.77650989,17.8105988 3.159229,17.6696655 2.86542675,17.2020132 C1.00309229,14.2376895 1.36424205e-12,10.8064598 1.36424205e-12,7.22968276 C1.36424205e-12,3.56952403 2.72033511,0.479647654 6.35769146,0.0148320945 C7.15074891,-0.0811406272 7.91559306,0.293767983 8.32999381,0.951702072 Z" id="Shape"></path>
                    </g>
                </g>
            </g>
        </g>
    </g>
</svg>