<?xml version="1.0" encoding="UTF-8"?>
<svg width="32px" height="32px" viewBox="0 0 32 32" version="1.1" xmlns="http://www.w3.org/2000/svg" xmlns:xlink="http://www.w3.org/1999/xlink">
    <title>4463DEA2-1042-481C-B83F-5DD1EC366204</title>
    <g id="STDS_Icon" stroke="none" stroke-width="1" fill="none" fill-rule="evenodd">
        <g id="communication" transform="translate(-364.000000, -1205.000000)" fill="#000000">
            <g id="ic_communication_phone_off_line" transform="translate(300.000000, 1165.000000)">
                <g id="ic/communication/phone_off/line" transform="translate(64.000000, 40.000000)">
                    <g id="ic_communication_phone_off_line" transform="translate(3.000000, 3.000000)">
                        <path d="M6.35769146,0.0148320945 C7.20739587,-0.0879958216 8.02471256,0.349728812 8.41435777,1.09940101 L8.48230797,1.24356437 L11.1061628,7.36588106 C11.3535189,7.9430458 11.320961,8.59859239 11.0248735,9.14533595 L10.9376009,9.2916096 L8.76086892,12.6175415 C8.75387595,12.6281022 8.75294802,12.6415611 8.7550642,12.6460421 C9.74097908,14.6616704 11.374833,16.2881009 13.3878583,17.2614415 L13.4064772,17.2644131 L13.4064772,17.2644131 L13.427777,17.255731 L16.6990415,15.0743793 C17.2262352,14.722836 17.8835011,14.6371964 18.4787783,14.8351045 L18.6394454,14.8961228 L24.7564082,17.5176838 C25.5934298,17.8732323 26.0944215,18.7394856 25.9843441,19.6489337 C25.5203527,23.2796649 22.4304763,26 18.7703175,26 C8.40375742,26 -1.70530257e-12,17.5962427 -1.70530257e-12,7.22968276 C-1.70530257e-12,3.56952403 2.72033511,0.479647654 6.35769146,0.0148320945 Z M6.60459567,1.99928536 C3.97226328,2.33592235 2,4.57610581 2,7.22968276 C2,16.4916732 9.50832691,24 18.7703175,24 C21.4238946,24 23.6640781,22.0277367 23.9996539,19.4020326 C24.0011465,19.3896983 23.997081,19.377697 23.9882479,19.3685345 L23.9715212,19.3572333 L17.8516071,16.734413 L17.8296124,16.7309391 L17.8296124,16.7309391 L17.8086198,16.7383613 L14.5418772,18.9166799 C13.9456445,19.3189669 13.1813873,19.3767897 12.5243432,19.0654039 C10.1010826,17.8937468 8.14115025,15.9427195 6.95510888,13.5178801 C6.67111493,12.9257515 6.69155045,12.2367456 6.99931303,11.6693835 L7.09035924,11.5178285 L9.26413811,8.19638251 L9.27136368,8.17551984 L9.27136368,8.17551984 L9.2678726,8.15371928 L6.6427642,2.02846471 C6.63422411,2.00837374 6.61647201,1.99810715 6.60459567,1.99928536 Z M16.6128994,3.20970461 L16.7071068,3.29289322 L19,5.58495869 L21.2928932,3.29289322 C21.6834175,2.90236893 22.3165825,2.90236893 22.7071068,3.29289322 C23.0675907,3.65337718 23.0953203,4.22060824 22.7902954,4.61289944 L22.7071068,4.70710678 L20.415,6.99995869 L22.7071068,9.29289322 C23.0976311,9.68341751 23.0976311,10.3165825 22.7071068,10.7071068 C22.3466228,11.0675907 21.7793918,11.0953203 21.3871006,10.7902954 L21.2928932,10.7071068 L19,8.41495869 L16.7071068,10.7071068 C16.3165825,11.0976311 15.6834175,11.0976311 15.2928932,10.7071068 C14.9324093,10.3466228 14.9046797,9.77939176 15.2097046,9.38710056 L15.2928932,9.29289322 L17.585,6.99995869 L15.2928932,4.70710678 C14.9023689,4.31658249 14.9023689,3.68341751 15.2928932,3.29289322 C15.6533772,2.93240926 16.2206082,2.90467972 16.6128994,3.20970461 Z" id="Shape"></path>
                    </g>
                </g>
            </g>
        </g>
    </g>
</svg>