<?xml version="1.0" encoding="UTF-8"?>
<svg width="32px" height="32px" viewBox="0 0 32 32" version="1.1" xmlns="http://www.w3.org/2000/svg" xmlns:xlink="http://www.w3.org/1999/xlink">
    <title>E1817ED2-3CBC-4CDE-8118-0D92F78FF4B8</title>
    <g id="STDS_Icon" stroke="none" stroke-width="1" fill="none" fill-rule="evenodd">
        <g id="media" transform="translate(-364.000000, -2465.000000)" fill="#000000">
            <g id="ic_media_av_mic_off_line" transform="translate(300.000000, 2425.000000)">
                <g id="ic/media/av/mic_off/line" transform="translate(64.000000, 40.000000)">
                    <g id="ic_media_av_mic_off_line" transform="translate(4.000000, 2.000000)">
                        <path d="M23.7071068,2.29289322 C24.0675907,2.65337718 24.0953203,3.22060824 23.7902954,3.61289944 L23.7071068,3.70710678 L18.999,8.415 L19,12 C19,15.8659932 15.8659932,19 12,19 C10.9710101,19 9.97277078,18.777089 9.06109797,18.3547951 L7.57598604,19.8397914 C8.9091337,20.5941119 10.4230028,21 12,21 C16.9705627,21 21,16.9705627 21,12 C21,11.4477153 21.4477153,11 22,11 C22.5522847,11 23,11.4477153 23,12 C23,17.7388175 18.6053132,22.4512009 12.9977284,22.9553615 L13,23 L13,27 C13,27.5522847 12.5522847,28 12,28 C11.4871642,28 11.0644928,27.6139598 11.0067277,27.1166211 L11,27 L11.0018602,22.9552137 C9.25005758,22.7973657 7.58308444,22.2258191 6.11818587,21.2969972 L1.70710678,25.7071068 C1.31658249,26.0976311 0.683417511,26.0976311 0.292893219,25.7071068 C-0.0675907428,25.3466228 -0.0953202783,24.7793918 0.209704612,24.3871006 L0.292893219,24.2928932 L22.2928932,2.29289322 C22.6834175,1.90236893 23.3165825,1.90236893 23.7071068,2.29289322 Z M2,11 C2.55228475,11 3,11.4477153 3,12 C3,13.6073842 3.42105747,15.1509539 4.20943379,16.5096406 C4.48661396,16.9873326 4.32406705,17.5992773 3.84637511,17.8764575 C3.36868316,18.1536377 2.7567384,17.9910908 2.47955822,17.5133988 C1.5154147,15.8517951 1,13.9623179 1,12 C1,11.4477153 1.44771525,11 2,11 Z M16.999,10.415 L10.6110431,16.8048566 C11.0570253,16.9334703 11.5233305,17 12,17 C14.6887547,17 16.8818181,14.8776933 16.9953805,12.2168896 L17,12 L16.999,10.415 Z M12,0 C14.2876561,0 16.3915475,1.10641499 17.6970314,2.93178901 C18.0183085,3.38100999 17.9145895,4.00562207 17.4653685,4.32689914 C17.0161475,4.6481762 16.3915354,4.54445716 16.0702584,4.09523617 C15.1363663,2.78943514 13.6352245,2 12,2 C9.3112453,2 7.11818189,4.12230671 7.00461951,6.78311038 L7,7 L7,12 C7,12.4738383 7.06565045,12.9377618 7.19336818,13.3826886 L7.28619498,13.6722428 C7.4708536,14.1927422 7.19860084,14.7643858 6.67810143,14.9490444 C6.19478055,15.1205131 5.66736091,14.8980123 5.44663314,14.4486107 L5.38897981,14.3059277 C5.16913916,13.6756008 5.04038711,13.014751 5.00808735,12.3390283 L5,12 L5,7 C5,3.13400675 8.13400675,0 12,0 Z" id="Shape"></path>
                    </g>
                </g>
            </g>
        </g>
    </g>
</svg>