<?xml version="1.0" encoding="UTF-8"?>
<svg width="32px" height="32px" viewBox="0 0 32 32" version="1.1" xmlns="http://www.w3.org/2000/svg" xmlns:xlink="http://www.w3.org/1999/xlink">
    <title>AFE2BC6A-8536-4A34-BC3E-D987C1A1D62F</title>
    <g id="STDS_Icon" stroke="none" stroke-width="1" fill="none" fill-rule="evenodd">
        <g id="media" transform="translate(-364.000000, -305.000000)" fill="#000000">
            <g id="ic_media_av_fast_forward_line" transform="translate(300.000000, 265.000000)">
                <g id="ic/media/av/fast_forward/line" transform="translate(64.000000, 40.000000)">
                    <g id="ic_media_av_fast_forward_line" transform="translate(4.000000, 8.000000)">
                        <path d="M0,1.00173994 C0,0.23124183 0.826018022,-0.235519433 1.47721851,0.122546746 L1.57346234,0.182508015 L11.5734623,7.18250801 C12.1066344,7.55572846 12.1399577,8.31932251 11.6734321,8.74133966 L11.5734623,8.82097186 L1.57346234,15.8209719 C0.942245702,16.2628235 0.0861697441,15.8537932 0.00607003072,15.1149715 L0,15.0017399 L0,1.00173994 Z M13,1.00173994 C13,0.23124183 13.826018,-0.235519433 14.4772185,0.122546746 L14.5734623,0.182508015 L24.5734623,7.18250801 C25.1066344,7.55572846 25.1399577,8.31932251 24.6734321,8.74133966 L24.5734623,8.82097186 L14.5734623,15.8209719 C13.9422457,16.2628235 13.0861697,15.8537932 13.00607,15.1149715 L13,15.0017399 L13,1.00173994 Z M2,2.92273994 L2,13.0797399 L9.255,8.00173994 L2,2.92273994 Z M15,2.92273994 L15,13.0797399 L22.255,8.00173994 L15,2.92273994 Z" id="Shape"></path>
                    </g>
                </g>
            </g>
        </g>
    </g>
</svg>