<?xml version="1.0" encoding="UTF-8"?>
<svg width="32px" height="32px" viewBox="0 0 32 32" version="1.1" xmlns="http://www.w3.org/2000/svg" xmlns:xlink="http://www.w3.org/1999/xlink">
    <title>6D792FE7-2E56-4A85-8DE9-26C50F597B0E</title>
    <g id="STDS_Icon" stroke="none" stroke-width="1" fill="none" fill-rule="evenodd">
        <g id="media" transform="translate(-364.000000, -5067.000000)" fill="#000000">
            <g id="ic_media_image_crop_line" transform="translate(300.000000, 5027.000000)">
                <g id="ic/media/image/crop/line" transform="translate(64.000000, 40.000000)">
                    <g id="ic_media_image_crop_line" transform="translate(2.000000, 2.000000)">
                        <path d="M8.00025,23.000125 C6.40256912,23.000125 5.09658912,21.751205 5.00534269,20.1763978 L5.00025,20.000125 L4.999305,6 L1.000305,6 C0.44802025,6 0.000304999999,5.55228475 0.000304999999,5 C0.000304999999,4.48716416 0.38634519,4.06449284 0.883683875,4.00672773 L1.000305,4 L4.999305,4 L5.00025,1 C5.00025,0.44771525 5.44796525,0 6.00025,0 C6.51308584,0 6.93575716,0.38604019 6.99352227,0.883378875 L7.00025,1 L7.00025,20.000125 C7.00025,20.5129608 7.38629019,20.9356322 7.88362887,20.9933973 L8.00025,21.000125 L27.00025,21.000125 C27.5525347,21.000125 28.00025,21.4478403 28.00025,22.000125 C28.00025,22.5129608 27.6142098,22.9356322 27.1168711,22.9933973 L27.00025,23.000125 L24.000305,23.0001225 L24.000305,27.0001225 C24.000305,27.5524072 23.5525897,28.0001225 23.000305,28.0001225 C22.4874692,28.0001225 22.0647978,27.6140823 22.0070327,27.1167436 L22.000305,27.0001225 L22.000305,23.0001225 L8.00025,23.000125 Z M21.00025,4 C22.5979309,4 23.9039109,5.24891996 23.9951573,6.82372721 L24.00025,7 L24.00025,18.000125 C24.00025,18.5524097 23.5525347,19.000125 23.00025,19.000125 C22.4874142,19.000125 22.0647428,18.6140848 22.0069777,18.1167461 L22.00025,18.000125 L22.00025,7 C22.00025,6.48716416 21.6142098,6.06449284 21.1168711,6.00672773 L21.00025,6 L9.99925,6 C9.44696525,6 8.99925,5.55228475 8.99925,5 C8.99925,4.48716416 9.38529019,4.06449284 9.88262887,4.00672773 L9.99925,4 L21.00025,4 Z" id="Shape"></path>
                    </g>
                </g>
            </g>
        </g>
    </g>
</svg>