<?xml version="1.0" encoding="UTF-8"?>
<svg width="32px" height="32px" viewBox="0 0 32 32" version="1.1" xmlns="http://www.w3.org/2000/svg" xmlns:xlink="http://www.w3.org/1999/xlink">
    <title>31E52542-4E99-43CF-A3BC-F704864915CE</title>
    <g id="STDS_Icon" stroke="none" stroke-width="1" fill="none" fill-rule="evenodd">
        <g id="media" transform="translate(-364.000000, -5247.000000)" fill="#000000">
            <g id="ic_media_image_camera_line" transform="translate(300.000000, 5207.000000)">
                <g id="ic/media/image/camera/line" transform="translate(64.000000, 40.000000)">
                    <g id="ic_media_image_camera_line" transform="translate(3.000000, 4.000000)">
                        <path d="M15.8393549,0 C16.8486398,0 17.7853796,0.507004272 18.3386379,1.34056947 L18.4440844,1.51158318 L19.581,3.5 L23,3.5 C24.5385075,3.5 25.8065215,4.65812057 25.9798168,6.15013662 L25.9949073,6.32372721 L26,6.5 L26,21 C26,22.5976809 24.75108,23.9036609 23.1762728,23.9949073 L23,24 L3,24 C1.40231912,24 0.0963391206,22.75108 0.00509269341,21.1762728 L0,21 L0,6.5 C0,4.90231912 1.24891996,3.59633912 2.82372721,3.50509269 L3,3.5 L6.418,3.5 L7.55591564,1.51158318 C8.02327814,0.693698817 8.84275291,0.149806217 9.76153722,0.0266125102 L9.95984749,0.00670659226 L10.1606451,0 L15.8393549,0 Z M15.8393549,2 L10.1606451,2 C9.84166121,2 9.54441633,2.15192973 9.3572548,2.40452097 L9.29240193,2.50386106 L7.86824314,4.99613894 C7.70998283,5.27309449 7.43059612,5.45579706 7.11842739,5.49297843 L7,5.5 L3,5.5 C2.48716416,5.5 2.06449284,5.88604019 2.00672773,6.38337887 L2,6.5 L2,21 C2,21.5128358 2.38604019,21.9355072 2.88337887,21.9932723 L3,22 L23,22 C23.5128358,22 23.9355072,21.6139598 23.9932723,21.1166211 L24,21 L24,6.5 C24,5.98716416 23.6139598,5.56449284 23.1166211,5.50672773 L23,5.5 L19,5.5 C18.6810161,5.5 18.3837713,5.34807027 18.1966097,5.09547903 L18.1317569,4.99613894 L16.7075981,2.50386106 C16.5493378,2.22690551 16.2699511,2.04420294 15.9577823,2.00702157 L15.8393549,2 Z M13,7 C16.3137085,7 19,9.6862915 19,13 C19,16.3137085 16.3137085,19 13,19 C9.6862915,19 7,16.3137085 7,13 C7,9.6862915 9.6862915,7 13,7 Z M13,9 C10.790861,9 9,10.790861 9,13 C9,15.209139 10.790861,17 13,17 C15.209139,17 17,15.209139 17,13 C17,10.790861 15.209139,9 13,9 Z" id="Shape"></path>
                    </g>
                </g>
            </g>
        </g>
    </g>
</svg>