<?xml version="1.0" encoding="UTF-8"?>
<svg width="32px" height="32px" viewBox="0 0 32 32" version="1.1" xmlns="http://www.w3.org/2000/svg" xmlns:xlink="http://www.w3.org/1999/xlink">
    <title>4916562B-B893-4EA4-80AA-DD46409E708A</title>
    <g id="STDS_Icon" stroke="none" stroke-width="1" fill="none" fill-rule="evenodd">
        <g id="media" transform="translate(-364.000000, -3545.000000)" fill="#000000">
            <g id="ic_media_av_video_file_line" transform="translate(300.000000, 3505.000000)">
                <g id="ic/media/av/video_file/line" transform="translate(64.000000, 40.000000)">
                    <g id="ic_media_av_video_file_line" transform="translate(2.000000, 6.000000)">
                        <path d="M19,0 C20.5976809,0 21.9036609,1.24891996 21.9949073,2.82372721 L22,3 L22,5.381 L26.5527864,3.10557281 C27.1456394,2.80914632 27.8318372,3.16141622 27.9735877,3.76820531 L27.99363,3.88486468 L28,4 L28,16 C28,16.7042567 27.2978691,17.1752635 26.6586153,16.9402197 L26.5527864,16.8944272 L22,14.618 L22,17 C22,18.5385075 20.8418794,19.8065215 19.3498634,19.9798168 L19.1762728,19.9949073 L19,20 L3,20 C1.40231912,20 0.0963391206,18.75108 0.00509269341,17.1762728 L0,17 L0,3 C0,1.40231912 1.24891996,0.0963391206 2.82372721,0.00509269341 L3,0 L19,0 Z M19,2 L3,2 C2.48716416,2 2.06449284,2.38604019 2.00672773,2.88337887 L2,3 L2,17 C2,17.5128358 2.38604019,17.9355072 2.88337887,17.9932723 L3,18 L19,18 C19.5128358,18 19.9355072,17.6139598 19.9932723,17.1166211 L20,17 L20,13 C20,12.2957433 20.7021309,11.8247365 21.3413847,12.0597803 L21.4472136,12.1055728 L26,14.382 L26,5.618 L21.4472136,7.89442719 C20.8543606,8.19085368 20.1681628,7.83858378 20.0264123,7.23179469 L20.00637,7.11513532 L20,7 L20,3 C20,2.48716416 19.6139598,2.06449284 19.1166211,2.00672773 L19,2 Z M8,6 C8,5.23933773 8.80738818,4.77101468 9.45834965,5.11084891 L9.5547002,5.16794971 L15.5547002,9.16794971 C16.111325,9.53903288 16.146114,10.329033 15.6590673,10.7524808 L15.5547002,10.8320503 L9.5547002,14.8320503 C8.92179093,15.2539898 8.08426422,14.8419811 8.00593493,14.1118423 L8,14 L8,6 Z M10,7.869 L10,12.13 L13.196,10 L10,7.869 Z" id="Shape"></path>
                    </g>
                </g>
            </g>
        </g>
    </g>
</svg>