<?xml version="1.0" encoding="UTF-8"?>
<svg width="32px" height="32px" viewBox="0 0 32 32" version="1.1" xmlns="http://www.w3.org/2000/svg" xmlns:xlink="http://www.w3.org/1999/xlink">
    <title>6D4DB053-C805-4227-95BD-0EB59EE26601</title>
    <g id="STDS_Icon" stroke="none" stroke-width="1" fill="none" fill-rule="evenodd">
        <g id="media" transform="translate(-364.000000, -2645.000000)" fill="#000000">
            <g id="ic_media_av_volume_line" transform="translate(300.000000, 2605.000000)">
                <g id="ic/media/av/volume/line" transform="translate(64.000000, 40.000000)">
                    <g id="ic_media_av_volume_line" transform="translate(2.000000, 4.000000)">
                        <path d="M15.4452998,0.167949706 C16.0782091,-0.253989805 16.9157358,0.158018877 16.9940651,0.888157681 L17,1 L17,23 C17,23.7606623 16.1926118,24.2289853 15.5416503,23.8891511 L15.4452998,23.8320503 L6.697,18 L3,18 C1.46149248,18 0.193478518,16.8418794 0.020183194,15.3498634 L0.00509269341,15.1762728 L0,15 L0,9 C0,7.40231912 1.24891996,6.09633912 2.82372721,6.00509269 L3,6 L6.696,6 L15.4452998,0.167949706 Z M15,2.868 L7.5547002,7.83205029 C7.42328618,7.91965964 7.27347846,7.97458184 7.11773033,7.99304635 L7,8 L3,8 C2.48716416,8 2.06449284,8.38604019 2.00672773,8.88337887 L2,9 L2,15 C2,15.5128358 2.38604019,15.9355072 2.88337887,15.9932723 L3,16 L7,16 C7.15793999,16 7.31305291,16.0374003 7.45288545,16.1084305 L7.5547002,16.1679497 L15,21.131 L15,2.868 Z M24.6949595,4.28095113 C26.8098335,6.32497326 27.9999991,9.10202836 27.9999991,11.9999991 C27.9999991,14.8979716 26.8098335,17.6750267 24.6949595,19.7190489 C24.2978398,20.1028644 23.6647667,20.0920792 23.2809511,19.6949595 C22.8971356,19.2978398 22.9079208,18.6647667 23.3050405,18.2809511 C25.0319019,16.6119425 25.9999991,14.353047 25.9999991,11.9999991 C25.9999991,9.64695299 25.0319019,7.38805751 23.3050405,5.71904887 C22.9079208,5.33523333 22.8971356,4.70216022 23.2809511,4.30504049 C23.6647667,3.90792076 24.2978398,3.89713559 24.6949595,4.28095113 Z M21.779065,8.37305685 C22.5662844,9.35128756 23,10.6524345 23,12 C23,13.3475655 22.5662844,14.6487124 21.779065,15.6269432 C21.4328139,16.0572089 20.8033226,16.1253161 20.3730568,15.779065 C19.9427911,15.4328139 19.8746839,14.8033226 20.220935,14.3730568 C20.7142941,13.7599888 21,12.9028711 21,12 C21,11.0971289 20.7142941,10.2400112 20.220935,9.62694315 C19.8746839,9.19667743 19.9427911,8.56718613 20.3730568,8.22093499 C20.8033226,7.87468385 21.4328139,7.94279113 21.779065,8.37305685 Z" id="Shape"></path>
                    </g>
                </g>
            </g>
        </g>
    </g>
</svg>