<?xml version="1.0" encoding="UTF-8"?>
<svg width="32px" height="32px" viewBox="0 0 32 32" version="1.1" xmlns="http://www.w3.org/2000/svg" xmlns:xlink="http://www.w3.org/1999/xlink">
    <title>8C17181A-2813-4331-A287-53F88E94FAE1</title>
    <g id="STDS_Icon" stroke="none" stroke-width="1" fill="none" fill-rule="evenodd">
        <g id="media" transform="translate(-364.000000, -3725.000000)" fill="#000000">
            <g id="ic_media_av_fullscreen_line" transform="translate(300.000000, 3685.000000)">
                <g id="ic/media/av/fullscreen/line" transform="translate(64.000000, 40.000000)">
                    <g id="ic_media_av_fullscreen_line" transform="translate(4.000000, 4.000000)">
                        <path d="M1,16 C1.51283584,16 1.93550716,16.3860402 1.99327227,16.8833789 L2,17 L2,22 L7,22 C7.51283584,22 7.93550716,22.3860402 7.99327227,22.8833789 L8,23 C8,23.5128358 7.61395981,23.9355072 7.11662113,23.9932723 L7,24 L1,24 C0.487164161,24 0.0644928393,23.6139598 0.00672773133,23.1166211 L0,23 L0,17 C0,16.4477153 0.44771525,16 1,16 Z M23,16 C23.5128358,16 23.9355072,16.3860402 23.9932723,16.8833789 L24,17 L24,23 C24,23.5128358 23.6139598,23.9355072 23.1166211,23.9932723 L23,24 L17,24 C16.4477153,24 16,23.5522847 16,23 C16,22.4871642 16.3860402,22.0644928 16.8833789,22.0067277 L17,22 L22,22 L22,17 C22,16.4871642 22.3860402,16.0644928 22.8833789,16.0067277 L23,16 Z M23,0 C23.5128358,0 23.9355072,0.38604019 23.9932723,0.883378875 L24,1 L24,7 C24,7.55228475 23.5522847,8 23,8 C22.4871642,8 22.0644928,7.61395981 22.0067277,7.11662113 L22,7 L22,2 L17,2 C16.4871642,2 16.0644928,1.61395981 16.0067277,1.11662113 L16,1 C16,0.487164161 16.3860402,0.0644928393 16.8833789,0.00672773133 L17,0 L23,0 Z M7,0 C7.55228475,0 8,0.44771525 8,1 C8,1.51283584 7.61395981,1.93550716 7.11662113,1.99327227 L7,2 L2,2 L2,7 C2,7.51283584 1.61395981,7.93550716 1.11662113,7.99327227 L1,8 C0.487164161,8 0.0644928393,7.61395981 0.00672773133,7.11662113 L0,7 L0,1 C0,0.487164161 0.38604019,0.0644928393 0.883378875,0.00672773133 L1,0 L7,0 Z" id="Shape"></path>
                    </g>
                </g>
            </g>
        </g>
    </g>
</svg>