<?xml version="1.0" encoding="UTF-8"?>
<svg width="32px" height="32px" viewBox="0 0 32 32" version="1.1" xmlns="http://www.w3.org/2000/svg" xmlns:xlink="http://www.w3.org/1999/xlink">
    <title>E7800EBB-0D0C-4B64-9B1D-5C9B6F8FBB17</title>
    <g id="STDS_Icon" stroke="none" stroke-width="1" fill="none" fill-rule="evenodd">
        <g id="media" transform="translate(-364.000000, -1025.000000)" fill="#000000">
            <g id="ic_media_av_replay_line" transform="translate(300.000000, 985.000000)">
                <g id="ic/media/av/replay/line" transform="translate(64.000000, 40.000000)">
                    <g id="ic_media_av_replay_line" transform="translate(4.000000, 2.000000)">
                        <path d="M8,9 C8,9.21637021 7.93301257,9.42690383 7.80909244,9.6 C7.51711767,10.007841 6.98485924,10.1155105 6.57299001,9.86902959 L6.47273953,9.8 L1.38187129,5.8 C1.30951192,5.74314575 1.24523326,5.67580567 1.19096374,5.6 C0.898988966,5.19215895 0.949357773,4.62670731 1.29054546,4.28149586 L1.38187129,4.2 L6.47273953,0.2 C6.63796637,0.0701778719 6.83892866,0 7.04546221,0 C7.5349834,0 7.93843915,0.38604019 7.99357813,0.883378875 L8,1 L8,4 L12,4 C18.627417,4 24,9.372583 24,16 C24,22.627417 18.627417,28 12,28 C5.372583,28 0,22.627417 0,16 C0,15.4477153 0.44771525,15 1,15 C1.55228475,15 2,15.4477153 2,16 C2,21.5228475 6.4771525,26 12,26 C17.5228475,26 22,21.5228475 22,16 C22,10.5707601 17.6733292,6.15206828 12.2799048,6.0038418 L12,6 L8,6 L8,9 Z" id="Shape"></path>
                    </g>
                </g>
            </g>
        </g>
    </g>
</svg>