<?xml version="1.0" encoding="UTF-8"?>
<svg width="32px" height="32px" viewBox="0 0 32 32" version="1.1" xmlns="http://www.w3.org/2000/svg" xmlns:xlink="http://www.w3.org/1999/xlink">
    <title>94E4132F-62FE-4F40-A9FE-5EBE36C1714A</title>
    <g id="STDS_Icon" stroke="none" stroke-width="1" fill="none" fill-rule="evenodd">
        <g id="media" transform="translate(-364.000000, -1925.000000)" fill="#000000">
            <g id="ic_media_av_sound_line" transform="translate(300.000000, 1885.000000)">
                <g id="ic/media/av/sound/line" transform="translate(64.000000, 40.000000)">
                    <g id="ic_media_av_sound_line" transform="translate(3.000000, 3.000000)">
                        <path d="M26,21 C26,22.5976809 24.75108,23.9036609 23.1762728,23.9949073 L23,24 L21,24 C19.4023191,24 18.0963391,22.75108 18.0050927,21.1762728 L18,21 L18,16 C18,14.4023191 19.24892,13.0963391 20.8237272,13.0050927 L21,13 L23.997,13 L23.9962897,12.9146401 C23.8432435,6.856555 18.9748673,2 13,2 C7.02513267,2 2.15675654,6.856555 2.0037103,12.9146401 L2.002,13 L5,13 C6.59768088,13 7.90366088,14.24892 7.99490731,15.8237272 L8,16 L8,21 C8,22.5976809 6.75108004,23.9036609 5.17627279,23.9949073 L5,24 L3,24 C1.40231912,24 0.0963391206,22.75108 0.00509269341,21.1762728 L0,21 L0,13 L0.002,13 L0.0035480911,12.8970725 C0.166461938,5.74969159 5.91902499,0 13,0 C20.080975,0 25.8335381,5.74969159 25.9964519,12.8970725 L25.997,13 L26,13 L26,21 Z M5,15 L2,15 L2,21 C2,21.5128358 2.38604019,21.9355072 2.88337887,21.9932723 L3,22 L5,22 C5.51283584,22 5.93550716,21.6139598 5.99327227,21.1166211 L6,21 L6,16 C6,15.4871642 5.61395981,15.0644928 5.11662113,15.0067277 L5,15 Z M24,15 L21,15 C20.4871642,15 20.0644928,15.3860402 20.0067277,15.8833789 L20,16 L20,21 C20,21.5128358 20.3860402,21.9355072 20.8833789,21.9932723 L21,22 L23,22 C23.5128358,22 23.9355072,21.6139598 23.9932723,21.1166211 L24,21 L24,15 Z" id="Shape"></path>
                    </g>
                </g>
            </g>
        </g>
    </g>
</svg>