<?xml version="1.0" encoding="UTF-8"?>
<svg width="32px" height="32px" viewBox="0 0 32 32" version="1.1" xmlns="http://www.w3.org/2000/svg" xmlns:xlink="http://www.w3.org/1999/xlink">
    <title>C5FA5FDA-7C65-4FFE-87BA-825F606C6FB6</title>
    <g id="STDS_Icon" stroke="none" stroke-width="1" fill="none" fill-rule="evenodd">
        <g id="media" transform="translate(-364.000000, -4265.000000)" fill="#000000">
            <g id="ic_media_av_pip_off_line" transform="translate(300.000000, 4225.000000)">
                <g id="ic/media/av/pip_off/line" transform="translate(64.000000, 40.000000)">
                    <g id="ic_media_av_pip_off_line" transform="translate(3.000000, 4.000000)">
                        <path d="M25,14 C26.0543618,14 26.9181651,14.8158778 26.9945143,15.8507377 L27,16 L27,22 C27,23.0543618 26.1841222,23.9181651 25.1492623,23.9945143 L25,24 L17,24 C15.9456382,24 15.0818349,23.1841222 15.0054857,22.1492623 L15,22 L15,16 C15,14.9456382 15.8158778,14.0818349 16.8507377,14.0054857 L17,14 L25,14 Z M23,0 C24.5976809,0 25.9036609,1.24891996 25.9949073,2.82372721 L26,3 L26,11 C26,11.5522847 25.5522847,12 25,12 C24.4871642,12 24.0644928,11.6139598 24.0067277,11.1166211 L24,11 L24,3 C24,2.48716416 23.6139598,2.06449284 23.1166211,2.00672773 L23,2 L3,2 C2.48716416,2 2.06449284,2.38604019 2.00672773,2.88337887 L2,3 L2,19 C2,19.5128358 2.38604019,19.9355072 2.88337887,19.9932723 L3,20 L12,20 C12.5522847,20 13,20.4477153 13,21 C13,21.5128358 12.6139598,21.9355072 12.1166211,21.9932723 L12,22 L3,22 C1.40231912,22 0.0963391206,20.75108 0.00509269341,19.1762728 L0,19 L0,3 C0,1.40231912 1.24891996,0.0963391206 2.82372721,0.00509269341 L3,0 L23,0 Z M25,16 L17,16 L17,22 L25,22 L25,16 Z M11.5,4.5 C12.0522847,4.5 12.5,4.94771525 12.5,5.5 C12.5,6.01283584 12.1139598,6.43550716 11.6166211,6.49327227 L11.5,6.5 L7.915,6.5 L12.7071068,11.2928932 C13.0976311,11.6834175 13.0976311,12.3165825 12.7071068,12.7071068 C12.3466228,13.0675907 11.7793918,13.0953203 11.3871006,12.7902954 L11.2928932,12.7071068 L6.5,7.915 L6.5,11.5 C6.5,12.0128358 6.11395981,12.4355072 5.61662113,12.4932723 L5.5,12.5 C4.98716416,12.5 4.56449284,12.1139598 4.50672773,11.6166211 L4.5,11.5 L4.5,5.5 C4.5,4.98716416 4.88604019,4.56449284 5.38337887,4.50672773 L5.5,4.5 L11.5,4.5 Z" id="Shape"></path>
                    </g>
                </g>
            </g>
        </g>
    </g>
</svg>