<?xml version="1.0" encoding="UTF-8"?>
<svg width="32px" height="32px" viewBox="0 0 32 32" version="1.1" xmlns="http://www.w3.org/2000/svg" xmlns:xlink="http://www.w3.org/1999/xlink">
    <title>F5725807-68B9-4430-B49E-ABED0209530F</title>
    <g id="STDS_Icon" stroke="none" stroke-width="1" fill="none" fill-rule="evenodd">
        <g id="media" transform="translate(-364.000000, -1745.000000)" fill="#000000">
            <g id="ic_media_av_pause_circle_line" transform="translate(300.000000, 1705.000000)">
                <g id="ic/media/av/pause_circle/line" transform="translate(64.000000, 40.000000)">
                    <g id="ic_media_av_pause_circle_line" transform="translate(2.000000, 2.000000)">
                        <path d="M14,0 C21.7319865,0 28,6.2680135 28,14 C28,21.7319865 21.7319865,28 14,28 C6.2680135,28 0,21.7319865 0,14 C0,6.2680135 6.2680135,0 14,0 Z M14,2 C7.372583,2 2,7.372583 2,14 C2,20.627417 7.372583,26 14,26 C20.627417,26 26,20.627417 26,14 C26,7.372583 20.627417,2 14,2 Z M12,8 C12.5522847,8 13,8.44771525 13,9 L13,19 C13,19.5522847 12.5522847,20 12,20 L10,20 C9.44771525,20 9,19.5522847 9,19 L9,9 C9,8.44771525 9.44771525,8 10,8 L12,8 Z M18,8 C18.5522847,8 19,8.44771525 19,9 L19,19 C19,19.5522847 18.5522847,20 18,20 L16,20 C15.4477153,20 15,19.5522847 15,19 L15,9 C15,8.44771525 15.4477153,8 16,8 L18,8 Z" id="Shape"></path>
                    </g>
                </g>
            </g>
        </g>
    </g>
</svg>