<?xml version="1.0" encoding="UTF-8"?>
<svg width="32px" height="32px" viewBox="0 0 32 32" version="1.1" xmlns="http://www.w3.org/2000/svg" xmlns:xlink="http://www.w3.org/1999/xlink">
    <title>CA1B2EB1-325F-4388-A85A-CEA960E6CE33</title>
    <g id="STDS_Icon" stroke="none" stroke-width="1" fill="none" fill-rule="evenodd">
        <g id="media" transform="translate(-364.000000, -1565.000000)" fill="#000000">
            <g id="ic_media_av_pause_line" transform="translate(300.000000, 1525.000000)">
                <g id="ic/media/av/pause/line" transform="translate(64.000000, 40.000000)">
                    <g id="ic_media_av_pause_line" transform="translate(7.000000, 6.000000)">
                        <path d="M5,0 C6.0543618,0 6.91816512,0.815877791 6.99451426,1.85073766 L7,2 L7,18 C7,19.0543618 6.18412221,19.9181651 5.14926234,19.9945143 L5,20 L2,20 C0.945638205,20 0.0818348781,19.1841222 0.00548573643,18.1492623 L0,18 L0,2 C0,0.945638205 0.815877791,0.0818348781 1.85073766,0.00548573643 L2,0 L5,0 Z M16,0 C17.0543618,0 17.9181651,0.815877791 17.9945143,1.85073766 L18,2 L18,18 C18,19.0543618 17.1841222,19.9181651 16.1492623,19.9945143 L16,20 L13,20 C11.9456382,20 11.0818349,19.1841222 11.0054857,18.1492623 L11,18 L11,2 C11,0.945638205 11.8158778,0.0818348781 12.8507377,0.00548573643 L13,0 L16,0 Z M5,2 L2,2 L2,18 L5,18 L5,2 Z M16,2 L13,2 L13,18 L16,18 L16,2 Z" id="Shape"></path>
                    </g>
                </g>
            </g>
        </g>
    </g>
</svg>