<?xml version="1.0" encoding="UTF-8"?>
<svg width="32px" height="32px" viewBox="0 0 32 32" version="1.1" xmlns="http://www.w3.org/2000/svg" xmlns:xlink="http://www.w3.org/1999/xlink">
    <title>E3591DE8-05D9-4331-8B9A-52679A732489</title>
    <g id="STDS_Icon" stroke="none" stroke-width="1" fill="none" fill-rule="evenodd">
        <g id="media" transform="translate(-364.000000, -3905.000000)" fill="#000000">
            <g id="ic_media_av_fullscreen_exit_line" transform="translate(300.000000, 3865.000000)">
                <g id="ic/media/av/fullscreen_exit/line" transform="translate(64.000000, 40.000000)">
                    <g id="ic_media_av_fullscreen_exit_line" transform="translate(4.000000, 4.000000)">
                        <path d="M7,16 C7.51283584,16 7.93550716,16.3860402 7.99327227,16.8833789 L8,17 L8,23 C8,23.5522847 7.55228475,24 7,24 C6.48716416,24 6.06449284,23.6139598 6.00672773,23.1166211 L6,23 L6,18 L1,18 C0.487164161,18 0.0644928393,17.6139598 0.00672773133,17.1166211 L0,17 C0,16.4871642 0.38604019,16.0644928 0.883378875,16.0067277 L1,16 L7,16 Z M23,16 C23.5522847,16 24,16.4477153 24,17 C24,17.5128358 23.6139598,17.9355072 23.1166211,17.9932723 L23,18 L18,18 L18,23 C18,23.5128358 17.6139598,23.9355072 17.1166211,23.9932723 L17,24 C16.4871642,24 16.0644928,23.6139598 16.0067277,23.1166211 L16,23 L16,17 C16,16.4871642 16.3860402,16.0644928 16.8833789,16.0067277 L17,16 L23,16 Z M17,0 C17.5128358,0 17.9355072,0.38604019 17.9932723,0.883378875 L18,1 L18,6 L23,6 C23.5128358,6 23.9355072,6.38604019 23.9932723,6.88337887 L24,7 C24,7.51283584 23.6139598,7.93550716 23.1166211,7.99327227 L23,8 L17,8 C16.4871642,8 16.0644928,7.61395981 16.0067277,7.11662113 L16,7 L16,1 C16,0.44771525 16.4477153,0 17,0 Z M7,0 C7.51283584,0 7.93550716,0.38604019 7.99327227,0.883378875 L8,1 L8,7 C8,7.51283584 7.61395981,7.93550716 7.11662113,7.99327227 L7,8 L1,8 C0.44771525,8 0,7.55228475 0,7 C0,6.48716416 0.38604019,6.06449284 0.883378875,6.00672773 L1,6 L6,6 L6,1 C6,0.487164161 6.38604019,0.0644928393 6.88337887,0.00672773133 L7,0 Z" id="Shape"></path>
                    </g>
                </g>
            </g>
        </g>
    </g>
</svg>