<?xml version="1.0" encoding="UTF-8"?>
<svg width="32px" height="32px" viewBox="0 0 32 32" version="1.1" xmlns="http://www.w3.org/2000/svg" xmlns:xlink="http://www.w3.org/1999/xlink">
    <title>D11B4465-D9FC-460E-A3B3-9F410CF0A8E3</title>
    <g id="STDS_Icon" stroke="none" stroke-width="1" fill="none" fill-rule="evenodd">
        <g id="media" transform="translate(-364.000000, -845.000000)" fill="#000000">
            <g id="ic_media_av_10_rewind_line" transform="translate(300.000000, 805.000000)">
                <g id="ic/media/av/10_rewind/line" transform="translate(64.000000, 40.000000)">
                    <g id="ic_media_av_10_rewind_line" transform="translate(4.000000, 2.000000)">
                        <path d="M8,9 C8,9.21637021 7.93301257,9.42690383 7.80909244,9.6 C7.51711767,10.007841 6.98485924,10.1155105 6.57299001,9.86902959 L6.47273953,9.8 L1.38187129,5.8 C1.30951192,5.74314575 1.24523326,5.67580567 1.19096374,5.6 C0.898988966,5.19215895 0.949357773,4.62670731 1.29054546,4.28149586 L1.38187129,4.2 L6.47273953,0.2 C6.63796637,0.0701778719 6.83892866,0 7.04546221,0 C7.5349834,0 7.93843915,0.38604019 7.99357813,0.883378875 L8,1 L8,4 L12,4 C18.627417,4 24,9.372583 24,16 C24,22.627417 18.627417,28 12,28 C5.372583,28 0,22.627417 0,16 C0,15.4477153 0.44771525,15 1,15 C1.55228475,15 2,15.4477153 2,16 C2,21.5228475 6.4771525,26 12,26 C17.5228475,26 22,21.5228475 22,16 C22,10.5707601 17.6733292,6.15206828 12.2799048,6.0038418 L12,6 L8,6 L8,9 Z M14.608,11.5 C15.032,11.5 15.43,11.572 15.802,11.716 C16.174,11.86 16.502,12.1 16.786,12.436 C17.07,12.772 17.294,13.218 17.458,13.774 C17.622,14.33 17.704,15.016 17.704,15.832 C17.704,16.672 17.622,17.374 17.458,17.938 C17.294,18.502 17.07,18.952 16.786,19.288 C16.502,19.624 16.174,19.864 15.802,20.008 C15.43,20.152 15.032,20.224 14.608,20.224 C14.192,20.224 13.798,20.152 13.426,20.008 C13.054,19.864 12.728,19.624 12.448,19.288 C12.168,18.952 11.946,18.502 11.782,17.938 C11.618,17.374 11.536,16.672 11.536,15.832 C11.536,15.016 11.618,14.33 11.782,13.774 C11.946,13.218 12.168,12.772 12.448,12.436 C12.728,12.1 13.054,11.86 13.426,11.716 C13.798,11.572 14.192,11.5 14.608,11.5 Z M9.816,11.668 L9.816,20.068 L8.112,20.068 L8.112,14.62 L6,14.62 L6,13.336 C6.296,13.344 6.582,13.322 6.858,13.27 C7.134,13.218 7.382,13.126 7.602,12.994 C7.822,12.862 8.008,12.688 8.16,12.472 C8.2816,12.2992 8.36992,12.09312 8.42496,11.85376 L8.46,11.668 L9.816,11.668 Z M14.608,12.904 C14.376,12.904 14.182,12.956 14.026,13.06 C13.87,13.164 13.742,13.3 13.642,13.468 C13.542,13.636 13.464,13.826 13.408,14.038 C13.352,14.25 13.312,14.464 13.288,14.68 C13.264,14.896 13.25,15.106 13.246,15.31 L13.24,15.832 L13.24,15.832 L13.246,16.2295 L13.246,16.2295 L13.264,16.702 L13.264,16.702 C13.28,17.042 13.33,17.37 13.414,17.686 C13.498,18.002 13.632,18.272 13.816,18.496 C14,18.72 14.264,18.832 14.608,18.832 C14.96,18.832 15.23,18.72 15.418,18.496 C15.606,18.272 15.742,18.002 15.826,17.686 C15.91,17.37 15.96,17.042 15.976,16.702 L15.9865,16.456375 L15.9865,16.456375 L15.9985,16.021375 L15.9985,16.021375 L15.9993333,15.678 L15.9993333,15.678 L15.994,15.31 L15.994,15.31 C15.99,15.106 15.974,14.896 15.946,14.68 C15.918,14.464 15.878,14.25 15.826,14.038 C15.774,13.826 15.696,13.636 15.592,13.468 C15.488,13.3 15.356,13.164 15.196,13.06 C15.036,12.956 14.84,12.904 14.608,12.904 Z" id="Shape"></path>
                    </g>
                </g>
            </g>
        </g>
    </g>
</svg>