<?xml version="1.0" encoding="UTF-8"?>
<svg width="32px" height="32px" viewBox="0 0 32 32" version="1.1" xmlns="http://www.w3.org/2000/svg" xmlns:xlink="http://www.w3.org/1999/xlink">
    <title>627756D2-22F5-4A36-B614-44EA458D47A2</title>
    <g id="STDS_Icon" stroke="none" stroke-width="1" fill="none" fill-rule="evenodd">
        <g id="media" transform="translate(-364.000000, -665.000000)" fill="#000000">
            <g id="ic_media_av_fast_rewind_line" transform="translate(300.000000, 625.000000)">
                <g id="ic/media/av/10_forward/line" transform="translate(64.000000, 40.000000)">
                    <g id="ic_media_av_10_forward_line" transform="translate(4.000000, 2.000000)">
                        <path d="M16.9545378,0 C17.1610713,0 17.3620336,0.0701778719 17.5272605,0.2 L22.6181287,4.2 C23.03987,4.53137085 23.1253423,5.1581722 22.8090363,5.6 C22.7547667,5.67580567 22.6904881,5.74314575 22.6181287,5.8 L17.5272605,9.8 C17.1055191,10.1313708 16.5072136,10.0418278 16.1909076,9.6 C16.0669874,9.42690383 16,9.21637021 16,9 L16,6 L12,6 C6.4771525,6 2,10.4771525 2,16 C2,21.5228475 6.4771525,26 12,26 C17.5228475,26 22,21.5228475 22,16 C22,15.4477153 22.4477153,15 23,15 C23.5522847,15 24,15.4477153 24,16 C24,22.627417 18.627417,28 12,28 C5.372583,28 0,22.627417 0,16 C0,9.47454326 5.20854437,4.16560725 11.6950252,4.00379986 L12,4 L16,4 L16,1 C16,0.44771525 16.4273611,0 16.9545378,0 Z M14.608,11.5 C15.032,11.5 15.43,11.572 15.802,11.716 C16.174,11.86 16.502,12.1 16.786,12.436 C17.07,12.772 17.294,13.218 17.458,13.774 C17.622,14.33 17.704,15.016 17.704,15.832 C17.704,16.672 17.622,17.374 17.458,17.938 C17.294,18.502 17.07,18.952 16.786,19.288 C16.502,19.624 16.174,19.864 15.802,20.008 C15.43,20.152 15.032,20.224 14.608,20.224 C14.192,20.224 13.798,20.152 13.426,20.008 C13.054,19.864 12.728,19.624 12.448,19.288 C12.168,18.952 11.946,18.502 11.782,17.938 C11.618,17.374 11.536,16.672 11.536,15.832 C11.536,15.016 11.618,14.33 11.782,13.774 C11.946,13.218 12.168,12.772 12.448,12.436 C12.728,12.1 13.054,11.86 13.426,11.716 C13.798,11.572 14.192,11.5 14.608,11.5 Z M9.816,11.668 L9.816,20.068 L8.112,20.068 L8.112,14.62 L6,14.62 L6,13.336 C6.296,13.344 6.582,13.322 6.858,13.27 C7.134,13.218 7.382,13.126 7.602,12.994 C7.822,12.862 8.008,12.688 8.16,12.472 C8.2816,12.2992 8.36992,12.09312 8.42496,11.85376 L8.46,11.668 L9.816,11.668 Z M14.608,12.904 C14.376,12.904 14.182,12.956 14.026,13.06 C13.87,13.164 13.742,13.3 13.642,13.468 C13.542,13.636 13.464,13.826 13.408,14.038 C13.352,14.25 13.312,14.464 13.288,14.68 C13.264,14.896 13.25,15.106 13.246,15.31 L13.24,15.832 L13.24,15.832 L13.246,16.2295 L13.246,16.2295 L13.264,16.702 L13.264,16.702 C13.28,17.042 13.33,17.37 13.414,17.686 C13.498,18.002 13.632,18.272 13.816,18.496 C14,18.72 14.264,18.832 14.608,18.832 C14.96,18.832 15.23,18.72 15.418,18.496 C15.606,18.272 15.742,18.002 15.826,17.686 C15.91,17.37 15.96,17.042 15.976,16.702 L15.9865,16.456375 L15.9865,16.456375 L15.9985,16.021375 L15.9985,16.021375 L15.9993333,15.678 L15.9993333,15.678 L15.994,15.31 L15.994,15.31 C15.99,15.106 15.974,14.896 15.946,14.68 C15.918,14.464 15.878,14.25 15.826,14.038 C15.774,13.826 15.696,13.636 15.592,13.468 C15.488,13.3 15.356,13.164 15.196,13.06 C15.036,12.956 14.84,12.904 14.608,12.904 Z" id="Shape"></path>
                    </g>
                </g>
            </g>
        </g>
    </g>
</svg>