<?xml version="1.0" encoding="UTF-8"?>
<svg width="32px" height="32px" viewBox="0 0 32 32" version="1.1" xmlns="http://www.w3.org/2000/svg" xmlns:xlink="http://www.w3.org/1999/xlink">
    <title>4BF89C7C-3F92-47CD-B9CB-A65ED27BBA79</title>
    <g id="STDS_Icon" stroke="none" stroke-width="1" fill="none" fill-rule="evenodd">
        <g id="media" transform="translate(-364.000000, -4887.000000)" fill="#000000">
            <g id="ic_media_image_image_library_line" transform="translate(300.000000, 4847.000000)">
                <g id="ic/media/image/image_library/line" transform="translate(64.000000, 40.000000)">
                    <g id="ic_media_image_image_library_line" transform="translate(4.000000, 4.000000)">
                        <path d="M1,4 C1.51283584,4 1.93550716,4.38604019 1.99327227,4.88337887 L2,5 L2,18 C2,20.1421954 3.68396847,21.8910789 5.80035966,21.9951047 L6,22 L19,22 C19.5522847,22 20,22.4477153 20,23 C20,23.5128358 19.6139598,23.9355072 19.1166211,23.9932723 L19,24 L6,24 C2.76160306,24 0.122428238,21.4344251 0.00413847206,18.2249383 L0,18 L0,5 C0,4.44771525 0.44771525,4 1,4 Z M21,0 C22.5976809,0 23.9036609,1.24891996 23.9949073,2.82372721 L24,3 L24,17 C24,18.5976809 22.75108,19.9036609 21.1762728,19.9949073 L21,20 L7,20 C5.40231912,20 4.09633912,18.75108 4.00509269,17.1762728 L4,17 L4,3 C4,1.40231912 5.24891996,0.0963391206 6.82372721,0.00509269341 L7,0 L21,0 Z M15.505,11.41 L8.914,18 L21,18 C21.3001966,18 21.569498,17.8677221 21.7527973,17.6582733 L15.505,11.41 Z M21,2 L7,2 C6.48716416,2 6.06449284,2.38604019 6.00672773,2.88337887 L6,3 L6,17 C6,17.2977912 6.13016655,17.5651803 6.33670677,17.7483745 L14.7978631,9.28792336 C15.158347,8.9274394 15.7255781,8.89970986 16.1178693,9.20473475 L16.2120766,9.28792336 L22,15.075 L22,3 C22,2.48716416 21.6139598,2.06449284 21.1166211,2.00672773 L21,2 Z M10.5,6 C11.3284271,6 12,6.67157288 12,7.5 C12,8.32842712 11.3284271,9 10.5,9 C9.67157288,9 9,8.32842712 9,7.5 C9,6.67157288 9.67157288,6 10.5,6 Z" id="Shape"></path>
                    </g>
                </g>
            </g>
        </g>
    </g>
</svg>