<?xml version="1.0" encoding="UTF-8"?>
<svg width="32px" height="32px" viewBox="0 0 32 32" version="1.1" xmlns="http://www.w3.org/2000/svg" xmlns:xlink="http://www.w3.org/1999/xlink">
    <title>E57737F2-3461-4FBD-AAAB-C1FE18E1A913</title>
    <g id="STDS_Icon" stroke="none" stroke-width="1" fill="none" fill-rule="evenodd">
        <g id="media" transform="translate(-364.000000, -2105.000000)" fill="#000000">
            <g id="ic_media_av_sound_off_line" transform="translate(300.000000, 2065.000000)">
                <g id="ic/media/av/sound_off/line" transform="translate(64.000000, 40.000000)">
                    <g id="ic_media_av_sound_off_line" transform="translate(3.000000, 3.000000)">
                        <path d="M24.7071068,1.29289322 C25.0675907,1.65337718 25.0953203,2.22060824 24.7902954,2.61289944 L24.7071068,2.70710678 L22.8401677,4.5764431 C24.7826788,6.85955697 25.9104591,9.75591816 25.9948907,12.8356403 L25.997,13 L26,13 L26,21 C26,22.5976809 24.75108,23.9036609 23.1762728,23.9949073 L23,24 L21,24 C19.4023191,24 18.0963391,22.75108 18.0050927,21.1762728 L18,21 L18,16 C18,14.4023191 19.24892,13.0963391 20.8237272,13.0050927 L21,13 L23.996,13 L23.9945602,12.8532644 C23.91639,10.302222 22.9985156,7.90538869 21.4201987,5.99564368 L2.70710678,24.7071068 C2.31658249,25.0976311 1.68341751,25.0976311 1.29289322,24.7071068 C0.932409257,24.3466228 0.904679722,23.7793918 1.20970461,23.3871006 L1.29289322,23.2928932 L23.2928932,1.29289322 C23.6834175,0.902368927 24.3165825,0.902368927 24.7071068,1.29289322 Z M24,15 L21,15 C20.4871642,15 20.0644928,15.3860402 20.0067277,15.8833789 L20,16 L20,21 C20,21.5128358 20.3860402,21.9355072 20.8833789,21.9932723 L21,22 L23,22 C23.5128358,22 23.9355072,21.6139598 23.9932723,21.1166211 L24,21 L24,15 Z M13,0 C14.955826,0 16.8520945,0.439841833 18.5808829,1.27591205 C19.0780768,1.5163631 19.2862079,2.11434246 19.0457569,2.61153632 C18.8053058,3.10873018 18.2073265,3.31686135 17.7101326,3.0764103 C16.2512026,2.37084799 14.6523839,2 13,2 C7.1215015,2 2.31408878,6.70115535 2.01478064,12.62246 L2.002,13 L6.4,13 C6.95228475,13 7.4,13.4477153 7.4,14 C7.4,14.5128358 7.01395981,14.9355072 6.51662113,14.9932723 L6.4,15 L2,15 L2,19.4 C2,19.9128358 1.61395981,20.3355072 1.11662113,20.3932723 L1,20.4 C0.487164161,20.4 0.0644928393,20.0139598 0.00672773133,19.5166211 L0,19.4 L0,13.2086957 C0,5.91755698 5.81640216,0 13,0 Z" id="Shape"></path>
                    </g>
                </g>
            </g>
        </g>
    </g>
</svg>