<?xml version="1.0" encoding="UTF-8"?>
<svg width="32px" height="32px" viewBox="0 0 32 32" version="1.1" xmlns="http://www.w3.org/2000/svg" xmlns:xlink="http://www.w3.org/1999/xlink">
    <title>CAD59898-E09B-4E98-8206-6773BB9B221D</title>
    <g id="STDS_Icon" stroke="none" stroke-width="1" fill="none" fill-rule="evenodd">
        <g id="media" transform="translate(-364.000000, -3005.000000)" fill="#000000">
            <g id="ic_media_av_volume_auto_line" transform="translate(300.000000, 2965.000000)">
                <g id="ic/media/av/volume_auto/line" transform="translate(64.000000, 40.000000)">
                    <g id="ic_media_av_volume_auto_line" transform="translate(2.000000, 4.000000)">
                        <path d="M15.4452998,0.167949706 C16.0782091,-0.253989805 16.9157358,0.158018877 16.9940651,0.888157681 L17,1 L17,23 C17,23.7606623 16.1926118,24.2289853 15.5416503,23.8891511 L15.4452998,23.8320503 L6.697,18 L3,18 C1.46149248,18 0.193478518,16.8418794 0.020183194,15.3498634 L0.00509269341,15.1762728 L0,15 L0,9 C0,7.40231912 1.24891996,6.09633912 2.82372721,6.00509269 L3,6 L6.696,6 L15.4452998,0.167949706 Z M15,2.868 L7.5547002,7.83205029 C7.42328618,7.91965964 7.27347846,7.97458184 7.11773033,7.99304635 L7,8 L3,8 C2.48716416,8 2.06449284,8.38604019 2.00672773,8.88337887 L2,9 L2,15 C2,15.5128358 2.38604019,15.9355072 2.88337887,15.9932723 L3,16 L7,16 C7.15793999,16 7.31305291,16.0374003 7.45288545,16.1084305 L7.5547002,16.1679497 L15,21.131 L15,2.868 Z M26,7 C27.0543618,7 27.9181651,7.81587779 27.9945143,8.85073766 L28,9 L28,16 C28,16.5128358 27.6139598,16.9355072 27.1166211,16.9932723 L27,17 L22,17 C20.9456382,17 20.0818349,16.1841222 20.0054857,15.1492623 L20,15 L20,13 C20,11.9456382 20.8158778,11.0818349 21.8507377,11.0054857 L22,11 L26,11 L26,9 L22,9 C21.4477153,9 21,8.55228475 21,8 C21,7.48716416 21.3860402,7.06449284 21.8833789,7.00672773 L22,7 L26,7 Z M26,13 L22,13 L22,15 L26,15 L26,13 Z" id="Shape"></path>
                    </g>
                </g>
            </g>
        </g>
    </g>
</svg>