<?xml version="1.0" encoding="UTF-8"?>
<svg width="32px" height="32px" viewBox="0 0 32 32" version="1.1" xmlns="http://www.w3.org/2000/svg" xmlns:xlink="http://www.w3.org/1999/xlink">
    <title>B0DAD8FB-D185-4F6B-8AB4-17C366702B50</title>
    <g id="STDS_Icon" stroke="none" stroke-width="1" fill="none" fill-rule="evenodd">
        <g id="media" transform="translate(-364.000000, -3365.000000)" fill="#000000">
            <g id="ic_media_av_video_off_line" transform="translate(300.000000, 3325.000000)">
                <g id="ic/media/av/video_off/line" transform="translate(64.000000, 40.000000)">
                    <g id="ic_media_av_video_off_line" transform="translate(2.000000, 4.000000)">
                        <path d="M25.7071068,0.292893219 C26.0675907,0.65337718 26.0953203,1.22060824 25.7902954,1.61289944 L25.7071068,1.70710678 L22,5.414 L21.999,7.381 L26.5527864,5.10557281 C27.1826927,4.79061966 27.9179766,5.20798393 27.99363,5.88486468 L28,6 L28,18 C28,18.7042567 27.2978691,19.1752635 26.6586153,18.9402197 L26.5527864,18.8944272 L21.999,16.618 L22,19 C22,20.5976809 20.75108,21.9036609 19.1762728,21.9949073 L19,22 L5.414,22 L3.70710678,23.7071068 C3.31658249,24.0976311 2.68341751,24.0976311 2.29289322,23.7071068 C1.93240926,23.3466228 1.90467972,22.7793918 2.20970461,22.3871006 L2.29289322,22.2928932 L24.2928932,0.292893219 C24.6834175,-0.0976310729 25.3165825,-0.0976310729 25.7071068,0.292893219 Z M17.4,2 C17.9522847,2 18.4,2.44771525 18.4,3 C18.4,3.51283584 18.0139598,3.93550716 17.5166211,3.99327227 L17.4,4 L3,4 C2.48716416,4 2.06449284,4.38604019 2.00672773,4.88337887 L2,5 L2,19.4 C2,19.9522847 1.55228475,20.4 1,20.4 C0.487164161,20.4 0.0644928393,20.0139598 0.00672773133,19.5166211 L0,19.4 L0,5 C0,3.40231912 1.24891996,2.09633912 2.82372721,2.00509269 L3,2 L17.4,2 Z M20,7.414 L7.414,20 L19,20 C19.5128358,20 19.9355072,19.6139598 19.9932723,19.1166211 L20,19 L20,15 C20,14.2957433 20.7021309,13.8247365 21.3413847,14.0597803 L21.4472136,14.1055728 L25.999,16.381 L25.999,7.618 L21.4472136,9.89442719 C20.8173073,10.2093803 20.0820234,9.79201607 20.00637,9.11513532 L20,9 L20,7.414 Z" id="Shape"></path>
                    </g>
                </g>
            </g>
        </g>
    </g>
</svg>